<svg id="Layer_1" data-name="Layer 1" xmlns="http://www.w3.org/2000/svg" xmlns:xlink="http://www.w3.org/1999/xlink" viewBox="0 0 543 490"><defs><style>.cls-1{fill:url(#linear-gradient);}.cls-2{fill:#2a2a8c;}.cls-3{fill:url(#linear-gradient-2);}.cls-4{opacity:0.9;fill:url(#linear-gradient-3);}.cls-5{fill:url(#linear-gradient-4);}.cls-6{fill:url(#linear-gradient-5);}.cls-7{fill:url(#linear-gradient-6);}.cls-8{fill:url(#linear-gradient-7);}.cls-9{fill:url(#linear-gradient-8);}.cls-10{fill:url(#linear-gradient-9);}.cls-11{fill:url(#linear-gradient-10);}.cls-12,.cls-13,.cls-14,.cls-15,.cls-18,.cls-19,.cls-20,.cls-21,.cls-22,.cls-23,.cls-28,.cls-29{fill-opacity:0.2;}.cls-12{fill:url(#linear-gradient-11);}.cls-13{fill:url(#linear-gradient-12);}.cls-14{fill:url(#linear-gradient-13);}.cls-15{fill:url(#linear-gradient-14);}.cls-16{fill:url(#linear-gradient-15);}.cls-17{fill:url(#linear-gradient-16);}.cls-18{fill:url(#linear-gradient-17);}.cls-19{fill:url(#linear-gradient-18);}.cls-20{fill:url(#linear-gradient-19);}.cls-21{fill:url(#linear-gradient-20);}.cls-22{fill:url(#linear-gradient-21);}.cls-23{fill:url(#linear-gradient-22);}.cls-24{fill:url(#linear-gradient-23);}.cls-25{fill:url(#linear-gradient-24);}.cls-26{fill:url(#linear-gradient-25);}.cls-27{fill:url(#linear-gradient-26);}.cls-28{fill:url(#linear-gradient-27);}.cls-29{fill:url(#linear-gradient-28);}.cls-30{fill:none;stroke:#39ffff;stroke-miterlimit:10;stroke-width:2px;}</style><linearGradient id="linear-gradient" x1="0.21" y1="137.11" x2="100.9" y2="137.11" gradientUnits="userSpaceOnUse"><stop offset="0.04" stop-color="#3a3adb"/><stop offset="0.99" stop-color="#2a2a8c"/></linearGradient><linearGradient id="linear-gradient-2" x1="50.45" y1="221.61" x2="542.33" y2="221.61" gradientUnits="userSpaceOnUse"><stop offset="0.04" stop-color="#3a3adb"/><stop offset="0.77" stop-color="#2a2a8c"/></linearGradient><linearGradient id="linear-gradient-3" x1="0.16" y1="279.25" x2="446.97" y2="279.25" gradientUnits="userSpaceOnUse"><stop offset="0.04" stop-color="#3a3adb"/><stop offset="0.99" stop-color="#2a47c9"/></linearGradient><linearGradient id="linear-gradient-4" x1="340.93" y1="347.57" x2="474.87" y2="347.57" xlink:href="#linear-gradient"/><linearGradient id="linear-gradient-5" x1="71.3" y1="42.35" x2="73.9" y2="42.35" xlink:href="#linear-gradient"/><linearGradient id="linear-gradient-6" x1="71.3" y1="21.65" x2="73.9" y2="21.65" xlink:href="#linear-gradient"/><linearGradient id="linear-gradient-7" x1="77.5" y1="37.3" x2="87.4" y2="37.3" xlink:href="#linear-gradient"/><linearGradient id="linear-gradient-8" x1="57.8" y1="26.5" x2="67.7" y2="26.5" xlink:href="#linear-gradient"/><linearGradient id="linear-gradient-9" x1="57.7" y1="37.3" x2="67.6" y2="37.3" xlink:href="#linear-gradient"/><linearGradient id="linear-gradient-10" x1="77.5" y1="26.5" x2="87.4" y2="26.5" xlink:href="#linear-gradient"/><linearGradient id="linear-gradient-11" x1="208.8" y1="73.75" x2="211.41" y2="73.75" xlink:href="#linear-gradient"/><linearGradient id="linear-gradient-12" x1="208.8" y1="53.05" x2="211.41" y2="53.05" xlink:href="#linear-gradient"/><linearGradient id="linear-gradient-13" x1="193.5" y1="63.4" x2="204.21" y2="63.4" xlink:href="#linear-gradient"/><linearGradient id="linear-gradient-14" x1="216" y1="63.4" x2="226.71" y2="63.4" xlink:href="#linear-gradient"/><linearGradient id="linear-gradient-15" x1="55.91" y1="421.27" x2="90.05" y2="421.27" xlink:href="#linear-gradient"/><linearGradient id="linear-gradient-16" x1="56.05" y1="400.53" x2="90.14" y2="400.53" xlink:href="#linear-gradient"/><linearGradient id="linear-gradient-17" x1="345.5" y1="278.75" x2="348.1" y2="278.75" xlink:href="#linear-gradient-3"/><linearGradient id="linear-gradient-18" x1="345.5" y1="258.05" x2="348.1" y2="258.05" xlink:href="#linear-gradient-3"/><linearGradient id="linear-gradient-19" x1="351.8" y1="273.8" x2="361.7" y2="273.8" xlink:href="#linear-gradient-3"/><linearGradient id="linear-gradient-20" x1="332" y1="263" x2="341.9" y2="263" xlink:href="#linear-gradient-3"/><linearGradient id="linear-gradient-21" x1="331.9" y1="273.8" x2="341.8" y2="273.8" xlink:href="#linear-gradient-3"/><linearGradient id="linear-gradient-22" x1="351.7" y1="263" x2="361.6" y2="263" xlink:href="#linear-gradient-3"/><linearGradient id="linear-gradient-23" x1="474.1" y1="410.95" x2="476.7" y2="410.95" xlink:href="#linear-gradient"/><linearGradient id="linear-gradient-24" x1="474.1" y1="390.25" x2="476.7" y2="390.25" xlink:href="#linear-gradient"/><linearGradient id="linear-gradient-25" x1="458.8" y1="400.6" x2="469.5" y2="400.6" xlink:href="#linear-gradient"/><linearGradient id="linear-gradient-26" x1="481.2" y1="400.6" x2="491.91" y2="400.6" xlink:href="#linear-gradient"/><linearGradient id="linear-gradient-27" x1="480.31" y1="231.57" x2="514.45" y2="231.57" gradientUnits="userSpaceOnUse"><stop offset="0.04" stop-color="#3a3adb"/><stop offset="0.99" stop-color="#2a4b8c"/></linearGradient><linearGradient id="linear-gradient-28" x1="480.35" y1="210.83" x2="514.49" y2="210.83" xlink:href="#linear-gradient-27"/></defs><path class="cls-1" d="M89.5,126.5C79,109.2,68,97.8,50.6,89.7s-39.1-8.2-48,11.2,8.6,43.5,33.2,44.9c28.3,1.5,43.4,14.6,45,34,1,12.1,14.5,12.5,17.3,4.6C103.3,170,101.7,146.7,89.5,126.5Z"/><path class="cls-2" d="M311.5,26.9C194.9-92.8,68.2,219.8,35.7,320.8S140.6,438.1,233,456.2c147.6,28.8,215.2-27,226.7-94.2S428.1,146.7,311.5,26.9Z"/><path class="cls-3" d="M386.9,175.8C325,186.6,282.7,128,254.2,91.9c-22.4-28.4-116.5-75.1-175,8.7-53,76-31.1,189.1,52.3,246.4S342,399,420.9,363.5c49.9-22.4,112.9-64.1,120.7-123.3C550.2,175.4,481.9,159.3,386.9,175.8Z"/><path class="cls-4" d="M397.7,68.5c-2.5-.1-5-.1-7.6-.1-41.1,0-92.8,10.3-129.7,22.4L255,92.6c1.1,1.4,2.3,2.9,3.5,4.4,1.3-.4,2.5-.8,3.8-1.3,41-13.5,91.2-22.1,127.9-22.1,2.5,0,5,0,7.4.1,17.3.6,30.3,6.3,37.5,16.5,8.6,12.2,8.6,30.8-.1,52.2-3.9,9.7-7.2,18.9-9.9,28-11,36.6-13.6,72.1-14.2,134.2-.1,14.2,0,27.3.1,40,.1,8,.1,15.5.1,22.8,0,44.1-2.7,74.5-23,94.1-15.8,15.2-34.3,23.3-53.6,23.3-21.2,0-42.9-9.5-64.3-28.3C222.8,415,164,386,104.6,374.7c-45.6-8.7-81.4-17-93.8-36.9-6.7-10.9-6.7-25.6,0-45,6.3-18.1,18.4-43.1,41.9-70.5-.4-2.4-.7-4.8-1-7.1-23.6,26.5-38.1,52.7-46.2,76-21.7,62.6,25.1,74.8,97.9,88.7,58.6,11.2,115.8,39.3,162.8,80.5,24,21,47.1,29.7,68.1,29.7,22.1,0,41.8-9.7,57.6-24.9,22.1-21.4,24.6-53.8,24.6-100.1,0-18-.4-38.1-.2-60.4.6-64.3,3.4-98.8,14.5-134.7,2.6-8.3,5.7-16.8,9.2-25.6C458.1,99.7,439.9,69.9,397.7,68.5Z"/><path class="cls-5" d="M459.8,308.7c-35.5-38.4-76.5-14-105.7,29.4-27.1,40.3-10.6,87.6,33.3,58.4,38.3-25.4,61.6-18,78.7-35.1C489,338.7,459.8,308.7,459.8,308.7Z"/><path class="cls-6" d="M72.6,47.7a1.32,1.32,0,0,1-1.3-1.3V38.3a1.3,1.3,0,1,1,2.6,0v8.1A1.4,1.4,0,0,1,72.6,47.7Z"/><path class="cls-7" d="M72.6,27a1.32,1.32,0,0,1-1.3-1.3V17.6a1.3,1.3,0,1,1,2.6,0v8.1A1.32,1.32,0,0,1,72.6,27Z"/><path class="cls-8" d="M85.3,40.3l-7.1-3.8a1.13,1.13,0,0,1-.5-1.7,1.54,1.54,0,0,1,1.9-.5l7.1,3.8a1.13,1.13,0,0,1,.5,1.7A1.54,1.54,0,0,1,85.3,40.3Z"/><path class="cls-9" d="M65.6,29.5l-7.1-3.8A1.13,1.13,0,0,1,58,24a1.54,1.54,0,0,1,1.9-.5L67,27.3a1.13,1.13,0,0,1,.5,1.7A1.57,1.57,0,0,1,65.6,29.5Z"/><path class="cls-10" d="M57.9,39.8a1.13,1.13,0,0,1,.5-1.7l7.1-3.8a1.54,1.54,0,0,1,1.9.5,1.13,1.13,0,0,1-.5,1.7l-7.1,3.8A1.54,1.54,0,0,1,57.9,39.8Z"/><path class="cls-11" d="M77.7,29a1.13,1.13,0,0,1,.5-1.7l7.1-3.8a1.54,1.54,0,0,1,1.9.5,1.13,1.13,0,0,1-.5,1.7l-7.1,3.8A1.54,1.54,0,0,1,77.7,29Z"/><path class="cls-12" d="M210.1,79.1a1.32,1.32,0,0,1-1.3-1.3V69.7a1.3,1.3,0,0,1,2.6,0v8.1A1.21,1.21,0,0,1,210.1,79.1Z"/><path class="cls-13" d="M210.1,58.4a1.32,1.32,0,0,1-1.3-1.3V49a1.3,1.3,0,0,1,2.6,0v8.1A1.21,1.21,0,0,1,210.1,58.4Z"/><path class="cls-14" d="M202.9,64.7h-8.1a1.3,1.3,0,0,1,0-2.6h8.1a1.32,1.32,0,0,1,1.3,1.3A1.21,1.21,0,0,1,202.9,64.7Z"/><path class="cls-15" d="M225.4,64.7h-8.1a1.3,1.3,0,0,1,0-2.6h8.1a1.32,1.32,0,0,1,1.3,1.3A1.21,1.21,0,0,1,225.4,64.7Z"/><path class="cls-16" d="M73,428a17.92,17.92,0,0,1-17-11.7,1.27,1.27,0,0,1,1-1.7,1.31,1.31,0,0,1,1.6.8,15.42,15.42,0,0,0,28.8,0,1.38,1.38,0,0,1,2.6.9A18.06,18.06,0,0,1,73,428Z"/><path class="cls-17" d="M89.1,407.2a1.31,1.31,0,0,1-1.6-.8,15.42,15.42,0,0,0-28.8,0,1.38,1.38,0,0,1-2.6-.9,18.2,18.2,0,0,1,34,0A1.45,1.45,0,0,1,89.1,407.2Z"/><path class="cls-18" d="M346.8,284.1a1.32,1.32,0,0,1-1.3-1.3v-8.1a1.3,1.3,0,0,1,2.6,0v8.1A1.32,1.32,0,0,1,346.8,284.1Z"/><path class="cls-19" d="M346.8,263.4a1.32,1.32,0,0,1-1.3-1.3V254a1.3,1.3,0,0,1,2.6,0v8.1A1.32,1.32,0,0,1,346.8,263.4Z"/><path class="cls-20" d="M359.6,276.8l-7.1-3.8a1.13,1.13,0,0,1-.5-1.7,1.54,1.54,0,0,1,1.9-.5l7.1,3.8a1.13,1.13,0,0,1,.5,1.7A1.57,1.57,0,0,1,359.6,276.8Z"/><path class="cls-21" d="M339.8,266l-7.1-3.8a1.13,1.13,0,0,1-.5-1.7,1.54,1.54,0,0,1,1.9-.5l7.1,3.8a1.13,1.13,0,0,1,.5,1.7A1.57,1.57,0,0,1,339.8,266Z"/><path class="cls-22" d="M332.1,276.3a1.13,1.13,0,0,1,.5-1.7l7.1-3.8a1.54,1.54,0,0,1,1.9.5,1.13,1.13,0,0,1-.5,1.7l-7.1,3.8A1.57,1.57,0,0,1,332.1,276.3Z"/><path class="cls-23" d="M351.9,265.5a1.13,1.13,0,0,1,.5-1.7l7.1-3.8a1.54,1.54,0,0,1,1.9.5,1.13,1.13,0,0,1-.5,1.7l-7.1,3.8A1.54,1.54,0,0,1,351.9,265.5Z"/><path class="cls-24" d="M475.4,416.3a1.32,1.32,0,0,1-1.3-1.3v-8.1a1.3,1.3,0,0,1,2.6,0V415A1.32,1.32,0,0,1,475.4,416.3Z"/><path class="cls-25" d="M475.4,395.6a1.32,1.32,0,0,1-1.3-1.3v-8.1a1.3,1.3,0,0,1,2.6,0v8.1A1.32,1.32,0,0,1,475.4,395.6Z"/><path class="cls-26" d="M468.2,401.9h-8.1a1.3,1.3,0,0,1,0-2.6h8.1a1.3,1.3,0,1,1,0,2.6Z"/><path class="cls-27" d="M490.6,401.9h-8.1a1.3,1.3,0,0,1,0-2.6h8.1a1.32,1.32,0,0,1,1.3,1.3A1.21,1.21,0,0,1,490.6,401.9Z"/><path class="cls-28" d="M497.4,238.3a17.92,17.92,0,0,1-17-11.7,1.27,1.27,0,0,1,1-1.7,1.31,1.31,0,0,1,1.6.8,15.42,15.42,0,0,0,28.8,0,1.38,1.38,0,0,1,2.6.9A18.06,18.06,0,0,1,497.4,238.3Z"/><path class="cls-29" d="M513.4,217.5a1.31,1.31,0,0,1-1.6-.8,15.42,15.42,0,0,0-28.8,0,1.38,1.38,0,0,1-2.6-.9,18.2,18.2,0,0,1,34,0A1.3,1.3,0,0,1,513.4,217.5Z"/><path class="cls-30" d="M331.43,362.15c2.8-9.32-.16-17.67-4.47-25.76a18.06,18.06,0,0,0-3.1-4.49c-2.16-2.12-2.51-4.54-2.51-7.4q.11-61.89,0-123.77a3.21,3.21,0,0,1,2.25-3.53q29.38-12.87,58.67-25.93c.68-.3,1.38-.57,2.07-.85a4.52,4.52,0,0,1,.3,2.55q0,93.35,0,186.68c0,.84-.09,1.67-.14,2.5ZM367,213.86c2.44,0,4.88,0,7.32,0s3.23-.85,3.25-3.12c0-4.88,0-9.75,0-14.63,0-2.09-1-3.08-3.09-3.08-4.88,0-9.75,0-14.63,0-2.34,0-3.12.84-3.15,3.23q-.06,7.2,0,14.41c0,2.34.87,3.13,3.2,3.17S364.67,213.86,367,213.86ZM340,220.78c-2.37,0-4.73,0-7.09,0s-3.24.88-3.25,3.35q0,7.08,0,14.17c0,2.47.8,3.33,3.25,3.36,4.8,0,9.6.05,14.4,0,2.31,0,3.13-.88,3.15-3.24q.06-7.2,0-14.4c0-2.44-.86-3.2-3.38-3.23C344.67,220.76,342.31,220.78,340,220.78Zm27.25,0c-2.37,0-4.73,0-7.09,0s-3.34.83-3.36,3.27q-.08,7.2,0,14.4c0,2.33.87,3.18,3.21,3.2q7.2.08,14.4,0c2.34,0,3.22-.9,3.24-3.17,0-4.88,0-9.76,0-14.64,0-2.07-1-3.08-3.1-3.08Zm.21,55.28c-2.51,0-5,.05-7.54,0-2.12-.06-3.12,1-3.13,3,0,4.95,0,9.9,0,14.85,0,1.92,1,2.91,3,2.9q7.42-.06,14.85,0c2.14,0,3-1.07,3-3.11,0-4.87,0-9.75,0-14.62,0-2.07-1-3.06-3.12-3C372.13,276.1,369.77,276.06,367.41,276.06Zm-.23-27.43c-2.51,0-5,0-7.54,0a2.51,2.51,0,0,0-2.88,2.77q-.08,7.65,0,15.31a2.44,2.44,0,0,0,2.75,2.66h15.31c1.89,0,2.77-1.06,2.77-2.88,0-5,0-10.05,0-15.08a2.52,2.52,0,0,0-2.87-2.78C372.21,248.64,369.69,248.63,367.18,248.63Z"/><path class="cls-30" d="M287,127.85c0,.83-.12,1.66-.12,2.5q0,60.41,0,120.81c0,2.63,0,2.63-2.48,1.94a29,29,0,0,0-30.24,9.65,28.49,28.49,0,0,0-2.9,32.14c6.19,10.8,15.74,15.75,28.17,15a19.6,19.6,0,0,0,5.8-1.2c1.34-.5,1.65,0,1.68,1.31.14,6,.18,6-5.82,6-7.85.1-15.7-.35-23.55.28a36.72,36.72,0,0,0-12.92,3.54,3.26,3.26,0,0,1-3.19.1A40.72,40.72,0,0,0,223.32,316c-9.16,0-18.31,0-27.46,0-.57,0-1.34.31-1.69-.29s.36-1.12.74-1.49c1.93-1.9,1.62-4.32,1.63-6.88a65.52,65.52,0,0,0,7.88,2.29c16.06,2.58,30.66-7.92,33.49-24.16,2.65-15.2-8.19-30.33-23.73-33a27.77,27.77,0,0,0-15.7,1.7c-1.43.6-2,.58-1.95-1.22q.06-42.55,0-85.12c0-1.54.68-2,1.93-2.57q42.5-17.92,84.95-35.93c.75-.31,1.65-.38,2.12-1.2,0,0-.07-.09-.12-.13a1.22,1.22,0,0,0-.19-.12Zm-71.88,82.57c2.36,0,4.73,0,7.09,0,2.53,0,3.35-.81,3.37-3.25q.06-7.18,0-14.39c0-2.31-.89-3.13-3.21-3.15q-7.2,0-14.4,0c-2.43,0-3.24.84-3.25,3.34,0,4.72,0,9.44,0,14.17,0,2.46.82,3.23,3.33,3.28C210.44,210.45,212.8,210.41,215.16,210.42Zm37.58-38.13c0-2.51,0-5,0-7.54,0-1.87-.91-2.91-2.74-2.93-5.1,0-10.2,0-15.3,0a2.46,2.46,0,0,0-2.71,2.71q0,7.65,0,15.31a2.54,2.54,0,0,0,2.84,2.83c5,0,10.05,0,15.08,0,1.95,0,2.88-1.09,2.85-3.06C252.71,177.17,252.74,174.73,252.74,172.29Zm-37.5,45.14c-2.52,0-5,0-7.54,0-2,0-2.95,1-2.95,2.94q0,7.42,0,14.85c0,1.92.93,3,2.95,2.95,5,0,10.05,0,15.08,0a2.54,2.54,0,0,0,2.83-2.83q.06-7.54,0-15.09c0-1.95-1.09-2.87-3.06-2.83C220.11,217.47,217.67,217.43,215.24,217.43Zm54.25,20.74c2.44,0,4.87,0,7.31,0,2.1,0,3.1-.92,3.1-3q0-7.41,0-14.84c0-2-.94-2.92-2.95-2.91q-7.43,0-14.84,0c-2,0-3,.87-3,2.88,0,5,0,10,0,15.07a2.5,2.5,0,0,0,2.83,2.8Zm-16.75-10.56c0-2.43,0-4.87,0-7.3,0-1.85-.85-2.87-2.74-2.87H234.69a2.38,2.38,0,0,0-2.7,2.65q0,7.65,0,15.3c0,1.87,1,2.79,2.84,2.78h15.07c2,0,2.87-1.08,2.85-3C252.72,232.64,252.74,230.13,252.74,227.61Zm-10.32-38c-2.43,0-4.87,0-7.3,0-2.06,0-3.15.85-3.15,3,0,5,0,9.9,0,14.84,0,2.14,1.09,3,3.13,3,4.87,0,9.74,0,14.61,0,2.06,0,3.07-1,3.05-3.08,0-4.87,0-9.74,0-14.62,0-2.29-.85-3.06-3.23-3.09S244.78,189.61,242.42,189.61Zm16.7,10.53c0,2.36,0,4.72,0,7.08s.74,3.16,3.15,3.18q7.2.07,14.39,0c2.52,0,3.2-.67,3.22-3.1.05-4.88,0-9.75,0-14.62,0-2.06-.94-3.09-3-3.08-4.87,0-9.75,0-14.62,0-2.31,0-3.08.84-3.11,3.21S259.12,197.71,259.12,200.14Z"/><path class="cls-30" d="M228.47,362.15l.18-.13c-4.08-3.11-3.06-7.35-2.35-11.37A36.08,36.08,0,0,1,261.36,321c10.29-.09,20.58-.11,30.86,0a36.19,36.19,0,0,1,35.46,34.83,7,7,0,0,1-2.95,6,.36.36,0,0,0,.1.14c.05,0,.13.07.19.11h-18.3c0-4.49.09-9,.1-13.48a2.25,2.25,0,0,0-2.31-2.56,2.19,2.19,0,0,0-2.51,2.35c0,4.56-.28,9.13.14,13.69H251.35c0-4.49.05-9,0-13.48a2.27,2.27,0,0,0-2.32-2.56c-1.59-.08-2.36.88-2.55,2.34a17.66,17.66,0,0,0-.05,2.06c-.05,3.88-.11,7.76-.16,11.64Z"/><path class="cls-30" d="M161.2,362.15c.44-.68-.31-.68-.57-.86a5.47,5.47,0,0,1-2.32-4.7c-.3-16.95,13.67-33,30.58-35.19,6.16-.79,12.34-.4,18.5-.38,7.39,0,14.79-.5,22.16.4a30.64,30.64,0,0,1,8.18,2.27c-1.36,1.2-2.6,2.24-3.78,3.34a40.81,40.81,0,0,0-13.18,28.25,15.12,15.12,0,0,0,1.29,6.87h-38c0-4-.12-8,0-12.07.05-2.34-1.57-1.51-2.66-1.57s-2.47-.56-2.39,1.57c.13,4,0,8.05,0,12.07Z"/><path class="cls-30" d="M233.27,281A24.06,24.06,0,1,1,209.08,257,24,24,0,0,1,233.27,281Z"/><path class="cls-30" d="M276.52,305.05a24,24,0,1,1,24.23-23.73A23.92,23.92,0,0,1,276.52,305.05Z"/><path class="cls-30" d="M316.44,324.41a41.91,41.91,0,0,0-17.82-7.73,36.58,36.58,0,0,0-5.22-.59c-1.35,0-1.76-.57-1.6-1.79a.89.89,0,0,0,0-.23c-.57-4.93.61-8.52,4.77-12.27,13.55-12.24,11.78-33.62-3-44.35-1.43-1-2.51-5.48-1.7-6.95.33-.62.9-.46,1.41-.46,7.24,0,14.48,0,21.72,0,1.33,0,1.47.57,1.45,1.64,0,3,0,6,0,8.92v63.84Z"/><path class="cls-30" d="M372.63,203.38c0,5.5,0,5.5-5.53,5.5s-5.42,0-5.42-5.4,0-5.53,5.55-5.53C372.63,198,372.63,198,372.63,203.38Z"/><path class="cls-30" d="M345.51,231.14c0,5.59,0,5.59-5.49,5.59s-5.44,0-5.44-5.4c0-5.57,0-5.57,5.46-5.57S345.51,225.76,345.51,231.14Z"/><path class="cls-30" d="M361.68,231.07c0-5.31,0-5.32,5.25-5.3,1.81,0,4.21-.59,5.27.32,1.26,1.09.38,3.56.41,5.42.06,5.22,0,5.22-5.09,5.22h-.23C361.68,236.73,361.68,236.73,361.68,231.07Z"/><path class="cls-30" d="M367.33,291.88c-5.65,0-5.65,0-5.65-5.69,0-5.19,0-5.2,5.22-5.18,1.82,0,4.23-.59,5.3.33,1.26,1.09.38,3.57.4,5.45C372.67,291.88,372.63,291.88,367.33,291.88Z"/><path class="cls-30" d="M367.34,253.58c5.29,0,5.29,0,5.29,5.32,0,5.58,0,5.58-5.74,5.58-5.21,0-5.21,0-5.21-5.23C361.68,253.58,361.68,253.58,367.34,253.58Z"/><path class="cls-30" d="M220.67,200.06c0,5.47,0,5.47-5.39,5.47-5.57,0-5.57,0-5.57-5.51s0-5.44,5.37-5.44C220.67,194.58,220.67,194.58,220.67,200.06Z"/><path class="cls-30" d="M247.77,172.46c0,5.25,0,5.25-5.33,5.25-5.59,0-5.59,0-5.59-5.7,0-5.25,0-5.25,5.36-5.25C247.77,166.76,247.77,166.76,247.77,172.46Z"/><path class="cls-30" d="M215.11,233.22c-5.4,0-5.4,0-5.4-5.4s0-5.5,5.55-5.5,5.41,0,5.41,5.42S220.67,233.22,215.11,233.22Z"/><path class="cls-30" d="M269.63,233.22c-5.55,0-5.55,0-5.55-5.49s0-5.41,5.44-5.41,5.48,0,5.48,5.4V228C275,233.22,275,233.22,269.63,233.22Z"/><path class="cls-30" d="M242.49,222.32c5.28,0,5.28,0,5.28,5.34,0,5.56,0,5.56-5.48,5.56s-5.44,0-5.44-5.43S236.85,222.32,242.49,222.32Z"/><path class="cls-30" d="M247.77,200.14c0,5.39,0,5.39-5.49,5.39s-5.43,0-5.43-5.48,0-5.47,5.42-5.47S247.77,194.58,247.77,200.14Z"/><path class="cls-30" d="M264.08,199.93c0-5.35,0-5.35,5.26-5.35,5.66,0,5.66,0,5.66,5.67,0,5.28,0,5.28-5.17,5.28h-.23C264.08,205.53,264.08,205.53,264.08,199.93Z"/></svg>