<svg id="Layer_1" data-name="Layer 1" xmlns="http://www.w3.org/2000/svg" xmlns:xlink="http://www.w3.org/1999/xlink" viewBox="0 0 543 490"><defs><style>.cls-1{fill:url(#linear-gradient);}.cls-2{fill:#2a2a8c;}.cls-3{fill:url(#linear-gradient-2);}.cls-4{opacity:0.9;fill:url(#linear-gradient-3);}.cls-5{fill:url(#linear-gradient-4);}.cls-6{fill:url(#linear-gradient-5);}.cls-7{fill:url(#linear-gradient-6);}.cls-8{fill:url(#linear-gradient-7);}.cls-9{fill:url(#linear-gradient-8);}.cls-10{fill:url(#linear-gradient-9);}.cls-11{fill:url(#linear-gradient-10);}.cls-12,.cls-13,.cls-14,.cls-15,.cls-18,.cls-19,.cls-20,.cls-21,.cls-22,.cls-23,.cls-28,.cls-29{fill-opacity:0.2;}.cls-12{fill:url(#linear-gradient-11);}.cls-13{fill:url(#linear-gradient-12);}.cls-14{fill:url(#linear-gradient-13);}.cls-15{fill:url(#linear-gradient-14);}.cls-16{fill:url(#linear-gradient-15);}.cls-17{fill:url(#linear-gradient-16);}.cls-18{fill:url(#linear-gradient-17);}.cls-19{fill:url(#linear-gradient-18);}.cls-20{fill:url(#linear-gradient-19);}.cls-21{fill:url(#linear-gradient-20);}.cls-22{fill:url(#linear-gradient-21);}.cls-23{fill:url(#linear-gradient-22);}.cls-24{fill:url(#linear-gradient-23);}.cls-25{fill:url(#linear-gradient-24);}.cls-26{fill:url(#linear-gradient-25);}.cls-27{fill:url(#linear-gradient-26);}.cls-28{fill:url(#linear-gradient-27);}.cls-29{fill:url(#linear-gradient-28);}.cls-30{fill:none;stroke:#39ffff;stroke-miterlimit:10;stroke-width:2px;}</style><linearGradient id="linear-gradient" x1="0.21" y1="137.11" x2="100.9" y2="137.11" gradientUnits="userSpaceOnUse"><stop offset="0.04" stop-color="#3a3adb"/><stop offset="0.99" stop-color="#2a2a8c"/></linearGradient><linearGradient id="linear-gradient-2" x1="50.45" y1="221.61" x2="542.33" y2="221.61" gradientUnits="userSpaceOnUse"><stop offset="0.04" stop-color="#3a3adb"/><stop offset="0.77" stop-color="#2a2a8c"/></linearGradient><linearGradient id="linear-gradient-3" x1="0.16" y1="279.25" x2="446.97" y2="279.25" gradientUnits="userSpaceOnUse"><stop offset="0.04" stop-color="#3a3adb"/><stop offset="0.99" stop-color="#2a47c9"/></linearGradient><linearGradient id="linear-gradient-4" x1="340.93" y1="347.57" x2="474.87" y2="347.57" xlink:href="#linear-gradient"/><linearGradient id="linear-gradient-5" x1="71.3" y1="42.35" x2="73.9" y2="42.35" xlink:href="#linear-gradient"/><linearGradient id="linear-gradient-6" x1="71.3" y1="21.65" x2="73.9" y2="21.65" xlink:href="#linear-gradient"/><linearGradient id="linear-gradient-7" x1="77.5" y1="37.3" x2="87.4" y2="37.3" xlink:href="#linear-gradient"/><linearGradient id="linear-gradient-8" x1="57.8" y1="26.5" x2="67.7" y2="26.5" xlink:href="#linear-gradient"/><linearGradient id="linear-gradient-9" x1="57.7" y1="37.3" x2="67.6" y2="37.3" xlink:href="#linear-gradient"/><linearGradient id="linear-gradient-10" x1="77.5" y1="26.5" x2="87.4" y2="26.5" xlink:href="#linear-gradient"/><linearGradient id="linear-gradient-11" x1="208.8" y1="73.75" x2="211.41" y2="73.75" xlink:href="#linear-gradient"/><linearGradient id="linear-gradient-12" x1="208.8" y1="53.05" x2="211.41" y2="53.05" xlink:href="#linear-gradient"/><linearGradient id="linear-gradient-13" x1="193.5" y1="63.4" x2="204.21" y2="63.4" xlink:href="#linear-gradient"/><linearGradient id="linear-gradient-14" x1="216" y1="63.4" x2="226.71" y2="63.4" xlink:href="#linear-gradient"/><linearGradient id="linear-gradient-15" x1="55.91" y1="421.27" x2="90.05" y2="421.27" xlink:href="#linear-gradient"/><linearGradient id="linear-gradient-16" x1="56.05" y1="400.53" x2="90.14" y2="400.53" xlink:href="#linear-gradient"/><linearGradient id="linear-gradient-17" x1="345.5" y1="278.75" x2="348.1" y2="278.75" xlink:href="#linear-gradient-3"/><linearGradient id="linear-gradient-18" x1="345.5" y1="258.05" x2="348.1" y2="258.05" xlink:href="#linear-gradient-3"/><linearGradient id="linear-gradient-19" x1="351.8" y1="273.8" x2="361.7" y2="273.8" xlink:href="#linear-gradient-3"/><linearGradient id="linear-gradient-20" x1="332" y1="263" x2="341.9" y2="263" xlink:href="#linear-gradient-3"/><linearGradient id="linear-gradient-21" x1="331.9" y1="273.8" x2="341.8" y2="273.8" xlink:href="#linear-gradient-3"/><linearGradient id="linear-gradient-22" x1="351.7" y1="263" x2="361.6" y2="263" xlink:href="#linear-gradient-3"/><linearGradient id="linear-gradient-23" x1="474.1" y1="410.95" x2="476.7" y2="410.95" xlink:href="#linear-gradient"/><linearGradient id="linear-gradient-24" x1="474.1" y1="390.25" x2="476.7" y2="390.25" xlink:href="#linear-gradient"/><linearGradient id="linear-gradient-25" x1="458.8" y1="400.6" x2="469.5" y2="400.6" xlink:href="#linear-gradient"/><linearGradient id="linear-gradient-26" x1="481.2" y1="400.6" x2="491.91" y2="400.6" xlink:href="#linear-gradient"/><linearGradient id="linear-gradient-27" x1="480.31" y1="231.57" x2="514.45" y2="231.57" gradientUnits="userSpaceOnUse"><stop offset="0.04" stop-color="#3a3adb"/><stop offset="0.99" stop-color="#2a4b8c"/></linearGradient><linearGradient id="linear-gradient-28" x1="480.35" y1="210.83" x2="514.49" y2="210.83" xlink:href="#linear-gradient-27"/></defs><path class="cls-1" d="M89.5,126.5C79,109.2,68,97.8,50.6,89.7s-39.1-8.2-48,11.2,8.6,43.5,33.2,44.9c28.3,1.5,43.4,14.6,45,34,1,12.1,14.5,12.5,17.3,4.6C103.3,170,101.7,146.7,89.5,126.5Z"/><path class="cls-2" d="M311.5,26.9C194.9-92.8,68.2,219.8,35.7,320.8S140.6,438.1,233,456.2c147.6,28.8,215.2-27,226.7-94.2S428.1,146.7,311.5,26.9Z"/><path class="cls-3" d="M386.9,175.8C325,186.6,282.7,128,254.2,91.9c-22.4-28.4-116.5-75.1-175,8.7-53,76-31.1,189.1,52.3,246.4S342,399,420.9,363.5c49.9-22.4,112.9-64.1,120.7-123.3C550.2,175.4,481.9,159.3,386.9,175.8Z"/><path class="cls-4" d="M397.7,68.5c-2.5-.1-5-.1-7.6-.1-41.1,0-92.8,10.3-129.7,22.4L255,92.6c1.1,1.4,2.3,2.9,3.5,4.4,1.3-.4,2.5-.8,3.8-1.3,41-13.5,91.2-22.1,127.9-22.1,2.5,0,5,0,7.4.1,17.3.6,30.3,6.3,37.5,16.5,8.6,12.2,8.6,30.8-.1,52.2-3.9,9.7-7.2,18.9-9.9,28-11,36.6-13.6,72.1-14.2,134.2-.1,14.2,0,27.3.1,40,.1,8,.1,15.5.1,22.8,0,44.1-2.7,74.5-23,94.1-15.8,15.2-34.3,23.3-53.6,23.3-21.2,0-42.9-9.5-64.3-28.3C222.8,415,164,386,104.6,374.7c-45.6-8.7-81.4-17-93.8-36.9-6.7-10.9-6.7-25.6,0-45,6.3-18.1,18.4-43.1,41.9-70.5-.4-2.4-.7-4.8-1-7.1-23.6,26.5-38.1,52.7-46.2,76-21.7,62.6,25.1,74.8,97.9,88.7,58.6,11.2,115.8,39.3,162.8,80.5,24,21,47.1,29.7,68.1,29.7,22.1,0,41.8-9.7,57.6-24.9,22.1-21.4,24.6-53.8,24.6-100.1,0-18-.4-38.1-.2-60.4.6-64.3,3.4-98.8,14.5-134.7,2.6-8.3,5.7-16.8,9.2-25.6C458.1,99.7,439.9,69.9,397.7,68.5Z"/><path class="cls-5" d="M459.8,308.7c-35.5-38.4-76.5-14-105.7,29.4-27.1,40.3-10.6,87.6,33.3,58.4,38.3-25.4,61.6-18,78.7-35.1C489,338.7,459.8,308.7,459.8,308.7Z"/><path class="cls-6" d="M72.6,47.7a1.32,1.32,0,0,1-1.3-1.3V38.3a1.3,1.3,0,1,1,2.6,0v8.1A1.4,1.4,0,0,1,72.6,47.7Z"/><path class="cls-7" d="M72.6,27a1.32,1.32,0,0,1-1.3-1.3V17.6a1.3,1.3,0,1,1,2.6,0v8.1A1.32,1.32,0,0,1,72.6,27Z"/><path class="cls-8" d="M85.3,40.3l-7.1-3.8a1.13,1.13,0,0,1-.5-1.7,1.54,1.54,0,0,1,1.9-.5l7.1,3.8a1.13,1.13,0,0,1,.5,1.7A1.54,1.54,0,0,1,85.3,40.3Z"/><path class="cls-9" d="M65.6,29.5l-7.1-3.8A1.13,1.13,0,0,1,58,24a1.54,1.54,0,0,1,1.9-.5L67,27.3a1.13,1.13,0,0,1,.5,1.7A1.57,1.57,0,0,1,65.6,29.5Z"/><path class="cls-10" d="M57.9,39.8a1.13,1.13,0,0,1,.5-1.7l7.1-3.8a1.54,1.54,0,0,1,1.9.5,1.13,1.13,0,0,1-.5,1.7l-7.1,3.8A1.54,1.54,0,0,1,57.9,39.8Z"/><path class="cls-11" d="M77.7,29a1.13,1.13,0,0,1,.5-1.7l7.1-3.8a1.54,1.54,0,0,1,1.9.5,1.13,1.13,0,0,1-.5,1.7l-7.1,3.8A1.54,1.54,0,0,1,77.7,29Z"/><path class="cls-12" d="M210.1,79.1a1.32,1.32,0,0,1-1.3-1.3V69.7a1.3,1.3,0,0,1,2.6,0v8.1A1.21,1.21,0,0,1,210.1,79.1Z"/><path class="cls-13" d="M210.1,58.4a1.32,1.32,0,0,1-1.3-1.3V49a1.3,1.3,0,0,1,2.6,0v8.1A1.21,1.21,0,0,1,210.1,58.4Z"/><path class="cls-14" d="M202.9,64.7h-8.1a1.3,1.3,0,0,1,0-2.6h8.1a1.32,1.32,0,0,1,1.3,1.3A1.21,1.21,0,0,1,202.9,64.7Z"/><path class="cls-15" d="M225.4,64.7h-8.1a1.3,1.3,0,0,1,0-2.6h8.1a1.32,1.32,0,0,1,1.3,1.3A1.21,1.21,0,0,1,225.4,64.7Z"/><path class="cls-16" d="M73,428a17.92,17.92,0,0,1-17-11.7,1.27,1.27,0,0,1,1-1.7,1.31,1.31,0,0,1,1.6.8,15.42,15.42,0,0,0,28.8,0,1.38,1.38,0,0,1,2.6.9A18.06,18.06,0,0,1,73,428Z"/><path class="cls-17" d="M89.1,407.2a1.31,1.31,0,0,1-1.6-.8,15.42,15.42,0,0,0-28.8,0,1.38,1.38,0,0,1-2.6-.9,18.2,18.2,0,0,1,34,0A1.45,1.45,0,0,1,89.1,407.2Z"/><path class="cls-18" d="M346.8,284.1a1.32,1.32,0,0,1-1.3-1.3v-8.1a1.3,1.3,0,0,1,2.6,0v8.1A1.32,1.32,0,0,1,346.8,284.1Z"/><path class="cls-19" d="M346.8,263.4a1.32,1.32,0,0,1-1.3-1.3V254a1.3,1.3,0,0,1,2.6,0v8.1A1.32,1.32,0,0,1,346.8,263.4Z"/><path class="cls-20" d="M359.6,276.8l-7.1-3.8a1.13,1.13,0,0,1-.5-1.7,1.54,1.54,0,0,1,1.9-.5l7.1,3.8a1.13,1.13,0,0,1,.5,1.7A1.57,1.57,0,0,1,359.6,276.8Z"/><path class="cls-21" d="M339.8,266l-7.1-3.8a1.13,1.13,0,0,1-.5-1.7,1.54,1.54,0,0,1,1.9-.5l7.1,3.8a1.13,1.13,0,0,1,.5,1.7A1.57,1.57,0,0,1,339.8,266Z"/><path class="cls-22" d="M332.1,276.3a1.13,1.13,0,0,1,.5-1.7l7.1-3.8a1.54,1.54,0,0,1,1.9.5,1.13,1.13,0,0,1-.5,1.7l-7.1,3.8A1.57,1.57,0,0,1,332.1,276.3Z"/><path class="cls-23" d="M351.9,265.5a1.13,1.13,0,0,1,.5-1.7l7.1-3.8a1.54,1.54,0,0,1,1.9.5,1.13,1.13,0,0,1-.5,1.7l-7.1,3.8A1.54,1.54,0,0,1,351.9,265.5Z"/><path class="cls-24" d="M475.4,416.3a1.32,1.32,0,0,1-1.3-1.3v-8.1a1.3,1.3,0,0,1,2.6,0V415A1.32,1.32,0,0,1,475.4,416.3Z"/><path class="cls-25" d="M475.4,395.6a1.32,1.32,0,0,1-1.3-1.3v-8.1a1.3,1.3,0,0,1,2.6,0v8.1A1.32,1.32,0,0,1,475.4,395.6Z"/><path class="cls-26" d="M468.2,401.9h-8.1a1.3,1.3,0,0,1,0-2.6h8.1a1.3,1.3,0,1,1,0,2.6Z"/><path class="cls-27" d="M490.6,401.9h-8.1a1.3,1.3,0,0,1,0-2.6h8.1a1.32,1.32,0,0,1,1.3,1.3A1.21,1.21,0,0,1,490.6,401.9Z"/><path class="cls-28" d="M497.4,238.3a17.92,17.92,0,0,1-17-11.7,1.27,1.27,0,0,1,1-1.7,1.31,1.31,0,0,1,1.6.8,15.42,15.42,0,0,0,28.8,0,1.38,1.38,0,0,1,2.6.9A18.06,18.06,0,0,1,497.4,238.3Z"/><path class="cls-29" d="M513.4,217.5a1.31,1.31,0,0,1-1.6-.8,15.42,15.42,0,0,0-28.8,0,1.38,1.38,0,0,1-2.6-.9,18.2,18.2,0,0,1,34,0A1.3,1.3,0,0,1,513.4,217.5Z"/><path class="cls-30" d="M320.35,161.85c-.1,3.19-1.87,5-4.43,6.12-2.07.9-2.57,2.19-2.12,4.41a37.46,37.46,0,0,1-.09,15.28c-.4,1.88-.1,3,1.73,4,6.2,3.46,6.73,5.69,3.21,11.78-1.46,2.54-2.88,5.11-4.39,7.61-2.26,3.76-5.23,4.55-9,2.48a10.37,10.37,0,0,1-1.61-1c-1.83-1.53-3.24-1.27-5.05.37a33.53,33.53,0,0,1-12.49,7c-1.93.61-2.71,1.58-2.46,3.58a20.91,20.91,0,0,1,0,3.45c-.14,3.81-2.3,6-6.13,6.07s-7.74.11-11.62,0-6.58-2.38-6.17-6.29c.48-4.65-1.12-6.91-5.57-8.16-3.72-1-6.9-3.47-9.83-6a2.29,2.29,0,0,0-3.29-.22c-8.28,5.83-10.87,3.14-14.6-4-1.06-2-2.34-4-3.43-6-2-3.64-1.28-7,2.46-8.72s5-4,3.88-8.16a24.55,24.55,0,0,1-.06-11.53c.47-2.24-.2-3.54-2.25-4.37a16.33,16.33,0,0,1-2.73-1.54c-2.87-1.91-3.77-4.87-2.17-7.93,1.89-3.61,3.92-7.15,6.05-10.63s5.27-4.16,8.91-1.8c2.69,1.74,4.47,1.77,6.87-.63a32,32,0,0,1,12.28-7.38c1.91-.67,2.51-1.62,2.5-3.62-.05-6.7,1.6-8.25,8.35-8.25,3,0,6.07-.05,9.11,0,4.33.09,6.73,2.3,6.48,6.65-.16,3,.9,4.15,3.64,5a36.2,36.2,0,0,1,13.45,7.86c1.13,1,1.94,1,3.25.29,6.4-3.52,8.25-2.92,12,3.51q2,3.54,4.11,7.05A8.37,8.37,0,0,1,320.35,161.85Zm-8.43-.86c-.7-1.23-1.41-2.5-2.15-3.77-2.06-3.57-2.06-3.57-5.59-1.55-3.78,2.16-4.41,2.08-7.59-1a36.21,36.21,0,0,0-16.18-9.22c-5-1.35-5.33-1.48-5.06-6.55.16-3-.87-3.94-3.64-3.5a11.73,11.73,0,0,1-1.57,0c-4.55,0-3.93-.49-4,4.06,0,4.72-.18,4.94-4.7,6.37a36.4,36.4,0,0,0-15.33,9.45c-3.82,3.94-4.06,4.08-8.74,1.17-2.44-1.53-3.81-1.87-5.32,1.25-2.34,4.82-2.67,4.85,2,7.3,3.17,1.65,4,3.69,3.07,7.14-1.24,4.58-1.74,9.52-.12,14,2.3,6.33,1,10.42-5.46,12.67-1.22.42-1.33,1.15-.69,2.41,3.29,6.44,3.3,6.56,9.31,2.95,2.72-1.64,4.74-1.36,6.92.9a32.46,32.46,0,0,0,12.36,7.83c7.33,2.69,7.41,2.66,7.56,10.51,0,1.8.55,2.24,2.31,2.27,6.67.09,6.75.16,6.73-6.33,0-2.94,1-4.66,4-5.37,5-1.14,9.82-3,13.32-6.66,4.28-4.46,8.27-6,13.32-1.58.93.82,1.66.53,2.2-.56.41-.84.94-1.63,1.41-2.45,2.28-4,2.28-4-1.67-6.27s-4.25-2.91-3-7.29a35.8,35.8,0,0,0,.45-17.09c-1.3-6.16-1.28-6.15,4-9.4C310.79,162.22,311.75,162.08,311.92,161Z"/><path class="cls-30" d="M174.92,362.15H120c-4.76,0-5.73-1-5.58-5.73,1-32.35,27.73-58.42,60-58.55a60.62,60.62,0,0,1,61,58.14c.19,5.16-.72,6.14-5.8,6.14Zm0-7.5h45.55c8,0,8,0,6.14-7.9a53.19,53.19,0,0,0-54-41.33c-25.83,1.18-46.7,20.45-50.42,46.4-.38,2.65.56,2.88,2.76,2.87C141.6,354.62,158.25,354.65,174.91,354.65Z"/><path class="cls-30" d="M368,362.15H313.36c-4.87,0-6-1.14-5.78-5.89A60.72,60.72,0,0,1,364.63,298c30.53-1.95,58,19.92,63.2,50.42a66.87,66.87,0,0,1,.8,9.06c.12,3.54-1.19,4.71-5,4.71Q395.81,362.17,368,362.15Zm0-7.5h45.56c8,0,8,0,6.25-8a53,53,0,0,0-104.2,4c-.58,4-.58,4,3.38,4Z"/><path class="cls-30" d="M376.09,176c5,0,10.05,0,15.08,0,7.28.07,12.67,5.26,12.58,12s-5.31,11.65-12.53,11.69c-4,0-8-.05-11.93,0s-6.35,2.4-6.48,6.47c0,.84.05,1.69,0,2.51-.3,2.64-1.75,4.26-4.46,4.38s-4.33-1.43-4.82-4a15.74,15.74,0,0,1,15.43-18.71c4,0,7.95,0,11.93,0,1.89,0,3.53-.47,3.46-2.65-.06-2-1.62-2.43-3.38-2.43-10.46,0-20.93,0-31.4,0-1.79,0-2.06.73-2,2.23.09,2.61.11,5.23,0,7.85-.15,3.88-2.85,5.49-6.21,3.59q-12.82-7.27-25.52-14.77c-3.3-1.95-3.22-5.13.16-7.12q12.57-7.38,25.26-14.59c3.51-2,6.19-.38,6.31,3.71.08,2.41.14,4.82,0,7.22-.14,2,.46,2.7,2.57,2.64C365.41,175.88,370.75,176,376.09,176Zm-26.16-4.09-15.19,8.79,15.19,8.75Z"/><path class="cls-30" d="M170.15,176c5.34,0,10.69,0,16,0,1.61,0,2.22-.45,2.15-2.12-.12-2.71-.11-5.44,0-8.16.14-3.54,2.76-5.21,5.81-3.5q13.13,7.38,26.08,15.06c3,1.77,2.93,5-.09,6.8Q207.3,191.68,194.31,199c-3.22,1.82-5.86.21-6-3.51-.09-2.61-.11-5.23,0-7.85.07-1.68-.32-2.39-2.21-2.37-10.37.08-20.74,0-31.11,0-1.83,0-3.55.32-3.54,2.56s1.74,2.53,3.57,2.51c4,0,8-.05,11.94,0a15.76,15.76,0,0,1,15.26,18.85,4.35,4.35,0,0,1-4.62,3.86c-2.73,0-4.24-1.63-4.63-4.21-1.39-9.16-1.36-9.17-10.74-9.17-2.72,0-5.45,0-8.17,0-6.78-.1-11.91-5-12.05-11.53A11.88,11.88,0,0,1,153.82,176C159.26,175.86,164.71,176,170.15,176ZM196,172v17.38l15.06-8.7Z"/><path class="cls-30" d="M402.86,256.78A34.88,34.88,0,0,1,368,291.43c-19.11-.13-34.85-16-34.65-34.94a34.77,34.77,0,1,1,69.53.29Zm-7.52-.21a27.22,27.22,0,1,0-27.07,27.34A27.45,27.45,0,0,0,395.34,256.57Z"/><path class="cls-30" d="M209.64,256.69a34.74,34.74,0,1,1-34.72-34.84A34.93,34.93,0,0,1,209.64,256.69Zm-7.55-.79c-.87-15.53-13.63-27.39-28.5-26.49a27.39,27.39,0,0,0-25.88,28.75c.74,14.66,13.79,26.51,28.3,25.7C190.94,283,202.9,270.2,202.09,255.9Z"/><path class="cls-30" d="M271.72,206.89A27.21,27.21,0,1,1,299,179.7,27.15,27.15,0,0,1,271.72,206.89ZM271.58,160a19.69,19.69,0,0,0,0,39.38,19.69,19.69,0,1,0,0-39.38Z"/></svg>