<svg id="Layer_1" data-name="Layer 1" xmlns="http://www.w3.org/2000/svg" xmlns:xlink="http://www.w3.org/1999/xlink" viewBox="0 0 543 490"><defs><style>.cls-1{fill:url(#linear-gradient);}.cls-2{fill:#2a2a8c;}.cls-3{fill:url(#linear-gradient-2);}.cls-4{opacity:0.9;fill:url(#linear-gradient-3);}.cls-5{fill:url(#linear-gradient-4);}.cls-6{fill:url(#linear-gradient-5);}.cls-7{fill:url(#linear-gradient-6);}.cls-8{fill:url(#linear-gradient-7);}.cls-9{fill:url(#linear-gradient-8);}.cls-10{fill:url(#linear-gradient-9);}.cls-11{fill:url(#linear-gradient-10);}.cls-12,.cls-13,.cls-14,.cls-15,.cls-18,.cls-19,.cls-20,.cls-21,.cls-22,.cls-23,.cls-28,.cls-29{fill-opacity:0.2;}.cls-12{fill:url(#linear-gradient-11);}.cls-13{fill:url(#linear-gradient-12);}.cls-14{fill:url(#linear-gradient-13);}.cls-15{fill:url(#linear-gradient-14);}.cls-16{fill:url(#linear-gradient-15);}.cls-17{fill:url(#linear-gradient-16);}.cls-18{fill:url(#linear-gradient-17);}.cls-19{fill:url(#linear-gradient-18);}.cls-20{fill:url(#linear-gradient-19);}.cls-21{fill:url(#linear-gradient-20);}.cls-22{fill:url(#linear-gradient-21);}.cls-23{fill:url(#linear-gradient-22);}.cls-24{fill:url(#linear-gradient-23);}.cls-25{fill:url(#linear-gradient-24);}.cls-26{fill:url(#linear-gradient-25);}.cls-27{fill:url(#linear-gradient-26);}.cls-28{fill:url(#linear-gradient-27);}.cls-29{fill:url(#linear-gradient-28);}.cls-30{fill:none;stroke:#39ffff;stroke-miterlimit:10;stroke-width:2px;}</style><linearGradient id="linear-gradient" x1="0.21" y1="137.11" x2="100.9" y2="137.11" gradientUnits="userSpaceOnUse"><stop offset="0.04" stop-color="#3a3adb"/><stop offset="0.99" stop-color="#2a2a8c"/></linearGradient><linearGradient id="linear-gradient-2" x1="50.45" y1="221.61" x2="542.33" y2="221.61" gradientUnits="userSpaceOnUse"><stop offset="0.04" stop-color="#3a3adb"/><stop offset="0.77" stop-color="#2a2a8c"/></linearGradient><linearGradient id="linear-gradient-3" x1="0.16" y1="279.25" x2="446.97" y2="279.25" gradientUnits="userSpaceOnUse"><stop offset="0.04" stop-color="#3a3adb"/><stop offset="0.99" stop-color="#2a47c9"/></linearGradient><linearGradient id="linear-gradient-4" x1="340.93" y1="347.57" x2="474.87" y2="347.57" xlink:href="#linear-gradient"/><linearGradient id="linear-gradient-5" x1="71.3" y1="42.35" x2="73.9" y2="42.35" xlink:href="#linear-gradient"/><linearGradient id="linear-gradient-6" x1="71.3" y1="21.65" x2="73.9" y2="21.65" xlink:href="#linear-gradient"/><linearGradient id="linear-gradient-7" x1="77.5" y1="37.3" x2="87.4" y2="37.3" xlink:href="#linear-gradient"/><linearGradient id="linear-gradient-8" x1="57.8" y1="26.5" x2="67.7" y2="26.5" xlink:href="#linear-gradient"/><linearGradient id="linear-gradient-9" x1="57.7" y1="37.3" x2="67.6" y2="37.3" xlink:href="#linear-gradient"/><linearGradient id="linear-gradient-10" x1="77.5" y1="26.5" x2="87.4" y2="26.5" xlink:href="#linear-gradient"/><linearGradient id="linear-gradient-11" x1="208.8" y1="73.75" x2="211.41" y2="73.75" xlink:href="#linear-gradient"/><linearGradient id="linear-gradient-12" x1="208.8" y1="53.05" x2="211.41" y2="53.05" xlink:href="#linear-gradient"/><linearGradient id="linear-gradient-13" x1="193.5" y1="63.4" x2="204.21" y2="63.4" xlink:href="#linear-gradient"/><linearGradient id="linear-gradient-14" x1="216" y1="63.4" x2="226.71" y2="63.4" xlink:href="#linear-gradient"/><linearGradient id="linear-gradient-15" x1="55.91" y1="421.27" x2="90.05" y2="421.27" xlink:href="#linear-gradient"/><linearGradient id="linear-gradient-16" x1="56.05" y1="400.53" x2="90.14" y2="400.53" xlink:href="#linear-gradient"/><linearGradient id="linear-gradient-17" x1="345.5" y1="278.75" x2="348.1" y2="278.75" xlink:href="#linear-gradient-3"/><linearGradient id="linear-gradient-18" x1="345.5" y1="258.05" x2="348.1" y2="258.05" xlink:href="#linear-gradient-3"/><linearGradient id="linear-gradient-19" x1="351.8" y1="273.8" x2="361.7" y2="273.8" xlink:href="#linear-gradient-3"/><linearGradient id="linear-gradient-20" x1="332" y1="263" x2="341.9" y2="263" xlink:href="#linear-gradient-3"/><linearGradient id="linear-gradient-21" x1="331.9" y1="273.8" x2="341.8" y2="273.8" xlink:href="#linear-gradient-3"/><linearGradient id="linear-gradient-22" x1="351.7" y1="263" x2="361.6" y2="263" xlink:href="#linear-gradient-3"/><linearGradient id="linear-gradient-23" x1="474.1" y1="410.95" x2="476.7" y2="410.95" xlink:href="#linear-gradient"/><linearGradient id="linear-gradient-24" x1="474.1" y1="390.25" x2="476.7" y2="390.25" xlink:href="#linear-gradient"/><linearGradient id="linear-gradient-25" x1="458.8" y1="400.6" x2="469.5" y2="400.6" xlink:href="#linear-gradient"/><linearGradient id="linear-gradient-26" x1="481.2" y1="400.6" x2="491.91" y2="400.6" xlink:href="#linear-gradient"/><linearGradient id="linear-gradient-27" x1="480.31" y1="231.57" x2="514.45" y2="231.57" gradientUnits="userSpaceOnUse"><stop offset="0.04" stop-color="#3a3adb"/><stop offset="0.99" stop-color="#2a4b8c"/></linearGradient><linearGradient id="linear-gradient-28" x1="480.35" y1="210.83" x2="514.49" y2="210.83" xlink:href="#linear-gradient-27"/></defs><path class="cls-1" d="M89.5,126.5C79,109.2,68,97.8,50.6,89.7s-39.1-8.2-48,11.2,8.6,43.5,33.2,44.9c28.3,1.5,43.4,14.6,45,34,1,12.1,14.5,12.5,17.3,4.6C103.3,170,101.7,146.7,89.5,126.5Z"/><path class="cls-2" d="M311.5,26.9C194.9-92.8,68.2,219.8,35.7,320.8S140.6,438.1,233,456.2c147.6,28.8,215.2-27,226.7-94.2S428.1,146.7,311.5,26.9Z"/><path class="cls-3" d="M386.9,175.8C325,186.6,282.7,128,254.2,91.9c-22.4-28.4-116.5-75.1-175,8.7-53,76-31.1,189.1,52.3,246.4S342,399,420.9,363.5c49.9-22.4,112.9-64.1,120.7-123.3C550.2,175.4,481.9,159.3,386.9,175.8Z"/><path class="cls-4" d="M397.7,68.5c-2.5-.1-5-.1-7.6-.1-41.1,0-92.8,10.3-129.7,22.4L255,92.6c1.1,1.4,2.3,2.9,3.5,4.4,1.3-.4,2.5-.8,3.8-1.3,41-13.5,91.2-22.1,127.9-22.1,2.5,0,5,0,7.4.1,17.3.6,30.3,6.3,37.5,16.5,8.6,12.2,8.6,30.8-.1,52.2-3.9,9.7-7.2,18.9-9.9,28-11,36.6-13.6,72.1-14.2,134.2-.1,14.2,0,27.3.1,40,.1,8,.1,15.5.1,22.8,0,44.1-2.7,74.5-23,94.1-15.8,15.2-34.3,23.3-53.6,23.3-21.2,0-42.9-9.5-64.3-28.3C222.8,415,164,386,104.6,374.7c-45.6-8.7-81.4-17-93.8-36.9-6.7-10.9-6.7-25.6,0-45,6.3-18.1,18.4-43.1,41.9-70.5-.4-2.4-.7-4.8-1-7.1-23.6,26.5-38.1,52.7-46.2,76-21.7,62.6,25.1,74.8,97.9,88.7,58.6,11.2,115.8,39.3,162.8,80.5,24,21,47.1,29.7,68.1,29.7,22.1,0,41.8-9.7,57.6-24.9,22.1-21.4,24.6-53.8,24.6-100.1,0-18-.4-38.1-.2-60.4.6-64.3,3.4-98.8,14.5-134.7,2.6-8.3,5.7-16.8,9.2-25.6C458.1,99.7,439.9,69.9,397.7,68.5Z"/><path class="cls-5" d="M459.8,308.7c-35.5-38.4-76.5-14-105.7,29.4-27.1,40.3-10.6,87.6,33.3,58.4,38.3-25.4,61.6-18,78.7-35.1C489,338.7,459.8,308.7,459.8,308.7Z"/><path class="cls-6" d="M72.6,47.7a1.32,1.32,0,0,1-1.3-1.3V38.3a1.3,1.3,0,1,1,2.6,0v8.1A1.4,1.4,0,0,1,72.6,47.7Z"/><path class="cls-7" d="M72.6,27a1.32,1.32,0,0,1-1.3-1.3V17.6a1.3,1.3,0,1,1,2.6,0v8.1A1.32,1.32,0,0,1,72.6,27Z"/><path class="cls-8" d="M85.3,40.3l-7.1-3.8a1.13,1.13,0,0,1-.5-1.7,1.54,1.54,0,0,1,1.9-.5l7.1,3.8a1.13,1.13,0,0,1,.5,1.7A1.54,1.54,0,0,1,85.3,40.3Z"/><path class="cls-9" d="M65.6,29.5l-7.1-3.8A1.13,1.13,0,0,1,58,24a1.54,1.54,0,0,1,1.9-.5L67,27.3a1.13,1.13,0,0,1,.5,1.7A1.57,1.57,0,0,1,65.6,29.5Z"/><path class="cls-10" d="M57.9,39.8a1.13,1.13,0,0,1,.5-1.7l7.1-3.8a1.54,1.54,0,0,1,1.9.5,1.13,1.13,0,0,1-.5,1.7l-7.1,3.8A1.54,1.54,0,0,1,57.9,39.8Z"/><path class="cls-11" d="M77.7,29a1.13,1.13,0,0,1,.5-1.7l7.1-3.8a1.54,1.54,0,0,1,1.9.5,1.13,1.13,0,0,1-.5,1.7l-7.1,3.8A1.54,1.54,0,0,1,77.7,29Z"/><path class="cls-12" d="M210.1,79.1a1.32,1.32,0,0,1-1.3-1.3V69.7a1.3,1.3,0,0,1,2.6,0v8.1A1.21,1.21,0,0,1,210.1,79.1Z"/><path class="cls-13" d="M210.1,58.4a1.32,1.32,0,0,1-1.3-1.3V49a1.3,1.3,0,0,1,2.6,0v8.1A1.21,1.21,0,0,1,210.1,58.4Z"/><path class="cls-14" d="M202.9,64.7h-8.1a1.3,1.3,0,0,1,0-2.6h8.1a1.32,1.32,0,0,1,1.3,1.3A1.21,1.21,0,0,1,202.9,64.7Z"/><path class="cls-15" d="M225.4,64.7h-8.1a1.3,1.3,0,0,1,0-2.6h8.1a1.32,1.32,0,0,1,1.3,1.3A1.21,1.21,0,0,1,225.4,64.7Z"/><path class="cls-16" d="M73,428a17.92,17.92,0,0,1-17-11.7,1.27,1.27,0,0,1,1-1.7,1.31,1.31,0,0,1,1.6.8,15.42,15.42,0,0,0,28.8,0,1.38,1.38,0,0,1,2.6.9A18.06,18.06,0,0,1,73,428Z"/><path class="cls-17" d="M89.1,407.2a1.31,1.31,0,0,1-1.6-.8,15.42,15.42,0,0,0-28.8,0,1.38,1.38,0,0,1-2.6-.9,18.2,18.2,0,0,1,34,0A1.45,1.45,0,0,1,89.1,407.2Z"/><path class="cls-18" d="M346.8,284.1a1.32,1.32,0,0,1-1.3-1.3v-8.1a1.3,1.3,0,0,1,2.6,0v8.1A1.32,1.32,0,0,1,346.8,284.1Z"/><path class="cls-19" d="M346.8,263.4a1.32,1.32,0,0,1-1.3-1.3V254a1.3,1.3,0,0,1,2.6,0v8.1A1.32,1.32,0,0,1,346.8,263.4Z"/><path class="cls-20" d="M359.6,276.8l-7.1-3.8a1.13,1.13,0,0,1-.5-1.7,1.54,1.54,0,0,1,1.9-.5l7.1,3.8a1.13,1.13,0,0,1,.5,1.7A1.57,1.57,0,0,1,359.6,276.8Z"/><path class="cls-21" d="M339.8,266l-7.1-3.8a1.13,1.13,0,0,1-.5-1.7,1.54,1.54,0,0,1,1.9-.5l7.1,3.8a1.13,1.13,0,0,1,.5,1.7A1.57,1.57,0,0,1,339.8,266Z"/><path class="cls-22" d="M332.1,276.3a1.13,1.13,0,0,1,.5-1.7l7.1-3.8a1.54,1.54,0,0,1,1.9.5,1.13,1.13,0,0,1-.5,1.7l-7.1,3.8A1.57,1.57,0,0,1,332.1,276.3Z"/><path class="cls-23" d="M351.9,265.5a1.13,1.13,0,0,1,.5-1.7l7.1-3.8a1.54,1.54,0,0,1,1.9.5,1.13,1.13,0,0,1-.5,1.7l-7.1,3.8A1.54,1.54,0,0,1,351.9,265.5Z"/><path class="cls-24" d="M475.4,416.3a1.32,1.32,0,0,1-1.3-1.3v-8.1a1.3,1.3,0,0,1,2.6,0V415A1.32,1.32,0,0,1,475.4,416.3Z"/><path class="cls-25" d="M475.4,395.6a1.32,1.32,0,0,1-1.3-1.3v-8.1a1.3,1.3,0,0,1,2.6,0v8.1A1.32,1.32,0,0,1,475.4,395.6Z"/><path class="cls-26" d="M468.2,401.9h-8.1a1.3,1.3,0,0,1,0-2.6h8.1a1.3,1.3,0,1,1,0,2.6Z"/><path class="cls-27" d="M490.6,401.9h-8.1a1.3,1.3,0,0,1,0-2.6h8.1a1.32,1.32,0,0,1,1.3,1.3A1.21,1.21,0,0,1,490.6,401.9Z"/><path class="cls-28" d="M497.4,238.3a17.92,17.92,0,0,1-17-11.7,1.27,1.27,0,0,1,1-1.7,1.31,1.31,0,0,1,1.6.8,15.42,15.42,0,0,0,28.8,0,1.38,1.38,0,0,1,2.6.9A18.06,18.06,0,0,1,497.4,238.3Z"/><path class="cls-29" d="M513.4,217.5a1.31,1.31,0,0,1-1.6-.8,15.42,15.42,0,0,0-28.8,0,1.38,1.38,0,0,1-2.6-.9,18.2,18.2,0,0,1,34,0A1.3,1.3,0,0,1,513.4,217.5Z"/><path class="cls-30" d="M175.59,196.08c3.95-3.12,1.78-6,1-8.63-3.41-11.07-3-11.63,8.66-11.63,11.22,0,11.59.49,8.09,11.51-1.08,3.42-2.41,6.78,1.71,9.71,1.65-5.81,3.35-11.48,4.86-17.18.85-3.22,2.63-4.47,6-4.56,18.11-.48,28.85,10,28.74,28.11q-.14,24.41,0,48.81a10.5,10.5,0,0,1-2.37,7.31c-1.37,1.61-2.33,3.6-3.8,5.09-9.61,9.64-12,21.44-12.1,34.66-.08,18.55-1.4,37.09-2.25,55.64-.57,12.52-6.57,18.24-19.08,18.29-7.25,0-14.5.1-21.75,0-9.56-.18-16-6.19-16.48-15.75-1.18-22.42-2.3-44.85-3.11-67.29-.25-6.94-1.3-13.25-6.43-18.33-9.82-9.71-12.88-21.37-11.71-35.08,1-11.76.17-23.67.17-35.52a26.26,26.26,0,0,1,31.62-25.79c2.61.53,3.31,2.29,3.87,4.42C172.64,185.05,174,190.27,175.59,196.08ZM185,197c-2.2,4.2-4,7.63-5.77,11.05-1.07,2-2,4.28-4.9,4.1-3.3-.2-3.64-3-4.27-5.28-1.79-6.64-3.72-13.27-5.08-20-.74-3.62-2.57-4-5.57-3.56-9.22,1.25-15.44,8.15-15.56,17.77s.83,19.19-.21,28.63c-1.84,16.83,2.18,31.23,14.29,43.24,2.67,2.64,3.19,6,3.34,9.7,1,24.39,2.12,48.77,3.26,73.15.31,6.61,3.37,9.55,10.07,9.63,7.26.1,14.51.12,21.76,0,6.4-.11,9.3-3,9.61-9.42,1.07-21.73,2.41-43.45,2.93-65.19.22-9.23,1.93-17.29,8.32-24.23,3-3.22,5.16-7.16,7.86-10.65a8.11,8.11,0,0,0,1.79-5.33c0-16.63.1-33.26,0-49.88-.08-9.11-6.64-16.09-15.48-17.42-3-.45-4.45.33-5.22,3.37-1.71,6.84-3.74,13.61-5.66,20.39-.63,2.21-1,4.64-3.94,5s-4-1.7-5.11-3.76C189.46,204.78,187.45,201.27,185,197Z"/><path class="cls-30" d="M273.82,351.2c-10.21,0-18.42-6.83-20.61-17.13-2-9.49,3.09-19.71,12.41-23.19,3.65-1.37,4.28-3.12,4.23-6.49-.17-11.5-.15-23,0-34.49,0-2.85-.6-4.22-3.59-5.31a20.39,20.39,0,0,1-13.52-19.66c.37-9.32,4.87-16.14,13.72-19.53,2.55-1,3.44-2.12,3.41-4.87-.17-12-.13-24.06,0-36.08,0-2.62-.58-3.84-3.38-4.88a20.71,20.71,0,0,1-13.36-23.23c2.09-10.42,10.7-17.67,20.9-17.59A21.42,21.42,0,0,1,294.64,156c2,9.79-3.55,19.78-13.61,23.6-2.52,1-3.19,2-3.17,4.48q.15,18.31,0,36.61c0,2.43.6,3.61,3,4.56,9.08,3.58,14.12,10.9,14.1,19.78s-5.12,16.17-14.16,19.74c-2.16.85-3,1.77-3,4.12.11,12.38.19,24.76,0,37.14-.05,3.13,1.59,3.62,3.86,4.53a20.9,20.9,0,0,1,12.88,23.54C292.37,344.33,284,351.21,273.82,351.2ZM287,245.51a13.07,13.07,0,1,0-13.58,12.74A13.25,13.25,0,0,0,287,245.51Zm-12.83,97.81A13.13,13.13,0,0,0,287,329.9a13.09,13.09,0,1,0-26.17.51A13.06,13.06,0,0,0,274.12,343.32ZM287,159.74a13.08,13.08,0,0,0-26.16.32,13.08,13.08,0,1,0,26.16-.32Z"/><path class="cls-30" d="M357.14,224.6c14.5,0,29,.11,43.52-.06,4.9,0,7.11,1.59,7,6.78-.27,9.19-.22,18.4,0,27.59.1,4.47-1.49,6.5-6.1,6.49q-44.33-.12-88.63,0c-4.57,0-6.28-1.94-6.2-6.44.19-9.37.17-18.75,0-28.12-.08-4.6,1.95-6.31,6.39-6.28C327.77,224.67,342.45,224.6,357.14,224.6Zm0,8.13c-12.73,0-25.47.09-38.2-.06-3.07,0-4.44.47-4.24,4,.32,5.64.25,11.32,0,17-.13,3,.76,3.85,3.79,3.84q38.73-.18,77.46,0c3.14,0,3.83-1,3.72-3.92-.21-5.47-.26-11,0-16.44.17-3.43-.81-4.51-4.36-4.45C382.61,232.86,369.88,232.73,357.14,232.73Z"/><path class="cls-30" d="M344.39,350.57c-10.24,0-20.49-.12-30.74.06-4.88.09-7.12-1.62-7-6.78.25-9.18.2-18.37,0-27.55-.09-4.41,1.46-6.58,6.07-6.56q31.55.11,63.07,0c4.54,0,6.27,2,6.19,6.46q-.25,14,0,28.09c.07,4.55-1.91,6.37-6.36,6.32C365.24,350.5,354.81,350.57,344.39,350.57Zm.51-32.75c-8.84,0-17.68.09-26.52-.05-2.6,0-3.77.48-3.66,3.43.23,6,.19,12,0,18-.08,2.58.79,3.27,3.3,3.26,17.51-.09,35-.12,52.51,0,3,0,3.43-1.2,3.37-3.73-.15-5.83-.2-11.68,0-17.5.1-2.85-.84-3.57-3.58-3.52C361.88,317.93,353.39,317.82,344.9,317.82Z"/><path class="cls-30" d="M344.1,180.15c-10.24,0-20.49-.14-30.73.06-4.68.09-6.81-1.47-6.69-6.4.22-9.36.17-18.72,0-28.08-.07-4.58,1.88-6.25,6.37-6.23q31.26.18,62.53,0c4.46,0,6.49,1.6,6.42,6.19-.14,9.54-.12,19.08,0,28.61.05,4.35-1.89,5.95-6.12,5.89C365.3,180.05,354.7,180.15,344.1,180.15Zm.06-7.8c8.66,0,17.33-.07,26,0,2.51,0,3.91-.28,3.79-3.35-.22-6-.2-12,0-18,.09-2.9-1-3.55-3.7-3.53q-26,.14-52,0c-2.89,0-3.61,1-3.53,3.71.15,5.66.29,11.33,0,17-.22,3.72,1.27,4.34,4.54,4.27C327.54,172.21,335.85,172.35,344.16,172.35Z"/><path class="cls-30" d="M160.15,145.17c-.09-16.56,8-26.88,22.15-28.3,6-.61,11.34,1.19,16.52,4.31,14.11,8.49,14.26,40-.38,48.71-8,4.78-16.22,5.78-24.64,1.62s-13-11.12-13.63-20.52C160,149.06,160.15,147.11,160.15,145.17Zm7.79.05a51.33,51.33,0,0,0,0,5.82c1,8.63,7.48,14.83,15.68,15.16,8.8.36,15.65-5.14,17.27-13.87,2.55-13.74-1.45-23.51-11.06-26.72a17.18,17.18,0,0,0-5.17-.9C174.13,124.57,167.84,132.28,167.94,145.22Z"/></svg>