<svg id="Layer_1" data-name="Layer 1" xmlns="http://www.w3.org/2000/svg" xmlns:xlink="http://www.w3.org/1999/xlink" viewBox="0 0 543 490"><defs><style>.cls-1{fill:url(#linear-gradient);}.cls-2{fill:#2a2a8c;}.cls-3{fill:url(#linear-gradient-2);}.cls-4{opacity:0.9;fill:url(#linear-gradient-3);}.cls-5{fill:url(#linear-gradient-4);}.cls-6{fill:url(#linear-gradient-5);}.cls-7{fill:url(#linear-gradient-6);}.cls-8{fill:url(#linear-gradient-7);}.cls-9{fill:url(#linear-gradient-8);}.cls-10{fill:url(#linear-gradient-9);}.cls-11{fill:url(#linear-gradient-10);}.cls-12,.cls-13,.cls-14,.cls-15,.cls-18,.cls-19,.cls-20,.cls-21,.cls-22,.cls-23,.cls-28,.cls-29{fill-opacity:0.2;}.cls-12{fill:url(#linear-gradient-11);}.cls-13{fill:url(#linear-gradient-12);}.cls-14{fill:url(#linear-gradient-13);}.cls-15{fill:url(#linear-gradient-14);}.cls-16{fill:url(#linear-gradient-15);}.cls-17{fill:url(#linear-gradient-16);}.cls-18{fill:url(#linear-gradient-17);}.cls-19{fill:url(#linear-gradient-18);}.cls-20{fill:url(#linear-gradient-19);}.cls-21{fill:url(#linear-gradient-20);}.cls-22{fill:url(#linear-gradient-21);}.cls-23{fill:url(#linear-gradient-22);}.cls-24{fill:url(#linear-gradient-23);}.cls-25{fill:url(#linear-gradient-24);}.cls-26{fill:url(#linear-gradient-25);}.cls-27{fill:url(#linear-gradient-26);}.cls-28{fill:url(#linear-gradient-27);}.cls-29{fill:url(#linear-gradient-28);}.cls-30{fill:none;stroke:#39ffff;stroke-miterlimit:10;stroke-width:2px;}</style><linearGradient id="linear-gradient" x1="0.21" y1="137.11" x2="100.9" y2="137.11" gradientUnits="userSpaceOnUse"><stop offset="0.04" stop-color="#3a3adb"/><stop offset="0.99" stop-color="#2a2a8c"/></linearGradient><linearGradient id="linear-gradient-2" x1="50.45" y1="221.61" x2="542.33" y2="221.61" gradientUnits="userSpaceOnUse"><stop offset="0.04" stop-color="#3a3adb"/><stop offset="0.77" stop-color="#2a2a8c"/></linearGradient><linearGradient id="linear-gradient-3" x1="0.16" y1="279.25" x2="446.97" y2="279.25" gradientUnits="userSpaceOnUse"><stop offset="0.04" stop-color="#3a3adb"/><stop offset="0.99" stop-color="#2a47c9"/></linearGradient><linearGradient id="linear-gradient-4" x1="340.93" y1="347.57" x2="474.87" y2="347.57" xlink:href="#linear-gradient"/><linearGradient id="linear-gradient-5" x1="71.3" y1="42.35" x2="73.9" y2="42.35" xlink:href="#linear-gradient"/><linearGradient id="linear-gradient-6" x1="71.3" y1="21.65" x2="73.9" y2="21.65" xlink:href="#linear-gradient"/><linearGradient id="linear-gradient-7" x1="77.5" y1="37.3" x2="87.4" y2="37.3" xlink:href="#linear-gradient"/><linearGradient id="linear-gradient-8" x1="57.8" y1="26.5" x2="67.7" y2="26.5" xlink:href="#linear-gradient"/><linearGradient id="linear-gradient-9" x1="57.7" y1="37.3" x2="67.6" y2="37.3" xlink:href="#linear-gradient"/><linearGradient id="linear-gradient-10" x1="77.5" y1="26.5" x2="87.4" y2="26.5" xlink:href="#linear-gradient"/><linearGradient id="linear-gradient-11" x1="208.8" y1="73.75" x2="211.41" y2="73.75" xlink:href="#linear-gradient"/><linearGradient id="linear-gradient-12" x1="208.8" y1="53.05" x2="211.41" y2="53.05" xlink:href="#linear-gradient"/><linearGradient id="linear-gradient-13" x1="193.5" y1="63.4" x2="204.21" y2="63.4" xlink:href="#linear-gradient"/><linearGradient id="linear-gradient-14" x1="216" y1="63.4" x2="226.71" y2="63.4" xlink:href="#linear-gradient"/><linearGradient id="linear-gradient-15" x1="55.91" y1="421.27" x2="90.05" y2="421.27" xlink:href="#linear-gradient"/><linearGradient id="linear-gradient-16" x1="56.05" y1="400.53" x2="90.14" y2="400.53" xlink:href="#linear-gradient"/><linearGradient id="linear-gradient-17" x1="345.5" y1="278.75" x2="348.1" y2="278.75" xlink:href="#linear-gradient-3"/><linearGradient id="linear-gradient-18" x1="345.5" y1="258.05" x2="348.1" y2="258.05" xlink:href="#linear-gradient-3"/><linearGradient id="linear-gradient-19" x1="351.8" y1="273.8" x2="361.7" y2="273.8" xlink:href="#linear-gradient-3"/><linearGradient id="linear-gradient-20" x1="332" y1="263" x2="341.9" y2="263" xlink:href="#linear-gradient-3"/><linearGradient id="linear-gradient-21" x1="331.9" y1="273.8" x2="341.8" y2="273.8" xlink:href="#linear-gradient-3"/><linearGradient id="linear-gradient-22" x1="351.7" y1="263" x2="361.6" y2="263" xlink:href="#linear-gradient-3"/><linearGradient id="linear-gradient-23" x1="474.1" y1="410.95" x2="476.7" y2="410.95" xlink:href="#linear-gradient"/><linearGradient id="linear-gradient-24" x1="474.1" y1="390.25" x2="476.7" y2="390.25" xlink:href="#linear-gradient"/><linearGradient id="linear-gradient-25" x1="458.8" y1="400.6" x2="469.5" y2="400.6" xlink:href="#linear-gradient"/><linearGradient id="linear-gradient-26" x1="481.2" y1="400.6" x2="491.91" y2="400.6" xlink:href="#linear-gradient"/><linearGradient id="linear-gradient-27" x1="480.31" y1="231.57" x2="514.45" y2="231.57" gradientUnits="userSpaceOnUse"><stop offset="0.04" stop-color="#3a3adb"/><stop offset="0.99" stop-color="#2a4b8c"/></linearGradient><linearGradient id="linear-gradient-28" x1="480.35" y1="210.83" x2="514.49" y2="210.83" xlink:href="#linear-gradient-27"/></defs><path class="cls-1" d="M89.5,126.5C79,109.2,68,97.8,50.6,89.7s-39.1-8.2-48,11.2,8.6,43.5,33.2,44.9c28.3,1.5,43.4,14.6,45,34,1,12.1,14.5,12.5,17.3,4.6C103.3,170,101.7,146.7,89.5,126.5Z"/><path class="cls-2" d="M311.5,26.9C194.9-92.8,68.2,219.8,35.7,320.8S140.6,438.1,233,456.2c147.6,28.8,215.2-27,226.7-94.2S428.1,146.7,311.5,26.9Z"/><path class="cls-3" d="M386.9,175.8C325,186.6,282.7,128,254.2,91.9c-22.4-28.4-116.5-75.1-175,8.7-53,76-31.1,189.1,52.3,246.4S342,399,420.9,363.5c49.9-22.4,112.9-64.1,120.7-123.3C550.2,175.4,481.9,159.3,386.9,175.8Z"/><path class="cls-4" d="M397.7,68.5c-2.5-.1-5-.1-7.6-.1-41.1,0-92.8,10.3-129.7,22.4L255,92.6c1.1,1.4,2.3,2.9,3.5,4.4,1.3-.4,2.5-.8,3.8-1.3,41-13.5,91.2-22.1,127.9-22.1,2.5,0,5,0,7.4.1,17.3.6,30.3,6.3,37.5,16.5,8.6,12.2,8.6,30.8-.1,52.2-3.9,9.7-7.2,18.9-9.9,28-11,36.6-13.6,72.1-14.2,134.2-.1,14.2,0,27.3.1,40,.1,8,.1,15.5.1,22.8,0,44.1-2.7,74.5-23,94.1-15.8,15.2-34.3,23.3-53.6,23.3-21.2,0-42.9-9.5-64.3-28.3C222.8,415,164,386,104.6,374.7c-45.6-8.7-81.4-17-93.8-36.9-6.7-10.9-6.7-25.6,0-45,6.3-18.1,18.4-43.1,41.9-70.5-.4-2.4-.7-4.8-1-7.1-23.6,26.5-38.1,52.7-46.2,76-21.7,62.6,25.1,74.8,97.9,88.7,58.6,11.2,115.8,39.3,162.8,80.5,24,21,47.1,29.7,68.1,29.7,22.1,0,41.8-9.7,57.6-24.9,22.1-21.4,24.6-53.8,24.6-100.1,0-18-.4-38.1-.2-60.4.6-64.3,3.4-98.8,14.5-134.7,2.6-8.3,5.7-16.8,9.2-25.6C458.1,99.7,439.9,69.9,397.7,68.5Z"/><path class="cls-5" d="M459.8,308.7c-35.5-38.4-76.5-14-105.7,29.4-27.1,40.3-10.6,87.6,33.3,58.4,38.3-25.4,61.6-18,78.7-35.1C489,338.7,459.8,308.7,459.8,308.7Z"/><path class="cls-6" d="M72.6,47.7a1.32,1.32,0,0,1-1.3-1.3V38.3a1.3,1.3,0,1,1,2.6,0v8.1A1.4,1.4,0,0,1,72.6,47.7Z"/><path class="cls-7" d="M72.6,27a1.32,1.32,0,0,1-1.3-1.3V17.6a1.3,1.3,0,1,1,2.6,0v8.1A1.32,1.32,0,0,1,72.6,27Z"/><path class="cls-8" d="M85.3,40.3l-7.1-3.8a1.13,1.13,0,0,1-.5-1.7,1.54,1.54,0,0,1,1.9-.5l7.1,3.8a1.13,1.13,0,0,1,.5,1.7A1.54,1.54,0,0,1,85.3,40.3Z"/><path class="cls-9" d="M65.6,29.5l-7.1-3.8A1.13,1.13,0,0,1,58,24a1.54,1.54,0,0,1,1.9-.5L67,27.3a1.13,1.13,0,0,1,.5,1.7A1.57,1.57,0,0,1,65.6,29.5Z"/><path class="cls-10" d="M57.9,39.8a1.13,1.13,0,0,1,.5-1.7l7.1-3.8a1.54,1.54,0,0,1,1.9.5,1.13,1.13,0,0,1-.5,1.7l-7.1,3.8A1.54,1.54,0,0,1,57.9,39.8Z"/><path class="cls-11" d="M77.7,29a1.13,1.13,0,0,1,.5-1.7l7.1-3.8a1.54,1.54,0,0,1,1.9.5,1.13,1.13,0,0,1-.5,1.7l-7.1,3.8A1.54,1.54,0,0,1,77.7,29Z"/><path class="cls-12" d="M210.1,79.1a1.32,1.32,0,0,1-1.3-1.3V69.7a1.3,1.3,0,0,1,2.6,0v8.1A1.21,1.21,0,0,1,210.1,79.1Z"/><path class="cls-13" d="M210.1,58.4a1.32,1.32,0,0,1-1.3-1.3V49a1.3,1.3,0,0,1,2.6,0v8.1A1.21,1.21,0,0,1,210.1,58.4Z"/><path class="cls-14" d="M202.9,64.7h-8.1a1.3,1.3,0,0,1,0-2.6h8.1a1.32,1.32,0,0,1,1.3,1.3A1.21,1.21,0,0,1,202.9,64.7Z"/><path class="cls-15" d="M225.4,64.7h-8.1a1.3,1.3,0,0,1,0-2.6h8.1a1.32,1.32,0,0,1,1.3,1.3A1.21,1.21,0,0,1,225.4,64.7Z"/><path class="cls-16" d="M73,428a17.92,17.92,0,0,1-17-11.7,1.27,1.27,0,0,1,1-1.7,1.31,1.31,0,0,1,1.6.8,15.42,15.42,0,0,0,28.8,0,1.38,1.38,0,0,1,2.6.9A18.06,18.06,0,0,1,73,428Z"/><path class="cls-17" d="M89.1,407.2a1.31,1.31,0,0,1-1.6-.8,15.42,15.42,0,0,0-28.8,0,1.38,1.38,0,0,1-2.6-.9,18.2,18.2,0,0,1,34,0A1.45,1.45,0,0,1,89.1,407.2Z"/><path class="cls-18" d="M346.8,284.1a1.32,1.32,0,0,1-1.3-1.3v-8.1a1.3,1.3,0,0,1,2.6,0v8.1A1.32,1.32,0,0,1,346.8,284.1Z"/><path class="cls-19" d="M346.8,263.4a1.32,1.32,0,0,1-1.3-1.3V254a1.3,1.3,0,0,1,2.6,0v8.1A1.32,1.32,0,0,1,346.8,263.4Z"/><path class="cls-20" d="M359.6,276.8l-7.1-3.8a1.13,1.13,0,0,1-.5-1.7,1.54,1.54,0,0,1,1.9-.5l7.1,3.8a1.13,1.13,0,0,1,.5,1.7A1.57,1.57,0,0,1,359.6,276.8Z"/><path class="cls-21" d="M339.8,266l-7.1-3.8a1.13,1.13,0,0,1-.5-1.7,1.54,1.54,0,0,1,1.9-.5l7.1,3.8a1.13,1.13,0,0,1,.5,1.7A1.57,1.57,0,0,1,339.8,266Z"/><path class="cls-22" d="M332.1,276.3a1.13,1.13,0,0,1,.5-1.7l7.1-3.8a1.54,1.54,0,0,1,1.9.5,1.13,1.13,0,0,1-.5,1.7l-7.1,3.8A1.57,1.57,0,0,1,332.1,276.3Z"/><path class="cls-23" d="M351.9,265.5a1.13,1.13,0,0,1,.5-1.7l7.1-3.8a1.54,1.54,0,0,1,1.9.5,1.13,1.13,0,0,1-.5,1.7l-7.1,3.8A1.54,1.54,0,0,1,351.9,265.5Z"/><path class="cls-24" d="M475.4,416.3a1.32,1.32,0,0,1-1.3-1.3v-8.1a1.3,1.3,0,0,1,2.6,0V415A1.32,1.32,0,0,1,475.4,416.3Z"/><path class="cls-25" d="M475.4,395.6a1.32,1.32,0,0,1-1.3-1.3v-8.1a1.3,1.3,0,0,1,2.6,0v8.1A1.32,1.32,0,0,1,475.4,395.6Z"/><path class="cls-26" d="M468.2,401.9h-8.1a1.3,1.3,0,0,1,0-2.6h8.1a1.3,1.3,0,1,1,0,2.6Z"/><path class="cls-27" d="M490.6,401.9h-8.1a1.3,1.3,0,0,1,0-2.6h8.1a1.32,1.32,0,0,1,1.3,1.3A1.21,1.21,0,0,1,490.6,401.9Z"/><path class="cls-28" d="M497.4,238.3a17.92,17.92,0,0,1-17-11.7,1.27,1.27,0,0,1,1-1.7,1.31,1.31,0,0,1,1.6.8,15.42,15.42,0,0,0,28.8,0,1.38,1.38,0,0,1,2.6.9A18.06,18.06,0,0,1,497.4,238.3Z"/><path class="cls-29" d="M513.4,217.5a1.31,1.31,0,0,1-1.6-.8,15.42,15.42,0,0,0-28.8,0,1.38,1.38,0,0,1-2.6-.9,18.2,18.2,0,0,1,34,0A1.3,1.3,0,0,1,513.4,217.5Z"/><path class="cls-30" d="M334.93,294.6c-3.11,10.31-5.52,12.41-15.84,12.61-2.46.05-2.22,1.12-2.58,2.64-2.69,11.46-10.25,15.27-21.27,10.84-1.5-.61-2.88-2.71-4.05,1-3.44,10.83-13.47,14-23,7.56-1.61-1.08-3.11-2.32-4.64-3.51-4.05-3.14-7.52-5.86-13.53-2.62s-13.53-.94-15.73-7.79c-1.15-3.6-2.31-3.53-5.45-2.66-8.62,2.39-16.47-2.83-17.8-11.85-.39-2.68-1-3.23-3.66-3.6-7.78-1.09-12.48-6.3-12.64-14.2-.07-3.19-1.3-3.59-3.87-4.28-7.66-2-11.88-10.4-7.75-16.88,3.4-5.33.18-7.53-3-9.51-3.37-2.11-7.47-3.08-11.25-4.54-.95-.36-1.91-.6-2.29.74-1.51,5.26-4.92,3.6-8.28,2.34-5.07-1.91-10.11-3.91-15.26-5.56-3.29-1.05-4.42-2.73-3.21-6q15-41.15,30-82.32c1.21-3.34,3.25-3.51,5.91-2.56,5.82,2.08,11.56,4.43,17.43,6.38,3.68,1.23,4.66,3.26,2.78,6.53s-.42,4.39,2.66,5.57c9.71,3.72,19.35,7.51,29.78,8.89a10.61,10.61,0,0,0,7.65-1.35c7.12-4.4,15-7.14,22.89-9.79,11.48-3.86,22.58-1.46,33.69,1.59s21.57,7.3,33.41,6.7c7.88-.39,13.65-5.59,20.85-7.27,2.63-.62.55-2.79.09-3.72-2.15-4.42-.32-6.33,3.82-7.62,5.16-1.61,10.27-3.44,15.27-5.51,3.84-1.58,6-1,7.48,3.21q14.52,40.4,29.39,80.68c1.23,3.35.87,5.37-2.91,6.59-5.89,1.88-11.64,4.21-17.45,6.34a4.94,4.94,0,0,1-4.46-.07c-1.65-1-.74-5.11-3.93-3.7-4.34,1.93-9.58,2-13,6-.51.58-.91,1.25-1.38,1.87-2.59,3.46-7.51,5.53-8.89,8.79-1.3,3.08,5.25,5,6.66,9,2,5.7,2.23,11.14-1.75,15.92a17.88,17.88,0,0,1-16.56,6.53A26,26,0,0,1,334.93,294.6Zm-109-62c-2-.14-3.78-.12-5.49-.39-9.09-1.45-12.82-10.52-6.59-17.28,5.9-6.41,8.45-14.16,11.38-21.94,1.52-4,1.92-6.45-3.54-6.62a36.68,36.68,0,0,1-8.52-1.75c-3.51-1-5,.25-6.22,3.7-6.41,18.25-13.13,36.39-19.74,54.56-2.42,6.65.28,10.91,7.31,11.55,6.43.58,10.76,4.31,11.75,10.81.36,2.39.91,3,3.37,3.28,8,.86,12.31,4.76,13.67,12.65.48,2.77,1.35,3.22,3.87,3.52,6.17.71,10.24,4.35,11.87,10.37.67,2.5.88,3.81,4.41,2.92,9.22-2.31,16.9,4.82,16.26,14.38-.08,1.21-1.38,2.54.28,3.66,4.64,3.14,9.09,6.61,14,9.35,3.4,1.91,7.36,1.69,10-1.71s2.09-7,0-10.35a17.63,17.63,0,0,0-4.08-4c-4-3.12-8-6.09-12-9.17-1.52-1.16-2.45-2.64-1.09-4.46s2.94-1.56,4.57-.37c1.09.8,2.2,1.59,3.27,2.42,7.23,5.55,14.37,11.21,21.7,16.62,4.28,3.16,10.29,2.71,12.68-.55s1.57-9.23-2.07-12.67c-.84-.79-1.83-1.44-2.74-2.16q-10.73-8.49-21.45-17c-1.85-1.46-3.21-3.16-1.4-5.34s3.47-.67,5.05.54c.77.59,1.52,1.2,2.28,1.81,8.35,6.63,16.64,13.35,25.08,19.87,4.54,3.5,10.57,3.33,13.16,0,2.79-3.61,1.83-9-2.34-13.05-1-.94-2.07-1.76-3.11-2.64-7.14-6-14.33-11.89-21.38-18-1.84-1.58-5.71-2.94-3.08-6.23s4.8,0,6.73,1.56c10.45,8.67,20.83,17.43,31.24,26.14,5.3,4.43,11.76,4.18,15.88-.57,3.76-4.34,2.76-10-2.93-14.52q-38.29-30.37-76.7-60.6c-1-.81-2.35-2.67-3.33-1.84-4.76,4-12.13,4.11-15.61,9.35C245.75,228.13,236.63,231.85,225.9,232.57Zm90.92,6.55c8.34,6.61,15.79,12.16,22.8,18.21,3.44,3,6.52,3.48,9.56.37,3.5-3.58,9.78-5.87,7.25-12.86-6.79-18.73-13.69-37.42-20.39-56.18-1-2.75-2.14-4.2-5.3-3.92-12.61,1.09-24.7-1.31-36.42-5.83-20.19-7.78-38.72-3.34-56.5,7.38a14.66,14.66,0,0,0-7,8.68c-2.63,8.5-5.56,16.86-12.05,23.53-3.62,3.73-1.94,7.27,3.36,7.88,6.58.77,13.71.28,18.1-4.4,7-7.5,15.34-12.74,23.72-18.3,3.46-2.3,5-2.23,7.76,0,10.91,8.7,21.92,17.3,32.93,25.88,1.49,1.17,2.77,2.92,4.9,2.89,8.59-.12,17.11-.64,24.31-6.18,1.67-1.29,3.18-3.4,5.39-1.11,2.49,2.59,0,4.17-1.55,5.75C332.34,236.34,325.39,238,316.82,239.12Zm-157.31,5.8c2.61.4,2.47-1.68,2.94-3,8.87-24.31,17.64-48.67,26.62-72.94,1-2.58.23-3.23-1.9-4.14-11.92-5.09-11.9-5.14-16.35,7-.06.18-.19.34-.25.53q-11.46,31.59-22.88,63.2c-.55,1.54-2.69,3.58.11,4.84C151.67,242.19,155.73,243.5,159.51,244.92Zm207-83.86a97.25,97.25,0,0,1-9.42,3.44c-3.71.94-4.15,2.47-2.83,6,8.52,22.8,17,45.6,25,68.6,2,5.76,4,6.35,9.24,4.07,8.23-3.6,8.41-3.24,5.33-11.7q-12.09-33.22-24.25-66.41C368.92,163.45,369.14,161,366.48,161.06ZM202.92,181.92c-1.62-3-5.33-2.77-8-4.1-2.89-1.42-3.08,1.26-3.68,2.91-6.83,18.69-13.4,37.47-20.56,56-1.77,4.6-.06,5.45,3.51,6.68s5.88,2.45,7.64-2.71c6.25-18.27,13.07-36.35,19.67-54.5C201.91,185,202.32,183.67,202.92,181.92Zm146-4.39c-6.56.05-9.22,3.85-7,10q9.19,25.34,18.37,50.66c2.9,8,3,8,10.76,4.43,1.83-.85,2.66-1.51,1.81-3.81-7.22-19.57-14.27-39.2-21.44-58.79C351.06,178.93,351,177.07,349,177.53ZM209,274.42a8.49,8.49,0,0,0-.44,17,8.49,8.49,0,1,0,.44-17Zm16.27,32.8a8.38,8.38,0,0,0,0-16.76,8.6,8.6,0,0,0-8.55,8.4A8.41,8.41,0,0,0,225.31,307.22Zm28.41,3.56c-.16-4.23-4-7.81-7.8-7.29-4.19.57-6.6,3.21-6.71,7.44a7.2,7.2,0,0,0,7.75,6.95C251.2,317.34,253.35,314.66,253.72,310.78Zm-59.31-37.59c3.71-.42,6-2.47,6-6.36s-2.55-6.24-6.2-6.25c-4,0-6.61,2.46-6.39,6.63C188,271,190.41,273.05,194.41,273.19Z"/><path class="cls-30" d="M268.42,127.31c0-4.25-.07-8.5,0-12.75.05-1.8.61-3.49,2.93-3.56s3.09,1.56,3.11,3.37c.1,8.3.08,16.61,0,24.91,0,1.84-.66,3.51-2.94,3.54-2.65,0-3.11-1.87-3.15-3.93C268.37,135,268.41,131.17,268.42,127.31Z"/><path class="cls-30" d="M268.4,363c0-3.67,0-7.34,0-11,0-2.13-.08-4.58,2.91-4.73s3.21,2.22,3.22,4.42q.06,11.58,0,23.17c0,2-.28,4.09-2.91,4.17-3.05.09-3.18-2.26-3.22-4.44C268.36,370.7,268.41,366.84,268.4,363Z"/><path class="cls-30" d="M315.71,336.61a4.37,4.37,0,0,1,3.64,2.21q6.94,9.29,13.92,18.54c1.35,1.8,2.48,3.75.08,5.47-2.19,1.58-3.57-.14-4.75-1.71-4.78-6.32-9.48-12.69-14.28-19-1.05-1.38-1.5-2.81-.62-4.26C314.12,337.18,315.23,336.89,315.71,336.61Z"/><path class="cls-30" d="M210.64,126.54a5.14,5.14,0,0,1,3.57,2.38l13.91,18.54c1.37,1.81,2.6,3.79.1,5.44-2,1.33-3.56,0-4.84-1.71-4.71-6.36-9.48-12.69-14.24-19-1-1.34-1.58-2.78-.54-4.24A6.84,6.84,0,0,1,210.64,126.54Z"/><path class="cls-30" d="M313.27,150.68c-.18-1.29.61-2.18,1.3-3.1q7-9.27,13.92-18.53c1.34-1.78,2.89-3.6,5.19-1.62,1.85,1.59,1,3.44-.3,5.11q-7.15,9.48-14.27,19c-1,1.31-2.13,2.21-3.94,1.69A2.42,2.42,0,0,1,313.27,150.68Z"/><path class="cls-30" d="M211.12,363.51c-2.79-.74-4.06-2.52-2.49-4.74,5-7.09,10.31-14,15.56-20.91a2.93,2.93,0,0,1,4.15-.7,2.46,2.46,0,0,1,1,3.54C224,348,218.47,355.26,213,362.47,212.54,363,211.67,363.21,211.12,363.51Z"/><path class="cls-30" d="M178.45,326.61c-2.19,0-3.18-.58-3.59-1.79-.47-1.38-.3-2.8,1.1-3.53q10.44-5.46,21-10.77a2.61,2.61,0,0,1,3.51,1.1c.73,1.07.89,2.52,0,3.19C193.34,319.8,185.23,322.8,178.45,326.61Z"/><path class="cls-30" d="M346,310.34l7.91,4,12.42,6.31c1.75.89,2.81,2.17,2,4.2s-2.64,2.16-4.35,1.31c-6.58-3.28-13.1-6.67-19.64-10-1.59-.81-2.36-2-1.87-3.79C342.87,310.88,344,310.19,346,310.34Z"/><path class="cls-30" d="M385.92,290.62c-4.13-.87-8.27-1.67-12.38-2.63a2.76,2.76,0,0,1-2.19-3.5,2.63,2.63,0,0,1,3.41-2.23c4.15.74,8.29,1.57,12.41,2.46a2.88,2.88,0,0,1,2.55,3.29C389.44,290.06,388,290.9,385.92,290.62Z"/><path class="cls-30" d="M158.41,290.27c-3.25.49-4.95.06-5.41-2s.91-3.23,2.8-3.64c3.75-.83,7.51-1.63,11.29-2.31,2-.37,4-.26,4.33,2.42.24,2.12-1.12,3.05-3.06,3.43C164.6,288.93,160.84,289.75,158.41,290.27Z"/></svg>