<svg id="Layer_1" data-name="Layer 1" xmlns="http://www.w3.org/2000/svg" xmlns:xlink="http://www.w3.org/1999/xlink" viewBox="0 0 543 490"><defs><style>.cls-1{fill:url(#linear-gradient);}.cls-2{fill:#2a2a8c;}.cls-3{fill:url(#linear-gradient-2);}.cls-4{opacity:0.9;fill:url(#linear-gradient-3);}.cls-5{fill:url(#linear-gradient-4);}.cls-6{fill:url(#linear-gradient-5);}.cls-7{fill:url(#linear-gradient-6);}.cls-8{fill:url(#linear-gradient-7);}.cls-9{fill:url(#linear-gradient-8);}.cls-10{fill:url(#linear-gradient-9);}.cls-11{fill:url(#linear-gradient-10);}.cls-12,.cls-13,.cls-14,.cls-15,.cls-18,.cls-19,.cls-20,.cls-21,.cls-22,.cls-23,.cls-28,.cls-29{fill-opacity:0.2;}.cls-12{fill:url(#linear-gradient-11);}.cls-13{fill:url(#linear-gradient-12);}.cls-14{fill:url(#linear-gradient-13);}.cls-15{fill:url(#linear-gradient-14);}.cls-16{fill:url(#linear-gradient-15);}.cls-17{fill:url(#linear-gradient-16);}.cls-18{fill:url(#linear-gradient-17);}.cls-19{fill:url(#linear-gradient-18);}.cls-20{fill:url(#linear-gradient-19);}.cls-21{fill:url(#linear-gradient-20);}.cls-22{fill:url(#linear-gradient-21);}.cls-23{fill:url(#linear-gradient-22);}.cls-24{fill:url(#linear-gradient-23);}.cls-25{fill:url(#linear-gradient-24);}.cls-26{fill:url(#linear-gradient-25);}.cls-27{fill:url(#linear-gradient-26);}.cls-28{fill:url(#linear-gradient-27);}.cls-29{fill:url(#linear-gradient-28);}.cls-30{fill:none;stroke:#39ffff;stroke-miterlimit:10;stroke-width:2px;}</style><linearGradient id="linear-gradient" x1="0.21" y1="137.11" x2="100.9" y2="137.11" gradientUnits="userSpaceOnUse"><stop offset="0.04" stop-color="#3a3adb"/><stop offset="0.99" stop-color="#2a2a8c"/></linearGradient><linearGradient id="linear-gradient-2" x1="50.45" y1="221.61" x2="542.33" y2="221.61" gradientUnits="userSpaceOnUse"><stop offset="0.04" stop-color="#3a3adb"/><stop offset="0.77" stop-color="#2a2a8c"/></linearGradient><linearGradient id="linear-gradient-3" x1="0.16" y1="279.25" x2="446.97" y2="279.25" gradientUnits="userSpaceOnUse"><stop offset="0.04" stop-color="#3a3adb"/><stop offset="0.99" stop-color="#2a47c9"/></linearGradient><linearGradient id="linear-gradient-4" x1="340.93" y1="347.57" x2="474.87" y2="347.57" xlink:href="#linear-gradient"/><linearGradient id="linear-gradient-5" x1="71.3" y1="42.35" x2="73.9" y2="42.35" xlink:href="#linear-gradient"/><linearGradient id="linear-gradient-6" x1="71.3" y1="21.65" x2="73.9" y2="21.65" xlink:href="#linear-gradient"/><linearGradient id="linear-gradient-7" x1="77.5" y1="37.3" x2="87.4" y2="37.3" xlink:href="#linear-gradient"/><linearGradient id="linear-gradient-8" x1="57.8" y1="26.5" x2="67.7" y2="26.5" xlink:href="#linear-gradient"/><linearGradient id="linear-gradient-9" x1="57.7" y1="37.3" x2="67.6" y2="37.3" xlink:href="#linear-gradient"/><linearGradient id="linear-gradient-10" x1="77.5" y1="26.5" x2="87.4" y2="26.5" xlink:href="#linear-gradient"/><linearGradient id="linear-gradient-11" x1="208.8" y1="73.75" x2="211.41" y2="73.75" xlink:href="#linear-gradient"/><linearGradient id="linear-gradient-12" x1="208.8" y1="53.05" x2="211.41" y2="53.05" xlink:href="#linear-gradient"/><linearGradient id="linear-gradient-13" x1="193.5" y1="63.4" x2="204.21" y2="63.4" xlink:href="#linear-gradient"/><linearGradient id="linear-gradient-14" x1="216" y1="63.4" x2="226.71" y2="63.4" xlink:href="#linear-gradient"/><linearGradient id="linear-gradient-15" x1="55.91" y1="421.27" x2="90.05" y2="421.27" xlink:href="#linear-gradient"/><linearGradient id="linear-gradient-16" x1="56.05" y1="400.53" x2="90.14" y2="400.53" xlink:href="#linear-gradient"/><linearGradient id="linear-gradient-17" x1="345.5" y1="278.75" x2="348.1" y2="278.75" xlink:href="#linear-gradient-3"/><linearGradient id="linear-gradient-18" x1="345.5" y1="258.05" x2="348.1" y2="258.05" xlink:href="#linear-gradient-3"/><linearGradient id="linear-gradient-19" x1="351.8" y1="273.8" x2="361.7" y2="273.8" xlink:href="#linear-gradient-3"/><linearGradient id="linear-gradient-20" x1="332" y1="263" x2="341.9" y2="263" xlink:href="#linear-gradient-3"/><linearGradient id="linear-gradient-21" x1="331.9" y1="273.8" x2="341.8" y2="273.8" xlink:href="#linear-gradient-3"/><linearGradient id="linear-gradient-22" x1="351.7" y1="263" x2="361.6" y2="263" xlink:href="#linear-gradient-3"/><linearGradient id="linear-gradient-23" x1="474.1" y1="410.95" x2="476.7" y2="410.95" xlink:href="#linear-gradient"/><linearGradient id="linear-gradient-24" x1="474.1" y1="390.25" x2="476.7" y2="390.25" xlink:href="#linear-gradient"/><linearGradient id="linear-gradient-25" x1="458.8" y1="400.6" x2="469.5" y2="400.6" xlink:href="#linear-gradient"/><linearGradient id="linear-gradient-26" x1="481.2" y1="400.6" x2="491.91" y2="400.6" xlink:href="#linear-gradient"/><linearGradient id="linear-gradient-27" x1="480.31" y1="231.57" x2="514.45" y2="231.57" gradientUnits="userSpaceOnUse"><stop offset="0.04" stop-color="#3a3adb"/><stop offset="0.99" stop-color="#2a4b8c"/></linearGradient><linearGradient id="linear-gradient-28" x1="480.35" y1="210.83" x2="514.49" y2="210.83" xlink:href="#linear-gradient-27"/></defs><path class="cls-1" d="M89.5,126.5C79,109.2,68,97.8,50.6,89.7s-39.1-8.2-48,11.2,8.6,43.5,33.2,44.9c28.3,1.5,43.4,14.6,45,34,1,12.1,14.5,12.5,17.3,4.6C103.3,170,101.7,146.7,89.5,126.5Z"/><path class="cls-2" d="M311.5,26.9C194.9-92.8,68.2,219.8,35.7,320.8S140.6,438.1,233,456.2c147.6,28.8,215.2-27,226.7-94.2S428.1,146.7,311.5,26.9Z"/><path class="cls-3" d="M386.9,175.8C325,186.6,282.7,128,254.2,91.9c-22.4-28.4-116.5-75.1-175,8.7-53,76-31.1,189.1,52.3,246.4S342,399,420.9,363.5c49.9-22.4,112.9-64.1,120.7-123.3C550.2,175.4,481.9,159.3,386.9,175.8Z"/><path class="cls-4" d="M397.7,68.5c-2.5-.1-5-.1-7.6-.1-41.1,0-92.8,10.3-129.7,22.4L255,92.6c1.1,1.4,2.3,2.9,3.5,4.4,1.3-.4,2.5-.8,3.8-1.3,41-13.5,91.2-22.1,127.9-22.1,2.5,0,5,0,7.4.1,17.3.6,30.3,6.3,37.5,16.5,8.6,12.2,8.6,30.8-.1,52.2-3.9,9.7-7.2,18.9-9.9,28-11,36.6-13.6,72.1-14.2,134.2-.1,14.2,0,27.3.1,40,.1,8,.1,15.5.1,22.8,0,44.1-2.7,74.5-23,94.1-15.8,15.2-34.3,23.3-53.6,23.3-21.2,0-42.9-9.5-64.3-28.3C222.8,415,164,386,104.6,374.7c-45.6-8.7-81.4-17-93.8-36.9-6.7-10.9-6.7-25.6,0-45,6.3-18.1,18.4-43.1,41.9-70.5-.4-2.4-.7-4.8-1-7.1-23.6,26.5-38.1,52.7-46.2,76-21.7,62.6,25.1,74.8,97.9,88.7,58.6,11.2,115.8,39.3,162.8,80.5,24,21,47.1,29.7,68.1,29.7,22.1,0,41.8-9.7,57.6-24.9,22.1-21.4,24.6-53.8,24.6-100.1,0-18-.4-38.1-.2-60.4.6-64.3,3.4-98.8,14.5-134.7,2.6-8.3,5.7-16.8,9.2-25.6C458.1,99.7,439.9,69.9,397.7,68.5Z"/><path class="cls-5" d="M459.8,308.7c-35.5-38.4-76.5-14-105.7,29.4-27.1,40.3-10.6,87.6,33.3,58.4,38.3-25.4,61.6-18,78.7-35.1C489,338.7,459.8,308.7,459.8,308.7Z"/><path class="cls-6" d="M72.6,47.7a1.32,1.32,0,0,1-1.3-1.3V38.3a1.3,1.3,0,1,1,2.6,0v8.1A1.4,1.4,0,0,1,72.6,47.7Z"/><path class="cls-7" d="M72.6,27a1.32,1.32,0,0,1-1.3-1.3V17.6a1.3,1.3,0,1,1,2.6,0v8.1A1.32,1.32,0,0,1,72.6,27Z"/><path class="cls-8" d="M85.3,40.3l-7.1-3.8a1.13,1.13,0,0,1-.5-1.7,1.54,1.54,0,0,1,1.9-.5l7.1,3.8a1.13,1.13,0,0,1,.5,1.7A1.54,1.54,0,0,1,85.3,40.3Z"/><path class="cls-9" d="M65.6,29.5l-7.1-3.8A1.13,1.13,0,0,1,58,24a1.54,1.54,0,0,1,1.9-.5L67,27.3a1.13,1.13,0,0,1,.5,1.7A1.57,1.57,0,0,1,65.6,29.5Z"/><path class="cls-10" d="M57.9,39.8a1.13,1.13,0,0,1,.5-1.7l7.1-3.8a1.54,1.54,0,0,1,1.9.5,1.13,1.13,0,0,1-.5,1.7l-7.1,3.8A1.54,1.54,0,0,1,57.9,39.8Z"/><path class="cls-11" d="M77.7,29a1.13,1.13,0,0,1,.5-1.7l7.1-3.8a1.54,1.54,0,0,1,1.9.5,1.13,1.13,0,0,1-.5,1.7l-7.1,3.8A1.54,1.54,0,0,1,77.7,29Z"/><path class="cls-12" d="M210.1,79.1a1.32,1.32,0,0,1-1.3-1.3V69.7a1.3,1.3,0,0,1,2.6,0v8.1A1.21,1.21,0,0,1,210.1,79.1Z"/><path class="cls-13" d="M210.1,58.4a1.32,1.32,0,0,1-1.3-1.3V49a1.3,1.3,0,0,1,2.6,0v8.1A1.21,1.21,0,0,1,210.1,58.4Z"/><path class="cls-14" d="M202.9,64.7h-8.1a1.3,1.3,0,0,1,0-2.6h8.1a1.32,1.32,0,0,1,1.3,1.3A1.21,1.21,0,0,1,202.9,64.7Z"/><path class="cls-15" d="M225.4,64.7h-8.1a1.3,1.3,0,0,1,0-2.6h8.1a1.32,1.32,0,0,1,1.3,1.3A1.21,1.21,0,0,1,225.4,64.7Z"/><path class="cls-16" d="M73,428a17.92,17.92,0,0,1-17-11.7,1.27,1.27,0,0,1,1-1.7,1.31,1.31,0,0,1,1.6.8,15.42,15.42,0,0,0,28.8,0,1.38,1.38,0,0,1,2.6.9A18.06,18.06,0,0,1,73,428Z"/><path class="cls-17" d="M89.1,407.2a1.31,1.31,0,0,1-1.6-.8,15.42,15.42,0,0,0-28.8,0,1.38,1.38,0,0,1-2.6-.9,18.2,18.2,0,0,1,34,0A1.45,1.45,0,0,1,89.1,407.2Z"/><path class="cls-18" d="M346.8,284.1a1.32,1.32,0,0,1-1.3-1.3v-8.1a1.3,1.3,0,0,1,2.6,0v8.1A1.32,1.32,0,0,1,346.8,284.1Z"/><path class="cls-19" d="M346.8,263.4a1.32,1.32,0,0,1-1.3-1.3V254a1.3,1.3,0,0,1,2.6,0v8.1A1.32,1.32,0,0,1,346.8,263.4Z"/><path class="cls-20" d="M359.6,276.8l-7.1-3.8a1.13,1.13,0,0,1-.5-1.7,1.54,1.54,0,0,1,1.9-.5l7.1,3.8a1.13,1.13,0,0,1,.5,1.7A1.57,1.57,0,0,1,359.6,276.8Z"/><path class="cls-21" d="M339.8,266l-7.1-3.8a1.13,1.13,0,0,1-.5-1.7,1.54,1.54,0,0,1,1.9-.5l7.1,3.8a1.13,1.13,0,0,1,.5,1.7A1.57,1.57,0,0,1,339.8,266Z"/><path class="cls-22" d="M332.1,276.3a1.13,1.13,0,0,1,.5-1.7l7.1-3.8a1.54,1.54,0,0,1,1.9.5,1.13,1.13,0,0,1-.5,1.7l-7.1,3.8A1.57,1.57,0,0,1,332.1,276.3Z"/><path class="cls-23" d="M351.9,265.5a1.13,1.13,0,0,1,.5-1.7l7.1-3.8a1.54,1.54,0,0,1,1.9.5,1.13,1.13,0,0,1-.5,1.7l-7.1,3.8A1.54,1.54,0,0,1,351.9,265.5Z"/><path class="cls-24" d="M475.4,416.3a1.32,1.32,0,0,1-1.3-1.3v-8.1a1.3,1.3,0,0,1,2.6,0V415A1.32,1.32,0,0,1,475.4,416.3Z"/><path class="cls-25" d="M475.4,395.6a1.32,1.32,0,0,1-1.3-1.3v-8.1a1.3,1.3,0,0,1,2.6,0v8.1A1.32,1.32,0,0,1,475.4,395.6Z"/><path class="cls-26" d="M468.2,401.9h-8.1a1.3,1.3,0,0,1,0-2.6h8.1a1.3,1.3,0,1,1,0,2.6Z"/><path class="cls-27" d="M490.6,401.9h-8.1a1.3,1.3,0,0,1,0-2.6h8.1a1.32,1.32,0,0,1,1.3,1.3A1.21,1.21,0,0,1,490.6,401.9Z"/><path class="cls-28" d="M497.4,238.3a17.92,17.92,0,0,1-17-11.7,1.27,1.27,0,0,1,1-1.7,1.31,1.31,0,0,1,1.6.8,15.42,15.42,0,0,0,28.8,0,1.38,1.38,0,0,1,2.6.9A18.06,18.06,0,0,1,497.4,238.3Z"/><path class="cls-29" d="M513.4,217.5a1.31,1.31,0,0,1-1.6-.8,15.42,15.42,0,0,0-28.8,0,1.38,1.38,0,0,1-2.6-.9,18.2,18.2,0,0,1,34,0A1.3,1.3,0,0,1,513.4,217.5Z"/><path class="cls-30" d="M237.71,341c-14.63,0-29.26,0-43.89,0a11.49,11.49,0,0,1-11-8.21,11.74,11.74,0,0,1,11.38-15.15q43.51,0,87,0a11.74,11.74,0,0,1,12,11.88c-.11,6.47-5.27,11.46-12.07,11.48-14.46.05-28.92,0-43.39,0Z"/><path class="cls-30" d="M389.37,204.6a15,15,0,0,0-17.27,10c-.56,1.65-1.36,1.94-2.9,1.93-11-.06-22,0-33,0-6.76,0-13.53-.06-20.3,0-1.71,0-2.25-.53-2.15-2.17.1-1.86.08-3.73,0-5.58-.14-3.42-1.9-5.49-5.3-6-2.91-.48-5.86-.79-8.8-1.12a2.59,2.59,0,0,1-2.5-2,81,81,0,0,0-3.39-8.18,2.38,2.38,0,0,1,.3-3c1.79-2.14,3.47-4.37,5.16-6.59,2.52-3.32,2.39-6.12-.53-9-2.33-2.31-5-4.3-7.12-6.79-2.35-2.78-5-5.27-7.52-7.83s-5.44-2.73-8.43-.49c-2.37,1.77-4.7,3.6-7,5.46a2,2,0,0,1-2.5.38,55.44,55.44,0,0,0-9.11-3.8c-.69-.23-1.17-.48-1.29-1.32-.44-3.13-1.07-6.23-1.42-9.36-.42-3.7-2.32-5.69-6-5.71q-10.53-.07-21.07,0c-3.78,0-6.25,2.45-6.56,6.27-.18,2.11-.55,4.2-.6,6.31-.08,2.61-1.17,4-3.79,4.65a37.55,37.55,0,0,0-6.75,2.86,2.22,2.22,0,0,1-2.73-.29c-2.22-1.82-4.5-3.59-6.8-5.31-3.25-2.44-6-2.3-8.83.52q-7.3,7.22-14.53,14.54c-2.78,2.82-2.93,5.67-.51,8.84,1.74,2.29,3.5,4.56,5.33,6.78a2.18,2.18,0,0,1,.26,2.74,38,38,0,0,0-3.39,8.16,2.6,2.6,0,0,1-2.63,2.15c-2.94.32-5.88.65-8.8,1.12-3.41.55-5.19,2.61-5.21,6.1-.05,7.1-.06,14.21,0,21.32,0,3.6,2.1,5.74,5.73,6.19,2.86.35,5.7.73,8.56,1a2.19,2.19,0,0,1,2.18,1.66c1,2.79,2.14,5.51,3.34,8.21a2.92,2.92,0,0,1-.44,3.63c-1.9,2.15-3.59,4.48-5.27,6.81a5.79,5.79,0,0,0,.4,7.87,31.78,31.78,0,0,0,2.39,2.25q6.3,6.94,13.17,13.31a5.86,5.86,0,0,0,7.69.39,43.86,43.86,0,0,0,4.46-3.71c3.4-3.24,3.35-3.25,7.72-1.3a50.17,50.17,0,0,0,5.87,2.34c1.47.45,2.24,1,2.33,2.71.14,2.61.59,5.2.91,7.8.49,4.16,2.68,6.26,6.82,6.3q10.14.09,20.29,0c4,0,6.28-2.1,6.8-6.05.36-2.76.77-5.52,1-8.3a2.21,2.21,0,0,1,1.8-2.3,41,41,0,0,0,8.4-3.5,2.22,2.22,0,0,1,2.91.38q3.42,2.82,7,5.45c2.66,1.95,5.6,2,7.88-.21,4.49-4.34,8.82-8.85,13.21-13.29,5.17-4.42,5.42-6.85,1.27-12.14-1.31-1.67-2.55-3.38-3.93-5a2.42,2.42,0,0,1-.41-3.16,40.33,40.33,0,0,0,3.39-8.18,2.39,2.39,0,0,1,2.46-2c2.95-.24,5.88-.63,8.81-1a5.76,5.76,0,0,0,5.3-5.8,54.18,54.18,0,0,0,0-5.84c-.1-1.67.48-2.14,2.15-2.13q26.78.08,53.56,0a2.35,2.35,0,0,1,2.66,1.92,15.17,15.17,0,0,0,14.81,10.24c7.56-.38,14-6.32,14.54-13.46C402.12,213,397.28,206.34,389.37,204.6ZM238,181.09a38.33,38.33,0,0,1-.51,76.65c-22-.16-38.18-17.57-38.09-38.63C199.49,197.36,217.44,181,238,181.09Z"/><path class="cls-30" d="M237.74,347.07h40.1c3.13,0,3.27.15,2.63,3.32-2,9.77-10.65,18.19-21.63,18.32-14.12.17-28.26.25-42.38,0-10.7-.22-19.06-7.52-21.39-17.88-.83-3.68-.79-3.73,2.83-3.73Z"/><path class="cls-30" d="M331.64,190.21c-6.18,0-12.35,0-18.53,0-2.15,0-3.72-.65-3.94-3-.19-1.9,1.44-3.14,4-3.14,11.43,0,22.85-.06,34.28,0,2.06,0,3.12-.47,3.82-2.59,2-6.24,4.3-12.42,6.64-18.56.61-1.61.21-2.37-1-3.37A14.88,14.88,0,0,1,352.64,142c2.63-6.11,9.2-10,15.5-9.17a15.36,15.36,0,0,1,13.43,12.66A15.11,15.11,0,0,1,367,163.07c-2.25,0-3,.83-3.65,2.75-2.16,6.36-4.48,12.66-6.78,19-1.62,4.44-3,5.41-7.67,5.41Z"/><path class="cls-30" d="M361.49,268.26c.73,1.89,1.6,3.73,2.15,5.66.45,1.61,1.27,2,2.88,2A14.56,14.56,0,0,1,381,286.44c2.44,8.91-2.43,17.54-10.94,19.38a15.16,15.16,0,0,1-18.53-13.09,14,14,0,0,1,5.45-13.42,2.61,2.61,0,0,0,.94-3.6c-1-2.42-1.71-4.93-2.55-7.4Z"/><path class="cls-30" d="M361.49,268.26l-6.16.05c-1.38-3.72-2.89-7.39-4.08-11.17-.63-2-1.62-2.51-3.63-2.49-11.16.11-22.32,0-33.48,0a17.78,17.78,0,0,1-2.53-.09,2.74,2.74,0,0,1-2.41-2.56A2.87,2.87,0,0,1,311,249a6.46,6.46,0,0,1,3-.35h35c4.33,0,5.93,1,7.42,5.09C358.16,258.54,359.8,263.41,361.49,268.26Z"/><path class="cls-30" d="M236.55,121.14a107.08,107.08,0,0,0-14.62,1.34c-70.86,11.62-78.58,76.33-78.58,76.33a83.14,83.14,0,0,0-1.66,10.33,105.76,105.76,0,0,0,.25,16.56A97.31,97.31,0,0,0,144,238.93a91.49,91.49,0,0,0,14,32,86.9,86.9,0,0,0,24.25,24.9c4.33,3,6.46,6.61,6.19,11.88-.23,4.34,0,4.35,4.29,3.84.77-.09,1.8.26,1.87-1.09.37-6.92-.42-13.54-6.64-17.89a101.67,101.67,0,0,1-23.31-22.37,46,46,0,0,1-5-7.83,90.16,90.16,0,0,1,33-123,90.64,90.64,0,0,1,44-12.1c2.78-.07,4.1-1.2,4-3.13S239.16,121.07,236.55,121.14Z"/><path class="cls-30" d="M237.58,251.64a32.23,32.23,0,1,1,32.36-32.15A32.29,32.29,0,0,1,237.58,251.64Z"/></svg>