<svg id="Layer_1" data-name="Layer 1" xmlns="http://www.w3.org/2000/svg" xmlns:xlink="http://www.w3.org/1999/xlink" viewBox="0 0 543 490"><defs><style>.cls-1{fill:url(#linear-gradient);}.cls-2{fill:#2a2a8c;}.cls-3{fill:url(#linear-gradient-2);}.cls-4{opacity:0.9;fill:url(#linear-gradient-3);}.cls-5{fill:url(#linear-gradient-4);}.cls-6{fill:url(#linear-gradient-5);}.cls-7{fill:url(#linear-gradient-6);}.cls-8{fill:url(#linear-gradient-7);}.cls-9{fill:url(#linear-gradient-8);}.cls-10{fill:url(#linear-gradient-9);}.cls-11{fill:url(#linear-gradient-10);}.cls-12,.cls-13,.cls-14,.cls-15,.cls-18,.cls-19,.cls-20,.cls-21,.cls-22,.cls-23,.cls-28,.cls-29{fill-opacity:0.2;}.cls-12{fill:url(#linear-gradient-11);}.cls-13{fill:url(#linear-gradient-12);}.cls-14{fill:url(#linear-gradient-13);}.cls-15{fill:url(#linear-gradient-14);}.cls-16{fill:url(#linear-gradient-15);}.cls-17{fill:url(#linear-gradient-16);}.cls-18{fill:url(#linear-gradient-17);}.cls-19{fill:url(#linear-gradient-18);}.cls-20{fill:url(#linear-gradient-19);}.cls-21{fill:url(#linear-gradient-20);}.cls-22{fill:url(#linear-gradient-21);}.cls-23{fill:url(#linear-gradient-22);}.cls-24{fill:url(#linear-gradient-23);}.cls-25{fill:url(#linear-gradient-24);}.cls-26{fill:url(#linear-gradient-25);}.cls-27{fill:url(#linear-gradient-26);}.cls-28{fill:url(#linear-gradient-27);}.cls-29{fill:url(#linear-gradient-28);}.cls-30{fill:none;stroke:#39ffff;stroke-miterlimit:10;stroke-width:2px;}</style><linearGradient id="linear-gradient" x1="0.21" y1="137.11" x2="100.9" y2="137.11" gradientUnits="userSpaceOnUse"><stop offset="0.04" stop-color="#3a3adb"/><stop offset="0.99" stop-color="#2a2a8c"/></linearGradient><linearGradient id="linear-gradient-2" x1="50.45" y1="221.61" x2="542.33" y2="221.61" gradientUnits="userSpaceOnUse"><stop offset="0.04" stop-color="#3a3adb"/><stop offset="0.77" stop-color="#2a2a8c"/></linearGradient><linearGradient id="linear-gradient-3" x1="0.16" y1="279.25" x2="446.97" y2="279.25" gradientUnits="userSpaceOnUse"><stop offset="0.04" stop-color="#3a3adb"/><stop offset="0.99" stop-color="#2a47c9"/></linearGradient><linearGradient id="linear-gradient-4" x1="340.93" y1="347.57" x2="474.87" y2="347.57" xlink:href="#linear-gradient"/><linearGradient id="linear-gradient-5" x1="71.3" y1="42.35" x2="73.9" y2="42.35" xlink:href="#linear-gradient"/><linearGradient id="linear-gradient-6" x1="71.3" y1="21.65" x2="73.9" y2="21.65" xlink:href="#linear-gradient"/><linearGradient id="linear-gradient-7" x1="77.5" y1="37.3" x2="87.4" y2="37.3" xlink:href="#linear-gradient"/><linearGradient id="linear-gradient-8" x1="57.8" y1="26.5" x2="67.7" y2="26.5" xlink:href="#linear-gradient"/><linearGradient id="linear-gradient-9" x1="57.7" y1="37.3" x2="67.6" y2="37.3" xlink:href="#linear-gradient"/><linearGradient id="linear-gradient-10" x1="77.5" y1="26.5" x2="87.4" y2="26.5" xlink:href="#linear-gradient"/><linearGradient id="linear-gradient-11" x1="208.8" y1="73.75" x2="211.41" y2="73.75" xlink:href="#linear-gradient"/><linearGradient id="linear-gradient-12" x1="208.8" y1="53.05" x2="211.41" y2="53.05" xlink:href="#linear-gradient"/><linearGradient id="linear-gradient-13" x1="193.5" y1="63.4" x2="204.21" y2="63.4" xlink:href="#linear-gradient"/><linearGradient id="linear-gradient-14" x1="216" y1="63.4" x2="226.71" y2="63.4" xlink:href="#linear-gradient"/><linearGradient id="linear-gradient-15" x1="55.91" y1="421.27" x2="90.05" y2="421.27" xlink:href="#linear-gradient"/><linearGradient id="linear-gradient-16" x1="56.05" y1="400.53" x2="90.14" y2="400.53" xlink:href="#linear-gradient"/><linearGradient id="linear-gradient-17" x1="345.5" y1="278.75" x2="348.1" y2="278.75" xlink:href="#linear-gradient-3"/><linearGradient id="linear-gradient-18" x1="345.5" y1="258.05" x2="348.1" y2="258.05" xlink:href="#linear-gradient-3"/><linearGradient id="linear-gradient-19" x1="351.8" y1="273.8" x2="361.7" y2="273.8" xlink:href="#linear-gradient-3"/><linearGradient id="linear-gradient-20" x1="332" y1="263" x2="341.9" y2="263" xlink:href="#linear-gradient-3"/><linearGradient id="linear-gradient-21" x1="331.9" y1="273.8" x2="341.8" y2="273.8" xlink:href="#linear-gradient-3"/><linearGradient id="linear-gradient-22" x1="351.7" y1="263" x2="361.6" y2="263" xlink:href="#linear-gradient-3"/><linearGradient id="linear-gradient-23" x1="474.1" y1="410.95" x2="476.7" y2="410.95" xlink:href="#linear-gradient"/><linearGradient id="linear-gradient-24" x1="474.1" y1="390.25" x2="476.7" y2="390.25" xlink:href="#linear-gradient"/><linearGradient id="linear-gradient-25" x1="458.8" y1="400.6" x2="469.5" y2="400.6" xlink:href="#linear-gradient"/><linearGradient id="linear-gradient-26" x1="481.2" y1="400.6" x2="491.91" y2="400.6" xlink:href="#linear-gradient"/><linearGradient id="linear-gradient-27" x1="480.31" y1="231.57" x2="514.45" y2="231.57" gradientUnits="userSpaceOnUse"><stop offset="0.04" stop-color="#3a3adb"/><stop offset="0.99" stop-color="#2a4b8c"/></linearGradient><linearGradient id="linear-gradient-28" x1="480.35" y1="210.83" x2="514.49" y2="210.83" xlink:href="#linear-gradient-27"/></defs><path class="cls-1" d="M89.5,126.5C79,109.2,68,97.8,50.6,89.7s-39.1-8.2-48,11.2,8.6,43.5,33.2,44.9c28.3,1.5,43.4,14.6,45,34,1,12.1,14.5,12.5,17.3,4.6C103.3,170,101.7,146.7,89.5,126.5Z"/><path class="cls-2" d="M311.5,26.9C194.9-92.8,68.2,219.8,35.7,320.8S140.6,438.1,233,456.2c147.6,28.8,215.2-27,226.7-94.2S428.1,146.7,311.5,26.9Z"/><path class="cls-3" d="M386.9,175.8C325,186.6,282.7,128,254.2,91.9c-22.4-28.4-116.5-75.1-175,8.7-53,76-31.1,189.1,52.3,246.4S342,399,420.9,363.5c49.9-22.4,112.9-64.1,120.7-123.3C550.2,175.4,481.9,159.3,386.9,175.8Z"/><path class="cls-4" d="M397.7,68.5c-2.5-.1-5-.1-7.6-.1-41.1,0-92.8,10.3-129.7,22.4L255,92.6c1.1,1.4,2.3,2.9,3.5,4.4,1.3-.4,2.5-.8,3.8-1.3,41-13.5,91.2-22.1,127.9-22.1,2.5,0,5,0,7.4.1,17.3.6,30.3,6.3,37.5,16.5,8.6,12.2,8.6,30.8-.1,52.2-3.9,9.7-7.2,18.9-9.9,28-11,36.6-13.6,72.1-14.2,134.2-.1,14.2,0,27.3.1,40,.1,8,.1,15.5.1,22.8,0,44.1-2.7,74.5-23,94.1-15.8,15.2-34.3,23.3-53.6,23.3-21.2,0-42.9-9.5-64.3-28.3C222.8,415,164,386,104.6,374.7c-45.6-8.7-81.4-17-93.8-36.9-6.7-10.9-6.7-25.6,0-45,6.3-18.1,18.4-43.1,41.9-70.5-.4-2.4-.7-4.8-1-7.1-23.6,26.5-38.1,52.7-46.2,76-21.7,62.6,25.1,74.8,97.9,88.7,58.6,11.2,115.8,39.3,162.8,80.5,24,21,47.1,29.7,68.1,29.7,22.1,0,41.8-9.7,57.6-24.9,22.1-21.4,24.6-53.8,24.6-100.1,0-18-.4-38.1-.2-60.4.6-64.3,3.4-98.8,14.5-134.7,2.6-8.3,5.7-16.8,9.2-25.6C458.1,99.7,439.9,69.9,397.7,68.5Z"/><path class="cls-5" d="M459.8,308.7c-35.5-38.4-76.5-14-105.7,29.4-27.1,40.3-10.6,87.6,33.3,58.4,38.3-25.4,61.6-18,78.7-35.1C489,338.7,459.8,308.7,459.8,308.7Z"/><path class="cls-6" d="M72.6,47.7a1.32,1.32,0,0,1-1.3-1.3V38.3a1.3,1.3,0,1,1,2.6,0v8.1A1.4,1.4,0,0,1,72.6,47.7Z"/><path class="cls-7" d="M72.6,27a1.32,1.32,0,0,1-1.3-1.3V17.6a1.3,1.3,0,1,1,2.6,0v8.1A1.32,1.32,0,0,1,72.6,27Z"/><path class="cls-8" d="M85.3,40.3l-7.1-3.8a1.13,1.13,0,0,1-.5-1.7,1.54,1.54,0,0,1,1.9-.5l7.1,3.8a1.13,1.13,0,0,1,.5,1.7A1.54,1.54,0,0,1,85.3,40.3Z"/><path class="cls-9" d="M65.6,29.5l-7.1-3.8A1.13,1.13,0,0,1,58,24a1.54,1.54,0,0,1,1.9-.5L67,27.3a1.13,1.13,0,0,1,.5,1.7A1.57,1.57,0,0,1,65.6,29.5Z"/><path class="cls-10" d="M57.9,39.8a1.13,1.13,0,0,1,.5-1.7l7.1-3.8a1.54,1.54,0,0,1,1.9.5,1.13,1.13,0,0,1-.5,1.7l-7.1,3.8A1.54,1.54,0,0,1,57.9,39.8Z"/><path class="cls-11" d="M77.7,29a1.13,1.13,0,0,1,.5-1.7l7.1-3.8a1.54,1.54,0,0,1,1.9.5,1.13,1.13,0,0,1-.5,1.7l-7.1,3.8A1.54,1.54,0,0,1,77.7,29Z"/><path class="cls-12" d="M210.1,79.1a1.32,1.32,0,0,1-1.3-1.3V69.7a1.3,1.3,0,0,1,2.6,0v8.1A1.21,1.21,0,0,1,210.1,79.1Z"/><path class="cls-13" d="M210.1,58.4a1.32,1.32,0,0,1-1.3-1.3V49a1.3,1.3,0,0,1,2.6,0v8.1A1.21,1.21,0,0,1,210.1,58.4Z"/><path class="cls-14" d="M202.9,64.7h-8.1a1.3,1.3,0,0,1,0-2.6h8.1a1.32,1.32,0,0,1,1.3,1.3A1.21,1.21,0,0,1,202.9,64.7Z"/><path class="cls-15" d="M225.4,64.7h-8.1a1.3,1.3,0,0,1,0-2.6h8.1a1.32,1.32,0,0,1,1.3,1.3A1.21,1.21,0,0,1,225.4,64.7Z"/><path class="cls-16" d="M73,428a17.92,17.92,0,0,1-17-11.7,1.27,1.27,0,0,1,1-1.7,1.31,1.31,0,0,1,1.6.8,15.42,15.42,0,0,0,28.8,0,1.38,1.38,0,0,1,2.6.9A18.06,18.06,0,0,1,73,428Z"/><path class="cls-17" d="M89.1,407.2a1.31,1.31,0,0,1-1.6-.8,15.42,15.42,0,0,0-28.8,0,1.38,1.38,0,0,1-2.6-.9,18.2,18.2,0,0,1,34,0A1.45,1.45,0,0,1,89.1,407.2Z"/><path class="cls-18" d="M346.8,284.1a1.32,1.32,0,0,1-1.3-1.3v-8.1a1.3,1.3,0,0,1,2.6,0v8.1A1.32,1.32,0,0,1,346.8,284.1Z"/><path class="cls-19" d="M346.8,263.4a1.32,1.32,0,0,1-1.3-1.3V254a1.3,1.3,0,0,1,2.6,0v8.1A1.32,1.32,0,0,1,346.8,263.4Z"/><path class="cls-20" d="M359.6,276.8l-7.1-3.8a1.13,1.13,0,0,1-.5-1.7,1.54,1.54,0,0,1,1.9-.5l7.1,3.8a1.13,1.13,0,0,1,.5,1.7A1.57,1.57,0,0,1,359.6,276.8Z"/><path class="cls-21" d="M339.8,266l-7.1-3.8a1.13,1.13,0,0,1-.5-1.7,1.54,1.54,0,0,1,1.9-.5l7.1,3.8a1.13,1.13,0,0,1,.5,1.7A1.57,1.57,0,0,1,339.8,266Z"/><path class="cls-22" d="M332.1,276.3a1.13,1.13,0,0,1,.5-1.7l7.1-3.8a1.54,1.54,0,0,1,1.9.5,1.13,1.13,0,0,1-.5,1.7l-7.1,3.8A1.57,1.57,0,0,1,332.1,276.3Z"/><path class="cls-23" d="M351.9,265.5a1.13,1.13,0,0,1,.5-1.7l7.1-3.8a1.54,1.54,0,0,1,1.9.5,1.13,1.13,0,0,1-.5,1.7l-7.1,3.8A1.54,1.54,0,0,1,351.9,265.5Z"/><path class="cls-24" d="M475.4,416.3a1.32,1.32,0,0,1-1.3-1.3v-8.1a1.3,1.3,0,0,1,2.6,0V415A1.32,1.32,0,0,1,475.4,416.3Z"/><path class="cls-25" d="M475.4,395.6a1.32,1.32,0,0,1-1.3-1.3v-8.1a1.3,1.3,0,0,1,2.6,0v8.1A1.32,1.32,0,0,1,475.4,395.6Z"/><path class="cls-26" d="M468.2,401.9h-8.1a1.3,1.3,0,0,1,0-2.6h8.1a1.3,1.3,0,1,1,0,2.6Z"/><path class="cls-27" d="M490.6,401.9h-8.1a1.3,1.3,0,0,1,0-2.6h8.1a1.32,1.32,0,0,1,1.3,1.3A1.21,1.21,0,0,1,490.6,401.9Z"/><path class="cls-28" d="M497.4,238.3a17.92,17.92,0,0,1-17-11.7,1.27,1.27,0,0,1,1-1.7,1.31,1.31,0,0,1,1.6.8,15.42,15.42,0,0,0,28.8,0,1.38,1.38,0,0,1,2.6.9A18.06,18.06,0,0,1,497.4,238.3Z"/><path class="cls-29" d="M513.4,217.5a1.31,1.31,0,0,1-1.6-.8,15.42,15.42,0,0,0-28.8,0,1.38,1.38,0,0,1-2.6-.9,18.2,18.2,0,0,1,34,0A1.3,1.3,0,0,1,513.4,217.5Z"/><path class="cls-30" d="M256,163.51a31,31,0,0,1-10.79-15.45,43.83,43.83,0,0,1-1-24.7c3.56-14.18,16-22.31,30.48-20.06,12.21,1.89,20,9.13,22.52,21.46A43.52,43.52,0,0,1,294.7,151a30.32,30.32,0,0,1-10,12.71c2.39.37,4.3.61,6.18,1a41.16,41.16,0,0,1,33.75,38.22c.42,7.38.39,14.81.14,22.21-.38,11.54-8.61,19.13-20.52,19.17-19.81.06-39.62,0-59.43,0-3,0-6,.08-8.94,0-10.64-.34-18.71-7.16-19.41-17.52-.65-9.75-1.21-19.63.65-29.33a41.25,41.25,0,0,1,37.1-33.32C254.78,164.08,255.4,164.24,256,163.51Zm14.4,73.87c8,0,16-.06,23.95.05,2,0,2.68-.41,2.6-2.5-.17-4.13-.05-8.27-.05-12.41,0-5.86,0-11.73,0-17.6,0-2.34,1.12-3.95,3.64-3.86,2.36.08,3.32,1.63,3.29,3.88,0,.67,0,1.34,0,2,0,9.33.06,18.65-.05,28,0,2.08.56,2.64,2.61,2.39,6.57-.81,11.21-5.38,11.38-12,.19-7.59.28-15.21-.16-22.78-.95-16.32-14.77-30.27-31.1-31.41A247.31,247.31,0,0,0,256,171a33.87,33.87,0,0,0-32.12,28.09c-1.69,9.18-1.12,18.61-.36,27.89.48,5.85,5.46,9.8,11.42,10.34,1.77.17,2.35-.32,2.32-2.15-.1-6.73,0-13.46,0-20.19,0-3.56,0-7.12.05-10.68a3.1,3.1,0,0,1,3.27-3.29c2.07-.08,3.21,1.11,3.53,3.06a14.93,14.93,0,0,1,.09,2.59c0,9.33.07,18.66,0,28,0,2.09.41,2.8,2.67,2.76C254.65,237.29,262.54,237.38,270.42,237.38ZM249.94,133.31a34.69,34.69,0,0,0,3.58,16.59c3.6,7,9.09,11,17.19,10.92s13.44-4.1,16.86-11a35.44,35.44,0,0,0,2.49-25c-2.44-9.81-9.44-14.93-19.85-14.85-10,.07-17.06,5.57-19.38,15.18A32.56,32.56,0,0,0,249.94,133.31Z"/><path class="cls-30" d="M256.79,336c-15-11.38-13.13-28.93-4.11-38.17a24.9,24.9,0,0,1,36,.39c8.52,9,10.48,26.5-4.49,37.78a44,44,0,0,1,9.51,3.87c11,6.56,17.22,16.21,18.44,28.93.88,9.16-6.9,18-16.26,18.11-16.93.22-33.86.16-50.78,0-8.77-.07-19.16-8.84-15.6-23C233.19,349.46,242.37,340.35,256.79,336Zm13.61,44.06c8.17,0,16.34.07,24.51,0,6.12-.07,11-5.24,10.31-11.06-1.54-12.33-8.16-20.82-19.82-25.28-6.4-2.44-13.09-1.67-19.69-1.67-15,0-27,10.22-29.63,25-1.34,7.57,3.2,13,11,13S262.61,380.08,270.4,380.08Zm18-64.65a17.87,17.87,0,0,0-17.67-18.23,17.89,17.89,0,1,0-.33,35.78A17.78,17.78,0,0,0,288.35,315.43Z"/><path class="cls-30" d="M163.51,336c-14.4-10.52-13.54-27.91-4.9-37.4a24.9,24.9,0,0,1,36-1.1c9,8.9,11.69,26.72-3.74,38.55,11,3,19.26,9.42,24.27,19.65,2.69,5.48,4.5,11.26,3.28,17.51A17,17,0,0,1,202.13,387c-16.64.13-33.28.17-49.91,0-11.37-.12-18.89-10.7-16.13-22.52,3.28-14,11.77-23.4,25.61-27.77C162.24,336.49,162.76,336.27,163.51,336Zm13.27,44.08c8.27,0,16.54.07,24.8,0,6.21-.07,11.11-5.45,10.26-11.37-1.8-12.53-8.65-21.08-20.68-25.24-6.52-2.26-13.33-1.46-20-1.35a29.51,29.51,0,0,0-28.49,25.32c-1.08,7.41,3.33,12.63,10.77,12.67C161.21,380.11,169,380.08,176.78,380.08Zm.42-47.1a17.9,17.9,0,1,0-17.92-17.65A18,18,0,0,0,177.2,333Z"/><path class="cls-30" d="M379.42,336c13.63,4,22.72,12.43,26.78,26,1.22,4.07,1.85,8.25.63,12.48A17.3,17.3,0,0,1,390.08,387c-15.67.06-31.35,0-47,0-13.36,0-21.31-9.68-18.31-22.68,3.23-13.92,11.73-23.21,25.41-27.64.46-.15.92-.29,1.37-.46a1.76,1.76,0,0,0,.4-.27c-15.3-11.67-12.75-29.56-3.64-38.48a24.88,24.88,0,0,1,36,1.13C392.9,308.09,393.82,325.39,379.42,336Zm-13.66,44.09c8.17,0,16.34.07,24.51,0,6.09-.07,11-5.37,10.2-11.15-1.66-12.42-8.31-20.95-20.19-25.29-6.34-2.31-12.92-1.56-19.42-1.55-15,0-27,10.3-29.54,25.13-1.29,7.42,3.24,12.85,10.79,12.89C350,380.11,357.88,380.08,365.76,380.08Zm17.86-65A17.89,17.89,0,1,0,366,333,17.94,17.94,0,0,0,383.62,315.06Z"/><path class="cls-30" d="M369.78,272c1.54-1.63,2.94-3.16,4.39-4.64,1.64-1.69,3.52-2.16,5.29-.37s1.27,3.64-.4,5.3c-3.47,3.46-6.91,7-10.42,10.38-2.08,2-3.65,2-5.72,0-3.51-3.42-6.95-6.92-10.42-10.38-1.68-1.67-2.16-3.53-.41-5.31s3.65-1.27,5.3.38c1.43,1.42,2.82,2.88,4.2,4.3,1.11-.53.66-1.41.66-2.07q0-46.89,0-93.76c0-4.38-1.3-5.67-5.67-5.67-9.52,0-19,0-28.56,0-3.14,0-4.66-1.16-4.64-3.44s1.62-3.49,4.68-3.49q14.42,0,28.85,0c7.86,0,12.27,4.45,12.27,12.39q0,46.44,0,92.89A5.42,5.42,0,0,0,369.78,272Z"/><path class="cls-30" d="M180.9,272.3c1.93-2.06,3.37-3.7,4.92-5.22s3.49-1.75,5.08-.06,1.34,3.35-.17,4.88c-3.64,3.7-7.3,7.39-11,11a3.31,3.31,0,0,1-5.11,0c-3.71-3.63-7.37-7.31-11-11-1.6-1.62-1.75-3.45-.09-5.08s3.35-1.38,4.87.12,3,3.23,4.66,5.08a4.89,4.89,0,0,0,.66-3.4c0-30.68.19-61.35-.1-92-.08-9.43,5.84-13.86,13.62-13.55,8.84.35,17.7.08,26.54.08.68,0,1.35,0,2,0,2.19.18,3.75,1.21,3.7,3.56s-1.55,3.37-3.82,3.36h-9.52c-6.83,0-13.66,0-20.49,0-3.49,0-5,1.46-5,4.89q0,47.88,0,95.78C180.66,271,180.72,271.19,180.9,272.3Z"/><path class="cls-30" d="M267,271.45c0-4.57,0-9.14,0-13.71,0-.87,0-1.74,0-2.6.16-2.1,1.29-3.55,3.41-3.57s3.48,1.41,3.49,3.72c0,4.23,0,8.46,0,12.69v3.72c2.08-1,3.17-2.7,4.58-4,2.27-2.12,4.19-2.45,5.73-.72,1.79,2,1.05,3.83-.68,5.52-3.36,3.3-6.64,6.68-10,10-2.3,2.25-3.83,2.23-6.14,0q-5-5-10-10c-1.95-2-2.21-4.07-.63-5.51,2-1.82,3.87-1.13,5.53.62,1.32,1.4,2.62,2.8,3.93,4.2Z"/></svg>