<svg id="Layer_1" data-name="Layer 1" xmlns="http://www.w3.org/2000/svg" xmlns:xlink="http://www.w3.org/1999/xlink" viewBox="0 0 543 490"><defs><style>.cls-1{fill:url(#linear-gradient);}.cls-2{fill:#2a2a8c;}.cls-3{fill:url(#linear-gradient-2);}.cls-4{opacity:0.9;fill:url(#linear-gradient-3);}.cls-5{fill:url(#linear-gradient-4);}.cls-6{fill:url(#linear-gradient-5);}.cls-7{fill:url(#linear-gradient-6);}.cls-8{fill:url(#linear-gradient-7);}.cls-9{fill:url(#linear-gradient-8);}.cls-10{fill:url(#linear-gradient-9);}.cls-11{fill:url(#linear-gradient-10);}.cls-12,.cls-13,.cls-14,.cls-15,.cls-18,.cls-19,.cls-20,.cls-21,.cls-22,.cls-23,.cls-28,.cls-29{fill-opacity:0.2;}.cls-12{fill:url(#linear-gradient-11);}.cls-13{fill:url(#linear-gradient-12);}.cls-14{fill:url(#linear-gradient-13);}.cls-15{fill:url(#linear-gradient-14);}.cls-16{fill:url(#linear-gradient-15);}.cls-17{fill:url(#linear-gradient-16);}.cls-18{fill:url(#linear-gradient-17);}.cls-19{fill:url(#linear-gradient-18);}.cls-20{fill:url(#linear-gradient-19);}.cls-21{fill:url(#linear-gradient-20);}.cls-22{fill:url(#linear-gradient-21);}.cls-23{fill:url(#linear-gradient-22);}.cls-24{fill:url(#linear-gradient-23);}.cls-25{fill:url(#linear-gradient-24);}.cls-26{fill:url(#linear-gradient-25);}.cls-27{fill:url(#linear-gradient-26);}.cls-28{fill:url(#linear-gradient-27);}.cls-29{fill:url(#linear-gradient-28);}.cls-30{fill:none;stroke:#39ffff;stroke-miterlimit:10;stroke-width:2px;}</style><linearGradient id="linear-gradient" x1="0.21" y1="137.11" x2="100.9" y2="137.11" gradientUnits="userSpaceOnUse"><stop offset="0.04" stop-color="#3a3adb"/><stop offset="0.99" stop-color="#2a2a8c"/></linearGradient><linearGradient id="linear-gradient-2" x1="50.45" y1="221.61" x2="542.33" y2="221.61" gradientUnits="userSpaceOnUse"><stop offset="0.04" stop-color="#3a3adb"/><stop offset="0.77" stop-color="#2a2a8c"/></linearGradient><linearGradient id="linear-gradient-3" x1="0.16" y1="279.25" x2="446.97" y2="279.25" gradientUnits="userSpaceOnUse"><stop offset="0.04" stop-color="#3a3adb"/><stop offset="0.99" stop-color="#2a47c9"/></linearGradient><linearGradient id="linear-gradient-4" x1="340.93" y1="347.57" x2="474.87" y2="347.57" xlink:href="#linear-gradient"/><linearGradient id="linear-gradient-5" x1="71.3" y1="42.35" x2="73.9" y2="42.35" xlink:href="#linear-gradient"/><linearGradient id="linear-gradient-6" x1="71.3" y1="21.65" x2="73.9" y2="21.65" xlink:href="#linear-gradient"/><linearGradient id="linear-gradient-7" x1="77.5" y1="37.3" x2="87.4" y2="37.3" xlink:href="#linear-gradient"/><linearGradient id="linear-gradient-8" x1="57.8" y1="26.5" x2="67.7" y2="26.5" xlink:href="#linear-gradient"/><linearGradient id="linear-gradient-9" x1="57.7" y1="37.3" x2="67.6" y2="37.3" xlink:href="#linear-gradient"/><linearGradient id="linear-gradient-10" x1="77.5" y1="26.5" x2="87.4" y2="26.5" xlink:href="#linear-gradient"/><linearGradient id="linear-gradient-11" x1="208.8" y1="73.75" x2="211.41" y2="73.75" xlink:href="#linear-gradient"/><linearGradient id="linear-gradient-12" x1="208.8" y1="53.05" x2="211.41" y2="53.05" xlink:href="#linear-gradient"/><linearGradient id="linear-gradient-13" x1="193.5" y1="63.4" x2="204.21" y2="63.4" xlink:href="#linear-gradient"/><linearGradient id="linear-gradient-14" x1="216" y1="63.4" x2="226.71" y2="63.4" xlink:href="#linear-gradient"/><linearGradient id="linear-gradient-15" x1="55.91" y1="421.27" x2="90.05" y2="421.27" xlink:href="#linear-gradient"/><linearGradient id="linear-gradient-16" x1="56.05" y1="400.53" x2="90.14" y2="400.53" xlink:href="#linear-gradient"/><linearGradient id="linear-gradient-17" x1="345.5" y1="278.75" x2="348.1" y2="278.75" xlink:href="#linear-gradient-3"/><linearGradient id="linear-gradient-18" x1="345.5" y1="258.05" x2="348.1" y2="258.05" xlink:href="#linear-gradient-3"/><linearGradient id="linear-gradient-19" x1="351.8" y1="273.8" x2="361.7" y2="273.8" xlink:href="#linear-gradient-3"/><linearGradient id="linear-gradient-20" x1="332" y1="263" x2="341.9" y2="263" xlink:href="#linear-gradient-3"/><linearGradient id="linear-gradient-21" x1="331.9" y1="273.8" x2="341.8" y2="273.8" xlink:href="#linear-gradient-3"/><linearGradient id="linear-gradient-22" x1="351.7" y1="263" x2="361.6" y2="263" xlink:href="#linear-gradient-3"/><linearGradient id="linear-gradient-23" x1="474.1" y1="410.95" x2="476.7" y2="410.95" xlink:href="#linear-gradient"/><linearGradient id="linear-gradient-24" x1="474.1" y1="390.25" x2="476.7" y2="390.25" xlink:href="#linear-gradient"/><linearGradient id="linear-gradient-25" x1="458.8" y1="400.6" x2="469.5" y2="400.6" xlink:href="#linear-gradient"/><linearGradient id="linear-gradient-26" x1="481.2" y1="400.6" x2="491.91" y2="400.6" xlink:href="#linear-gradient"/><linearGradient id="linear-gradient-27" x1="480.31" y1="231.57" x2="514.45" y2="231.57" gradientUnits="userSpaceOnUse"><stop offset="0.04" stop-color="#3a3adb"/><stop offset="0.99" stop-color="#2a4b8c"/></linearGradient><linearGradient id="linear-gradient-28" x1="480.35" y1="210.83" x2="514.49" y2="210.83" xlink:href="#linear-gradient-27"/></defs><path class="cls-1" d="M89.5,126.5C79,109.2,68,97.8,50.6,89.7s-39.1-8.2-48,11.2,8.6,43.5,33.2,44.9c28.3,1.5,43.4,14.6,45,34,1,12.1,14.5,12.5,17.3,4.6C103.3,170,101.7,146.7,89.5,126.5Z"/><path class="cls-2" d="M311.5,26.9C194.9-92.8,68.2,219.8,35.7,320.8S140.6,438.1,233,456.2c147.6,28.8,215.2-27,226.7-94.2S428.1,146.7,311.5,26.9Z"/><path class="cls-3" d="M386.9,175.8C325,186.6,282.7,128,254.2,91.9c-22.4-28.4-116.5-75.1-175,8.7-53,76-31.1,189.1,52.3,246.4S342,399,420.9,363.5c49.9-22.4,112.9-64.1,120.7-123.3C550.2,175.4,481.9,159.3,386.9,175.8Z"/><path class="cls-4" d="M397.7,68.5c-2.5-.1-5-.1-7.6-.1-41.1,0-92.8,10.3-129.7,22.4L255,92.6c1.1,1.4,2.3,2.9,3.5,4.4,1.3-.4,2.5-.8,3.8-1.3,41-13.5,91.2-22.1,127.9-22.1,2.5,0,5,0,7.4.1,17.3.6,30.3,6.3,37.5,16.5,8.6,12.2,8.6,30.8-.1,52.2-3.9,9.7-7.2,18.9-9.9,28-11,36.6-13.6,72.1-14.2,134.2-.1,14.2,0,27.3.1,40,.1,8,.1,15.5.1,22.8,0,44.1-2.7,74.5-23,94.1-15.8,15.2-34.3,23.3-53.6,23.3-21.2,0-42.9-9.5-64.3-28.3C222.8,415,164,386,104.6,374.7c-45.6-8.7-81.4-17-93.8-36.9-6.7-10.9-6.7-25.6,0-45,6.3-18.1,18.4-43.1,41.9-70.5-.4-2.4-.7-4.8-1-7.1-23.6,26.5-38.1,52.7-46.2,76-21.7,62.6,25.1,74.8,97.9,88.7,58.6,11.2,115.8,39.3,162.8,80.5,24,21,47.1,29.7,68.1,29.7,22.1,0,41.8-9.7,57.6-24.9,22.1-21.4,24.6-53.8,24.6-100.1,0-18-.4-38.1-.2-60.4.6-64.3,3.4-98.8,14.5-134.7,2.6-8.3,5.7-16.8,9.2-25.6C458.1,99.7,439.9,69.9,397.7,68.5Z"/><path class="cls-5" d="M459.8,308.7c-35.5-38.4-76.5-14-105.7,29.4-27.1,40.3-10.6,87.6,33.3,58.4,38.3-25.4,61.6-18,78.7-35.1C489,338.7,459.8,308.7,459.8,308.7Z"/><path class="cls-6" d="M72.6,47.7a1.32,1.32,0,0,1-1.3-1.3V38.3a1.3,1.3,0,1,1,2.6,0v8.1A1.4,1.4,0,0,1,72.6,47.7Z"/><path class="cls-7" d="M72.6,27a1.32,1.32,0,0,1-1.3-1.3V17.6a1.3,1.3,0,1,1,2.6,0v8.1A1.32,1.32,0,0,1,72.6,27Z"/><path class="cls-8" d="M85.3,40.3l-7.1-3.8a1.13,1.13,0,0,1-.5-1.7,1.54,1.54,0,0,1,1.9-.5l7.1,3.8a1.13,1.13,0,0,1,.5,1.7A1.54,1.54,0,0,1,85.3,40.3Z"/><path class="cls-9" d="M65.6,29.5l-7.1-3.8A1.13,1.13,0,0,1,58,24a1.54,1.54,0,0,1,1.9-.5L67,27.3a1.13,1.13,0,0,1,.5,1.7A1.57,1.57,0,0,1,65.6,29.5Z"/><path class="cls-10" d="M57.9,39.8a1.13,1.13,0,0,1,.5-1.7l7.1-3.8a1.54,1.54,0,0,1,1.9.5,1.13,1.13,0,0,1-.5,1.7l-7.1,3.8A1.54,1.54,0,0,1,57.9,39.8Z"/><path class="cls-11" d="M77.7,29a1.13,1.13,0,0,1,.5-1.7l7.1-3.8a1.54,1.54,0,0,1,1.9.5,1.13,1.13,0,0,1-.5,1.7l-7.1,3.8A1.54,1.54,0,0,1,77.7,29Z"/><path class="cls-12" d="M210.1,79.1a1.32,1.32,0,0,1-1.3-1.3V69.7a1.3,1.3,0,0,1,2.6,0v8.1A1.21,1.21,0,0,1,210.1,79.1Z"/><path class="cls-13" d="M210.1,58.4a1.32,1.32,0,0,1-1.3-1.3V49a1.3,1.3,0,0,1,2.6,0v8.1A1.21,1.21,0,0,1,210.1,58.4Z"/><path class="cls-14" d="M202.9,64.7h-8.1a1.3,1.3,0,0,1,0-2.6h8.1a1.32,1.32,0,0,1,1.3,1.3A1.21,1.21,0,0,1,202.9,64.7Z"/><path class="cls-15" d="M225.4,64.7h-8.1a1.3,1.3,0,0,1,0-2.6h8.1a1.32,1.32,0,0,1,1.3,1.3A1.21,1.21,0,0,1,225.4,64.7Z"/><path class="cls-16" d="M73,428a17.92,17.92,0,0,1-17-11.7,1.27,1.27,0,0,1,1-1.7,1.31,1.31,0,0,1,1.6.8,15.42,15.42,0,0,0,28.8,0,1.38,1.38,0,0,1,2.6.9A18.06,18.06,0,0,1,73,428Z"/><path class="cls-17" d="M89.1,407.2a1.31,1.31,0,0,1-1.6-.8,15.42,15.42,0,0,0-28.8,0,1.38,1.38,0,0,1-2.6-.9,18.2,18.2,0,0,1,34,0A1.45,1.45,0,0,1,89.1,407.2Z"/><path class="cls-18" d="M346.8,284.1a1.32,1.32,0,0,1-1.3-1.3v-8.1a1.3,1.3,0,0,1,2.6,0v8.1A1.32,1.32,0,0,1,346.8,284.1Z"/><path class="cls-19" d="M346.8,263.4a1.32,1.32,0,0,1-1.3-1.3V254a1.3,1.3,0,0,1,2.6,0v8.1A1.32,1.32,0,0,1,346.8,263.4Z"/><path class="cls-20" d="M359.6,276.8l-7.1-3.8a1.13,1.13,0,0,1-.5-1.7,1.54,1.54,0,0,1,1.9-.5l7.1,3.8a1.13,1.13,0,0,1,.5,1.7A1.57,1.57,0,0,1,359.6,276.8Z"/><path class="cls-21" d="M339.8,266l-7.1-3.8a1.13,1.13,0,0,1-.5-1.7,1.54,1.54,0,0,1,1.9-.5l7.1,3.8a1.13,1.13,0,0,1,.5,1.7A1.57,1.57,0,0,1,339.8,266Z"/><path class="cls-22" d="M332.1,276.3a1.13,1.13,0,0,1,.5-1.7l7.1-3.8a1.54,1.54,0,0,1,1.9.5,1.13,1.13,0,0,1-.5,1.7l-7.1,3.8A1.57,1.57,0,0,1,332.1,276.3Z"/><path class="cls-23" d="M351.9,265.5a1.13,1.13,0,0,1,.5-1.7l7.1-3.8a1.54,1.54,0,0,1,1.9.5,1.13,1.13,0,0,1-.5,1.7l-7.1,3.8A1.54,1.54,0,0,1,351.9,265.5Z"/><path class="cls-24" d="M475.4,416.3a1.32,1.32,0,0,1-1.3-1.3v-8.1a1.3,1.3,0,0,1,2.6,0V415A1.32,1.32,0,0,1,475.4,416.3Z"/><path class="cls-25" d="M475.4,395.6a1.32,1.32,0,0,1-1.3-1.3v-8.1a1.3,1.3,0,0,1,2.6,0v8.1A1.32,1.32,0,0,1,475.4,395.6Z"/><path class="cls-26" d="M468.2,401.9h-8.1a1.3,1.3,0,0,1,0-2.6h8.1a1.3,1.3,0,1,1,0,2.6Z"/><path class="cls-27" d="M490.6,401.9h-8.1a1.3,1.3,0,0,1,0-2.6h8.1a1.32,1.32,0,0,1,1.3,1.3A1.21,1.21,0,0,1,490.6,401.9Z"/><path class="cls-28" d="M497.4,238.3a17.92,17.92,0,0,1-17-11.7,1.27,1.27,0,0,1,1-1.7,1.31,1.31,0,0,1,1.6.8,15.42,15.42,0,0,0,28.8,0,1.38,1.38,0,0,1,2.6.9A18.06,18.06,0,0,1,497.4,238.3Z"/><path class="cls-29" d="M513.4,217.5a1.31,1.31,0,0,1-1.6-.8,15.42,15.42,0,0,0-28.8,0,1.38,1.38,0,0,1-2.6-.9,18.2,18.2,0,0,1,34,0A1.3,1.3,0,0,1,513.4,217.5Z"/><path class="cls-30" d="M306.11,201.65c2,0,3.55-1.25,5.28-2,17.11-7,35-9.86,53.35-9.7a8.21,8.21,0,0,1,8.4,8.3c.08,2.08-.88,4.76.42,6.09s4,.45,6.07.61c7.48.6,10,3.28,10,10.79,0,4.44,0,4.4,4.56,5.07,8,1.17,12.11,1.63,12,13.74-.26,40.76-.1,81.52-.1,122.28,0,6.7-3.93,10.07-10.58,9.12l-6-.9c-25.73-3.67-51.44-4.13-77.06.86-12.79,2.49-25.2,6.2-36.85,12.15a8.76,8.76,0,0,1-8.4,0c-17.92-9-37.13-13.15-56.94-15-21.3-1.94-42.43-.48-63.48,2.92-5.71.92-10-2.64-10-8.37q0-63.75,0-127.51c0-4.54,2.51-7.51,7.05-8.46,2.59-.54,5.21-1,7.85-1.31,1.32-.15,1.66-.65,1.6-1.9-.1-1.73-.08-3.48,0-5.21a8,8,0,0,1,7.25-8c2.54-.32,5.11-.42,7.67-.49,1.18,0,1.62-.42,1.57-1.61-.08-1.64-.06-3.29,0-4.94a8.56,8.56,0,0,1,2.67-6.2,9.12,9.12,0,0,1,5.7-2.11c10-.67,29.49,5.39,39.83,8,8.44,2.11,16,3.19,17.29,3.38l1.47.21,0,.05a1.41,1.41,0,0,0,.2.3,1.64,1.64,0,0,0,.34.29,66.07,66.07,0,0,1,7.18,10.37c-.67-.41-1.64-1-2.84-1.65-8.87-4.93-15-6.25-28.89-10,0,0-8.21-2.21-33.17-5.44-.71-.09-2.51-.29-3.56.76-.61.61-.77,1.68-.77,3.5V325c0,3.59.59,4.16,4.1,4.21a157.24,157.24,0,0,1,30.52,3.2c15.84,3.36,30.6,9.17,43.47,19.24a82.88,82.88,0,0,1,15.35,16V272.57h5.48V367.7a83,83,0,0,1,31.38-26c18.3-8.9,37.82-12.13,58-12.46,3.42-.06,4.1-.65,4.1-3.94V199.46c0-3.29-.71-4-4.07-4-23.2.07-45.19,4.73-65.16,17.11,2-3.79,4.67-7.06,7.07-10.55a.61.61,0,0,1,.24-.3A.66.66,0,0,1,306.11,201.65ZM252.49,359.16c.29.15.59.39.82,0,0-.06-.3-.29-.46-.45a59.9,59.9,0,0,0-14.51-10.21c-18.23-9.81-38-13.33-58.44-13.73-7.28-.15-10.13-2.91-10.13-10.14V216.35c0-6.35,0-6.35-6.37-5.83-4.27.35-4.62.72-4.62,5V337.78c0,6.93.16,6.91,7.13,6.55C195.87,342.77,225.14,345.39,252.49,359.16Zm-1.12,6.41c-.5-.76-.56-1-.69-1.05-.64-.36-1.29-.69-1.94-1a121.58,121.58,0,0,0-35.07-11.31c-16.59-2.9-33.29-3.31-50.07-2.27-7.13.44-10.32-2.75-10.32-9.87q0-54,0-108c0-2,.69-4.85-.34-5.81-1.28-1.2-3.88.26-5.92.52-.54.07-1.09.1-1.63.19-2.14.33-3.11,1.47-3.11,3.73q0,63.19,0,126.37c0,3,1.11,3.94,4.08,3.49,8.78-1.33,17.57-2.48,26.43-3.11a220.83,220.83,0,0,1,62,3.78C240.22,362.4,245.55,363.93,251.37,365.57Zm39.69-.39c.61.11.89.25,1.12.19,1-.23,1.94-.5,2.91-.79a193.61,193.61,0,0,1,46.17-7.52,263.52,263.52,0,0,1,53.89,3.32c4.87.77,5.46.19,5.46-4.66q0-60,0-120.06c0-8.82,1.34-7.92-8.2-9.53-2.41-.41-2.83,0-2.82,2.38q.12,48.08.05,96.15c0,5.68.06,11.36,0,17a8.09,8.09,0,0,1-8.39,8.27c-1.82,0-3.65-.18-5.48-.26-20.59-1-41,.16-60.94,5.77A106.49,106.49,0,0,0,291.06,365.18Zm-.57-6.49c1,.43,1.61-.31,2.28-.64a121.35,121.35,0,0,1,27.88-9.72c19.26-4.34,38.76-5.17,58.41-3.93,4.54.29,5.06-.28,5.06-4.84V217.86c0-7.21,0-7.21-7.22-7.47-3.77-.14-3.77-.14-3.77,3.62q0,55.62,0,111.26c0,6.32-3.08,9.38-9.42,9.46a150.06,150.06,0,0,0-24,2.09c-17.26,3-33.41,8.66-47.3,19.73C291.64,357.14,290.57,357.48,290.49,358.69Zm-.82.29.19.34c.07-.06.19-.14.18-.18a1.35,1.35,0,0,0-.18-.36Z"/><path class="cls-30" d="M305.47,202c-2.4,3.49-5.12,6.76-7.07,10.55A24.56,24.56,0,0,0,294,225.08c-.59,7.68-.16,15.38-.27,23.06-.18,13.34-6.73,21.56-19.51,24.43h-5.48c-12.77-2.86-19.34-11.09-19.51-24.44-.1-7.59.3-15.2-.25-22.79a24.93,24.93,0,0,0-4.45-12.77,66.07,66.07,0,0,0-7.18-10.37,1.54,1.54,0,0,1-.27-.22,2,2,0,0,1-.21-.25,2.54,2.54,0,0,0-.16-.28,41.86,41.86,0,0,1-3.7-8.92,45.07,45.07,0,0,1,1.31-27.48c1.28-3.47,9-22.88,27.8-27.41,21.32-5.12,42.9,11.85,47.73,28.47a45.49,45.49,0,0,1,1.42,20.35c-.35,2.08-2.26,7.46-4.52,13.21-.31.77-.56,1.4-.74,1.83a.51.51,0,0,1-.05.12l-.07.09C305.8,201.77,305.66,201.89,305.47,202Zm-36.77.16c0-7.33,0-14.66,0-22,0-2.08.17-4.13,2.82-4.08s2.77,2.15,2.7,4.19c0,.64,0,1.29,0,1.93,0,14,.05,28,0,42,0,2,.47,2.71,2.56,2.58a85.59,85.59,0,0,1,9.34,0c1.84.09,2.33-.62,2.43-2.33a31.29,31.29,0,0,1,3.12-11.3c2.08-4.43,5.06-8.26,7.83-12.24,6.82-9.82,8.26-20.6,5.47-32C300,149.19,280,137.53,261.4,143.55c-17.79,5.76-28.15,25.35-23.74,44.64,1.47,6.44,5,11.75,8.71,16.95,4.36,6,7.66,12.47,8.11,20.07.07,1.35.72,1.65,1.93,1.63,3.39-.05,6.78-.1,10.16,0,1.69.06,2.19-.42,2.17-2.14C268.65,217.22,268.7,209.71,268.7,202.2Zm3,30.13c-4.94,0-9.89,0-14.83,0-1.24,0-2.09.07-2,1.7.1,3.76.06,7.51,0,11.27,0,1.28.44,1.77,1.76,1.77q14.83-.06,29.66,0c1.44,0,1.93-.49,1.91-1.91-.07-3.57-.11-7.14,0-10.71.06-1.72-.52-2.18-2.19-2.14C281.18,232.4,276.42,232.33,271.66,232.33Zm-.37,34.75a16.72,16.72,0,0,0,16.24-12.7c.29-1.24.34-1.85-1.22-1.84q-14.83.06-29.67,0c-1.46,0-1.6.45-1.29,1.79A16.76,16.76,0,0,0,271.29,267.08Z"/><path class="cls-30" d="M212.79,176c1.91,0,3.83,0,5.74,0s3.37.73,3.36,2.79-1.44,2.8-3.32,2.81c-3.93,0-7.85,0-11.77,0-1.86,0-3.36-.75-3.37-2.78s1.49-2.78,3.33-2.82C208.77,175.94,210.78,176,212.79,176Z"/><path class="cls-30" d="M330,181.58c-2,0-4,0-6,0-1.78-.07-3-1-3-2.86a2.64,2.64,0,0,1,2.89-2.67q6.3-.12,12.59,0c1.76,0,3.06,1,3,2.85s-1.42,2.66-3.18,2.7C334.21,181.61,332.11,181.58,330,181.58Z"/><path class="cls-30" d="M274.2,120.25c0,2,0,4,0,6s-1,3-2.86,2.93a2.58,2.58,0,0,1-2.62-2.89c0-4.19,0-8.38,0-12.57,0-1.83.94-3,2.86-2.9,1.77,0,2.59,1.18,2.62,2.86C274.23,115.88,274.2,118.07,274.2,120.25Z"/><path class="cls-30" d="M237.27,141.62a2.81,2.81,0,0,1-1.46,2.56,2.54,2.54,0,0,1-3.06-.31c-3.24-3.19-6.48-6.39-9.63-9.68a2.38,2.38,0,0,1,.2-3.46,2.31,2.31,0,0,1,3.22-.48,95.44,95.44,0,0,1,10.37,10.43A3,3,0,0,1,237.27,141.62Z"/><path class="cls-30" d="M320.36,132.66a3.31,3.31,0,0,1-1.24,2.34c-2.77,2.77-5.55,5.53-8.31,8.31-1.35,1.35-2.86,1.8-4.31.39s-.9-3,.43-4.28l8.5-8.51a2.81,2.81,0,0,1,3.47-.7A2.56,2.56,0,0,1,320.36,132.66Z"/><path class="cls-30" d="M191.58,254.84c21.36,1.89,41.57,7.22,59.27,20,1.33,1,2.59,2,3.89,3,1.66,1.28,3.47,2.7,1.61,4.91-1.71,2-3.43.74-5-.56a84.67,84.67,0,0,0-22.58-13.35,124.41,124.41,0,0,0-37.28-8.52l-1.09-.07c-1.91-.15-3.61-.79-3.47-3s1.84-2.7,3.81-2.47C191,254.82,191.31,254.82,191.58,254.84Z"/><path class="cls-30" d="M190.33,306.09c23.44,2.06,45.44,7.93,64.14,23,.5.4,1,.8,1.48,1.23,1.26,1.15,1.59,2.52.47,3.88a2.62,2.62,0,0,1-3.91.36c-1.46-1.1-2.85-2.29-4.32-3.38-13.54-10.05-29-15.33-45.44-18-4.24-.69-8.53-1.1-12.81-1.55-1.82-.19-3.07-1-3-2.86S188.49,306,190.33,306.09Z"/><path class="cls-30" d="M191.47,271.92c23.25,2.17,45.12,8.17,63.61,23.36.86.71,1.78,1.37,1.95,2.55a2.6,2.6,0,0,1-1.41,2.74c-1.35.82-2.47.26-3.5-.61a83.2,83.2,0,0,0-12.37-8.62c-13.42-7.62-28-11.52-43.2-13.36-1.81-.22-3.64-.44-5.46-.53-2.06-.1-4.19-.37-4.12-2.92C187.05,271.72,189.32,271.71,191.47,271.92Z"/><path class="cls-30" d="M190,288.91c23.92,2.17,45.65,8,64.17,22.8.43.34.84.71,1.27,1.05,1.45,1.15,2.32,2.53,1,4.22s-3,1.27-4.53,0c-11.45-9.61-24.75-15.41-39.14-18.95a136.65,136.65,0,0,0-22.21-3.47c-2.08-.17-3.81-.75-3.59-3.11A2.6,2.6,0,0,1,190,288.91Z"/><path class="cls-30" d="M189.69,237.5c19.55,1.57,37.7,5.87,54.26,15.65a11.32,11.32,0,0,1,1.62,1,2.48,2.48,0,0,1,.75,3.4,2.52,2.52,0,0,1-3.5,1.18c-1.48-.69-2.87-1.59-4.31-2.38-12.67-6.92-26.31-10.69-40.55-12.48-2.72-.34-5.45-.59-8.17-.88-1.81-.19-3-1.12-2.84-3A2.6,2.6,0,0,1,189.69,237.5Z"/><path class="cls-30" d="M190.42,220.38c18.61,1.54,36.44,5.73,52.77,15.17a5.37,5.37,0,0,1,2.36,1.82,2.57,2.57,0,0,1-.28,3.07,2.5,2.5,0,0,1-3.21.72c-1.39-.68-2.72-1.51-4.09-2.24-13.83-7.39-28.72-11.11-44.23-12.66-1.27-.12-2.54-.32-3.82-.4-1.84-.11-3.07-1-3-2.87C187.06,221,188.52,220.26,190.42,220.38Z"/><path class="cls-30" d="M356,257.37c-.27,2.37-2,2.81-3.93,2.94a129.16,129.16,0,0,0-23.53,3.82c-13.71,3.54-26.38,9.2-37.35,18.33-.84.71-1.71,1.47-2.91,1.31a2.69,2.69,0,0,1-2.37-2c-.42-1.46.41-2.41,1.45-3.28a86.14,86.14,0,0,1,16.42-10.91c15.13-7.74,31.32-11.53,48.18-12.79C354.06,254.63,355.65,255,356,257.37Z"/><path class="cls-30" d="M352.28,306.14c1.88-.22,3.44.42,3.65,2.4.23,2.18-1.27,2.93-3.3,3.1a133,133,0,0,0-34,7,89.51,89.51,0,0,0-26.31,14.45c-.36.28-.73.56-1.07.86-1.53,1.36-3.23,2.12-4.75.23s-.15-3.32,1.35-4.58a89.76,89.76,0,0,1,19.94-12.49C321.89,310.58,336.84,307.36,352.28,306.14Z"/><path class="cls-30" d="M356,274.63c-.4,2.2-1.91,2.66-3.82,2.8a128.52,128.52,0,0,0-32.46,6.48,89.21,89.21,0,0,0-28.23,15.46c-.35.29-.71.58-1.07.85-1.38,1-2.77,1.06-3.91-.26-1.26-1.48-.83-2.89.55-4.07A85,85,0,0,1,301.54,286c15.77-8.64,32.82-12.66,50.61-14.06C354.29,271.73,355.74,272.33,356,274.63Z"/><path class="cls-30" d="M352.2,289c1.87-.24,3.66.3,3.74,2.65.08,2.18-1.6,2.72-3.57,2.88-18.91,1.6-37,6-53.17,16.41-2.76,1.77-5.36,3.82-8,5.84-1.6,1.24-3.2,2.15-4.75.23s-.19-3.32,1.32-4.58C300.26,302.1,314.7,296,330.3,292.31A149.74,149.74,0,0,1,352.2,289Z"/><path class="cls-30" d="M356,240.29c-.23,1.88-1.44,2.63-3.18,2.77A147.21,147.21,0,0,0,337.62,245c-12.64,2.36-24.73,6.28-35.86,12.88l-.94.55c-1.66.93-3.22.95-4.23-.87s-.08-2.92,1.43-3.84a98.56,98.56,0,0,1,14.42-7.22,132.89,132.89,0,0,1,39.92-8.91C354.56,237.41,356,238.54,356,240.29Z"/><path class="cls-30" d="M353.57,220.33A2.54,2.54,0,0,1,356,223c.1,1.85-1.1,2.74-2.94,2.9a144.13,144.13,0,0,0-27.5,4.81,103,103,0,0,0-22.95,9.57c-.48.28-.93.59-1.43.82-1.54.69-2.93.49-3.78-1.05a2.56,2.56,0,0,1,1.16-3.74c2.95-1.64,5.89-3.31,8.95-4.74C321.8,224.81,337,221.59,353.57,220.33Z"/></svg>