<svg id="Layer_1" data-name="Layer 1" xmlns="http://www.w3.org/2000/svg" xmlns:xlink="http://www.w3.org/1999/xlink" viewBox="0 0 543 490"><defs><style>.cls-1{fill:url(#linear-gradient);}.cls-2{fill:#2a2a8c;}.cls-3{fill:url(#linear-gradient-2);}.cls-4{opacity:0.9;fill:url(#linear-gradient-3);}.cls-5{fill:url(#linear-gradient-4);}.cls-6{fill:url(#linear-gradient-5);}.cls-7{fill:url(#linear-gradient-6);}.cls-8{fill:url(#linear-gradient-7);}.cls-9{fill:url(#linear-gradient-8);}.cls-10{fill:url(#linear-gradient-9);}.cls-11{fill:url(#linear-gradient-10);}.cls-12,.cls-13,.cls-14,.cls-15,.cls-18,.cls-19,.cls-20,.cls-21,.cls-22,.cls-23,.cls-28,.cls-29{fill-opacity:0.2;}.cls-12{fill:url(#linear-gradient-11);}.cls-13{fill:url(#linear-gradient-12);}.cls-14{fill:url(#linear-gradient-13);}.cls-15{fill:url(#linear-gradient-14);}.cls-16{fill:url(#linear-gradient-15);}.cls-17{fill:url(#linear-gradient-16);}.cls-18{fill:url(#linear-gradient-17);}.cls-19{fill:url(#linear-gradient-18);}.cls-20{fill:url(#linear-gradient-19);}.cls-21{fill:url(#linear-gradient-20);}.cls-22{fill:url(#linear-gradient-21);}.cls-23{fill:url(#linear-gradient-22);}.cls-24{fill:url(#linear-gradient-23);}.cls-25{fill:url(#linear-gradient-24);}.cls-26{fill:url(#linear-gradient-25);}.cls-27{fill:url(#linear-gradient-26);}.cls-28{fill:url(#linear-gradient-27);}.cls-29{fill:url(#linear-gradient-28);}.cls-30{fill:none;stroke:#39ffff;stroke-miterlimit:10;stroke-width:2px;}</style><linearGradient id="linear-gradient" x1="0.21" y1="137.11" x2="100.9" y2="137.11" gradientUnits="userSpaceOnUse"><stop offset="0.04" stop-color="#3a3adb"/><stop offset="0.99" stop-color="#2a2a8c"/></linearGradient><linearGradient id="linear-gradient-2" x1="50.45" y1="221.61" x2="542.33" y2="221.61" gradientUnits="userSpaceOnUse"><stop offset="0.04" stop-color="#3a3adb"/><stop offset="0.77" stop-color="#2a2a8c"/></linearGradient><linearGradient id="linear-gradient-3" x1="0.16" y1="279.25" x2="446.97" y2="279.25" gradientUnits="userSpaceOnUse"><stop offset="0.04" stop-color="#3a3adb"/><stop offset="0.99" stop-color="#2a47c9"/></linearGradient><linearGradient id="linear-gradient-4" x1="340.93" y1="347.57" x2="474.87" y2="347.57" xlink:href="#linear-gradient"/><linearGradient id="linear-gradient-5" x1="71.3" y1="42.35" x2="73.9" y2="42.35" xlink:href="#linear-gradient"/><linearGradient id="linear-gradient-6" x1="71.3" y1="21.65" x2="73.9" y2="21.65" xlink:href="#linear-gradient"/><linearGradient id="linear-gradient-7" x1="77.5" y1="37.3" x2="87.4" y2="37.3" xlink:href="#linear-gradient"/><linearGradient id="linear-gradient-8" x1="57.8" y1="26.5" x2="67.7" y2="26.5" xlink:href="#linear-gradient"/><linearGradient id="linear-gradient-9" x1="57.7" y1="37.3" x2="67.6" y2="37.3" xlink:href="#linear-gradient"/><linearGradient id="linear-gradient-10" x1="77.5" y1="26.5" x2="87.4" y2="26.5" xlink:href="#linear-gradient"/><linearGradient id="linear-gradient-11" x1="208.8" y1="73.75" x2="211.41" y2="73.75" xlink:href="#linear-gradient"/><linearGradient id="linear-gradient-12" x1="208.8" y1="53.05" x2="211.41" y2="53.05" xlink:href="#linear-gradient"/><linearGradient id="linear-gradient-13" x1="193.5" y1="63.4" x2="204.21" y2="63.4" xlink:href="#linear-gradient"/><linearGradient id="linear-gradient-14" x1="216" y1="63.4" x2="226.71" y2="63.4" xlink:href="#linear-gradient"/><linearGradient id="linear-gradient-15" x1="55.91" y1="421.27" x2="90.05" y2="421.27" xlink:href="#linear-gradient"/><linearGradient id="linear-gradient-16" x1="56.05" y1="400.53" x2="90.14" y2="400.53" xlink:href="#linear-gradient"/><linearGradient id="linear-gradient-17" x1="345.5" y1="278.75" x2="348.1" y2="278.75" xlink:href="#linear-gradient-3"/><linearGradient id="linear-gradient-18" x1="345.5" y1="258.05" x2="348.1" y2="258.05" xlink:href="#linear-gradient-3"/><linearGradient id="linear-gradient-19" x1="351.8" y1="273.8" x2="361.7" y2="273.8" xlink:href="#linear-gradient-3"/><linearGradient id="linear-gradient-20" x1="332" y1="263" x2="341.9" y2="263" xlink:href="#linear-gradient-3"/><linearGradient id="linear-gradient-21" x1="331.9" y1="273.8" x2="341.8" y2="273.8" xlink:href="#linear-gradient-3"/><linearGradient id="linear-gradient-22" x1="351.7" y1="263" x2="361.6" y2="263" xlink:href="#linear-gradient-3"/><linearGradient id="linear-gradient-23" x1="474.1" y1="410.95" x2="476.7" y2="410.95" xlink:href="#linear-gradient"/><linearGradient id="linear-gradient-24" x1="474.1" y1="390.25" x2="476.7" y2="390.25" xlink:href="#linear-gradient"/><linearGradient id="linear-gradient-25" x1="458.8" y1="400.6" x2="469.5" y2="400.6" xlink:href="#linear-gradient"/><linearGradient id="linear-gradient-26" x1="481.2" y1="400.6" x2="491.91" y2="400.6" xlink:href="#linear-gradient"/><linearGradient id="linear-gradient-27" x1="480.31" y1="231.57" x2="514.45" y2="231.57" gradientUnits="userSpaceOnUse"><stop offset="0.04" stop-color="#3a3adb"/><stop offset="0.99" stop-color="#2a4b8c"/></linearGradient><linearGradient id="linear-gradient-28" x1="480.35" y1="210.83" x2="514.49" y2="210.83" xlink:href="#linear-gradient-27"/></defs><path class="cls-1" d="M89.5,126.5C79,109.2,68,97.8,50.6,89.7s-39.1-8.2-48,11.2,8.6,43.5,33.2,44.9c28.3,1.5,43.4,14.6,45,34,1,12.1,14.5,12.5,17.3,4.6C103.3,170,101.7,146.7,89.5,126.5Z"/><path class="cls-2" d="M311.5,26.9C194.9-92.8,68.2,219.8,35.7,320.8S140.6,438.1,233,456.2c147.6,28.8,215.2-27,226.7-94.2S428.1,146.7,311.5,26.9Z"/><path class="cls-3" d="M386.9,175.8C325,186.6,282.7,128,254.2,91.9c-22.4-28.4-116.5-75.1-175,8.7-53,76-31.1,189.1,52.3,246.4S342,399,420.9,363.5c49.9-22.4,112.9-64.1,120.7-123.3C550.2,175.4,481.9,159.3,386.9,175.8Z"/><path class="cls-4" d="M397.7,68.5c-2.5-.1-5-.1-7.6-.1-41.1,0-92.8,10.3-129.7,22.4L255,92.6c1.1,1.4,2.3,2.9,3.5,4.4,1.3-.4,2.5-.8,3.8-1.3,41-13.5,91.2-22.1,127.9-22.1,2.5,0,5,0,7.4.1,17.3.6,30.3,6.3,37.5,16.5,8.6,12.2,8.6,30.8-.1,52.2-3.9,9.7-7.2,18.9-9.9,28-11,36.6-13.6,72.1-14.2,134.2-.1,14.2,0,27.3.1,40,.1,8,.1,15.5.1,22.8,0,44.1-2.7,74.5-23,94.1-15.8,15.2-34.3,23.3-53.6,23.3-21.2,0-42.9-9.5-64.3-28.3C222.8,415,164,386,104.6,374.7c-45.6-8.7-81.4-17-93.8-36.9-6.7-10.9-6.7-25.6,0-45,6.3-18.1,18.4-43.1,41.9-70.5-.4-2.4-.7-4.8-1-7.1-23.6,26.5-38.1,52.7-46.2,76-21.7,62.6,25.1,74.8,97.9,88.7,58.6,11.2,115.8,39.3,162.8,80.5,24,21,47.1,29.7,68.1,29.7,22.1,0,41.8-9.7,57.6-24.9,22.1-21.4,24.6-53.8,24.6-100.1,0-18-.4-38.1-.2-60.4.6-64.3,3.4-98.8,14.5-134.7,2.6-8.3,5.7-16.8,9.2-25.6C458.1,99.7,439.9,69.9,397.7,68.5Z"/><path class="cls-5" d="M459.8,308.7c-35.5-38.4-76.5-14-105.7,29.4-27.1,40.3-10.6,87.6,33.3,58.4,38.3-25.4,61.6-18,78.7-35.1C489,338.7,459.8,308.7,459.8,308.7Z"/><path class="cls-6" d="M72.6,47.7a1.32,1.32,0,0,1-1.3-1.3V38.3a1.3,1.3,0,1,1,2.6,0v8.1A1.4,1.4,0,0,1,72.6,47.7Z"/><path class="cls-7" d="M72.6,27a1.32,1.32,0,0,1-1.3-1.3V17.6a1.3,1.3,0,1,1,2.6,0v8.1A1.32,1.32,0,0,1,72.6,27Z"/><path class="cls-8" d="M85.3,40.3l-7.1-3.8a1.13,1.13,0,0,1-.5-1.7,1.54,1.54,0,0,1,1.9-.5l7.1,3.8a1.13,1.13,0,0,1,.5,1.7A1.54,1.54,0,0,1,85.3,40.3Z"/><path class="cls-9" d="M65.6,29.5l-7.1-3.8A1.13,1.13,0,0,1,58,24a1.54,1.54,0,0,1,1.9-.5L67,27.3a1.13,1.13,0,0,1,.5,1.7A1.57,1.57,0,0,1,65.6,29.5Z"/><path class="cls-10" d="M57.9,39.8a1.13,1.13,0,0,1,.5-1.7l7.1-3.8a1.54,1.54,0,0,1,1.9.5,1.13,1.13,0,0,1-.5,1.7l-7.1,3.8A1.54,1.54,0,0,1,57.9,39.8Z"/><path class="cls-11" d="M77.7,29a1.13,1.13,0,0,1,.5-1.7l7.1-3.8a1.54,1.54,0,0,1,1.9.5,1.13,1.13,0,0,1-.5,1.7l-7.1,3.8A1.54,1.54,0,0,1,77.7,29Z"/><path class="cls-12" d="M210.1,79.1a1.32,1.32,0,0,1-1.3-1.3V69.7a1.3,1.3,0,0,1,2.6,0v8.1A1.21,1.21,0,0,1,210.1,79.1Z"/><path class="cls-13" d="M210.1,58.4a1.32,1.32,0,0,1-1.3-1.3V49a1.3,1.3,0,0,1,2.6,0v8.1A1.21,1.21,0,0,1,210.1,58.4Z"/><path class="cls-14" d="M202.9,64.7h-8.1a1.3,1.3,0,0,1,0-2.6h8.1a1.32,1.32,0,0,1,1.3,1.3A1.21,1.21,0,0,1,202.9,64.7Z"/><path class="cls-15" d="M225.4,64.7h-8.1a1.3,1.3,0,0,1,0-2.6h8.1a1.32,1.32,0,0,1,1.3,1.3A1.21,1.21,0,0,1,225.4,64.7Z"/><path class="cls-16" d="M73,428a17.92,17.92,0,0,1-17-11.7,1.27,1.27,0,0,1,1-1.7,1.31,1.31,0,0,1,1.6.8,15.42,15.42,0,0,0,28.8,0,1.38,1.38,0,0,1,2.6.9A18.06,18.06,0,0,1,73,428Z"/><path class="cls-17" d="M89.1,407.2a1.31,1.31,0,0,1-1.6-.8,15.42,15.42,0,0,0-28.8,0,1.38,1.38,0,0,1-2.6-.9,18.2,18.2,0,0,1,34,0A1.45,1.45,0,0,1,89.1,407.2Z"/><path class="cls-18" d="M346.8,284.1a1.32,1.32,0,0,1-1.3-1.3v-8.1a1.3,1.3,0,0,1,2.6,0v8.1A1.32,1.32,0,0,1,346.8,284.1Z"/><path class="cls-19" d="M346.8,263.4a1.32,1.32,0,0,1-1.3-1.3V254a1.3,1.3,0,0,1,2.6,0v8.1A1.32,1.32,0,0,1,346.8,263.4Z"/><path class="cls-20" d="M359.6,276.8l-7.1-3.8a1.13,1.13,0,0,1-.5-1.7,1.54,1.54,0,0,1,1.9-.5l7.1,3.8a1.13,1.13,0,0,1,.5,1.7A1.57,1.57,0,0,1,359.6,276.8Z"/><path class="cls-21" d="M339.8,266l-7.1-3.8a1.13,1.13,0,0,1-.5-1.7,1.54,1.54,0,0,1,1.9-.5l7.1,3.8a1.13,1.13,0,0,1,.5,1.7A1.57,1.57,0,0,1,339.8,266Z"/><path class="cls-22" d="M332.1,276.3a1.13,1.13,0,0,1,.5-1.7l7.1-3.8a1.54,1.54,0,0,1,1.9.5,1.13,1.13,0,0,1-.5,1.7l-7.1,3.8A1.57,1.57,0,0,1,332.1,276.3Z"/><path class="cls-23" d="M351.9,265.5a1.13,1.13,0,0,1,.5-1.7l7.1-3.8a1.54,1.54,0,0,1,1.9.5,1.13,1.13,0,0,1-.5,1.7l-7.1,3.8A1.54,1.54,0,0,1,351.9,265.5Z"/><path class="cls-24" d="M475.4,416.3a1.32,1.32,0,0,1-1.3-1.3v-8.1a1.3,1.3,0,0,1,2.6,0V415A1.32,1.32,0,0,1,475.4,416.3Z"/><path class="cls-25" d="M475.4,395.6a1.32,1.32,0,0,1-1.3-1.3v-8.1a1.3,1.3,0,0,1,2.6,0v8.1A1.32,1.32,0,0,1,475.4,395.6Z"/><path class="cls-26" d="M468.2,401.9h-8.1a1.3,1.3,0,0,1,0-2.6h8.1a1.3,1.3,0,1,1,0,2.6Z"/><path class="cls-27" d="M490.6,401.9h-8.1a1.3,1.3,0,0,1,0-2.6h8.1a1.32,1.32,0,0,1,1.3,1.3A1.21,1.21,0,0,1,490.6,401.9Z"/><path class="cls-28" d="M497.4,238.3a17.92,17.92,0,0,1-17-11.7,1.27,1.27,0,0,1,1-1.7,1.31,1.31,0,0,1,1.6.8,15.42,15.42,0,0,0,28.8,0,1.38,1.38,0,0,1,2.6.9A18.06,18.06,0,0,1,497.4,238.3Z"/><path class="cls-29" d="M513.4,217.5a1.31,1.31,0,0,1-1.6-.8,15.42,15.42,0,0,0-28.8,0,1.38,1.38,0,0,1-2.6-.9,18.2,18.2,0,0,1,34,0A1.3,1.3,0,0,1,513.4,217.5Z"/><path class="cls-30" d="M247.76,201.87c10.73,0,21.46,0,32.18,0,9,0,14.57,5.55,14.6,14.54,0,3.85.12,7.71,0,11.55-.08,1.89.59,2.22,2.3,2.2,10.17-.07,20.35,0,30.53,0,9,0,14.56,5.59,14.57,14.56q0,21.74,0,43.46c0,8.8-5.53,14.42-14.39,14.47-1.94,0-2.46.53-2.38,2.44.15,3.66,0,7.33,0,11,0,2.09-.68,3.88-2.7,4.68s-3.89.15-5.44-1.5c-4.67-4.92-9.45-9.74-14-14.72a5.49,5.49,0,0,0-4.53-1.89c-11.64.09-23.29.05-34.93,0-9.65,0-15.11-5.51-15.12-15.2,0-3.66-.11-7.34,0-11,.08-1.88-.62-2.13-2.32-2.28a7.85,7.85,0,0,0-7.12,3c-4.14,4.66-8.6,9-12.9,13.54-1.55,1.63-3.22,2.74-5.57,1.74s-2.79-2.94-2.77-5.19c0-3.67-.06-7.34,0-11,0-1.59-.51-2-2.05-2C206,274,201,268.83,201,259.06q0-21.31,0-42.63c0-9,5.48-14.53,14.55-14.55C226.31,201.85,237,201.87,247.76,201.87Zm68.61,102.75c0-1.69-.06-3.77,0-5.85.1-3.33,1.63-4.82,4.93-4.88,1.92,0,3.85,0,5.77,0,4.37,0,6-1.64,6-6q0-21.45,0-42.9c0-4.53-1.56-6.07-6.13-6.07H263.45c-4.71,0-6.24,1.53-6.24,6.26q0,21,0,42.07c0,5.09,1.49,6.59,6.52,6.6,12.46,0,24.93.05,37.4-.05a8,8,0,0,1,6.29,2.58C310.21,299.3,313.33,301.87,316.37,304.62ZM226.57,277c2.07-2,4.15-3.43,5.59-5.38,3.58-4.87,8.09-7.19,14.15-6.13,1.68.3,2.37-.34,2.11-2.07a7.31,7.31,0,0,1,0-2.19c.26-1.87-.36-2.5-2.35-2.46-6.87.13-13.75,0-20.62.06-2,0-3.61-.61-4.54-2.46-1.57-3.15.7-6.31,4.65-6.34,6.88,0,13.75,0,20.63,0,.72,0,2,.52,2.11-.54a17.42,17.42,0,0,0-.18-6.53c-.33-1.1-2.5-.4-3.82-.41-6.14-.06-12.28,0-18.42,0-3.45,0-5.5-1.73-5.47-4.43s2.1-4.29,5.57-4.36h1.65c7.24,0,14.48,0,21.72,0a8.56,8.56,0,0,0,5.64-1.52,11.8,11.8,0,0,1,7.28-2c6.87,0,13.75-.14,20.62.08,2.57.09,3-.76,2.9-3-.2-3.29-.05-6.6-.05-9.9,0-5.24-1.37-6.59-6.71-6.59q-13.75,0-27.5,0c-12,0-24,0-36,0-3.73,0-5.62,1.56-5.63,4.84q-.09,22.54,0,45.09c0,3,1.79,4.71,4.82,4.83,2.2.08,4.4,0,6.6,0,3.65.07,5.19,1.57,5.28,5.17C226.62,272.64,226.57,274.64,226.57,277Z"/><path class="cls-30" d="M255.22,152.22c-12.84-12.58-9.46-28.75-.81-36.89a24.85,24.85,0,0,1,34.1,0c8.71,8.19,12,24.33-.79,36.89a52.42,52.42,0,0,1,12.11,7.19,44.6,44.6,0,0,1,16.07,29.38c.39,2.91-1.33,5-4.27,5.24-.55,0-1.1,0-1.65,0H233c-4.88,0-6.47-1.85-5.68-6.61,2.7-16.25,11.62-27.72,26.58-34.53C254.28,152.73,254.67,152.5,255.22,152.22Zm16.23,33c10.82,0,21.64,0,32.46,0,1.66,0,2.46,0,1.8-2.19-4.37-14.49-18.62-25-34.22-25S241.61,168.56,237.25,183c-.62,2.05-.06,2.24,1.74,2.23C249.81,185.2,260.63,185.23,271.45,185.23Zm-.21-36a16,16,0,1,0-15.73-16A16,16,0,0,0,271.24,149.25Z"/><path class="cls-30" d="M379.61,339.62a44.82,44.82,0,0,1,28.2,36.05c.52,3.66-1.31,5.76-5.09,5.76q-39.33,0-78.64,0c-3.77,0-5.5-2.1-4.94-5.84,2.47-16.5,11.39-28.18,26.44-35.24l1.71-.81c-6.19-5.83-9.27-12.82-8.52-21.16a24.12,24.12,0,0,1,8.67-16.6,24.85,24.85,0,0,1,33.85,1.71C389.78,312.31,391.73,327.93,379.61,339.62Zm-51,32.88c.61.06,1,.12,1.3.12q33.15,0,66.28.05c1.89,0,2.05-.44,1.53-2.15-5.29-17.67-24.39-28.63-42.58-24C341.36,349.93,332.7,358.83,328.57,372.5Zm50.8-51.7a16,16,0,0,0-31.93-.27,16,16,0,1,0,31.93.27Z"/><path class="cls-30" d="M195.62,339.59a46.28,46.28,0,0,1,16.23,10.89A44.38,44.38,0,0,1,223.9,376.1c.41,3.22-1.52,5.31-5,5.33-7.88,0-15.76,0-23.65,0H141.08c-5,0-6.61-1.89-5.76-6.82,2.77-16.1,11.68-27.49,26.46-34.33.49-.23,1.07-.3,1.33-.88-12.3-11.84-9.79-28.08-.71-36.67a24.8,24.8,0,0,1,34.68.5C206.06,312.25,207.7,328.1,195.62,339.59Zm18.51,32.93c-3.22-15.75-18.75-27.39-35.59-27-19.25.44-31.7,15.56-33.59,27Zm-50.56-51.73a16,16,0,1,0,16-16.07A16,16,0,0,0,163.57,320.79Z"/><path class="cls-30" d="M198.9,161.08c-3.34.72-6.32,1.4-9.33,2s-5.13-.55-5.75-3.12.73-4.64,3.74-5.35c8.45-2,16.91-4,25.4-5.81,3.55-.77,6.1,1.84,5.52,5.46q-1.84,11.38-3.77,22.75c-.51,3-2.38,4.56-5.05,4.26s-3.95-2.29-3.7-5.42,1.51-6.17,1.06-9.43c-1.17,0-1.53.88-2,1.44q-37.84,41.64-36.85,97.9c0,2.57.37,5.12.45,7.69.08,2.92-1.73,5-4.28,5-2.38,0-4.26-1.86-4.5-4.63a139.88,139.88,0,0,1,.86-32.07,145.79,145.79,0,0,1,37.59-79.62A9.19,9.19,0,0,0,198.9,161.08Z"/><path class="cls-30" d="M373.13,256.46A136,136,0,0,0,369.24,225c-7.16-28.53-21.69-52.57-44-71.86a7.67,7.67,0,0,1-2.42-2.59,4.37,4.37,0,0,1,6.82-5.2,118.75,118.75,0,0,1,12,11.26c24.21,26,37.63,56.75,39.94,92.27.07,1.18.17,2.36.32,4.4,2.07-3.26,3.69-5.91,5.41-8.48s4.7-3.2,6.79-1.27a4.14,4.14,0,0,1,.76,5.71c-4.7,7.52-9.38,15.06-14.21,22.5-1.86,2.86-5.32,2.9-7.37.12-4.72-6.42-9.33-12.91-13.9-19.43a4.23,4.23,0,0,1,.94-6.27c2-1.4,4.56-.93,6.26,1.32C368.71,250.22,370.66,253,373.13,256.46Z"/><path class="cls-30" d="M233.89,348.44c2.31,2.51,4.36,4.72,6.37,6.95,2.15,2.41,2.24,5,.28,6.79s-4.54,1.52-6.74-.83q-8.52-9.17-17-18.37c-3-3.29-2.28-6.55,1.89-8.15,7-2.67,14-5.28,21-7.88,3-1.12,5.48-.23,6.42,2.22s-.23,4.82-3.23,6-6.14,2.31-9.73,3.65a82.08,82.08,0,0,0,13.33,2.93,137.06,137.06,0,0,0,74-8.91c.34-.14.67-.29,1-.41,2.65-.94,5-.08,6,2.17,1,2.4,0,4.84-2.75,6a146.85,146.85,0,0,1-24.48,7.91,144.08,144.08,0,0,1-65.09,0A11.42,11.42,0,0,0,233.89,348.44Z"/><path class="cls-30" d="M295.22,287.21c-7.06,0-14.11,0-21.16,0a12,12,0,0,1-3-.29,4.3,4.3,0,0,1,.7-8.43c1.19-.11,2.38-.07,3.57-.07q21,0,42.05,0c3.12,0,5,1.6,5.13,4.15s-1.94,4.49-5,4.64c-.64,0-1.28,0-1.92,0Z"/><path class="cls-30" d="M295.29,262c7.33,0,14.66,0,22,0,3.2,0,5.23,1.73,5.24,4.35s-2,4.43-5.21,4.44q-22.12,0-44.25,0c-3.17,0-5.2-1.78-5.21-4.4s2-4.38,5.18-4.39C280.45,262,287.87,262,295.29,262Z"/><path class="cls-30" d="M306.59,254.4c-3.57,0-7.15,0-10.72,0-2.9,0-4.71-1.67-4.79-4.18s1.75-4.55,4.72-4.58q11-.1,22,0a4.5,4.5,0,0,1,4.72,4.38c0,2.55-1.94,4.35-4.92,4.39C313.93,254.44,310.26,254.4,306.59,254.4Z"/><path class="cls-30" d="M276.33,254.38c-1.37,0-2.74.06-4.11,0a4.32,4.32,0,0,1-4.36-4,4.24,4.24,0,0,1,3.77-4.61,64,64,0,0,1,9.29,0,4.17,4.17,0,0,1,3.79,4.56,4.25,4.25,0,0,1-4.28,4.1C279.07,254.45,277.7,254.38,276.33,254.38Z"/><path class="cls-30" d="M258.87,217.36c3.76,0,7.52,0,11.28,0,3,0,4.94,1.75,5,4.33s-2,4.41-4.93,4.44q-11.28.09-22.55,0c-3.15,0-5.16-1.92-5.08-4.56s2-4.19,5.06-4.22C251.36,217.33,255.12,217.36,258.87,217.36Z"/><path class="cls-30" d="M228.49,217.39c1.18,0,2.38-.06,3.56,0a4,4,0,0,1,4.15,3.91,3.93,3.93,0,0,1-3.35,4.61,25.15,25.15,0,0,1-9,0,4,4,0,0,1-3.37-4.61,4,4,0,0,1,4.16-3.92C225.93,217.34,227.21,217.39,228.49,217.39Z"/></svg>