<svg id="Layer_1" data-name="Layer 1" xmlns="http://www.w3.org/2000/svg" xmlns:xlink="http://www.w3.org/1999/xlink" viewBox="0 0 543 490"><defs><style>.cls-1{fill:url(#linear-gradient);}.cls-2{fill:#2a2a8c;}.cls-3{fill:url(#linear-gradient-2);}.cls-4{opacity:0.9;fill:url(#linear-gradient-3);}.cls-5{fill:url(#linear-gradient-4);}.cls-6{fill:url(#linear-gradient-5);}.cls-7{fill:url(#linear-gradient-6);}.cls-8{fill:url(#linear-gradient-7);}.cls-9{fill:url(#linear-gradient-8);}.cls-10{fill:url(#linear-gradient-9);}.cls-11{fill:url(#linear-gradient-10);}.cls-12,.cls-13,.cls-14,.cls-15,.cls-18,.cls-19,.cls-20,.cls-21,.cls-22,.cls-23,.cls-28,.cls-29{fill-opacity:0.2;}.cls-12{fill:url(#linear-gradient-11);}.cls-13{fill:url(#linear-gradient-12);}.cls-14{fill:url(#linear-gradient-13);}.cls-15{fill:url(#linear-gradient-14);}.cls-16{fill:url(#linear-gradient-15);}.cls-17{fill:url(#linear-gradient-16);}.cls-18{fill:url(#linear-gradient-17);}.cls-19{fill:url(#linear-gradient-18);}.cls-20{fill:url(#linear-gradient-19);}.cls-21{fill:url(#linear-gradient-20);}.cls-22{fill:url(#linear-gradient-21);}.cls-23{fill:url(#linear-gradient-22);}.cls-24{fill:url(#linear-gradient-23);}.cls-25{fill:url(#linear-gradient-24);}.cls-26{fill:url(#linear-gradient-25);}.cls-27{fill:url(#linear-gradient-26);}.cls-28{fill:url(#linear-gradient-27);}.cls-29{fill:url(#linear-gradient-28);}.cls-30{fill:#39ffff;}</style><linearGradient id="linear-gradient" x1="0.21" y1="137.11" x2="100.9" y2="137.11" gradientUnits="userSpaceOnUse"><stop offset="0.04" stop-color="#3a3adb"/><stop offset="0.99" stop-color="#2a2a8c"/></linearGradient><linearGradient id="linear-gradient-2" x1="50.45" y1="221.61" x2="542.33" y2="221.61" gradientUnits="userSpaceOnUse"><stop offset="0.04" stop-color="#3a3adb"/><stop offset="0.77" stop-color="#2a2a8c"/></linearGradient><linearGradient id="linear-gradient-3" x1="0.16" y1="279.25" x2="446.97" y2="279.25" gradientUnits="userSpaceOnUse"><stop offset="0.04" stop-color="#3a3adb"/><stop offset="0.99" stop-color="#2a47c9"/></linearGradient><linearGradient id="linear-gradient-4" x1="340.93" y1="347.57" x2="474.87" y2="347.57" xlink:href="#linear-gradient"/><linearGradient id="linear-gradient-5" x1="71.3" y1="42.35" x2="73.9" y2="42.35" xlink:href="#linear-gradient"/><linearGradient id="linear-gradient-6" x1="71.3" y1="21.65" x2="73.9" y2="21.65" xlink:href="#linear-gradient"/><linearGradient id="linear-gradient-7" x1="77.5" y1="37.3" x2="87.4" y2="37.3" xlink:href="#linear-gradient"/><linearGradient id="linear-gradient-8" x1="57.8" y1="26.5" x2="67.7" y2="26.5" xlink:href="#linear-gradient"/><linearGradient id="linear-gradient-9" x1="57.7" y1="37.3" x2="67.6" y2="37.3" xlink:href="#linear-gradient"/><linearGradient id="linear-gradient-10" x1="77.5" y1="26.5" x2="87.4" y2="26.5" xlink:href="#linear-gradient"/><linearGradient id="linear-gradient-11" x1="208.8" y1="73.75" x2="211.41" y2="73.75" xlink:href="#linear-gradient"/><linearGradient id="linear-gradient-12" x1="208.8" y1="53.05" x2="211.41" y2="53.05" xlink:href="#linear-gradient"/><linearGradient id="linear-gradient-13" x1="193.5" y1="63.4" x2="204.21" y2="63.4" xlink:href="#linear-gradient"/><linearGradient id="linear-gradient-14" x1="216" y1="63.4" x2="226.71" y2="63.4" xlink:href="#linear-gradient"/><linearGradient id="linear-gradient-15" x1="55.91" y1="421.27" x2="90.05" y2="421.27" xlink:href="#linear-gradient"/><linearGradient id="linear-gradient-16" x1="56.05" y1="400.53" x2="90.14" y2="400.53" xlink:href="#linear-gradient"/><linearGradient id="linear-gradient-17" x1="345.5" y1="278.75" x2="348.1" y2="278.75" xlink:href="#linear-gradient-3"/><linearGradient id="linear-gradient-18" x1="345.5" y1="258.05" x2="348.1" y2="258.05" xlink:href="#linear-gradient-3"/><linearGradient id="linear-gradient-19" x1="351.8" y1="273.8" x2="361.7" y2="273.8" xlink:href="#linear-gradient-3"/><linearGradient id="linear-gradient-20" x1="332" y1="263" x2="341.9" y2="263" xlink:href="#linear-gradient-3"/><linearGradient id="linear-gradient-21" x1="331.9" y1="273.8" x2="341.8" y2="273.8" xlink:href="#linear-gradient-3"/><linearGradient id="linear-gradient-22" x1="351.7" y1="263" x2="361.6" y2="263" xlink:href="#linear-gradient-3"/><linearGradient id="linear-gradient-23" x1="474.1" y1="410.95" x2="476.7" y2="410.95" xlink:href="#linear-gradient"/><linearGradient id="linear-gradient-24" x1="474.1" y1="390.25" x2="476.7" y2="390.25" xlink:href="#linear-gradient"/><linearGradient id="linear-gradient-25" x1="458.8" y1="400.6" x2="469.5" y2="400.6" xlink:href="#linear-gradient"/><linearGradient id="linear-gradient-26" x1="481.2" y1="400.6" x2="491.91" y2="400.6" xlink:href="#linear-gradient"/><linearGradient id="linear-gradient-27" x1="480.31" y1="231.57" x2="514.45" y2="231.57" gradientUnits="userSpaceOnUse"><stop offset="0.04" stop-color="#3a3adb"/><stop offset="0.99" stop-color="#2a4b8c"/></linearGradient><linearGradient id="linear-gradient-28" x1="480.35" y1="210.83" x2="514.49" y2="210.83" xlink:href="#linear-gradient-27"/></defs><path class="cls-1" d="M89.5,126.5C79,109.2,68,97.8,50.6,89.7s-39.1-8.2-48,11.2,8.6,43.5,33.2,44.9c28.3,1.5,43.4,14.6,45,34,1,12.1,14.5,12.5,17.3,4.6C103.3,170,101.7,146.7,89.5,126.5Z"/><path class="cls-2" d="M311.5,26.9C194.9-92.8,68.2,219.8,35.7,320.8S140.6,438.1,233,456.2c147.6,28.8,215.2-27,226.7-94.2S428.1,146.7,311.5,26.9Z"/><path class="cls-3" d="M386.9,175.8C325,186.6,282.7,128,254.2,91.9c-22.4-28.4-116.5-75.1-175,8.7-53,76-31.1,189.1,52.3,246.4S342,399,420.9,363.5c49.9-22.4,112.9-64.1,120.7-123.3C550.2,175.4,481.9,159.3,386.9,175.8Z"/><path class="cls-4" d="M397.7,68.5c-2.5-.1-5-.1-7.6-.1-41.1,0-92.8,10.3-129.7,22.4L255,92.6c1.1,1.4,2.3,2.9,3.5,4.4,1.3-.4,2.5-.8,3.8-1.3,41-13.5,91.2-22.1,127.9-22.1,2.5,0,5,0,7.4.1,17.3.6,30.3,6.3,37.5,16.5,8.6,12.2,8.6,30.8-.1,52.2-3.9,9.7-7.2,18.9-9.9,28-11,36.6-13.6,72.1-14.2,134.2-.1,14.2,0,27.3.1,40,.1,8,.1,15.5.1,22.8,0,44.1-2.7,74.5-23,94.1-15.8,15.2-34.3,23.3-53.6,23.3-21.2,0-42.9-9.5-64.3-28.3C222.8,415,164,386,104.6,374.7c-45.6-8.7-81.4-17-93.8-36.9-6.7-10.9-6.7-25.6,0-45,6.3-18.1,18.4-43.1,41.9-70.5-.4-2.4-.7-4.8-1-7.1-23.6,26.5-38.1,52.7-46.2,76-21.7,62.6,25.1,74.8,97.9,88.7,58.6,11.2,115.8,39.3,162.8,80.5,24,21,47.1,29.7,68.1,29.7,22.1,0,41.8-9.7,57.6-24.9,22.1-21.4,24.6-53.8,24.6-100.1,0-18-.4-38.1-.2-60.4.6-64.3,3.4-98.8,14.5-134.7,2.6-8.3,5.7-16.8,9.2-25.6C458.1,99.7,439.9,69.9,397.7,68.5Z"/><path class="cls-5" d="M459.8,308.7c-35.5-38.4-76.5-14-105.7,29.4-27.1,40.3-10.6,87.6,33.3,58.4,38.3-25.4,61.6-18,78.7-35.1C489,338.7,459.8,308.7,459.8,308.7Z"/><path class="cls-6" d="M72.6,47.7a1.32,1.32,0,0,1-1.3-1.3V38.3a1.3,1.3,0,1,1,2.6,0v8.1A1.4,1.4,0,0,1,72.6,47.7Z"/><path class="cls-7" d="M72.6,27a1.32,1.32,0,0,1-1.3-1.3V17.6a1.3,1.3,0,1,1,2.6,0v8.1A1.32,1.32,0,0,1,72.6,27Z"/><path class="cls-8" d="M85.3,40.3l-7.1-3.8a1.13,1.13,0,0,1-.5-1.7,1.54,1.54,0,0,1,1.9-.5l7.1,3.8a1.13,1.13,0,0,1,.5,1.7A1.54,1.54,0,0,1,85.3,40.3Z"/><path class="cls-9" d="M65.6,29.5l-7.1-3.8A1.13,1.13,0,0,1,58,24a1.54,1.54,0,0,1,1.9-.5L67,27.3a1.13,1.13,0,0,1,.5,1.7A1.57,1.57,0,0,1,65.6,29.5Z"/><path class="cls-10" d="M57.9,39.8a1.13,1.13,0,0,1,.5-1.7l7.1-3.8a1.54,1.54,0,0,1,1.9.5,1.13,1.13,0,0,1-.5,1.7l-7.1,3.8A1.54,1.54,0,0,1,57.9,39.8Z"/><path class="cls-11" d="M77.7,29a1.13,1.13,0,0,1,.5-1.7l7.1-3.8a1.54,1.54,0,0,1,1.9.5,1.13,1.13,0,0,1-.5,1.7l-7.1,3.8A1.54,1.54,0,0,1,77.7,29Z"/><path class="cls-12" d="M210.1,79.1a1.32,1.32,0,0,1-1.3-1.3V69.7a1.3,1.3,0,0,1,2.6,0v8.1A1.21,1.21,0,0,1,210.1,79.1Z"/><path class="cls-13" d="M210.1,58.4a1.32,1.32,0,0,1-1.3-1.3V49a1.3,1.3,0,0,1,2.6,0v8.1A1.21,1.21,0,0,1,210.1,58.4Z"/><path class="cls-14" d="M202.9,64.7h-8.1a1.3,1.3,0,0,1,0-2.6h8.1a1.32,1.32,0,0,1,1.3,1.3A1.21,1.21,0,0,1,202.9,64.7Z"/><path class="cls-15" d="M225.4,64.7h-8.1a1.3,1.3,0,0,1,0-2.6h8.1a1.32,1.32,0,0,1,1.3,1.3A1.21,1.21,0,0,1,225.4,64.7Z"/><path class="cls-16" d="M73,428a17.92,17.92,0,0,1-17-11.7,1.27,1.27,0,0,1,1-1.7,1.31,1.31,0,0,1,1.6.8,15.42,15.42,0,0,0,28.8,0,1.38,1.38,0,0,1,2.6.9A18.06,18.06,0,0,1,73,428Z"/><path class="cls-17" d="M89.1,407.2a1.31,1.31,0,0,1-1.6-.8,15.42,15.42,0,0,0-28.8,0,1.38,1.38,0,0,1-2.6-.9,18.2,18.2,0,0,1,34,0A1.45,1.45,0,0,1,89.1,407.2Z"/><path class="cls-18" d="M346.8,284.1a1.32,1.32,0,0,1-1.3-1.3v-8.1a1.3,1.3,0,0,1,2.6,0v8.1A1.32,1.32,0,0,1,346.8,284.1Z"/><path class="cls-19" d="M346.8,263.4a1.32,1.32,0,0,1-1.3-1.3V254a1.3,1.3,0,0,1,2.6,0v8.1A1.32,1.32,0,0,1,346.8,263.4Z"/><path class="cls-20" d="M359.6,276.8l-7.1-3.8a1.13,1.13,0,0,1-.5-1.7,1.54,1.54,0,0,1,1.9-.5l7.1,3.8a1.13,1.13,0,0,1,.5,1.7A1.57,1.57,0,0,1,359.6,276.8Z"/><path class="cls-21" d="M339.8,266l-7.1-3.8a1.13,1.13,0,0,1-.5-1.7,1.54,1.54,0,0,1,1.9-.5l7.1,3.8a1.13,1.13,0,0,1,.5,1.7A1.57,1.57,0,0,1,339.8,266Z"/><path class="cls-22" d="M332.1,276.3a1.13,1.13,0,0,1,.5-1.7l7.1-3.8a1.54,1.54,0,0,1,1.9.5,1.13,1.13,0,0,1-.5,1.7l-7.1,3.8A1.57,1.57,0,0,1,332.1,276.3Z"/><path class="cls-23" d="M351.9,265.5a1.13,1.13,0,0,1,.5-1.7l7.1-3.8a1.54,1.54,0,0,1,1.9.5,1.13,1.13,0,0,1-.5,1.7l-7.1,3.8A1.54,1.54,0,0,1,351.9,265.5Z"/><path class="cls-24" d="M475.4,416.3a1.32,1.32,0,0,1-1.3-1.3v-8.1a1.3,1.3,0,0,1,2.6,0V415A1.32,1.32,0,0,1,475.4,416.3Z"/><path class="cls-25" d="M475.4,395.6a1.32,1.32,0,0,1-1.3-1.3v-8.1a1.3,1.3,0,0,1,2.6,0v8.1A1.32,1.32,0,0,1,475.4,395.6Z"/><path class="cls-26" d="M468.2,401.9h-8.1a1.3,1.3,0,0,1,0-2.6h8.1a1.3,1.3,0,1,1,0,2.6Z"/><path class="cls-27" d="M490.6,401.9h-8.1a1.3,1.3,0,0,1,0-2.6h8.1a1.32,1.32,0,0,1,1.3,1.3A1.21,1.21,0,0,1,490.6,401.9Z"/><path class="cls-28" d="M497.4,238.3a17.92,17.92,0,0,1-17-11.7,1.27,1.27,0,0,1,1-1.7,1.31,1.31,0,0,1,1.6.8,15.42,15.42,0,0,0,28.8,0,1.38,1.38,0,0,1,2.6.9A18.06,18.06,0,0,1,497.4,238.3Z"/><path class="cls-29" d="M513.4,217.5a1.31,1.31,0,0,1-1.6-.8,15.42,15.42,0,0,0-28.8,0,1.38,1.38,0,0,1-2.6-.9,18.2,18.2,0,0,1,34,0A1.3,1.3,0,0,1,513.4,217.5Z"/><path class="cls-30" d="M227.49,284.58c0-1.42,0-2.28,0-3.14a6.61,6.61,0,0,1,5.42-6.64c3.45-.65,6.82.8,8,3.9.67,1.73,1.21,2.19,3.15,1.78,4.84-1,8.38,2,8.56,7,.05,1.48,0,3,0,4.51a36.26,36.26,0,0,1,3.74-.51c4.25-.13,7.23,2.6,7.25,6.87,0,14.3.19,28.61,0,42.91-.21,13-11.14,23.85-25.41,25.68a29.87,29.87,0,0,1-30.66-16.26,20.48,20.48,0,0,1-2.22-10c.1-2.64-1-3.69-3.37-4a14.21,14.21,0,0,1-1.57-.35c-4.82-1.07-4.82-1.07-7,3.36a13.36,13.36,0,0,1-12.88,7.51c-5.8-.41-10-3.33-11.95-8.82-.84-2.4-1.81-2.87-4.11-2.45-14.24,2.62-24.45,10.44-30.81,23.42-.62,1.27-.72,4-2.91,3s-.4-3.1.26-4.44c7-14.26,18.32-22.7,34.06-25,1.82-.27,2.8-.77,2.53-2.75a6.93,6.93,0,0,1,0-1.93c.72-5-.52-8.56-5.28-11.63-5.63-3.63-8.66-9.66-9.31-16.53-.17-1.77-.67-2.72-2.58-3.34a12.43,12.43,0,0,1-7.31-18,11.07,11.07,0,0,0,1.26-5.52c0-5.48-.11-11,0-16.45.15-6.51,2.4-12,8.3-15.41,1.58-.91,1.27-1.86,1-3.2-1-4.39-.58-4.84,3.87-4.85,11.83,0,23.67.26,35.49-.08,14.21-.4,26.09,11.19,25.34,25.53-.21,4.08.34,8.22-.12,12.25-.48,4.33,1.5,7.9,2.51,11.78.2.75.56,1.09,1.36,1A9.2,9.2,0,0,1,227.49,284.58Zm-46.14,35.2c15.08,0,24.17-8.13,25.41-22.85.19-2.22,1.27-2.45,3-2.79,5.7-1.1,7.26-4.52,8-9.51.6-4.27-3.09-8.65-7.66-9.33-2.87-.42-3.33-1.69-3.31-4.22.06-5.68-1.61-10.83-5.8-14.88-7.07-6.84-22.7-9.3-32.33-4.95-8.47,3.82-12.74,10.57-12.76,19.86,0,2.31-.19,3.66-3.07,4.06a9.3,9.3,0,0,0-8.17,9.64c.09,4.9,3.29,8.62,8.46,9.39,2.22.33,2.89,1.27,2.81,3.36a13.53,13.53,0,0,0,.64,5.27C160.82,314.53,168.53,319.8,181.35,319.78Zm38.59,10.83c-.71,1.17-.39,2.16-.49,3.11-.12,1.14.13,2.67-1.61,2.58s-1.37-1.62-1.39-2.75c-.06-4-.08-8-.13-11.94,0-3.11-1.47-4.81-4-4.79s-4,1.8-4.05,4.76c0,6.24,0,12.47,0,18.71a22,22,0,0,0,1.53,7.87c4.3,11,16.88,17.73,29.3,15.53,13-2.32,22-12.6,21.52-25.34-.44-13-.09-26-.1-39,0-3.17-1.35-4.76-3.91-4.8s-4,1.55-4,4.7c0,5.59,0,11.19,0,16.78,0,1.29.14,2.95-1.63,2.94s-1.51-1.74-1.52-3c0-9.15,0-18.29,0-27.43,0-3.56-1.16-5.14-3.8-5.24s-4.12,1.62-4.12,5.25c0,9.14,0,18.28,0,27.43,0,1.25.25,3-1.59,2.94s-1.48-1.76-1.49-3q0-16.47,0-32.92c0-3.6-1.36-5.31-4.12-5.25s-3.86,1.59-3.86,5.15c0,10.75,0,21.51,0,32.26a18.9,18.9,0,0,1-.07,2.26c-.11,1-.61,1.63-1.69,1.5-.89-.1-1.25-.71-1.25-1.58s0-1.51,0-2.26q0-11.94,0-23.88c0-1.86-.53-3.39-2.38-4.17a4.16,4.16,0,0,0-4.28.5c-1.53,1.11-1.38,2.81-1.38,4.41,0,11,0,21.95,0,32.92,0,1.87-1,4.71,2.87,3.67.39-.11,1,.39,1.44.66a35.3,35.3,0,0,1,10.35,8.6,21.81,21.81,0,0,1,5,14.62c0,1.16-.22,2.34-1.62,2.3s-1.5-1.21-1.51-2.38C235.89,341.21,228.61,335.46,219.94,330.61Zm-4.66-57.14c0-5.19,0-10.23,0-15.28-.08-12.57-8-21.33-20.61-21.8-12-.46-24.09-.14-36.13-.21-1.85,0-2.21.63-1.66,2.35a11.64,11.64,0,0,0,10.67,7.95c6.13.1,12.26,0,18.39,0,12.14.08,22.71,9.42,23.53,21C209.74,271.41,211.3,273,215.28,273.47Zm-44.51,55.34h-.1c0,1.51,0,3,0,4.52.13,6.06,4.4,10.68,10.08,10.94s10.6-4.15,11-10.33c.23-3.43,0-6.88.09-10.32,0-1.42-.31-2-1.8-1.64-4.34,1.18-8.77.55-13.16.74-2.07.08-4.65-2-5.9-.21C170,324,170.77,326.66,170.77,328.81Zm45.64-34.14a12.16,12.16,0,0,1-2.59,1.36c-3.2.64-4.15,2.51-4.59,5.73-.84,6.16-3.77,11.88-9.11,15-5.13,3-5.58,6.85-5.45,11.87.09,3.1.72,4.55,4,4.39a10.68,10.68,0,0,1,4.08.84c2.09.78,2.65,0,2.6-2-.08-3.76-.1-7.53,0-11.29.13-4.53,3.83-7.38,8.32-6.65.87.14,1.69.95,2.71.33Zm-51.12-45.33c-3.7-.94-6.38-2.42-8.39-4.9-1-1.2-1.86-1.08-3-.35a12.8,12.8,0,0,0-6.1,9.42c-.85,6.58-.23,13.2-.4,20.44,2-1.7,5.18-.59,5.32-3.42C153.14,261.47,157.08,254.57,165.29,249.34ZM219.44,330l.18.15,0-.26Z"/><path class="cls-30" d="M279.51,121c-5.7,0-11.41.06-17.1,0-1.8,0-2.51.52-2.42,2.36.11,2.47.08,5,0,7.42-.13,3.8-2.08,5.78-5.81,5.8q-15.33.08-30.66,0c-3.53,0-5.73-2-5.79-5.54q-.18-11.46,0-22.91c.06-3.68,2.26-5.64,6-5.66q15,0,30,0c4.33,0,6.17,1.93,6.28,6.33,0,.43,0,.86,0,1.29,0,7.9,0,7.9,7.78,7.89,9.47,0,18.94-.11,28.4.07,2.66,0,3.35-.82,3.12-3.27a54.47,54.47,0,0,1,0-6.13c.07-4.18,2-6.18,6.1-6.2q15.17-.06,30.33,0c3.79,0,5.91,2,6,5.71q.15,11.3,0,22.59c-.05,3.9-2.15,5.8-6.16,5.85-3.66.05-7.32.07-11,0-1.81-.05-2.77.3-2.68,2.44.16,3.76.14,7.53,0,11.29-.06,2,.71,2.57,2.64,2.49,3.65-.13,7.32-.07,11,0,4,.05,6.17,2.14,6.2,6.11q.1,11,0,21.94c-.05,4.14-2.1,6.11-6.23,6.13q-15,0-30,0c-4.16,0-6.09-2-6.2-6.12,0-.11,0-.22,0-.33-.08-2.88.93-6.7-.53-8.41-1.7-2-5.64-.6-8.61-.64-8.92-.09-17.85.06-26.78-.08-2.68,0-3.59.86-3.35,3.48a49.57,49.57,0,0,1,0,6.45c-.12,3.57-2.1,5.56-5.66,5.63-3.87.07-7.75.11-11.62,0-1.84-.06-2.39.54-2.37,2.36q.12,12.43,0,24.85c0,2.21.91,3.15,3.07,3.12,2.9,0,5.82-.16,8.7,0,2.21.16,2.58-1,3-2.74,2.07-9.89,8-16.26,17.88-18.59a23.3,23.3,0,0,1,10.11,45.48c-12.25,2.85-24.91-4.83-27.61-17.17-.72-3.28-1.79-4.53-5.13-4.09a45.33,45.33,0,0,1-7.09.06c-4.16-.09-5.9-1.81-5.91-5.93,0-8.17-.09-16.35,0-24.52,0-2.24-.55-3-2.84-2.89-3.65.18-7.32.1-11,0s-5.85-2.07-5.89-5.79c-.08-7.53-.09-15.06,0-22.59.06-3.75,2.16-5.73,5.9-5.75q15.33-.08,30.66,0c3.66,0,5.68,2.17,5.75,5.89,0,2.26.15,4.53,0,6.78s.81,2.88,3,2.86q16.94-.12,33.88,0c2.12,0,2.53-.8,2.44-2.64-.12-2.58-.08-5.17,0-7.75.1-3.41,1.8-5.11,5.22-5.17,3.87-.07,7.75-.13,11.61,0,2,.07,2.93-.37,2.83-2.61-.16-3.65-.17-7.32,0-11,.1-2.22-.76-2.74-2.79-2.67-3.54.13-7.09.07-10.64,0-4.17,0-6.14-2-6.27-6.07,0-.32,0-.64,0-1-.21-2.74,1.2-6.25-.64-8s-5.14-.44-7.81-.49C287,121,283.27,121,279.51,121Zm-21.8,97.68A20.24,20.24,0,1,0,278,198.47,20.2,20.2,0,0,0,257.71,218.7Zm-19.16-85.14c5,0,10.1,0,15.16,0,2.33,0,3.33-1.06,3.33-3.31,0-7.1-.05-14.19,0-21.28,0-2.64-1.19-3.59-3.76-3.57q-14.5.12-29,0c-2.63,0-3.73,1.1-3.72,3.65,0,7,0,14,0,21,0,2.57,1.19,3.63,3.8,3.57C229.08,133.48,233.82,133.56,238.55,133.56Zm81.79,50.34h0c4.94,0,9.89,0,14.83,0,2.47,0,3.49-1,3.47-3.5q-.09-10.47,0-21c0-2.36-.79-3.63-3.34-3.62-10,0-20,.06-30,0-2.25,0-3,.85-3,3.05q.13,10.8,0,21.61c0,2.49,1.07,3.48,3.5,3.45C310.66,183.85,315.5,183.9,320.34,183.9ZM239.2,155.84v0c-5,0-10.09.06-15.13,0-2.32,0-3.47,1-3.48,3.21,0,7.19,0,14.38,0,21.57,0,2.18.94,3.36,3.32,3.34q14.81-.07,29.62,0c2.53,0,3.48-1.14,3.48-3.5,0-7,0-13.95,0-20.92,0-2.65-1.19-3.81-4-3.71C248.44,156,243.82,155.84,239.2,155.84Zm81.4-50.37c-4.94,0-9.88.07-14.81,0-2.48,0-3.52,1-3.5,3.44q.09,10.62,0,21.25c0,2.46,1.06,3.45,3.51,3.44q14.65-.11,29.31,0c2.45,0,3.53-1,3.52-3.44q-.06-10.62,0-21.25c0-2.44-1.09-3.47-3.55-3.42C330.26,105.55,325.43,105.48,320.6,105.47Z"/><path class="cls-30" d="M388.05,304.94c4.83.58,7.37,2.49,8,5.75.63,3.49-.86,6-4.8,8.2-1.13.62-2.24,1.28-3.41,1.82-5.2,2.42-9.64,5.21-11.95,11.17-2.05,5.29-5.43,7.36-13,11.19,3.1,2.77,6,5.28,8.75,7.87.87.81,2.43,1.74,1.14,3.15-1.49,1.65-2.48-.09-3.38-1q-15.09-15-30.12-30.1c-2.77-2.77-4.57-6.25-6.45-9.61a263,263,0,0,0-32-44.69c-2-2.27-3.86-4.63-5.73-7-.95-1.2-1.94-1.79-3.18-.5-1.07,1.12-1.25,1.93.05,3.46,8.78,10.31,17.35,20.8,26,31.24.73.89,1.29,2,0,2.74s-2.13-.37-2.88-1.28c-7.58-9.22-15.13-18.46-22.77-27.64-.93-1.12-1.39-3.24-3.54-2.66a2.71,2.71,0,0,0-1.85,2.77c-.05,2.09.72,4.07,2.65,4.72a8.54,8.54,0,0,1,4,3.07q10.14,12.54,20.24,25.12c.82,1,2.37,2.22.64,3.48-1.45,1.05-2.29-.53-3.07-1.49-6.69-8.28-13.34-16.59-20.06-24.85-.76-.94-1.35-2.93-3.18-1.5a3,3,0,0,0-.6,4.33,26.69,26.69,0,0,0,2.92,4.23c8,8.46,12.71,19.11,18.81,28.82a8.94,8.94,0,0,1,.91,4c.81,7.61,4.91,13.38,10.41,18.29a6.58,6.58,0,0,0,3.28,1.06c3.47.51,6.1,2.32,8.53,4.76,7.51,7.55,15.16,15,22.7,22.48,1,1,3.39,2,1.53,3.77s-2.76-.72-3.8-1.67c-2.62-2.39-5.16-4.88-7.59-7.47-1.28-1.37-2.1-1.25-3.34,0-2.76,2.87-5.65,5.61-8.5,8.38-.83.8-1.72,2-2.94.75s-.11-2.12.75-3c2.91-2.87,5.77-5.79,8.74-8.6,1.12-1.05,1.16-1.72,0-2.81Q334.3,350.5,328.87,345c-1.19-1.21-2-1.18-3.11,0-2.75,2.88-5.59,5.66-8.42,8.46-.82.82-1.73,2-2.94.72s0-2.14.79-3c2.42-2.45,4.83-4.9,7.28-7.32.9-.88,1.12-1.43-.35-2-6.7-2.57-10.49-7.94-13.14-14.22a6.6,6.6,0,0,0-3.35-3.61c-3.26-1.65-6.46-3.41-9.67-5.16-4-2.21-5.58-4.79-4.89-8.13.73-3.54,3.25-5.38,8.06-5.74-2.32-4.31-4.6-8.52-7.81-12.17a92.67,92.67,0,0,1-5.8-7.32c-2-2.73-2.76-5.68-.32-8.58,1-1.21.09-1.94-.36-2.85-2-3.94-1.57-6.48,1.81-9.4a4.14,4.14,0,0,0,1.2-2.47,6.2,6.2,0,0,1,4.69-4.82c2.37-.58,3.81.91,5.13,2.58,11.05,14,23.57,26.83,32.21,42.64A170.1,170.1,0,0,0,339,317.38c4.53,6.6,4.64,6.78,9.13,0,5.23-7.87,9.94-16.09,14.89-24.15,5.72-9.3,13.47-17,20.11-25.58,2-2.64,4.25-5.13,6.33-7.74,1.33-1.68,2.79-3.13,5.14-2.55a5.79,5.79,0,0,1,4.57,4.52,5.55,5.55,0,0,0,2.07,3.36c2.46,2.11,2.95,5.37,1.2,8.51-.82,1.47-1.13,2.44,0,3.94,1.41,1.84,1.21,4,.16,6.11a31.47,31.47,0,0,1-5.08,7A59.37,59.37,0,0,0,388.05,304.94Zm12.23-34.56a3.58,3.58,0,0,0-1.72-3.2c-1.53-.83-2.09.53-2.83,1.36s-1.64,2-2.45,3L372,297.45c-.76.92-1.54,2.09-2.9,1.18s-.61-1.89.11-2.76c8.48-10.3,16.9-20.64,25.52-30.81,1.27-1.51,2-2.42.4-3.91s-2.44-.16-3.35.93c-13.53,16.16-27.12,32.25-37.22,50.94-2,3.65-3.88,7.5-7.13,10.29-1.61,1.39-1.26,2.26.1,3.55,3.28,3.11,6.42,6.36,9.62,9.55,3.9,3.87,5.53,4.1,10,.76,6.05-4.49,9-10.8,10-18.14a7.16,7.16,0,0,1,.67-3.1c6-9.54,10.55-20,18.35-28.37a34.37,34.37,0,0,0,3.38-4.7c1.11-1.68,1-3.42-.7-4.54s-2.38.84-3.15,1.77c-6.66,8.17-13.24,16.4-19.87,24.59-.77.95-1.57,2.6-3,1.55-1.7-1.22-.24-2.45.6-3.49q10-12.45,20-24.87c1.14-1.4,2.17-2.76,4.19-3.29C399.37,274.11,399.81,272.13,400.28,270.38Zm-20.47,50.23.68.44c3.47-1.86,7-3.69,10.4-5.61a3.57,3.57,0,0,0,1.57-5.19c-1.1-2.08-2.75-2.18-4.87-1.17C382.6,311.48,381.19,316,379.81,320.61Zm-73.05.55c.26-4.46-3.25-10-7.15-12-2.19-1.12-3.91-1.07-5.06,1.24s-.32,4,1.73,5.12C299.72,317.42,303.2,319.25,306.76,321.16Z"/><path class="cls-30" d="M333.31,237.07c-2-2.21-4.32-3.38-6.11-5.25a11.7,11.7,0,0,1-3.65-7.34,7,7,0,0,1,8.84-7.39c4.06,1,6.63,3.86,8.57,7.31,1.2,2.15,2.08,4.47,3.22,7,1-2.18,1.85-4.28,2.88-6.31a14.92,14.92,0,0,1,7.3-7.43c2.88-1.27,5.68-1.18,8.12,1s2.94,5.15,1.88,8.25a14.61,14.61,0,0,1-5.8,7.13,14.55,14.55,0,0,0-3.61,3.05c3.87,0,7.75,0,11.62,0,4.38,0,5.31.92,5.36,5.27,0,1.93,0,3.87,0,5.8,0,1,0,2.27-.74,2.71-2.9,1.62-2.19,4.27-2.21,6.72,0,4.84,0,9.67,0,14.51,0,3.43-1.67,5.21-5.1,5.23q-19.67.09-39.33,0c-3.43,0-5.12-1.78-5.15-5.21-.06-5.69,0-11.39,0-17.08,0-.91.44-2-.45-2.72-4.6-3.79-2.05-8.72-1.93-13.16,0-1.66,2.16-2.08,3.91-2.07C325,237.1,329.16,237.07,333.31,237.07ZM344,252.32c-6.34,0-12.68.08-19,0-1.95,0-2.63.45-2.58,2.48.13,5.48.12,11,0,16.44-.05,2.22.7,3,3,3q18.69-.11,37.39,0c2.14,0,3.1-.56,3-2.91-.14-5.48-.15-11,0-16.44.07-2.28-.86-2.6-2.81-2.57C356.71,252.4,350.37,252.33,344,252.32Zm.64-12.25H325.33c-5.92,0-5.77,0-5.94,6-.07,2.78.9,3.4,3.5,3.37,13.11-.12,26.22-.07,39.33-.07,6.88,0,6.8,0,6.68-6.83,0-2-.7-2.52-2.63-2.5C359.07,240.13,351.87,240.07,344.67,240.07Zm-2.53-3.74c-1.61-5.76-3-10.93-7.33-14.57-2.06-1.73-4.51-3-6.94-.69s-1.23,4.71.26,7a12.74,12.74,0,0,0,3.67,3.57A39.59,39.59,0,0,0,342.14,236.33Zm4.18.12c5.79-2.36,11.28-4,14.46-9.28,1.24-2,1.73-4.25-.29-6.14s-4.16-1.17-6.16.13a12.82,12.82,0,0,0-4.05,4.48A36.71,36.71,0,0,0,346.32,236.45Z"/><path class="cls-30" d="M377.51,146.55a1.58,1.58,0,0,1-.72,1.44,1.38,1.38,0,0,1-1.77-.24q-5.79-5.56-11.56-11.16a1.43,1.43,0,0,1-.28-2,1.36,1.36,0,0,1,2-.39,99.07,99.07,0,0,1,12.06,11.56A2.18,2.18,0,0,1,377.51,146.55Z"/><path class="cls-30" d="M257.27,387.07c-4.64-.73-9.29-1.44-13.92-2.22-1.13-.19-2.58-.38-2.22-2.06s1.73-1.15,2.87-1c4.54.67,9.08,1.36,13.63,2,1.19.17,2.59.16,2.42,1.81S258.47,387,257.27,387.07Z"/><path class="cls-30" d="M153.7,165.83c-.15.3-.32.7-.53,1.06-2.5,4.35-5,8.69-7.49,13.05-.56,1-1.24,1.56-2.3.92-.88-.52-.82-1.37-.39-2.24a149,149,0,0,1,7.8-13.61,1.61,1.61,0,0,1,1.93-.75C153.43,164.45,153.66,165,153.7,165.83Z"/><path class="cls-30" d="M131.44,209.42q2.28-7.33,4.58-14.66c.32-1,1-1.77,2.12-1.37s1,1.46.7,2.41a142,142,0,0,0-4.29,14.42c-.27,1.12-1,1.71-2.09,1.36S131.4,210.37,131.44,209.42Z"/><path class="cls-30" d="M324.29,376.48a2.1,2.1,0,0,1-1.64,1.83l-14.39,4.63c-1.2.38-2.22.17-2.5-1.17s.75-1.59,1.72-1.89c4.7-1.49,9.4-3,14.08-4.52C322.93,374.9,323.84,375.07,324.29,376.48Z"/><path class="cls-30" d="M280.74,387.58h-5.45c-1,0-1.74-.44-1.81-1.43-.09-1.2.73-1.58,1.86-1.67,5-.38,10-.81,15-1.23,1-.08,2.08,0,2.26,1.21.22,1.39-.83,1.81-2,1.94-3.3.35-6.6.68-9.89,1Z"/><path class="cls-30" d="M415.46,253.78c-.51,4.08-1,8.43-1.62,12.78-.16,1.13-.29,2.62-2,2.32s-1.23-1.68-1.09-2.85c.5-4.25,1-8.5,1.46-12.75.16-1.39-.4-3.56,1.78-3.43S415.18,252.15,415.46,253.78Z"/><path class="cls-30" d="M415.41,232.45c-.11,2,.49,3.72-1.28,3.93-2.07.24-1.76-1.63-1.92-3-.53-4.46-1.06-8.92-1.65-13.37-.17-1.29-.22-2.54,1.35-2.72s1.61,1.11,1.76,2.2C414.28,224.07,414.9,228.63,415.41,232.45Z"/><path class="cls-30" d="M131.39,228.43a112,112,0,0,0-.8,12.91c0,1.17.07,2.69-1.56,2.68s-1.53-1.5-1.47-2.69c.25-4.4.48-8.8.82-13.19.1-1.28-.21-3.31,1.86-3.09S131.17,227.24,131.39,228.43Z"/><path class="cls-30" d="M174.48,140.47c0,.74-.45,1.17-.91,1.63a143.41,143.41,0,0,0-9.88,10.59c-.66.8-1.43,1.88-2.63.81s-.3-1.94.4-2.77a125.2,125.2,0,0,1,9.86-10.61c.62-.59,1.27-1.22,2.26-.86A1.35,1.35,0,0,1,174.48,140.47Z"/><path class="cls-30" d="M386.46,157.88c.89,0,1.33.58,1.77,1.19a128.23,128.23,0,0,1,8.07,12.43c.57,1,1,2.05-.31,2.75s-1.89-.43-2.47-1.32l-7.7-11.9c-.47-.72-1-1.41-.64-2.36A1.3,1.3,0,0,1,386.46,157.88Z"/><path class="cls-30" d="M409.66,202.58a1.45,1.45,0,0,1-1.07,1.73,1.4,1.4,0,0,1-1.8-.94c-1.88-5.11-3.74-10.21-5.55-15.34a1.36,1.36,0,0,1,.89-1.83,1.59,1.59,0,0,1,1.91.74C404.77,188,409.67,201.44,409.66,202.58Z"/><path class="cls-30" d="M200.4,120.55c.07,1.18-.74,1.58-1.44,2-4,2.68-8,5.34-12,8.06-1,.66-1.89,1.24-2.72,0-.73-1.08.1-1.84.89-2.38q6.23-4.23,12.51-8.37C198.85,119.13,199.89,119.08,200.4,120.55Z"/><path class="cls-30" d="M129.72,257.45c1.09.06,1.5.8,1.62,1.7.65,5.09,1.42,10.16,2.56,15.17a1.57,1.57,0,0,1-1,2.07c-1.21.33-1.81-.52-2-1.55q-1.31-7.59-2.52-15.2A1.76,1.76,0,0,1,129.72,257.45Z"/><path class="cls-30" d="M228.24,378.93c-.3,1.37-1.2,1.61-2.42,1.23a110.26,110.26,0,0,1-12.91-5c-.87-.4-1.43-1.1-1.06-2.06.45-1.19,1.48-1.07,2.44-.7,4.21,1.61,8.41,3.26,12.62,4.87A1.75,1.75,0,0,1,228.24,378.93Z"/><polygon class="cls-30" points="219.44 329.96 219.65 329.85 219.62 330.11 219.44 329.96"/><path class="cls-30" d="M181.46,307.63h-9.68c-1.15,0-2.36-.12-2.31-1.56s1.21-1.53,2.38-1.53c6.35,0,12.7,0,19.05,0,1.12,0,2.36,0,2.44,1.45.11,1.77-1.36,1.61-2.52,1.62C187.7,307.65,184.58,307.63,181.46,307.63Z"/><path class="cls-30" d="M275.16,227.57a7,7,0,0,1-1.38-.83q-3.36-3.27-6.65-6.59c-.73-.74-1.24-1.63-.26-2.5s1.79-.32,2.54.43c.15.15.29.32.45.45,1.88,1.52,3.26,4.82,5.38,4.49s3.63-3.09,5.38-4.82c2.45-2.42,4.86-4.88,7.31-7.3.71-.71,1.54-1.38,2.5-.51s.53,1.78-.21,2.53q-6.83,6.87-13.68,13.69A9.22,9.22,0,0,1,275.16,227.57Z"/></svg>