<svg id="Layer_1" data-name="Layer 1" xmlns="http://www.w3.org/2000/svg" xmlns:xlink="http://www.w3.org/1999/xlink" viewBox="0 0 543 490"><defs><style>.cls-1{fill:url(#linear-gradient);}.cls-2{fill:#2a2a8c;}.cls-3{fill:url(#linear-gradient-2);}.cls-4{opacity:0.9;fill:url(#linear-gradient-3);}.cls-5{fill:url(#linear-gradient-4);}.cls-6{fill:url(#linear-gradient-5);}.cls-7{fill:url(#linear-gradient-6);}.cls-8{fill:url(#linear-gradient-7);}.cls-9{fill:url(#linear-gradient-8);}.cls-10{fill:url(#linear-gradient-9);}.cls-11{fill:url(#linear-gradient-10);}.cls-12,.cls-13,.cls-14,.cls-15,.cls-18,.cls-19,.cls-20,.cls-21,.cls-22,.cls-23,.cls-28,.cls-29{fill-opacity:0.2;}.cls-12{fill:url(#linear-gradient-11);}.cls-13{fill:url(#linear-gradient-12);}.cls-14{fill:url(#linear-gradient-13);}.cls-15{fill:url(#linear-gradient-14);}.cls-16{fill:url(#linear-gradient-15);}.cls-17{fill:url(#linear-gradient-16);}.cls-18{fill:url(#linear-gradient-17);}.cls-19{fill:url(#linear-gradient-18);}.cls-20{fill:url(#linear-gradient-19);}.cls-21{fill:url(#linear-gradient-20);}.cls-22{fill:url(#linear-gradient-21);}.cls-23{fill:url(#linear-gradient-22);}.cls-24{fill:url(#linear-gradient-23);}.cls-25{fill:url(#linear-gradient-24);}.cls-26{fill:url(#linear-gradient-25);}.cls-27{fill:url(#linear-gradient-26);}.cls-28{fill:url(#linear-gradient-27);}.cls-29{fill:url(#linear-gradient-28);}.cls-30{fill:none;stroke:#39ffff;stroke-miterlimit:10;stroke-width:2px;}</style><linearGradient id="linear-gradient" x1="0.21" y1="137.11" x2="100.9" y2="137.11" gradientUnits="userSpaceOnUse"><stop offset="0.04" stop-color="#3a3adb"/><stop offset="0.99" stop-color="#2a2a8c"/></linearGradient><linearGradient id="linear-gradient-2" x1="50.45" y1="221.61" x2="542.33" y2="221.61" gradientUnits="userSpaceOnUse"><stop offset="0.04" stop-color="#3a3adb"/><stop offset="0.77" stop-color="#2a2a8c"/></linearGradient><linearGradient id="linear-gradient-3" x1="0.16" y1="279.25" x2="446.97" y2="279.25" gradientUnits="userSpaceOnUse"><stop offset="0.04" stop-color="#3a3adb"/><stop offset="0.99" stop-color="#2a47c9"/></linearGradient><linearGradient id="linear-gradient-4" x1="340.93" y1="347.57" x2="474.87" y2="347.57" xlink:href="#linear-gradient"/><linearGradient id="linear-gradient-5" x1="71.3" y1="42.35" x2="73.9" y2="42.35" xlink:href="#linear-gradient"/><linearGradient id="linear-gradient-6" x1="71.3" y1="21.65" x2="73.9" y2="21.65" xlink:href="#linear-gradient"/><linearGradient id="linear-gradient-7" x1="77.5" y1="37.3" x2="87.4" y2="37.3" xlink:href="#linear-gradient"/><linearGradient id="linear-gradient-8" x1="57.8" y1="26.5" x2="67.7" y2="26.5" xlink:href="#linear-gradient"/><linearGradient id="linear-gradient-9" x1="57.7" y1="37.3" x2="67.6" y2="37.3" xlink:href="#linear-gradient"/><linearGradient id="linear-gradient-10" x1="77.5" y1="26.5" x2="87.4" y2="26.5" xlink:href="#linear-gradient"/><linearGradient id="linear-gradient-11" x1="208.8" y1="73.75" x2="211.41" y2="73.75" xlink:href="#linear-gradient"/><linearGradient id="linear-gradient-12" x1="208.8" y1="53.05" x2="211.41" y2="53.05" xlink:href="#linear-gradient"/><linearGradient id="linear-gradient-13" x1="193.5" y1="63.4" x2="204.21" y2="63.4" xlink:href="#linear-gradient"/><linearGradient id="linear-gradient-14" x1="216" y1="63.4" x2="226.71" y2="63.4" xlink:href="#linear-gradient"/><linearGradient id="linear-gradient-15" x1="55.91" y1="421.27" x2="90.05" y2="421.27" xlink:href="#linear-gradient"/><linearGradient id="linear-gradient-16" x1="56.05" y1="400.53" x2="90.14" y2="400.53" xlink:href="#linear-gradient"/><linearGradient id="linear-gradient-17" x1="345.5" y1="278.75" x2="348.1" y2="278.75" xlink:href="#linear-gradient-3"/><linearGradient id="linear-gradient-18" x1="345.5" y1="258.05" x2="348.1" y2="258.05" xlink:href="#linear-gradient-3"/><linearGradient id="linear-gradient-19" x1="351.8" y1="273.8" x2="361.7" y2="273.8" xlink:href="#linear-gradient-3"/><linearGradient id="linear-gradient-20" x1="332" y1="263" x2="341.9" y2="263" xlink:href="#linear-gradient-3"/><linearGradient id="linear-gradient-21" x1="331.9" y1="273.8" x2="341.8" y2="273.8" xlink:href="#linear-gradient-3"/><linearGradient id="linear-gradient-22" x1="351.7" y1="263" x2="361.6" y2="263" xlink:href="#linear-gradient-3"/><linearGradient id="linear-gradient-23" x1="474.1" y1="410.95" x2="476.7" y2="410.95" xlink:href="#linear-gradient"/><linearGradient id="linear-gradient-24" x1="474.1" y1="390.25" x2="476.7" y2="390.25" xlink:href="#linear-gradient"/><linearGradient id="linear-gradient-25" x1="458.8" y1="400.6" x2="469.5" y2="400.6" xlink:href="#linear-gradient"/><linearGradient id="linear-gradient-26" x1="481.2" y1="400.6" x2="491.91" y2="400.6" xlink:href="#linear-gradient"/><linearGradient id="linear-gradient-27" x1="480.31" y1="231.57" x2="514.45" y2="231.57" gradientUnits="userSpaceOnUse"><stop offset="0.04" stop-color="#3a3adb"/><stop offset="0.99" stop-color="#2a4b8c"/></linearGradient><linearGradient id="linear-gradient-28" x1="480.35" y1="210.83" x2="514.49" y2="210.83" xlink:href="#linear-gradient-27"/></defs><path class="cls-1" d="M89.5,126.5C79,109.2,68,97.8,50.6,89.7s-39.1-8.2-48,11.2,8.6,43.5,33.2,44.9c28.3,1.5,43.4,14.6,45,34,1,12.1,14.5,12.5,17.3,4.6C103.3,170,101.7,146.7,89.5,126.5Z"/><path class="cls-2" d="M311.5,26.9C194.9-92.8,68.2,219.8,35.7,320.8S140.6,438.1,233,456.2c147.6,28.8,215.2-27,226.7-94.2S428.1,146.7,311.5,26.9Z"/><path class="cls-3" d="M386.9,175.8C325,186.6,282.7,128,254.2,91.9c-22.4-28.4-116.5-75.1-175,8.7-53,76-31.1,189.1,52.3,246.4S342,399,420.9,363.5c49.9-22.4,112.9-64.1,120.7-123.3C550.2,175.4,481.9,159.3,386.9,175.8Z"/><path class="cls-4" d="M397.7,68.5c-2.5-.1-5-.1-7.6-.1-41.1,0-92.8,10.3-129.7,22.4L255,92.6c1.1,1.4,2.3,2.9,3.5,4.4,1.3-.4,2.5-.8,3.8-1.3,41-13.5,91.2-22.1,127.9-22.1,2.5,0,5,0,7.4.1,17.3.6,30.3,6.3,37.5,16.5,8.6,12.2,8.6,30.8-.1,52.2-3.9,9.7-7.2,18.9-9.9,28-11,36.6-13.6,72.1-14.2,134.2-.1,14.2,0,27.3.1,40,.1,8,.1,15.5.1,22.8,0,44.1-2.7,74.5-23,94.1-15.8,15.2-34.3,23.3-53.6,23.3-21.2,0-42.9-9.5-64.3-28.3C222.8,415,164,386,104.6,374.7c-45.6-8.7-81.4-17-93.8-36.9-6.7-10.9-6.7-25.6,0-45,6.3-18.1,18.4-43.1,41.9-70.5-.4-2.4-.7-4.8-1-7.1-23.6,26.5-38.1,52.7-46.2,76-21.7,62.6,25.1,74.8,97.9,88.7,58.6,11.2,115.8,39.3,162.8,80.5,24,21,47.1,29.7,68.1,29.7,22.1,0,41.8-9.7,57.6-24.9,22.1-21.4,24.6-53.8,24.6-100.1,0-18-.4-38.1-.2-60.4.6-64.3,3.4-98.8,14.5-134.7,2.6-8.3,5.7-16.8,9.2-25.6C458.1,99.7,439.9,69.9,397.7,68.5Z"/><path class="cls-5" d="M459.8,308.7c-35.5-38.4-76.5-14-105.7,29.4-27.1,40.3-10.6,87.6,33.3,58.4,38.3-25.4,61.6-18,78.7-35.1C489,338.7,459.8,308.7,459.8,308.7Z"/><path class="cls-6" d="M72.6,47.7a1.32,1.32,0,0,1-1.3-1.3V38.3a1.3,1.3,0,1,1,2.6,0v8.1A1.4,1.4,0,0,1,72.6,47.7Z"/><path class="cls-7" d="M72.6,27a1.32,1.32,0,0,1-1.3-1.3V17.6a1.3,1.3,0,1,1,2.6,0v8.1A1.32,1.32,0,0,1,72.6,27Z"/><path class="cls-8" d="M85.3,40.3l-7.1-3.8a1.13,1.13,0,0,1-.5-1.7,1.54,1.54,0,0,1,1.9-.5l7.1,3.8a1.13,1.13,0,0,1,.5,1.7A1.54,1.54,0,0,1,85.3,40.3Z"/><path class="cls-9" d="M65.6,29.5l-7.1-3.8A1.13,1.13,0,0,1,58,24a1.54,1.54,0,0,1,1.9-.5L67,27.3a1.13,1.13,0,0,1,.5,1.7A1.57,1.57,0,0,1,65.6,29.5Z"/><path class="cls-10" d="M57.9,39.8a1.13,1.13,0,0,1,.5-1.7l7.1-3.8a1.54,1.54,0,0,1,1.9.5,1.13,1.13,0,0,1-.5,1.7l-7.1,3.8A1.54,1.54,0,0,1,57.9,39.8Z"/><path class="cls-11" d="M77.7,29a1.13,1.13,0,0,1,.5-1.7l7.1-3.8a1.54,1.54,0,0,1,1.9.5,1.13,1.13,0,0,1-.5,1.7l-7.1,3.8A1.54,1.54,0,0,1,77.7,29Z"/><path class="cls-12" d="M210.1,79.1a1.32,1.32,0,0,1-1.3-1.3V69.7a1.3,1.3,0,0,1,2.6,0v8.1A1.21,1.21,0,0,1,210.1,79.1Z"/><path class="cls-13" d="M210.1,58.4a1.32,1.32,0,0,1-1.3-1.3V49a1.3,1.3,0,0,1,2.6,0v8.1A1.21,1.21,0,0,1,210.1,58.4Z"/><path class="cls-14" d="M202.9,64.7h-8.1a1.3,1.3,0,0,1,0-2.6h8.1a1.32,1.32,0,0,1,1.3,1.3A1.21,1.21,0,0,1,202.9,64.7Z"/><path class="cls-15" d="M225.4,64.7h-8.1a1.3,1.3,0,0,1,0-2.6h8.1a1.32,1.32,0,0,1,1.3,1.3A1.21,1.21,0,0,1,225.4,64.7Z"/><path class="cls-16" d="M73,428a17.92,17.92,0,0,1-17-11.7,1.27,1.27,0,0,1,1-1.7,1.31,1.31,0,0,1,1.6.8,15.42,15.42,0,0,0,28.8,0,1.38,1.38,0,0,1,2.6.9A18.06,18.06,0,0,1,73,428Z"/><path class="cls-17" d="M89.1,407.2a1.31,1.31,0,0,1-1.6-.8,15.42,15.42,0,0,0-28.8,0,1.38,1.38,0,0,1-2.6-.9,18.2,18.2,0,0,1,34,0A1.45,1.45,0,0,1,89.1,407.2Z"/><path class="cls-18" d="M346.8,284.1a1.32,1.32,0,0,1-1.3-1.3v-8.1a1.3,1.3,0,0,1,2.6,0v8.1A1.32,1.32,0,0,1,346.8,284.1Z"/><path class="cls-19" d="M346.8,263.4a1.32,1.32,0,0,1-1.3-1.3V254a1.3,1.3,0,0,1,2.6,0v8.1A1.32,1.32,0,0,1,346.8,263.4Z"/><path class="cls-20" d="M359.6,276.8l-7.1-3.8a1.13,1.13,0,0,1-.5-1.7,1.54,1.54,0,0,1,1.9-.5l7.1,3.8a1.13,1.13,0,0,1,.5,1.7A1.57,1.57,0,0,1,359.6,276.8Z"/><path class="cls-21" d="M339.8,266l-7.1-3.8a1.13,1.13,0,0,1-.5-1.7,1.54,1.54,0,0,1,1.9-.5l7.1,3.8a1.13,1.13,0,0,1,.5,1.7A1.57,1.57,0,0,1,339.8,266Z"/><path class="cls-22" d="M332.1,276.3a1.13,1.13,0,0,1,.5-1.7l7.1-3.8a1.54,1.54,0,0,1,1.9.5,1.13,1.13,0,0,1-.5,1.7l-7.1,3.8A1.57,1.57,0,0,1,332.1,276.3Z"/><path class="cls-23" d="M351.9,265.5a1.13,1.13,0,0,1,.5-1.7l7.1-3.8a1.54,1.54,0,0,1,1.9.5,1.13,1.13,0,0,1-.5,1.7l-7.1,3.8A1.54,1.54,0,0,1,351.9,265.5Z"/><path class="cls-24" d="M475.4,416.3a1.32,1.32,0,0,1-1.3-1.3v-8.1a1.3,1.3,0,0,1,2.6,0V415A1.32,1.32,0,0,1,475.4,416.3Z"/><path class="cls-25" d="M475.4,395.6a1.32,1.32,0,0,1-1.3-1.3v-8.1a1.3,1.3,0,0,1,2.6,0v8.1A1.32,1.32,0,0,1,475.4,395.6Z"/><path class="cls-26" d="M468.2,401.9h-8.1a1.3,1.3,0,0,1,0-2.6h8.1a1.3,1.3,0,1,1,0,2.6Z"/><path class="cls-27" d="M490.6,401.9h-8.1a1.3,1.3,0,0,1,0-2.6h8.1a1.32,1.32,0,0,1,1.3,1.3A1.21,1.21,0,0,1,490.6,401.9Z"/><path class="cls-28" d="M497.4,238.3a17.92,17.92,0,0,1-17-11.7,1.27,1.27,0,0,1,1-1.7,1.31,1.31,0,0,1,1.6.8,15.42,15.42,0,0,0,28.8,0,1.38,1.38,0,0,1,2.6.9A18.06,18.06,0,0,1,497.4,238.3Z"/><path class="cls-29" d="M513.4,217.5a1.31,1.31,0,0,1-1.6-.8,15.42,15.42,0,0,0-28.8,0,1.38,1.38,0,0,1-2.6-.9,18.2,18.2,0,0,1,34,0A1.3,1.3,0,0,1,513.4,217.5Z"/><path class="cls-30" d="M316.65,213.57V193.74a1.71,1.71,0,0,0-1.17-1.94c-4.41-1.91-7.28-1.34-10.28,2.36-8,9.89-16,19.82-24.11,29.67-1.32,1.6-1.73,2.76-.69,4.87a13.24,13.24,0,0,1-3.15,16.19,13.8,13.8,0,0,1-16.52,1.56,13.52,13.52,0,0,1-6.08-15.37c.52-2.07.15-3.27-1.53-4.36a16.64,16.64,0,0,1-2.66-2.23c-4.4-4.41-8.23-7.52-15-2.52-5.2,3.84-12.25,3-18.38.29-2.16-.95-3.25-.64-4.61,1.2-5.35,7.2-10.76,14.38-16.38,21.37-1.69,2.11-1.37,3.46-.11,5.56a16.8,16.8,0,0,1-2.91,21.05,17.36,17.36,0,1,1-11.39-29.89,2.19,2.19,0,0,1,.86,0c5.81,3.19,8.27-.89,11.11-4.83,4.22-5.88,8.72-11.55,13.19-17.24,1.36-1.73,1.82-2.88.2-5-7.58-10-6.71-23,1.8-31.68a24.16,24.16,0,0,1,31-3.17c10,6.74,13.46,19,8.42,30.27-.92,2.05-.95,3.31,1,4.58a30.87,30.87,0,0,1,4,3.31c3.47,3.23,6.77,6.63,12.11,3.15a5.18,5.18,0,0,1,4.23-.13c3.66,1.64,5.4-.32,7.44-2.9,7.71-9.78,15.61-19.41,23.43-29.1a9.27,9.27,0,0,0,.54-1,78.17,78.17,0,0,1-21.4-13.65c-6.29-5.62-6.33-12.68,0-18.24,28.6-25.08,66.57-25.06,95,.07,6.16,5.44,6.21,12.51.16,18-9.77,8.79-20.89,14.94-33.9,17.41-2,.38-4,.63-3.42,3.63.48,2.53-1.19,5.59,3.29,6.54,9.6,2,19.09,4.64,28.63,7,7.26,1.79,9.85,5.06,9.86,12.58,0,9-.46,18,.12,26.94.7,10.8-2.08,20.1-9.82,27.63-3.26,3.17-3.34,5.8-.3,9,2.64,2.77,3.16,6.16,3.12,10-.18,15.78,0,31.58-.13,47.37,0,2.73.2,4.56,3.57,3.89,2.91-.58,3.5.77,3.55,3.51.05,2.92-.87,3.51-3.63,3.51q-104.33-.12-208.65,0c-2.83,0-3.6-.72-3.59-3.55s.75-4,3.59-3.49,3.63-.65,3.54-3.49c-.21-7.09-.12-14.19,0-21.29,0-2-.34-3.25-2.41-4.4-4.53-2.51-5.77-7.18-3.51-12,2.59-5.48,5.4-10.87,8.15-16.27a9.09,9.09,0,0,1,16.36,0c2.7,5.27,5.41,10.54,8,15.88s1.32,9.69-3.75,12.59c-1.79,1-2,2.1-2,3.76,0,7.39.05,14.78,0,22.17,0,1.94,0,3.19,2.67,3.1,6.37-.23,12.75-.17,19.12,0,2.17.05,2.61-.7,2.61-2.71q-.09-37.6,0-75.2c0-1.68-.62-2.4-2.07-3.26-5-3-6.19-7.33-3.64-12.64s5.14-10.35,7.74-15.51c1.7-3.38,4.37-5.39,8.22-5.45,4-.06,6.82,2,8.59,5.54,2.6,5.16,5.26,10.3,7.74,15.52s1.3,9.64-3.8,12.56c-1.81,1-1.94,2.16-1.94,3.79q0,37.17,0,74.33c0,2,.12,3.17,2.71,3.05,5.21-.23,10.44-.18,15.65,0,2.22.07,2.57-.8,2.56-2.76q-.09-25.22,0-50.42a3.55,3.55,0,0,0-2.09-3.69c-4.85-2.79-6.15-7.23-3.78-12.25,2.52-5.36,5.26-10.61,7.93-15.9,1.7-3.38,4.39-5.37,8.23-5.41a8.78,8.78,0,0,1,8.36,5.2c2.76,5.4,5.56,10.79,8.14,16.28,2.25,4.81.94,9.35-3.65,12a3.86,3.86,0,0,0-2.32,4c.06,16.67.1,33.33,0,50,0,2.62.92,3,3.22,3,8.26-.12,16.53-.21,24.78,0,3.1.09,3.43-1.1,3.41-3.7-.1-15.79.05-31.59-.12-47.38,0-3.93.44-7.46,3.2-10.37s3-5.65-.22-8.62a41.39,41.39,0,0,1-5.14-6.44,23.92,23.92,0,0,1-4.72-14.17c0-3.33-.22-6.68,0-10a32.72,32.72,0,0,0-4.37-18.68c-3.67-6.71-3.4-10.36.23-13.82,3.37-3.22,8.82-3.39,14.63-.52C314.26,212.74,315,213.82,316.65,213.57ZM337.53,208c0,11.33,0,22.33,0,33.33,0,2.41,0,4-3.28,3.86-3-.09-3.82-.72-3.8-3.81.14-22,.08-44,.07-66a33.48,33.48,0,0,0-.05-3.47,3.42,3.42,0,0,0-6.83-.06,30.83,30.83,0,0,0-.06,3.47c0,22.3-.05,44.6.07,66.91,0,2.74-1.08,3.09-3.3,2.89-1.9-.17-4.06.66-3.81-2.82.31-4.47.17-9,0-13.46a11.67,11.67,0,0,0-8.7-11.15c-1.51-.41-3.15-1-4.49.34-1.57,1.59-.19,3.09.57,4.3a39.63,39.63,0,0,1,5.74,24.9c-.2,2.45,0,4.92,0,7.38a17.66,17.66,0,0,0,4,11.64c2.08,2.6,4.28,5.11,6.19,7.83,1.33,1.91,2.91,2.38,5.12,2.35,8.4-.12,16.84-.54,25.2.1,7.19.55,12.06-1.49,16.22-7.61,3.65-5.37,6.14-10.52,5.92-17.15-.31-9.69-.08-19.4-.08-29.1,0-6.37-.09-6.47-6.94-7.61,0,8.85-.1,17.66.06,26.47,0,2.68-.46,3.78-3.47,3.67-2.65-.09-3.73-.49-3.64-3.5.24-7.67.08-15.35.08-23,0-6.47,0-6.47-6.94-6.75,0,10-.12,20,.07,30,.06,2.79-.82,3.34-3.4,3.29s-3.82-.25-3.73-3.41c.26-8.68.09-17.37.09-26.06C344.48,209.26,344.48,209.26,337.53,208Zm27.82,110.27c0-8.25.06-16.51,0-24.77a10.63,10.63,0,0,0-10.19-10.19H326.88a10.61,10.61,0,0,0-10.19,10.19c-.07,16.52,0,33-.07,49.55,0,2.25.57,2.91,2.87,2.9q21.51-.17,43,0c2.3,0,2.91-.64,2.88-2.9C365.27,334.75,365.35,326.49,365.35,318.23ZM222.76,301.94c0,13.32.05,26.64,0,40,0,2.61,0,4.13,3.49,4.11s3.56-1.35,3.55-4.05c-.08-26.5,0-53-.1-79.5,0-2.65.41-3.94,3.44-3.61s4.39-1,2.78-4.15c-2.43-4.76-4.68-9.61-7.18-14.33-1.62-3.07-3.29-3.09-4.91-.05-2.5,4.72-4.74,9.57-7.17,14.33-1.57,3.07-.51,4.52,2.7,4.2,2.92-.28,3.54.79,3.51,3.56C222.68,275.58,222.76,288.76,222.76,301.94Zm41.73,12.49c0,9.27.08,18.53,0,27.8,0,2.56.26,3.76,3.38,3.76s3.7-1,3.68-3.92c-.14-18.39,0-36.78-.11-55.16,0-2.47.09-4.1,3.32-3.72,3.59.42,4.39-1.33,2.77-4.46-2.32-4.49-4.57-9-6.82-13.53-.59-1.17-1-2.57-2.57-2.64-1.81-.09-2.25,1.5-2.9,2.79-2.19,4.39-4.46,8.74-6.61,13.15-1.8,3.68-1.25,4.83,2.78,4.66,2.95-.13,3.21,1,3.17,3.47C264.42,295.9,264.49,305.16,264.49,314.43Zm-38.44-97.25a17.39,17.39,0,1,0-17.2-17.57A17.44,17.44,0,0,0,226.05,217.18ZM337.7,178.3a16.58,16.58,0,0,0,5.62-19.55,17.37,17.37,0,0,0-33.13,2.34c-1.66,6.6.95,13.71,6.17,16.81,1.26-12.41,3.93-16.43,10.87-16.34S337.06,166,337.7,178.3Zm-160.16,150c0,4.92.19,9.85-.07,14.76-.15,2.86,1.21,3,3.34,2.85,2-.12,3.87.53,3.77-2.88-.27-9.25,0-18.52-.13-27.78,0-2.71-.14-4.78,3.7-4.23,2.92.42,4-1.09,2.56-4-2.41-4.77-4.68-9.6-7.16-14.33-1.71-3.27-3.35-3.25-5.09,0-2.29,4.33-4.43,8.75-6.6,13.15-2.09,4.24-1.67,5.14,2.92,5.13,2.37,0,2.88.77,2.81,2.94C177.44,318.71,177.54,323.49,177.54,328.27Zm166-144.71a61,61,0,0,0,27.78-16c1.87-1.83,1.28-4-.56-5.74a65.57,65.57,0,0,0-22.69-14c-1-.38-2.18-.72-3.23.1C352.92,158.33,354.87,170,343.49,183.56Zm-32.56,0c-9.75-11.09-11.07-22.19-2.77-33.87.42-.59,1-1.2.41-1.84s-1.65-.37-2.46-.08a64.48,64.48,0,0,0-22.93,14.34,3.65,3.65,0,0,0,0,5.74C290.93,175.19,299.71,180.72,310.93,183.6ZM191.44,259a10.43,10.43,0,1,0-10.64,10.32A10.5,10.5,0,0,0,191.44,259Zm83.47-24.52a6.95,6.95,0,1,0-6.76,7A7,7,0,0,0,274.91,234.5Z"/><path class="cls-30" d="M236.65,199.64A10.42,10.42,0,1,1,226,189.38,10.51,10.51,0,0,1,236.65,199.64Zm-6.92-.22c-.47-1.64-1.4-3.07-3.46-3a3.19,3.19,0,0,0-3.44,3.57,3.14,3.14,0,0,0,3.35,3.24C228.41,203.21,229.51,201.79,229.73,199.42Z"/></svg>