<svg id="Layer_1" data-name="Layer 1" xmlns="http://www.w3.org/2000/svg" xmlns:xlink="http://www.w3.org/1999/xlink" viewBox="0 0 543 490"><defs><style>.cls-1{fill:url(#linear-gradient);}.cls-2{fill:#2a2a8c;}.cls-3{fill:url(#linear-gradient-2);}.cls-4{opacity:0.9;fill:url(#linear-gradient-3);}.cls-5{fill:url(#linear-gradient-4);}.cls-6{fill:url(#linear-gradient-5);}.cls-7{fill:url(#linear-gradient-6);}.cls-8{fill:url(#linear-gradient-7);}.cls-9{fill:url(#linear-gradient-8);}.cls-10{fill:url(#linear-gradient-9);}.cls-11{fill:url(#linear-gradient-10);}.cls-12,.cls-13,.cls-14,.cls-15,.cls-18,.cls-19,.cls-20,.cls-21,.cls-22,.cls-23,.cls-28,.cls-29{fill-opacity:0.2;}.cls-12{fill:url(#linear-gradient-11);}.cls-13{fill:url(#linear-gradient-12);}.cls-14{fill:url(#linear-gradient-13);}.cls-15{fill:url(#linear-gradient-14);}.cls-16{fill:url(#linear-gradient-15);}.cls-17{fill:url(#linear-gradient-16);}.cls-18{fill:url(#linear-gradient-17);}.cls-19{fill:url(#linear-gradient-18);}.cls-20{fill:url(#linear-gradient-19);}.cls-21{fill:url(#linear-gradient-20);}.cls-22{fill:url(#linear-gradient-21);}.cls-23{fill:url(#linear-gradient-22);}.cls-24{fill:url(#linear-gradient-23);}.cls-25{fill:url(#linear-gradient-24);}.cls-26{fill:url(#linear-gradient-25);}.cls-27{fill:url(#linear-gradient-26);}.cls-28{fill:url(#linear-gradient-27);}.cls-29{fill:url(#linear-gradient-28);}.cls-30,.cls-31{fill:none;}.cls-30{stroke:#39ffff;stroke-miterlimit:10;stroke-width:2px;}</style><linearGradient id="linear-gradient" x1="0.21" y1="137.11" x2="100.9" y2="137.11" gradientUnits="userSpaceOnUse"><stop offset="0.04" stop-color="#3a3adb"/><stop offset="0.99" stop-color="#2a2a8c"/></linearGradient><linearGradient id="linear-gradient-2" x1="50.45" y1="221.61" x2="542.33" y2="221.61" gradientUnits="userSpaceOnUse"><stop offset="0.04" stop-color="#3a3adb"/><stop offset="0.77" stop-color="#2a2a8c"/></linearGradient><linearGradient id="linear-gradient-3" x1="0.16" y1="279.25" x2="446.97" y2="279.25" gradientUnits="userSpaceOnUse"><stop offset="0.04" stop-color="#3a3adb"/><stop offset="0.99" stop-color="#2a47c9"/></linearGradient><linearGradient id="linear-gradient-4" x1="340.93" y1="347.57" x2="474.87" y2="347.57" xlink:href="#linear-gradient"/><linearGradient id="linear-gradient-5" x1="71.3" y1="42.35" x2="73.9" y2="42.35" xlink:href="#linear-gradient"/><linearGradient id="linear-gradient-6" x1="71.3" y1="21.65" x2="73.9" y2="21.65" xlink:href="#linear-gradient"/><linearGradient id="linear-gradient-7" x1="77.5" y1="37.3" x2="87.4" y2="37.3" xlink:href="#linear-gradient"/><linearGradient id="linear-gradient-8" x1="57.8" y1="26.5" x2="67.7" y2="26.5" xlink:href="#linear-gradient"/><linearGradient id="linear-gradient-9" x1="57.7" y1="37.3" x2="67.6" y2="37.3" xlink:href="#linear-gradient"/><linearGradient id="linear-gradient-10" x1="77.5" y1="26.5" x2="87.4" y2="26.5" xlink:href="#linear-gradient"/><linearGradient id="linear-gradient-11" x1="208.8" y1="73.75" x2="211.41" y2="73.75" xlink:href="#linear-gradient"/><linearGradient id="linear-gradient-12" x1="208.8" y1="53.05" x2="211.41" y2="53.05" xlink:href="#linear-gradient"/><linearGradient id="linear-gradient-13" x1="193.5" y1="63.4" x2="204.21" y2="63.4" xlink:href="#linear-gradient"/><linearGradient id="linear-gradient-14" x1="216" y1="63.4" x2="226.71" y2="63.4" xlink:href="#linear-gradient"/><linearGradient id="linear-gradient-15" x1="55.91" y1="421.27" x2="90.05" y2="421.27" xlink:href="#linear-gradient"/><linearGradient id="linear-gradient-16" x1="56.05" y1="400.53" x2="90.14" y2="400.53" xlink:href="#linear-gradient"/><linearGradient id="linear-gradient-17" x1="345.5" y1="278.75" x2="348.1" y2="278.75" xlink:href="#linear-gradient-3"/><linearGradient id="linear-gradient-18" x1="345.5" y1="258.05" x2="348.1" y2="258.05" xlink:href="#linear-gradient-3"/><linearGradient id="linear-gradient-19" x1="351.8" y1="273.8" x2="361.7" y2="273.8" xlink:href="#linear-gradient-3"/><linearGradient id="linear-gradient-20" x1="332" y1="263" x2="341.9" y2="263" xlink:href="#linear-gradient-3"/><linearGradient id="linear-gradient-21" x1="331.9" y1="273.8" x2="341.8" y2="273.8" xlink:href="#linear-gradient-3"/><linearGradient id="linear-gradient-22" x1="351.7" y1="263" x2="361.6" y2="263" xlink:href="#linear-gradient-3"/><linearGradient id="linear-gradient-23" x1="474.1" y1="410.95" x2="476.7" y2="410.95" xlink:href="#linear-gradient"/><linearGradient id="linear-gradient-24" x1="474.1" y1="390.25" x2="476.7" y2="390.25" xlink:href="#linear-gradient"/><linearGradient id="linear-gradient-25" x1="458.8" y1="400.6" x2="469.5" y2="400.6" xlink:href="#linear-gradient"/><linearGradient id="linear-gradient-26" x1="481.2" y1="400.6" x2="491.91" y2="400.6" xlink:href="#linear-gradient"/><linearGradient id="linear-gradient-27" x1="480.31" y1="231.57" x2="514.45" y2="231.57" gradientUnits="userSpaceOnUse"><stop offset="0.04" stop-color="#3a3adb"/><stop offset="0.99" stop-color="#2a4b8c"/></linearGradient><linearGradient id="linear-gradient-28" x1="480.35" y1="210.83" x2="514.49" y2="210.83" xlink:href="#linear-gradient-27"/></defs><path class="cls-1" d="M89.5,126.5C79,109.2,68,97.8,50.6,89.7s-39.1-8.2-48,11.2,8.6,43.5,33.2,44.9c28.3,1.5,43.4,14.6,45,34,1,12.1,14.5,12.5,17.3,4.6C103.3,170,101.7,146.7,89.5,126.5Z"/><path class="cls-2" d="M311.5,26.9C194.9-92.8,68.2,219.8,35.7,320.8S140.6,438.1,233,456.2c147.6,28.8,215.2-27,226.7-94.2S428.1,146.7,311.5,26.9Z"/><path class="cls-3" d="M386.9,175.8C325,186.6,282.7,128,254.2,91.9c-22.4-28.4-116.5-75.1-175,8.7-53,76-31.1,189.1,52.3,246.4S342,399,420.9,363.5c49.9-22.4,112.9-64.1,120.7-123.3C550.2,175.4,481.9,159.3,386.9,175.8Z"/><path class="cls-4" d="M397.7,68.5c-2.5-.1-5-.1-7.6-.1-41.1,0-92.8,10.3-129.7,22.4L255,92.6c1.1,1.4,2.3,2.9,3.5,4.4,1.3-.4,2.5-.8,3.8-1.3,41-13.5,91.2-22.1,127.9-22.1,2.5,0,5,0,7.4.1,17.3.6,30.3,6.3,37.5,16.5,8.6,12.2,8.6,30.8-.1,52.2-3.9,9.7-7.2,18.9-9.9,28-11,36.6-13.6,72.1-14.2,134.2-.1,14.2,0,27.3.1,40,.1,8,.1,15.5.1,22.8,0,44.1-2.7,74.5-23,94.1-15.8,15.2-34.3,23.3-53.6,23.3-21.2,0-42.9-9.5-64.3-28.3C222.8,415,164,386,104.6,374.7c-45.6-8.7-81.4-17-93.8-36.9-6.7-10.9-6.7-25.6,0-45,6.3-18.1,18.4-43.1,41.9-70.5-.4-2.4-.7-4.8-1-7.1-23.6,26.5-38.1,52.7-46.2,76-21.7,62.6,25.1,74.8,97.9,88.7,58.6,11.2,115.8,39.3,162.8,80.5,24,21,47.1,29.7,68.1,29.7,22.1,0,41.8-9.7,57.6-24.9,22.1-21.4,24.6-53.8,24.6-100.1,0-18-.4-38.1-.2-60.4.6-64.3,3.4-98.8,14.5-134.7,2.6-8.3,5.7-16.8,9.2-25.6C458.1,99.7,439.9,69.9,397.7,68.5Z"/><path class="cls-5" d="M459.8,308.7c-35.5-38.4-76.5-14-105.7,29.4-27.1,40.3-10.6,87.6,33.3,58.4,38.3-25.4,61.6-18,78.7-35.1C489,338.7,459.8,308.7,459.8,308.7Z"/><path class="cls-6" d="M72.6,47.7a1.32,1.32,0,0,1-1.3-1.3V38.3a1.3,1.3,0,1,1,2.6,0v8.1A1.4,1.4,0,0,1,72.6,47.7Z"/><path class="cls-7" d="M72.6,27a1.32,1.32,0,0,1-1.3-1.3V17.6a1.3,1.3,0,1,1,2.6,0v8.1A1.32,1.32,0,0,1,72.6,27Z"/><path class="cls-8" d="M85.3,40.3l-7.1-3.8a1.13,1.13,0,0,1-.5-1.7,1.54,1.54,0,0,1,1.9-.5l7.1,3.8a1.13,1.13,0,0,1,.5,1.7A1.54,1.54,0,0,1,85.3,40.3Z"/><path class="cls-9" d="M65.6,29.5l-7.1-3.8A1.13,1.13,0,0,1,58,24a1.54,1.54,0,0,1,1.9-.5L67,27.3a1.13,1.13,0,0,1,.5,1.7A1.57,1.57,0,0,1,65.6,29.5Z"/><path class="cls-10" d="M57.9,39.8a1.13,1.13,0,0,1,.5-1.7l7.1-3.8a1.54,1.54,0,0,1,1.9.5,1.13,1.13,0,0,1-.5,1.7l-7.1,3.8A1.54,1.54,0,0,1,57.9,39.8Z"/><path class="cls-11" d="M77.7,29a1.13,1.13,0,0,1,.5-1.7l7.1-3.8a1.54,1.54,0,0,1,1.9.5,1.13,1.13,0,0,1-.5,1.7l-7.1,3.8A1.54,1.54,0,0,1,77.7,29Z"/><path class="cls-12" d="M210.1,79.1a1.32,1.32,0,0,1-1.3-1.3V69.7a1.3,1.3,0,0,1,2.6,0v8.1A1.21,1.21,0,0,1,210.1,79.1Z"/><path class="cls-13" d="M210.1,58.4a1.32,1.32,0,0,1-1.3-1.3V49a1.3,1.3,0,0,1,2.6,0v8.1A1.21,1.21,0,0,1,210.1,58.4Z"/><path class="cls-14" d="M202.9,64.7h-8.1a1.3,1.3,0,0,1,0-2.6h8.1a1.32,1.32,0,0,1,1.3,1.3A1.21,1.21,0,0,1,202.9,64.7Z"/><path class="cls-15" d="M225.4,64.7h-8.1a1.3,1.3,0,0,1,0-2.6h8.1a1.32,1.32,0,0,1,1.3,1.3A1.21,1.21,0,0,1,225.4,64.7Z"/><path class="cls-16" d="M73,428a17.92,17.92,0,0,1-17-11.7,1.27,1.27,0,0,1,1-1.7,1.31,1.31,0,0,1,1.6.8,15.42,15.42,0,0,0,28.8,0,1.38,1.38,0,0,1,2.6.9A18.06,18.06,0,0,1,73,428Z"/><path class="cls-17" d="M89.1,407.2a1.31,1.31,0,0,1-1.6-.8,15.42,15.42,0,0,0-28.8,0,1.38,1.38,0,0,1-2.6-.9,18.2,18.2,0,0,1,34,0A1.45,1.45,0,0,1,89.1,407.2Z"/><path class="cls-18" d="M346.8,284.1a1.32,1.32,0,0,1-1.3-1.3v-8.1a1.3,1.3,0,0,1,2.6,0v8.1A1.32,1.32,0,0,1,346.8,284.1Z"/><path class="cls-19" d="M346.8,263.4a1.32,1.32,0,0,1-1.3-1.3V254a1.3,1.3,0,0,1,2.6,0v8.1A1.32,1.32,0,0,1,346.8,263.4Z"/><path class="cls-20" d="M359.6,276.8l-7.1-3.8a1.13,1.13,0,0,1-.5-1.7,1.54,1.54,0,0,1,1.9-.5l7.1,3.8a1.13,1.13,0,0,1,.5,1.7A1.57,1.57,0,0,1,359.6,276.8Z"/><path class="cls-21" d="M339.8,266l-7.1-3.8a1.13,1.13,0,0,1-.5-1.7,1.54,1.54,0,0,1,1.9-.5l7.1,3.8a1.13,1.13,0,0,1,.5,1.7A1.57,1.57,0,0,1,339.8,266Z"/><path class="cls-22" d="M332.1,276.3a1.13,1.13,0,0,1,.5-1.7l7.1-3.8a1.54,1.54,0,0,1,1.9.5,1.13,1.13,0,0,1-.5,1.7l-7.1,3.8A1.57,1.57,0,0,1,332.1,276.3Z"/><path class="cls-23" d="M351.9,265.5a1.13,1.13,0,0,1,.5-1.7l7.1-3.8a1.54,1.54,0,0,1,1.9.5,1.13,1.13,0,0,1-.5,1.7l-7.1,3.8A1.54,1.54,0,0,1,351.9,265.5Z"/><path class="cls-24" d="M475.4,416.3a1.32,1.32,0,0,1-1.3-1.3v-8.1a1.3,1.3,0,0,1,2.6,0V415A1.32,1.32,0,0,1,475.4,416.3Z"/><path class="cls-25" d="M475.4,395.6a1.32,1.32,0,0,1-1.3-1.3v-8.1a1.3,1.3,0,0,1,2.6,0v8.1A1.32,1.32,0,0,1,475.4,395.6Z"/><path class="cls-26" d="M468.2,401.9h-8.1a1.3,1.3,0,0,1,0-2.6h8.1a1.3,1.3,0,1,1,0,2.6Z"/><path class="cls-27" d="M490.6,401.9h-8.1a1.3,1.3,0,0,1,0-2.6h8.1a1.32,1.32,0,0,1,1.3,1.3A1.21,1.21,0,0,1,490.6,401.9Z"/><path class="cls-28" d="M497.4,238.3a17.92,17.92,0,0,1-17-11.7,1.27,1.27,0,0,1,1-1.7,1.31,1.31,0,0,1,1.6.8,15.42,15.42,0,0,0,28.8,0,1.38,1.38,0,0,1,2.6.9A18.06,18.06,0,0,1,497.4,238.3Z"/><path class="cls-29" d="M513.4,217.5a1.31,1.31,0,0,1-1.6-.8,15.42,15.42,0,0,0-28.8,0,1.38,1.38,0,0,1-2.6-.9,18.2,18.2,0,0,1,34,0A1.3,1.3,0,0,1,513.4,217.5Z"/><path class="cls-30" d="M271.26,307.65c-36,0-71.91,0-107.87.08-3.3,0-4.46-.55-4.45-4.24q.21-72.69.09-145.39c0-6.06,1.3-7.37,7.4-7.37h210c6.4,0,7.62,1.22,7.62,7.54,0,48.34-.06,96.68.1,145,0,3.85-1.1,4.47-4.64,4.46C343.43,307.6,307.34,307.65,271.26,307.65Zm-.08-16.11c29.85,0,59.69-.05,89.54.06,3,0,4.14-.46,4.13-3.85q-.21-55.87,0-111.76c0-3-.81-3.78-3.81-3.78q-89.53.14-179.07,0c-3.13,0-3.73.94-3.72,3.85q.13,55.88,0,111.75c0,3,.76,3.81,3.79,3.79C211.74,291.48,241.46,291.53,271.18,291.54Z"/><path class="cls-30" d="M271.46,339.13c-42.34,0-84.69-.14-127,.13-7.1.05-11.6-2.7-14.88-8.53a33.69,33.69,0,0,1-3.8-10c-.8-4,.8-6,5-6.08,3.18-.05,6.37,0,9.56,0q46.31,0,92.59,0c2.26,0,3.6.17,4.29,2.85,1.05,4.14,4.4,6.26,9,6.27q25.44.06,50.88,0c4.66,0,7.72-2.26,9-6.77.53-1.85,1.25-2.35,3.11-2.34q51.45.09,102.92.07c4.6,0,6,2,5.09,6.59a32.59,32.59,0,0,1-3.36,8.9c-3.29,6.12-7.88,9.12-15.33,9.07C356.15,339,313.8,339.13,271.46,339.13Z"/><path class="cls-31" d="M271.18,291.53c-29.72,0-59.44,0-89.16.07-3,0-3.8-.78-3.79-3.79q.17-55.87,0-111.75c0-2.91.59-3.86,3.72-3.85q89.54.15,179.07,0c3,0,3.82.75,3.81,3.78q-.16,55.88,0,111.76c0,3.39-1.14,3.86-4.13,3.85C330.87,291.49,301,291.54,271.18,291.53ZM253,267.87c-1.26.9-2.7.57-4.08.57q-15.28,0-30.58,0c-6.55,0-6.37,0-6.57,6.59-.09,2.94.81,3.58,3.62,3.55q22-.21,44,0c2.8,0,3.72-.59,3.66-3.55-.2-9.94-.1-19.88-.05-29.83,0-1.33-.53-2.84.84-3.91a8.5,8.5,0,0,0,4,0q18.68.72,37.35,0c2.36.67,2.84-.46,2.38-2.5q.51-17.22,0-34.45c0-1.27,0-2.54,0-3.81.94-1.37,1.47-.16,2,.37,2.27,2.23,4.5,4.5,6.75,6.76,5.16,5.19,5.1,5.13,10.33-.15,1.5-1.52,1.58-2.32,0-3.85-7.38-7.2-14.7-14.47-21.86-21.89-1.78-1.85-2.6-1.39-4.11.16-6,6.2-12.21,12.27-18.34,18.39-5.55,5.56-5.49,5.49.26,10.88,1.4,1.31,2.1,1.15,3.28-.09,3.66-3.81,7.42-7.53,11.62-11.78v32.25l-2.26.17q-19.86-.74-39.71,0h-.85c-1.67-.52-2,.23-1.56,1.66Q253.09,250.66,253,267.87Zm-31.22-72.76a15.12,15.12,0,1,0,15.27,15.21A15.19,15.19,0,0,0,221.82,195.11Zm114.29,63.62c-.6-.78-.91-1.16-1.21-1.55-5.11-6.62-5.52-6.81-11-.78-2.74,3-4.27,2.78-6.89-.08-5.13-5.58-5.25-5.37-10.53.32-1.22,1.31-1.35,2,0,3.34,2.23,2.22,6.29,4.29,6.08,6.85s-3.9,4.7-6.19,6.9c-1.2,1.16-1.29,2,0,3a14.09,14.09,0,0,1,2.69,2.71c2.13,3.08,3.8,2.29,6-.08,5.25-5.55,5.53-5.6,10.63-.07,2.51,2.71,4,2.77,6.44,0,3.76-4.22,3.95-4.05.1-7.88-4.66-4.63-4.67-4.65.13-9.41C333.51,260.86,334.83,259.85,336.11,258.73Z"/><path class="cls-30" d="M221.82,195.11a15.12,15.12,0,1,1-15.12,15.41A15.08,15.08,0,0,1,221.82,195.11Z"/><path class="cls-30" d="M336.11,258.73c-1.28,1.12-2.6,2.13-3.77,3.3-4.8,4.76-4.79,4.78-.13,9.41,3.85,3.83,3.66,3.66-.1,7.88-2.47,2.78-3.93,2.72-6.44,0-5.1-5.53-5.38-5.48-10.63.07-2.24,2.37-3.91,3.16-6,.08a14.09,14.09,0,0,0-2.69-2.71c-1.3-1.08-1.21-1.88,0-3,2.29-2.2,6-4.44,6.19-6.9s-3.85-4.63-6.08-6.85c-1.33-1.31-1.2-2,0-3.34,5.28-5.69,5.4-5.9,10.53-.32,2.62,2.86,4.15,3.06,6.89.08,5.53-6,5.94-5.84,11,.78C335.2,257.57,335.51,258,336.11,258.73Z"/><path class="cls-30" d="M326.65,203.69c-7.38-7.2-14.7-14.47-21.86-21.89-1.78-1.85-2.6-1.39-4.11.16-6,6.2-12.21,12.27-18.34,18.39-5.55,5.56-5.49,5.49.26,10.88,1.4,1.31,2.1,1.15,3.28-.09,3.66-3.81,7.42-7.53,11.62-11.78v32.25l-2.26.17q-19.86-.74-39.71,0h-.85c-1.67-.52-2,.23-1.56,1.66q0,17.22-.08,34.43c-1.26.9-2.7.57-4.08.57q-15.28,0-30.58,0c-6.55,0-6.37,0-6.57,6.59-.09,2.94.81,3.58,3.62,3.55q22-.21,44,0c2.8,0,3.72-.59,3.66-3.55-.2-9.94-.1-19.88-.05-29.83,0-1.33-.53-2.84.84-3.91a8.5,8.5,0,0,0,4,0q18.68.72,37.35,0c2.36.67,2.84-.46,2.38-2.5q.51-17.22,0-34.45c0-1.27,0-2.54,0-3.81.94-1.37,1.47-.16,2,.37,2.27,2.23,4.5,4.5,6.75,6.76,5.16,5.19,5.1,5.13,10.33-.15C328.14,206,328.22,205.22,326.65,203.69ZM254.84,232c.16.21.32.23.48.07C255.16,232.27,255,232.25,254.84,232Zm.68-.24a1.36,1.36,0,0,1-.18.28A1.36,1.36,0,0,0,255.52,231.8Z"/><path class="cls-30" d="M266.38,379.06a11.94,11.94,0,1,1,5.46-22.65,2.08,2.08,0,0,0,2.93-.51c4.39-4.48,8.9-8.85,13.28-13.35,1-1,1.49-.9,2.38.06,1.73,1.88,3.56,3.67,5.42,5.43.76.71.76,1.09,0,1.83-2.26,2.24-2.19,2.25-4.3.22-2.78-2.69-1.73-2.86-4.89.15-.74.7-.81,1.22,0,1.92s1.7,1.74,2.6,2.56c.67.59.74,1,.05,1.7-2.27,2.35-2.24,2.38-4.55.07-2.16-2.15-2.16-2.15-4.37,0a6.38,6.38,0,0,1-.52.52c-2.26,1.78-3.18,3.4-1.94,6.74C280.74,371.35,274.42,379.3,266.38,379.06Zm.25-18.87a6.91,6.91,0,0,0-6.94,7,7,7,0,1,0,6.94-7Z"/></svg>