<svg id="Layer_1" data-name="Layer 1" xmlns="http://www.w3.org/2000/svg" xmlns:xlink="http://www.w3.org/1999/xlink" viewBox="0 0 543 490"><defs><style>.cls-1{fill:url(#linear-gradient);}.cls-2{fill:#2a2a8c;}.cls-3{fill:url(#linear-gradient-2);}.cls-4{opacity:0.9;fill:url(#linear-gradient-3);}.cls-5{fill:url(#linear-gradient-4);}.cls-6{fill:url(#linear-gradient-5);}.cls-7{fill:url(#linear-gradient-6);}.cls-8{fill:url(#linear-gradient-7);}.cls-9{fill:url(#linear-gradient-8);}.cls-10{fill:url(#linear-gradient-9);}.cls-11{fill:url(#linear-gradient-10);}.cls-12,.cls-13,.cls-14,.cls-15,.cls-18,.cls-19,.cls-20,.cls-21,.cls-22,.cls-23,.cls-28,.cls-29{fill-opacity:0.2;}.cls-12{fill:url(#linear-gradient-11);}.cls-13{fill:url(#linear-gradient-12);}.cls-14{fill:url(#linear-gradient-13);}.cls-15{fill:url(#linear-gradient-14);}.cls-16{fill:url(#linear-gradient-15);}.cls-17{fill:url(#linear-gradient-16);}.cls-18{fill:url(#linear-gradient-17);}.cls-19{fill:url(#linear-gradient-18);}.cls-20{fill:url(#linear-gradient-19);}.cls-21{fill:url(#linear-gradient-20);}.cls-22{fill:url(#linear-gradient-21);}.cls-23{fill:url(#linear-gradient-22);}.cls-24{fill:url(#linear-gradient-23);}.cls-25{fill:url(#linear-gradient-24);}.cls-26{fill:url(#linear-gradient-25);}.cls-27{fill:url(#linear-gradient-26);}.cls-28{fill:url(#linear-gradient-27);}.cls-29{fill:url(#linear-gradient-28);}.cls-30{fill:none;stroke:#39ffff;stroke-miterlimit:10;stroke-width:2px;}</style><linearGradient id="linear-gradient" x1="0.21" y1="137.11" x2="100.9" y2="137.11" gradientUnits="userSpaceOnUse"><stop offset="0.04" stop-color="#3a3adb"/><stop offset="0.99" stop-color="#2a2a8c"/></linearGradient><linearGradient id="linear-gradient-2" x1="50.45" y1="221.61" x2="542.33" y2="221.61" gradientUnits="userSpaceOnUse"><stop offset="0.04" stop-color="#3a3adb"/><stop offset="0.77" stop-color="#2a2a8c"/></linearGradient><linearGradient id="linear-gradient-3" x1="0.16" y1="279.25" x2="446.97" y2="279.25" gradientUnits="userSpaceOnUse"><stop offset="0.04" stop-color="#3a3adb"/><stop offset="0.99" stop-color="#2a47c9"/></linearGradient><linearGradient id="linear-gradient-4" x1="340.93" y1="347.57" x2="474.87" y2="347.57" xlink:href="#linear-gradient"/><linearGradient id="linear-gradient-5" x1="71.3" y1="42.35" x2="73.9" y2="42.35" xlink:href="#linear-gradient"/><linearGradient id="linear-gradient-6" x1="71.3" y1="21.65" x2="73.9" y2="21.65" xlink:href="#linear-gradient"/><linearGradient id="linear-gradient-7" x1="77.5" y1="37.3" x2="87.4" y2="37.3" xlink:href="#linear-gradient"/><linearGradient id="linear-gradient-8" x1="57.8" y1="26.5" x2="67.7" y2="26.5" xlink:href="#linear-gradient"/><linearGradient id="linear-gradient-9" x1="57.7" y1="37.3" x2="67.6" y2="37.3" xlink:href="#linear-gradient"/><linearGradient id="linear-gradient-10" x1="77.5" y1="26.5" x2="87.4" y2="26.5" xlink:href="#linear-gradient"/><linearGradient id="linear-gradient-11" x1="208.8" y1="73.75" x2="211.41" y2="73.75" xlink:href="#linear-gradient"/><linearGradient id="linear-gradient-12" x1="208.8" y1="53.05" x2="211.41" y2="53.05" xlink:href="#linear-gradient"/><linearGradient id="linear-gradient-13" x1="193.5" y1="63.4" x2="204.21" y2="63.4" xlink:href="#linear-gradient"/><linearGradient id="linear-gradient-14" x1="216" y1="63.4" x2="226.71" y2="63.4" xlink:href="#linear-gradient"/><linearGradient id="linear-gradient-15" x1="55.91" y1="421.27" x2="90.05" y2="421.27" xlink:href="#linear-gradient"/><linearGradient id="linear-gradient-16" x1="56.05" y1="400.53" x2="90.14" y2="400.53" xlink:href="#linear-gradient"/><linearGradient id="linear-gradient-17" x1="345.5" y1="278.75" x2="348.1" y2="278.75" xlink:href="#linear-gradient-3"/><linearGradient id="linear-gradient-18" x1="345.5" y1="258.05" x2="348.1" y2="258.05" xlink:href="#linear-gradient-3"/><linearGradient id="linear-gradient-19" x1="351.8" y1="273.8" x2="361.7" y2="273.8" xlink:href="#linear-gradient-3"/><linearGradient id="linear-gradient-20" x1="332" y1="263" x2="341.9" y2="263" xlink:href="#linear-gradient-3"/><linearGradient id="linear-gradient-21" x1="331.9" y1="273.8" x2="341.8" y2="273.8" xlink:href="#linear-gradient-3"/><linearGradient id="linear-gradient-22" x1="351.7" y1="263" x2="361.6" y2="263" xlink:href="#linear-gradient-3"/><linearGradient id="linear-gradient-23" x1="474.1" y1="410.95" x2="476.7" y2="410.95" xlink:href="#linear-gradient"/><linearGradient id="linear-gradient-24" x1="474.1" y1="390.25" x2="476.7" y2="390.25" xlink:href="#linear-gradient"/><linearGradient id="linear-gradient-25" x1="458.8" y1="400.6" x2="469.5" y2="400.6" xlink:href="#linear-gradient"/><linearGradient id="linear-gradient-26" x1="481.2" y1="400.6" x2="491.91" y2="400.6" xlink:href="#linear-gradient"/><linearGradient id="linear-gradient-27" x1="480.31" y1="231.57" x2="514.45" y2="231.57" gradientUnits="userSpaceOnUse"><stop offset="0.04" stop-color="#3a3adb"/><stop offset="0.99" stop-color="#2a4b8c"/></linearGradient><linearGradient id="linear-gradient-28" x1="480.35" y1="210.83" x2="514.49" y2="210.83" xlink:href="#linear-gradient-27"/></defs><path class="cls-1" d="M89.5,126.5C79,109.2,68,97.8,50.6,89.7s-39.1-8.2-48,11.2,8.6,43.5,33.2,44.9c28.3,1.5,43.4,14.6,45,34,1,12.1,14.5,12.5,17.3,4.6C103.3,170,101.7,146.7,89.5,126.5Z"/><path class="cls-2" d="M311.5,26.9C194.9-92.8,68.2,219.8,35.7,320.8S140.6,438.1,233,456.2c147.6,28.8,215.2-27,226.7-94.2S428.1,146.7,311.5,26.9Z"/><path class="cls-3" d="M386.9,175.8C325,186.6,282.7,128,254.2,91.9c-22.4-28.4-116.5-75.1-175,8.7-53,76-31.1,189.1,52.3,246.4S342,399,420.9,363.5c49.9-22.4,112.9-64.1,120.7-123.3C550.2,175.4,481.9,159.3,386.9,175.8Z"/><path class="cls-4" d="M397.7,68.5c-2.5-.1-5-.1-7.6-.1-41.1,0-92.8,10.3-129.7,22.4L255,92.6c1.1,1.4,2.3,2.9,3.5,4.4,1.3-.4,2.5-.8,3.8-1.3,41-13.5,91.2-22.1,127.9-22.1,2.5,0,5,0,7.4.1,17.3.6,30.3,6.3,37.5,16.5,8.6,12.2,8.6,30.8-.1,52.2-3.9,9.7-7.2,18.9-9.9,28-11,36.6-13.6,72.1-14.2,134.2-.1,14.2,0,27.3.1,40,.1,8,.1,15.5.1,22.8,0,44.1-2.7,74.5-23,94.1-15.8,15.2-34.3,23.3-53.6,23.3-21.2,0-42.9-9.5-64.3-28.3C222.8,415,164,386,104.6,374.7c-45.6-8.7-81.4-17-93.8-36.9-6.7-10.9-6.7-25.6,0-45,6.3-18.1,18.4-43.1,41.9-70.5-.4-2.4-.7-4.8-1-7.1-23.6,26.5-38.1,52.7-46.2,76-21.7,62.6,25.1,74.8,97.9,88.7,58.6,11.2,115.8,39.3,162.8,80.5,24,21,47.1,29.7,68.1,29.7,22.1,0,41.8-9.7,57.6-24.9,22.1-21.4,24.6-53.8,24.6-100.1,0-18-.4-38.1-.2-60.4.6-64.3,3.4-98.8,14.5-134.7,2.6-8.3,5.7-16.8,9.2-25.6C458.1,99.7,439.9,69.9,397.7,68.5Z"/><path class="cls-5" d="M459.8,308.7c-35.5-38.4-76.5-14-105.7,29.4-27.1,40.3-10.6,87.6,33.3,58.4,38.3-25.4,61.6-18,78.7-35.1C489,338.7,459.8,308.7,459.8,308.7Z"/><path class="cls-6" d="M72.6,47.7a1.32,1.32,0,0,1-1.3-1.3V38.3a1.3,1.3,0,1,1,2.6,0v8.1A1.4,1.4,0,0,1,72.6,47.7Z"/><path class="cls-7" d="M72.6,27a1.32,1.32,0,0,1-1.3-1.3V17.6a1.3,1.3,0,1,1,2.6,0v8.1A1.32,1.32,0,0,1,72.6,27Z"/><path class="cls-8" d="M85.3,40.3l-7.1-3.8a1.13,1.13,0,0,1-.5-1.7,1.54,1.54,0,0,1,1.9-.5l7.1,3.8a1.13,1.13,0,0,1,.5,1.7A1.54,1.54,0,0,1,85.3,40.3Z"/><path class="cls-9" d="M65.6,29.5l-7.1-3.8A1.13,1.13,0,0,1,58,24a1.54,1.54,0,0,1,1.9-.5L67,27.3a1.13,1.13,0,0,1,.5,1.7A1.57,1.57,0,0,1,65.6,29.5Z"/><path class="cls-10" d="M57.9,39.8a1.13,1.13,0,0,1,.5-1.7l7.1-3.8a1.54,1.54,0,0,1,1.9.5,1.13,1.13,0,0,1-.5,1.7l-7.1,3.8A1.54,1.54,0,0,1,57.9,39.8Z"/><path class="cls-11" d="M77.7,29a1.13,1.13,0,0,1,.5-1.7l7.1-3.8a1.54,1.54,0,0,1,1.9.5,1.13,1.13,0,0,1-.5,1.7l-7.1,3.8A1.54,1.54,0,0,1,77.7,29Z"/><path class="cls-12" d="M210.1,79.1a1.32,1.32,0,0,1-1.3-1.3V69.7a1.3,1.3,0,0,1,2.6,0v8.1A1.21,1.21,0,0,1,210.1,79.1Z"/><path class="cls-13" d="M210.1,58.4a1.32,1.32,0,0,1-1.3-1.3V49a1.3,1.3,0,0,1,2.6,0v8.1A1.21,1.21,0,0,1,210.1,58.4Z"/><path class="cls-14" d="M202.9,64.7h-8.1a1.3,1.3,0,0,1,0-2.6h8.1a1.32,1.32,0,0,1,1.3,1.3A1.21,1.21,0,0,1,202.9,64.7Z"/><path class="cls-15" d="M225.4,64.7h-8.1a1.3,1.3,0,0,1,0-2.6h8.1a1.32,1.32,0,0,1,1.3,1.3A1.21,1.21,0,0,1,225.4,64.7Z"/><path class="cls-16" d="M73,428a17.92,17.92,0,0,1-17-11.7,1.27,1.27,0,0,1,1-1.7,1.31,1.31,0,0,1,1.6.8,15.42,15.42,0,0,0,28.8,0,1.38,1.38,0,0,1,2.6.9A18.06,18.06,0,0,1,73,428Z"/><path class="cls-17" d="M89.1,407.2a1.31,1.31,0,0,1-1.6-.8,15.42,15.42,0,0,0-28.8,0,1.38,1.38,0,0,1-2.6-.9,18.2,18.2,0,0,1,34,0A1.45,1.45,0,0,1,89.1,407.2Z"/><path class="cls-18" d="M346.8,284.1a1.32,1.32,0,0,1-1.3-1.3v-8.1a1.3,1.3,0,0,1,2.6,0v8.1A1.32,1.32,0,0,1,346.8,284.1Z"/><path class="cls-19" d="M346.8,263.4a1.32,1.32,0,0,1-1.3-1.3V254a1.3,1.3,0,0,1,2.6,0v8.1A1.32,1.32,0,0,1,346.8,263.4Z"/><path class="cls-20" d="M359.6,276.8l-7.1-3.8a1.13,1.13,0,0,1-.5-1.7,1.54,1.54,0,0,1,1.9-.5l7.1,3.8a1.13,1.13,0,0,1,.5,1.7A1.57,1.57,0,0,1,359.6,276.8Z"/><path class="cls-21" d="M339.8,266l-7.1-3.8a1.13,1.13,0,0,1-.5-1.7,1.54,1.54,0,0,1,1.9-.5l7.1,3.8a1.13,1.13,0,0,1,.5,1.7A1.57,1.57,0,0,1,339.8,266Z"/><path class="cls-22" d="M332.1,276.3a1.13,1.13,0,0,1,.5-1.7l7.1-3.8a1.54,1.54,0,0,1,1.9.5,1.13,1.13,0,0,1-.5,1.7l-7.1,3.8A1.57,1.57,0,0,1,332.1,276.3Z"/><path class="cls-23" d="M351.9,265.5a1.13,1.13,0,0,1,.5-1.7l7.1-3.8a1.54,1.54,0,0,1,1.9.5,1.13,1.13,0,0,1-.5,1.7l-7.1,3.8A1.54,1.54,0,0,1,351.9,265.5Z"/><path class="cls-24" d="M475.4,416.3a1.32,1.32,0,0,1-1.3-1.3v-8.1a1.3,1.3,0,0,1,2.6,0V415A1.32,1.32,0,0,1,475.4,416.3Z"/><path class="cls-25" d="M475.4,395.6a1.32,1.32,0,0,1-1.3-1.3v-8.1a1.3,1.3,0,0,1,2.6,0v8.1A1.32,1.32,0,0,1,475.4,395.6Z"/><path class="cls-26" d="M468.2,401.9h-8.1a1.3,1.3,0,0,1,0-2.6h8.1a1.3,1.3,0,1,1,0,2.6Z"/><path class="cls-27" d="M490.6,401.9h-8.1a1.3,1.3,0,0,1,0-2.6h8.1a1.32,1.32,0,0,1,1.3,1.3A1.21,1.21,0,0,1,490.6,401.9Z"/><path class="cls-28" d="M497.4,238.3a17.92,17.92,0,0,1-17-11.7,1.27,1.27,0,0,1,1-1.7,1.31,1.31,0,0,1,1.6.8,15.42,15.42,0,0,0,28.8,0,1.38,1.38,0,0,1,2.6.9A18.06,18.06,0,0,1,497.4,238.3Z"/><path class="cls-29" d="M513.4,217.5a1.31,1.31,0,0,1-1.6-.8,15.42,15.42,0,0,0-28.8,0,1.38,1.38,0,0,1-2.6-.9,18.2,18.2,0,0,1,34,0A1.3,1.3,0,0,1,513.4,217.5Z"/><path class="cls-30" d="M287.41,289.63c7.23-3.28,13.69-3,19.4,2.13,1.42,1.27,2.1.79,3.39-.16,7.6-5.53,13.67-5.66,21-.27,1.74,1.28,2.6,1.43,4.31,0,5.32-4.48,11.39-5.2,17.56-2.1s9,8.44,8.9,15.38c-.19,13.95,1.37,27.95-.11,41.86C358.53,377.66,332.1,398,301,394.64c-16.45-1.77-30.55-7.6-42.73-18.71-5.14-4.7-10.76-8.9-16.29-13.14-9.21-7.05-12.3-15.13-8.87-23.85,3.33-8.46,9.44-11.45,21.66-10.41,0-15.2.07-30.37,0-45.54,0-4.24-5.82-6.22-10.57-3.68-1.68.9-3,2.51-4.76,3.18-2.92,1.13-5.93.92-8.24-1.52-3.47-3.65-7.78-6.54-10.17-11.13a2.66,2.66,0,0,0-2.88-1.66c-1.05.07-2.1,0-3.14,0-7.86,0-16.85-2.3-23.27.75-7.58,3.61-12.85,12-19.32,18.09-2.23,2.1-1.19,3.81-.6,6a15.06,15.06,0,1,1-29.19,7.38,15,15,0,0,1,12.21-18.21c1.52-.27,3.42-.63,4.62,0,4.95,2.64,7.78,0,10.93-3.34,5.79-6,11-13.76,18.14-17.08,7.36-3.41,16.81-.72,25.34-1,1.22,0,2.44,0,3.67,0,3.42,0,7.19.89,7.84-4.32.53-4.32-2.1-9-6.28-10.33a35.67,35.67,0,0,0-4.63-.87c-2.84-.51-5.42-2.21-5.51-4.86-.18-5.27-3.28-5-6.9-4.78a30.44,30.44,0,0,1-5.23,0c-4.51-.45-7.8.1-10.31,5.05-3,6-10.57,7.76-17,5.51a15.05,15.05,0,0,1,1.32-28.84c6.32-1.7,13.61.94,16.46,7,1.71,3.66,3.84,4.21,7.19,4a73.59,73.59,0,0,1,7.86,0c3.35.12,6.27.56,6.55-4.59.2-3.68,3.83-4.82,7.4-5.36,5.87-.9,9.23-4.61,9.05-9.64-.12-3.49-1.15-5.81-5.57-5.67-9.24.31-18.5,0-27.75.15a8.11,8.11,0,0,1-6.45-2.67c-6-6.12-12.11-12.08-18.08-18.2-1.62-1.66-2.86-2.16-5.34-1.31a14.69,14.69,0,0,1-18-6.61,15.22,15.22,0,0,1,2.57-18.29A15,15,0,0,1,165,154a14.67,14.67,0,0,1,6.37,17.7c-.93,2.73-.35,4.23,1.62,5.78a20.54,20.54,0,0,1,1.47,1.48c5.73,5.59,10.57,13.47,17.44,16.12,7.3,2.82,16.51.65,24.89.74,2,0,3.31-.26,4.56-2.37,2.59-4.37,6.6-7.65,10.43-10.92,3-2.56,6.35-2.07,9.6.23,8.12,5.74,15,2.92,16.55-6.72a7.08,7.08,0,0,1,.26-1.54c3.93-9.37,12.22-5.08,18.78-5.71,4.58-.43,7.35,2.5,8.12,7.15,1.59,9.73,8.41,12.6,16.47,6.88,3.86-2.75,7.53-2.71,10.79.65s7.58,6.28,9.76,10.8c.94,2,2.52,1.5,4,1.51,7.51,0,15-.09,22.52.07a6.78,6.78,0,0,0,5.44-2.35c5.24-5.37,10.49-10.73,15.93-15.91,2-1.93,2.39-3.43,1.49-6.27a14.9,14.9,0,0,1,10.75-19.08,15.11,15.11,0,1,1,5.91,29.61c-1.35.23-3.08.61-4.11,0-5.74-3.3-8.71.59-12.13,4.09-5.6,5.74-10.53,13.4-17.41,16.26s-15.78.83-23.8.93c-1.75,0-3.49,0-5.24,0-3.18,0-6.84-1-7.68,3.9-.73,4.22,1.72,9.1,5.81,10.61a23.73,23.73,0,0,0,4.61.95c3.51.56,6,2.55,6.22,6s1.76,4,4.61,3.69a37.62,37.62,0,0,1,6.28,0c5,.39,8.83.12,11.64-5.52s10.51-7.21,16.65-5a15,15,0,0,1-1,28.68c-6.23,1.85-13.36-.23-16.29-6.12-2.27-4.55-5.24-5.14-9.43-4.72a36.58,36.58,0,0,1-6.28,0c-3.51-.24-6.09-.24-6.5,4.67-.33,4-4.32,4.83-8,5.43-5.72.93-9.21,5.51-8.41,10.63.44,2.86,1.56,4.61,5.08,4.52,8.9-.25,17.81.1,26.71-.18a11.05,11.05,0,0,1,9.13,3.88c5.37,5.72,11.09,11.12,16.57,16.74,1.69,1.73,2.94,2.59,5.75,1.6a14.62,14.62,0,0,1,18,6.72,15.31,15.31,0,0,1-2.33,17.91,15,15,0,0,1-18.25,2.61c-6.34-3.62-9.13-10.6-6.72-18,.79-2.41.59-3.92-1.32-5.38a21.53,21.53,0,0,1-1.85-1.85c-5.58-5.53-10.27-13.43-17-15.94-7.51-2.82-16.86-.72-25.4-.86a4.38,4.38,0,0,0-4.5,2.47C319,275,315,278.29,311.16,281.52c-3,2.53-6.5,2.16-9.57-.37a10.66,10.66,0,0,0-6.55-2.88C288.74,278.06,286.72,280.87,287.41,289.63Zm-25.32-5.39v45c0,8.47-.37,8.77-8.56,6.94-8.6-1.92-13.86,1.23-14.37,8.76-.31,4.56,1.89,7.91,5.44,10.67,6.75,5.23,13.67,10.31,20,16,12.46,11.3,27.26,15.66,43.65,15.87A45.61,45.61,0,0,0,354.39,347c1.53-13.91,0-27.89.14-41.83.05-6.12-2.63-9.52-7.5-10.23s-8.31,2-9.95,8.32c-.51,2-1.11,3.73-3.53,3.84-2.71.11-3.42-1.7-4-3.93-1.44-5.84-4.43-8.69-9-8.31-5,.41-7.9,3.18-8.46,8.31-.25,2.28-1.29,4-4,3.92-2.4-.11-3-1.73-3.46-3.82-1.34-5.79-4.45-8.77-8.95-8.4-5.24.42-8.12,3.51-8.66,8.77-.24,2.36-1.46,4.13-3.95,4s-3.51-1.95-3.42-4.4c.05-1.22,0-2.44,0-3.67q0-30.35,0-60.71c0-6.75-3.28-10.63-8.8-10.67s-8.84,3.77-8.85,10.54Q262.05,261.46,262.09,284.24Zm-7.73-12.56c1.08-6.69.2-11.43-5.3-16.2-13.9-12.07-13.74-33.62-.68-46.64a32.54,32.54,0,0,1,47.19,1c12.5,13.44,11.78,35-2.65,46.56-5.81,4.67-6.59,9.33-5.41,15.55,7.71-1.65,11.77-1.73,15.88,1.6,3.54,2.89,5.21.87,7-1.42s6.1-3.26,2.68-8.19c-6.6-9.54-1.17-22.89,10.07-25,4.81-.9,4.33-3.47,4.18-6.57s1.3-6.26-4-7.25c-10.31-1.91-16.68-13.7-11.47-22.51,3.64-6.15,1.05-8.62-2.72-12.16-1.92-1.8-2.94-1.71-5.1-.29-10.44,6.85-23.52,1.51-26-10.68-.59-2.92-1.47-3.79-4.21-3.49a39.54,39.54,0,0,1-5.76,0c-1.78-.08-2.54.31-3,2.41-3.23,13.9-14.43,18.42-27,11.22-4.57-2.62-4.88,2.94-7.42,4.28s-2.67,3.09-.86,5.86c6.72,10.3,1.51,22.93-10.65,25.48-5.56,1.16-3.06,4.89-3.4,7.66s-.7,5.07,3.61,5.91A16.24,16.24,0,0,1,230,264c-1.89,2.91-1.67,4.43.76,6.37a27,27,0,0,1,3.7,3.7c1.27,1.5,2.32,1.57,3.88.28C243,270.4,248.51,270.38,254.36,271.68Zm.38-20.63c0-4.83,0-8.59,0-12.35,0-10.73,6.47-17.86,16.11-17.89S287,228,287.12,238.61c0,4.2,0,8.4,0,13.33,11.84-10.7,12.85-26.45,3.16-37a25.16,25.16,0,0,0-36-1.53C243.52,223.43,243.34,239.27,254.74,251.05Zm-72.51-19.21a8.11,8.11,0,0,0-7.84-7.61,7.78,7.78,0,1,0,.34,15.55A8.09,8.09,0,0,0,182.23,231.84Zm194.07.25a7.9,7.9,0,0,0-7.51-7.86,7.78,7.78,0,1,0-.16,15.55A7.9,7.9,0,0,0,376.3,232.09Zm-219-57.36a7.84,7.84,0,0,0,7.57-7.73,7.66,7.66,0,1,0-15.32.13A7.94,7.94,0,0,0,157.27,174.73Zm228.62,0A8,8,0,0,0,393.5,167a7.8,7.8,0,0,0-8-7.79,7.71,7.71,0,0,0-7.28,8A7.83,7.83,0,0,0,385.89,174.74ZM157,304.79a7.63,7.63,0,0,0,7.82-7.38,7.82,7.82,0,0,0-7.68-8.13,8,8,0,0,0-7.63,7.73A7.75,7.75,0,0,0,157,304.79Zm228.55,0a7.72,7.72,0,0,0,7.92-7.33,7.66,7.66,0,1,0-15.3-.5A7.68,7.68,0,0,0,385.55,304.79Z"/></svg>