<svg id="Layer_1" data-name="Layer 1" xmlns="http://www.w3.org/2000/svg" xmlns:xlink="http://www.w3.org/1999/xlink" viewBox="0 0 543 490"><defs><style>.cls-1{fill:url(#linear-gradient);}.cls-2{fill:#2a2a8c;}.cls-3{fill:url(#linear-gradient-2);}.cls-4{opacity:0.9;fill:url(#linear-gradient-3);}.cls-5{fill:url(#linear-gradient-4);}.cls-6{fill:url(#linear-gradient-5);}.cls-7{fill:url(#linear-gradient-6);}.cls-8{fill:url(#linear-gradient-7);}.cls-9{fill:url(#linear-gradient-8);}.cls-10{fill:url(#linear-gradient-9);}.cls-11{fill:url(#linear-gradient-10);}.cls-12,.cls-13,.cls-14,.cls-15,.cls-18,.cls-19,.cls-20,.cls-21,.cls-22,.cls-23,.cls-28,.cls-29{fill-opacity:0.2;}.cls-12{fill:url(#linear-gradient-11);}.cls-13{fill:url(#linear-gradient-12);}.cls-14{fill:url(#linear-gradient-13);}.cls-15{fill:url(#linear-gradient-14);}.cls-16{fill:url(#linear-gradient-15);}.cls-17{fill:url(#linear-gradient-16);}.cls-18{fill:url(#linear-gradient-17);}.cls-19{fill:url(#linear-gradient-18);}.cls-20{fill:url(#linear-gradient-19);}.cls-21{fill:url(#linear-gradient-20);}.cls-22{fill:url(#linear-gradient-21);}.cls-23{fill:url(#linear-gradient-22);}.cls-24{fill:url(#linear-gradient-23);}.cls-25{fill:url(#linear-gradient-24);}.cls-26{fill:url(#linear-gradient-25);}.cls-27{fill:url(#linear-gradient-26);}.cls-28{fill:url(#linear-gradient-27);}.cls-29{fill:url(#linear-gradient-28);}.cls-30{fill:none;stroke:#39ffff;stroke-miterlimit:10;stroke-width:2px;}</style><linearGradient id="linear-gradient" x1="0.21" y1="137.11" x2="100.9" y2="137.11" gradientUnits="userSpaceOnUse"><stop offset="0.04" stop-color="#3a3adb"/><stop offset="0.99" stop-color="#2a2a8c"/></linearGradient><linearGradient id="linear-gradient-2" x1="50.45" y1="221.61" x2="542.33" y2="221.61" gradientUnits="userSpaceOnUse"><stop offset="0.04" stop-color="#3a3adb"/><stop offset="0.77" stop-color="#2a2a8c"/></linearGradient><linearGradient id="linear-gradient-3" x1="0.16" y1="279.25" x2="446.97" y2="279.25" gradientUnits="userSpaceOnUse"><stop offset="0.04" stop-color="#3a3adb"/><stop offset="0.99" stop-color="#2a47c9"/></linearGradient><linearGradient id="linear-gradient-4" x1="340.93" y1="347.57" x2="474.87" y2="347.57" xlink:href="#linear-gradient"/><linearGradient id="linear-gradient-5" x1="71.3" y1="42.35" x2="73.9" y2="42.35" xlink:href="#linear-gradient"/><linearGradient id="linear-gradient-6" x1="71.3" y1="21.65" x2="73.9" y2="21.65" xlink:href="#linear-gradient"/><linearGradient id="linear-gradient-7" x1="77.5" y1="37.3" x2="87.4" y2="37.3" xlink:href="#linear-gradient"/><linearGradient id="linear-gradient-8" x1="57.8" y1="26.5" x2="67.7" y2="26.5" xlink:href="#linear-gradient"/><linearGradient id="linear-gradient-9" x1="57.7" y1="37.3" x2="67.6" y2="37.3" xlink:href="#linear-gradient"/><linearGradient id="linear-gradient-10" x1="77.5" y1="26.5" x2="87.4" y2="26.5" xlink:href="#linear-gradient"/><linearGradient id="linear-gradient-11" x1="208.8" y1="73.75" x2="211.41" y2="73.75" xlink:href="#linear-gradient"/><linearGradient id="linear-gradient-12" x1="208.8" y1="53.05" x2="211.41" y2="53.05" xlink:href="#linear-gradient"/><linearGradient id="linear-gradient-13" x1="193.5" y1="63.4" x2="204.21" y2="63.4" xlink:href="#linear-gradient"/><linearGradient id="linear-gradient-14" x1="216" y1="63.4" x2="226.71" y2="63.4" xlink:href="#linear-gradient"/><linearGradient id="linear-gradient-15" x1="55.91" y1="421.27" x2="90.05" y2="421.27" xlink:href="#linear-gradient"/><linearGradient id="linear-gradient-16" x1="56.05" y1="400.53" x2="90.14" y2="400.53" xlink:href="#linear-gradient"/><linearGradient id="linear-gradient-17" x1="345.5" y1="278.75" x2="348.1" y2="278.75" xlink:href="#linear-gradient-3"/><linearGradient id="linear-gradient-18" x1="345.5" y1="258.05" x2="348.1" y2="258.05" xlink:href="#linear-gradient-3"/><linearGradient id="linear-gradient-19" x1="351.8" y1="273.8" x2="361.7" y2="273.8" xlink:href="#linear-gradient-3"/><linearGradient id="linear-gradient-20" x1="332" y1="263" x2="341.9" y2="263" xlink:href="#linear-gradient-3"/><linearGradient id="linear-gradient-21" x1="331.9" y1="273.8" x2="341.8" y2="273.8" xlink:href="#linear-gradient-3"/><linearGradient id="linear-gradient-22" x1="351.7" y1="263" x2="361.6" y2="263" xlink:href="#linear-gradient-3"/><linearGradient id="linear-gradient-23" x1="474.1" y1="410.95" x2="476.7" y2="410.95" xlink:href="#linear-gradient"/><linearGradient id="linear-gradient-24" x1="474.1" y1="390.25" x2="476.7" y2="390.25" xlink:href="#linear-gradient"/><linearGradient id="linear-gradient-25" x1="458.8" y1="400.6" x2="469.5" y2="400.6" xlink:href="#linear-gradient"/><linearGradient id="linear-gradient-26" x1="481.2" y1="400.6" x2="491.91" y2="400.6" xlink:href="#linear-gradient"/><linearGradient id="linear-gradient-27" x1="480.31" y1="231.57" x2="514.45" y2="231.57" gradientUnits="userSpaceOnUse"><stop offset="0.04" stop-color="#3a3adb"/><stop offset="0.99" stop-color="#2a4b8c"/></linearGradient><linearGradient id="linear-gradient-28" x1="480.35" y1="210.83" x2="514.49" y2="210.83" xlink:href="#linear-gradient-27"/></defs><path class="cls-1" d="M89.5,126.5C79,109.2,68,97.8,50.6,89.7s-39.1-8.2-48,11.2,8.6,43.5,33.2,44.9c28.3,1.5,43.4,14.6,45,34,1,12.1,14.5,12.5,17.3,4.6C103.3,170,101.7,146.7,89.5,126.5Z"/><path class="cls-2" d="M311.5,26.9C194.9-92.8,68.2,219.8,35.7,320.8S140.6,438.1,233,456.2c147.6,28.8,215.2-27,226.7-94.2S428.1,146.7,311.5,26.9Z"/><path class="cls-3" d="M386.9,175.8C325,186.6,282.7,128,254.2,91.9c-22.4-28.4-116.5-75.1-175,8.7-53,76-31.1,189.1,52.3,246.4S342,399,420.9,363.5c49.9-22.4,112.9-64.1,120.7-123.3C550.2,175.4,481.9,159.3,386.9,175.8Z"/><path class="cls-4" d="M397.7,68.5c-2.5-.1-5-.1-7.6-.1-41.1,0-92.8,10.3-129.7,22.4L255,92.6c1.1,1.4,2.3,2.9,3.5,4.4,1.3-.4,2.5-.8,3.8-1.3,41-13.5,91.2-22.1,127.9-22.1,2.5,0,5,0,7.4.1,17.3.6,30.3,6.3,37.5,16.5,8.6,12.2,8.6,30.8-.1,52.2-3.9,9.7-7.2,18.9-9.9,28-11,36.6-13.6,72.1-14.2,134.2-.1,14.2,0,27.3.1,40,.1,8,.1,15.5.1,22.8,0,44.1-2.7,74.5-23,94.1-15.8,15.2-34.3,23.3-53.6,23.3-21.2,0-42.9-9.5-64.3-28.3C222.8,415,164,386,104.6,374.7c-45.6-8.7-81.4-17-93.8-36.9-6.7-10.9-6.7-25.6,0-45,6.3-18.1,18.4-43.1,41.9-70.5-.4-2.4-.7-4.8-1-7.1-23.6,26.5-38.1,52.7-46.2,76-21.7,62.6,25.1,74.8,97.9,88.7,58.6,11.2,115.8,39.3,162.8,80.5,24,21,47.1,29.7,68.1,29.7,22.1,0,41.8-9.7,57.6-24.9,22.1-21.4,24.6-53.8,24.6-100.1,0-18-.4-38.1-.2-60.4.6-64.3,3.4-98.8,14.5-134.7,2.6-8.3,5.7-16.8,9.2-25.6C458.1,99.7,439.9,69.9,397.7,68.5Z"/><path class="cls-5" d="M459.8,308.7c-35.5-38.4-76.5-14-105.7,29.4-27.1,40.3-10.6,87.6,33.3,58.4,38.3-25.4,61.6-18,78.7-35.1C489,338.7,459.8,308.7,459.8,308.7Z"/><path class="cls-6" d="M72.6,47.7a1.32,1.32,0,0,1-1.3-1.3V38.3a1.3,1.3,0,1,1,2.6,0v8.1A1.4,1.4,0,0,1,72.6,47.7Z"/><path class="cls-7" d="M72.6,27a1.32,1.32,0,0,1-1.3-1.3V17.6a1.3,1.3,0,1,1,2.6,0v8.1A1.32,1.32,0,0,1,72.6,27Z"/><path class="cls-8" d="M85.3,40.3l-7.1-3.8a1.13,1.13,0,0,1-.5-1.7,1.54,1.54,0,0,1,1.9-.5l7.1,3.8a1.13,1.13,0,0,1,.5,1.7A1.54,1.54,0,0,1,85.3,40.3Z"/><path class="cls-9" d="M65.6,29.5l-7.1-3.8A1.13,1.13,0,0,1,58,24a1.54,1.54,0,0,1,1.9-.5L67,27.3a1.13,1.13,0,0,1,.5,1.7A1.57,1.57,0,0,1,65.6,29.5Z"/><path class="cls-10" d="M57.9,39.8a1.13,1.13,0,0,1,.5-1.7l7.1-3.8a1.54,1.54,0,0,1,1.9.5,1.13,1.13,0,0,1-.5,1.7l-7.1,3.8A1.54,1.54,0,0,1,57.9,39.8Z"/><path class="cls-11" d="M77.7,29a1.13,1.13,0,0,1,.5-1.7l7.1-3.8a1.54,1.54,0,0,1,1.9.5,1.13,1.13,0,0,1-.5,1.7l-7.1,3.8A1.54,1.54,0,0,1,77.7,29Z"/><path class="cls-12" d="M210.1,79.1a1.32,1.32,0,0,1-1.3-1.3V69.7a1.3,1.3,0,0,1,2.6,0v8.1A1.21,1.21,0,0,1,210.1,79.1Z"/><path class="cls-13" d="M210.1,58.4a1.32,1.32,0,0,1-1.3-1.3V49a1.3,1.3,0,0,1,2.6,0v8.1A1.21,1.21,0,0,1,210.1,58.4Z"/><path class="cls-14" d="M202.9,64.7h-8.1a1.3,1.3,0,0,1,0-2.6h8.1a1.32,1.32,0,0,1,1.3,1.3A1.21,1.21,0,0,1,202.9,64.7Z"/><path class="cls-15" d="M225.4,64.7h-8.1a1.3,1.3,0,0,1,0-2.6h8.1a1.32,1.32,0,0,1,1.3,1.3A1.21,1.21,0,0,1,225.4,64.7Z"/><path class="cls-16" d="M73,428a17.92,17.92,0,0,1-17-11.7,1.27,1.27,0,0,1,1-1.7,1.31,1.31,0,0,1,1.6.8,15.42,15.42,0,0,0,28.8,0,1.38,1.38,0,0,1,2.6.9A18.06,18.06,0,0,1,73,428Z"/><path class="cls-17" d="M89.1,407.2a1.31,1.31,0,0,1-1.6-.8,15.42,15.42,0,0,0-28.8,0,1.38,1.38,0,0,1-2.6-.9,18.2,18.2,0,0,1,34,0A1.45,1.45,0,0,1,89.1,407.2Z"/><path class="cls-18" d="M346.8,284.1a1.32,1.32,0,0,1-1.3-1.3v-8.1a1.3,1.3,0,0,1,2.6,0v8.1A1.32,1.32,0,0,1,346.8,284.1Z"/><path class="cls-19" d="M346.8,263.4a1.32,1.32,0,0,1-1.3-1.3V254a1.3,1.3,0,0,1,2.6,0v8.1A1.32,1.32,0,0,1,346.8,263.4Z"/><path class="cls-20" d="M359.6,276.8l-7.1-3.8a1.13,1.13,0,0,1-.5-1.7,1.54,1.54,0,0,1,1.9-.5l7.1,3.8a1.13,1.13,0,0,1,.5,1.7A1.57,1.57,0,0,1,359.6,276.8Z"/><path class="cls-21" d="M339.8,266l-7.1-3.8a1.13,1.13,0,0,1-.5-1.7,1.54,1.54,0,0,1,1.9-.5l7.1,3.8a1.13,1.13,0,0,1,.5,1.7A1.57,1.57,0,0,1,339.8,266Z"/><path class="cls-22" d="M332.1,276.3a1.13,1.13,0,0,1,.5-1.7l7.1-3.8a1.54,1.54,0,0,1,1.9.5,1.13,1.13,0,0,1-.5,1.7l-7.1,3.8A1.57,1.57,0,0,1,332.1,276.3Z"/><path class="cls-23" d="M351.9,265.5a1.13,1.13,0,0,1,.5-1.7l7.1-3.8a1.54,1.54,0,0,1,1.9.5,1.13,1.13,0,0,1-.5,1.7l-7.1,3.8A1.54,1.54,0,0,1,351.9,265.5Z"/><path class="cls-24" d="M475.4,416.3a1.32,1.32,0,0,1-1.3-1.3v-8.1a1.3,1.3,0,0,1,2.6,0V415A1.32,1.32,0,0,1,475.4,416.3Z"/><path class="cls-25" d="M475.4,395.6a1.32,1.32,0,0,1-1.3-1.3v-8.1a1.3,1.3,0,0,1,2.6,0v8.1A1.32,1.32,0,0,1,475.4,395.6Z"/><path class="cls-26" d="M468.2,401.9h-8.1a1.3,1.3,0,0,1,0-2.6h8.1a1.3,1.3,0,1,1,0,2.6Z"/><path class="cls-27" d="M490.6,401.9h-8.1a1.3,1.3,0,0,1,0-2.6h8.1a1.32,1.32,0,0,1,1.3,1.3A1.21,1.21,0,0,1,490.6,401.9Z"/><path class="cls-28" d="M497.4,238.3a17.92,17.92,0,0,1-17-11.7,1.27,1.27,0,0,1,1-1.7,1.31,1.31,0,0,1,1.6.8,15.42,15.42,0,0,0,28.8,0,1.38,1.38,0,0,1,2.6.9A18.06,18.06,0,0,1,497.4,238.3Z"/><path class="cls-29" d="M513.4,217.5a1.31,1.31,0,0,1-1.6-.8,15.42,15.42,0,0,0-28.8,0,1.38,1.38,0,0,1-2.6-.9,18.2,18.2,0,0,1,34,0A1.3,1.3,0,0,1,513.4,217.5Z"/><path class="cls-30" d="M264.32,295.32c-2.58,4.69-6.48,8.25-10.56,11.42-6,4.66-14.71.8-15.9-6.8-.21-1.38-.59-1.73-2-1.86a9.93,9.93,0,0,1-9.43-9.5c-.09-1.14-.49-1.36-1.52-1.46-5.53-.55-9.09-4.26-9.49-9.89-.07-1-.3-1.3-1.31-1.44-8.31-1.18-12-9.41-7.21-16.31.57-.82.65-1.33-.16-1.92a5.92,5.92,0,0,1-.56-.56c-7.65-7.66-7.7-7.73-11.65-17.35-4.07,2.34-5.87,2.09-9.23-1.27-4.73-4.73-9.46-9.44-14.16-14.18-1.29-1.29-1.37-2.84-.22-3.82a2.48,2.48,0,0,1,3.71.22c.62.6,1.22,1.21,1.83,1.82,4.21,4.21,8.44,8.39,12.6,12.65,1,1.05,1.6,1.09,2.67,0q18.6-18.72,37.31-37.31c1.11-1.11,1.13-1.73,0-2.83-4.55-4.42-9-8.95-13.49-13.44-.33-.33-.66-.65-1-1-1.12-1.2-1.26-2.52-.08-3.69a2.33,2.33,0,0,1,3.54.07c5.3,5.27,10.6,10.54,15.83,15.88a4.8,4.8,0,0,1,1.11,5c-.34,1.07,0,1.35.93,1.61a29.48,29.48,0,0,1,13.82,8.53c1,1.07,1.51.91,2.43,0,4.9-5.1,10.43-9.17,17.62-10.36.9-.15.82-.65.77-1.26a5.41,5.41,0,0,1,1.61-4.51q7.63-7.67,15.29-15.29c1.36-1.34,2.73-1.39,3.83-.28s.92,2.53-.31,3.87c-.22.24-.47.46-.7.7-4.44,4.44-8.85,8.92-13.35,13.29-1.25,1.21-1.43,1.91-.07,3.26q18.6,18.42,37,37c1.24,1.25,1.88,1,3-.1,4.44-4.54,9-9,13.44-13.49.33-.32.64-.67,1-1a2.38,2.38,0,0,1,3.55,0,2.34,2.34,0,0,1,0,3.55q-7.87,8-15.86,15.84a5,5,0,0,1-4,1.3c-.62-.05-1.08-.09-1.21.81-1,7.29-5,13-10.12,18-.9.87-1.08,1.43-.35,2.6a10.16,10.16,0,0,1-8.63,15.73c-1.22,0-1.48.37-1.7,1.47-1.12,5.51-5.12,8.69-10.72,8.55-.94,0-1.45.05-1.6,1.1a10.26,10.26,0,0,1-15.95,6.74A.72.72,0,0,0,264.32,295.32Zm-22.07-52.81a15.82,15.82,0,0,1-10.83-4.08c-3.45-3.08-3.56-6.29-.32-9.54q7.56-7.57,15.15-15.14c.62-.62,1.25-1,.28-2a27.26,27.26,0,0,0-14.06-8.07,3.14,3.14,0,0,0-3.27,1q-13.14,13.25-26.35,26.4c-4.6,4.58-4.68,5-1.95,11a28.31,28.31,0,0,0,1.86,3.48c2.1,3.35,5.17,5.82,7.84,8.65.59.63,1,.4,1.45-.1,1.39-1.42,2.81-2.81,4.21-4.21,6-6,14-4.6,17.56,3.15.39.83.61.9,1.4.53,4.2-1.95,8.18-1.49,11.59,1.64s4,7,2.52,11.26c-.35,1-.1,1.18.72,1.52,5.61,2.25,7.9,6.74,6.47,12.72-.19.83-.18,1.1.71,1.35a9.2,9.2,0,0,1,5.42,3.77,29.35,29.35,0,0,0,3.76,4.33c2.43,2.49,5.48,2.64,7.73.45s2.09-5.34-.29-7.75c-4.05-4.1-8.13-8.15-12.2-12.21-.37-.38-.76-.74-1.1-1.14a2.49,2.49,0,0,1,3.53-3.52c.4.34.76.73,1.13,1.11,4.49,4.48,9,9,13.48,13.45,2.43,2.42,5.61,2.56,7.76.45s2.05-5.37-.47-7.9q-8.4-8.43-16.82-16.84c-.38-.37-.77-.73-1.11-1.13a2.35,2.35,0,0,1-.06-3.4,2.42,2.42,0,0,1,3.56-.18,10.66,10.66,0,0,1,1.13,1.1c5.94,5.94,11.9,11.86,17.81,17.82a5.44,5.44,0,0,0,5,1.89,4.92,4.92,0,0,0,4.06-3.37,5.23,5.23,0,0,0-1.51-5.78l-16.9-17c-2.05-2.07-4.12-4.11-6.11-6.23a2.32,2.32,0,0,1,0-3.4,2.41,2.41,0,0,1,3.56-.1,18.44,18.44,0,0,1,1.42,1.38q8.09,8.19,16.19,16.36c2.68,2.71,2.72,2.72,5.32-.09,4-4.36,7.13-9.19,7.37-15.38a4.9,4.9,0,0,0-1.55-4c-10.14-10-20.29-20.1-30.26-30.33a6.5,6.5,0,0,0-6.53-2c-5.27,1-9.55,3.8-13.27,7.48-7.53,7.43-15,14.95-22.49,22.4-.93.93-.94,1.48,0,2.37a10.77,10.77,0,0,0,14.61-.2c2.36-2.22,4.57-4.6,6.9-6.84,3.61-3.48,7.06-4,11.6-1.92.84.39,1.64.87,2.46,1.28,6.23,3.15,12.21,2,16.85-3.17.62-.69,1.15-1.46,1.78-2.13a2.35,2.35,0,0,1,3.39-.33,2.25,2.25,0,0,1,.55,3.34c-4.13,5.74-9.44,9.37-16.85,9.05a20.29,20.29,0,0,1-8.65-2.6c-4.54-2.4-5.28-2.28-8.95,1.38-1.82,1.82-3.62,3.66-5.47,5.46A15.54,15.54,0,0,1,242.25,242.51ZM225.7,282.09a4.9,4.9,0,0,0,3.72-1.55c4.67-4.67,9.36-9.31,14-14a5.1,5.1,0,0,0,.14-7.43,5.22,5.22,0,0,0-7.47,0c-1.35,1.26-2.62,2.6-3.93,3.91-3.36,3.36-6.73,6.71-10.07,10.09a5.07,5.07,0,0,0-1.21,5.82A5,5,0,0,0,225.7,282.09ZM252,277.75a4.94,4.94,0,0,0-3-4.74,4.8,4.8,0,0,0-5.69.85c-3.56,3.43-7.07,6.91-10.49,10.48a5.19,5.19,0,0,0,7.49,7.19c3.4-3.32,6.72-6.7,10.08-10.06A5,5,0,0,0,252,277.75Zm-22.62-20.58c0-2.73-.94-4.35-2.9-5.33a5.07,5.07,0,0,0-5.86.94c-3,2.94-6,5.93-9,8.94-2.31,2.34-2.38,5.45-.28,7.59s5.23,2.12,7.59-.17c2.93-2.85,5.79-5.77,8.68-8.66A5.05,5.05,0,0,0,229.34,257.17Zm18.6,46.46a4.84,4.84,0,0,0,3.43-1.3c2.36-2.3,4.76-4.57,7-7a5.17,5.17,0,0,0-7.33-7.26c-2.42,2.23-4.76,4.57-7,7a4.79,4.79,0,0,0-.79,5.54A5,5,0,0,0,247.94,303.63Z"/><path class="cls-30" d="M378.51,230.93l11-14.43c1.79-2.36,3.06-2.87,4.49-1.83s1.3,2.54-.55,5q-7.32,9.63-14.63,19.27c-2,2.61-3.42,2.59-5.42,0q-7.56-9.95-15.12-19.9a3.16,3.16,0,0,1-.82-3.09,2.36,2.36,0,0,1,1.89-1.58,2.66,2.66,0,0,1,2.71,1.27l8.86,11.69c.67.89,1.35,1.77,2.35,3.08a73,73,0,0,0-1.26-12c-6-34.17-23.08-61.46-51.54-81.26-25-17.37-52.87-24.21-83.11-21a122.75,122.75,0,1,0,50.26,239.13c.32-.1.63-.21,1-.3,1.89-.53,3.34,0,3.68,1.58.38,1.75-.57,2.72-2.16,3.23a124.44,124.44,0,0,1-23.19,5.12c-21.26,2.56-42.09.58-61.92-7.57-44.83-18.44-72.38-51.63-80.22-99.51-10.89-66.47,32.07-129.18,97.61-144.34,68.91-15.94,138.48,28.23,153.34,97.35a147.67,147.67,0,0,1,2.68,18.83C378.38,230,378.43,230.28,378.51,230.93Z"/><path class="cls-30" d="M150.67,244.55c0-57.25,38.22-100.22,88.54-105.91a100.15,100.15,0,0,1,110.11,81A101.63,101.63,0,0,1,351,237.41c0,2.36-.85,3.21-3.22,3.22-4.17,0-8.33,0-12.5,0-2.18,0-3.35-.9-3.36-2.49s1.17-2.52,3.32-2.54h7.93c2.8,0,2.84,0,2.66-2.89a90.26,90.26,0,0,0-7.5-31.85c-14.25-31.34-38.27-50.31-72.19-56.59a79.8,79.8,0,0,0-11.23-1.19c-1.21,0-1.62.22-1.58,1.49.08,3,0,6.08,0,9.12,0,2.16-.93,3.35-2.53,3.35s-2.5-1.22-2.52-3.36c0-3-.08-5.95,0-8.92.06-1.44-.4-1.74-1.78-1.67-23.44,1.21-43.85,9.7-60.9,25.81-18.51,17.48-28.37,39.12-29.89,64.56-.11,1.74.27,2.29,2.07,2.19,2.9-.17,5.82-.06,8.73,0,2,0,3.14,1,3.14,2.51s-1.14,2.49-3.15,2.51c-3,0-6.09.09-9.12,0-1.46-.05-1.74.45-1.67,1.8,1.22,23.67,9.9,44.21,26.21,61.35,15.9,16.72,35.52,26.27,58.43,29,2,.24,4,.25,5.93.48,1.49.17,2.1-.18,2-1.85-.15-2.83,0-5.68,0-8.53,0-2.37.83-3.55,2.47-3.59s2.58,1.19,2.58,3.68q0,5.86,0,11.71c0,3-.75,3.77-3.79,3.68-33.82-1.07-60.85-15.21-80.67-42.61C156.53,278.59,150.76,259.17,150.67,244.55Z"/><path class="cls-30" d="M328.39,369.52a88.29,88.29,0,0,0,.88-10.87c-.12-5.49-4.18-8.58-9.54-7.26a72.16,72.16,0,0,0-9.68,3.51c-4.69,1.87-6.58,1.21-9.13-3.17-1.73-3-3.46-5.93-5.18-8.91s-1.35-5.42,1.34-7.71c2.27-1.93,4.62-3.76,6.91-5.66a22.27,22.27,0,0,0,1.86-1.78c3.89-4.07,3.19-9.08-1.66-12a82,82,0,0,0-9.69-4.51c-4-1.76-5-3.75-3.87-8q1.38-5.26,2.78-10.53c.86-3.2,3-4.68,6.3-4.4,3.94.35,7.86,1.06,11.85.95,5.07-.14,8.29-4.26,7.1-9.19A74.37,74.37,0,0,0,315,269.74c-1.76-4.41-1-6.44,3.09-8.84l8.92-5.17c3.2-1.86,5.62-1.44,8,1.43s4.57,5.49,6.83,8.25c2.7,3.29,5.95,2.85,9.35,2.1,1.27-.29,1.92-1.57,2.6-2.62a63.18,63.18,0,0,0,4.78-10,8.91,8.91,0,0,1,2.16-3.52,4.82,4.82,0,0,1,4.57-1.22c4.22,1.12,8.45,2.16,12.65,3.33,2.72.75,4.05,3,3.79,6.16-.31,3.81-1,7.59-1,11.45.11,5.49,4.1,8.66,9.43,7.41,3.62-.85,7-2.47,10.42-3.77,4-1.5,6.13-.73,8.26,2.93l5.37,9.26c1.81,3.13,1.42,5.54-1.36,7.88-3,2.5-6.21,4.73-8.89,7.58a8,8,0,0,0-1.48,8.92,6.4,6.4,0,0,0,2.74,2.51,70.9,70.9,0,0,0,10.2,4.82,7.6,7.6,0,0,1,3.5,2.48,4.92,4.92,0,0,1,.79,4.32c-1.08,3.95-2.09,7.92-3.16,11.87-.85,3.12-2.71,4.52-5.94,4.31-3-.2-6.05-.59-9.08-.86-.85-.08-1.73,0-2.57-.09-4.22-.66-5.95,2.45-7.77,5.23-.64,1-.21,2.33,0,3.5.76,3.65,2.32,7,3.68,10.45,1.87,4.72,1.24,6.63-3.07,9.15q-4.54,2.67-9.08,5.29c-2.84,1.63-5.25,1.28-7.43-1.22-1.95-2.25-3.76-4.61-5.65-6.9-.55-.66-1.25-1.2-1.75-1.89-2.5-3.42-5.93-2.56-9.2-1.91-1.21.24-1.88,1.6-2.56,2.66a68.33,68.33,0,0,0-4.76,10c-2,4.58-3.75,5.46-8.53,4.22-3.32-.86-6.64-1.77-9.95-2.65C329.4,375.64,328.13,373.87,328.39,369.52Zm57.52-23c-.44-2.45,2-4.27,3.42-6.59a8.67,8.67,0,0,1,6.67-4c4.73-.69,9.36.23,14,.73,1.13.12,1.68-.07,2-1.25.81-3.33,1.67-6.66,2.63-10,.33-1.15,0-1.67-1-2.1-3.18-1.3-6.34-2.63-9.38-4.24-4.23-2.22-7.37-5.15-7.16-10.42a3.32,3.32,0,0,0-.14-1,6.81,6.81,0,0,1,1-5.66,19.91,19.91,0,0,1,3.14-3.83,85.09,85.09,0,0,1,8.05-6.75c.9-.7,1.27-1.27.55-2.43-1.79-2.85-3.47-5.78-5.09-8.73-.62-1.13-1.24-1.25-2.37-.78-2.74,1.14-5.5,2.25-8.3,3.22-5,1.71-9.6,2.14-14-2-2.24-2.1-3.68-4.15-4-7.13-.51-4.53.23-9,.74-13.43.15-1.29-.1-1.91-1.43-2.22-3.22-.75-6.42-1.56-9.58-2.52-1.36-.42-1.86,0-2.34,1.18a80.47,80.47,0,0,1-4.76,10.23c-2,3.48-4.61,6.13-9,6a5.6,5.6,0,0,0-1.77.23,6.48,6.48,0,0,1-5.14-.76,17.8,17.8,0,0,1-4.06-3.16,77.62,77.62,0,0,1-7-8.33c-.71-.92-1.28-1.24-2.43-.52-2.85,1.79-5.78,3.47-8.73,5.08-1.16.64-1.2,1.29-.74,2.4,1.14,2.74,2.25,5.5,3.2,8.31,1.67,5,2.19,9.63-2.05,14-2.08,2.14-4.06,3.59-7,3.94-4.53.56-9-.18-13.43-.73-1.48-.19-2.11.21-2.44,1.67-.7,3.1-1.52,6.16-2.41,9.2-.38,1.32-.19,2,1.18,2.52a68.79,68.79,0,0,1,10.41,4.84,11.57,11.57,0,0,1,6,9.14c.61,4.61-.92,7.79-3.9,10.79a83.26,83.26,0,0,1-8.34,7c-.95.72-1.19,1.31-.49,2.43,1.79,2.85,3.48,5.77,5.09,8.73.64,1.18,1.29,1.18,2.38.72,2.56-1.07,5.14-2.09,7.75-3,5.22-1.85,10.14-2.54,14.7,2,1.9,1.88,3.3,3.64,3.73,6.23.79,4.79-.1,9.49-.68,14.2-.17,1.34.16,1.89,1.46,2.19,3.28.78,6.54,1.62,9.77,2.57,1.18.34,1.64,0,2.08-1,1.24-2.92,2.48-5.84,3.88-8.68,2.24-4.55,5.18-8.23,11-7.86a1.66,1.66,0,0,0,.58-.11,7.07,7.07,0,0,1,6,1.13,21.26,21.26,0,0,1,3.79,3.17,72.61,72.61,0,0,1,6.47,7.77c.91,1.23,1.64,1.3,2.87.48,1.87-1.23,3.88-2.27,5.82-3.41,4-2.31,3.93-2.3,2.23-6.58C387.78,355.47,386.11,351.56,385.91,346.5Z"/><path class="cls-30" d="M218.74,195a3.08,3.08,0,0,1-1,2.09q-9.54,9.51-19.06,19a2.5,2.5,0,0,1-3.71.25c-1.13-.95-1.06-2.58.2-3.84q9.49-9.57,19-19.07a2.57,2.57,0,0,1,3.07-.68A2.51,2.51,0,0,1,218.74,195Z"/><path class="cls-30" d="M313.42,212.14a2.43,2.43,0,0,1-3.67,2.12,5.51,5.51,0,0,1-1.2-1L290.33,195a6.54,6.54,0,0,1-1.05-1.19,2.33,2.33,0,0,1,.44-3.06,2.24,2.24,0,0,1,2.9-.38,4.39,4.39,0,0,1,.93.74l18.93,18.92A2.67,2.67,0,0,1,313.42,212.14Z"/><path class="cls-30" d="M181.6,222.15a6.29,6.29,0,1,1,6.34,6.22A6.25,6.25,0,0,1,181.6,222.15Zm7.53-.13a1.2,1.2,0,0,0-1.37-1.13,1.06,1.06,0,0,0-1.06,1.18,1.09,1.09,0,0,0,1.23,1.22A1.2,1.2,0,0,0,189.13,222Z"/><path class="cls-30" d="M318.81,226.89a6.24,6.24,0,0,1-6.26-6.3,6.32,6.32,0,0,1,6.3-6.3,6.46,6.46,0,0,1,6.32,6.34A6.33,6.33,0,0,1,318.81,226.89Zm1.27-6.25c-.07-.72-.43-1.23-1.2-1.25a1.22,1.22,0,0,0-.09,2.44A1.2,1.2,0,0,0,320.08,220.64Z"/><path class="cls-30" d="M379.14,315.06a24.11,24.11,0,1,1-24-24.25A24.23,24.23,0,0,1,379.14,315.06ZM355,334a19.05,19.05,0,1,0-19-19A19,19,0,0,0,355,334Z"/></svg>