<svg id="Layer_1" data-name="Layer 1" xmlns="http://www.w3.org/2000/svg" xmlns:xlink="http://www.w3.org/1999/xlink" viewBox="0 0 543 490"><defs><style>.cls-1{fill:url(#linear-gradient);}.cls-2{fill:#2a2a8c;}.cls-3{fill:url(#linear-gradient-2);}.cls-4{opacity:0.9;fill:url(#linear-gradient-3);}.cls-5{fill:url(#linear-gradient-4);}.cls-6{fill:url(#linear-gradient-5);}.cls-7{fill:url(#linear-gradient-6);}.cls-8{fill:url(#linear-gradient-7);}.cls-9{fill:url(#linear-gradient-8);}.cls-10{fill:url(#linear-gradient-9);}.cls-11{fill:url(#linear-gradient-10);}.cls-12,.cls-13,.cls-14,.cls-15,.cls-18,.cls-19,.cls-20,.cls-21,.cls-22,.cls-23,.cls-28,.cls-29{fill-opacity:0.2;}.cls-12{fill:url(#linear-gradient-11);}.cls-13{fill:url(#linear-gradient-12);}.cls-14{fill:url(#linear-gradient-13);}.cls-15{fill:url(#linear-gradient-14);}.cls-16{fill:url(#linear-gradient-15);}.cls-17{fill:url(#linear-gradient-16);}.cls-18{fill:url(#linear-gradient-17);}.cls-19{fill:url(#linear-gradient-18);}.cls-20{fill:url(#linear-gradient-19);}.cls-21{fill:url(#linear-gradient-20);}.cls-22{fill:url(#linear-gradient-21);}.cls-23{fill:url(#linear-gradient-22);}.cls-24{fill:url(#linear-gradient-23);}.cls-25{fill:url(#linear-gradient-24);}.cls-26{fill:url(#linear-gradient-25);}.cls-27{fill:url(#linear-gradient-26);}.cls-28{fill:url(#linear-gradient-27);}.cls-29{fill:url(#linear-gradient-28);}.cls-30{fill:none;stroke:#39ffff;stroke-miterlimit:10;stroke-width:2px;}</style><linearGradient id="linear-gradient" x1="0.21" y1="137.11" x2="100.9" y2="137.11" gradientUnits="userSpaceOnUse"><stop offset="0.04" stop-color="#3a3adb"/><stop offset="0.99" stop-color="#2a2a8c"/></linearGradient><linearGradient id="linear-gradient-2" x1="50.45" y1="221.61" x2="542.33" y2="221.61" gradientUnits="userSpaceOnUse"><stop offset="0.04" stop-color="#3a3adb"/><stop offset="0.77" stop-color="#2a2a8c"/></linearGradient><linearGradient id="linear-gradient-3" x1="0.16" y1="279.25" x2="446.97" y2="279.25" gradientUnits="userSpaceOnUse"><stop offset="0.04" stop-color="#3a3adb"/><stop offset="0.99" stop-color="#2a47c9"/></linearGradient><linearGradient id="linear-gradient-4" x1="340.93" y1="347.57" x2="474.87" y2="347.57" xlink:href="#linear-gradient"/><linearGradient id="linear-gradient-5" x1="71.3" y1="42.35" x2="73.9" y2="42.35" xlink:href="#linear-gradient"/><linearGradient id="linear-gradient-6" x1="71.3" y1="21.65" x2="73.9" y2="21.65" xlink:href="#linear-gradient"/><linearGradient id="linear-gradient-7" x1="77.5" y1="37.3" x2="87.4" y2="37.3" xlink:href="#linear-gradient"/><linearGradient id="linear-gradient-8" x1="57.8" y1="26.5" x2="67.7" y2="26.5" xlink:href="#linear-gradient"/><linearGradient id="linear-gradient-9" x1="57.7" y1="37.3" x2="67.6" y2="37.3" xlink:href="#linear-gradient"/><linearGradient id="linear-gradient-10" x1="77.5" y1="26.5" x2="87.4" y2="26.5" xlink:href="#linear-gradient"/><linearGradient id="linear-gradient-11" x1="208.8" y1="73.75" x2="211.41" y2="73.75" xlink:href="#linear-gradient"/><linearGradient id="linear-gradient-12" x1="208.8" y1="53.05" x2="211.41" y2="53.05" xlink:href="#linear-gradient"/><linearGradient id="linear-gradient-13" x1="193.5" y1="63.4" x2="204.21" y2="63.4" xlink:href="#linear-gradient"/><linearGradient id="linear-gradient-14" x1="216" y1="63.4" x2="226.71" y2="63.4" xlink:href="#linear-gradient"/><linearGradient id="linear-gradient-15" x1="55.91" y1="421.27" x2="90.05" y2="421.27" xlink:href="#linear-gradient"/><linearGradient id="linear-gradient-16" x1="56.05" y1="400.53" x2="90.14" y2="400.53" xlink:href="#linear-gradient"/><linearGradient id="linear-gradient-17" x1="345.5" y1="278.75" x2="348.1" y2="278.75" xlink:href="#linear-gradient-3"/><linearGradient id="linear-gradient-18" x1="345.5" y1="258.05" x2="348.1" y2="258.05" xlink:href="#linear-gradient-3"/><linearGradient id="linear-gradient-19" x1="351.8" y1="273.8" x2="361.7" y2="273.8" xlink:href="#linear-gradient-3"/><linearGradient id="linear-gradient-20" x1="332" y1="263" x2="341.9" y2="263" xlink:href="#linear-gradient-3"/><linearGradient id="linear-gradient-21" x1="331.9" y1="273.8" x2="341.8" y2="273.8" xlink:href="#linear-gradient-3"/><linearGradient id="linear-gradient-22" x1="351.7" y1="263" x2="361.6" y2="263" xlink:href="#linear-gradient-3"/><linearGradient id="linear-gradient-23" x1="474.1" y1="410.95" x2="476.7" y2="410.95" xlink:href="#linear-gradient"/><linearGradient id="linear-gradient-24" x1="474.1" y1="390.25" x2="476.7" y2="390.25" xlink:href="#linear-gradient"/><linearGradient id="linear-gradient-25" x1="458.8" y1="400.6" x2="469.5" y2="400.6" xlink:href="#linear-gradient"/><linearGradient id="linear-gradient-26" x1="481.2" y1="400.6" x2="491.91" y2="400.6" xlink:href="#linear-gradient"/><linearGradient id="linear-gradient-27" x1="480.31" y1="231.57" x2="514.45" y2="231.57" gradientUnits="userSpaceOnUse"><stop offset="0.04" stop-color="#3a3adb"/><stop offset="0.99" stop-color="#2a4b8c"/></linearGradient><linearGradient id="linear-gradient-28" x1="480.35" y1="210.83" x2="514.49" y2="210.83" xlink:href="#linear-gradient-27"/></defs><path class="cls-1" d="M89.5,126.5C79,109.2,68,97.8,50.6,89.7s-39.1-8.2-48,11.2,8.6,43.5,33.2,44.9c28.3,1.5,43.4,14.6,45,34,1,12.1,14.5,12.5,17.3,4.6C103.3,170,101.7,146.7,89.5,126.5Z"/><path class="cls-2" d="M311.5,26.9C194.9-92.8,68.2,219.8,35.7,320.8S140.6,438.1,233,456.2c147.6,28.8,215.2-27,226.7-94.2S428.1,146.7,311.5,26.9Z"/><path class="cls-3" d="M386.9,175.8C325,186.6,282.7,128,254.2,91.9c-22.4-28.4-116.5-75.1-175,8.7-53,76-31.1,189.1,52.3,246.4S342,399,420.9,363.5c49.9-22.4,112.9-64.1,120.7-123.3C550.2,175.4,481.9,159.3,386.9,175.8Z"/><path class="cls-4" d="M397.7,68.5c-2.5-.1-5-.1-7.6-.1-41.1,0-92.8,10.3-129.7,22.4L255,92.6c1.1,1.4,2.3,2.9,3.5,4.4,1.3-.4,2.5-.8,3.8-1.3,41-13.5,91.2-22.1,127.9-22.1,2.5,0,5,0,7.4.1,17.3.6,30.3,6.3,37.5,16.5,8.6,12.2,8.6,30.8-.1,52.2-3.9,9.7-7.2,18.9-9.9,28-11,36.6-13.6,72.1-14.2,134.2-.1,14.2,0,27.3.1,40,.1,8,.1,15.5.1,22.8,0,44.1-2.7,74.5-23,94.1-15.8,15.2-34.3,23.3-53.6,23.3-21.2,0-42.9-9.5-64.3-28.3C222.8,415,164,386,104.6,374.7c-45.6-8.7-81.4-17-93.8-36.9-6.7-10.9-6.7-25.6,0-45,6.3-18.1,18.4-43.1,41.9-70.5-.4-2.4-.7-4.8-1-7.1-23.6,26.5-38.1,52.7-46.2,76-21.7,62.6,25.1,74.8,97.9,88.7,58.6,11.2,115.8,39.3,162.8,80.5,24,21,47.1,29.7,68.1,29.7,22.1,0,41.8-9.7,57.6-24.9,22.1-21.4,24.6-53.8,24.6-100.1,0-18-.4-38.1-.2-60.4.6-64.3,3.4-98.8,14.5-134.7,2.6-8.3,5.7-16.8,9.2-25.6C458.1,99.7,439.9,69.9,397.7,68.5Z"/><path class="cls-5" d="M459.8,308.7c-35.5-38.4-76.5-14-105.7,29.4-27.1,40.3-10.6,87.6,33.3,58.4,38.3-25.4,61.6-18,78.7-35.1C489,338.7,459.8,308.7,459.8,308.7Z"/><path class="cls-6" d="M72.6,47.7a1.32,1.32,0,0,1-1.3-1.3V38.3a1.3,1.3,0,1,1,2.6,0v8.1A1.4,1.4,0,0,1,72.6,47.7Z"/><path class="cls-7" d="M72.6,27a1.32,1.32,0,0,1-1.3-1.3V17.6a1.3,1.3,0,1,1,2.6,0v8.1A1.32,1.32,0,0,1,72.6,27Z"/><path class="cls-8" d="M85.3,40.3l-7.1-3.8a1.13,1.13,0,0,1-.5-1.7,1.54,1.54,0,0,1,1.9-.5l7.1,3.8a1.13,1.13,0,0,1,.5,1.7A1.54,1.54,0,0,1,85.3,40.3Z"/><path class="cls-9" d="M65.6,29.5l-7.1-3.8A1.13,1.13,0,0,1,58,24a1.54,1.54,0,0,1,1.9-.5L67,27.3a1.13,1.13,0,0,1,.5,1.7A1.57,1.57,0,0,1,65.6,29.5Z"/><path class="cls-10" d="M57.9,39.8a1.13,1.13,0,0,1,.5-1.7l7.1-3.8a1.54,1.54,0,0,1,1.9.5,1.13,1.13,0,0,1-.5,1.7l-7.1,3.8A1.54,1.54,0,0,1,57.9,39.8Z"/><path class="cls-11" d="M77.7,29a1.13,1.13,0,0,1,.5-1.7l7.1-3.8a1.54,1.54,0,0,1,1.9.5,1.13,1.13,0,0,1-.5,1.7l-7.1,3.8A1.54,1.54,0,0,1,77.7,29Z"/><path class="cls-12" d="M210.1,79.1a1.32,1.32,0,0,1-1.3-1.3V69.7a1.3,1.3,0,0,1,2.6,0v8.1A1.21,1.21,0,0,1,210.1,79.1Z"/><path class="cls-13" d="M210.1,58.4a1.32,1.32,0,0,1-1.3-1.3V49a1.3,1.3,0,0,1,2.6,0v8.1A1.21,1.21,0,0,1,210.1,58.4Z"/><path class="cls-14" d="M202.9,64.7h-8.1a1.3,1.3,0,0,1,0-2.6h8.1a1.32,1.32,0,0,1,1.3,1.3A1.21,1.21,0,0,1,202.9,64.7Z"/><path class="cls-15" d="M225.4,64.7h-8.1a1.3,1.3,0,0,1,0-2.6h8.1a1.32,1.32,0,0,1,1.3,1.3A1.21,1.21,0,0,1,225.4,64.7Z"/><path class="cls-16" d="M73,428a17.92,17.92,0,0,1-17-11.7,1.27,1.27,0,0,1,1-1.7,1.31,1.31,0,0,1,1.6.8,15.42,15.42,0,0,0,28.8,0,1.38,1.38,0,0,1,2.6.9A18.06,18.06,0,0,1,73,428Z"/><path class="cls-17" d="M89.1,407.2a1.31,1.31,0,0,1-1.6-.8,15.42,15.42,0,0,0-28.8,0,1.38,1.38,0,0,1-2.6-.9,18.2,18.2,0,0,1,34,0A1.45,1.45,0,0,1,89.1,407.2Z"/><path class="cls-18" d="M346.8,284.1a1.32,1.32,0,0,1-1.3-1.3v-8.1a1.3,1.3,0,0,1,2.6,0v8.1A1.32,1.32,0,0,1,346.8,284.1Z"/><path class="cls-19" d="M346.8,263.4a1.32,1.32,0,0,1-1.3-1.3V254a1.3,1.3,0,0,1,2.6,0v8.1A1.32,1.32,0,0,1,346.8,263.4Z"/><path class="cls-20" d="M359.6,276.8l-7.1-3.8a1.13,1.13,0,0,1-.5-1.7,1.54,1.54,0,0,1,1.9-.5l7.1,3.8a1.13,1.13,0,0,1,.5,1.7A1.57,1.57,0,0,1,359.6,276.8Z"/><path class="cls-21" d="M339.8,266l-7.1-3.8a1.13,1.13,0,0,1-.5-1.7,1.54,1.54,0,0,1,1.9-.5l7.1,3.8a1.13,1.13,0,0,1,.5,1.7A1.57,1.57,0,0,1,339.8,266Z"/><path class="cls-22" d="M332.1,276.3a1.13,1.13,0,0,1,.5-1.7l7.1-3.8a1.54,1.54,0,0,1,1.9.5,1.13,1.13,0,0,1-.5,1.7l-7.1,3.8A1.57,1.57,0,0,1,332.1,276.3Z"/><path class="cls-23" d="M351.9,265.5a1.13,1.13,0,0,1,.5-1.7l7.1-3.8a1.54,1.54,0,0,1,1.9.5,1.13,1.13,0,0,1-.5,1.7l-7.1,3.8A1.54,1.54,0,0,1,351.9,265.5Z"/><path class="cls-24" d="M475.4,416.3a1.32,1.32,0,0,1-1.3-1.3v-8.1a1.3,1.3,0,0,1,2.6,0V415A1.32,1.32,0,0,1,475.4,416.3Z"/><path class="cls-25" d="M475.4,395.6a1.32,1.32,0,0,1-1.3-1.3v-8.1a1.3,1.3,0,0,1,2.6,0v8.1A1.32,1.32,0,0,1,475.4,395.6Z"/><path class="cls-26" d="M468.2,401.9h-8.1a1.3,1.3,0,0,1,0-2.6h8.1a1.3,1.3,0,1,1,0,2.6Z"/><path class="cls-27" d="M490.6,401.9h-8.1a1.3,1.3,0,0,1,0-2.6h8.1a1.32,1.32,0,0,1,1.3,1.3A1.21,1.21,0,0,1,490.6,401.9Z"/><path class="cls-28" d="M497.4,238.3a17.92,17.92,0,0,1-17-11.7,1.27,1.27,0,0,1,1-1.7,1.31,1.31,0,0,1,1.6.8,15.42,15.42,0,0,0,28.8,0,1.38,1.38,0,0,1,2.6.9A18.06,18.06,0,0,1,497.4,238.3Z"/><path class="cls-29" d="M513.4,217.5a1.31,1.31,0,0,1-1.6-.8,15.42,15.42,0,0,0-28.8,0,1.38,1.38,0,0,1-2.6-.9,18.2,18.2,0,0,1,34,0A1.3,1.3,0,0,1,513.4,217.5Z"/><path class="cls-30" d="M334.36,354.75c-1.82,1-3.64,2-5.5,3a128.79,128.79,0,0,1-26.81,10c-1.79.44-3.61.85-5.39,1.22A126.53,126.53,0,0,1,179.43,158.25a8.49,8.49,0,0,0,5.21,1.77,8.69,8.69,0,0,0,3.91-.94,8.65,8.65,0,1,0-11.63-3.79,9.76,9.76,0,0,0,.76,1.2A129,129,0,0,0,297.16,371.42c1.82-.38,3.67-.79,5.49-1.24A131.61,131.61,0,0,0,330,359.94c1.89-1,3.74-2,5.59-3a1.24,1.24,0,1,0-1.22-2.16ZM178.77,149.47h0a6.19,6.19,0,0,1,5.85-4.26,6.32,6.32,0,0,1,1.92.31,6.17,6.17,0,0,1,.88,11.36,6.16,6.16,0,0,1-8.65-7.4Zm187.56,183A129,129,0,0,0,245.92,118.59c-1.67.31-3.43.7-5.55,1.23a130.77,130.77,0,0,0-27.31,10.23c-1.9,1-3.79,2-5.6,3a1.24,1.24,0,0,0,1.23,2.15c1.78-1,3.64-2,5.5-3a128.16,128.16,0,0,1,26.78-10c1.81-.45,3.6-.86,5.43-1.2A126.5,126.5,0,0,1,364.54,330.72a8.47,8.47,0,0,0-2.4-1.26,8.64,8.64,0,1,0-5.35,16.44,8.83,8.83,0,0,0,2.68.43,8.66,8.66,0,0,0,7.7-12.57A9,9,0,0,0,366.33,332.44Zm-1,7.15a6.06,6.06,0,0,1-3.06,3.58,6.16,6.16,0,1,1-5.59-11,6.23,6.23,0,0,1,2.79-.67,6,6,0,0,1,1.91.31,6.14,6.14,0,0,1,3.95,7.77Zm-44.17,3a110,110,0,0,1-122.69-16.06,8.5,8.5,0,0,0,1.24-2.37,8.71,8.71,0,1,0-4.32,5.05,8.38,8.38,0,0,0,1.37-.87A111.94,111.94,0,0,0,381.24,222.78c-.31-1.61-.67-3.21-1.07-4.82a113.52,113.52,0,0,0-8.88-23.7,1.24,1.24,0,0,0-2.21,1.12,111.2,111.2,0,0,1,8.68,23.18c.39,1.56.74,3.11,1,4.7A109.69,109.69,0,0,1,321.15,342.54ZM194.26,327a6.2,6.2,0,1,1-2.82-11.73,6.39,6.39,0,0,1,1.93.31,6.2,6.2,0,0,1,.89,11.42Zm161-165.62a8.57,8.57,0,0,0-6.62.52,8.06,8.06,0,0,0-1.25.8,112,112,0,0,0-185.57,104.6c.32,1.58.68,3.18,1.07,4.76a113.79,113.79,0,0,0,8.89,23.72,1.24,1.24,0,0,0,1.66.55,1.23,1.23,0,0,0,.55-1.67,111.47,111.47,0,0,1-8.69-23.2c-.38-1.54-.74-3.12-1.06-4.66a109.49,109.49,0,0,1,181.4-102.33,8.66,8.66,0,1,0,9.62-3.09Zm3.21,10.18a6.2,6.2,0,1,1-5.9-8.13,6.37,6.37,0,0,1,1.92.31A6.21,6.21,0,0,1,358.46,171.51ZM215.68,325.88c.07-.16,6.67-16.43,6.67-26.48,0-4.47-1.43-8.45-3.23-13.48a88.84,88.84,0,0,1-5.57-22.87,1.24,1.24,0,0,1,1.11-1.36,1.27,1.27,0,0,1,1.36,1.12,85.42,85.42,0,0,0,5.44,22.27c1.8,5.06,3.37,9.42,3.37,14.32,0,10.54-6.57,26.73-6.85,27.42a1.24,1.24,0,0,1-1.15.77,1.27,1.27,0,0,1-.47-.09A1.25,1.25,0,0,1,215.68,325.88Zm122.71-97.2c-3.87-20.61-17.69-30.92-28.75-36a58.73,58.73,0,1,0-12.94,58.46l13.76,13.76a1.24,1.24,0,0,0,2.12-.87V211a58.76,58.76,0,0,0-2-15.1c10.13,5.1,21.91,14.86,25.36,33.21,1.21,6.45.39,13.25-.33,19.25-.59,4.94-1.15,9.6-.53,13.43,1.11,6.78,3.09,11.75,6.21,15.64a8.52,8.52,0,0,1,1.6,7.5,5.53,5.53,0,0,1-3.85,3.77,39.64,39.64,0,0,1-6,1.33,6.15,6.15,0,0,0-5.05,4.61,122,122,0,0,0-3.19,17c-.7,7.7-4.7,11.33-13,11.76-13.41.7-27.83-2.07-35.23-3.79a1.24,1.24,0,1,0-.56,2.41c2.72.64,5.87,1.29,9.25,1.88-.49,1.91-1.81,7.23-2.78,13.12a1.23,1.23,0,0,0,1,1.42.75.75,0,0,0,.21,0,1.24,1.24,0,0,0,1.22-1c1-6,2.36-11.48,2.79-13.11A125.46,125.46,0,0,0,307.3,326c1.56,0,3.11,0,4.66-.12,9.49-.5,14.51-5.09,15.32-14a120.92,120.92,0,0,1,3.12-16.62,3.65,3.65,0,0,1,3-2.76,43,43,0,0,0,6.39-1.42,8,8,0,0,0,5.49-5.42,11,11,0,0,0-2-9.78c-2.85-3.54-4.66-8.14-5.7-14.48-.57-3.48,0-8,.54-12.74C338.83,242.51,339.68,235.5,338.39,228.68ZM310.1,261.07l-12.56-12.56a1.2,1.2,0,0,0-.91-.36,1.26,1.26,0,0,0-.89.41A56.24,56.24,0,1,1,310.1,211ZM280.74,194a9.83,9.83,0,0,0-9.82-9.82h-5.86V170.29a1.24,1.24,0,0,0-2.48,0v13.85H245.11V170.29a1.24,1.24,0,0,0-2.48,0v13.85h-5.85A9.83,9.83,0,0,0,227,194v5.85H213.11a1.24,1.24,0,0,0,0,2.48H227v17.48H213.11a1.24,1.24,0,1,0,0,2.48H227v5.85a9.82,9.82,0,0,0,9.82,9.82h5.85v13.85a1.24,1.24,0,1,0,2.48,0V237.92h17.47v13.85a1.24,1.24,0,1,0,2.48,0V237.92h5.86a9.82,9.82,0,0,0,9.82-9.82v-5.85h13.85a1.24,1.24,0,1,0,0-2.48H280.74V202.29h13.85a1.24,1.24,0,0,0,0-2.48H280.74Zm-2.48,34.14a7.34,7.34,0,0,1-7.34,7.34H236.78a7.34,7.34,0,0,1-7.34-7.34V194a7.34,7.34,0,0,1,7.34-7.34h34.14a7.34,7.34,0,0,1,7.34,7.34Zm-25.65-48.92v-8.89a1.24,1.24,0,0,1,2.48,0v8.89a1.24,1.24,0,1,1-2.48,0Zm19.95,0v-5.49a1.24,1.24,0,0,1,2.48,0v5.49a1.24,1.24,0,1,1-2.48,0Zm-39.9,0v-5.49a1.24,1.24,0,1,1,2.48,0v5.49a1.24,1.24,0,1,1-2.48,0Zm22.43,63.7v8.89a1.24,1.24,0,0,1-2.48,0v-8.89a1.24,1.24,0,1,1,2.48,0Zm20,0v5.49a1.24,1.24,0,1,1-2.48,0v-5.49a1.24,1.24,0,0,1,2.48,0Zm-39.9,0v5.49a1.24,1.24,0,0,1-2.48,0v-5.49a1.24,1.24,0,1,1,2.48,0ZM295.83,211a1.24,1.24,0,0,1-1.24,1.24h-8.9a1.24,1.24,0,0,1,0-2.48h8.9A1.25,1.25,0,0,1,295.83,211ZM292.43,231a1.23,1.23,0,0,1-1.24,1.24h-5.5a1.24,1.24,0,0,1,0-2.48h5.5A1.24,1.24,0,0,1,292.43,231Zm-8-39.9a1.24,1.24,0,0,1,1.24-1.24h5.5a1.24,1.24,0,0,1,0,2.48h-5.5A1.24,1.24,0,0,1,284.45,191.08ZM211.87,211a1.25,1.25,0,0,1,1.24-1.24H222a1.24,1.24,0,0,1,0,2.48h-8.89A1.24,1.24,0,0,1,211.87,211ZM223.24,231a1.23,1.23,0,0,1-1.24,1.24h-5.49a1.24,1.24,0,1,1,0-2.48H222A1.24,1.24,0,0,1,223.24,231Zm-8-39.9a1.24,1.24,0,0,1,1.25-1.24H222a1.24,1.24,0,1,1,0,2.48h-5.49A1.24,1.24,0,0,1,215.26,191.08Zm44.32,19.66v10a1.24,1.24,0,1,1-2.48,0V216c-.05,0-.1,0-.16,0H244.25a1.24,1.24,0,0,1,0-2.48h12.69a.76.76,0,0,1,.16,0v-2.83a8.21,8.21,0,0,0-8.2-8.2h-1.11a8.21,8.21,0,0,0-8.2,8.2v10a1.24,1.24,0,0,1-2.48,0v-10a10.69,10.69,0,0,1,10.68-10.68h1.11A10.69,10.69,0,0,1,259.58,210.74Zm10.49-9.44v19.46a1.24,1.24,0,0,1-2.48,0V201.3a1.24,1.24,0,0,1,2.48,0Z"/></svg>