<svg id="Layer_1" data-name="Layer 1" xmlns="http://www.w3.org/2000/svg" xmlns:xlink="http://www.w3.org/1999/xlink" viewBox="0 0 543 490"><defs><style>.cls-1{fill:url(#linear-gradient);}.cls-2{fill:#2a2a8c;}.cls-3{fill:url(#linear-gradient-2);}.cls-4{opacity:0.9;fill:url(#linear-gradient-3);}.cls-5{fill:url(#linear-gradient-4);}.cls-6{fill:url(#linear-gradient-5);}.cls-7{fill:url(#linear-gradient-6);}.cls-8{fill:url(#linear-gradient-7);}.cls-9{fill:url(#linear-gradient-8);}.cls-10{fill:url(#linear-gradient-9);}.cls-11{fill:url(#linear-gradient-10);}.cls-12,.cls-13,.cls-14,.cls-15,.cls-18,.cls-19,.cls-20,.cls-21,.cls-22,.cls-23,.cls-28,.cls-29{fill-opacity:0.2;}.cls-12{fill:url(#linear-gradient-11);}.cls-13{fill:url(#linear-gradient-12);}.cls-14{fill:url(#linear-gradient-13);}.cls-15{fill:url(#linear-gradient-14);}.cls-16{fill:url(#linear-gradient-15);}.cls-17{fill:url(#linear-gradient-16);}.cls-18{fill:url(#linear-gradient-17);}.cls-19{fill:url(#linear-gradient-18);}.cls-20{fill:url(#linear-gradient-19);}.cls-21{fill:url(#linear-gradient-20);}.cls-22{fill:url(#linear-gradient-21);}.cls-23{fill:url(#linear-gradient-22);}.cls-24{fill:url(#linear-gradient-23);}.cls-25{fill:url(#linear-gradient-24);}.cls-26{fill:url(#linear-gradient-25);}.cls-27{fill:url(#linear-gradient-26);}.cls-28{fill:url(#linear-gradient-27);}.cls-29{fill:url(#linear-gradient-28);}.cls-30{fill:none;stroke:#39ffff;stroke-miterlimit:10;stroke-width:2px;}</style><linearGradient id="linear-gradient" x1="0.21" y1="137.11" x2="100.9" y2="137.11" gradientUnits="userSpaceOnUse"><stop offset="0.04" stop-color="#3a3adb"/><stop offset="0.99" stop-color="#2a2a8c"/></linearGradient><linearGradient id="linear-gradient-2" x1="50.45" y1="221.61" x2="542.33" y2="221.61" gradientUnits="userSpaceOnUse"><stop offset="0.04" stop-color="#3a3adb"/><stop offset="0.77" stop-color="#2a2a8c"/></linearGradient><linearGradient id="linear-gradient-3" x1="0.16" y1="279.25" x2="446.97" y2="279.25" gradientUnits="userSpaceOnUse"><stop offset="0.04" stop-color="#3a3adb"/><stop offset="0.99" stop-color="#2a47c9"/></linearGradient><linearGradient id="linear-gradient-4" x1="340.93" y1="347.57" x2="474.87" y2="347.57" xlink:href="#linear-gradient"/><linearGradient id="linear-gradient-5" x1="71.3" y1="42.35" x2="73.9" y2="42.35" xlink:href="#linear-gradient"/><linearGradient id="linear-gradient-6" x1="71.3" y1="21.65" x2="73.9" y2="21.65" xlink:href="#linear-gradient"/><linearGradient id="linear-gradient-7" x1="77.5" y1="37.3" x2="87.4" y2="37.3" xlink:href="#linear-gradient"/><linearGradient id="linear-gradient-8" x1="57.8" y1="26.5" x2="67.7" y2="26.5" xlink:href="#linear-gradient"/><linearGradient id="linear-gradient-9" x1="57.7" y1="37.3" x2="67.6" y2="37.3" xlink:href="#linear-gradient"/><linearGradient id="linear-gradient-10" x1="77.5" y1="26.5" x2="87.4" y2="26.5" xlink:href="#linear-gradient"/><linearGradient id="linear-gradient-11" x1="208.8" y1="73.75" x2="211.41" y2="73.75" xlink:href="#linear-gradient"/><linearGradient id="linear-gradient-12" x1="208.8" y1="53.05" x2="211.41" y2="53.05" xlink:href="#linear-gradient"/><linearGradient id="linear-gradient-13" x1="193.5" y1="63.4" x2="204.21" y2="63.4" xlink:href="#linear-gradient"/><linearGradient id="linear-gradient-14" x1="216" y1="63.4" x2="226.71" y2="63.4" xlink:href="#linear-gradient"/><linearGradient id="linear-gradient-15" x1="55.91" y1="421.27" x2="90.05" y2="421.27" xlink:href="#linear-gradient"/><linearGradient id="linear-gradient-16" x1="56.05" y1="400.53" x2="90.14" y2="400.53" xlink:href="#linear-gradient"/><linearGradient id="linear-gradient-17" x1="345.5" y1="278.75" x2="348.1" y2="278.75" xlink:href="#linear-gradient-3"/><linearGradient id="linear-gradient-18" x1="345.5" y1="258.05" x2="348.1" y2="258.05" xlink:href="#linear-gradient-3"/><linearGradient id="linear-gradient-19" x1="351.8" y1="273.8" x2="361.7" y2="273.8" xlink:href="#linear-gradient-3"/><linearGradient id="linear-gradient-20" x1="332" y1="263" x2="341.9" y2="263" xlink:href="#linear-gradient-3"/><linearGradient id="linear-gradient-21" x1="331.9" y1="273.8" x2="341.8" y2="273.8" xlink:href="#linear-gradient-3"/><linearGradient id="linear-gradient-22" x1="351.7" y1="263" x2="361.6" y2="263" xlink:href="#linear-gradient-3"/><linearGradient id="linear-gradient-23" x1="474.1" y1="410.95" x2="476.7" y2="410.95" xlink:href="#linear-gradient"/><linearGradient id="linear-gradient-24" x1="474.1" y1="390.25" x2="476.7" y2="390.25" xlink:href="#linear-gradient"/><linearGradient id="linear-gradient-25" x1="458.8" y1="400.6" x2="469.5" y2="400.6" xlink:href="#linear-gradient"/><linearGradient id="linear-gradient-26" x1="481.2" y1="400.6" x2="491.91" y2="400.6" xlink:href="#linear-gradient"/><linearGradient id="linear-gradient-27" x1="480.31" y1="231.57" x2="514.45" y2="231.57" gradientUnits="userSpaceOnUse"><stop offset="0.04" stop-color="#3a3adb"/><stop offset="0.99" stop-color="#2a4b8c"/></linearGradient><linearGradient id="linear-gradient-28" x1="480.35" y1="210.83" x2="514.49" y2="210.83" xlink:href="#linear-gradient-27"/></defs><path class="cls-1" d="M89.5,126.5C79,109.2,68,97.8,50.6,89.7s-39.1-8.2-48,11.2,8.6,43.5,33.2,44.9c28.3,1.5,43.4,14.6,45,34,1,12.1,14.5,12.5,17.3,4.6C103.3,170,101.7,146.7,89.5,126.5Z"/><path class="cls-2" d="M311.5,26.9C194.9-92.8,68.2,219.8,35.7,320.8S140.6,438.1,233,456.2c147.6,28.8,215.2-27,226.7-94.2S428.1,146.7,311.5,26.9Z"/><path class="cls-3" d="M386.9,175.8C325,186.6,282.7,128,254.2,91.9c-22.4-28.4-116.5-75.1-175,8.7-53,76-31.1,189.1,52.3,246.4S342,399,420.9,363.5c49.9-22.4,112.9-64.1,120.7-123.3C550.2,175.4,481.9,159.3,386.9,175.8Z"/><path class="cls-4" d="M397.7,68.5c-2.5-.1-5-.1-7.6-.1-41.1,0-92.8,10.3-129.7,22.4L255,92.6c1.1,1.4,2.3,2.9,3.5,4.4,1.3-.4,2.5-.8,3.8-1.3,41-13.5,91.2-22.1,127.9-22.1,2.5,0,5,0,7.4.1,17.3.6,30.3,6.3,37.5,16.5,8.6,12.2,8.6,30.8-.1,52.2-3.9,9.7-7.2,18.9-9.9,28-11,36.6-13.6,72.1-14.2,134.2-.1,14.2,0,27.3.1,40,.1,8,.1,15.5.1,22.8,0,44.1-2.7,74.5-23,94.1-15.8,15.2-34.3,23.3-53.6,23.3-21.2,0-42.9-9.5-64.3-28.3C222.8,415,164,386,104.6,374.7c-45.6-8.7-81.4-17-93.8-36.9-6.7-10.9-6.7-25.6,0-45,6.3-18.1,18.4-43.1,41.9-70.5-.4-2.4-.7-4.8-1-7.1-23.6,26.5-38.1,52.7-46.2,76-21.7,62.6,25.1,74.8,97.9,88.7,58.6,11.2,115.8,39.3,162.8,80.5,24,21,47.1,29.7,68.1,29.7,22.1,0,41.8-9.7,57.6-24.9,22.1-21.4,24.6-53.8,24.6-100.1,0-18-.4-38.1-.2-60.4.6-64.3,3.4-98.8,14.5-134.7,2.6-8.3,5.7-16.8,9.2-25.6C458.1,99.7,439.9,69.9,397.7,68.5Z"/><path class="cls-5" d="M459.8,308.7c-35.5-38.4-76.5-14-105.7,29.4-27.1,40.3-10.6,87.6,33.3,58.4,38.3-25.4,61.6-18,78.7-35.1C489,338.7,459.8,308.7,459.8,308.7Z"/><path class="cls-6" d="M72.6,47.7a1.32,1.32,0,0,1-1.3-1.3V38.3a1.3,1.3,0,1,1,2.6,0v8.1A1.4,1.4,0,0,1,72.6,47.7Z"/><path class="cls-7" d="M72.6,27a1.32,1.32,0,0,1-1.3-1.3V17.6a1.3,1.3,0,1,1,2.6,0v8.1A1.32,1.32,0,0,1,72.6,27Z"/><path class="cls-8" d="M85.3,40.3l-7.1-3.8a1.13,1.13,0,0,1-.5-1.7,1.54,1.54,0,0,1,1.9-.5l7.1,3.8a1.13,1.13,0,0,1,.5,1.7A1.54,1.54,0,0,1,85.3,40.3Z"/><path class="cls-9" d="M65.6,29.5l-7.1-3.8A1.13,1.13,0,0,1,58,24a1.54,1.54,0,0,1,1.9-.5L67,27.3a1.13,1.13,0,0,1,.5,1.7A1.57,1.57,0,0,1,65.6,29.5Z"/><path class="cls-10" d="M57.9,39.8a1.13,1.13,0,0,1,.5-1.7l7.1-3.8a1.54,1.54,0,0,1,1.9.5,1.13,1.13,0,0,1-.5,1.7l-7.1,3.8A1.54,1.54,0,0,1,57.9,39.8Z"/><path class="cls-11" d="M77.7,29a1.13,1.13,0,0,1,.5-1.7l7.1-3.8a1.54,1.54,0,0,1,1.9.5,1.13,1.13,0,0,1-.5,1.7l-7.1,3.8A1.54,1.54,0,0,1,77.7,29Z"/><path class="cls-12" d="M210.1,79.1a1.32,1.32,0,0,1-1.3-1.3V69.7a1.3,1.3,0,0,1,2.6,0v8.1A1.21,1.21,0,0,1,210.1,79.1Z"/><path class="cls-13" d="M210.1,58.4a1.32,1.32,0,0,1-1.3-1.3V49a1.3,1.3,0,0,1,2.6,0v8.1A1.21,1.21,0,0,1,210.1,58.4Z"/><path class="cls-14" d="M202.9,64.7h-8.1a1.3,1.3,0,0,1,0-2.6h8.1a1.32,1.32,0,0,1,1.3,1.3A1.21,1.21,0,0,1,202.9,64.7Z"/><path class="cls-15" d="M225.4,64.7h-8.1a1.3,1.3,0,0,1,0-2.6h8.1a1.32,1.32,0,0,1,1.3,1.3A1.21,1.21,0,0,1,225.4,64.7Z"/><path class="cls-16" d="M73,428a17.92,17.92,0,0,1-17-11.7,1.27,1.27,0,0,1,1-1.7,1.31,1.31,0,0,1,1.6.8,15.42,15.42,0,0,0,28.8,0,1.38,1.38,0,0,1,2.6.9A18.06,18.06,0,0,1,73,428Z"/><path class="cls-17" d="M89.1,407.2a1.31,1.31,0,0,1-1.6-.8,15.42,15.42,0,0,0-28.8,0,1.38,1.38,0,0,1-2.6-.9,18.2,18.2,0,0,1,34,0A1.45,1.45,0,0,1,89.1,407.2Z"/><path class="cls-18" d="M346.8,284.1a1.32,1.32,0,0,1-1.3-1.3v-8.1a1.3,1.3,0,0,1,2.6,0v8.1A1.32,1.32,0,0,1,346.8,284.1Z"/><path class="cls-19" d="M346.8,263.4a1.32,1.32,0,0,1-1.3-1.3V254a1.3,1.3,0,0,1,2.6,0v8.1A1.32,1.32,0,0,1,346.8,263.4Z"/><path class="cls-20" d="M359.6,276.8l-7.1-3.8a1.13,1.13,0,0,1-.5-1.7,1.54,1.54,0,0,1,1.9-.5l7.1,3.8a1.13,1.13,0,0,1,.5,1.7A1.57,1.57,0,0,1,359.6,276.8Z"/><path class="cls-21" d="M339.8,266l-7.1-3.8a1.13,1.13,0,0,1-.5-1.7,1.54,1.54,0,0,1,1.9-.5l7.1,3.8a1.13,1.13,0,0,1,.5,1.7A1.57,1.57,0,0,1,339.8,266Z"/><path class="cls-22" d="M332.1,276.3a1.13,1.13,0,0,1,.5-1.7l7.1-3.8a1.54,1.54,0,0,1,1.9.5,1.13,1.13,0,0,1-.5,1.7l-7.1,3.8A1.57,1.57,0,0,1,332.1,276.3Z"/><path class="cls-23" d="M351.9,265.5a1.13,1.13,0,0,1,.5-1.7l7.1-3.8a1.54,1.54,0,0,1,1.9.5,1.13,1.13,0,0,1-.5,1.7l-7.1,3.8A1.54,1.54,0,0,1,351.9,265.5Z"/><path class="cls-24" d="M475.4,416.3a1.32,1.32,0,0,1-1.3-1.3v-8.1a1.3,1.3,0,0,1,2.6,0V415A1.32,1.32,0,0,1,475.4,416.3Z"/><path class="cls-25" d="M475.4,395.6a1.32,1.32,0,0,1-1.3-1.3v-8.1a1.3,1.3,0,0,1,2.6,0v8.1A1.32,1.32,0,0,1,475.4,395.6Z"/><path class="cls-26" d="M468.2,401.9h-8.1a1.3,1.3,0,0,1,0-2.6h8.1a1.3,1.3,0,1,1,0,2.6Z"/><path class="cls-27" d="M490.6,401.9h-8.1a1.3,1.3,0,0,1,0-2.6h8.1a1.32,1.32,0,0,1,1.3,1.3A1.21,1.21,0,0,1,490.6,401.9Z"/><path class="cls-28" d="M497.4,238.3a17.92,17.92,0,0,1-17-11.7,1.27,1.27,0,0,1,1-1.7,1.31,1.31,0,0,1,1.6.8,15.42,15.42,0,0,0,28.8,0,1.38,1.38,0,0,1,2.6.9A18.06,18.06,0,0,1,497.4,238.3Z"/><path class="cls-29" d="M513.4,217.5a1.31,1.31,0,0,1-1.6-.8,15.42,15.42,0,0,0-28.8,0,1.38,1.38,0,0,1-2.6-.9,18.2,18.2,0,0,1,34,0A1.3,1.3,0,0,1,513.4,217.5Z"/><path class="cls-30" d="M229.18,359H166c-1.26-.68-2.55-1.31-3.77-2.06-2.42-1.49-3.44-4-4.69-6.4V336.76c1.47.06,2.95.17,4.42.16,3.4,0,2.92.48,2.94-2.93.05-10.31-.08-20.63.17-30.94.14-5.44,4.12-9.4,9.51-10,4.65-.55,9.34-.21,14-.18,1.71,0,2-.48,2-2.1-.07-12.16,0-24.34-.07-36.51,0-1.46.38-1.9,1.84-1.87,4.16.09,8.31,0,12.47,0,.62,0,1.47.3,1.77-.52a48.84,48.84,0,0,1,3.35-6.83c-8.57,0-16.73,0-24.89,0-1.45,0-1.85-.37-1.82-1.82.1-4.68-.05-9.36.08-14,.06-1.93-.32-2.7-2.47-2.59-3.85.2-7.71.11-11.57,0-5.34-.09-9.19-2.45-11.17-7.55-.12-.32-.12-.75-.6-.82V139.46c.15-.15.36-.26.43-.43,2.43-5.85,5.66-8,11.91-8q17.25,0,34.5,0c7.39,0,12,4.54,12,11.91q0,35.85,0,71.69c0,7.49-4.54,12-12.07,12.07-3.86,0-7.72.07-11.57,0-1.57,0-2.28.22-2.15,2a58.32,58.32,0,0,1,0,7.12c-.07,1.45.35,1.92,1.85,1.89,4.82-.1,9.65,0,14.47,0,5.5,0,11,.65,16.27-2.18,1.62-.88,2.88-1.55,3.7-3.3a29.13,29.13,0,0,1,36-14.79c1.75.64,2.6.39,3.78-1.09,7.56-9.47,17.43-13.41,29.32-11,13.65,2.78,22.69,13.93,23.3,27.95.05,1.06,0,2,1.35,2.38a22.35,22.35,0,0,1,8.36,4.92,3,3,0,0,0,2.17.87c4.16,0,8.31-.06,12.47,0,1.22,0,1.47-.42,1.46-1.54q0-16.92,0-33.84c0-1.39-.55-1.53-1.69-1.51-3.71.05-7.42,0-11.13,0-1.77,0-4.14.6-5.15-.3-1.19-1.06-.18-3.49-.4-5.31-.17-1.39.35-1.71,1.7-1.71,6,0,5.93-.07,5.63-6-.05-1.08-.37-1.38-1.41-1.36-2.9.06-5.79,0-8.69,0-7.41,0-11.9-4.5-11.91-11.92q0-17.47,0-35c0-7.39,4.56-11.93,11.92-11.94q12.69,0,25.37,0c8.39,0,16.77-.07,25.16,0,6,.07,10.88,4.49,11,10.37q.28,19,0,38.07a10.67,10.67,0,0,1-10.53,10.32c-2.07.09-4.15,0-6.23,0-5.27,0-5.21,0-5.26,5.31,0,1.61.32,2.23,2.06,2.16s4.13-.86,5.06.35.15,3.41.33,5.17c.17,1.6-.56,1.76-1.89,1.74-4.75-.06-9.5.08-14.25-.07-1.88-.06-2.3.48-2.28,2.31.08,13.22,0,26.43.09,39.64,0,1.91-.56,2.31-2.35,2.27-4.93-.13-9.87,0-15,0,.73,2,1.62,3.78,1.84,5.7.16,1.34.75,1.79,2.17,1.77,6.23-.09,12.46,0,18.69-.08,1.59,0,1.94.41,1.93,2-.07,11,0,22-.07,32.95,0,1.44.34,1.88,1.83,1.87,7.27-.08,14.55,0,21.82-.08,1.71,0,2.21.38,2.2,2.17-.07,21.37,0,42.75,0,64.12H326.69q0-32.26-.06-64.55c0-1.37.35-1.75,1.73-1.73,7.34.07,14.69,0,22,.06,1.43,0,2.08-.19,2.06-1.88-.09-8.61-.07-17.21,0-25.82,0-1.34-.31-1.83-1.73-1.78-3.11.11-6.23,0-9.34,0-3.9,0-3.89,0-4.91,3.87a12.62,12.62,0,0,1-.59,1.66c-4.76,11.06-13.28,16.52-25.21,16.58-17,.09-34,0-51,0-9.57,0-19.14.1-28.7,0a25.85,25.85,0,0,1-25.29-20.93c-.33-1.6.5-3.86-1-4.66-1.34-.7-3.34-.05-5-.19-1.4-.11-1.71.36-1.7,1.72q.09,14.8,0,29.6c0,1.5.45,1.82,1.86,1.8,6.38-.07,12.76-.06,19.14,0,7.54,0,12,4.55,12.07,12,0,8.75,0,17.51,0,26.26,0,1.85-.59,4.21.32,5.39s3.45.28,5.26.44h.23c1.25-.18,1.67.33,1.64,1.61-.09,3,0,6.09-.05,9.13a11.31,11.31,0,0,1-5.29,9.71C231.88,358.19,230.4,358.27,229.18,359Zm42.28-81h1.33c13.58,0,27.16.16,40.73-.21,7-.19,12.11-4.2,15-10.53a17.32,17.32,0,0,0-1.45-17.76,18.22,18.22,0,0,0-13.65-8.15c-1.62-.19-2.61-.42-2.08-2.65a22,22,0,0,0-.78-12.25c-3.32-9.84-14.66-16.31-24.84-14.15-8.25,1.74-13.6,6.8-16.81,14.36-.57,1.33-1.11,1.8-2.32.76a9.34,9.34,0,0,0-1.13-.71c-13.43-8.21-28.91-2.46-33.65,12.56a2.56,2.56,0,0,1-2.54,2.14,18.32,18.32,0,0,0-16.54,16.73c-.89,11,7.5,19.78,19.08,19.84C245,278.12,258.25,278.07,271.46,278.07Zm-73.63,58.86c8,0,16,0,24,0,1.16,0,1.91,0,1.9-1.59-.07-10.23,0-20.47-.06-30.7,0-3.11-1.42-4.43-4.54-4.43q-21.24,0-42.48,0c-3.13,0-4.46,1.34-4.47,4.49,0,10.15,0,20.31,0,30.47,0,1.54.51,1.79,1.88,1.78C182,336.9,189.89,336.93,197.83,336.93ZM348.74,167.8c9.12,0,18.24,0,27.36,0,1.5,0,2-.33,2-2-.08-7.56,0-15.12,0-22.69,0-3.6-1.21-4.81-4.78-4.82H324.15c-3.65,0-4.89,1.28-4.9,5,0,7.42,0,14.83-.05,22.25,0,1.71.38,2.26,2.19,2.24C330.5,167.75,339.62,167.8,348.74,167.8ZM187.06,153.1c-6.75,0-13.51.05-20.26,0-1.56,0-2,.4-2,2q.1,16.47,0,32.95c0,1.39.27,1.88,1.79,1.87q20.25-.09,40.51,0c1.67,0,1.9-.57,1.89-2q-.09-16.26,0-32.51c0-1.68-.33-2.29-2.17-2.26C200.27,153.17,193.66,153.1,187.06,153.1Zm-.19,44.15c-6.75,0-13.5,0-20.24,0-1.27,0-1.83.18-1.8,1.66.1,5.27,0,10.53,0,15.8,0,3.31,1.29,4.54,4.6,4.54q17.36,0,34.71,0c3.53,0,4.78-1.27,4.8-4.85,0-5-.08-10.09.06-15.13,0-1.77-.58-2.05-2.15-2C200.22,197.29,193.55,197.25,186.87,197.25Zm169.21,125c6.75,0,13.5,0,20.25,0,1.29,0,1.81-.23,1.79-1.68q-.12-9.36,0-18.7c0-1.45-.46-1.68-1.76-1.67q-20.36.06-40.73,0c-1.4,0-1.72.42-1.71,1.76.07,6.16.09,12.32,0,18.48,0,1.54.52,1.83,1.92,1.82C342.58,322.18,349.33,322.21,356.08,322.21Zm0,29.44c6.75,0,13.5,0,20.26,0,1.31,0,1.8-.27,1.78-1.71q-.12-9.35,0-18.7c0-1.44-.45-1.68-1.75-1.67q-20.37.06-40.74,0c-1.42,0-1.72.43-1.71,1.77q.1,9.24,0,18.48c0,1.52.48,1.85,1.9,1.84C342.57,351.61,349.33,351.65,356.08,351.65Zm-157.85-7.32h-5.34c-8.74,0-17.49,0-26.24,0-.64,0-1.61-.57-1.81.87-.62,4.54.91,6.42,5.45,6.42h55.37c4.34,0,5.24-1,5.39-5.38.06-1.82-.62-2-2.13-2C218.69,344.36,208.46,344.33,198.23,344.33ZM348.5,175.11c-9.12,0-18.24,0-27.36,0-1.32,0-2,.14-1.94,1.75,0,4.41,1.2,5.68,5.64,5.68h47.82c4.3,0,5.36-1.14,5.47-5.36,0-1.62-.33-2.11-2.05-2.09C366.88,175.17,357.69,175.11,348.5,175.11ZM186.85,145.69c6.82,0,13.63,0,20.45,0,1.35,0,1.74-.33,1.74-1.72,0-4.46-1.12-5.63-5.63-5.63H170.3c-4.49,0-5.42,1-5.47,5.5,0,1.41.3,1.87,1.8,1.85C173.37,145.65,180.11,145.69,186.85,145.69Zm161.87,51.55h1.55c6.13,0,6.1,0,5.82-6.07,0-1.06-.32-1.4-1.39-1.37-2.59.07-5.18,0-7.78,0-5.89,0-5.86,0-5.58,6,.05,1,.28,1.44,1.38,1.4C344.71,197.18,346.72,197.24,348.72,197.24Z"/><path class="cls-30" d="M187,212c-2,0-4-.06-6,0-1.08,0-1.35-.34-1.41-1.39-.34-6.07-.37-6.07,5.58-6.07,2.59,0,5.18,0,7.77,0,1.05,0,1.48.28,1.43,1.37a42.61,42.61,0,0,0,0,4.66c.07,1.26-.52,1.48-1.6,1.45C190.8,211.91,188.87,212,187,212Z"/><path class="cls-30" d="M363.38,307.5c2,0,4,.05,6,0,1.06,0,1.45.29,1.4,1.37-.08,1.56-.07,3.12,0,4.68,0,1-.21,1.43-1.33,1.42-4-.07-8-.06-12,0-1,0-1.36-.25-1.41-1.34-.28-6.11-.32-6.1,5.79-6.1Z"/><path class="cls-30" d="M341.36,311.3c0-3.8,0-3.8,3.8-3.8,3.51,0,3.51,0,3.51,3.43,0,4,0,4-4,4C341.36,314.92,341.36,314.92,341.36,311.3Z"/><path class="cls-30" d="M348.52,344.33c-.6,0-1.19,0-1.78,0-1.75-.12-4.41.79-5-.34-.89-1.6-.28-4-.35-6.07,0-1,.63-1,1.32-1,4,0,8,0,12,0,1,0,1.36.3,1.41,1.38.29,6,.33,6-5.58,6Z"/><path class="cls-30" d="M367.17,344.33c-3.8,0-3.8,0-3.8-3.82,0-3.58,0-3.58,3.65-3.58s3.75,0,3.75,3.65v.22C370.77,344.33,370.77,344.33,367.17,344.33Z"/></svg>