<svg id="Layer_1" data-name="Layer 1" xmlns="http://www.w3.org/2000/svg" xmlns:xlink="http://www.w3.org/1999/xlink" viewBox="0 0 543 490"><defs><style>.cls-1{fill:url(#linear-gradient);}.cls-2{fill:#2a2a8c;}.cls-3{fill:url(#linear-gradient-2);}.cls-4{opacity:0.9;fill:url(#linear-gradient-3);}.cls-5{fill:url(#linear-gradient-4);}.cls-6{fill:url(#linear-gradient-5);}.cls-7{fill:url(#linear-gradient-6);}.cls-8{fill:url(#linear-gradient-7);}.cls-9{fill:url(#linear-gradient-8);}.cls-10{fill:url(#linear-gradient-9);}.cls-11{fill:url(#linear-gradient-10);}.cls-12,.cls-13,.cls-14,.cls-15,.cls-18,.cls-19,.cls-20,.cls-21,.cls-22,.cls-23,.cls-28,.cls-29{fill-opacity:0.2;}.cls-12{fill:url(#linear-gradient-11);}.cls-13{fill:url(#linear-gradient-12);}.cls-14{fill:url(#linear-gradient-13);}.cls-15{fill:url(#linear-gradient-14);}.cls-16{fill:url(#linear-gradient-15);}.cls-17{fill:url(#linear-gradient-16);}.cls-18{fill:url(#linear-gradient-17);}.cls-19{fill:url(#linear-gradient-18);}.cls-20{fill:url(#linear-gradient-19);}.cls-21{fill:url(#linear-gradient-20);}.cls-22{fill:url(#linear-gradient-21);}.cls-23{fill:url(#linear-gradient-22);}.cls-24{fill:url(#linear-gradient-23);}.cls-25{fill:url(#linear-gradient-24);}.cls-26{fill:url(#linear-gradient-25);}.cls-27{fill:url(#linear-gradient-26);}.cls-28{fill:url(#linear-gradient-27);}.cls-29{fill:url(#linear-gradient-28);}.cls-30{fill:none;stroke:#39ffff;stroke-miterlimit:10;stroke-width:2px;}</style><linearGradient id="linear-gradient" x1="0.21" y1="137.11" x2="100.9" y2="137.11" gradientUnits="userSpaceOnUse"><stop offset="0.04" stop-color="#3a3adb"/><stop offset="0.99" stop-color="#2a2a8c"/></linearGradient><linearGradient id="linear-gradient-2" x1="50.45" y1="221.61" x2="542.33" y2="221.61" gradientUnits="userSpaceOnUse"><stop offset="0.04" stop-color="#3a3adb"/><stop offset="0.77" stop-color="#2a2a8c"/></linearGradient><linearGradient id="linear-gradient-3" x1="0.16" y1="279.25" x2="446.97" y2="279.25" gradientUnits="userSpaceOnUse"><stop offset="0.04" stop-color="#3a3adb"/><stop offset="0.99" stop-color="#2a47c9"/></linearGradient><linearGradient id="linear-gradient-4" x1="340.93" y1="347.57" x2="474.87" y2="347.57" xlink:href="#linear-gradient"/><linearGradient id="linear-gradient-5" x1="71.3" y1="42.35" x2="73.9" y2="42.35" xlink:href="#linear-gradient"/><linearGradient id="linear-gradient-6" x1="71.3" y1="21.65" x2="73.9" y2="21.65" xlink:href="#linear-gradient"/><linearGradient id="linear-gradient-7" x1="77.5" y1="37.3" x2="87.4" y2="37.3" xlink:href="#linear-gradient"/><linearGradient id="linear-gradient-8" x1="57.8" y1="26.5" x2="67.7" y2="26.5" xlink:href="#linear-gradient"/><linearGradient id="linear-gradient-9" x1="57.7" y1="37.3" x2="67.6" y2="37.3" xlink:href="#linear-gradient"/><linearGradient id="linear-gradient-10" x1="77.5" y1="26.5" x2="87.4" y2="26.5" xlink:href="#linear-gradient"/><linearGradient id="linear-gradient-11" x1="208.8" y1="73.75" x2="211.41" y2="73.75" xlink:href="#linear-gradient"/><linearGradient id="linear-gradient-12" x1="208.8" y1="53.05" x2="211.41" y2="53.05" xlink:href="#linear-gradient"/><linearGradient id="linear-gradient-13" x1="193.5" y1="63.4" x2="204.21" y2="63.4" xlink:href="#linear-gradient"/><linearGradient id="linear-gradient-14" x1="216" y1="63.4" x2="226.71" y2="63.4" xlink:href="#linear-gradient"/><linearGradient id="linear-gradient-15" x1="55.91" y1="421.27" x2="90.05" y2="421.27" xlink:href="#linear-gradient"/><linearGradient id="linear-gradient-16" x1="56.05" y1="400.53" x2="90.14" y2="400.53" xlink:href="#linear-gradient"/><linearGradient id="linear-gradient-17" x1="345.5" y1="278.75" x2="348.1" y2="278.75" xlink:href="#linear-gradient-3"/><linearGradient id="linear-gradient-18" x1="345.5" y1="258.05" x2="348.1" y2="258.05" xlink:href="#linear-gradient-3"/><linearGradient id="linear-gradient-19" x1="351.8" y1="273.8" x2="361.7" y2="273.8" xlink:href="#linear-gradient-3"/><linearGradient id="linear-gradient-20" x1="332" y1="263" x2="341.9" y2="263" xlink:href="#linear-gradient-3"/><linearGradient id="linear-gradient-21" x1="331.9" y1="273.8" x2="341.8" y2="273.8" xlink:href="#linear-gradient-3"/><linearGradient id="linear-gradient-22" x1="351.7" y1="263" x2="361.6" y2="263" xlink:href="#linear-gradient-3"/><linearGradient id="linear-gradient-23" x1="474.1" y1="410.95" x2="476.7" y2="410.95" xlink:href="#linear-gradient"/><linearGradient id="linear-gradient-24" x1="474.1" y1="390.25" x2="476.7" y2="390.25" xlink:href="#linear-gradient"/><linearGradient id="linear-gradient-25" x1="458.8" y1="400.6" x2="469.5" y2="400.6" xlink:href="#linear-gradient"/><linearGradient id="linear-gradient-26" x1="481.2" y1="400.6" x2="491.91" y2="400.6" xlink:href="#linear-gradient"/><linearGradient id="linear-gradient-27" x1="480.31" y1="231.57" x2="514.45" y2="231.57" gradientUnits="userSpaceOnUse"><stop offset="0.04" stop-color="#3a3adb"/><stop offset="0.99" stop-color="#2a4b8c"/></linearGradient><linearGradient id="linear-gradient-28" x1="480.35" y1="210.83" x2="514.49" y2="210.83" xlink:href="#linear-gradient-27"/></defs><path class="cls-1" d="M89.5,126.5C79,109.2,68,97.8,50.6,89.7s-39.1-8.2-48,11.2,8.6,43.5,33.2,44.9c28.3,1.5,43.4,14.6,45,34,1,12.1,14.5,12.5,17.3,4.6C103.3,170,101.7,146.7,89.5,126.5Z"/><path class="cls-2" d="M311.5,26.9C194.9-92.8,68.2,219.8,35.7,320.8S140.6,438.1,233,456.2c147.6,28.8,215.2-27,226.7-94.2S428.1,146.7,311.5,26.9Z"/><path class="cls-3" d="M386.9,175.8C325,186.6,282.7,128,254.2,91.9c-22.4-28.4-116.5-75.1-175,8.7-53,76-31.1,189.1,52.3,246.4S342,399,420.9,363.5c49.9-22.4,112.9-64.1,120.7-123.3C550.2,175.4,481.9,159.3,386.9,175.8Z"/><path class="cls-4" d="M397.7,68.5c-2.5-.1-5-.1-7.6-.1-41.1,0-92.8,10.3-129.7,22.4L255,92.6c1.1,1.4,2.3,2.9,3.5,4.4,1.3-.4,2.5-.8,3.8-1.3,41-13.5,91.2-22.1,127.9-22.1,2.5,0,5,0,7.4.1,17.3.6,30.3,6.3,37.5,16.5,8.6,12.2,8.6,30.8-.1,52.2-3.9,9.7-7.2,18.9-9.9,28-11,36.6-13.6,72.1-14.2,134.2-.1,14.2,0,27.3.1,40,.1,8,.1,15.5.1,22.8,0,44.1-2.7,74.5-23,94.1-15.8,15.2-34.3,23.3-53.6,23.3-21.2,0-42.9-9.5-64.3-28.3C222.8,415,164,386,104.6,374.7c-45.6-8.7-81.4-17-93.8-36.9-6.7-10.9-6.7-25.6,0-45,6.3-18.1,18.4-43.1,41.9-70.5-.4-2.4-.7-4.8-1-7.1-23.6,26.5-38.1,52.7-46.2,76-21.7,62.6,25.1,74.8,97.9,88.7,58.6,11.2,115.8,39.3,162.8,80.5,24,21,47.1,29.7,68.1,29.7,22.1,0,41.8-9.7,57.6-24.9,22.1-21.4,24.6-53.8,24.6-100.1,0-18-.4-38.1-.2-60.4.6-64.3,3.4-98.8,14.5-134.7,2.6-8.3,5.7-16.8,9.2-25.6C458.1,99.7,439.9,69.9,397.7,68.5Z"/><path class="cls-5" d="M459.8,308.7c-35.5-38.4-76.5-14-105.7,29.4-27.1,40.3-10.6,87.6,33.3,58.4,38.3-25.4,61.6-18,78.7-35.1C489,338.7,459.8,308.7,459.8,308.7Z"/><path class="cls-6" d="M72.6,47.7a1.32,1.32,0,0,1-1.3-1.3V38.3a1.3,1.3,0,1,1,2.6,0v8.1A1.4,1.4,0,0,1,72.6,47.7Z"/><path class="cls-7" d="M72.6,27a1.32,1.32,0,0,1-1.3-1.3V17.6a1.3,1.3,0,1,1,2.6,0v8.1A1.32,1.32,0,0,1,72.6,27Z"/><path class="cls-8" d="M85.3,40.3l-7.1-3.8a1.13,1.13,0,0,1-.5-1.7,1.54,1.54,0,0,1,1.9-.5l7.1,3.8a1.13,1.13,0,0,1,.5,1.7A1.54,1.54,0,0,1,85.3,40.3Z"/><path class="cls-9" d="M65.6,29.5l-7.1-3.8A1.13,1.13,0,0,1,58,24a1.54,1.54,0,0,1,1.9-.5L67,27.3a1.13,1.13,0,0,1,.5,1.7A1.57,1.57,0,0,1,65.6,29.5Z"/><path class="cls-10" d="M57.9,39.8a1.13,1.13,0,0,1,.5-1.7l7.1-3.8a1.54,1.54,0,0,1,1.9.5,1.13,1.13,0,0,1-.5,1.7l-7.1,3.8A1.54,1.54,0,0,1,57.9,39.8Z"/><path class="cls-11" d="M77.7,29a1.13,1.13,0,0,1,.5-1.7l7.1-3.8a1.54,1.54,0,0,1,1.9.5,1.13,1.13,0,0,1-.5,1.7l-7.1,3.8A1.54,1.54,0,0,1,77.7,29Z"/><path class="cls-12" d="M210.1,79.1a1.32,1.32,0,0,1-1.3-1.3V69.7a1.3,1.3,0,0,1,2.6,0v8.1A1.21,1.21,0,0,1,210.1,79.1Z"/><path class="cls-13" d="M210.1,58.4a1.32,1.32,0,0,1-1.3-1.3V49a1.3,1.3,0,0,1,2.6,0v8.1A1.21,1.21,0,0,1,210.1,58.4Z"/><path class="cls-14" d="M202.9,64.7h-8.1a1.3,1.3,0,0,1,0-2.6h8.1a1.32,1.32,0,0,1,1.3,1.3A1.21,1.21,0,0,1,202.9,64.7Z"/><path class="cls-15" d="M225.4,64.7h-8.1a1.3,1.3,0,0,1,0-2.6h8.1a1.32,1.32,0,0,1,1.3,1.3A1.21,1.21,0,0,1,225.4,64.7Z"/><path class="cls-16" d="M73,428a17.92,17.92,0,0,1-17-11.7,1.27,1.27,0,0,1,1-1.7,1.31,1.31,0,0,1,1.6.8,15.42,15.42,0,0,0,28.8,0,1.38,1.38,0,0,1,2.6.9A18.06,18.06,0,0,1,73,428Z"/><path class="cls-17" d="M89.1,407.2a1.31,1.31,0,0,1-1.6-.8,15.42,15.42,0,0,0-28.8,0,1.38,1.38,0,0,1-2.6-.9,18.2,18.2,0,0,1,34,0A1.45,1.45,0,0,1,89.1,407.2Z"/><path class="cls-18" d="M346.8,284.1a1.32,1.32,0,0,1-1.3-1.3v-8.1a1.3,1.3,0,0,1,2.6,0v8.1A1.32,1.32,0,0,1,346.8,284.1Z"/><path class="cls-19" d="M346.8,263.4a1.32,1.32,0,0,1-1.3-1.3V254a1.3,1.3,0,0,1,2.6,0v8.1A1.32,1.32,0,0,1,346.8,263.4Z"/><path class="cls-20" d="M359.6,276.8l-7.1-3.8a1.13,1.13,0,0,1-.5-1.7,1.54,1.54,0,0,1,1.9-.5l7.1,3.8a1.13,1.13,0,0,1,.5,1.7A1.57,1.57,0,0,1,359.6,276.8Z"/><path class="cls-21" d="M339.8,266l-7.1-3.8a1.13,1.13,0,0,1-.5-1.7,1.54,1.54,0,0,1,1.9-.5l7.1,3.8a1.13,1.13,0,0,1,.5,1.7A1.57,1.57,0,0,1,339.8,266Z"/><path class="cls-22" d="M332.1,276.3a1.13,1.13,0,0,1,.5-1.7l7.1-3.8a1.54,1.54,0,0,1,1.9.5,1.13,1.13,0,0,1-.5,1.7l-7.1,3.8A1.57,1.57,0,0,1,332.1,276.3Z"/><path class="cls-23" d="M351.9,265.5a1.13,1.13,0,0,1,.5-1.7l7.1-3.8a1.54,1.54,0,0,1,1.9.5,1.13,1.13,0,0,1-.5,1.7l-7.1,3.8A1.54,1.54,0,0,1,351.9,265.5Z"/><path class="cls-24" d="M475.4,416.3a1.32,1.32,0,0,1-1.3-1.3v-8.1a1.3,1.3,0,0,1,2.6,0V415A1.32,1.32,0,0,1,475.4,416.3Z"/><path class="cls-25" d="M475.4,395.6a1.32,1.32,0,0,1-1.3-1.3v-8.1a1.3,1.3,0,0,1,2.6,0v8.1A1.32,1.32,0,0,1,475.4,395.6Z"/><path class="cls-26" d="M468.2,401.9h-8.1a1.3,1.3,0,0,1,0-2.6h8.1a1.3,1.3,0,1,1,0,2.6Z"/><path class="cls-27" d="M490.6,401.9h-8.1a1.3,1.3,0,0,1,0-2.6h8.1a1.32,1.32,0,0,1,1.3,1.3A1.21,1.21,0,0,1,490.6,401.9Z"/><path class="cls-28" d="M497.4,238.3a17.92,17.92,0,0,1-17-11.7,1.27,1.27,0,0,1,1-1.7,1.31,1.31,0,0,1,1.6.8,15.42,15.42,0,0,0,28.8,0,1.38,1.38,0,0,1,2.6.9A18.06,18.06,0,0,1,497.4,238.3Z"/><path class="cls-29" d="M513.4,217.5a1.31,1.31,0,0,1-1.6-.8,15.42,15.42,0,0,0-28.8,0,1.38,1.38,0,0,1-2.6-.9,18.2,18.2,0,0,1,34,0A1.3,1.3,0,0,1,513.4,217.5Z"/><path class="cls-30" d="M120.2,142.18c1.32-1.31,1.77-3.22,3.21-4.49,2.55-2.25,5.51-2.71,8.77-2.7q83.19,0,166.36,0,18.76,0,37.53,0,11.65,0,11.68,11.53c0,6.31,0,6.31,6.21,6.31,4.44,0,8.87.07,13.3,0a10.14,10.14,0,0,1,7.73,3l45.13,44.71a9,9,0,0,1,2.68,6.65q0,58.8,0,117.61c0,5.08-3.21,8.62-8.25,9a89.16,89.16,0,0,1-10.34.12c-2.11-.08-2.71.69-2.62,2.71.15,3.14.09,6.3,0,9.45-.11,5.31-3.63,8.88-9,8.89Q331,355,269.4,355c-5.45,0-9.06-3.65-9.13-9.07,0-4.63-.15-9.26.05-13.88.11-2.42-.76-2.9-3-2.89-19.3.08-38.61,0-57.91,0-1.08,0-2.17,0-3.25-.05-5.34-.38-8.88-4.12-8.73-9.21.13-4.84,3.88-8.47,9.08-8.6,4.43-.11,8.87-.17,13.29,0,2.3.1,2.85-.69,2.74-2.84a82,82,0,0,1,0-10c.16-2.36-.77-2.69-2.85-2.68-25,.06-50-.11-75.05.14-6.36.07-11.39-1.26-14.46-7.19Zm113.86-.06H132.73c-4.92,0-5.43.51-5.43,5.39v135.6c0,5.09.53,5.63,5.52,5.63q61.89,0,123.78.07c2.87,0,3.76-.53,3.74-3.63-.13-33.68-.08-67.36-.08-101,0-6.8,3.33-10.09,10.18-10.1,2.86,0,5.72-.11,8.57,0,2,.11,2.56-.66,2.48-2.55-.13-2.95-.05-5.91,0-8.86,0-6.41,3.44-9.81,9.87-9.81q21.87,0,43.73,0c5.6,0,5.6,0,5.59-5.48,0-4.69-.56-5.25-5.27-5.25Zm54.5,101.15c0,26.59,0,53.17-.06,79.76,0,2.79.75,3.75,3.65,3.74q60-.12,119.93,0c2.88,0,3.67-.93,3.66-3.74q-.12-55.53,0-111.07c0-2.63-.68-3.28-3.26-3.25-11.82.15-23.64.08-35.45.06-4.13,0-7.67-1.29-9.26-5.44-.66-1.73-1.54-2.1-3.21-2.08-7.78.08-15.56,0-23.34,0-1.65,0-3.15-.24-4.09-1.79-1.52-2.52.27-5.27,3.59-5.29,7.68-.07,15.36,0,23,0,1.52,0,3.41.71,3.34-2.21-.07-2.69-1.78-2.08-3.23-2.08-7.49,0-15,0-22.45,0-3,0-5-1.46-4.79-3.62.22-2.71,2.05-3.49,4.55-3.49,7.78,0,15.56-.15,23.33,0,2,0,2.58-.48,2.55-2.42-.09-5.71-.17-11.43,0-17.13.09-2.64-.73-3.28-3.31-3.27-23.73.1-47.46.06-71.19.06-4,0-4,0-4,4.15Zm-21.2,21.26v79.16c0,4.21,0,4.21,4.27,4.21H390.36a11.59,11.59,0,0,1,1.18,0c2.14.22,3.08-.65,3-2.87a53.06,53.06,0,0,1,0-7.67c.29-2.87-.68-3.59-3.54-3.58-32.89.11-65.77.07-98.65.06-7.9,0-10.89-3-10.89-10.83q0-68.82,0-137.65c0-.78-.05-1.58,0-2.36.12-1.4-.46-1.92-1.87-1.88-2.75.07-5.51,0-8.27,0-3.95,0-4,0-4,3.92ZM374,164.77c0,11.63,0,22.33,0,33,0,3.51.37,3.87,3.9,3.88q14.91,0,29.8,0c.85,0,1.77.3,2.17,0ZM233.84,311.29c4,0,8.08-.06,12.11,0,1.68,0,2.52-.3,2.45-2.24-.13-3.74-.1-7.49,0-11.23,0-1.53-.47-2.05-2-2q-12.41.09-24.81,0c-1.57,0-2,.55-2,2.07q.13,5.61,0,11.22c0,1.64.47,2.26,2.17,2.22C225.77,311.22,229.81,311.29,233.84,311.29ZM227.77,322c10,0,20.09-.06,30.13,0,2.05,0,2.65-.73,2.33-2.57s-1.68-1-2.6-1q-29.85-.06-59.68,0a8.67,8.67,0,0,0-2.33.25,1.55,1.55,0,0,0-1.06,1.87,1.39,1.39,0,0,0,1.3,1.37c.88.08,1.77.09,2.66.09Zm32.49-18.46c0-1.87-.1-3.75,0-5.61s-.61-2.21-2.22-2.1c-1.38.09-2.74-.26-2.64,2,.16,3.54.09,7.09,0,10.64,0,1.73,0,2.94,2.37,2.93s2.6-1,2.47-2.83C260.17,306.89,260.26,305.2,260.26,303.53Z"/><path class="cls-30" d="M371.4,216.86H400a7,7,0,0,1,3.45.55,3.37,3.37,0,0,1,1.88,3.13,3.41,3.41,0,0,1-2.21,3.21,8.61,8.61,0,0,1-3.49.39H341.23c-2.43,0-4.32-.85-4.6-3.53-.23-2.16,1.73-3.72,4.68-3.73C351.34,216.84,361.37,216.86,371.4,216.86Z"/><path class="cls-30" d="M371.39,251.14H400a6.4,6.4,0,0,1,3.71.69,3.33,3.33,0,0,1,1.62,3.26,3.43,3.43,0,0,1-2.17,2.93,8.63,8.63,0,0,1-3.49.4H341.25c-2.43,0-4.33-.83-4.62-3.52-.24-2.18,1.69-3.73,4.66-3.74C351.32,251.12,361.35,251.14,371.39,251.14Z"/><path class="cls-30" d="M371.39,285.42H400a6.43,6.43,0,0,1,3.71.69,3.34,3.34,0,0,1,1.61,3.27,3.44,3.44,0,0,1-2.18,2.92,8.61,8.61,0,0,1-3.49.4H341.24c-2.42,0-4.32-.84-4.61-3.52-.23-2.18,1.7-3.73,4.67-3.74C351.33,285.39,361.36,285.42,371.39,285.42Z"/><path class="cls-30" d="M371.08,235.56H342.15a13,13,0,0,1-2.65-.12,3.51,3.51,0,0,1,0-6.9,10.1,10.1,0,0,1,2.06-.08h59.65c2.31,0,3.88,1,3.94,3.42.06,2.57-1.55,3.67-4,3.67Z"/><path class="cls-30" d="M371.08,269.84H342.14a15.48,15.48,0,0,1-2.36-.07,3.41,3.41,0,0,1-3.12-3.68,3.35,3.35,0,0,1,3.18-3.31,11.6,11.6,0,0,1,1.77,0h59.65c2.31,0,3.87,1,3.93,3.42.06,2.57-1.56,3.67-4,3.67Z"/><path class="cls-30" d="M371.08,297c9.94,0,19.88,0,29.82,0,3.08,0,4.79,1.71,4.25,4.22s-2.31,2.89-4.48,2.88c-8.57,0-17.13,0-25.69,0H341.61c-1.29,0-2.6.07-3.64-.85a3.32,3.32,0,0,1-1.17-3.7c.67-2,2.18-2.57,4.16-2.57,9.64,0,19.29,0,28.94,0Z"/><path class="cls-30" d="M332.48,252.26a4.21,4.21,0,0,1-1.63,3.2c-5.07,5.07-10.12,10.17-15.23,15.21-2.31,2.29-4.1,2.29-6.34.1-3-2.95-6-6-9-8.95-1.71-1.7-2.27-3.55-.38-5.39s3.74-1.27,5.43.4a69.32,69.32,0,0,1,5,5c1.58,1.92,2.63,1.51,4.14-.09,3.79-4,7.75-7.83,11.65-11.71,1.18-1.17,2.53-1.91,4.24-1.15A3.33,3.33,0,0,1,332.48,252.26Z"/><path class="cls-30" d="M332.48,286.56a4.13,4.13,0,0,1-1.54,3.08c-5.13,5.14-10.24,10.31-15.42,15.41-2.26,2.22-4,2.15-6.35-.11-2.94-2.88-5.82-5.84-8.75-8.73-1.7-1.68-2.3-3.46-.58-5.42,1.49-1.72,3.57-1.54,5.65.46,1.7,1.63,3.43,3.24,5,5,1.32,1.52,2.24,1.61,3.71.07,3.92-4.13,8-8.1,12.06-12.11,1.19-1.17,2.59-1.81,4.26-1A3.28,3.28,0,0,1,332.48,286.56Z"/><path class="cls-30" d="M332.46,183.2a4.33,4.33,0,0,1-1.51,3.6c-5.15,5.16-10.28,10.34-15.47,15.45-2.18,2.14-4,2.12-6.15,0-3-3-6-6-9-9-1.71-1.7-2.25-3.59-.4-5.41s3.75-1.27,5.44.42,3.58,3.39,5.2,5.24c1.29,1.46,2.16,1.43,3.51,0q5.94-6.18,12.13-12.11c2.11-2,4.52-1.82,5.77.3A5.09,5.09,0,0,1,332.46,183.2Z"/><path class="cls-30" d="M312.21,238a3.43,3.43,0,0,1-2.61-1.2c-3.13-3.14-6.28-6.26-9.4-9.4-1.62-1.63-2-3.47-.32-5.2s3.73-1.38,5.44.3,3.72,3.54,5.41,5.45c1.26,1.42,2.08,1.19,3.3-.06,3.76-3.9,7.61-7.71,11.47-11.51,2.47-2.44,4.42-2.7,6.09-.92,1.5,1.62,1.18,3.75-1,5.94-4.92,5-9.88,9.9-14.82,14.85C314.77,237.27,313.74,238.16,312.21,238Z"/></svg>