<svg id="Layer_1" data-name="Layer 1" xmlns="http://www.w3.org/2000/svg" xmlns:xlink="http://www.w3.org/1999/xlink" viewBox="0 0 543 490"><defs><style>.cls-1{fill:url(#linear-gradient);}.cls-2{fill:#2a2a8c;}.cls-3{fill:url(#linear-gradient-2);}.cls-4{opacity:0.9;fill:url(#linear-gradient-3);}.cls-5{fill:url(#linear-gradient-4);}.cls-6{fill:url(#linear-gradient-5);}.cls-7{fill:url(#linear-gradient-6);}.cls-8{fill:url(#linear-gradient-7);}.cls-9{fill:url(#linear-gradient-8);}.cls-10{fill:url(#linear-gradient-9);}.cls-11{fill:url(#linear-gradient-10);}.cls-12,.cls-13,.cls-14,.cls-15,.cls-18,.cls-19,.cls-20,.cls-21,.cls-22,.cls-23,.cls-28,.cls-29{fill-opacity:0.2;}.cls-12{fill:url(#linear-gradient-11);}.cls-13{fill:url(#linear-gradient-12);}.cls-14{fill:url(#linear-gradient-13);}.cls-15{fill:url(#linear-gradient-14);}.cls-16{fill:url(#linear-gradient-15);}.cls-17{fill:url(#linear-gradient-16);}.cls-18{fill:url(#linear-gradient-17);}.cls-19{fill:url(#linear-gradient-18);}.cls-20{fill:url(#linear-gradient-19);}.cls-21{fill:url(#linear-gradient-20);}.cls-22{fill:url(#linear-gradient-21);}.cls-23{fill:url(#linear-gradient-22);}.cls-24{fill:url(#linear-gradient-23);}.cls-25{fill:url(#linear-gradient-24);}.cls-26{fill:url(#linear-gradient-25);}.cls-27{fill:url(#linear-gradient-26);}.cls-28{fill:url(#linear-gradient-27);}.cls-29{fill:url(#linear-gradient-28);}.cls-30{fill:none;stroke:#39ffff;stroke-miterlimit:10;stroke-width:2px;}</style><linearGradient id="linear-gradient" x1="0.21" y1="137.11" x2="100.9" y2="137.11" gradientUnits="userSpaceOnUse"><stop offset="0.04" stop-color="#3a3adb"/><stop offset="0.99" stop-color="#2a2a8c"/></linearGradient><linearGradient id="linear-gradient-2" x1="50.45" y1="221.61" x2="542.33" y2="221.61" gradientUnits="userSpaceOnUse"><stop offset="0.04" stop-color="#3a3adb"/><stop offset="0.77" stop-color="#2a2a8c"/></linearGradient><linearGradient id="linear-gradient-3" x1="0.16" y1="279.25" x2="446.97" y2="279.25" gradientUnits="userSpaceOnUse"><stop offset="0.04" stop-color="#3a3adb"/><stop offset="0.99" stop-color="#2a47c9"/></linearGradient><linearGradient id="linear-gradient-4" x1="340.93" y1="347.57" x2="474.87" y2="347.57" xlink:href="#linear-gradient"/><linearGradient id="linear-gradient-5" x1="71.3" y1="42.35" x2="73.9" y2="42.35" xlink:href="#linear-gradient"/><linearGradient id="linear-gradient-6" x1="71.3" y1="21.65" x2="73.9" y2="21.65" xlink:href="#linear-gradient"/><linearGradient id="linear-gradient-7" x1="77.5" y1="37.3" x2="87.4" y2="37.3" xlink:href="#linear-gradient"/><linearGradient id="linear-gradient-8" x1="57.8" y1="26.5" x2="67.7" y2="26.5" xlink:href="#linear-gradient"/><linearGradient id="linear-gradient-9" x1="57.7" y1="37.3" x2="67.6" y2="37.3" xlink:href="#linear-gradient"/><linearGradient id="linear-gradient-10" x1="77.5" y1="26.5" x2="87.4" y2="26.5" xlink:href="#linear-gradient"/><linearGradient id="linear-gradient-11" x1="208.8" y1="73.75" x2="211.41" y2="73.75" xlink:href="#linear-gradient"/><linearGradient id="linear-gradient-12" x1="208.8" y1="53.05" x2="211.41" y2="53.05" xlink:href="#linear-gradient"/><linearGradient id="linear-gradient-13" x1="193.5" y1="63.4" x2="204.21" y2="63.4" xlink:href="#linear-gradient"/><linearGradient id="linear-gradient-14" x1="216" y1="63.4" x2="226.71" y2="63.4" xlink:href="#linear-gradient"/><linearGradient id="linear-gradient-15" x1="55.91" y1="421.27" x2="90.05" y2="421.27" xlink:href="#linear-gradient"/><linearGradient id="linear-gradient-16" x1="56.05" y1="400.53" x2="90.14" y2="400.53" xlink:href="#linear-gradient"/><linearGradient id="linear-gradient-17" x1="345.5" y1="278.75" x2="348.1" y2="278.75" xlink:href="#linear-gradient-3"/><linearGradient id="linear-gradient-18" x1="345.5" y1="258.05" x2="348.1" y2="258.05" xlink:href="#linear-gradient-3"/><linearGradient id="linear-gradient-19" x1="351.8" y1="273.8" x2="361.7" y2="273.8" xlink:href="#linear-gradient-3"/><linearGradient id="linear-gradient-20" x1="332" y1="263" x2="341.9" y2="263" xlink:href="#linear-gradient-3"/><linearGradient id="linear-gradient-21" x1="331.9" y1="273.8" x2="341.8" y2="273.8" xlink:href="#linear-gradient-3"/><linearGradient id="linear-gradient-22" x1="351.7" y1="263" x2="361.6" y2="263" xlink:href="#linear-gradient-3"/><linearGradient id="linear-gradient-23" x1="474.1" y1="410.95" x2="476.7" y2="410.95" xlink:href="#linear-gradient"/><linearGradient id="linear-gradient-24" x1="474.1" y1="390.25" x2="476.7" y2="390.25" xlink:href="#linear-gradient"/><linearGradient id="linear-gradient-25" x1="458.8" y1="400.6" x2="469.5" y2="400.6" xlink:href="#linear-gradient"/><linearGradient id="linear-gradient-26" x1="481.2" y1="400.6" x2="491.91" y2="400.6" xlink:href="#linear-gradient"/><linearGradient id="linear-gradient-27" x1="480.31" y1="231.57" x2="514.45" y2="231.57" gradientUnits="userSpaceOnUse"><stop offset="0.04" stop-color="#3a3adb"/><stop offset="0.99" stop-color="#2a4b8c"/></linearGradient><linearGradient id="linear-gradient-28" x1="480.35" y1="210.83" x2="514.49" y2="210.83" xlink:href="#linear-gradient-27"/></defs><path class="cls-1" d="M89.5,126.5C79,109.2,68,97.8,50.6,89.7s-39.1-8.2-48,11.2,8.6,43.5,33.2,44.9c28.3,1.5,43.4,14.6,45,34,1,12.1,14.5,12.5,17.3,4.6C103.3,170,101.7,146.7,89.5,126.5Z"/><path class="cls-2" d="M311.5,26.9C194.9-92.8,68.2,219.8,35.7,320.8S140.6,438.1,233,456.2c147.6,28.8,215.2-27,226.7-94.2S428.1,146.7,311.5,26.9Z"/><path class="cls-3" d="M386.9,175.8C325,186.6,282.7,128,254.2,91.9c-22.4-28.4-116.5-75.1-175,8.7-53,76-31.1,189.1,52.3,246.4S342,399,420.9,363.5c49.9-22.4,112.9-64.1,120.7-123.3C550.2,175.4,481.9,159.3,386.9,175.8Z"/><path class="cls-4" d="M397.7,68.5c-2.5-.1-5-.1-7.6-.1-41.1,0-92.8,10.3-129.7,22.4L255,92.6c1.1,1.4,2.3,2.9,3.5,4.4,1.3-.4,2.5-.8,3.8-1.3,41-13.5,91.2-22.1,127.9-22.1,2.5,0,5,0,7.4.1,17.3.6,30.3,6.3,37.5,16.5,8.6,12.2,8.6,30.8-.1,52.2-3.9,9.7-7.2,18.9-9.9,28-11,36.6-13.6,72.1-14.2,134.2-.1,14.2,0,27.3.1,40,.1,8,.1,15.5.1,22.8,0,44.1-2.7,74.5-23,94.1-15.8,15.2-34.3,23.3-53.6,23.3-21.2,0-42.9-9.5-64.3-28.3C222.8,415,164,386,104.6,374.7c-45.6-8.7-81.4-17-93.8-36.9-6.7-10.9-6.7-25.6,0-45,6.3-18.1,18.4-43.1,41.9-70.5-.4-2.4-.7-4.8-1-7.1-23.6,26.5-38.1,52.7-46.2,76-21.7,62.6,25.1,74.8,97.9,88.7,58.6,11.2,115.8,39.3,162.8,80.5,24,21,47.1,29.7,68.1,29.7,22.1,0,41.8-9.7,57.6-24.9,22.1-21.4,24.6-53.8,24.6-100.1,0-18-.4-38.1-.2-60.4.6-64.3,3.4-98.8,14.5-134.7,2.6-8.3,5.7-16.8,9.2-25.6C458.1,99.7,439.9,69.9,397.7,68.5Z"/><path class="cls-5" d="M459.8,308.7c-35.5-38.4-76.5-14-105.7,29.4-27.1,40.3-10.6,87.6,33.3,58.4,38.3-25.4,61.6-18,78.7-35.1C489,338.7,459.8,308.7,459.8,308.7Z"/><path class="cls-6" d="M72.6,47.7a1.32,1.32,0,0,1-1.3-1.3V38.3a1.3,1.3,0,1,1,2.6,0v8.1A1.4,1.4,0,0,1,72.6,47.7Z"/><path class="cls-7" d="M72.6,27a1.32,1.32,0,0,1-1.3-1.3V17.6a1.3,1.3,0,1,1,2.6,0v8.1A1.32,1.32,0,0,1,72.6,27Z"/><path class="cls-8" d="M85.3,40.3l-7.1-3.8a1.13,1.13,0,0,1-.5-1.7,1.54,1.54,0,0,1,1.9-.5l7.1,3.8a1.13,1.13,0,0,1,.5,1.7A1.54,1.54,0,0,1,85.3,40.3Z"/><path class="cls-9" d="M65.6,29.5l-7.1-3.8A1.13,1.13,0,0,1,58,24a1.54,1.54,0,0,1,1.9-.5L67,27.3a1.13,1.13,0,0,1,.5,1.7A1.57,1.57,0,0,1,65.6,29.5Z"/><path class="cls-10" d="M57.9,39.8a1.13,1.13,0,0,1,.5-1.7l7.1-3.8a1.54,1.54,0,0,1,1.9.5,1.13,1.13,0,0,1-.5,1.7l-7.1,3.8A1.54,1.54,0,0,1,57.9,39.8Z"/><path class="cls-11" d="M77.7,29a1.13,1.13,0,0,1,.5-1.7l7.1-3.8a1.54,1.54,0,0,1,1.9.5,1.13,1.13,0,0,1-.5,1.7l-7.1,3.8A1.54,1.54,0,0,1,77.7,29Z"/><path class="cls-12" d="M210.1,79.1a1.32,1.32,0,0,1-1.3-1.3V69.7a1.3,1.3,0,0,1,2.6,0v8.1A1.21,1.21,0,0,1,210.1,79.1Z"/><path class="cls-13" d="M210.1,58.4a1.32,1.32,0,0,1-1.3-1.3V49a1.3,1.3,0,0,1,2.6,0v8.1A1.21,1.21,0,0,1,210.1,58.4Z"/><path class="cls-14" d="M202.9,64.7h-8.1a1.3,1.3,0,0,1,0-2.6h8.1a1.32,1.32,0,0,1,1.3,1.3A1.21,1.21,0,0,1,202.9,64.7Z"/><path class="cls-15" d="M225.4,64.7h-8.1a1.3,1.3,0,0,1,0-2.6h8.1a1.32,1.32,0,0,1,1.3,1.3A1.21,1.21,0,0,1,225.4,64.7Z"/><path class="cls-16" d="M73,428a17.92,17.92,0,0,1-17-11.7,1.27,1.27,0,0,1,1-1.7,1.31,1.31,0,0,1,1.6.8,15.42,15.42,0,0,0,28.8,0,1.38,1.38,0,0,1,2.6.9A18.06,18.06,0,0,1,73,428Z"/><path class="cls-17" d="M89.1,407.2a1.31,1.31,0,0,1-1.6-.8,15.42,15.42,0,0,0-28.8,0,1.38,1.38,0,0,1-2.6-.9,18.2,18.2,0,0,1,34,0A1.45,1.45,0,0,1,89.1,407.2Z"/><path class="cls-18" d="M346.8,284.1a1.32,1.32,0,0,1-1.3-1.3v-8.1a1.3,1.3,0,0,1,2.6,0v8.1A1.32,1.32,0,0,1,346.8,284.1Z"/><path class="cls-19" d="M346.8,263.4a1.32,1.32,0,0,1-1.3-1.3V254a1.3,1.3,0,0,1,2.6,0v8.1A1.32,1.32,0,0,1,346.8,263.4Z"/><path class="cls-20" d="M359.6,276.8l-7.1-3.8a1.13,1.13,0,0,1-.5-1.7,1.54,1.54,0,0,1,1.9-.5l7.1,3.8a1.13,1.13,0,0,1,.5,1.7A1.57,1.57,0,0,1,359.6,276.8Z"/><path class="cls-21" d="M339.8,266l-7.1-3.8a1.13,1.13,0,0,1-.5-1.7,1.54,1.54,0,0,1,1.9-.5l7.1,3.8a1.13,1.13,0,0,1,.5,1.7A1.57,1.57,0,0,1,339.8,266Z"/><path class="cls-22" d="M332.1,276.3a1.13,1.13,0,0,1,.5-1.7l7.1-3.8a1.54,1.54,0,0,1,1.9.5,1.13,1.13,0,0,1-.5,1.7l-7.1,3.8A1.57,1.57,0,0,1,332.1,276.3Z"/><path class="cls-23" d="M351.9,265.5a1.13,1.13,0,0,1,.5-1.7l7.1-3.8a1.54,1.54,0,0,1,1.9.5,1.13,1.13,0,0,1-.5,1.7l-7.1,3.8A1.54,1.54,0,0,1,351.9,265.5Z"/><path class="cls-24" d="M475.4,416.3a1.32,1.32,0,0,1-1.3-1.3v-8.1a1.3,1.3,0,0,1,2.6,0V415A1.32,1.32,0,0,1,475.4,416.3Z"/><path class="cls-25" d="M475.4,395.6a1.32,1.32,0,0,1-1.3-1.3v-8.1a1.3,1.3,0,0,1,2.6,0v8.1A1.32,1.32,0,0,1,475.4,395.6Z"/><path class="cls-26" d="M468.2,401.9h-8.1a1.3,1.3,0,0,1,0-2.6h8.1a1.3,1.3,0,1,1,0,2.6Z"/><path class="cls-27" d="M490.6,401.9h-8.1a1.3,1.3,0,0,1,0-2.6h8.1a1.32,1.32,0,0,1,1.3,1.3A1.21,1.21,0,0,1,490.6,401.9Z"/><path class="cls-28" d="M497.4,238.3a17.92,17.92,0,0,1-17-11.7,1.27,1.27,0,0,1,1-1.7,1.31,1.31,0,0,1,1.6.8,15.42,15.42,0,0,0,28.8,0,1.38,1.38,0,0,1,2.6.9A18.06,18.06,0,0,1,497.4,238.3Z"/><path class="cls-29" d="M513.4,217.5a1.31,1.31,0,0,1-1.6-.8,15.42,15.42,0,0,0-28.8,0,1.38,1.38,0,0,1-2.6-.9,18.2,18.2,0,0,1,34,0A1.3,1.3,0,0,1,513.4,217.5Z"/><path class="cls-30" d="M229.38,289a24.23,24.23,0,0,0,6.52,7.52,1.26,1.26,0,0,0,1.12.39c5.39-1.09,10.77.19,16.16.16,31.89-.15,63.79,0,95.69-.14,2.27,0,2.65.62,2.64,2.73q-.12,33.47,0,66.95c0,2-.58,2.39-2.46,2.39q-77.58-.07-155.15,0c-2,0-2.41-.54-2.41-2.44q.1-33.6,0-67.21c0-2,.53-2.47,2.44-2.4,4.25.15,8.5,0,13.08,0-1.49-2.58-2.88-5-4.26-7.37-.62-1.06-1.64-.59-2.48-.6-16.74,0-33.48-.06-50.22,0-2.1,0-2.6-.51-2.54-2.57.15-5.48,0-5.49,5.57-5.49h45.09c-1.17-2.93-2.22-5.62-3.31-8.28-5.24-12.82-3.93-25.19,2.48-37.23a27.5,27.5,0,0,1,1.44-2.61,39.07,39.07,0,0,0,5.7-13.22c2.39-10.45,13-16.4,23.54-14.05.85.19,1.67.81,2.38-.35s-.46-1.6-1-2.16a20.11,20.11,0,0,1-5.89-14.13c0-3.84-.05-3.84-3.84-3.91a12,12,0,0,1-12.15-12.22v-1.25c0-4.75,0-9.49,0-14.24.06-7.11,5.19-12.19,12.34-12.27,3.61,0,3.61,0,3.64-3.61.1-11.65,8.74-20.33,20.4-20.36q27.61-.06,55.22,0a20,20,0,0,1,20.34,20.18v.5c0,3.28,0,3.28,3.2,3.29,7.78,0,12.76,5,12.79,12.83,0,4.92,0,9.83,0,14.74,0,7.28-5.16,12.34-12.46,12.41-3.49,0-3.52,0-3.52,3.48a20.17,20.17,0,0,1-6.12,14.79c-.47.48-1.41.76-.84,1.78s1.09.87,2.06.64c7.83-1.9,14.46.31,19.83,6.23a3.06,3.06,0,0,0,2.82,1,19.55,19.55,0,0,0,18.15-18.35c.22-5.48,0-11,.1-16.48a2.51,2.51,0,0,0-1-2.1,19.66,19.66,0,0,1-6.71-11.9,11,11,0,0,1,.4-5.87c1-2.8,1.95-5.65,2.84-8.5.43-1.36.79-2,2.55-1.42,5.74,2,5.7,1.87,3.9,7.63-.82,2.62-2.47,5.05-1.57,8.12a12,12,0,0,0,23.48-1.2,4.79,4.79,0,0,0-.29-2.43c-1-2.83-1.85-5.69-2.85-8.5-.39-1.11-.44-1.66.94-2.17,6-2.21,5.62-2.12,8.11,3.71,3.42,8,2.53,15.12-3.56,21.27a7.42,7.42,0,0,0-2.28,5.84c-.07,7.14.56,14.31-.89,21.41-4,19.42-21.36,34.25-41.17,34.91a3.91,3.91,0,0,0-3.18,1.43,18.52,18.52,0,0,1-10.39,6,1.92,1.92,0,0,0-1.82,1.88c-1.76,10.83-3.55,21.65-5.45,32.46-.35,2,.21,2.28,2.06,2.28,24.82-.07,49.64,0,74.46-.09,1.85,0,2.53.33,2.48,2.38-.15,5.66,0,5.66-5.65,5.66H229.38Zm-9.85,25.16c0,1.91-.05,3.66,0,5.41,0,1-.23,1.38-1.36,1.45-6.87.41-6.81.44-6.71-6.38,0-1.55.61-1.75,1.89-1.68,1.68.1,3.36,0,5.35,0-2.35-2.92-3.91-6.46-6.55-7.68s-6.53-.3-9.86-.32a2.78,2.78,0,0,1-.5,0c-1.82-.33-2.33.32-2.32,2.23q.12,25.74,0,51.47c0,1.83.38,2.32,2.28,2.32q69.72-.11,139.42,0c1.84,0,2.33-.38,2.32-2.28q-.12-25.6,0-51.22c0-2.06-.45-2.57-2.54-2.56-27.24.08-54.47.05-81.71.05h-2.58c1.32,2.65,2.51,5,3.65,7.34.45.94,1.26.63,1.94.65,5.24.14,5.12.13,5.29,5.52.07,2.14-.54,2.76-2.59,2.52-1.71-.21-3.85.47-5.09-.34s0-3.07-.52-4.64c-.79-.3-1.29.3-1.85.57-3.22,1.54-3.21,1.56-4.85-1.71-1-2.08-2.11-4.14-3.11-6.24a5.2,5.2,0,0,0-1.73-2.07,12.06,12.06,0,0,0-13.6-.1,12.29,12.29,0,0,0-5,12.67c.93,4.5,4.33,6.13,7.91,7.86,5.91,2.85,5.85,2.92,2.73,8.58-.55,1-1,1.31-2.07.71-2.55-1.38-5.12-2.76-7.79-3.89a13.39,13.39,0,0,1-6.48-6.27,19.44,19.44,0,0,1-2.47-9.3C221,315.7,221.13,314.63,219.53,314.12ZM271.5,201q13.25,0,26.48,0c8.67,0,13.49-4.78,13.5-13.37v-45c0-8.95-4.72-13.61-13.75-13.61a17.21,17.21,0,0,1-2.49,0,2.83,2.83,0,0,0-2.87,1.47c-3.19,4.37-6.51,8.64-9.69,13a3.3,3.3,0,0,1-3.07,1.57q-8.12-.14-16.24,0a3.26,3.26,0,0,1-3.06-1.58c-2.53-3.51-5.42-6.79-7.7-10.44-2-3.2-4.37-4.26-8.11-4.1-8,.34-13,5.07-13,13q0,23.1,0,46.21c0,7.91,5,12.85,13,12.86Q258,201,271.5,201Zm.09,80c11.4,0,22.8-.06,34.21,0,1.95,0,2.47-.61,2.74-2.44.95-6.5,2.13-13,3.19-19.44,1.24-7.62,2.82-15.22,3.59-22.9.94-9.46-2.41-17.77-8.25-25.18A4.57,4.57,0,0,0,303,209c-20.4.08-40.8.14-61.19,0a7.51,7.51,0,0,0-7.07,3.66c-5.55,7.89-8.32,16.42-6.8,26.06,2.14,13.55,4.44,27.06,6.6,40.6.25,1.56,1,1.76,2.32,1.75C248.44,280.94,260,281,271.59,281Zm-43,19.76a38,38,0,0,1-5.05-6.09,126.27,126.27,0,0,1-14.44-29.4,25.41,25.41,0,0,1,1.13-19.62c.49-1.05,1-2.1,1.54-3.12.31-.58.48-1.08-.16-1.51-2.06-1.39-3.46-3.46-5.16-5.41-6.36,10.58-9,21.29-4.57,33.2a139.71,139.71,0,0,0,16,29.75,56.71,56.71,0,0,0,5.89,7.72A18.92,18.92,0,0,1,228.59,300.73ZM363.45,180.62c0,4.53.05,8.78,0,13a27.45,27.45,0,0,1-19.29,26c-1.57.5-3.91.31-4.62,1.33s-.06,3.29-.11,5c-.07,3-.09,3,2.84,2.36,14.25-3.31,23.65-11.9,27.9-26,2.07-6.83,1.07-13.88,1.29-20.85,0-1.13-.64-.82-1.31-.72A19.46,19.46,0,0,1,363.45,180.62Zm-136.87,99c-.34-2-.7-4.14-1.05-6.27L221,246.08c-.09-.57-.07-1.22-.78-1.4-.52-.12-.73.35-.91.69-2.11,3.9-4.32,7.93-3.67,12.46,1.17,8.07,5,15.22,8.55,22.46.43.88,1.22.72,1.95.63S226.54,280.19,226.58,279.64Zm-3.06-114.59c0-3.48,0-7,0-10.45,0-.52.27-1.16-.42-1.53-3.08-1.63-7.49.87-7.54,4.35-.07,4.48,0,9,0,13.44,0,5.21,1.29,6.38,6.52,6.2,1.23,0,1.52-.4,1.5-1.55C223.48,172,223.52,168.54,223.52,165.05Zm96-.28c0,3.57,0,7.14,0,10.7,0,.53-.27,1.16.43,1.53,3.09,1.62,7.48-.87,7.53-4.37.07-4.47,0-8.95,0-13.43,0-5.21-1.3-6.38-6.53-6.2-1.24.05-1.51.42-1.49,1.57C319.52,158,319.48,161.37,319.48,164.77Zm4,71.23a11.59,11.59,0,0,0,7.89-13c-1.06-5.73-6.39-10.28-11.66-10-1.53.06-1.37.59-.84,1.65A43.15,43.15,0,0,1,323.44,236Zm-103.85-.06c-.46-8.06,1.59-15.55,5.21-22.73a11.9,11.9,0,0,0-13.14,9.89C210.68,228.64,214.24,234.53,219.59,235.94Zm63.67-106.76H259.62c2,2.62,3.72,5,5.47,7.33a1.5,1.5,0,0,0,1.31.55c3.65,0,7.62.82,10.84-.37,2.37-.87,3.77-4.4,5.59-6.75C282.93,129.81,283,129.65,283.26,129.18Z"/><path class="cls-30" d="M283.49,317c0,4,0,4-4,4s-4,0-4-4,0-4,4-4S283.49,313,283.49,317Z"/><path class="cls-30" d="M299.49,317.08c0,3.86,0,3.86-3.88,3.86-4.12,0-4.12,0-4.12-4.13,0-3.86,0-3.86,3.88-3.86C299.49,313,299.49,313,299.49,317.08Z"/><path class="cls-30" d="M315.48,317.05c0,3.89,0,3.89-3.85,3.89-4.15,0-4.15,0-4.15-4.1,0-3.89,0-3.89,3.85-3.89C315.48,313,315.48,313,315.48,317.05Z"/><path class="cls-30" d="M323.47,316.94c0-4,0-4,4-4s4,0,4,4,0,4-4,4S323.47,320.94,323.47,316.94Z"/><path class="cls-30" d="M219.53,333c0,3.94,0,3.94-4.05,3.94s-3.95,0-3.95-4.05,0-3.94,4.05-3.94S219.53,328.94,219.53,333Z"/><path class="cls-30" d="M251.51,333c0,3.93,0,3.93-3.82,3.93-4.18,0-4.18,0-4.18-4.06s0-3.93,3.82-3.93C251.51,328.94,251.51,328.94,251.51,333Z"/><path class="cls-30" d="M263.54,328.94c4,0,4,0,4,4s0,4-4,4-4,0-4-4S259.5,328.94,263.54,328.94Z"/><path class="cls-30" d="M279.52,328.94c4,0,4,0,4,4s0,4-4,4-4,0-4-4S275.5,328.94,279.52,328.94Z"/><path class="cls-30" d="M295.54,328.94c3.95,0,3.95,0,3.95,4.05s0,3.94-4.05,3.94-3.95,0-3.95-4.05S291.49,328.94,295.54,328.94Z"/><path class="cls-30" d="M311.6,328.94c3.88,0,3.88,0,3.88,3.87,0,4.12,0,4.12-4.12,4.12-3.88,0-3.88,0-3.88-3.86C307.48,328.94,307.48,328.94,311.6,328.94Z"/><path class="cls-30" d="M327.71,328.94c3.76,0,3.76,0,3.76,3.74,0,4.25,0,4.25-4.24,4.25-3.76,0-3.76,0-3.76-3.74C323.47,328.94,323.47,328.94,327.71,328.94Z"/><path class="cls-30" d="M219.53,349.15c0,3.77,0,3.77-3.73,3.77-4.27,0-4.27,0-4.27-4.22,0-3.77,0-3.77,3.73-3.77C219.53,344.93,219.53,344.93,219.53,349.15Z"/><path class="cls-30" d="M235.52,349.07c0,3.85,0,3.85-3.9,3.85-4.1,0-4.1,0-4.1-4.14,0-3.85,0-3.85,3.9-3.85C235.52,344.93,235.52,344.93,235.52,349.07Z"/><path class="cls-30" d="M251.51,348.76c0,4.16,0,4.16-4.08,4.16-3.92,0-3.92,0-3.92-3.83,0-4.16,0-4.16,4.09-4.16C251.51,344.93,251.51,344.93,251.51,348.76Z"/><path class="cls-30" d="M263.7,344.93c3.8,0,3.8,0,3.8,3.94s0,4.05-3.94,4.05-4.06,0-4.06-3.94S259.5,344.93,263.7,344.93Z"/><path class="cls-30" d="M283.49,349.06c0,3.86,0,3.86-3.88,3.86-4.11,0-4.11,0-4.11-4.13,0-3.86,0-3.86,3.88-3.86C283.49,344.93,283.49,344.93,283.49,349.06Z"/><path class="cls-30" d="M299.49,349c0,4,0,4-4,4s-4,0-4-4,0-4,4-4S299.49,344.93,299.49,349Z"/><path class="cls-30" d="M315.48,348.93c0,4,0,4-4,4s-4,0-4-4,0-4,4-4S315.48,344.93,315.48,348.93Z"/><path class="cls-30" d="M323.47,348.92c0-4,0-4,4-4s4,0,4,4,0,4-4,4S323.47,352.92,323.47,348.92Z"/><path class="cls-30" d="M271.5,193c-5.08,0-10.15,0-15.22,0-5.4,0-8.72-3.32-8.77-8.68,0-1.74.14-3.5,0-5.23S248,177,249.69,177c5.78.07,5.87,0,5.77,5.7,0,1.88.45,2.34,2.32,2.32q13.59-.13,27.2.05c1.83,0,2.56-.29,2.52-2.37-.09-5.7,0-5.63,5.81-5.71,1.66,0,2.39.27,2.22,2.12s0,3.82,0,5.74a8.05,8.05,0,0,1-8.26,8.16C282,193.06,276.74,193,271.5,193Z"/><path class="cls-30" d="M251.45,169a12,12,0,1,1,12.05-11.81A12.05,12.05,0,0,1,251.45,169Zm0-8a4,4,0,1,0-3.95-4A4,4,0,0,0,251.48,161Z"/><path class="cls-30" d="M291.55,145.05a12,12,0,1,1-12.05,11.79A12,12,0,0,1,291.55,145.05Zm0,16a4,4,0,1,0-4.07-3.83A4,4,0,0,0,291.58,161Z"/><path class="cls-30" d="M271.67,217c7.74,0,15.48,0,23.23,0,7.47,0,12.53,5.08,12.58,12.53q0,7.49,0,15c-.05,7.29-5.14,12.42-12.42,12.44q-23.61,0-47.21,0a11.93,11.93,0,0,1-12.32-12.28q-.08-7.74,0-15.49A11.91,11.91,0,0,1,247.68,217C255.68,217,263.67,217,271.67,217Zm-.19,8c-7.74,0-15.47,0-23.21,0-3.26,0-4.73,1.47-4.75,4.7,0,4.83,0,9.65,0,14.48,0,3.36,1.47,4.78,4.92,4.79q23.08,0,46.16,0c3.42,0,4.86-1.44,4.88-4.84,0-4.66,0-9.31,0-14,0-3.87-1.34-5.16-5.3-5.17Z"/><path class="cls-30" d="M251.51,269c0,4,0,4-4,4s-4,0-4-4.05,0-3.95,4.05-3.95S251.51,265,251.51,269Z"/><path class="cls-30" d="M267.5,268.77c0,4.2,0,4.2-4.3,4.2-3.69,0-3.69,0-3.69-3.8,0-4.2,0-4.2,4.29-4.2C267.5,265,267.5,265,267.5,268.77Z"/><path class="cls-30" d="M279.35,273c-3.85,0-3.85,0-3.85-3.89,0-4.11,0-4.11,4.14-4.11,3.85,0,3.85,0,3.85,3.9C283.49,273,283.49,273,279.35,273Z"/><path class="cls-30" d="M295.73,265c3.76,0,3.76,0,3.76,3.75,0,4.25,0,4.25-4.24,4.25-3.76,0-3.76,0-3.76-3.74C291.49,265,291.49,265,295.73,265Z"/></svg>