<svg id="Layer_1" data-name="Layer 1" xmlns="http://www.w3.org/2000/svg" xmlns:xlink="http://www.w3.org/1999/xlink" viewBox="0 0 543 490"><defs><style>.cls-1{fill:url(#linear-gradient);}.cls-2{fill:#2a2a8c;}.cls-3{fill:url(#linear-gradient-2);}.cls-4{opacity:0.9;fill:url(#linear-gradient-3);}.cls-5{fill:url(#linear-gradient-4);}.cls-6{fill:url(#linear-gradient-5);}.cls-7{fill:url(#linear-gradient-6);}.cls-8{fill:url(#linear-gradient-7);}.cls-9{fill:url(#linear-gradient-8);}.cls-10{fill:url(#linear-gradient-9);}.cls-11{fill:url(#linear-gradient-10);}.cls-12,.cls-13,.cls-14,.cls-15,.cls-18,.cls-19,.cls-20,.cls-21,.cls-22,.cls-23,.cls-28,.cls-29{fill-opacity:0.2;}.cls-12{fill:url(#linear-gradient-11);}.cls-13{fill:url(#linear-gradient-12);}.cls-14{fill:url(#linear-gradient-13);}.cls-15{fill:url(#linear-gradient-14);}.cls-16{fill:url(#linear-gradient-15);}.cls-17{fill:url(#linear-gradient-16);}.cls-18{fill:url(#linear-gradient-17);}.cls-19{fill:url(#linear-gradient-18);}.cls-20{fill:url(#linear-gradient-19);}.cls-21{fill:url(#linear-gradient-20);}.cls-22{fill:url(#linear-gradient-21);}.cls-23{fill:url(#linear-gradient-22);}.cls-24{fill:url(#linear-gradient-23);}.cls-25{fill:url(#linear-gradient-24);}.cls-26{fill:url(#linear-gradient-25);}.cls-27{fill:url(#linear-gradient-26);}.cls-28{fill:url(#linear-gradient-27);}.cls-29{fill:url(#linear-gradient-28);}.cls-30{fill:none;stroke:#39ffff;stroke-miterlimit:10;stroke-width:2px;}</style><linearGradient id="linear-gradient" x1="0.21" y1="137.11" x2="100.9" y2="137.11" gradientUnits="userSpaceOnUse"><stop offset="0.04" stop-color="#3a3adb"/><stop offset="0.99" stop-color="#2a2a8c"/></linearGradient><linearGradient id="linear-gradient-2" x1="50.45" y1="221.61" x2="542.33" y2="221.61" gradientUnits="userSpaceOnUse"><stop offset="0.04" stop-color="#3a3adb"/><stop offset="0.77" stop-color="#2a2a8c"/></linearGradient><linearGradient id="linear-gradient-3" x1="0.16" y1="279.25" x2="446.97" y2="279.25" gradientUnits="userSpaceOnUse"><stop offset="0.04" stop-color="#3a3adb"/><stop offset="0.99" stop-color="#2a47c9"/></linearGradient><linearGradient id="linear-gradient-4" x1="340.93" y1="347.57" x2="474.87" y2="347.57" xlink:href="#linear-gradient"/><linearGradient id="linear-gradient-5" x1="71.3" y1="42.35" x2="73.9" y2="42.35" xlink:href="#linear-gradient"/><linearGradient id="linear-gradient-6" x1="71.3" y1="21.65" x2="73.9" y2="21.65" xlink:href="#linear-gradient"/><linearGradient id="linear-gradient-7" x1="77.5" y1="37.3" x2="87.4" y2="37.3" xlink:href="#linear-gradient"/><linearGradient id="linear-gradient-8" x1="57.8" y1="26.5" x2="67.7" y2="26.5" xlink:href="#linear-gradient"/><linearGradient id="linear-gradient-9" x1="57.7" y1="37.3" x2="67.6" y2="37.3" xlink:href="#linear-gradient"/><linearGradient id="linear-gradient-10" x1="77.5" y1="26.5" x2="87.4" y2="26.5" xlink:href="#linear-gradient"/><linearGradient id="linear-gradient-11" x1="208.8" y1="73.75" x2="211.41" y2="73.75" xlink:href="#linear-gradient"/><linearGradient id="linear-gradient-12" x1="208.8" y1="53.05" x2="211.41" y2="53.05" xlink:href="#linear-gradient"/><linearGradient id="linear-gradient-13" x1="193.5" y1="63.4" x2="204.21" y2="63.4" xlink:href="#linear-gradient"/><linearGradient id="linear-gradient-14" x1="216" y1="63.4" x2="226.71" y2="63.4" xlink:href="#linear-gradient"/><linearGradient id="linear-gradient-15" x1="55.91" y1="421.27" x2="90.05" y2="421.27" xlink:href="#linear-gradient"/><linearGradient id="linear-gradient-16" x1="56.05" y1="400.53" x2="90.14" y2="400.53" xlink:href="#linear-gradient"/><linearGradient id="linear-gradient-17" x1="345.5" y1="278.75" x2="348.1" y2="278.75" xlink:href="#linear-gradient-3"/><linearGradient id="linear-gradient-18" x1="345.5" y1="258.05" x2="348.1" y2="258.05" xlink:href="#linear-gradient-3"/><linearGradient id="linear-gradient-19" x1="351.8" y1="273.8" x2="361.7" y2="273.8" xlink:href="#linear-gradient-3"/><linearGradient id="linear-gradient-20" x1="332" y1="263" x2="341.9" y2="263" xlink:href="#linear-gradient-3"/><linearGradient id="linear-gradient-21" x1="331.9" y1="273.8" x2="341.8" y2="273.8" xlink:href="#linear-gradient-3"/><linearGradient id="linear-gradient-22" x1="351.7" y1="263" x2="361.6" y2="263" xlink:href="#linear-gradient-3"/><linearGradient id="linear-gradient-23" x1="474.1" y1="410.95" x2="476.7" y2="410.95" xlink:href="#linear-gradient"/><linearGradient id="linear-gradient-24" x1="474.1" y1="390.25" x2="476.7" y2="390.25" xlink:href="#linear-gradient"/><linearGradient id="linear-gradient-25" x1="458.8" y1="400.6" x2="469.5" y2="400.6" xlink:href="#linear-gradient"/><linearGradient id="linear-gradient-26" x1="481.2" y1="400.6" x2="491.91" y2="400.6" xlink:href="#linear-gradient"/><linearGradient id="linear-gradient-27" x1="480.31" y1="231.57" x2="514.45" y2="231.57" gradientUnits="userSpaceOnUse"><stop offset="0.04" stop-color="#3a3adb"/><stop offset="0.99" stop-color="#2a4b8c"/></linearGradient><linearGradient id="linear-gradient-28" x1="480.35" y1="210.83" x2="514.49" y2="210.83" xlink:href="#linear-gradient-27"/></defs><path class="cls-1" d="M89.5,126.5C79,109.2,68,97.8,50.6,89.7s-39.1-8.2-48,11.2,8.6,43.5,33.2,44.9c28.3,1.5,43.4,14.6,45,34,1,12.1,14.5,12.5,17.3,4.6C103.3,170,101.7,146.7,89.5,126.5Z"/><path class="cls-2" d="M311.5,26.9C194.9-92.8,68.2,219.8,35.7,320.8S140.6,438.1,233,456.2c147.6,28.8,215.2-27,226.7-94.2S428.1,146.7,311.5,26.9Z"/><path class="cls-3" d="M386.9,175.8C325,186.6,282.7,128,254.2,91.9c-22.4-28.4-116.5-75.1-175,8.7-53,76-31.1,189.1,52.3,246.4S342,399,420.9,363.5c49.9-22.4,112.9-64.1,120.7-123.3C550.2,175.4,481.9,159.3,386.9,175.8Z"/><path class="cls-4" d="M397.7,68.5c-2.5-.1-5-.1-7.6-.1-41.1,0-92.8,10.3-129.7,22.4L255,92.6c1.1,1.4,2.3,2.9,3.5,4.4,1.3-.4,2.5-.8,3.8-1.3,41-13.5,91.2-22.1,127.9-22.1,2.5,0,5,0,7.4.1,17.3.6,30.3,6.3,37.5,16.5,8.6,12.2,8.6,30.8-.1,52.2-3.9,9.7-7.2,18.9-9.9,28-11,36.6-13.6,72.1-14.2,134.2-.1,14.2,0,27.3.1,40,.1,8,.1,15.5.1,22.8,0,44.1-2.7,74.5-23,94.1-15.8,15.2-34.3,23.3-53.6,23.3-21.2,0-42.9-9.5-64.3-28.3C222.8,415,164,386,104.6,374.7c-45.6-8.7-81.4-17-93.8-36.9-6.7-10.9-6.7-25.6,0-45,6.3-18.1,18.4-43.1,41.9-70.5-.4-2.4-.7-4.8-1-7.1-23.6,26.5-38.1,52.7-46.2,76-21.7,62.6,25.1,74.8,97.9,88.7,58.6,11.2,115.8,39.3,162.8,80.5,24,21,47.1,29.7,68.1,29.7,22.1,0,41.8-9.7,57.6-24.9,22.1-21.4,24.6-53.8,24.6-100.1,0-18-.4-38.1-.2-60.4.6-64.3,3.4-98.8,14.5-134.7,2.6-8.3,5.7-16.8,9.2-25.6C458.1,99.7,439.9,69.9,397.7,68.5Z"/><path class="cls-5" d="M459.8,308.7c-35.5-38.4-76.5-14-105.7,29.4-27.1,40.3-10.6,87.6,33.3,58.4,38.3-25.4,61.6-18,78.7-35.1C489,338.7,459.8,308.7,459.8,308.7Z"/><path class="cls-6" d="M72.6,47.7a1.32,1.32,0,0,1-1.3-1.3V38.3a1.3,1.3,0,1,1,2.6,0v8.1A1.4,1.4,0,0,1,72.6,47.7Z"/><path class="cls-7" d="M72.6,27a1.32,1.32,0,0,1-1.3-1.3V17.6a1.3,1.3,0,1,1,2.6,0v8.1A1.32,1.32,0,0,1,72.6,27Z"/><path class="cls-8" d="M85.3,40.3l-7.1-3.8a1.13,1.13,0,0,1-.5-1.7,1.54,1.54,0,0,1,1.9-.5l7.1,3.8a1.13,1.13,0,0,1,.5,1.7A1.54,1.54,0,0,1,85.3,40.3Z"/><path class="cls-9" d="M65.6,29.5l-7.1-3.8A1.13,1.13,0,0,1,58,24a1.54,1.54,0,0,1,1.9-.5L67,27.3a1.13,1.13,0,0,1,.5,1.7A1.57,1.57,0,0,1,65.6,29.5Z"/><path class="cls-10" d="M57.9,39.8a1.13,1.13,0,0,1,.5-1.7l7.1-3.8a1.54,1.54,0,0,1,1.9.5,1.13,1.13,0,0,1-.5,1.7l-7.1,3.8A1.54,1.54,0,0,1,57.9,39.8Z"/><path class="cls-11" d="M77.7,29a1.13,1.13,0,0,1,.5-1.7l7.1-3.8a1.54,1.54,0,0,1,1.9.5,1.13,1.13,0,0,1-.5,1.7l-7.1,3.8A1.54,1.54,0,0,1,77.7,29Z"/><path class="cls-12" d="M210.1,79.1a1.32,1.32,0,0,1-1.3-1.3V69.7a1.3,1.3,0,0,1,2.6,0v8.1A1.21,1.21,0,0,1,210.1,79.1Z"/><path class="cls-13" d="M210.1,58.4a1.32,1.32,0,0,1-1.3-1.3V49a1.3,1.3,0,0,1,2.6,0v8.1A1.21,1.21,0,0,1,210.1,58.4Z"/><path class="cls-14" d="M202.9,64.7h-8.1a1.3,1.3,0,0,1,0-2.6h8.1a1.32,1.32,0,0,1,1.3,1.3A1.21,1.21,0,0,1,202.9,64.7Z"/><path class="cls-15" d="M225.4,64.7h-8.1a1.3,1.3,0,0,1,0-2.6h8.1a1.32,1.32,0,0,1,1.3,1.3A1.21,1.21,0,0,1,225.4,64.7Z"/><path class="cls-16" d="M73,428a17.92,17.92,0,0,1-17-11.7,1.27,1.27,0,0,1,1-1.7,1.31,1.31,0,0,1,1.6.8,15.42,15.42,0,0,0,28.8,0,1.38,1.38,0,0,1,2.6.9A18.06,18.06,0,0,1,73,428Z"/><path class="cls-17" d="M89.1,407.2a1.31,1.31,0,0,1-1.6-.8,15.42,15.42,0,0,0-28.8,0,1.38,1.38,0,0,1-2.6-.9,18.2,18.2,0,0,1,34,0A1.45,1.45,0,0,1,89.1,407.2Z"/><path class="cls-18" d="M346.8,284.1a1.32,1.32,0,0,1-1.3-1.3v-8.1a1.3,1.3,0,0,1,2.6,0v8.1A1.32,1.32,0,0,1,346.8,284.1Z"/><path class="cls-19" d="M346.8,263.4a1.32,1.32,0,0,1-1.3-1.3V254a1.3,1.3,0,0,1,2.6,0v8.1A1.32,1.32,0,0,1,346.8,263.4Z"/><path class="cls-20" d="M359.6,276.8l-7.1-3.8a1.13,1.13,0,0,1-.5-1.7,1.54,1.54,0,0,1,1.9-.5l7.1,3.8a1.13,1.13,0,0,1,.5,1.7A1.57,1.57,0,0,1,359.6,276.8Z"/><path class="cls-21" d="M339.8,266l-7.1-3.8a1.13,1.13,0,0,1-.5-1.7,1.54,1.54,0,0,1,1.9-.5l7.1,3.8a1.13,1.13,0,0,1,.5,1.7A1.57,1.57,0,0,1,339.8,266Z"/><path class="cls-22" d="M332.1,276.3a1.13,1.13,0,0,1,.5-1.7l7.1-3.8a1.54,1.54,0,0,1,1.9.5,1.13,1.13,0,0,1-.5,1.7l-7.1,3.8A1.57,1.57,0,0,1,332.1,276.3Z"/><path class="cls-23" d="M351.9,265.5a1.13,1.13,0,0,1,.5-1.7l7.1-3.8a1.54,1.54,0,0,1,1.9.5,1.13,1.13,0,0,1-.5,1.7l-7.1,3.8A1.54,1.54,0,0,1,351.9,265.5Z"/><path class="cls-24" d="M475.4,416.3a1.32,1.32,0,0,1-1.3-1.3v-8.1a1.3,1.3,0,0,1,2.6,0V415A1.32,1.32,0,0,1,475.4,416.3Z"/><path class="cls-25" d="M475.4,395.6a1.32,1.32,0,0,1-1.3-1.3v-8.1a1.3,1.3,0,0,1,2.6,0v8.1A1.32,1.32,0,0,1,475.4,395.6Z"/><path class="cls-26" d="M468.2,401.9h-8.1a1.3,1.3,0,0,1,0-2.6h8.1a1.3,1.3,0,1,1,0,2.6Z"/><path class="cls-27" d="M490.6,401.9h-8.1a1.3,1.3,0,0,1,0-2.6h8.1a1.32,1.32,0,0,1,1.3,1.3A1.21,1.21,0,0,1,490.6,401.9Z"/><path class="cls-28" d="M497.4,238.3a17.92,17.92,0,0,1-17-11.7,1.27,1.27,0,0,1,1-1.7,1.31,1.31,0,0,1,1.6.8,15.42,15.42,0,0,0,28.8,0,1.38,1.38,0,0,1,2.6.9A18.06,18.06,0,0,1,497.4,238.3Z"/><path class="cls-29" d="M513.4,217.5a1.31,1.31,0,0,1-1.6-.8,15.42,15.42,0,0,0-28.8,0,1.38,1.38,0,0,1-2.6-.9,18.2,18.2,0,0,1,34,0A1.3,1.3,0,0,1,513.4,217.5Z"/><path class="cls-30" d="M392.62,275.64c.4,6.83.86,13.65,1.17,20.48.25,5.64-2.15,10.2-6.28,13.85-5.95,5.25-12,10.41-18,15.57a4.22,4.22,0,0,0-1.58,2.76c-1.81,11.45-3.67,22.9-5.47,34.35-1.18,7.44-7.36,12.08-14.5,10.82-6.72-1.17-10.88-7.57-9.7-14.74q3.25-19.83,6.39-39.67a13.21,13.21,0,0,1,4.54-8.34c5.41-4.62,10.79-9.27,16.2-13.89,1.84-1.58,3.55-1.64,4.71-.23s.8,2.93-1,4.46c-5.34,4.6-10.67,9.19-16,13.75a7.82,7.82,0,0,0-2.82,4.9c-2.15,13.5-4.38,27-6.47,40.49-.81,5.25,3.9,9.21,8.66,7.44a6.47,6.47,0,0,0,4.32-5.37c1.91-11.86,3.86-23.71,5.7-35.58a7.38,7.38,0,0,1,2.68-4.88c6-5,11.8-10.21,17.76-15.25a13.73,13.73,0,0,0,5.24-12.35c-1-13.23-1.61-26.47-2.36-39.71-.33-5.91-3.74-10.09-9.05-11-5-.89-10,2-12.13,7.29-2.72,6.71-5.33,13.47-7.88,20.25a4.11,4.11,0,0,1-4.1,3c-6.35.35-12.68.87-19,1.34a11.72,11.72,0,0,0-2.65.42,4.63,4.63,0,0,0-2.95,5.31,4.51,4.51,0,0,0,4.77,3.73c4.83-.25,9.64-.65,14.47-1,3.51-.25,7-.62,10.54-.74a6,6,0,0,0,6-4.36c2.47-6.73,5.16-13.38,7.77-20.06.89-2.26,2.37-3.1,4.07-2.37s2,2.28,1.18,4.43q-4.05,10.41-8.11,20.82a10.32,10.32,0,0,1-9.56,7c-8.41.6-16.81,1.26-25.21,1.89-6.09.46-11.31-3.8-11.67-9.5-.38-6.08,3.88-10.72,10.24-11.16,5.78-.4,11.57-.87,17.36-1.24a2.31,2.31,0,0,0,2.39-1.72c2.25-6,4.59-12,7-17.94,3.79-9.5,13.68-13.83,22.47-9.75,6.13,2.84,9.29,7.82,9.71,14.52C391.84,261,392.21,268.33,392.62,275.64Z"/><path class="cls-30" d="M213.29,360.85A12.21,12.21,0,0,1,190,366c-4.32-9.25-8.75-18.46-12.71-27.86-1.81-4.27-4.28-7.11-8.67-8.83-5.64-2.21-11-5.09-16.5-7.67A18.41,18.41,0,0,1,141.2,308c-2.77-13.38-5.78-26.71-8.67-40.07a16.53,16.53,0,0,1,8.74-18.59c6.9-3.42,15.14-1.57,20.35,4.72,2.2,2.65,4.18,5.49,6.26,8.25s4.09,5.39,6.05,8.14a2,2,0,0,0,2.42.89q8.91-1.89,17.87-3.57a10.3,10.3,0,0,1,12.29,8.06A10.55,10.55,0,0,1,198,288.07c-8.25,1.67-16.51,3.29-24.77,5a10.65,10.65,0,0,1-11.58-4.48c-4.34-5.9-8.75-11.74-13.14-17.6a3.68,3.68,0,0,1-1.08-2.6,2.7,2.7,0,0,1,1.93-2.46,2.87,2.87,0,0,1,3.4,1.31q4.33,5.82,8.68,11.62c1.66,2.21,3.33,4.41,5,6.64a5,5,0,0,0,5.42,2.1q12.39-2.5,24.78-5c2.13-.42,3.71-1.46,4.26-3.68a4.44,4.44,0,0,0-1.52-4.66,4.9,4.9,0,0,0-4.47-1c-6.43,1.31-12.87,2.54-19.28,3.93a4.39,4.39,0,0,1-5.12-1.95c-4.12-5.71-8.38-11.32-12.64-16.93-2.84-3.74-6.56-5.75-11.34-4.89A10.73,10.73,0,0,0,138,266.34c3,13.9,6,27.79,9,41.68.89,4.05,3.56,6.6,7.16,8.31,7.47,3.56,14.95,7.12,22.46,10.6a5.88,5.88,0,0,1,3.07,3.13c5,10.93,10,21.82,15,32.74,1.07,2.34,2.61,4.07,5.24,4.52a6.24,6.24,0,0,0,6.27-2.35,6.49,6.49,0,0,0,.73-7.21q-4.83-10.53-9.68-21.05c-2.4-5.21-4.84-10.39-7.16-15.62a8.65,8.65,0,0,0-4.54-4.56c-6.27-2.87-12.5-5.83-18.74-8.77-2.25-1.06-3-2.51-2.18-4.15s2.38-2,4.64-.92c6.37,3,12.72,6,19.11,9a12.9,12.9,0,0,1,6.59,6.56q8.53,18.63,17.1,37.24A11.78,11.78,0,0,1,213.29,360.85Z"/><path class="cls-30" d="M318.14,227.1c0,.49-.06,1-.1,1.45-.48,5.63-.46,5.61,3.76,9.36a2.12,2.12,0,0,0,2.07.48c2-.39,4.07-.78,6.11-1.13,2.63-.46,4,.25,5.19,2.66q2.73,5.81,5.4,11.64c1.17,2.57.82,3.95-1.38,5.81-1.26,1.08-2.55,2.11-3.82,3.19-.92.78-1.94,1.4-2,2.91a2.27,2.27,0,0,1-2.2,1.88,2.68,2.68,0,0,1-2.71-1.14,4.42,4.42,0,0,1,.63-5.63c1.67-1.44,3.34-2.91,5.11-4.22,1-.75,1-1.39.48-2.41-1.26-2.53-2.47-5.09-3.58-7.69-.46-1.09-1-1.44-2.16-1.17-2.15.5-4.35.77-6.52,1.2a3.23,3.23,0,0,1-3.31-1.16,34,34,0,0,0-5.79-5.32,3.23,3.23,0,0,1-1.41-3.22c.23-2.2.34-4.41.63-6.6.15-1.07-.08-1.63-1.15-2-2.8-1-5.61-1.94-8.35-3.06-1.12-.46-1.59-.09-2.15.76-1.21,1.85-2.53,3.62-3.76,5.46a3.16,3.16,0,0,1-3.16,1.53,34.36,34.36,0,0,0-7.85.32,3.4,3.4,0,0,1-3.43-1.38c-1.37-1.73-2.85-3.38-4.21-5.12a1.4,1.4,0,0,0-2.06-.5c-2.71,1.36-5.47,2.63-8.25,3.85a1.32,1.32,0,0,0-.9,1.75c.46,2.23.78,4.49,1.24,6.72a3.19,3.19,0,0,1-1.09,3.34,36.13,36.13,0,0,0-5.45,5.94,3.25,3.25,0,0,1-3.26,1.33c-2.12-.25-4.26-.38-6.39-.66-1.12-.15-1.74.08-2.12,1.27-.9,2.75-1.9,5.47-3,8.16a1.51,1.51,0,0,0,.67,2.19c1.8,1.15,3.5,2.47,5.29,3.64a3.56,3.56,0,0,1,1.78,3.66,26.87,26.87,0,0,0,.29,7.22,3.77,3.77,0,0,1-1.58,3.95c-1.7,1.31-3.29,2.75-5,4.06a1.32,1.32,0,0,0-.43,1.92c1.33,2.73,2.64,5.48,3.84,8.26.43,1,.95,1.13,1.91.93,2.1-.45,4.23-.72,6.32-1.16a3.46,3.46,0,0,1,3.7,1.16,34,34,0,0,0,5.79,5.32,3.24,3.24,0,0,1,1.4,3.23c-.25,2.19-.4,4.4-.68,6.59a1.52,1.52,0,0,0,1.2,2c2.81.94,5.6,2,8.35,3.08a1.41,1.41,0,0,0,2-.64c1.24-1.91,2.61-3.74,3.89-5.62a3.29,3.29,0,0,1,3.16-1.55,35,35,0,0,0,8.05-.34,3.09,3.09,0,0,1,3.08,1.29c1.44,1.76,3,3.48,4.35,5.27a1.4,1.4,0,0,0,2.07.47c2.72-1.35,5.48-2.6,8.26-3.83a1.29,1.29,0,0,0,.85-1.75c-.5-2.22-.79-4.48-1.24-6.72a3.27,3.27,0,0,1,1.1-3.34c.92-.83,1.74-1.77,2.67-2.6a2.61,2.61,0,0,1,3.89,0c1.23,1.19,1.38,2.84.09,3.84-2.17,1.68-2.06,3.58-1.43,5.83a38.19,38.19,0,0,1,.78,4.27,3.87,3.87,0,0,1-2.24,4.46c-4.16,2-8.36,3.93-12.57,5.85a4,4,0,0,1-5-1.19c-1.48-1.73-2.95-3.47-4.36-5.26a1.71,1.71,0,0,0-1.93-.81.68.68,0,0,1-.2,0c-4.36-.7-6.85,1.52-9,5.1-2.41,4.08-3.41,4.19-7.83,2.56-3.56-1.31-7.12-2.61-10.67-3.95-2.47-.93-3.29-2.33-3-5a9.93,9.93,0,0,1,.21-2.06c1.36-4.21-.52-7-3.8-9.37a2.15,2.15,0,0,0-1.84-.53c-2.17.44-4.35.8-6.53,1.16-2.44.4-3.87-.28-4.9-2.43q-2.9-6.07-5.67-12.2a3.94,3.94,0,0,1,1.18-5.18c1.67-1.45,3.36-2.87,5.1-4.24a2.71,2.71,0,0,0,.92-2.1c.59-4.43-1.52-7-5.2-9.13-4-2.31-4.09-3.38-2.54-7.66,1.3-3.57,2.58-7.14,3.9-10.7.94-2.55,2.36-3.4,5.1-3.14a12.64,12.64,0,0,1,1.85.23c3.72.91,6.74.22,9-3.23.69-1.06,1.2-1.84.91-3.12-.43-1.88-.74-3.79-1.07-5.69-.44-2.52.26-4,2.52-5.07,4-1.89,8-3.75,12-5.58,2.2-1,3.75-.6,5.36,1.22a9.41,9.41,0,0,1,1.18,1.44c2.08,3.71,5.11,5.2,9.36,4.36a2.64,2.64,0,0,0,2-1.08c1.21-1.85,2.48-3.66,3.78-5.45s2.91-2.41,5.06-1.64q6.35,2.25,12.63,4.63C317.8,222.52,318.39,223.78,318.14,227.1Z"/><path class="cls-30" d="M341,189.15c-1.66,0-3.32.07-5,0a9.71,9.71,0,0,1-9.29-9.56c-.07-2.69-.09-5.39,0-8.08a16.62,16.62,0,0,0-5-12.48,27.32,27.32,0,1,1,39.4-.53,17.86,17.86,0,0,0-5.46,14c.11,2.13.08,4.28,0,6.42-.11,6.16-4.19,10.21-10.32,10.29-1.45,0-2.9,0-4.35,0Zm.14-21.68c2.55,0,5.11,0,7.66,0,.81,0,1.42,0,1.62-1.07.81-4.57,3.21-8.25,6.39-11.58a21.64,21.64,0,1,0-31.05.27,21.22,21.22,0,0,1,6.09,11.06c.21,1.17.79,1.36,1.83,1.34C336.2,167.43,338.69,167.47,341.18,167.47Zm0,5.63h-3.11c-6.36,0-6.36,0-5.74,6.36a4.21,4.21,0,0,0,4.17,4.08c3.1.11,6.21.11,9.31,0a4.17,4.17,0,0,0,4.18-4.27c.06-1.52-.08-3,0-4.55.09-1.25-.27-1.71-1.59-1.65C346.05,173.17,343.63,173.1,341.22,173.1Z"/><path class="cls-30" d="M279.12,139.48l-17.95-10.13c-3.85-2.18-7.7-4.34-11.53-6.52-2-1.14-2.57-2.68-1.65-4.23s2.48-1.77,4.35-.72q16.5,9.28,33,18.61c2.66,1.5,2.77,3.8.25,5.48Q269.81,152.46,254,162.89c-2.72,1.79-4.86.64-5-2.67-.2-4.9-.44-9.8-.47-14.7,0-1.77-.48-2.16-2.21-2q-48.39,4.6-79.45,41.95a10.2,10.2,0,0,1-1.22,1.4,2.79,2.79,0,0,1-4.3-3.43,7.36,7.36,0,0,1,.84-1.17C183.93,155.93,211.73,141,245.8,138c1.65-.15,3.31-.29,5-.32,2.05,0,3.06.94,3.16,3,.2,4.55.35,9.11.52,13.66,0,.34.07.68.15,1.38Z"/><path class="cls-30" d="M175.57,242.34v-5c0-2.68.9-3.87,3.5-4.64a15.5,15.5,0,0,1,2.2-.58,5.16,5.16,0,0,0,4.85-4.18,3.88,3.88,0,0,0-.35-3.57c-4.34-6.77-3.93-6.6,1.37-12,1.55-1.57,3.07-3.18,4.63-4.75,1.84-1.85,3.29-2.06,5.56-.85a9.27,9.27,0,0,1,2,1.13c2.48,2.28,4.94,1.5,7.49.15a2.09,2.09,0,0,0,1.11-1.6c.38-1.68.8-3.35,1.24-5a3.84,3.84,0,0,1,3.86-3.14q5.91-.17,11.81-.14a3.74,3.74,0,0,1,3.72,2.77,13.25,13.25,0,0,1,.78,2.78,5.28,5.28,0,0,0,4.26,5,3.56,3.56,0,0,0,3.39-.32c1.25-.86,2.57-1.62,3.89-2.37a3.87,3.87,0,0,1,5,.57c2.79,2.68,5.54,5.4,8.31,8.1a3.35,3.35,0,0,1,1.2,3,13.55,13.55,0,0,1-3.68,6.79,2.32,2.32,0,0,1-3.08.06,2.74,2.74,0,0,1-1.26-2.85,2.78,2.78,0,0,1,.27-.78c1.37-3.29,1.37-3.29-1.2-5.79-3.63-3.55-3.68-3.64-7.91-.93-2,1.3-3.78,1.63-5.91.29a13.75,13.75,0,0,0-4.22-1.65,4.23,4.23,0,0,1-3.44-3.63c-.39-1.74-.5-4-1.63-5S219.82,204,218,204c-3.63,0-3.62,0-4.49,3.49-.23.94-.51,1.87-.71,2.81a3.19,3.19,0,0,1-2.4,2.57,27.29,27.29,0,0,0-5.88,2.52,3.22,3.22,0,0,1-3.69,0l-.36-.2c-1.78-.89-3.87-3.18-5.16-2.53-2.33,1.17-4,3.71-5.92,5.68-.57.58-.07,1,.19,1.45.88,1.49,1.75,3,2.67,4.44a3.24,3.24,0,0,1,.17,3.52,28.8,28.8,0,0,0-2.44,6.14,3.18,3.18,0,0,1-2.53,2.44,5.87,5.87,0,0,0-.6.16c-1.8.64-4.81.47-5.24,1.81-.8,2.5-.25,5.44-.25,8.2,0,.78.68.78,1.17.91,1.53.41,3.08.76,4.62,1.14a8.17,8.17,0,0,1,1,.27c1.71.62,4.73,7.68,4,9.37a2.76,2.76,0,0,1-4.6.88,3.75,3.75,0,0,1-.95-1.58c-.74-3-2.78-4.1-5.67-4.66-4.85-.95-5.17-1.56-5.27-6.53,0-1.31,0-2.63,0-3.94Z"/><path class="cls-30" d="M256.14,359.86l-21.63,14.33,5.35,3.06,20.36,11.49c.42.24.87.44,1.26.71a2.73,2.73,0,0,1,1.12,3.76,2.7,2.7,0,0,1-3.9,1.11c-1.72-.87-3.38-1.87-5.06-2.82l-24.87-14c-3.37-1.91-3.44-4-.18-6.14q13.8-9.16,27.6-18.31c1.18-.78,2.34-1.57,3.82-.84s1.63,2.22,1.68,3.72c.12,4.14.37,8.28.39,12.42,0,1.62.41,2.06,2.07,1.92a114,114,0,0,0,50.69-16.52c.59-.36,1.18-.72,1.76-1.09,1.95-1.2,3.6-1.06,4.55.39s.42,3.13-1.62,4.43a116.25,116.25,0,0,1-12.08,6.78,118.37,118.37,0,0,1-46.62,11.82c-3.35.15-4.08-.53-4.22-3.8C256.44,368.27,256.31,364.28,256.14,359.86Z"/><path class="cls-30" d="M291.41,240.05a27.28,27.28,0,1,1-27.13,27.38A27.36,27.36,0,0,1,291.41,240.05Zm-21.55,27.3a21.68,21.68,0,1,0,21.48-21.76A21.72,21.72,0,0,0,269.86,267.35Z"/><path class="cls-30" d="M432.16,348.84c-.09,10.17-9.79,15.87-18.13,11.47-9.46-5-18.86-10.09-28.28-15.15-1.27-.69-2.55-1.38-3.83-2.05a12.58,12.58,0,0,1-6.25-7.15c-.55-1.56-1.22-3.08-1.72-4.66a2.58,2.58,0,0,1,1.7-3.49,2.53,2.53,0,0,1,3.44,1.44c.74,1.55,1.31,3.19,1.9,4.81a7.08,7.08,0,0,0,3.42,4q16.05,8.63,32.1,17.23c3.59,1.92,7.5.77,9.27-2.59a6.56,6.56,0,0,0-3-9Q408.7,336,394.52,328.5a5.26,5.26,0,0,1-2.76-3.14c-.74-2.22-1.7-4.37-2.5-6.58-.65-1.82,0-3.38,1.6-3.89s2.93.21,3.62,1.84a1.37,1.37,0,0,1,.17.37c.9,5.14,4.39,7.73,8.84,9.9,7.44,3.62,14.64,7.75,21.93,11.67C429.82,341,432,344.76,432.16,348.84Z"/><path class="cls-30" d="M123.14,373.67a12.23,12.23,0,0,1-7.36-22q12.09-9.08,24.28-18a5.11,5.11,0,0,0,2.36-3.63c.23-1.63.71-3.23,1.09-4.84a2.65,2.65,0,0,1,3.35-2.27c1.82.37,2.46,1.71,2.12,3.44-.53,2.7-1.17,5.39-1.78,8.08a4.37,4.37,0,0,1-2.09,2.46q-12.72,9.44-25.42,18.89c-3,2.21-3.91,5.17-2.68,8.15a6.52,6.52,0,0,0,10.16,2.7c5.8-4.22,11.53-8.54,17.29-12.82,3.72-2.75,7.37-5.59,11.16-8.24a9,9,0,0,0,4-6.22,26.43,26.43,0,0,1,.92-4,2.78,2.78,0,0,1,5.41,1.18c-.85,5.55-2.39,10.53-7.51,14.08-9.35,6.49-18.35,13.49-27.47,20.3A12.76,12.76,0,0,1,123.14,373.67Z"/><path class="cls-30" d="M141.6,245a20,20,0,1,1,20.08-20A20,20,0,0,1,141.6,245Zm0-34.52a14.52,14.52,0,1,0,14.53,14.4A14.53,14.53,0,0,0,141.59,210.51Z"/><path class="cls-30" d="M388.19,214.91a20,20,0,1,1-20-20.06A20,20,0,0,1,388.19,214.91Zm-20,14.45a14.52,14.52,0,1,0-14.48-14.45A14.54,14.54,0,0,0,368.15,229.36Z"/><path class="cls-30" d="M232.27,242.33a13.75,13.75,0,1,1-13.55-13.88A13.71,13.71,0,0,1,232.27,242.33Zm-5.57.14a8.19,8.19,0,1,0-8.59,7.95A8.24,8.24,0,0,0,226.7,242.47Z"/><path class="cls-30" d="M221.22,285.82c-1.59,0-3.18.05-4.77,0a2.71,2.71,0,0,1-2.92-2.8,2.76,2.76,0,0,1,3-2.78c2.14-.08,4.28-.12,6.42,0,1.2,0,1.77-.38,1.93-1.55a9.82,9.82,0,0,1,.56-2.21,2.65,2.65,0,0,1,3.28-1.83,2.57,2.57,0,0,1,2.16,3.07,38.63,38.63,0,0,1-1.39,5.61,3.45,3.45,0,0,1-3.47,2.47c-1.59.05-3.18,0-4.76,0Z"/><path class="cls-30" d="M373.09,110.19a2.94,2.94,0,0,1-.36,1.18,25.52,25.52,0,0,1-5.25,5.18,2.74,2.74,0,0,1-3.71-3.58,18.4,18.4,0,0,1,5.32-5.37C370.76,106.51,373,108,373.09,110.19Z"/><path class="cls-30" d="M318.91,164.21a3,3,0,0,1-.9,2.11c-1.26,1.28-2.5,2.56-3.8,3.79a2.71,2.71,0,0,1-4,.13,2.77,2.77,0,0,1,0-4.05c1.26-1.36,2.59-2.66,3.94-3.94a2.83,2.83,0,0,1,4.77,2Z"/><path class="cls-30" d="M379.42,141.94a22.75,22.75,0,0,1-3.09,0,2.56,2.56,0,0,1-2.41-2.83,2.53,2.53,0,0,1,2.58-2.68c2-.1,4-.09,6,0A2.56,2.56,0,0,1,385.1,139a2.6,2.6,0,0,1-2.58,2.89,29.13,29.13,0,0,1-3.1,0Z"/><path class="cls-30" d="M338.41,100.84a26.53,26.53,0,0,1,0-3.09,2.55,2.55,0,0,1,2.77-2.47,2.5,2.5,0,0,1,2.74,2.5,51,51,0,0,1,0,6.18,2.52,2.52,0,0,1-2.76,2.49,2.59,2.59,0,0,1-2.75-2.52A29,29,0,0,1,338.41,100.84Z"/><path class="cls-30" d="M302.79,142c-1,0-1.93.08-2.89,0a2.59,2.59,0,0,1-2.6-2.87,2.53,2.53,0,0,1,2.58-2.67c2-.1,4-.09,6,0a2.56,2.56,0,0,1,2.62,2.65,2.62,2.62,0,0,1-2.6,2.89A29,29,0,0,1,302.79,142Z"/><path class="cls-30" d="M370.13,171.09a3.45,3.45,0,0,1-1.34-.5,57.21,57.21,0,0,1-4.79-4.81,2.47,2.47,0,0,1,.38-3.54,2.52,2.52,0,0,1,3.57-.19,54.83,54.83,0,0,1,4.52,4.5,2.49,2.49,0,0,1,.32,2.9A3,3,0,0,1,370.13,171.09Z"/><path class="cls-30" d="M312.3,107.3a2.28,2.28,0,0,1,1.62.64c1.44,1.39,2.89,2.76,4.22,4.24a2.79,2.79,0,0,1-4,3.88c-1.42-1.3-2.76-2.68-4.08-4.07a2.66,2.66,0,0,1-.48-3.07A2.73,2.73,0,0,1,312.3,107.3Z"/><path class="cls-30" d="M341.21,195.7a11.54,11.54,0,0,1-1.86,0,2.64,2.64,0,0,1-2.43-2.85,2.57,2.57,0,0,1,2.41-2.66,18.86,18.86,0,0,1,3.1,0c1.94.07,3.17,1.21,3,2.89a2.72,2.72,0,0,1-3,2.72c-.42,0-.83,0-1.25,0Z"/><path class="cls-30" d="M333.08,138.37a2.56,2.56,0,0,1,2.05.83c1.33,1.51,2.2.79,3.26-.39,2.13-2.37,3.54-2.4,5.61,0,1.19,1.38,2,1.52,3.44.3a2.71,2.71,0,0,1,4.17.4,2.74,2.74,0,0,1-.73,4c-.7.56-1.42,1.09-2.14,1.63-3.45,2.59-3.63,2.61-6.71-.3-.66-.61-1-.62-1.63,0-3.11,2.91-3.26,2.9-6.72.3a27.15,27.15,0,0,1-2.6-2,2.54,2.54,0,0,1-.6-3A2.67,2.67,0,0,1,333.08,138.37Z"/></svg>