<svg id="Layer_1" data-name="Layer 1" xmlns="http://www.w3.org/2000/svg" xmlns:xlink="http://www.w3.org/1999/xlink" viewBox="0 0 543 490"><defs><style>.cls-1{fill:url(#linear-gradient);}.cls-2{fill:#2a2a8c;}.cls-3{fill:url(#linear-gradient-2);}.cls-4{opacity:0.9;fill:url(#linear-gradient-3);}.cls-5{fill:url(#linear-gradient-4);}.cls-6{fill:url(#linear-gradient-5);}.cls-7{fill:url(#linear-gradient-6);}.cls-8{fill:url(#linear-gradient-7);}.cls-9{fill:url(#linear-gradient-8);}.cls-10{fill:url(#linear-gradient-9);}.cls-11{fill:url(#linear-gradient-10);}.cls-12,.cls-13,.cls-14,.cls-15,.cls-18,.cls-19,.cls-20,.cls-21,.cls-22,.cls-23,.cls-28,.cls-29{fill-opacity:0.2;}.cls-12{fill:url(#linear-gradient-11);}.cls-13{fill:url(#linear-gradient-12);}.cls-14{fill:url(#linear-gradient-13);}.cls-15{fill:url(#linear-gradient-14);}.cls-16{fill:url(#linear-gradient-15);}.cls-17{fill:url(#linear-gradient-16);}.cls-18{fill:url(#linear-gradient-17);}.cls-19{fill:url(#linear-gradient-18);}.cls-20{fill:url(#linear-gradient-19);}.cls-21{fill:url(#linear-gradient-20);}.cls-22{fill:url(#linear-gradient-21);}.cls-23{fill:url(#linear-gradient-22);}.cls-24{fill:url(#linear-gradient-23);}.cls-25{fill:url(#linear-gradient-24);}.cls-26{fill:url(#linear-gradient-25);}.cls-27{fill:url(#linear-gradient-26);}.cls-28{fill:url(#linear-gradient-27);}.cls-29{fill:url(#linear-gradient-28);}.cls-30,.cls-31{fill:none;stroke:#39ffff;stroke-miterlimit:10;}.cls-30{stroke-width:0.5px;}.cls-31{stroke-width:2px;}</style><linearGradient id="linear-gradient" x1="0.21" y1="137.11" x2="100.9" y2="137.11" gradientUnits="userSpaceOnUse"><stop offset="0.04" stop-color="#3a3adb"/><stop offset="0.99" stop-color="#2a2a8c"/></linearGradient><linearGradient id="linear-gradient-2" x1="50.45" y1="221.61" x2="542.33" y2="221.61" gradientUnits="userSpaceOnUse"><stop offset="0.04" stop-color="#3a3adb"/><stop offset="0.77" stop-color="#2a2a8c"/></linearGradient><linearGradient id="linear-gradient-3" x1="0.16" y1="279.25" x2="446.97" y2="279.25" gradientUnits="userSpaceOnUse"><stop offset="0.04" stop-color="#3a3adb"/><stop offset="0.99" stop-color="#2a47c9"/></linearGradient><linearGradient id="linear-gradient-4" x1="340.93" y1="347.57" x2="474.87" y2="347.57" xlink:href="#linear-gradient"/><linearGradient id="linear-gradient-5" x1="71.3" y1="42.35" x2="73.9" y2="42.35" xlink:href="#linear-gradient"/><linearGradient id="linear-gradient-6" x1="71.3" y1="21.65" x2="73.9" y2="21.65" xlink:href="#linear-gradient"/><linearGradient id="linear-gradient-7" x1="77.5" y1="37.3" x2="87.4" y2="37.3" xlink:href="#linear-gradient"/><linearGradient id="linear-gradient-8" x1="57.8" y1="26.5" x2="67.7" y2="26.5" xlink:href="#linear-gradient"/><linearGradient id="linear-gradient-9" x1="57.7" y1="37.3" x2="67.6" y2="37.3" xlink:href="#linear-gradient"/><linearGradient id="linear-gradient-10" x1="77.5" y1="26.5" x2="87.4" y2="26.5" xlink:href="#linear-gradient"/><linearGradient id="linear-gradient-11" x1="208.8" y1="73.75" x2="211.41" y2="73.75" xlink:href="#linear-gradient"/><linearGradient id="linear-gradient-12" x1="208.8" y1="53.05" x2="211.41" y2="53.05" xlink:href="#linear-gradient"/><linearGradient id="linear-gradient-13" x1="193.5" y1="63.4" x2="204.21" y2="63.4" xlink:href="#linear-gradient"/><linearGradient id="linear-gradient-14" x1="216" y1="63.4" x2="226.71" y2="63.4" xlink:href="#linear-gradient"/><linearGradient id="linear-gradient-15" x1="55.91" y1="421.27" x2="90.05" y2="421.27" xlink:href="#linear-gradient"/><linearGradient id="linear-gradient-16" x1="56.05" y1="400.53" x2="90.14" y2="400.53" xlink:href="#linear-gradient"/><linearGradient id="linear-gradient-17" x1="345.5" y1="278.75" x2="348.1" y2="278.75" xlink:href="#linear-gradient-3"/><linearGradient id="linear-gradient-18" x1="345.5" y1="258.05" x2="348.1" y2="258.05" xlink:href="#linear-gradient-3"/><linearGradient id="linear-gradient-19" x1="351.8" y1="273.8" x2="361.7" y2="273.8" xlink:href="#linear-gradient-3"/><linearGradient id="linear-gradient-20" x1="332" y1="263" x2="341.9" y2="263" xlink:href="#linear-gradient-3"/><linearGradient id="linear-gradient-21" x1="331.9" y1="273.8" x2="341.8" y2="273.8" xlink:href="#linear-gradient-3"/><linearGradient id="linear-gradient-22" x1="351.7" y1="263" x2="361.6" y2="263" xlink:href="#linear-gradient-3"/><linearGradient id="linear-gradient-23" x1="474.1" y1="410.95" x2="476.7" y2="410.95" xlink:href="#linear-gradient"/><linearGradient id="linear-gradient-24" x1="474.1" y1="390.25" x2="476.7" y2="390.25" xlink:href="#linear-gradient"/><linearGradient id="linear-gradient-25" x1="458.8" y1="400.6" x2="469.5" y2="400.6" xlink:href="#linear-gradient"/><linearGradient id="linear-gradient-26" x1="481.2" y1="400.6" x2="491.91" y2="400.6" xlink:href="#linear-gradient"/><linearGradient id="linear-gradient-27" x1="480.31" y1="231.57" x2="514.45" y2="231.57" gradientUnits="userSpaceOnUse"><stop offset="0.04" stop-color="#3a3adb"/><stop offset="0.99" stop-color="#2a4b8c"/></linearGradient><linearGradient id="linear-gradient-28" x1="480.35" y1="210.83" x2="514.49" y2="210.83" xlink:href="#linear-gradient-27"/></defs><path class="cls-1" d="M89.5,126.5C79,109.2,68,97.8,50.6,89.7s-39.1-8.2-48,11.2,8.6,43.5,33.2,44.9c28.3,1.5,43.4,14.6,45,34,1,12.1,14.5,12.5,17.3,4.6C103.3,170,101.7,146.7,89.5,126.5Z"/><path class="cls-2" d="M311.5,26.9C194.9-92.8,68.2,219.8,35.7,320.8S140.6,438.1,233,456.2c147.6,28.8,215.2-27,226.7-94.2S428.1,146.7,311.5,26.9Z"/><path class="cls-3" d="M386.9,175.8C325,186.6,282.7,128,254.2,91.9c-22.4-28.4-116.5-75.1-175,8.7-53,76-31.1,189.1,52.3,246.4S342,399,420.9,363.5c49.9-22.4,112.9-64.1,120.7-123.3C550.2,175.4,481.9,159.3,386.9,175.8Z"/><path class="cls-4" d="M397.7,68.5c-2.5-.1-5-.1-7.6-.1-41.1,0-92.8,10.3-129.7,22.4L255,92.6c1.1,1.4,2.3,2.9,3.5,4.4,1.3-.4,2.5-.8,3.8-1.3,41-13.5,91.2-22.1,127.9-22.1,2.5,0,5,0,7.4.1,17.3.6,30.3,6.3,37.5,16.5,8.6,12.2,8.6,30.8-.1,52.2-3.9,9.7-7.2,18.9-9.9,28-11,36.6-13.6,72.1-14.2,134.2-.1,14.2,0,27.3.1,40,.1,8,.1,15.5.1,22.8,0,44.1-2.7,74.5-23,94.1-15.8,15.2-34.3,23.3-53.6,23.3-21.2,0-42.9-9.5-64.3-28.3C222.8,415,164,386,104.6,374.7c-45.6-8.7-81.4-17-93.8-36.9-6.7-10.9-6.7-25.6,0-45,6.3-18.1,18.4-43.1,41.9-70.5-.4-2.4-.7-4.8-1-7.1-23.6,26.5-38.1,52.7-46.2,76-21.7,62.6,25.1,74.8,97.9,88.7,58.6,11.2,115.8,39.3,162.8,80.5,24,21,47.1,29.7,68.1,29.7,22.1,0,41.8-9.7,57.6-24.9,22.1-21.4,24.6-53.8,24.6-100.1,0-18-.4-38.1-.2-60.4.6-64.3,3.4-98.8,14.5-134.7,2.6-8.3,5.7-16.8,9.2-25.6C458.1,99.7,439.9,69.9,397.7,68.5Z"/><path class="cls-5" d="M459.8,308.7c-35.5-38.4-76.5-14-105.7,29.4-27.1,40.3-10.6,87.6,33.3,58.4,38.3-25.4,61.6-18,78.7-35.1C489,338.7,459.8,308.7,459.8,308.7Z"/><path class="cls-6" d="M72.6,47.7a1.32,1.32,0,0,1-1.3-1.3V38.3a1.3,1.3,0,1,1,2.6,0v8.1A1.4,1.4,0,0,1,72.6,47.7Z"/><path class="cls-7" d="M72.6,27a1.32,1.32,0,0,1-1.3-1.3V17.6a1.3,1.3,0,1,1,2.6,0v8.1A1.32,1.32,0,0,1,72.6,27Z"/><path class="cls-8" d="M85.3,40.3l-7.1-3.8a1.13,1.13,0,0,1-.5-1.7,1.54,1.54,0,0,1,1.9-.5l7.1,3.8a1.13,1.13,0,0,1,.5,1.7A1.54,1.54,0,0,1,85.3,40.3Z"/><path class="cls-9" d="M65.6,29.5l-7.1-3.8A1.13,1.13,0,0,1,58,24a1.54,1.54,0,0,1,1.9-.5L67,27.3a1.13,1.13,0,0,1,.5,1.7A1.57,1.57,0,0,1,65.6,29.5Z"/><path class="cls-10" d="M57.9,39.8a1.13,1.13,0,0,1,.5-1.7l7.1-3.8a1.54,1.54,0,0,1,1.9.5,1.13,1.13,0,0,1-.5,1.7l-7.1,3.8A1.54,1.54,0,0,1,57.9,39.8Z"/><path class="cls-11" d="M77.7,29a1.13,1.13,0,0,1,.5-1.7l7.1-3.8a1.54,1.54,0,0,1,1.9.5,1.13,1.13,0,0,1-.5,1.7l-7.1,3.8A1.54,1.54,0,0,1,77.7,29Z"/><path class="cls-12" d="M210.1,79.1a1.32,1.32,0,0,1-1.3-1.3V69.7a1.3,1.3,0,0,1,2.6,0v8.1A1.21,1.21,0,0,1,210.1,79.1Z"/><path class="cls-13" d="M210.1,58.4a1.32,1.32,0,0,1-1.3-1.3V49a1.3,1.3,0,0,1,2.6,0v8.1A1.21,1.21,0,0,1,210.1,58.4Z"/><path class="cls-14" d="M202.9,64.7h-8.1a1.3,1.3,0,0,1,0-2.6h8.1a1.32,1.32,0,0,1,1.3,1.3A1.21,1.21,0,0,1,202.9,64.7Z"/><path class="cls-15" d="M225.4,64.7h-8.1a1.3,1.3,0,0,1,0-2.6h8.1a1.32,1.32,0,0,1,1.3,1.3A1.21,1.21,0,0,1,225.4,64.7Z"/><path class="cls-16" d="M73,428a17.92,17.92,0,0,1-17-11.7,1.27,1.27,0,0,1,1-1.7,1.31,1.31,0,0,1,1.6.8,15.42,15.42,0,0,0,28.8,0,1.38,1.38,0,0,1,2.6.9A18.06,18.06,0,0,1,73,428Z"/><path class="cls-17" d="M89.1,407.2a1.31,1.31,0,0,1-1.6-.8,15.42,15.42,0,0,0-28.8,0,1.38,1.38,0,0,1-2.6-.9,18.2,18.2,0,0,1,34,0A1.45,1.45,0,0,1,89.1,407.2Z"/><path class="cls-18" d="M346.8,284.1a1.32,1.32,0,0,1-1.3-1.3v-8.1a1.3,1.3,0,0,1,2.6,0v8.1A1.32,1.32,0,0,1,346.8,284.1Z"/><path class="cls-19" d="M346.8,263.4a1.32,1.32,0,0,1-1.3-1.3V254a1.3,1.3,0,0,1,2.6,0v8.1A1.32,1.32,0,0,1,346.8,263.4Z"/><path class="cls-20" d="M359.6,276.8l-7.1-3.8a1.13,1.13,0,0,1-.5-1.7,1.54,1.54,0,0,1,1.9-.5l7.1,3.8a1.13,1.13,0,0,1,.5,1.7A1.57,1.57,0,0,1,359.6,276.8Z"/><path class="cls-21" d="M339.8,266l-7.1-3.8a1.13,1.13,0,0,1-.5-1.7,1.54,1.54,0,0,1,1.9-.5l7.1,3.8a1.13,1.13,0,0,1,.5,1.7A1.57,1.57,0,0,1,339.8,266Z"/><path class="cls-22" d="M332.1,276.3a1.13,1.13,0,0,1,.5-1.7l7.1-3.8a1.54,1.54,0,0,1,1.9.5,1.13,1.13,0,0,1-.5,1.7l-7.1,3.8A1.57,1.57,0,0,1,332.1,276.3Z"/><path class="cls-23" d="M351.9,265.5a1.13,1.13,0,0,1,.5-1.7l7.1-3.8a1.54,1.54,0,0,1,1.9.5,1.13,1.13,0,0,1-.5,1.7l-7.1,3.8A1.54,1.54,0,0,1,351.9,265.5Z"/><path class="cls-24" d="M475.4,416.3a1.32,1.32,0,0,1-1.3-1.3v-8.1a1.3,1.3,0,0,1,2.6,0V415A1.32,1.32,0,0,1,475.4,416.3Z"/><path class="cls-25" d="M475.4,395.6a1.32,1.32,0,0,1-1.3-1.3v-8.1a1.3,1.3,0,0,1,2.6,0v8.1A1.32,1.32,0,0,1,475.4,395.6Z"/><path class="cls-26" d="M468.2,401.9h-8.1a1.3,1.3,0,0,1,0-2.6h8.1a1.3,1.3,0,1,1,0,2.6Z"/><path class="cls-27" d="M490.6,401.9h-8.1a1.3,1.3,0,0,1,0-2.6h8.1a1.32,1.32,0,0,1,1.3,1.3A1.21,1.21,0,0,1,490.6,401.9Z"/><path class="cls-28" d="M497.4,238.3a17.92,17.92,0,0,1-17-11.7,1.27,1.27,0,0,1,1-1.7,1.31,1.31,0,0,1,1.6.8,15.42,15.42,0,0,0,28.8,0,1.38,1.38,0,0,1,2.6.9A18.06,18.06,0,0,1,497.4,238.3Z"/><path class="cls-29" d="M513.4,217.5a1.31,1.31,0,0,1-1.6-.8,15.42,15.42,0,0,0-28.8,0,1.38,1.38,0,0,1-2.6-.9,18.2,18.2,0,0,1,34,0A1.3,1.3,0,0,1,513.4,217.5Z"/><path class="cls-30" d="M271.53,241.73h6.7a3.67,3.67,0,0,1,3.88,3.79c0,4.52,0,9,0,13.56a3.64,3.64,0,0,1-3.89,3.83c-4.55.06-9.1,0-13.65,0a3.65,3.65,0,0,1-3.68-3.63c0-4.64,0-9.28,0-13.92a3.65,3.65,0,0,1,3.76-3.63c1.15,0,2.29,0,3.44,0Zm0,1.61h-6.61a2.15,2.15,0,0,0-2.41,2.3q0,6.66,0,13.32a2.15,2.15,0,0,0,2.35,2.36h13.23a2.16,2.16,0,0,0,2.4-2.41q0-6.62,0-13.22a2.13,2.13,0,0,0-2.42-2.36Z"/><path class="cls-30" d="M293.54,268.63a2.42,2.42,0,0,1-1.66,2.35,2.3,2.3,0,0,1-2.72-.9,1.23,1.23,0,0,0-1.28-.63c-2.47,0-4.93,0-7.4,0a1.71,1.71,0,0,1-1.39-.56c-1.25-1.29-2.53-2.55-3.8-3.81-.43-.42-.8-.87-.24-1.41s1-.14,1.42.29c1.11,1.12,2.25,2.23,3.35,3.37a1.53,1.53,0,0,0,1.22.51q3.48,0,7,0a1.1,1.1,0,0,0,1.12-.58,2.35,2.35,0,0,1,2.71-1A2.44,2.44,0,0,1,293.54,268.63Zm-1.61,0c-.07-.47-.32-.79-.8-.79a.75.75,0,0,0-.82.84.74.74,0,0,0,.87.77A.78.78,0,0,0,291.93,268.64Z"/><path class="cls-30" d="M284.27,235.19c1.32,0,2.64,0,4,0a.76.76,0,0,0,.77-.41,2.4,2.4,0,0,1,2.88-1.12,2.46,2.46,0,0,1-.05,4.67,2.4,2.4,0,0,1-2.81-1.11.81.81,0,0,0-.84-.43q-3.66,0-7.32,0a1.16,1.16,0,0,0-.91.4l-3.55,3.56c-.41.41-.85.72-1.36.23s-.24-.95.19-1.37l4-4a1.37,1.37,0,0,1,1.09-.44C281.62,235.21,283,235.2,284.27,235.19Zm7.67.77c-.08-.41-.29-.75-.79-.76a.74.74,0,0,0-.84.8.73.73,0,0,0,.75.8C291.6,236.83,291.86,236.5,291.94,236Z"/><path class="cls-30" d="M256.62,263.65a12.57,12.57,0,0,1,.76-4.12c.19-.54.54-.89,1.13-.67s.6.69.41,1.23a8.86,8.86,0,0,0-.55,4.75,4.28,4.28,0,0,0,4.42,3.51,3.83,3.83,0,0,0,3.8-3.76c.07-.59.13-1.2.9-1.12s.79.73.73,1.34a5.45,5.45,0,0,1-5.11,5.14,5.9,5.9,0,0,1-6.3-4.63A6.57,6.57,0,0,1,256.62,263.65Z"/><path class="cls-30" d="M255,264.88a4.94,4.94,0,0,1-4-7.68,9.24,9.24,0,0,1,2.38-2.45c.77-.58,1.56-1.15,2.3-1.76a4.36,4.36,0,0,0,1.84-3.36c0-.55.27-.92.86-.88s.8.5.77,1.06A5.72,5.72,0,0,1,256.9,254c-1,.83-2,1.59-3,2.39a6,6,0,0,0-1.77,2,3.27,3.27,0,0,0,2.52,4.79,3,3,0,0,0,.52.07c.57,0,1,.22,1,.86S255.53,264.94,255,264.88Z"/><path class="cls-30" d="M293.54,258.87a2.36,2.36,0,0,1-1.7,2.31,2.26,2.26,0,0,1-2.65-.85,1.12,1.12,0,0,0-1.27-.64,3.84,3.84,0,0,1-4-1.66,10.37,10.37,0,0,0-1-1,.75.75,0,0,1,0-1.16.77.77,0,0,1,1.17,0c.58.55,1.12,1.12,1.69,1.68a2.68,2.68,0,0,0,3.44-.21,2.44,2.44,0,0,1,4.36,1.51Zm-1.61,0a.79.79,0,0,0-.84-.81.81.81,0,0,0,0,1.62C291.58,259.69,291.87,259.37,291.93,258.86Z"/><path class="cls-30" d="M293.54,245.75a2.42,2.42,0,0,1-1.65,2.36,2.32,2.32,0,0,1-2.73-.88,1.39,1.39,0,0,0-1.19-.65,3.09,3.09,0,0,0-3,1.29,6.24,6.24,0,0,1-1,1,.75.75,0,0,1-1.05,0,.72.72,0,0,1-.07-1.1c.83-.87,1.69-1.71,2.55-2.55a1.13,1.13,0,0,1,.84-.21c.62,0,1.23,0,1.85,0a1,1,0,0,0,1.05-.55,2.3,2.3,0,0,1,2.7-1A2.39,2.39,0,0,1,293.54,245.75Zm-1.61,0a.8.8,0,0,0-.85-.78.81.81,0,0,0,.06,1.62C291.6,246.59,291.88,246.29,291.93,245.76Z"/><path class="cls-30" d="M285.91,251.52c.44,0,.88,0,1.32,0a2.09,2.09,0,0,0,2.16-.86,2.31,2.31,0,0,1,3.5,0,2.46,2.46,0,0,1-.2,3.54,2.35,2.35,0,0,1-3.49-.39,1.38,1.38,0,0,0-1.37-.66c-1.37,0-2.76,0-4.13,0-.58,0-1.05-.17-1.07-.78s.47-.87,1.08-.86,1.47,0,2.2,0Zm6,.83a.79.79,0,0,0-.77-.83.81.81,0,0,0-.1,1.62A.8.8,0,0,0,291.93,252.35Z"/><path class="cls-30" d="M270.71,237.85c0-.38,0-.77,0-1.15a2.2,2.2,0,0,0-.91-2.29,2.31,2.31,0,0,1,.08-3.5,2.44,2.44,0,0,1,3.53.29,2.37,2.37,0,0,1-.42,3.43,1.34,1.34,0,0,0-.69,1.34c0,1.38,0,2.77,0,4.15,0,.6-.15,1.09-.85,1.08s-.78-.5-.77-1.06C270.72,239.38,270.71,238.61,270.71,237.85Zm.78-5.95c-.49.1-.81.35-.78.88a.74.74,0,0,0,.79.76.76.76,0,0,0,.82-.82C272.32,232.2,272,232,271.49,231.9Z"/><path class="cls-30" d="M272.32,266.82c0,.44,0,.88,0,1.32a2,2,0,0,0,.85,2.07,2.31,2.31,0,0,1,0,3.5,2.44,2.44,0,0,1-3.54-.21A2.37,2.37,0,0,1,270,270a1.41,1.41,0,0,0,.68-1.44c0-1.38,0-2.76,0-4.14,0-.54.17-.95.76-1s.85.4.84,1v2.38Zm0,5.12c-.05-.49-.3-.8-.77-.82a.81.81,0,0,0-.1,1.62A.81.81,0,0,0,272.33,271.94Z"/><path class="cls-30" d="M258.2,239.94a6.78,6.78,0,0,1,1.87.32.78.78,0,0,1,.61,1.07.77.77,0,0,1-1.07.48,6.3,6.3,0,0,0-1.73-.26,3.33,3.33,0,0,0-3.31,4.56,6,6,0,0,0,1,1.76.76.76,0,0,1-.08,1.17.79.79,0,0,1-1.17-.14,6,6,0,0,1-1.19-6A5.05,5.05,0,0,1,258.2,239.94Z"/><path class="cls-30" d="M263.71,234.7a4.34,4.34,0,0,1,3.35,1.84,6.35,6.35,0,0,1,1.17,3.62c0,.58-.17,1-.81,1s-.78-.38-.8-.93a5.17,5.17,0,0,0-.45-2,2.93,2.93,0,0,0-4.86-1,5.91,5.91,0,0,0-1.32,1.85.76.76,0,0,1-1,.41.75.75,0,0,1-.47-1A5.71,5.71,0,0,1,263.71,234.7Z"/><path class="cls-30" d="M249.46,251.6a5.5,5.5,0,0,1,2-4.18c.42-.38.88-.54,1.3,0s.2.84-.18,1.23c-1.77,1.8-1.94,3.34-.59,5.41.3.46.37.89-.09,1.24a.82.82,0,0,1-1.22-.25A5.5,5.5,0,0,1,249.46,251.6Z"/><path class="cls-30" d="M273.13,258a.78.78,0,0,1-.69.85.76.76,0,0,1-.91-.64c-.16-.65-.32-1.31-.42-2-.07-.46-.25-.65-.74-.63-.88,0-1.77,0-2.65,0-.42,0-.64.11-.7.56-.1.64-.25,1.27-.39,1.9s-.4.9-1,.78-.74-.57-.61-1.15c.75-3.47,1.47-7,2.23-10.42a1.82,1.82,0,0,1,3.55-.07c.78,3.53,1.52,7.06,2.27,10.59C273.1,257.84,273.12,257.9,273.13,258Zm-3.93-10.57-.29,0c-.32,1.45-.65,2.9-1,4.35-.15.68-.59,1.63-.31,2s1.36.1,2.08.18,1-.06.71-.83a9.45,9.45,0,0,1-.25-1.2Z"/><path class="cls-30" d="M276.19,258.85c-.21,0-.42,0-.62,0-.52,0-1-.08-1.09-.64a.74.74,0,0,1,.67-.95c.35-.07.29-.32.29-.54v-8.8c0-.28,0-.48-.38-.55a.71.71,0,0,1-.58-.93.83.83,0,0,1,.93-.64h1.67c.46,0,.82.16.91.64a.7.7,0,0,1-.57.93c-.39.07-.36.3-.36.57v8.79c0,.28,0,.48.38.56a.71.71,0,0,1,.55.94.8.8,0,0,1-.92.63Z"/><path class="cls-31" d="M209.13,248.61,211,245H197.68c-3.69,0-7.39-.06-11.08,0-1.45,0-1.93-.35-1.9-1.86.09-4.67,0-9.35.06-14,0-1.7-.32-2.35-2.19-2.28-3.91.16-7.84.08-11.75,0-6.8-.07-11.4-4.58-11.41-11.35q-.06-35.73,0-71.44c0-6.63,4.63-11.23,11.27-11.25q17.63-.09,35.27,0c6.76,0,11.34,4.62,11.35,11.41q0,35.59,0,71.21c0,6.89-4.61,11.38-11.56,11.43-4,0-8,.06-12,0-1.33,0-1.88.27-1.82,1.73.12,2.56.09,5.13,0,7.69,0,1.22.42,1.52,1.56,1.51,8.07,0,16.18.52,24.17-.25,3.89-.38,8.22-1.45,10.55-6.23,6.1-12.54,21.58-18.34,34.88-13.5,1.76.64,2.59.29,3.66-1.16,11.9-16,36.71-15,47.28,2a26.94,26.94,0,0,1,4.47,14.44,3.06,3.06,0,0,0,2.52,3.33,17.93,17.93,0,0,1,6.88,4.11,3.34,3.34,0,0,0,2.43.92c4,0,8-.06,12,0,1.28,0,1.66-.36,1.65-1.65q-.07-16.5,0-33c0-1.37-.51-1.61-1.72-1.59-4.82,0-9.65,0-14.47,0-1.35,0-2-.17-2-1.79,0-5.4-.08-5.46,5.29-5.42,1.56,0,2.05-.36,2-2,0-5.3,0-5.3-5.23-5.3-2,0-3.92.05-5.88,0a10.69,10.69,0,0,1-10.59-10.52q-.19-18.44,0-36.85a10.51,10.51,0,0,1,10.41-10.44q25.77-.16,51.55,0a10.46,10.46,0,0,1,10.29,10.31q.21,18.53,0,37.07a10.64,10.64,0,0,1-10.46,10.41c-3.09.12-6.18.09-9.27,0-1.38,0-2,.23-2,1.81,0,5.4-.08,5.46,5.3,5.42,1.56,0,2,.38,2,2,0,5.28,0,5.28-5.25,5.28-3.54,0-7.09.12-10.63,0-2-.1-2.31.59-2.3,2.4.08,12.88,0,25.77.08,38.66,0,2-.56,2.51-2.5,2.43-4-.15-8,0-12,0-2.67,0-2.67,0-1.73,2.56-.71,1-1.77.47-2.67.62-1.42.23-3-.55-4.26.55-3.31-6.56-8.58-10.31-15.93-11-1.33-.13-1.52-.65-1.33-1.91a29.61,29.61,0,0,0,.28-8.31c-1.45-11.5-12.87-20.25-24.31-18.43-8.24,1.31-14,5.91-17.32,13.48-.72,1.61-1.16,2.77-3.24,1.26a21.86,21.86,0,0,0-27.34,1.41,21.14,21.14,0,0,0-6.49,10.91c-.24,1-.58,1.54-1.75,1.65a18.83,18.83,0,0,0-13.74,7.68C214.33,248.25,211.71,248.76,209.13,248.61ZM347.48,169c9,0,18.08,0,27.11,0,1.44,0,1.93-.33,1.91-1.85-.08-7.53,0-15.07-.05-22.6,0-3.19-1.34-4.49-4.58-4.5H323.29c-3.38,0-4.67,1.29-4.69,4.63,0,7.45,0,14.91-.05,22.36,0,1.65.51,2,2,2C329.55,169,338.52,169,347.48,169Zm-159-14.46c-6.63,0-13.25.05-19.88,0-1.5,0-2.07.27-2.06,1.94q.12,16.16,0,32.3c0,1.59.42,2,2,2q19.77-.11,39.54,0c1.38,0,2-.23,2-1.82q-.12-16.26,0-32.53c0-1.47-.39-1.9-1.87-1.88C201.64,154.61,195.08,154.56,188.53,154.56Zm0,43.4c-6.63,0-13.26,0-19.9,0-1.47,0-2.12.22-2.08,1.92.11,5.12,0,10.25,0,15.37,0,3.08,1.36,4.45,4.41,4.45q17.29,0,34.6,0c3.05,0,4.39-1.37,4.41-4.44,0-5.13-.07-10.25.05-15.37,0-1.7-.61-1.94-2.09-1.93C201.52,198,195,198,188.56,198Zm159-21.7c-9,0-17.93,0-26.9,0-1.46,0-2.12.2-2.09,1.91.08,4.19,1.13,5.35,5.38,5.35h47.46c3.93,0,5-1.21,5.13-5.13.05-1.66-.36-2.16-2.09-2.14C365.46,176.31,356.49,176.26,347.53,176.26Zm-159.27-29c6.7,0,13.39,0,20.09,0,1.19,0,1.7-.21,1.72-1.58.07-4.38-1.1-5.65-5.51-5.65H171.84c-4.18,0-5.17,1.1-5.25,5.29,0,1.64.52,2,2,2C175.17,147.26,181.72,147.3,188.26,147.3ZM347.62,198h1.8c5.67,0,5.63,0,5.38-5.8-.05-1.25-.51-1.48-1.61-1.46-2.55.06-5.11,0-7.67,0-5.28,0-5.23,0-5.26,5.23,0,1.52.29,2.18,1.95,2S345.82,198,347.62,198Z"/><path class="cls-31" d="M328,252.33c1.3-1.1,2.84-.32,4.26-.55.9-.15,2,.36,2.67-.62a4.88,4.88,0,0,1,.69,1.63c0,2.69,1.43,3.2,3.87,3.12,5.5-.18,11,0,16.51-.1,1.84,0,2.41.39,2.39,2.32-.1,10.48,0,21-.09,31.43,0,1.89.31,2.58,2.42,2.53,6.93-.16,13.86,0,20.8-.09,1.58,0,2.2.23,2.2,2.05q-.11,30.51,0,61c0,1.73-.49,2.11-2.15,2.1q-26.89-.09-53.81,0c-1.57,0-2-.39-2-2q.09-30.52,0-61.05c0-1.63.32-2.19,2.08-2.16,7,.11,14,0,21,.08,1.68,0,2.33-.29,2.3-2.18q-.17-12.31,0-24.64c0-1.85-.56-2.27-2.28-2.2-3.54.12-7.09.13-10.62,0-1.53-.06-2.07.5-2.39,1.9-1.87,8.27-6.8,14.1-14.45,17.65a25.23,25.23,0,0,1-10.76,2.19q-39.34,0-78.69,0a25.26,25.26,0,0,1-25.51-23.69c-.1-1.25-.43-1.63-1.7-1.66-5.62-.13-5.62-.17-5.62,5.36V289c0,3,0,3,3.16,3h17.41c7.52,0,12,4.45,12,11.92,0,9.8,0,19.59,0,29.39,0,1.66.37,2.17,2.1,2.15,5.18-.08,5.1,0,5.21,5.27a63.32,63.32,0,0,1-.5,8.27c-.43,4-5.08,7.79-9.72,8.07-1.73.11-3.47,0-5.2,0q-26.23,0-52.46,0c-6,0-10-2.89-11.49-8.55-.76-2.84-.21-5.84-.25-8.76-.06-4.4,0-4.4,4.27-4.4,3,0,3,0,3-3V304.61c0-8.3,4.25-12.57,12.47-12.58,3.47,0,6.94-.11,10.4.05,1.93.08,2.54-.36,2.52-2.43-.12-11.61,0-23.22-.1-34.82,0-2,.34-2.78,2.53-2.65,3.45.21,6.94-.07,10.4.11,2,.11,3.29-.39,3.71-2.48a5.51,5.51,0,0,1,.58-1.2c2.58.15,5.2-.36,7.73.47-1.43,2.31-2.83,4.81-3.08,7.42-1.15,12.12,6.94,20.94,18,21,26.51.15,53,.09,79.53,0A17.22,17.22,0,0,0,325,271.17C329.76,265.51,330.44,259.16,328,252.33Zm-129,83.11c7.76,0,15.52,0,23.28,0,1.57,0,2.22-.22,2.2-2-.1-9.87,0-19.74-.05-29.61,0-3.21-1.34-4.55-4.54-4.56q-20.79,0-41.58,0c-3.19,0-4.52,1.36-4.52,4.57,0,9.87,0,19.74-.06,29.6,0,1.84.66,2.05,2.22,2C183.71,335.4,191.39,335.44,199.08,335.44ZM354.86,321c6.62,0,13.25,0,19.87,0,1.4,0,1.79-.38,1.78-1.77-.08-6-.07-12.05,0-18.07,0-1.41-.29-1.94-1.84-1.93q-19.87.09-39.75,0c-1.47,0-1.91.41-1.89,1.89.08,5.95.12,11.9,0,17.84,0,1.81.62,2.07,2.2,2.05C341.76,320.93,348.31,321,354.86,321Zm-.1,7.24c-6.55,0-13.1,0-19.65,0-1.47,0-2.12.21-2.09,1.92.1,6,.08,12,0,18.06,0,1.37.35,1.79,1.76,1.78q20-.07,40,0c1.45,0,1.75-.47,1.74-1.81-.06-6-.07-12,0-18.06,0-1.47-.38-1.92-1.88-1.9C368,328.25,361.38,328.21,354.76,328.21ZM199.17,342.68c-10.17,0-20.33,0-30.5,0-.74,0-1.83-.6-2.06,1-.64,4.17,1,6.25,5.13,6.25h54.91c3.92,0,5-1.22,5.14-5.14.05-1.68-.4-2.14-2.11-2.13C219.51,342.73,209.34,342.68,199.17,342.68Z"/><path class="cls-31" d="M188.22,212.43c-1.88,0-3.76-.07-5.63,0-1.22.06-1.48-.41-1.52-1.55-.19-5.69-.22-5.69,5.46-5.69,2.48,0,5,.07,7.43,0,1.32-.05,1.61.42,1.63,1.67.12,5.58.16,5.58-5.34,5.58Z"/><path class="cls-31" d="M362,313.74c-1.95,0-3.9,0-5.85,0-.92,0-1.46-.22-1.34-1.25,0-.14,0-.3,0-.45-.17-5.55-.17-5.55,5.36-5.55,2.47,0,4.95.06,7.43,0,1.21,0,1.68.25,1.72,1.59.15,5.67.2,5.67-5.51,5.67Z"/><path class="cls-31" d="M344.06,306.5c3.47,0,3.47,0,3.47,3.6s0,3.64-3.66,3.64-3.58,0-3.58-3.49C340.29,306.5,340.29,306.5,344.06,306.5Z"/><path class="cls-31" d="M347.46,342.68c-2,0-3.91,0-5.87,0-.95,0-1.25-.31-1.32-1.29-.47-6-.5-6,5.42-6,2.55,0,5.11,0,7.66,0,1.06,0,1.38.32,1.45,1.39.34,5.86.37,5.86-5.54,5.86Z"/><path class="cls-31" d="M369.24,339.1c0,3.58,0,3.58-4.16,3.58-3.08,0-3.08,0-3.08-4.44,0-2.8,0-2.8,4.5-2.8C369.24,335.44,369.24,335.44,369.24,339.1Z"/></svg>