<svg id="Layer_1" data-name="Layer 1" xmlns="http://www.w3.org/2000/svg" xmlns:xlink="http://www.w3.org/1999/xlink" viewBox="0 0 543 490"><defs><style>.cls-1{fill:url(#linear-gradient);}.cls-2{fill:#2a2a8c;}.cls-3{fill:url(#linear-gradient-2);}.cls-4{opacity:0.9;fill:url(#linear-gradient-3);}.cls-5{fill:url(#linear-gradient-4);}.cls-6{fill:url(#linear-gradient-5);}.cls-7{fill:url(#linear-gradient-6);}.cls-8{fill:url(#linear-gradient-7);}.cls-9{fill:url(#linear-gradient-8);}.cls-10{fill:url(#linear-gradient-9);}.cls-11{fill:url(#linear-gradient-10);}.cls-12,.cls-13,.cls-14,.cls-15,.cls-18,.cls-19,.cls-20,.cls-21,.cls-22,.cls-23,.cls-28,.cls-29{fill-opacity:0.2;}.cls-12{fill:url(#linear-gradient-11);}.cls-13{fill:url(#linear-gradient-12);}.cls-14{fill:url(#linear-gradient-13);}.cls-15{fill:url(#linear-gradient-14);}.cls-16{fill:url(#linear-gradient-15);}.cls-17{fill:url(#linear-gradient-16);}.cls-18{fill:url(#linear-gradient-17);}.cls-19{fill:url(#linear-gradient-18);}.cls-20{fill:url(#linear-gradient-19);}.cls-21{fill:url(#linear-gradient-20);}.cls-22{fill:url(#linear-gradient-21);}.cls-23{fill:url(#linear-gradient-22);}.cls-24{fill:url(#linear-gradient-23);}.cls-25{fill:url(#linear-gradient-24);}.cls-26{fill:url(#linear-gradient-25);}.cls-27{fill:url(#linear-gradient-26);}.cls-28{fill:url(#linear-gradient-27);}.cls-29{fill:url(#linear-gradient-28);}.cls-30{fill:none;stroke:#39ffff;stroke-miterlimit:10;stroke-width:2px;}</style><linearGradient id="linear-gradient" x1="0.21" y1="137.11" x2="100.9" y2="137.11" gradientUnits="userSpaceOnUse"><stop offset="0.04" stop-color="#3a3adb"/><stop offset="0.99" stop-color="#2a2a8c"/></linearGradient><linearGradient id="linear-gradient-2" x1="50.45" y1="221.61" x2="542.33" y2="221.61" gradientUnits="userSpaceOnUse"><stop offset="0.04" stop-color="#3a3adb"/><stop offset="0.77" stop-color="#2a2a8c"/></linearGradient><linearGradient id="linear-gradient-3" x1="0.16" y1="279.25" x2="446.97" y2="279.25" gradientUnits="userSpaceOnUse"><stop offset="0.04" stop-color="#3a3adb"/><stop offset="0.99" stop-color="#2a47c9"/></linearGradient><linearGradient id="linear-gradient-4" x1="340.93" y1="347.57" x2="474.87" y2="347.57" xlink:href="#linear-gradient"/><linearGradient id="linear-gradient-5" x1="71.3" y1="42.35" x2="73.9" y2="42.35" xlink:href="#linear-gradient"/><linearGradient id="linear-gradient-6" x1="71.3" y1="21.65" x2="73.9" y2="21.65" xlink:href="#linear-gradient"/><linearGradient id="linear-gradient-7" x1="77.5" y1="37.3" x2="87.4" y2="37.3" xlink:href="#linear-gradient"/><linearGradient id="linear-gradient-8" x1="57.8" y1="26.5" x2="67.7" y2="26.5" xlink:href="#linear-gradient"/><linearGradient id="linear-gradient-9" x1="57.7" y1="37.3" x2="67.6" y2="37.3" xlink:href="#linear-gradient"/><linearGradient id="linear-gradient-10" x1="77.5" y1="26.5" x2="87.4" y2="26.5" xlink:href="#linear-gradient"/><linearGradient id="linear-gradient-11" x1="208.8" y1="73.75" x2="211.41" y2="73.75" xlink:href="#linear-gradient"/><linearGradient id="linear-gradient-12" x1="208.8" y1="53.05" x2="211.41" y2="53.05" xlink:href="#linear-gradient"/><linearGradient id="linear-gradient-13" x1="193.5" y1="63.4" x2="204.21" y2="63.4" xlink:href="#linear-gradient"/><linearGradient id="linear-gradient-14" x1="216" y1="63.4" x2="226.71" y2="63.4" xlink:href="#linear-gradient"/><linearGradient id="linear-gradient-15" x1="55.91" y1="421.27" x2="90.05" y2="421.27" xlink:href="#linear-gradient"/><linearGradient id="linear-gradient-16" x1="56.05" y1="400.53" x2="90.14" y2="400.53" xlink:href="#linear-gradient"/><linearGradient id="linear-gradient-17" x1="345.5" y1="278.75" x2="348.1" y2="278.75" xlink:href="#linear-gradient-3"/><linearGradient id="linear-gradient-18" x1="345.5" y1="258.05" x2="348.1" y2="258.05" xlink:href="#linear-gradient-3"/><linearGradient id="linear-gradient-19" x1="351.8" y1="273.8" x2="361.7" y2="273.8" xlink:href="#linear-gradient-3"/><linearGradient id="linear-gradient-20" x1="332" y1="263" x2="341.9" y2="263" xlink:href="#linear-gradient-3"/><linearGradient id="linear-gradient-21" x1="331.9" y1="273.8" x2="341.8" y2="273.8" xlink:href="#linear-gradient-3"/><linearGradient id="linear-gradient-22" x1="351.7" y1="263" x2="361.6" y2="263" xlink:href="#linear-gradient-3"/><linearGradient id="linear-gradient-23" x1="474.1" y1="410.95" x2="476.7" y2="410.95" xlink:href="#linear-gradient"/><linearGradient id="linear-gradient-24" x1="474.1" y1="390.25" x2="476.7" y2="390.25" xlink:href="#linear-gradient"/><linearGradient id="linear-gradient-25" x1="458.8" y1="400.6" x2="469.5" y2="400.6" xlink:href="#linear-gradient"/><linearGradient id="linear-gradient-26" x1="481.2" y1="400.6" x2="491.91" y2="400.6" xlink:href="#linear-gradient"/><linearGradient id="linear-gradient-27" x1="480.31" y1="231.57" x2="514.45" y2="231.57" gradientUnits="userSpaceOnUse"><stop offset="0.04" stop-color="#3a3adb"/><stop offset="0.99" stop-color="#2a4b8c"/></linearGradient><linearGradient id="linear-gradient-28" x1="480.35" y1="210.83" x2="514.49" y2="210.83" xlink:href="#linear-gradient-27"/></defs><path class="cls-1" d="M89.5,126.5C79,109.2,68,97.8,50.6,89.7s-39.1-8.2-48,11.2,8.6,43.5,33.2,44.9c28.3,1.5,43.4,14.6,45,34,1,12.1,14.5,12.5,17.3,4.6C103.3,170,101.7,146.7,89.5,126.5Z"/><path class="cls-2" d="M311.5,26.9C194.9-92.8,68.2,219.8,35.7,320.8S140.6,438.1,233,456.2c147.6,28.8,215.2-27,226.7-94.2S428.1,146.7,311.5,26.9Z"/><path class="cls-3" d="M386.9,175.8C325,186.6,282.7,128,254.2,91.9c-22.4-28.4-116.5-75.1-175,8.7-53,76-31.1,189.1,52.3,246.4S342,399,420.9,363.5c49.9-22.4,112.9-64.1,120.7-123.3C550.2,175.4,481.9,159.3,386.9,175.8Z"/><path class="cls-4" d="M397.7,68.5c-2.5-.1-5-.1-7.6-.1-41.1,0-92.8,10.3-129.7,22.4L255,92.6c1.1,1.4,2.3,2.9,3.5,4.4,1.3-.4,2.5-.8,3.8-1.3,41-13.5,91.2-22.1,127.9-22.1,2.5,0,5,0,7.4.1,17.3.6,30.3,6.3,37.5,16.5,8.6,12.2,8.6,30.8-.1,52.2-3.9,9.7-7.2,18.9-9.9,28-11,36.6-13.6,72.1-14.2,134.2-.1,14.2,0,27.3.1,40,.1,8,.1,15.5.1,22.8,0,44.1-2.7,74.5-23,94.1-15.8,15.2-34.3,23.3-53.6,23.3-21.2,0-42.9-9.5-64.3-28.3C222.8,415,164,386,104.6,374.7c-45.6-8.7-81.4-17-93.8-36.9-6.7-10.9-6.7-25.6,0-45,6.3-18.1,18.4-43.1,41.9-70.5-.4-2.4-.7-4.8-1-7.1-23.6,26.5-38.1,52.7-46.2,76-21.7,62.6,25.1,74.8,97.9,88.7,58.6,11.2,115.8,39.3,162.8,80.5,24,21,47.1,29.7,68.1,29.7,22.1,0,41.8-9.7,57.6-24.9,22.1-21.4,24.6-53.8,24.6-100.1,0-18-.4-38.1-.2-60.4.6-64.3,3.4-98.8,14.5-134.7,2.6-8.3,5.7-16.8,9.2-25.6C458.1,99.7,439.9,69.9,397.7,68.5Z"/><path class="cls-5" d="M459.8,308.7c-35.5-38.4-76.5-14-105.7,29.4-27.1,40.3-10.6,87.6,33.3,58.4,38.3-25.4,61.6-18,78.7-35.1C489,338.7,459.8,308.7,459.8,308.7Z"/><path class="cls-6" d="M72.6,47.7a1.32,1.32,0,0,1-1.3-1.3V38.3a1.3,1.3,0,1,1,2.6,0v8.1A1.4,1.4,0,0,1,72.6,47.7Z"/><path class="cls-7" d="M72.6,27a1.32,1.32,0,0,1-1.3-1.3V17.6a1.3,1.3,0,1,1,2.6,0v8.1A1.32,1.32,0,0,1,72.6,27Z"/><path class="cls-8" d="M85.3,40.3l-7.1-3.8a1.13,1.13,0,0,1-.5-1.7,1.54,1.54,0,0,1,1.9-.5l7.1,3.8a1.13,1.13,0,0,1,.5,1.7A1.54,1.54,0,0,1,85.3,40.3Z"/><path class="cls-9" d="M65.6,29.5l-7.1-3.8A1.13,1.13,0,0,1,58,24a1.54,1.54,0,0,1,1.9-.5L67,27.3a1.13,1.13,0,0,1,.5,1.7A1.57,1.57,0,0,1,65.6,29.5Z"/><path class="cls-10" d="M57.9,39.8a1.13,1.13,0,0,1,.5-1.7l7.1-3.8a1.54,1.54,0,0,1,1.9.5,1.13,1.13,0,0,1-.5,1.7l-7.1,3.8A1.54,1.54,0,0,1,57.9,39.8Z"/><path class="cls-11" d="M77.7,29a1.13,1.13,0,0,1,.5-1.7l7.1-3.8a1.54,1.54,0,0,1,1.9.5,1.13,1.13,0,0,1-.5,1.7l-7.1,3.8A1.54,1.54,0,0,1,77.7,29Z"/><path class="cls-12" d="M210.1,79.1a1.32,1.32,0,0,1-1.3-1.3V69.7a1.3,1.3,0,0,1,2.6,0v8.1A1.21,1.21,0,0,1,210.1,79.1Z"/><path class="cls-13" d="M210.1,58.4a1.32,1.32,0,0,1-1.3-1.3V49a1.3,1.3,0,0,1,2.6,0v8.1A1.21,1.21,0,0,1,210.1,58.4Z"/><path class="cls-14" d="M202.9,64.7h-8.1a1.3,1.3,0,0,1,0-2.6h8.1a1.32,1.32,0,0,1,1.3,1.3A1.21,1.21,0,0,1,202.9,64.7Z"/><path class="cls-15" d="M225.4,64.7h-8.1a1.3,1.3,0,0,1,0-2.6h8.1a1.32,1.32,0,0,1,1.3,1.3A1.21,1.21,0,0,1,225.4,64.7Z"/><path class="cls-16" d="M73,428a17.92,17.92,0,0,1-17-11.7,1.27,1.27,0,0,1,1-1.7,1.31,1.31,0,0,1,1.6.8,15.42,15.42,0,0,0,28.8,0,1.38,1.38,0,0,1,2.6.9A18.06,18.06,0,0,1,73,428Z"/><path class="cls-17" d="M89.1,407.2a1.31,1.31,0,0,1-1.6-.8,15.42,15.42,0,0,0-28.8,0,1.38,1.38,0,0,1-2.6-.9,18.2,18.2,0,0,1,34,0A1.45,1.45,0,0,1,89.1,407.2Z"/><path class="cls-18" d="M346.8,284.1a1.32,1.32,0,0,1-1.3-1.3v-8.1a1.3,1.3,0,0,1,2.6,0v8.1A1.32,1.32,0,0,1,346.8,284.1Z"/><path class="cls-19" d="M346.8,263.4a1.32,1.32,0,0,1-1.3-1.3V254a1.3,1.3,0,0,1,2.6,0v8.1A1.32,1.32,0,0,1,346.8,263.4Z"/><path class="cls-20" d="M359.6,276.8l-7.1-3.8a1.13,1.13,0,0,1-.5-1.7,1.54,1.54,0,0,1,1.9-.5l7.1,3.8a1.13,1.13,0,0,1,.5,1.7A1.57,1.57,0,0,1,359.6,276.8Z"/><path class="cls-21" d="M339.8,266l-7.1-3.8a1.13,1.13,0,0,1-.5-1.7,1.54,1.54,0,0,1,1.9-.5l7.1,3.8a1.13,1.13,0,0,1,.5,1.7A1.57,1.57,0,0,1,339.8,266Z"/><path class="cls-22" d="M332.1,276.3a1.13,1.13,0,0,1,.5-1.7l7.1-3.8a1.54,1.54,0,0,1,1.9.5,1.13,1.13,0,0,1-.5,1.7l-7.1,3.8A1.57,1.57,0,0,1,332.1,276.3Z"/><path class="cls-23" d="M351.9,265.5a1.13,1.13,0,0,1,.5-1.7l7.1-3.8a1.54,1.54,0,0,1,1.9.5,1.13,1.13,0,0,1-.5,1.7l-7.1,3.8A1.54,1.54,0,0,1,351.9,265.5Z"/><path class="cls-24" d="M475.4,416.3a1.32,1.32,0,0,1-1.3-1.3v-8.1a1.3,1.3,0,0,1,2.6,0V415A1.32,1.32,0,0,1,475.4,416.3Z"/><path class="cls-25" d="M475.4,395.6a1.32,1.32,0,0,1-1.3-1.3v-8.1a1.3,1.3,0,0,1,2.6,0v8.1A1.32,1.32,0,0,1,475.4,395.6Z"/><path class="cls-26" d="M468.2,401.9h-8.1a1.3,1.3,0,0,1,0-2.6h8.1a1.3,1.3,0,1,1,0,2.6Z"/><path class="cls-27" d="M490.6,401.9h-8.1a1.3,1.3,0,0,1,0-2.6h8.1a1.32,1.32,0,0,1,1.3,1.3A1.21,1.21,0,0,1,490.6,401.9Z"/><path class="cls-28" d="M497.4,238.3a17.92,17.92,0,0,1-17-11.7,1.27,1.27,0,0,1,1-1.7,1.31,1.31,0,0,1,1.6.8,15.42,15.42,0,0,0,28.8,0,1.38,1.38,0,0,1,2.6.9A18.06,18.06,0,0,1,497.4,238.3Z"/><path class="cls-29" d="M513.4,217.5a1.31,1.31,0,0,1-1.6-.8,15.42,15.42,0,0,0-28.8,0,1.38,1.38,0,0,1-2.6-.9,18.2,18.2,0,0,1,34,0A1.3,1.3,0,0,1,513.4,217.5Z"/><path class="cls-30" d="M340,314c4.73-4.85,8.77-9,12.78-13.13,2-2.06,4.21-2.76,6.38-.58s1.54,4.38-.51,6.41q-6.51,6.49-12.92,13.08c-1,1.06-2.62,1.94-1.78,3.93s2.71,1.17,4.11,1.19c6.12.11,12.26-.06,18.38.08,4.19.1,6.21-1.6,6-5.89-.13-3.32,0-6.65,0-10,0-2.83,1.07-5,4.05-5.06,3.31-.09,4.43,2.19,4.39,5.24,0,3.86.11,7.71,0,11.56-.28,7.3-5.41,12.33-12.82,12.49-6.48.14-12.95,0-20.19,0,1.61,3.91,3.2,7.34,4.42,10.91.77,2.25,2.36,2.31,4.13,2.26,7.7-.19,15.41-.19,23.09-.74,5.92-.42,10.51-5,11.75-11.09a109.39,109.39,0,0,0-.11-44.83c-1.6-7.63-6.4-11.54-14.19-11a276.11,276.11,0,0,1-34.64-.06c-6.08-.39-11,1.73-14.36,6.9-2,3.18-4.66,3.82-7.48,1.78-3-2.16-1.15-4.71.39-6.86,4.68-6.53,11-10.42,19.11-10.2,12.78.35,25.53.56,38.31,0a20.07,20.07,0,0,1,20.54,15.47,112.39,112.39,0,0,1,.46,52c-.92,4.22-3,8.07-6.48,10.5-3.1,2.14-3.57,4.71-3.43,8,.19,4.71,0,9.45.05,14.18,0,2.66-1.19,4.54-3.84,4.72-3,.2-4.49-1.74-4.55-4.59-.11-4.37-.22-8.76,0-13.13.16-2.91-.91-3.48-3.58-3.29q-8.64.6-17.32.64c-2.84,0-3.46,1-2.19,3.33,2.26,4,.4,4.84-3.3,4.56-1.91-.15-3.85,0-5.78,0-3,0-6.44-.93-8.8.28-2.87,1.48-.73,5.32-1.22,8.08s-1.78,4.27-4.47,4.15c-2.4-.12-3.65-1.71-4-4.12-.34-2.71,1.38-6.63-.78-7.86-2.4-1.37-6.19-1-9.21-.44-10.69,1.94-17.09-2.13-19.52-12.73-1.11-4.85-3.95-6.9-9.36-6.45-6.51.55-9.69-2.93-9.61-9.49.07-5.06-1.53-10.63,3.78-14.48,1.56-1.13-.19-2.59-.69-3.71-2.49-5.57-5.12-11.09-7.79-16.58-1.41-2.9-.85-4,2.58-4q24.69.17,49.39,0c2.57,0,3.65,1,4.5,3.23C335.49,303.52,337.61,308.28,340,314Zm-32.44,29.88a43.69,43.69,0,0,1,1.76,4.26c1.38,4.85,4.14,6.77,9.5,6.39,8-.58,16.11-.26,24.17-.1,3.39.07,3.91-1,2.69-4-6-14.53-11.85-29.1-17.79-43.65-.57-1.41-1-2.89-3.16-2.87-11,.09-22.08,0-33.11,0-1.46,0-2.61.53-1.9,2.15,1.76,4,3.15,8.35,5.79,11.69,1.78,2.24,5.64.48,8.53.86,1.91.26,4.17-.95,5.42,1.84,3.07,6.85,6.32,13.63,9.58,20.39,1.27,2.63-.07,3-2.24,3C313.85,343.82,310.92,343.84,307.53,343.84Zm-9.2-8.41c.88,0,1.76.06,2.63,0,1.65-.15,3.77.76,4.68-1.32.78-1.8-.63-3.35-1.46-4.8-2.6-4.53-7-1.52-10.46-2.22-2.87-.57-3.54,1.31-3.45,3.82.09,2.34-.24,4.78,3.33,4.55C295.17,335.34,296.75,335.43,298.33,335.43Z"/><path class="cls-30" d="M186.33,354.29c-7.47,0-14.61.12-21.74-.06-2.42-.06-2.45,1.12-2.42,2.85.05,3.68,0,7.36,0,11,0,3.2.34,7-4.09,7.08-4.86.07-4.35-4-4.35-7.34,0-1.58,0-3.15,0-4.73.08-6.51.48-12.36-5.8-17.64-6.61-5.56-5.68-15.09-6.5-23.17a110.09,110.09,0,0,1,2.06-33.95c2.5-11.85,10.8-18.62,22.83-18s23.8.37,35.71-.05c8.94-.32,15.8,3.75,20.77,11.1,1.52,2.27,2.2,4.73-.59,6.33-2.26,1.3-4.77,1.26-6.4-1.41-3.83-6.3-9.62-8.18-16.63-7.59-11,.95-22,.59-33.07,0-8.13-.42-12.77,3.49-14.36,11.46a110.51,110.51,0,0,0-.07,43.82c1.49,7.37,6.36,11.58,13.85,11.86,6.47.25,13,.3,19.42.71,3.73.24,5.82-1,6.79-4.72.71-2.66,2-5.16,3.4-8.58-6.51,0-12.5,0-18.49,0-9.64-.05-14.46-4.88-14.51-14.54,0-3.16,0-6.31,0-9.46s1-5.4,4.33-5.32,4.2,2.53,4.13,5.52c-.07,3.33,0,6.66,0,10-.1,3.67,1.43,5.58,5.26,5.54,6.65-.06,13.31,0,20,0,1.12,0,2.49.52,3.22-1s-.24-2.6-1.25-3.62c-4.31-4.35-8.59-8.74-12.92-13.08-2.09-2.1-4.15-4.34-1.49-7.16,2.91-3.08,5.31-1,7.52,1.3,3.87,4,7.77,8,12.18,12.5,2.35-5.71,4.48-10.64,6.4-15.65.8-2.1,1.92-2.89,4.23-2.88q24.7.15,49.41,0c3.35,0,4.08,1,2.57,4-2,3.89-3.81,7.86-5.58,11.84s-4.25,7.28-.24,12.39c3.1,3.95,2.15,10.48.14,15.63-1.64,4.18-5.64,5.07-9.7,4.53s-6.73.79-7.64,4.93c-2.71,12.19-10.37,16.48-22.3,14.07-.5-.1-1.06.07-1.57,0-4.88-.91-7.07.71-6.21,6,.5,3.1,0,6.45-4.09,6.5s-4.69-3.24-4.21-6.39c.77-5-1-7-6.1-6.13a38.91,38.91,0,0,1-6.3.05C183.81,362.76,183.81,362.76,186.33,354.29Zm49.34-10.45c-3.24,0-5.84-.18-8.4.05-4.31.37-4.26-1.34-2.66-4.52,2.82-5.59,5.59-11.23,8-17,1.3-3.12,3.17-4.37,6.35-3.74,6.51,1.28,10.51-1.28,12.18-7.68a12.61,12.61,0,0,1,1.34-2.83c1.58-2.84,1.52-4.34-2.48-4.26-10.13.19-20.27.16-30.41,0-2.57,0-3.7,1-4.58,3.16q-8.64,21.57-17.48,43.08c-1.28,3.08-1.12,4.39,2.7,4.31,9.09-.18,18.18-.06,27.26-.05,1.77,0,3.42.17,4.27-2C232.8,349.59,234.19,347,235.67,343.84Zm9.16-8.41c.88,0,1.76-.05,2.63,0,3,.19,5.38.14,5.39-4.19s-2.2-4.45-5.3-4.25c-1.75.11-3.51,0-5.26,0-4.15.06-4.71,3.74-4.94,6.26-.27,3.06,3,1.9,4.86,2.13A20.81,20.81,0,0,0,244.83,335.43Z"/><path class="cls-30" d="M329.23,146.6c-5.16,6.38-.61,12.1,1.38,18.26a10.65,10.65,0,0,0,6.81,7.24c3.82,1.43,5.31,4.24,5.39,8.07.07,3.15.07,6.3.14,9.45.12,5.31-1.24,9.71-7,11.39-4.33,1.26-4.22,5.49-6,8.54-2.93,5-3.94,9.87-1.13,15.17a1.7,1.7,0,0,1,.18.49c1.1,5.78-13.79,19.8-19.29,17.68-5.23-2-9.44-.9-14.25,1.26-4.58,2.07-9,3.75-10.52,9.08a4.89,4.89,0,0,1-.78,1.36c-3.69,5.11-23,4-26.15-1.45a21.45,21.45,0,0,0-24.33-10,13.69,13.69,0,0,1-1.47.54c-5.84.95-19.07-13.93-17.51-19.66a21.42,21.42,0,0,0-10.23-24.15c-2.38-1.34-3.82-3-4-5.67-.2-3.84-.3-7.68-.42-11.53-.16-5.32,1.27-9.61,7-11.41,2.66-.83,3.85-2.9,4.91-5.57,2.5-6.28,5.57-11.95,2.12-19.21-1.88-4,13.78-19.45,17.63-17.44,8.21,4.28,14.27-1.18,21.15-3,3-.8,3.67-3.74,4.62-6,1.54-3.64,4.15-5,7.74-5.12,3.15-.12,6.3-.08,9.45-.18,5.53-.17,10,1.38,11.76,7.25,1.17,3.85,4.87,4,7.72,5.47,5.27,2.81,10.42,4.58,16.15,1.36a3.26,3.26,0,0,1,3.52.15,53.68,53.68,0,0,1,14.67,14.8A10.18,10.18,0,0,1,329.23,146.6Zm-95.86-8.83c-4.91-.05-10.88,7.94-9.36,11.88s1.54,7.65-1,11.35a18.82,18.82,0,0,0-2.92,6.68,13.62,13.62,0,0,1-8.75,10.72c-4.36,1.83-4.42,13.1-.08,14.95,5,2.12,7.82,5.34,8.79,10.64a16.91,16.91,0,0,0,2.66,6.22c2.7,4,3.31,8,1,12.26-2.1,4,1,5.82,3.2,7.86s3.68,5.47,7.78,3.33c4.42-2.31,8.64-1.61,12.79,1.13a18.83,18.83,0,0,0,6.73,2.79c4.78.89,7.9,3.38,9.37,8,1.33,4.12,4.82,3.44,7.85,3.42s6.52.75,7.87-3.38c1.48-4.55,4.54-7.1,9.35-8a20.34,20.34,0,0,0,7.2-3c3.86-2.5,7.72-3.24,11.81-1.05s6.07-.89,8.34-3.15,5.28-4.25,3-8.38c-2.08-3.84-1.57-7.61.93-11.31a19,19,0,0,0,2.91-6.68c1-5.08,3.66-8.58,8.61-10.15,4.06-1.29,3-4.65,3-7.42s1.37-6.57-3-7.95c-5-1.6-7.48-5.19-8.52-10.21a18.51,18.51,0,0,0-2.85-6.71c-2.71-3.85-3.1-7.75-1-11.78s-.8-5.83-3-7.92-4-5.57-8.29-3.39c-4,2.06-7.92,1.77-11.8-.92a19.94,19.94,0,0,0-7.21-3c-4.92-1-8.23-3.6-9.72-8.36-1.27-4.07-4.63-3.09-7.4-3s-6.54-1.33-7.94,3c-1.53,4.74-4.82,7.27-9.72,8.36C247,136.12,240.85,143.71,233.37,137.77Z"/><path class="cls-30" d="M183.16,266.06c-13.26,0-22.11-8.56-22-21.28.07-13.39,10.09-24.83,21.84-25,12-.13,22.25,11.4,22.3,25C205.32,257.54,196.44,266.07,183.16,266.06Zm-.18-8.4c8.46,0,13.89-5,13.88-12.79,0-8.7-6.3-16.48-13.44-16.63-7.33-.16-13.91,7.77-13.88,16.71C169.56,252.59,174.89,257.62,183,257.66Z"/><path class="cls-30" d="M359.69,266.06c-13.23-.05-22.05-8.64-21.94-21.38.11-13.38,10.17-24.79,21.94-24.86,12-.08,22.19,11.49,22.2,25.12C381.91,257.61,373,266.1,359.69,266.06Zm.27-8.4c8.13,0,13.46-5,13.52-12.63.07-8.93-6.48-16.9-13.8-16.79-7.14.09-13.48,7.85-13.52,16.55C346.11,252.64,351.53,257.69,360,257.66Z"/><path class="cls-30" d="M271.8,139.93a46.24,46.24,0,1,1-46.54,46.21A46.29,46.29,0,0,1,271.8,139.93Zm37.56,46.27A37.85,37.85,0,1,0,271.76,224,37.91,37.91,0,0,0,309.36,186.2Z"/><path class="cls-30" d="M251.16,207.88c.57-3.62.82-7.33,1.81-10.84.94-3.32.32-5.58-2.36-7.76a80.41,80.41,0,0,1-7.93-7.63c-3.12-3.35-2.09-7.73,2.17-7.63,12.12.28,19.21-5.06,22.8-16.53,1.32-4.2,6.42-4.13,7.78.15,3.54,11.17,10.24,16.74,22.3,16.39,4.66-.14,6.27,4.94,2.41,7.66-9.59,6.72-12.27,15.09-8.39,25.92a4.32,4.32,0,0,1-6.95,4.73c-8.95-7.23-17.59-6.71-26.77-.08C254.05,215.12,250.81,212.67,251.16,207.88ZM254,180.7c7.48,8,7.48,8,7.27,21,6.81-6,13.63-6,21-.37-3.61-8.72-.69-15,6.22-20.29-9.27.72-14.53-3.59-17.28-12.27C269.18,178.15,263.18,181.17,254,180.7Z"/></svg>