<svg id="Layer_1" data-name="Layer 1" xmlns="http://www.w3.org/2000/svg" xmlns:xlink="http://www.w3.org/1999/xlink" viewBox="0 0 543 490"><defs><style>.cls-1{fill:url(#linear-gradient);}.cls-2{fill:#2a2a8c;}.cls-3{fill:url(#linear-gradient-2);}.cls-4{opacity:0.9;fill:url(#linear-gradient-3);}.cls-5{fill:url(#linear-gradient-4);}.cls-6{fill:url(#linear-gradient-5);}.cls-7{fill:url(#linear-gradient-6);}.cls-8{fill:url(#linear-gradient-7);}.cls-9{fill:url(#linear-gradient-8);}.cls-10{fill:url(#linear-gradient-9);}.cls-11{fill:url(#linear-gradient-10);}.cls-12,.cls-13,.cls-14,.cls-15,.cls-18,.cls-19,.cls-20,.cls-21,.cls-22,.cls-23,.cls-28,.cls-29{fill-opacity:0.2;}.cls-12{fill:url(#linear-gradient-11);}.cls-13{fill:url(#linear-gradient-12);}.cls-14{fill:url(#linear-gradient-13);}.cls-15{fill:url(#linear-gradient-14);}.cls-16{fill:url(#linear-gradient-15);}.cls-17{fill:url(#linear-gradient-16);}.cls-18{fill:url(#linear-gradient-17);}.cls-19{fill:url(#linear-gradient-18);}.cls-20{fill:url(#linear-gradient-19);}.cls-21{fill:url(#linear-gradient-20);}.cls-22{fill:url(#linear-gradient-21);}.cls-23{fill:url(#linear-gradient-22);}.cls-24{fill:url(#linear-gradient-23);}.cls-25{fill:url(#linear-gradient-24);}.cls-26{fill:url(#linear-gradient-25);}.cls-27{fill:url(#linear-gradient-26);}.cls-28{fill:url(#linear-gradient-27);}.cls-29{fill:url(#linear-gradient-28);}.cls-30{fill:none;stroke:#39ffff;stroke-miterlimit:10;stroke-width:2px;}</style><linearGradient id="linear-gradient" x1="0.21" y1="137.11" x2="100.9" y2="137.11" gradientUnits="userSpaceOnUse"><stop offset="0.04" stop-color="#3a3adb"/><stop offset="0.99" stop-color="#2a2a8c"/></linearGradient><linearGradient id="linear-gradient-2" x1="50.45" y1="221.61" x2="542.33" y2="221.61" gradientUnits="userSpaceOnUse"><stop offset="0.04" stop-color="#3a3adb"/><stop offset="0.77" stop-color="#2a2a8c"/></linearGradient><linearGradient id="linear-gradient-3" x1="0.16" y1="279.25" x2="446.97" y2="279.25" gradientUnits="userSpaceOnUse"><stop offset="0.04" stop-color="#3a3adb"/><stop offset="0.99" stop-color="#2a47c9"/></linearGradient><linearGradient id="linear-gradient-4" x1="340.93" y1="347.57" x2="474.87" y2="347.57" xlink:href="#linear-gradient"/><linearGradient id="linear-gradient-5" x1="71.3" y1="42.35" x2="73.9" y2="42.35" xlink:href="#linear-gradient"/><linearGradient id="linear-gradient-6" x1="71.3" y1="21.65" x2="73.9" y2="21.65" xlink:href="#linear-gradient"/><linearGradient id="linear-gradient-7" x1="77.5" y1="37.3" x2="87.4" y2="37.3" xlink:href="#linear-gradient"/><linearGradient id="linear-gradient-8" x1="57.8" y1="26.5" x2="67.7" y2="26.5" xlink:href="#linear-gradient"/><linearGradient id="linear-gradient-9" x1="57.7" y1="37.3" x2="67.6" y2="37.3" xlink:href="#linear-gradient"/><linearGradient id="linear-gradient-10" x1="77.5" y1="26.5" x2="87.4" y2="26.5" xlink:href="#linear-gradient"/><linearGradient id="linear-gradient-11" x1="208.8" y1="73.75" x2="211.41" y2="73.75" xlink:href="#linear-gradient"/><linearGradient id="linear-gradient-12" x1="208.8" y1="53.05" x2="211.41" y2="53.05" xlink:href="#linear-gradient"/><linearGradient id="linear-gradient-13" x1="193.5" y1="63.4" x2="204.21" y2="63.4" xlink:href="#linear-gradient"/><linearGradient id="linear-gradient-14" x1="216" y1="63.4" x2="226.71" y2="63.4" xlink:href="#linear-gradient"/><linearGradient id="linear-gradient-15" x1="55.91" y1="421.27" x2="90.05" y2="421.27" xlink:href="#linear-gradient"/><linearGradient id="linear-gradient-16" x1="56.05" y1="400.53" x2="90.14" y2="400.53" xlink:href="#linear-gradient"/><linearGradient id="linear-gradient-17" x1="345.5" y1="278.75" x2="348.1" y2="278.75" xlink:href="#linear-gradient-3"/><linearGradient id="linear-gradient-18" x1="345.5" y1="258.05" x2="348.1" y2="258.05" xlink:href="#linear-gradient-3"/><linearGradient id="linear-gradient-19" x1="351.8" y1="273.8" x2="361.7" y2="273.8" xlink:href="#linear-gradient-3"/><linearGradient id="linear-gradient-20" x1="332" y1="263" x2="341.9" y2="263" xlink:href="#linear-gradient-3"/><linearGradient id="linear-gradient-21" x1="331.9" y1="273.8" x2="341.8" y2="273.8" xlink:href="#linear-gradient-3"/><linearGradient id="linear-gradient-22" x1="351.7" y1="263" x2="361.6" y2="263" xlink:href="#linear-gradient-3"/><linearGradient id="linear-gradient-23" x1="474.1" y1="410.95" x2="476.7" y2="410.95" xlink:href="#linear-gradient"/><linearGradient id="linear-gradient-24" x1="474.1" y1="390.25" x2="476.7" y2="390.25" xlink:href="#linear-gradient"/><linearGradient id="linear-gradient-25" x1="458.8" y1="400.6" x2="469.5" y2="400.6" xlink:href="#linear-gradient"/><linearGradient id="linear-gradient-26" x1="481.2" y1="400.6" x2="491.91" y2="400.6" xlink:href="#linear-gradient"/><linearGradient id="linear-gradient-27" x1="480.31" y1="231.57" x2="514.45" y2="231.57" gradientUnits="userSpaceOnUse"><stop offset="0.04" stop-color="#3a3adb"/><stop offset="0.99" stop-color="#2a4b8c"/></linearGradient><linearGradient id="linear-gradient-28" x1="480.35" y1="210.83" x2="514.49" y2="210.83" xlink:href="#linear-gradient-27"/></defs><path class="cls-1" d="M89.5,126.5C79,109.2,68,97.8,50.6,89.7s-39.1-8.2-48,11.2,8.6,43.5,33.2,44.9c28.3,1.5,43.4,14.6,45,34,1,12.1,14.5,12.5,17.3,4.6C103.3,170,101.7,146.7,89.5,126.5Z"/><path class="cls-2" d="M311.5,26.9C194.9-92.8,68.2,219.8,35.7,320.8S140.6,438.1,233,456.2c147.6,28.8,215.2-27,226.7-94.2S428.1,146.7,311.5,26.9Z"/><path class="cls-3" d="M386.9,175.8C325,186.6,282.7,128,254.2,91.9c-22.4-28.4-116.5-75.1-175,8.7-53,76-31.1,189.1,52.3,246.4S342,399,420.9,363.5c49.9-22.4,112.9-64.1,120.7-123.3C550.2,175.4,481.9,159.3,386.9,175.8Z"/><path class="cls-4" d="M397.7,68.5c-2.5-.1-5-.1-7.6-.1-41.1,0-92.8,10.3-129.7,22.4L255,92.6c1.1,1.4,2.3,2.9,3.5,4.4,1.3-.4,2.5-.8,3.8-1.3,41-13.5,91.2-22.1,127.9-22.1,2.5,0,5,0,7.4.1,17.3.6,30.3,6.3,37.5,16.5,8.6,12.2,8.6,30.8-.1,52.2-3.9,9.7-7.2,18.9-9.9,28-11,36.6-13.6,72.1-14.2,134.2-.1,14.2,0,27.3.1,40,.1,8,.1,15.5.1,22.8,0,44.1-2.7,74.5-23,94.1-15.8,15.2-34.3,23.3-53.6,23.3-21.2,0-42.9-9.5-64.3-28.3C222.8,415,164,386,104.6,374.7c-45.6-8.7-81.4-17-93.8-36.9-6.7-10.9-6.7-25.6,0-45,6.3-18.1,18.4-43.1,41.9-70.5-.4-2.4-.7-4.8-1-7.1-23.6,26.5-38.1,52.7-46.2,76-21.7,62.6,25.1,74.8,97.9,88.7,58.6,11.2,115.8,39.3,162.8,80.5,24,21,47.1,29.7,68.1,29.7,22.1,0,41.8-9.7,57.6-24.9,22.1-21.4,24.6-53.8,24.6-100.1,0-18-.4-38.1-.2-60.4.6-64.3,3.4-98.8,14.5-134.7,2.6-8.3,5.7-16.8,9.2-25.6C458.1,99.7,439.9,69.9,397.7,68.5Z"/><path class="cls-5" d="M459.8,308.7c-35.5-38.4-76.5-14-105.7,29.4-27.1,40.3-10.6,87.6,33.3,58.4,38.3-25.4,61.6-18,78.7-35.1C489,338.7,459.8,308.7,459.8,308.7Z"/><path class="cls-6" d="M72.6,47.7a1.32,1.32,0,0,1-1.3-1.3V38.3a1.3,1.3,0,1,1,2.6,0v8.1A1.4,1.4,0,0,1,72.6,47.7Z"/><path class="cls-7" d="M72.6,27a1.32,1.32,0,0,1-1.3-1.3V17.6a1.3,1.3,0,1,1,2.6,0v8.1A1.32,1.32,0,0,1,72.6,27Z"/><path class="cls-8" d="M85.3,40.3l-7.1-3.8a1.13,1.13,0,0,1-.5-1.7,1.54,1.54,0,0,1,1.9-.5l7.1,3.8a1.13,1.13,0,0,1,.5,1.7A1.54,1.54,0,0,1,85.3,40.3Z"/><path class="cls-9" d="M65.6,29.5l-7.1-3.8A1.13,1.13,0,0,1,58,24a1.54,1.54,0,0,1,1.9-.5L67,27.3a1.13,1.13,0,0,1,.5,1.7A1.57,1.57,0,0,1,65.6,29.5Z"/><path class="cls-10" d="M57.9,39.8a1.13,1.13,0,0,1,.5-1.7l7.1-3.8a1.54,1.54,0,0,1,1.9.5,1.13,1.13,0,0,1-.5,1.7l-7.1,3.8A1.54,1.54,0,0,1,57.9,39.8Z"/><path class="cls-11" d="M77.7,29a1.13,1.13,0,0,1,.5-1.7l7.1-3.8a1.54,1.54,0,0,1,1.9.5,1.13,1.13,0,0,1-.5,1.7l-7.1,3.8A1.54,1.54,0,0,1,77.7,29Z"/><path class="cls-12" d="M210.1,79.1a1.32,1.32,0,0,1-1.3-1.3V69.7a1.3,1.3,0,0,1,2.6,0v8.1A1.21,1.21,0,0,1,210.1,79.1Z"/><path class="cls-13" d="M210.1,58.4a1.32,1.32,0,0,1-1.3-1.3V49a1.3,1.3,0,0,1,2.6,0v8.1A1.21,1.21,0,0,1,210.1,58.4Z"/><path class="cls-14" d="M202.9,64.7h-8.1a1.3,1.3,0,0,1,0-2.6h8.1a1.32,1.32,0,0,1,1.3,1.3A1.21,1.21,0,0,1,202.9,64.7Z"/><path class="cls-15" d="M225.4,64.7h-8.1a1.3,1.3,0,0,1,0-2.6h8.1a1.32,1.32,0,0,1,1.3,1.3A1.21,1.21,0,0,1,225.4,64.7Z"/><path class="cls-16" d="M73,428a17.92,17.92,0,0,1-17-11.7,1.27,1.27,0,0,1,1-1.7,1.31,1.31,0,0,1,1.6.8,15.42,15.42,0,0,0,28.8,0,1.38,1.38,0,0,1,2.6.9A18.06,18.06,0,0,1,73,428Z"/><path class="cls-17" d="M89.1,407.2a1.31,1.31,0,0,1-1.6-.8,15.42,15.42,0,0,0-28.8,0,1.38,1.38,0,0,1-2.6-.9,18.2,18.2,0,0,1,34,0A1.45,1.45,0,0,1,89.1,407.2Z"/><path class="cls-18" d="M346.8,284.1a1.32,1.32,0,0,1-1.3-1.3v-8.1a1.3,1.3,0,0,1,2.6,0v8.1A1.32,1.32,0,0,1,346.8,284.1Z"/><path class="cls-19" d="M346.8,263.4a1.32,1.32,0,0,1-1.3-1.3V254a1.3,1.3,0,0,1,2.6,0v8.1A1.32,1.32,0,0,1,346.8,263.4Z"/><path class="cls-20" d="M359.6,276.8l-7.1-3.8a1.13,1.13,0,0,1-.5-1.7,1.54,1.54,0,0,1,1.9-.5l7.1,3.8a1.13,1.13,0,0,1,.5,1.7A1.57,1.57,0,0,1,359.6,276.8Z"/><path class="cls-21" d="M339.8,266l-7.1-3.8a1.13,1.13,0,0,1-.5-1.7,1.54,1.54,0,0,1,1.9-.5l7.1,3.8a1.13,1.13,0,0,1,.5,1.7A1.57,1.57,0,0,1,339.8,266Z"/><path class="cls-22" d="M332.1,276.3a1.13,1.13,0,0,1,.5-1.7l7.1-3.8a1.54,1.54,0,0,1,1.9.5,1.13,1.13,0,0,1-.5,1.7l-7.1,3.8A1.57,1.57,0,0,1,332.1,276.3Z"/><path class="cls-23" d="M351.9,265.5a1.13,1.13,0,0,1,.5-1.7l7.1-3.8a1.54,1.54,0,0,1,1.9.5,1.13,1.13,0,0,1-.5,1.7l-7.1,3.8A1.54,1.54,0,0,1,351.9,265.5Z"/><path class="cls-24" d="M475.4,416.3a1.32,1.32,0,0,1-1.3-1.3v-8.1a1.3,1.3,0,0,1,2.6,0V415A1.32,1.32,0,0,1,475.4,416.3Z"/><path class="cls-25" d="M475.4,395.6a1.32,1.32,0,0,1-1.3-1.3v-8.1a1.3,1.3,0,0,1,2.6,0v8.1A1.32,1.32,0,0,1,475.4,395.6Z"/><path class="cls-26" d="M468.2,401.9h-8.1a1.3,1.3,0,0,1,0-2.6h8.1a1.3,1.3,0,1,1,0,2.6Z"/><path class="cls-27" d="M490.6,401.9h-8.1a1.3,1.3,0,0,1,0-2.6h8.1a1.32,1.32,0,0,1,1.3,1.3A1.21,1.21,0,0,1,490.6,401.9Z"/><path class="cls-28" d="M497.4,238.3a17.92,17.92,0,0,1-17-11.7,1.27,1.27,0,0,1,1-1.7,1.31,1.31,0,0,1,1.6.8,15.42,15.42,0,0,0,28.8,0,1.38,1.38,0,0,1,2.6.9A18.06,18.06,0,0,1,497.4,238.3Z"/><path class="cls-29" d="M513.4,217.5a1.31,1.31,0,0,1-1.6-.8,15.42,15.42,0,0,0-28.8,0,1.38,1.38,0,0,1-2.6-.9,18.2,18.2,0,0,1,34,0A1.3,1.3,0,0,1,513.4,217.5Z"/><path class="cls-30" d="M292.71,349c-7.95,3-15.39,6-22.95,8.64-4,1.39-8-.6-10.51-4.77-2.31-3.86-4.38-7.86-6.65-11.76a50.67,50.67,0,0,0-7.09-9.88c-1.65-1.72-3.44-3-6-2.58a8.66,8.66,0,0,1-3.17-.06c-4.42-.93-7.39,1.2-10.07,4.33-4,4.66-7.16,9.86-10.46,15a48.24,48.24,0,0,1-3.12,4.6,8.86,8.86,0,0,1-11.16,2.66Q191.2,350.61,181,346c-4.38-2-6.34-5.84-5.3-10.65,1.46-6.73,4-13.18,5.09-20,.26-1.66.49-3.32.6-5,.19-2.73-.14-5.3-2.67-7.05a5.45,5.45,0,0,1-1.47-1.52c-2.67-4.23-6.6-5-11.25-4.58-6.63.63-13.05,2.25-19.53,3.63-2.15.45-4.3.94-6.55.4a8.49,8.49,0,0,1-6.42-5.38c-2.79-7.25-5.56-14.51-8.24-21.8-1.67-4.56,0-8.73,4.58-11.45,4.25-2.53,8.62-4.84,12.88-7.34a45.48,45.48,0,0,0,8.74-6.43c1.74-1.67,2.87-3.52,2.55-6.08a10.18,10.18,0,0,1,.05-3.44c.87-4-1.11-6.73-3.88-9.22-5.17-4.63-11.13-8.1-16.93-11.82a18.53,18.53,0,0,1-4.38-3.4c-2.39-2.79-3.19-6-1.71-9.37q4.77-10.92,9.8-21.73c2-4.18,6.18-5.82,11.27-4.53,6,1.51,11.84,3.59,17.93,4.71,1.39.25,2.78.49,4.18.69,3.75.52,7.28.32,9.68-3.22a.81.81,0,0,1,.18-.19c5.89-3.57,5.8-9.06,5-14.91-.88-6.05-2.45-11.94-3.62-17.92-1.2-6.18.78-9.82,6.62-12L207.44,129c5.63-2.13,9.73-.74,12.79,4.48,2.41,4.11,4.65,8.33,7.06,12.44a43.83,43.83,0,0,0,6.77,9.14c1.5,1.49,3.1,2.52,5.39,2.21a12.25,12.25,0,0,1,4.23.09c3.63.83,6.08-.93,8.35-3.35,4.21-4.48,7.39-9.69,10.67-14.82.71-1.12,1.4-2.25,2.13-3.36,4.16-6.33,7.82-7.37,14.78-4.23,6,2.72,12.08,5.42,18.12,8.15,5,2.25,7,6.12,5.76,11.36-1.36,5.57-3,11.07-4.47,16.62a1.78,1.78,0,0,1-1.35,1.39c-2.41.82-4.8,1.7-7.45,2.64a68,68,0,0,1,2.61-12.48c.82-3.07,1.65-6.15,2.63-9.17.54-1.68.15-2.54-1.51-3.26-6.16-2.66-12.28-5.39-18.35-8.26-1.76-.83-2.67-.47-3.65,1.07-2.83,4.48-5.7,8.94-8.69,13.31a41.64,41.64,0,0,1-8.49,9.43c-3,2.38-6.32,3.79-10.32,3.08a17.63,17.63,0,0,0-5-.19c-4.59.53-8-1.51-11.11-4.55-4.19-4.15-7.18-9.16-10.07-14.23-1.66-2.92-3.28-5.86-4.89-8.8-.73-1.34-1.51-1.86-3.16-1.2q-9.47,3.8-19,7.26c-1.88.68-2.08,1.6-1.7,3.38,1.55,7.25,3.61,14.42,4,21.88a45,45,0,0,1-.1,6.36c-.35,3.53-1.56,6.65-4.55,8.93a28.28,28.28,0,0,0-4.44,4.17c-2.62,3.11-6,4.13-9.88,4.27-6.91.25-13.47-1.62-20-3.42-2.55-.7-5.09-1.46-7.63-2.22-1.55-.45-2.55-.24-3.29,1.51q-3.94,9.25-8.25,18.36c-.85,1.77-.47,2.66,1.05,3.64,5,3.17,10.09,6.2,14.82,9.77a52.12,52.12,0,0,1,6,5.2c3.51,3.64,6,7.67,4.95,13.06a8.88,8.88,0,0,0-.06,2.91c1,6.62-2.42,11.13-7.16,15-5.84,4.8-12.56,8.18-19.11,11.85-3.3,1.86-3.3,1.86-1.94,5.44,2.17,5.69,4.43,11.35,6.42,17.11.75,2.18,1.78,2.59,3.9,2.11,7.31-1.68,14.59-3.58,22.14-4a28.7,28.7,0,0,1,7.9.54,11,11,0,0,1,6.65,4,22.14,22.14,0,0,0,3.59,3.89c4.74,3.76,5.38,8.84,5,14.34-.62,7.73-3.09,15-5.13,22.44-1.05,3.79-1.05,3.78,2.56,5.39,5.47,2.46,11,4.81,16.39,7.45,2.2,1.08,3.27.52,4.44-1.36q4.14-6.63,8.54-13.09a40.43,40.43,0,0,1,8.13-9c3-2.38,6.24-3.93,10.27-3.22a20.35,20.35,0,0,0,5.29.14c4.44-.42,7.87,1.47,10.9,4.44,4.6,4.51,7.75,10.05,10.92,15.57q2.18,3.79,4.24,7.65c.74,1.39,1.55,1.81,3.18,1.13,4.24-1.76,8.58-3.24,12.85-4.93,1.21-.48,2-.56,2.94.59C286.73,347.3,289.38,348.33,292.71,349Z"/><path class="cls-30" d="M318,317.06c-7.69,0-15.38,0-23.07,0-1.83,0-3.58-.07-4.57-1.94a3.76,3.76,0,0,1,.77-4.82c.81-.8.33-1.66.12-2.47A45,45,0,0,0,285.73,295c-5.08-8.27-10.07-16.61-16.1-24.26-26.85-34.09-7.85-87.91,39.1-95.74,32.95-5.49,65.62,19,69.34,52.14,1.79,15.9-1.56,30.4-11.41,43.15-6,7.78-11.13,16.12-16.27,24.47a47.57,47.57,0,0,0-5.67,13.06c-.27,1-.5,1.95.46,2.91a3.42,3.42,0,0,1,.58,4.17,3.87,3.87,0,0,1-3.9,2.18C333.91,317.05,326,317.06,318,317.06Zm-.17-8.66c5.57,0,11.14-.06,16.71.05,1.63,0,2.3-.46,2.64-2.06A45.82,45.82,0,0,1,343,292c5.11-8.26,9.94-16.69,16-24.37a54.55,54.55,0,0,0,8.43-14c12.41-32.59-10.13-68.7-44.9-71.23-22.1-1.61-39.56,7.39-50.41,26.73-10.63,19-9.83,38.14,3.13,56.09,5.6,7.74,10.87,15.67,15.89,23.79,3.41,5.52,6.3,11.25,7.72,17.61.35,1.56,1,1.91,2.52,1.89C306.85,308.35,312.33,308.4,317.82,308.4Z"/><path class="cls-30" d="M239.76,195.06c-25,.24-45,18.46-47.8,43.35-2.65,23.21,13.25,45.44,36.67,51.08a46.75,46.75,0,0,0,33.17-4.15c1.73-.88,3.35-1.09,5,.12a3.81,3.81,0,0,1,1.4,4c-.3,1.65-1.51,2.48-2.92,3.16-20.55,9.78-40.36,8.45-58.83-4.82C186.29,273.36,178.7,247.52,187,224c8-22.63,30.66-38,54.57-37a28.26,28.26,0,0,1,3.69.33,3.81,3.81,0,0,1,3.37,4.32,3.72,3.72,0,0,1-3.86,3.6A45.29,45.29,0,0,1,239.76,195.06Z"/><path class="cls-30" d="M318.05,321.15h23.31c3,0,4.73,1.35,4.81,3.7s-1.69,4-4.81,4.05q-23.31,0-46.61,0c-3.19,0-4.91-1.44-4.92-3.92s1.7-3.83,4.92-3.83Z"/><path class="cls-30" d="M318,332.89h23c3.27,0,5,1.28,5.08,3.73s-1.76,4.06-5.06,4.06q-23.16,0-46.34,0c-3.17,0-4.93-1.44-4.94-3.91s1.77-3.87,4.92-3.88Z"/><path class="cls-30" d="M318.06,345.63c2.65,0,5.29-.06,7.93,0s4,1.39,4.29,4.05c.67,6.23-4.16,11.51-11.18,12.21-7.56.75-14.06-5.11-13.41-12.1.27-2.8,1.61-4.1,4.44-4.17C312.78,345.59,315.42,345.63,318.06,345.63Z"/><path class="cls-30" d="M368.59,189.27a3.84,3.84,0,0,1-2.67-6.53c2.06-2.18,4.21-4.27,6.33-6.39,3.56-3.56,7.1-7.13,10.68-10.66,2.05-2,4.42-2.23,6.06-.62s1.57,4-.48,6.06c-5.46,5.52-11,11-16.45,16.48A4.46,4.46,0,0,1,368.59,189.27Z"/><path class="cls-30" d="M401.76,240c-3.79,0-7.58,0-11.38,0-2.82,0-4.45-1.37-4.53-3.68s1.56-4,4.48-4.06q11.76-.08,23.54,0c2.92,0,4.6,1.59,4.54,4s-1.73,3.73-4.75,3.75Z"/><path class="cls-30" d="M314.12,151.93c0-3.79,0-7.59,0-11.38,0-3.14,1.48-4.92,3.92-4.87s3.76,1.77,3.76,4.75q0,11.64,0,23.28c0,2.94-1.49,4.64-3.9,4.6s-3.74-1.69-3.78-4.48C314.09,159.86,314.12,155.9,314.12,151.93Z"/><path class="cls-30" d="M316.22,247c0-7.25,0-14.5,0-21.74a2.38,2.38,0,0,0-1.81-2.67,12.25,12.25,0,0,1-7.9-14,12.41,12.41,0,0,1,24.4.2,12,12,0,0,1-7.84,13.71c-1.63.62-1.81,1.49-1.79,2.92.17,14.14.28,28.28.42,42.42,0,.62,0,1.24,0,1.86,0,1.68-.8,2.81-2.42,2.9-1.81.11-2.75-1.07-2.78-2.84-.06-4.33-.07-8.66-.09-13,0-3.27,0-6.54,0-9.81Zm2.51-28.77a7.21,7.21,0,1,0-.08-14.42,7.21,7.21,0,0,0,.08,14.42Z"/><path class="cls-30" d="M301,243a3.69,3.69,0,0,1-.18,1.64c-1.59,3.06-.27,5.1,2.18,6.83.28.2.47.54.76.73,6.46,4.31,8.29,10.37,7.71,17.94-.52,6.66,0,13.41.14,20.12,0,1.66-.33,3-2.2,3.39s-3-1-3-3.36c-.1-8.21-.25-16.43-.19-24.64,0-2.65-.44-4.82-2.7-6.44a15.08,15.08,0,0,1-2.47-2.39c-2.47-2.84-4.61-4.78-9.06-2.48s-10.47-.21-13.52-4.5A12.42,12.42,0,1,1,301,243Zm-5.21-.45a7.22,7.22,0,1,0-7.19,7.32A7.3,7.3,0,0,0,295.82,242.51Z"/><path class="cls-30" d="M326.27,265.56c0-4.6.08-9.19,0-13.79a5.75,5.75,0,0,1,2-4.89c2.69-2.42,5.15-5.1,7.82-7.55a3.11,3.11,0,0,0,1-3.8,12.24,12.24,0,0,1,8.33-15.48,12.41,12.41,0,1,1,6.76,23.88,11.4,11.4,0,0,1-9.44-1.24c-1.44-.94-2.19-.65-3.26.48-2.05,2.18-4.2,4.3-6.45,6.28a4.81,4.81,0,0,0-1.64,4.19c.19,8.66.29,17.32.42,26,0,.44,0,.88,0,1.32,0,1.77-.77,3-2.6,3s-2.6-1.26-2.6-3q0-7.69,0-15.38Zm22.56-26.36a7.25,7.25,0,1,0-7.15-7.36A7.28,7.28,0,0,0,348.83,239.2Z"/><path class="cls-30" d="M304.23,216.44c0,.44.17,1,0,1.31-2,3.59.48,5.59,2.84,7.35,4.12,3.08,5.73,6.88,5.25,12.07-.44,4.64,0,9.36.06,14,0,1.93-.46,3.51-2.63,3.47-2,0-2.51-1.56-2.53-3.37,0-5.56-.21-11.13-.17-16.7a4.27,4.27,0,0,0-1.71-3.86,9.59,9.59,0,0,1-1.7-1.67c-2-2.5-4-3.68-7.68-2.36-5.78,2.05-11.83-2.43-12.82-8.58A10.64,10.64,0,0,1,292.54,206,10.47,10.47,0,0,1,304.23,216.44Zm-10.53-5.35a5.44,5.44,0,1,0,5.38,5.41A5.43,5.43,0,0,0,293.7,211.09Z"/></svg>