<svg id="Layer_1" data-name="Layer 1" xmlns="http://www.w3.org/2000/svg" xmlns:xlink="http://www.w3.org/1999/xlink" viewBox="0 0 543 490"><defs><style>.cls-1{fill:url(#linear-gradient);}.cls-2{fill:#2a2a8c;}.cls-3{fill:url(#linear-gradient-2);}.cls-4{opacity:0.9;fill:url(#linear-gradient-3);}.cls-5{fill:url(#linear-gradient-4);}.cls-6{fill:url(#linear-gradient-5);}.cls-7{fill:url(#linear-gradient-6);}.cls-8{fill:url(#linear-gradient-7);}.cls-9{fill:url(#linear-gradient-8);}.cls-10{fill:url(#linear-gradient-9);}.cls-11{fill:url(#linear-gradient-10);}.cls-12,.cls-13,.cls-14,.cls-15,.cls-18,.cls-19,.cls-20,.cls-21,.cls-22,.cls-23,.cls-28,.cls-29{fill-opacity:0.2;}.cls-12{fill:url(#linear-gradient-11);}.cls-13{fill:url(#linear-gradient-12);}.cls-14{fill:url(#linear-gradient-13);}.cls-15{fill:url(#linear-gradient-14);}.cls-16{fill:url(#linear-gradient-15);}.cls-17{fill:url(#linear-gradient-16);}.cls-18{fill:url(#linear-gradient-17);}.cls-19{fill:url(#linear-gradient-18);}.cls-20{fill:url(#linear-gradient-19);}.cls-21{fill:url(#linear-gradient-20);}.cls-22{fill:url(#linear-gradient-21);}.cls-23{fill:url(#linear-gradient-22);}.cls-24{fill:url(#linear-gradient-23);}.cls-25{fill:url(#linear-gradient-24);}.cls-26{fill:url(#linear-gradient-25);}.cls-27{fill:url(#linear-gradient-26);}.cls-28{fill:url(#linear-gradient-27);}.cls-29{fill:url(#linear-gradient-28);}.cls-30{fill:none;stroke:#39ffff;stroke-miterlimit:10;stroke-width:2px;}</style><linearGradient id="linear-gradient" x1="0.21" y1="137.11" x2="100.9" y2="137.11" gradientUnits="userSpaceOnUse"><stop offset="0.04" stop-color="#3a3adb"/><stop offset="0.99" stop-color="#2a2a8c"/></linearGradient><linearGradient id="linear-gradient-2" x1="50.45" y1="221.61" x2="542.33" y2="221.61" gradientUnits="userSpaceOnUse"><stop offset="0.04" stop-color="#3a3adb"/><stop offset="0.77" stop-color="#2a2a8c"/></linearGradient><linearGradient id="linear-gradient-3" x1="0.16" y1="279.25" x2="446.97" y2="279.25" gradientUnits="userSpaceOnUse"><stop offset="0.04" stop-color="#3a3adb"/><stop offset="0.99" stop-color="#2a47c9"/></linearGradient><linearGradient id="linear-gradient-4" x1="340.93" y1="347.57" x2="474.87" y2="347.57" xlink:href="#linear-gradient"/><linearGradient id="linear-gradient-5" x1="71.3" y1="42.35" x2="73.9" y2="42.35" xlink:href="#linear-gradient"/><linearGradient id="linear-gradient-6" x1="71.3" y1="21.65" x2="73.9" y2="21.65" xlink:href="#linear-gradient"/><linearGradient id="linear-gradient-7" x1="77.5" y1="37.3" x2="87.4" y2="37.3" xlink:href="#linear-gradient"/><linearGradient id="linear-gradient-8" x1="57.8" y1="26.5" x2="67.7" y2="26.5" xlink:href="#linear-gradient"/><linearGradient id="linear-gradient-9" x1="57.7" y1="37.3" x2="67.6" y2="37.3" xlink:href="#linear-gradient"/><linearGradient id="linear-gradient-10" x1="77.5" y1="26.5" x2="87.4" y2="26.5" xlink:href="#linear-gradient"/><linearGradient id="linear-gradient-11" x1="208.8" y1="73.75" x2="211.41" y2="73.75" xlink:href="#linear-gradient"/><linearGradient id="linear-gradient-12" x1="208.8" y1="53.05" x2="211.41" y2="53.05" xlink:href="#linear-gradient"/><linearGradient id="linear-gradient-13" x1="193.5" y1="63.4" x2="204.21" y2="63.4" xlink:href="#linear-gradient"/><linearGradient id="linear-gradient-14" x1="216" y1="63.4" x2="226.71" y2="63.4" xlink:href="#linear-gradient"/><linearGradient id="linear-gradient-15" x1="55.91" y1="421.27" x2="90.05" y2="421.27" xlink:href="#linear-gradient"/><linearGradient id="linear-gradient-16" x1="56.05" y1="400.53" x2="90.14" y2="400.53" xlink:href="#linear-gradient"/><linearGradient id="linear-gradient-17" x1="345.5" y1="278.75" x2="348.1" y2="278.75" xlink:href="#linear-gradient-3"/><linearGradient id="linear-gradient-18" x1="345.5" y1="258.05" x2="348.1" y2="258.05" xlink:href="#linear-gradient-3"/><linearGradient id="linear-gradient-19" x1="351.8" y1="273.8" x2="361.7" y2="273.8" xlink:href="#linear-gradient-3"/><linearGradient id="linear-gradient-20" x1="332" y1="263" x2="341.9" y2="263" xlink:href="#linear-gradient-3"/><linearGradient id="linear-gradient-21" x1="331.9" y1="273.8" x2="341.8" y2="273.8" xlink:href="#linear-gradient-3"/><linearGradient id="linear-gradient-22" x1="351.7" y1="263" x2="361.6" y2="263" xlink:href="#linear-gradient-3"/><linearGradient id="linear-gradient-23" x1="474.1" y1="410.95" x2="476.7" y2="410.95" xlink:href="#linear-gradient"/><linearGradient id="linear-gradient-24" x1="474.1" y1="390.25" x2="476.7" y2="390.25" xlink:href="#linear-gradient"/><linearGradient id="linear-gradient-25" x1="458.8" y1="400.6" x2="469.5" y2="400.6" xlink:href="#linear-gradient"/><linearGradient id="linear-gradient-26" x1="481.2" y1="400.6" x2="491.91" y2="400.6" xlink:href="#linear-gradient"/><linearGradient id="linear-gradient-27" x1="480.31" y1="231.57" x2="514.45" y2="231.57" gradientUnits="userSpaceOnUse"><stop offset="0.04" stop-color="#3a3adb"/><stop offset="0.99" stop-color="#2a4b8c"/></linearGradient><linearGradient id="linear-gradient-28" x1="480.35" y1="210.83" x2="514.49" y2="210.83" xlink:href="#linear-gradient-27"/></defs><path class="cls-1" d="M89.5,126.5C79,109.2,68,97.8,50.6,89.7s-39.1-8.2-48,11.2,8.6,43.5,33.2,44.9c28.3,1.5,43.4,14.6,45,34,1,12.1,14.5,12.5,17.3,4.6C103.3,170,101.7,146.7,89.5,126.5Z"/><path class="cls-2" d="M311.5,26.9C194.9-92.8,68.2,219.8,35.7,320.8S140.6,438.1,233,456.2c147.6,28.8,215.2-27,226.7-94.2S428.1,146.7,311.5,26.9Z"/><path class="cls-3" d="M386.9,175.8C325,186.6,282.7,128,254.2,91.9c-22.4-28.4-116.5-75.1-175,8.7-53,76-31.1,189.1,52.3,246.4S342,399,420.9,363.5c49.9-22.4,112.9-64.1,120.7-123.3C550.2,175.4,481.9,159.3,386.9,175.8Z"/><path class="cls-4" d="M397.7,68.5c-2.5-.1-5-.1-7.6-.1-41.1,0-92.8,10.3-129.7,22.4L255,92.6c1.1,1.4,2.3,2.9,3.5,4.4,1.3-.4,2.5-.8,3.8-1.3,41-13.5,91.2-22.1,127.9-22.1,2.5,0,5,0,7.4.1,17.3.6,30.3,6.3,37.5,16.5,8.6,12.2,8.6,30.8-.1,52.2-3.9,9.7-7.2,18.9-9.9,28-11,36.6-13.6,72.1-14.2,134.2-.1,14.2,0,27.3.1,40,.1,8,.1,15.5.1,22.8,0,44.1-2.7,74.5-23,94.1-15.8,15.2-34.3,23.3-53.6,23.3-21.2,0-42.9-9.5-64.3-28.3C222.8,415,164,386,104.6,374.7c-45.6-8.7-81.4-17-93.8-36.9-6.7-10.9-6.7-25.6,0-45,6.3-18.1,18.4-43.1,41.9-70.5-.4-2.4-.7-4.8-1-7.1-23.6,26.5-38.1,52.7-46.2,76-21.7,62.6,25.1,74.8,97.9,88.7,58.6,11.2,115.8,39.3,162.8,80.5,24,21,47.1,29.7,68.1,29.7,22.1,0,41.8-9.7,57.6-24.9,22.1-21.4,24.6-53.8,24.6-100.1,0-18-.4-38.1-.2-60.4.6-64.3,3.4-98.8,14.5-134.7,2.6-8.3,5.7-16.8,9.2-25.6C458.1,99.7,439.9,69.9,397.7,68.5Z"/><path class="cls-5" d="M459.8,308.7c-35.5-38.4-76.5-14-105.7,29.4-27.1,40.3-10.6,87.6,33.3,58.4,38.3-25.4,61.6-18,78.7-35.1C489,338.7,459.8,308.7,459.8,308.7Z"/><path class="cls-6" d="M72.6,47.7a1.32,1.32,0,0,1-1.3-1.3V38.3a1.3,1.3,0,1,1,2.6,0v8.1A1.4,1.4,0,0,1,72.6,47.7Z"/><path class="cls-7" d="M72.6,27a1.32,1.32,0,0,1-1.3-1.3V17.6a1.3,1.3,0,1,1,2.6,0v8.1A1.32,1.32,0,0,1,72.6,27Z"/><path class="cls-8" d="M85.3,40.3l-7.1-3.8a1.13,1.13,0,0,1-.5-1.7,1.54,1.54,0,0,1,1.9-.5l7.1,3.8a1.13,1.13,0,0,1,.5,1.7A1.54,1.54,0,0,1,85.3,40.3Z"/><path class="cls-9" d="M65.6,29.5l-7.1-3.8A1.13,1.13,0,0,1,58,24a1.54,1.54,0,0,1,1.9-.5L67,27.3a1.13,1.13,0,0,1,.5,1.7A1.57,1.57,0,0,1,65.6,29.5Z"/><path class="cls-10" d="M57.9,39.8a1.13,1.13,0,0,1,.5-1.7l7.1-3.8a1.54,1.54,0,0,1,1.9.5,1.13,1.13,0,0,1-.5,1.7l-7.1,3.8A1.54,1.54,0,0,1,57.9,39.8Z"/><path class="cls-11" d="M77.7,29a1.13,1.13,0,0,1,.5-1.7l7.1-3.8a1.54,1.54,0,0,1,1.9.5,1.13,1.13,0,0,1-.5,1.7l-7.1,3.8A1.54,1.54,0,0,1,77.7,29Z"/><path class="cls-12" d="M210.1,79.1a1.32,1.32,0,0,1-1.3-1.3V69.7a1.3,1.3,0,0,1,2.6,0v8.1A1.21,1.21,0,0,1,210.1,79.1Z"/><path class="cls-13" d="M210.1,58.4a1.32,1.32,0,0,1-1.3-1.3V49a1.3,1.3,0,0,1,2.6,0v8.1A1.21,1.21,0,0,1,210.1,58.4Z"/><path class="cls-14" d="M202.9,64.7h-8.1a1.3,1.3,0,0,1,0-2.6h8.1a1.32,1.32,0,0,1,1.3,1.3A1.21,1.21,0,0,1,202.9,64.7Z"/><path class="cls-15" d="M225.4,64.7h-8.1a1.3,1.3,0,0,1,0-2.6h8.1a1.32,1.32,0,0,1,1.3,1.3A1.21,1.21,0,0,1,225.4,64.7Z"/><path class="cls-16" d="M73,428a17.92,17.92,0,0,1-17-11.7,1.27,1.27,0,0,1,1-1.7,1.31,1.31,0,0,1,1.6.8,15.42,15.42,0,0,0,28.8,0,1.38,1.38,0,0,1,2.6.9A18.06,18.06,0,0,1,73,428Z"/><path class="cls-17" d="M89.1,407.2a1.31,1.31,0,0,1-1.6-.8,15.42,15.42,0,0,0-28.8,0,1.38,1.38,0,0,1-2.6-.9,18.2,18.2,0,0,1,34,0A1.45,1.45,0,0,1,89.1,407.2Z"/><path class="cls-18" d="M346.8,284.1a1.32,1.32,0,0,1-1.3-1.3v-8.1a1.3,1.3,0,0,1,2.6,0v8.1A1.32,1.32,0,0,1,346.8,284.1Z"/><path class="cls-19" d="M346.8,263.4a1.32,1.32,0,0,1-1.3-1.3V254a1.3,1.3,0,0,1,2.6,0v8.1A1.32,1.32,0,0,1,346.8,263.4Z"/><path class="cls-20" d="M359.6,276.8l-7.1-3.8a1.13,1.13,0,0,1-.5-1.7,1.54,1.54,0,0,1,1.9-.5l7.1,3.8a1.13,1.13,0,0,1,.5,1.7A1.57,1.57,0,0,1,359.6,276.8Z"/><path class="cls-21" d="M339.8,266l-7.1-3.8a1.13,1.13,0,0,1-.5-1.7,1.54,1.54,0,0,1,1.9-.5l7.1,3.8a1.13,1.13,0,0,1,.5,1.7A1.57,1.57,0,0,1,339.8,266Z"/><path class="cls-22" d="M332.1,276.3a1.13,1.13,0,0,1,.5-1.7l7.1-3.8a1.54,1.54,0,0,1,1.9.5,1.13,1.13,0,0,1-.5,1.7l-7.1,3.8A1.57,1.57,0,0,1,332.1,276.3Z"/><path class="cls-23" d="M351.9,265.5a1.13,1.13,0,0,1,.5-1.7l7.1-3.8a1.54,1.54,0,0,1,1.9.5,1.13,1.13,0,0,1-.5,1.7l-7.1,3.8A1.54,1.54,0,0,1,351.9,265.5Z"/><path class="cls-24" d="M475.4,416.3a1.32,1.32,0,0,1-1.3-1.3v-8.1a1.3,1.3,0,0,1,2.6,0V415A1.32,1.32,0,0,1,475.4,416.3Z"/><path class="cls-25" d="M475.4,395.6a1.32,1.32,0,0,1-1.3-1.3v-8.1a1.3,1.3,0,0,1,2.6,0v8.1A1.32,1.32,0,0,1,475.4,395.6Z"/><path class="cls-26" d="M468.2,401.9h-8.1a1.3,1.3,0,0,1,0-2.6h8.1a1.3,1.3,0,1,1,0,2.6Z"/><path class="cls-27" d="M490.6,401.9h-8.1a1.3,1.3,0,0,1,0-2.6h8.1a1.32,1.32,0,0,1,1.3,1.3A1.21,1.21,0,0,1,490.6,401.9Z"/><path class="cls-28" d="M497.4,238.3a17.92,17.92,0,0,1-17-11.7,1.27,1.27,0,0,1,1-1.7,1.31,1.31,0,0,1,1.6.8,15.42,15.42,0,0,0,28.8,0,1.38,1.38,0,0,1,2.6.9A18.06,18.06,0,0,1,497.4,238.3Z"/><path class="cls-29" d="M513.4,217.5a1.31,1.31,0,0,1-1.6-.8,15.42,15.42,0,0,0-28.8,0,1.38,1.38,0,0,1-2.6-.9,18.2,18.2,0,0,1,34,0A1.3,1.3,0,0,1,513.4,217.5Z"/><path class="cls-30" d="M158.64,265c-5.88,7.44-5.88,7.44-13.54,2.69-10.5-6.52-21-13.14-31.55-19.52-3.43-2.07-3.62-4-1.38-7.16q23-32.85,45.74-65.92c2.25-3.27,4.27-3.88,7.7-1.69q17.26,11,34.78,21.62c3.23,1.95,4.39,3.84,1.73,7-2,2.33-.07,2.44,1.61,2.59,5.87.53,11.68-.27,17.45-1,13.16-1.75,26.14-1.5,38.77,3,1.8.65,2.93.06,4.3-.74,3.2-1.84,6.46-3.59,9.67-5.41,10.69-6.07,21.76-6.57,33.36-2.85,8.51,2.72,16.77,6.4,25.81,7.24a38,38,0,0,0,4.26.23c1.8,0,3.81.26,3-2.87-.42-1.56,1.14-2.4,2.46-3.08q19.92-10.2,39.83-20.44c2.56-1.32,4.25-.64,5.63,1.77q21.6,37.75,43.26,75.49c1.46,2.54.94,4.2-1.63,5.51Q409.93,271.6,390,281.87c-2.55,1.31-4.51.77-5.6-1.77-1-2.37-2.48-2.17-4.46-1.52a174.79,174.79,0,0,0-25.76,11c.12,1.49,1.44,1.79,2.22,2.52,4.8,4.51,6.66,9.83,4.46,16.21a15.63,15.63,0,0,1-14.49,10.73c-2.76,0-3.38.81-3.8,3.37a15.63,15.63,0,0,1-17.41,13.36c-1.9-.17-2.24.29-2.78,1.94-2.45,7.54-7.82,10.92-15.62,10.13-1-.1-1.92-.77-2.8.79-4.6,8.19-9.93,10.69-19.22,9.49-8.39-1.09-15.84-4.52-22.69-9.25-2.26-1.56-3.7-1.79-5.69.35-2.42,2.6-5.49,4.6-7.83,7.24-6.54,7.39-17.94,3.36-21.07-4.46-.86-2.15-1.91-2.78-4.18-3.15-6.58-1.08-11.12-4.91-12.74-11.56-.49-2-1.19-2.58-3.34-2.64-7.87-.21-13.15-4.63-14.58-12.32-.44-2.37-1.61-2.38-3.37-2.64-8.61-1.31-16-8.41-14.24-15.66,1.46-6.16-1.21-10.05-3.58-14.63C167.32,281.37,164.34,272.7,158.64,265ZM232.7,257c3.47,1.62,7,.5,10.57.44l5.87-.84a25.13,25.13,0,0,0,7.74-2.1l6.08-1.88a2.31,2.31,0,0,0,2.51-.74,26.83,26.83,0,0,0,9-3.17l7.27-3c2.74-1.51,5.07-1.09,7.7.74,3.51,2.45,6.7,5.46,10.78,7.06l6.23,4.39q19.86,13.53,39.69,27.1c1.45,1,2.48.72,3.85,0,9-4.57,18.05-8.92,27.71-11.88,1.47-.46,2.38-.77,1.31-2.49-2.53-4.07-5-8.2-7.47-12.3a68.28,68.28,0,0,0-7.91-13.55c-5.42-11.43-12.43-22-18.42-33.07-.94-1.74-2.21-1.36-3.61-1.14a37,37,0,0,1-15.64-1c-7.51-2.11-14.94-4.5-22.37-6.87-9-2.87-17.55-1.91-25.95,2.44a151.32,151.32,0,0,0-41.38,30.91A37.16,37.16,0,0,0,229.6,244C223.86,252.28,224.47,254.86,232.7,257Zm-61.21-22.46a6.18,6.18,0,0,0,2.66-3.7c7.64-9.54,14-20,21.18-29.88,1.53-2.11-.64-2.39-1.6-3-9.39-5.9-18.87-11.66-28.24-17.61-1.93-1.23-2.91-1.3-4.31.73q-20.82,30.24-41.86,60.32c-1.42,2-.8,2.74,1,3.79,4.79,2.79,9.28,6.07,14.32,8.43a31.42,31.42,0,0,0,7.77,5c8.32,6.32,8.32,6.32,14.06-2.07.32-.47.58-1,.87-1.45,1.91-2,3.81-4.12,4.7-6.88A65.07,65.07,0,0,0,171.49,234.54Zm56.6,1.11,9.26-9.57a224.8,224.8,0,0,1,18.34-14.69,72.64,72.64,0,0,0-24.28-2.9c-11,.55-21.94,3.8-33.06,1.19-1.44-.34-2,.58-2.69,1.54l-12.47,18.27.06-.05a31.3,31.3,0,0,0-5.08,7.64,28,28,0,0,0-5.15,7.18c-3.05,4.26-6,8.67-9.25,12.73-1.27,1.55-1.84,2.38-.45,4.1,4.67,5.83,7.59,12.65,10.72,19.35,2.1,4.5,3.94,9.14,7.19,13.32,3.9-3.51,8-6.65,11.43-10.38,8.57-9.27,21.16-3.31,24.6,5,1.14,2.75,2.08,3.08,4.77,2.28,5.55-1.64,10.46.2,14.39,4.22s5.3,8.87,3.05,14.12c-1,2.38.22,2.55,1.7,3.15,4.79,1.94,8.11,5.36,9.3,10.38.52,2.17,1.48,2.82,3.48,3.39,6.74,1.92,10.48,7.54,9.71,14.52a3,3,0,0,0,1.54,3.46c5.67,3.62,11.53,6.78,18.22,8.07,3.54.68,7.1.87,10.52-.52,4.78-1.95,5.47-5.92,1.43-9.17a73.51,73.51,0,0,0-7.88-5.08c-8.74-5.34-17.52-10.62-26.26-15.95-1.89-1.16-4.56-2.24-2.7-5.14,1.56-2.44,3.7-1.29,5.61-.13,11.06,6.73,22.15,13.4,33.15,20.21,2.89,1.79,5.44,4.15,8.66,5.37,3.61,1.38,6.8.63,9.14-2.49s1.87-6.4-.48-9.41a18.25,18.25,0,0,0-4.94-4q-17-10.68-33.93-21.41c-1.84-1.17-4.08-2.36-2.54-4.92,1.66-2.76,3.88-1.35,5.88-.09l30.31,19.14c4.08,2.57,8.11,5.12,11.32,8.93s8.11,3.72,11.92.72c5.9-4.66,5.36-11.79-1.4-16.27q-24.56-16.26-49.2-32.38c-1.81-1.19-3.37-2.57-1.83-4.8,1.31-1.9,3.18-1.55,4.9-.38,17.95,12.29,36.82,23.22,54.16,36.41,6,4.54,13.13,2.9,15.69-3.94,1.68-4.5.08-8.41-5-11.87-20.59-14-41.26-27.84-61.75-42-3-2-5.11-1.41-7.61.17L274,255.68c-7.66,2.43-15.2,5.31-23.15,6.68-10.43,1.79-20.85,3-29.79-4.78a11.77,11.77,0,0,1-1-8.59C221.67,243.92,224.86,239.76,228.09,235.65ZM410,231.59c.93-1.74-1-2-1.52-3.07-7.9-13.93-15.83-27.83-23.64-41.82-1.19-2.13-2.3-1.34-3.72-.61-10.2,5.27-20.36,10.64-30.67,15.71-2.72,1.34-2.49,2.46-1.19,4.66,5,8.43,9.77,17,14.64,25.45,1.28,2.05,2.15,4.37,4,6.06,1.88,5.24,5.34,9.62,7.79,14.55l3.39,5.09c2.46,5.91,6.25,11.08,9.21,16.71.63,1.19,1.3,1.13,2.38.57q16.44-8.53,32.92-17c1.15-.58,1.43-1.19.76-2.29C419.39,247.68,415.44,239.18,410,231.59Zm-175.7,72.75a8.55,8.55,0,0,0-5-7.39c-3.24-1.57-6.34-1.32-9.08,1.14-6.13,5.5-12.26,11-18.34,16.54-3.88,3.53-4.24,7.59-1.14,11.17a8.31,8.31,0,0,0,12.12.84c6.4-5.61,12.65-11.39,19-17.07A7.09,7.09,0,0,0,234.25,304.34ZM190.42,314c2.1.19,3.51-1,4.9-2.26q6.94-6.3,13.92-12.59c4-3.63,4.23-7,.68-10.93s-8.24-4.64-11.91-1.37c-4.56,4.06-9,8.26-13.62,12.27-2.52,2.19-4.53,4.37-3,8A10.88,10.88,0,0,0,190.42,314Zm33.68,29.2a5,5,0,0,0,4.33-1.5c4.43-4.17,8.93-8.27,13.42-12.38,3.52-3.21,3.71-5.45.72-8.95-3.14-3.69-7.14-4.4-10.32-1.63-4.28,3.71-8.39,7.61-12.67,11.33-2.29,2-4.11,4-2.63,7.27C218.54,340.76,221.2,342.86,224.1,343.15Zm15.44,11.36a5.06,5.06,0,0,0,3.72-1.42c4.2-3.82,8.45-7.57,12.59-11.45,2.67-2.5,2.58-5.33-.38-8-2.38-2.18-4.94-3.84-8.1-.75-3.85,3.76-7.91,7.31-12,10.86-1.77,1.55-3.51,3-2.34,5.69A8,8,0,0,0,239.54,354.51Z"/><path class="cls-30" d="M215.85,146.37a4.94,4.94,0,0,1,4,2.08Q230,160.23,240.17,172c1.6,1.87,2.73,4,.53,6s-4.32.73-5.92-1.11q-10.5-12-20.86-24.22c-1.16-1.35-1.83-2.91-.86-4.69A2.93,2.93,0,0,1,215.85,146.37Z"/><path class="cls-30" d="M311.57,149.49c.1,1.74-1,2.91-2,4.09q-9.58,11.16-19.22,22.27a12.28,12.28,0,0,1-2.09,2.11c-1.49,1.06-3.15,1.49-4.69.12-1.7-1.49-1.57-3.33-.3-5,2.47-3.11,5.09-6.11,7.68-9.13q6.81-7.92,13.67-15.8a4.39,4.39,0,0,1,4.93-1.64A2.83,2.83,0,0,1,311.57,149.49Z"/><path class="cls-30" d="M266.16,149.82c0,5,0,9.92,0,14.88,0,2.65-.75,5.05-3.91,4.94-2.87-.1-3.58-2.36-3.58-4.86q0-15.09,0-30.19c0-2.71.88-5.08,3.91-5,2.7.1,3.62,2.33,3.61,4.89C266.14,139.61,266.16,144.71,266.16,149.82Z"/></svg>