<svg id="Layer_1" data-name="Layer 1" xmlns="http://www.w3.org/2000/svg" xmlns:xlink="http://www.w3.org/1999/xlink" viewBox="0 0 543 490"><defs><style>.cls-1{fill:url(#linear-gradient);}.cls-2{fill:#2a2a8c;}.cls-3{fill:url(#linear-gradient-2);}.cls-4{opacity:0.9;fill:url(#linear-gradient-3);}.cls-5{fill:url(#linear-gradient-4);}.cls-6{fill:url(#linear-gradient-5);}.cls-7{fill:url(#linear-gradient-6);}.cls-8{fill:url(#linear-gradient-7);}.cls-9{fill:url(#linear-gradient-8);}.cls-10{fill:url(#linear-gradient-9);}.cls-11{fill:url(#linear-gradient-10);}.cls-12,.cls-13,.cls-14,.cls-15,.cls-18,.cls-19,.cls-20,.cls-21,.cls-22,.cls-23,.cls-28,.cls-29{fill-opacity:0.2;}.cls-12{fill:url(#linear-gradient-11);}.cls-13{fill:url(#linear-gradient-12);}.cls-14{fill:url(#linear-gradient-13);}.cls-15{fill:url(#linear-gradient-14);}.cls-16{fill:url(#linear-gradient-15);}.cls-17{fill:url(#linear-gradient-16);}.cls-18{fill:url(#linear-gradient-17);}.cls-19{fill:url(#linear-gradient-18);}.cls-20{fill:url(#linear-gradient-19);}.cls-21{fill:url(#linear-gradient-20);}.cls-22{fill:url(#linear-gradient-21);}.cls-23{fill:url(#linear-gradient-22);}.cls-24{fill:url(#linear-gradient-23);}.cls-25{fill:url(#linear-gradient-24);}.cls-26{fill:url(#linear-gradient-25);}.cls-27{fill:url(#linear-gradient-26);}.cls-28{fill:url(#linear-gradient-27);}.cls-29{fill:url(#linear-gradient-28);}.cls-30{fill:none;stroke:#39ffff;stroke-miterlimit:10;stroke-width:2px;}</style><linearGradient id="linear-gradient" x1="0.21" y1="137.11" x2="100.9" y2="137.11" gradientUnits="userSpaceOnUse"><stop offset="0.04" stop-color="#3a3adb"/><stop offset="0.99" stop-color="#2a2a8c"/></linearGradient><linearGradient id="linear-gradient-2" x1="50.45" y1="221.61" x2="542.33" y2="221.61" gradientUnits="userSpaceOnUse"><stop offset="0.04" stop-color="#3a3adb"/><stop offset="0.77" stop-color="#2a2a8c"/></linearGradient><linearGradient id="linear-gradient-3" x1="0.16" y1="279.25" x2="446.97" y2="279.25" gradientUnits="userSpaceOnUse"><stop offset="0.04" stop-color="#3a3adb"/><stop offset="0.99" stop-color="#2a47c9"/></linearGradient><linearGradient id="linear-gradient-4" x1="340.93" y1="347.57" x2="474.87" y2="347.57" xlink:href="#linear-gradient"/><linearGradient id="linear-gradient-5" x1="71.3" y1="42.35" x2="73.9" y2="42.35" xlink:href="#linear-gradient"/><linearGradient id="linear-gradient-6" x1="71.3" y1="21.65" x2="73.9" y2="21.65" xlink:href="#linear-gradient"/><linearGradient id="linear-gradient-7" x1="77.5" y1="37.3" x2="87.4" y2="37.3" xlink:href="#linear-gradient"/><linearGradient id="linear-gradient-8" x1="57.8" y1="26.5" x2="67.7" y2="26.5" xlink:href="#linear-gradient"/><linearGradient id="linear-gradient-9" x1="57.7" y1="37.3" x2="67.6" y2="37.3" xlink:href="#linear-gradient"/><linearGradient id="linear-gradient-10" x1="77.5" y1="26.5" x2="87.4" y2="26.5" xlink:href="#linear-gradient"/><linearGradient id="linear-gradient-11" x1="208.8" y1="73.75" x2="211.41" y2="73.75" xlink:href="#linear-gradient"/><linearGradient id="linear-gradient-12" x1="208.8" y1="53.05" x2="211.41" y2="53.05" xlink:href="#linear-gradient"/><linearGradient id="linear-gradient-13" x1="193.5" y1="63.4" x2="204.21" y2="63.4" xlink:href="#linear-gradient"/><linearGradient id="linear-gradient-14" x1="216" y1="63.4" x2="226.71" y2="63.4" xlink:href="#linear-gradient"/><linearGradient id="linear-gradient-15" x1="55.91" y1="421.27" x2="90.05" y2="421.27" xlink:href="#linear-gradient"/><linearGradient id="linear-gradient-16" x1="56.05" y1="400.53" x2="90.14" y2="400.53" xlink:href="#linear-gradient"/><linearGradient id="linear-gradient-17" x1="345.5" y1="278.75" x2="348.1" y2="278.75" xlink:href="#linear-gradient-3"/><linearGradient id="linear-gradient-18" x1="345.5" y1="258.05" x2="348.1" y2="258.05" xlink:href="#linear-gradient-3"/><linearGradient id="linear-gradient-19" x1="351.8" y1="273.8" x2="361.7" y2="273.8" xlink:href="#linear-gradient-3"/><linearGradient id="linear-gradient-20" x1="332" y1="263" x2="341.9" y2="263" xlink:href="#linear-gradient-3"/><linearGradient id="linear-gradient-21" x1="331.9" y1="273.8" x2="341.8" y2="273.8" xlink:href="#linear-gradient-3"/><linearGradient id="linear-gradient-22" x1="351.7" y1="263" x2="361.6" y2="263" xlink:href="#linear-gradient-3"/><linearGradient id="linear-gradient-23" x1="474.1" y1="410.95" x2="476.7" y2="410.95" xlink:href="#linear-gradient"/><linearGradient id="linear-gradient-24" x1="474.1" y1="390.25" x2="476.7" y2="390.25" xlink:href="#linear-gradient"/><linearGradient id="linear-gradient-25" x1="458.8" y1="400.6" x2="469.5" y2="400.6" xlink:href="#linear-gradient"/><linearGradient id="linear-gradient-26" x1="481.2" y1="400.6" x2="491.91" y2="400.6" xlink:href="#linear-gradient"/><linearGradient id="linear-gradient-27" x1="480.31" y1="231.57" x2="514.45" y2="231.57" gradientUnits="userSpaceOnUse"><stop offset="0.04" stop-color="#3a3adb"/><stop offset="0.99" stop-color="#2a4b8c"/></linearGradient><linearGradient id="linear-gradient-28" x1="480.35" y1="210.83" x2="514.49" y2="210.83" xlink:href="#linear-gradient-27"/></defs><path class="cls-1" d="M89.5,126.5C79,109.2,68,97.8,50.6,89.7s-39.1-8.2-48,11.2,8.6,43.5,33.2,44.9c28.3,1.5,43.4,14.6,45,34,1,12.1,14.5,12.5,17.3,4.6C103.3,170,101.7,146.7,89.5,126.5Z"/><path class="cls-2" d="M311.5,26.9C194.9-92.8,68.2,219.8,35.7,320.8S140.6,438.1,233,456.2c147.6,28.8,215.2-27,226.7-94.2S428.1,146.7,311.5,26.9Z"/><path class="cls-3" d="M386.9,175.8C325,186.6,282.7,128,254.2,91.9c-22.4-28.4-116.5-75.1-175,8.7-53,76-31.1,189.1,52.3,246.4S342,399,420.9,363.5c49.9-22.4,112.9-64.1,120.7-123.3C550.2,175.4,481.9,159.3,386.9,175.8Z"/><path class="cls-4" d="M397.7,68.5c-2.5-.1-5-.1-7.6-.1-41.1,0-92.8,10.3-129.7,22.4L255,92.6c1.1,1.4,2.3,2.9,3.5,4.4,1.3-.4,2.5-.8,3.8-1.3,41-13.5,91.2-22.1,127.9-22.1,2.5,0,5,0,7.4.1,17.3.6,30.3,6.3,37.5,16.5,8.6,12.2,8.6,30.8-.1,52.2-3.9,9.7-7.2,18.9-9.9,28-11,36.6-13.6,72.1-14.2,134.2-.1,14.2,0,27.3.1,40,.1,8,.1,15.5.1,22.8,0,44.1-2.7,74.5-23,94.1-15.8,15.2-34.3,23.3-53.6,23.3-21.2,0-42.9-9.5-64.3-28.3C222.8,415,164,386,104.6,374.7c-45.6-8.7-81.4-17-93.8-36.9-6.7-10.9-6.7-25.6,0-45,6.3-18.1,18.4-43.1,41.9-70.5-.4-2.4-.7-4.8-1-7.1-23.6,26.5-38.1,52.7-46.2,76-21.7,62.6,25.1,74.8,97.9,88.7,58.6,11.2,115.8,39.3,162.8,80.5,24,21,47.1,29.7,68.1,29.7,22.1,0,41.8-9.7,57.6-24.9,22.1-21.4,24.6-53.8,24.6-100.1,0-18-.4-38.1-.2-60.4.6-64.3,3.4-98.8,14.5-134.7,2.6-8.3,5.7-16.8,9.2-25.6C458.1,99.7,439.9,69.9,397.7,68.5Z"/><path class="cls-5" d="M459.8,308.7c-35.5-38.4-76.5-14-105.7,29.4-27.1,40.3-10.6,87.6,33.3,58.4,38.3-25.4,61.6-18,78.7-35.1C489,338.7,459.8,308.7,459.8,308.7Z"/><path class="cls-6" d="M72.6,47.7a1.32,1.32,0,0,1-1.3-1.3V38.3a1.3,1.3,0,1,1,2.6,0v8.1A1.4,1.4,0,0,1,72.6,47.7Z"/><path class="cls-7" d="M72.6,27a1.32,1.32,0,0,1-1.3-1.3V17.6a1.3,1.3,0,1,1,2.6,0v8.1A1.32,1.32,0,0,1,72.6,27Z"/><path class="cls-8" d="M85.3,40.3l-7.1-3.8a1.13,1.13,0,0,1-.5-1.7,1.54,1.54,0,0,1,1.9-.5l7.1,3.8a1.13,1.13,0,0,1,.5,1.7A1.54,1.54,0,0,1,85.3,40.3Z"/><path class="cls-9" d="M65.6,29.5l-7.1-3.8A1.13,1.13,0,0,1,58,24a1.54,1.54,0,0,1,1.9-.5L67,27.3a1.13,1.13,0,0,1,.5,1.7A1.57,1.57,0,0,1,65.6,29.5Z"/><path class="cls-10" d="M57.9,39.8a1.13,1.13,0,0,1,.5-1.7l7.1-3.8a1.54,1.54,0,0,1,1.9.5,1.13,1.13,0,0,1-.5,1.7l-7.1,3.8A1.54,1.54,0,0,1,57.9,39.8Z"/><path class="cls-11" d="M77.7,29a1.13,1.13,0,0,1,.5-1.7l7.1-3.8a1.54,1.54,0,0,1,1.9.5,1.13,1.13,0,0,1-.5,1.7l-7.1,3.8A1.54,1.54,0,0,1,77.7,29Z"/><path class="cls-12" d="M210.1,79.1a1.32,1.32,0,0,1-1.3-1.3V69.7a1.3,1.3,0,0,1,2.6,0v8.1A1.21,1.21,0,0,1,210.1,79.1Z"/><path class="cls-13" d="M210.1,58.4a1.32,1.32,0,0,1-1.3-1.3V49a1.3,1.3,0,0,1,2.6,0v8.1A1.21,1.21,0,0,1,210.1,58.4Z"/><path class="cls-14" d="M202.9,64.7h-8.1a1.3,1.3,0,0,1,0-2.6h8.1a1.32,1.32,0,0,1,1.3,1.3A1.21,1.21,0,0,1,202.9,64.7Z"/><path class="cls-15" d="M225.4,64.7h-8.1a1.3,1.3,0,0,1,0-2.6h8.1a1.32,1.32,0,0,1,1.3,1.3A1.21,1.21,0,0,1,225.4,64.7Z"/><path class="cls-16" d="M73,428a17.92,17.92,0,0,1-17-11.7,1.27,1.27,0,0,1,1-1.7,1.31,1.31,0,0,1,1.6.8,15.42,15.42,0,0,0,28.8,0,1.38,1.38,0,0,1,2.6.9A18.06,18.06,0,0,1,73,428Z"/><path class="cls-17" d="M89.1,407.2a1.31,1.31,0,0,1-1.6-.8,15.42,15.42,0,0,0-28.8,0,1.38,1.38,0,0,1-2.6-.9,18.2,18.2,0,0,1,34,0A1.45,1.45,0,0,1,89.1,407.2Z"/><path class="cls-18" d="M346.8,284.1a1.32,1.32,0,0,1-1.3-1.3v-8.1a1.3,1.3,0,0,1,2.6,0v8.1A1.32,1.32,0,0,1,346.8,284.1Z"/><path class="cls-19" d="M346.8,263.4a1.32,1.32,0,0,1-1.3-1.3V254a1.3,1.3,0,0,1,2.6,0v8.1A1.32,1.32,0,0,1,346.8,263.4Z"/><path class="cls-20" d="M359.6,276.8l-7.1-3.8a1.13,1.13,0,0,1-.5-1.7,1.54,1.54,0,0,1,1.9-.5l7.1,3.8a1.13,1.13,0,0,1,.5,1.7A1.57,1.57,0,0,1,359.6,276.8Z"/><path class="cls-21" d="M339.8,266l-7.1-3.8a1.13,1.13,0,0,1-.5-1.7,1.54,1.54,0,0,1,1.9-.5l7.1,3.8a1.13,1.13,0,0,1,.5,1.7A1.57,1.57,0,0,1,339.8,266Z"/><path class="cls-22" d="M332.1,276.3a1.13,1.13,0,0,1,.5-1.7l7.1-3.8a1.54,1.54,0,0,1,1.9.5,1.13,1.13,0,0,1-.5,1.7l-7.1,3.8A1.57,1.57,0,0,1,332.1,276.3Z"/><path class="cls-23" d="M351.9,265.5a1.13,1.13,0,0,1,.5-1.7l7.1-3.8a1.54,1.54,0,0,1,1.9.5,1.13,1.13,0,0,1-.5,1.7l-7.1,3.8A1.54,1.54,0,0,1,351.9,265.5Z"/><path class="cls-24" d="M475.4,416.3a1.32,1.32,0,0,1-1.3-1.3v-8.1a1.3,1.3,0,0,1,2.6,0V415A1.32,1.32,0,0,1,475.4,416.3Z"/><path class="cls-25" d="M475.4,395.6a1.32,1.32,0,0,1-1.3-1.3v-8.1a1.3,1.3,0,0,1,2.6,0v8.1A1.32,1.32,0,0,1,475.4,395.6Z"/><path class="cls-26" d="M468.2,401.9h-8.1a1.3,1.3,0,0,1,0-2.6h8.1a1.3,1.3,0,1,1,0,2.6Z"/><path class="cls-27" d="M490.6,401.9h-8.1a1.3,1.3,0,0,1,0-2.6h8.1a1.32,1.32,0,0,1,1.3,1.3A1.21,1.21,0,0,1,490.6,401.9Z"/><path class="cls-28" d="M497.4,238.3a17.92,17.92,0,0,1-17-11.7,1.27,1.27,0,0,1,1-1.7,1.31,1.31,0,0,1,1.6.8,15.42,15.42,0,0,0,28.8,0,1.38,1.38,0,0,1,2.6.9A18.06,18.06,0,0,1,497.4,238.3Z"/><path class="cls-29" d="M513.4,217.5a1.31,1.31,0,0,1-1.6-.8,15.42,15.42,0,0,0-28.8,0,1.38,1.38,0,0,1-2.6-.9,18.2,18.2,0,0,1,34,0A1.3,1.3,0,0,1,513.4,217.5Z"/><path class="cls-30" d="M234.63,171.32v-43.5c0-4.35,1.26-5.6,5.63-5.6,12.63,0,25.25,0,37.87,0a7,7,0,0,1,5.45,2.18q11.24,11.4,22.61,22.62a6.78,6.78,0,0,1,2.19,5.2c-.06,21,0,42,0,62.95,0,4-1.36,5.37-5.35,5.37-8.45,0-16.89.05-25.33,0-1.63,0-2.13.35-2.12,2.06q.1,23,0,46.06c0,1.72.59,2.24,2.14,2.69q45.44,13.19,90.84,26.49c5,1.46,5.34,1.94,5.34,7.11q0,14.58,0,29.17c0,3.34-.74,4.38-3.95,5.32q-48.11,14.06-96.21,28.1a7.09,7.09,0,0,1-4.23,0Q221.26,353.39,173,339.33c-3.07-.9-3.89-1.95-3.89-5.08q0-15.48,0-31c0-3.13.8-4.13,3.93-5.05q46.15-13.5,92.31-26.94c1.66-.48,2.07-1.13,2.07-2.76-.07-15.27-.09-30.54,0-45.8,0-2.09-.69-2.29-2.44-2.27-7.94.08-15.87,0-23.8,0-5.7,0-6.58-.9-6.58-6.71Zm32.68,107.93-79.23,23.1c1.53.51,2.28.8,3.06,1q39.06,11.38,78.12,22.79a7.93,7.93,0,0,0,4.7-.05q34.77-10.19,69.56-20.27c3.6-1,7.19-2.15,10.79-3.22l-.06-.47-78.47-22.9v21.41c1.85-1.91,3.38-3.52,4.94-5.09,4.34-4.36,4.3-4.3,8.74.15,1.13,1.14,1.08,1.71,0,2.8-4.83,4.7-9.54,9.52-14.33,14.27-2.64,2.62-4.58,2.61-7.23,0-3.75-3.72-7.48-7.48-11.22-11.21-4.62-4.61-4.6-4.58.14-9.1,1-.92,1.5-1,2.43,0,2.55,2.66,5.21,5.23,8.09,8.1ZM242.82,171.36c0,13,0,25.94,0,38.9,0,1.36,0,2.11,1.82,2.1q26.88-.12,53.74,0c1.46,0,1.82-.4,1.82-1.83q-.07-26.88,0-53.74c0-1.47-.41-1.84-1.84-1.82-5.88.08-11.77.05-17.66,0-3.66,0-5.09-1.44-5.1-5.11,0-5.8-.07-11.6,0-17.4,0-1.67-.41-2.12-2.09-2.1-9.47.08-18.93.1-28.4,0-1.92,0-2.37.45-2.36,2.36C242.87,145.6,242.82,158.48,242.82,171.36Zm24.57,187c0-7.82,0-15.4,0-23,0-1.33-.79-1.47-1.71-1.73q-43.2-12.58-86.4-25.22c-1.9-.56-2.05,0-2,1.61.07,6.65.08,13.3,0,20,0,1.64.47,2.26,2.09,2.73,21,6.05,41.94,12.21,62.9,18.33Zm8.19-.25a2.31,2.31,0,0,0,.65.08q44.07-12.82,88.14-25.63c1.15-.34,1.33-1,1.32-2.05,0-6.91-.09-13.82,0-20.72,0-2-.63-1.74-2-1.32-8.22,2.46-16.47,4.83-24.71,7.23l-61.43,17.92c-.92.27-2,.22-2,1.76C275.62,343,275.58,350.54,275.58,358.1Zm8.19-221.38c0,2.95,0,5.75,0,8.56,0,.74-.21,1.55,1,1.52,3-.05,6,0,9.13,0Z"/><path class="cls-30" d="M316.53,259.83c3-3.07,5.65-5.64,8.17-8.29.9-.95,1.44-1,2.42,0,4.77,4.5,4.8,4.47.17,9.1-3.73,3.74-7.46,7.49-11.22,11.21-2.66,2.63-4.6,2.65-7.22,0-4.78-4.75-9.5-9.56-14.32-14.27-1.08-1.05-1.36-1.7-.06-2.78,1.56-1.29,2.88-3.79,4.46-3.92s3,2.5,4.43,3.9,3,3,4.68,4.78a16.86,16.86,0,0,0,.28-5.14c.06-12.94,8.73-21.61,21.69-21.63,3.75,0,7.5.05,11.25,0a12.43,12.43,0,0,0,12-10.27c.27-1.49,0-2.06-1.71-2-8.52.1-17.05,0-25.58,0-4,0-5.34-1.36-5.34-5.38q0-43.76,0-87.52c0-4,1.34-5.38,5.33-5.38,12.88,0,25.76,0,38.64,0a6.2,6.2,0,0,1,4.76,2q11.43,11.54,23,23a6.49,6.49,0,0,1,2,5q-.06,31.47,0,63c0,4-1.34,5.41-5.31,5.41-8.45,0-16.89,0-25.34,0-1.51,0-2.06.23-2.24,2A20.4,20.4,0,0,1,340.88,241c-4,0-8,0-12,0a12.27,12.27,0,0,0-12.32,12.37C316.51,255.3,316.53,257.23,316.53,259.83Zm12.29-88.48q0,19.46,0,38.9c0,1.33,0,2.12,1.8,2.11q26.86-.12,53.74,0c1.43,0,1.84-.36,1.83-1.81q-.07-26.88,0-53.75c0-1.44-.37-1.85-1.82-1.83-5.88.08-11.77,0-17.66,0-3.67,0-5.1-1.44-5.11-5.1,0-5.8-.07-11.6,0-17.4,0-1.64-.36-2.13-2.07-2.11q-14.21.13-28.4,0c-1.89,0-2.39.41-2.38,2.34C328.86,145.59,328.82,158.47,328.82,171.35Zm40.95-34.71c0,3,0,5.78,0,8.58,0,.89-.09,1.64,1.25,1.6,2.93-.09,5.87,0,8.8,0Z"/><path class="cls-30" d="M234.62,259.87c3-3.07,5.58-5.58,8-8.18.91-1,1.46-1.26,2.61-.16,4.68,4.51,4.73,4.47.09,9.1-3.74,3.74-7.46,7.5-11.22,11.21-2.64,2.62-4.58,2.61-7.23,0-4.77-4.75-9.49-9.56-14.32-14.26-1.14-1.11-1.11-1.67,0-2.78,4.44-4.45,4.4-4.5,8.73-.14,1.56,1.57,3.08,3.18,4.7,4.85,2.37-11.7-3.84-19.19-14-18.53-3.48.22-7,.05-10.49,0a19.5,19.5,0,0,1-9.29-2.43,19.91,19.91,0,0,1-10.73-16.09c-.19-1.77-.77-2-2.27-2-8.35.06-16.71,0-25.07,0-4.23,0-5.56-1.29-5.56-5.42V127.57c0-4,1.35-5.35,5.38-5.35,12.79,0,25.58,0,38.38,0a6.72,6.72,0,0,1,5.18,2.19Q208.83,135.74,220.2,147a6.73,6.73,0,0,1,2.18,5.19q-.07,31.47,0,62.95c0,4-1.36,5.37-5.36,5.37-8.44,0-16.89.06-25.33,0-1.91,0-2.29.51-1.9,2.3a12.55,12.55,0,0,0,12.21,10c5.36.15,10.76-.55,16.08.43a20.31,20.31,0,0,1,16.56,19.41C234.67,254.82,234.62,257,234.62,259.87Zm-77.79-88.73c0,13.05,0,26.1,0,39.15,0,1.41.11,2.08,1.86,2.07q26.86-.12,53.74,0c1.5,0,1.79-.48,1.79-1.87q-.08-26.86,0-53.74c0-1.51-.48-1.81-1.87-1.79-6,.07-11.94.05-17.91,0-3.32,0-4.8-1.52-4.82-4.87,0-5.89-.07-11.78,0-17.66,0-1.72-.5-2.08-2.12-2.07-9.47.08-18.94.11-28.4,0-2,0-2.34.55-2.32,2.4C156.87,145.54,156.83,158.34,156.83,171.14Zm50.51-24.35-9.56-9.47c0,2.32.06,5.12,0,7.92,0,1.21.31,1.62,1.55,1.58C202.1,146.73,204.91,146.79,207.34,146.79Z"/><path class="cls-30" d="M271.74,163.17c6.14,0,12.29.05,18.43,0,1.44,0,1.81.38,1.83,1.82.07,6.4.12,6.4-6.19,6.4-10.91,0-21.83,0-32.75,0-1.67,0-2.1-.42-2.09-2.09,0-6.14,0-6.14,6.19-6.14Z"/><path class="cls-30" d="M271.49,187.74c-6.23,0-12.46,0-18.68,0-1.44,0-1.82-.38-1.84-1.83-.07-6.4-.12-6.4,6.19-6.4,10.91,0,21.83,0,32.75,0,1.66,0,2.11.42,2.1,2.09,0,6.14,0,6.14-6.19,6.14Z"/><path class="cls-30" d="M259.21,146.79h2.05c6.77,0,6.74,0,6.16,6.92-.08,1-.33,1.3-1.32,1.29q-6.9-.06-13.81,0c-1,0-1.42-.32-1.28-1.31a2.09,2.09,0,0,0,0-.25c-.32-6.65-.32-6.65,6.41-6.65Z"/><path class="cls-30" d="M259.2,199.79c0,4.33,0,4.33-4.37,4.33-3.82,0-3.82,0-3.82-3.86,0-4.33,0-4.33,4.37-4.33C259.2,195.93,259.2,195.93,259.2,199.79Z"/><path class="cls-30" d="M275.58,200.13c0,4,0,4-3.94,4-4.25,0-4.25,0-4.25-4.2,0-4,0-4,3.95-4C275.58,195.93,275.58,195.93,275.58,200.13Z"/><path class="cls-30" d="M287.86,204.12c-4.09,0-4.09,0-4.09-4.1s0-4.09,4.1-4.09,4.09,0,4.09,4.11S292,204.12,287.86,204.12Z"/><path class="cls-30" d="M357.68,171.36c-6.23,0-12.46,0-18.68,0-1.45,0-2.05-.17-2.05-1.88,0-6.34-.08-6.34,6.26-6.34,10.66,0,21.32.09,32-.07,2.45,0,2.88.75,2.81,3-.15,5.31,0,5.31-5.48,5.31Z"/><path class="cls-30" d="M357.48,187.74c-6.23,0-12.45,0-18.68,0-1.44,0-1.82-.39-1.84-1.83-.07-6.4-.12-6.4,6.19-6.4,10.92,0,21.84,0,32.75,0,1.67,0,2.11.42,2.1,2.09,0,6.14,0,6.14-6.19,6.14Z"/><path class="cls-30" d="M357.74,195.93c6.14,0,12.28,0,18.42,0,1.45,0,1.82.38,1.83,1.83.08,6.4.13,6.39-6.18,6.39-10.92,0-21.84,0-32.76,0-1.66,0-2.1-.42-2.09-2.09,0-6.14,0-6.14,6.19-6.14Z"/><path class="cls-30" d="M344.94,155h-1.79c-6.77,0-6.74,0-6.18-6.91.08-1,.31-1.31,1.31-1.3q6.92.06,13.82,0c1,0,1.43.29,1.29,1.3a.7.7,0,0,0,0,.25c.33,6.66.33,6.66-6.4,6.66Z"/><path class="cls-30" d="M185.5,163.17c6.23,0,12.46.05,18.68,0,1.46,0,1.81.4,1.83,1.83.07,6.39.12,6.39-6.2,6.39-10.91,0-21.83,0-32.75,0-1.68,0-2.1-.44-2.09-2.1,0-6.13,0-6.13,6.2-6.13Z"/><path class="cls-30" d="M185.24,187.74c-6.15,0-12.29,0-18.43,0-1.44,0-1.81-.39-1.83-1.83-.07-6.4-.12-6.4,6.19-6.4,10.91,0,21.83,0,32.75,0,1.67,0,2.1.42,2.09,2.09,0,6.14,0,6.14-6.19,6.14Z"/><path class="cls-30" d="M185.75,195.93c6.14,0,12.28,0,18.42,0,1.44,0,1.82.37,1.84,1.82.07,6.41.12,6.4-6.18,6.4-10.92,0-21.84,0-32.76,0-1.66,0-2.11-.4-2.1-2.08,0-6.15,0-6.15,6.19-6.15Z"/><path class="cls-30" d="M173,155h-1.79c-6.77,0-6.74,0-6.17-6.91.08-1,.31-1.31,1.31-1.3q6.9.06,13.81,0c1,0,1.43.3,1.29,1.3a2.09,2.09,0,0,0,0,.25c.33,6.66.33,6.66-6.4,6.66Z"/></svg>