<svg id="Layer_1" data-name="Layer 1" xmlns="http://www.w3.org/2000/svg" xmlns:xlink="http://www.w3.org/1999/xlink" viewBox="0 0 543 490"><defs><style>.cls-1{fill:url(#linear-gradient);}.cls-2{fill:#2a2a8c;}.cls-3{fill:url(#linear-gradient-2);}.cls-4{opacity:0.9;fill:url(#linear-gradient-3);}.cls-5{fill:url(#linear-gradient-4);}.cls-6{fill:url(#linear-gradient-5);}.cls-7{fill:url(#linear-gradient-6);}.cls-8{fill:url(#linear-gradient-7);}.cls-9{fill:url(#linear-gradient-8);}.cls-10{fill:url(#linear-gradient-9);}.cls-11{fill:url(#linear-gradient-10);}.cls-12,.cls-13,.cls-14,.cls-15,.cls-18,.cls-19,.cls-20,.cls-21,.cls-22,.cls-23,.cls-28,.cls-29{fill-opacity:0.2;}.cls-12{fill:url(#linear-gradient-11);}.cls-13{fill:url(#linear-gradient-12);}.cls-14{fill:url(#linear-gradient-13);}.cls-15{fill:url(#linear-gradient-14);}.cls-16{fill:url(#linear-gradient-15);}.cls-17{fill:url(#linear-gradient-16);}.cls-18{fill:url(#linear-gradient-17);}.cls-19{fill:url(#linear-gradient-18);}.cls-20{fill:url(#linear-gradient-19);}.cls-21{fill:url(#linear-gradient-20);}.cls-22{fill:url(#linear-gradient-21);}.cls-23{fill:url(#linear-gradient-22);}.cls-24{fill:url(#linear-gradient-23);}.cls-25{fill:url(#linear-gradient-24);}.cls-26{fill:url(#linear-gradient-25);}.cls-27{fill:url(#linear-gradient-26);}.cls-28{fill:url(#linear-gradient-27);}.cls-29{fill:url(#linear-gradient-28);}.cls-30{fill:none;stroke:#39ffff;stroke-miterlimit:10;stroke-width:2px;}</style><linearGradient id="linear-gradient" x1="0.21" y1="137.11" x2="100.9" y2="137.11" gradientUnits="userSpaceOnUse"><stop offset="0.04" stop-color="#3a3adb"/><stop offset="0.99" stop-color="#2a2a8c"/></linearGradient><linearGradient id="linear-gradient-2" x1="50.45" y1="221.61" x2="542.33" y2="221.61" gradientUnits="userSpaceOnUse"><stop offset="0.04" stop-color="#3a3adb"/><stop offset="0.77" stop-color="#2a2a8c"/></linearGradient><linearGradient id="linear-gradient-3" x1="0.16" y1="279.25" x2="446.97" y2="279.25" gradientUnits="userSpaceOnUse"><stop offset="0.04" stop-color="#3a3adb"/><stop offset="0.99" stop-color="#2a47c9"/></linearGradient><linearGradient id="linear-gradient-4" x1="340.93" y1="347.57" x2="474.87" y2="347.57" xlink:href="#linear-gradient"/><linearGradient id="linear-gradient-5" x1="71.3" y1="42.35" x2="73.9" y2="42.35" xlink:href="#linear-gradient"/><linearGradient id="linear-gradient-6" x1="71.3" y1="21.65" x2="73.9" y2="21.65" xlink:href="#linear-gradient"/><linearGradient id="linear-gradient-7" x1="77.5" y1="37.3" x2="87.4" y2="37.3" xlink:href="#linear-gradient"/><linearGradient id="linear-gradient-8" x1="57.8" y1="26.5" x2="67.7" y2="26.5" xlink:href="#linear-gradient"/><linearGradient id="linear-gradient-9" x1="57.7" y1="37.3" x2="67.6" y2="37.3" xlink:href="#linear-gradient"/><linearGradient id="linear-gradient-10" x1="77.5" y1="26.5" x2="87.4" y2="26.5" xlink:href="#linear-gradient"/><linearGradient id="linear-gradient-11" x1="208.8" y1="73.75" x2="211.41" y2="73.75" xlink:href="#linear-gradient"/><linearGradient id="linear-gradient-12" x1="208.8" y1="53.05" x2="211.41" y2="53.05" xlink:href="#linear-gradient"/><linearGradient id="linear-gradient-13" x1="193.5" y1="63.4" x2="204.21" y2="63.4" xlink:href="#linear-gradient"/><linearGradient id="linear-gradient-14" x1="216" y1="63.4" x2="226.71" y2="63.4" xlink:href="#linear-gradient"/><linearGradient id="linear-gradient-15" x1="55.91" y1="421.27" x2="90.05" y2="421.27" xlink:href="#linear-gradient"/><linearGradient id="linear-gradient-16" x1="56.05" y1="400.53" x2="90.14" y2="400.53" xlink:href="#linear-gradient"/><linearGradient id="linear-gradient-17" x1="345.5" y1="278.75" x2="348.1" y2="278.75" xlink:href="#linear-gradient-3"/><linearGradient id="linear-gradient-18" x1="345.5" y1="258.05" x2="348.1" y2="258.05" xlink:href="#linear-gradient-3"/><linearGradient id="linear-gradient-19" x1="351.8" y1="273.8" x2="361.7" y2="273.8" xlink:href="#linear-gradient-3"/><linearGradient id="linear-gradient-20" x1="332" y1="263" x2="341.9" y2="263" xlink:href="#linear-gradient-3"/><linearGradient id="linear-gradient-21" x1="331.9" y1="273.8" x2="341.8" y2="273.8" xlink:href="#linear-gradient-3"/><linearGradient id="linear-gradient-22" x1="351.7" y1="263" x2="361.6" y2="263" xlink:href="#linear-gradient-3"/><linearGradient id="linear-gradient-23" x1="474.1" y1="410.95" x2="476.7" y2="410.95" xlink:href="#linear-gradient"/><linearGradient id="linear-gradient-24" x1="474.1" y1="390.25" x2="476.7" y2="390.25" xlink:href="#linear-gradient"/><linearGradient id="linear-gradient-25" x1="458.8" y1="400.6" x2="469.5" y2="400.6" xlink:href="#linear-gradient"/><linearGradient id="linear-gradient-26" x1="481.2" y1="400.6" x2="491.91" y2="400.6" xlink:href="#linear-gradient"/><linearGradient id="linear-gradient-27" x1="480.31" y1="231.57" x2="514.45" y2="231.57" gradientUnits="userSpaceOnUse"><stop offset="0.04" stop-color="#3a3adb"/><stop offset="0.99" stop-color="#2a4b8c"/></linearGradient><linearGradient id="linear-gradient-28" x1="480.35" y1="210.83" x2="514.49" y2="210.83" xlink:href="#linear-gradient-27"/></defs><path class="cls-1" d="M89.5,126.5C79,109.2,68,97.8,50.6,89.7s-39.1-8.2-48,11.2,8.6,43.5,33.2,44.9c28.3,1.5,43.4,14.6,45,34,1,12.1,14.5,12.5,17.3,4.6C103.3,170,101.7,146.7,89.5,126.5Z"/><path class="cls-2" d="M311.5,26.9C194.9-92.8,68.2,219.8,35.7,320.8S140.6,438.1,233,456.2c147.6,28.8,215.2-27,226.7-94.2S428.1,146.7,311.5,26.9Z"/><path class="cls-3" d="M386.9,175.8C325,186.6,282.7,128,254.2,91.9c-22.4-28.4-116.5-75.1-175,8.7-53,76-31.1,189.1,52.3,246.4S342,399,420.9,363.5c49.9-22.4,112.9-64.1,120.7-123.3C550.2,175.4,481.9,159.3,386.9,175.8Z"/><path class="cls-4" d="M397.7,68.5c-2.5-.1-5-.1-7.6-.1-41.1,0-92.8,10.3-129.7,22.4L255,92.6c1.1,1.4,2.3,2.9,3.5,4.4,1.3-.4,2.5-.8,3.8-1.3,41-13.5,91.2-22.1,127.9-22.1,2.5,0,5,0,7.4.1,17.3.6,30.3,6.3,37.5,16.5,8.6,12.2,8.6,30.8-.1,52.2-3.9,9.7-7.2,18.9-9.9,28-11,36.6-13.6,72.1-14.2,134.2-.1,14.2,0,27.3.1,40,.1,8,.1,15.5.1,22.8,0,44.1-2.7,74.5-23,94.1-15.8,15.2-34.3,23.3-53.6,23.3-21.2,0-42.9-9.5-64.3-28.3C222.8,415,164,386,104.6,374.7c-45.6-8.7-81.4-17-93.8-36.9-6.7-10.9-6.7-25.6,0-45,6.3-18.1,18.4-43.1,41.9-70.5-.4-2.4-.7-4.8-1-7.1-23.6,26.5-38.1,52.7-46.2,76-21.7,62.6,25.1,74.8,97.9,88.7,58.6,11.2,115.8,39.3,162.8,80.5,24,21,47.1,29.7,68.1,29.7,22.1,0,41.8-9.7,57.6-24.9,22.1-21.4,24.6-53.8,24.6-100.1,0-18-.4-38.1-.2-60.4.6-64.3,3.4-98.8,14.5-134.7,2.6-8.3,5.7-16.8,9.2-25.6C458.1,99.7,439.9,69.9,397.7,68.5Z"/><path class="cls-5" d="M459.8,308.7c-35.5-38.4-76.5-14-105.7,29.4-27.1,40.3-10.6,87.6,33.3,58.4,38.3-25.4,61.6-18,78.7-35.1C489,338.7,459.8,308.7,459.8,308.7Z"/><path class="cls-6" d="M72.6,47.7a1.32,1.32,0,0,1-1.3-1.3V38.3a1.3,1.3,0,1,1,2.6,0v8.1A1.4,1.4,0,0,1,72.6,47.7Z"/><path class="cls-7" d="M72.6,27a1.32,1.32,0,0,1-1.3-1.3V17.6a1.3,1.3,0,1,1,2.6,0v8.1A1.32,1.32,0,0,1,72.6,27Z"/><path class="cls-8" d="M85.3,40.3l-7.1-3.8a1.13,1.13,0,0,1-.5-1.7,1.54,1.54,0,0,1,1.9-.5l7.1,3.8a1.13,1.13,0,0,1,.5,1.7A1.54,1.54,0,0,1,85.3,40.3Z"/><path class="cls-9" d="M65.6,29.5l-7.1-3.8A1.13,1.13,0,0,1,58,24a1.54,1.54,0,0,1,1.9-.5L67,27.3a1.13,1.13,0,0,1,.5,1.7A1.57,1.57,0,0,1,65.6,29.5Z"/><path class="cls-10" d="M57.9,39.8a1.13,1.13,0,0,1,.5-1.7l7.1-3.8a1.54,1.54,0,0,1,1.9.5,1.13,1.13,0,0,1-.5,1.7l-7.1,3.8A1.54,1.54,0,0,1,57.9,39.8Z"/><path class="cls-11" d="M77.7,29a1.13,1.13,0,0,1,.5-1.7l7.1-3.8a1.54,1.54,0,0,1,1.9.5,1.13,1.13,0,0,1-.5,1.7l-7.1,3.8A1.54,1.54,0,0,1,77.7,29Z"/><path class="cls-12" d="M210.1,79.1a1.32,1.32,0,0,1-1.3-1.3V69.7a1.3,1.3,0,0,1,2.6,0v8.1A1.21,1.21,0,0,1,210.1,79.1Z"/><path class="cls-13" d="M210.1,58.4a1.32,1.32,0,0,1-1.3-1.3V49a1.3,1.3,0,0,1,2.6,0v8.1A1.21,1.21,0,0,1,210.1,58.4Z"/><path class="cls-14" d="M202.9,64.7h-8.1a1.3,1.3,0,0,1,0-2.6h8.1a1.32,1.32,0,0,1,1.3,1.3A1.21,1.21,0,0,1,202.9,64.7Z"/><path class="cls-15" d="M225.4,64.7h-8.1a1.3,1.3,0,0,1,0-2.6h8.1a1.32,1.32,0,0,1,1.3,1.3A1.21,1.21,0,0,1,225.4,64.7Z"/><path class="cls-16" d="M73,428a17.92,17.92,0,0,1-17-11.7,1.27,1.27,0,0,1,1-1.7,1.31,1.31,0,0,1,1.6.8,15.42,15.42,0,0,0,28.8,0,1.38,1.38,0,0,1,2.6.9A18.06,18.06,0,0,1,73,428Z"/><path class="cls-17" d="M89.1,407.2a1.31,1.31,0,0,1-1.6-.8,15.42,15.42,0,0,0-28.8,0,1.38,1.38,0,0,1-2.6-.9,18.2,18.2,0,0,1,34,0A1.45,1.45,0,0,1,89.1,407.2Z"/><path class="cls-18" d="M346.8,284.1a1.32,1.32,0,0,1-1.3-1.3v-8.1a1.3,1.3,0,0,1,2.6,0v8.1A1.32,1.32,0,0,1,346.8,284.1Z"/><path class="cls-19" d="M346.8,263.4a1.32,1.32,0,0,1-1.3-1.3V254a1.3,1.3,0,0,1,2.6,0v8.1A1.32,1.32,0,0,1,346.8,263.4Z"/><path class="cls-20" d="M359.6,276.8l-7.1-3.8a1.13,1.13,0,0,1-.5-1.7,1.54,1.54,0,0,1,1.9-.5l7.1,3.8a1.13,1.13,0,0,1,.5,1.7A1.57,1.57,0,0,1,359.6,276.8Z"/><path class="cls-21" d="M339.8,266l-7.1-3.8a1.13,1.13,0,0,1-.5-1.7,1.54,1.54,0,0,1,1.9-.5l7.1,3.8a1.13,1.13,0,0,1,.5,1.7A1.57,1.57,0,0,1,339.8,266Z"/><path class="cls-22" d="M332.1,276.3a1.13,1.13,0,0,1,.5-1.7l7.1-3.8a1.54,1.54,0,0,1,1.9.5,1.13,1.13,0,0,1-.5,1.7l-7.1,3.8A1.57,1.57,0,0,1,332.1,276.3Z"/><path class="cls-23" d="M351.9,265.5a1.13,1.13,0,0,1,.5-1.7l7.1-3.8a1.54,1.54,0,0,1,1.9.5,1.13,1.13,0,0,1-.5,1.7l-7.1,3.8A1.54,1.54,0,0,1,351.9,265.5Z"/><path class="cls-24" d="M475.4,416.3a1.32,1.32,0,0,1-1.3-1.3v-8.1a1.3,1.3,0,0,1,2.6,0V415A1.32,1.32,0,0,1,475.4,416.3Z"/><path class="cls-25" d="M475.4,395.6a1.32,1.32,0,0,1-1.3-1.3v-8.1a1.3,1.3,0,0,1,2.6,0v8.1A1.32,1.32,0,0,1,475.4,395.6Z"/><path class="cls-26" d="M468.2,401.9h-8.1a1.3,1.3,0,0,1,0-2.6h8.1a1.3,1.3,0,1,1,0,2.6Z"/><path class="cls-27" d="M490.6,401.9h-8.1a1.3,1.3,0,0,1,0-2.6h8.1a1.32,1.32,0,0,1,1.3,1.3A1.21,1.21,0,0,1,490.6,401.9Z"/><path class="cls-28" d="M497.4,238.3a17.92,17.92,0,0,1-17-11.7,1.27,1.27,0,0,1,1-1.7,1.31,1.31,0,0,1,1.6.8,15.42,15.42,0,0,0,28.8,0,1.38,1.38,0,0,1,2.6.9A18.06,18.06,0,0,1,497.4,238.3Z"/><path class="cls-29" d="M513.4,217.5a1.31,1.31,0,0,1-1.6-.8,15.42,15.42,0,0,0-28.8,0,1.38,1.38,0,0,1-2.6-.9,18.2,18.2,0,0,1,34,0A1.3,1.3,0,0,1,513.4,217.5Z"/><path class="cls-30" d="M221.17,256.1c14.54,0,29.08-.05,43.61,0,2.05,0,2.46-.55,2.41-2.47-.14-5.28-.05-10.57,0-15.86,0-3.67,1.45-5.57,4.18-5.52s4,1.89,4,5.41c0,5.29.11,10.58,0,15.86-.06,2.05.48,2.58,2.56,2.58q43.22-.12,86.43,0c4.58,0,5.79,1.21,5.79,5.76q0,10.31,0,20.61c0,3.22-1.55,5-4.16,5s-3.94-1.7-4-4.87c0-5.28-.08-10.57,0-15.85,0-1.85-.29-2.6-2.41-2.6q-41,.12-81.93,0c-1.87,0-2.38.52-2.33,2.35.12,5.2.05,10.4,0,15.6,0,3.52-1.39,5.33-4,5.36s-4.15-1.79-4.16-5.25c0-5.29-.08-10.57,0-15.86,0-1.77-.51-2.19-2.22-2.19q-41.1.08-82.2,0c-1.71,0-2.29.41-2.26,2.2.12,5.55.09,11.1,0,16.65,0,2.88-1.63,4.49-4.11,4.46s-4-1.68-4-4.33q-.09-11.24,0-22.46c0-3.1,1.61-4.54,4.87-4.54Q199.23,256.08,221.17,256.1Z"/><path class="cls-30" d="M401.43,338.6q0,15.58,0,31.17c0,4.15-1.21,5.4-5.27,5.4H333.54c-3.86,0-5.17-1.34-5.17-5.27q0-31.17,0-62.35c0-4.16,1.31-5.44,5.57-5.45H396c4.09,0,5.39,1.28,5.4,5.32Q401.45,323,401.43,338.6Zm-8.06.08c0-8.72-.05-17.45.05-26.17,0-1.83-.46-2.35-2.32-2.34q-26.18.1-52.34,0c-1.88,0-2.35.53-2.34,2.36q.09,26.18,0,52.34c0,1.9.57,2.3,2.37,2.29q26.18-.09,52.34,0c1.87,0,2.32-.48,2.3-2.32C393.32,356.13,393.37,347.4,393.37,338.68Z"/><path class="cls-30" d="M178,375.17H146.82c-3.94,0-5.2-1.26-5.2-5.2q0-31.31,0-62.62c0-3.9,1.33-5.24,5.2-5.24h62.62c3.85,0,5.23,1.39,5.23,5.24q0,31.31,0,62.62c0,3.88-1.32,5.19-5.24,5.2Zm28.6-36.58c0-8.73-.05-17.45,0-26.17,0-1.71-.41-2.26-2.19-2.25q-26.3.09-52.6,0c-1.7,0-2.22.42-2.22,2.19q.1,26.29,0,52.6c0,1.69.38,2.21,2.15,2.21q26.29-.1,52.6,0c2,0,2.26-.68,2.25-2.41C206.54,356,206.59,347.31,206.59,338.59Z"/><path class="cls-30" d="M307.77,338.73q0,15.58,0,31.18c0,4-1.25,5.25-5.15,5.26q-31.44,0-62.88,0c-3.7,0-5-1.35-5-5.13q0-31.3,0-62.62c0-4,1.32-5.3,5.42-5.31H302.5c3.91,0,5.27,1.34,5.27,5.18Q307.78,323,307.77,338.73Zm-8,.12c0-8.81,0-17.62,0-26.43,0-1.71-.4-2.26-2.17-2.25q-26.31.09-52.61,0c-1.68,0-2.25.37-2.24,2.17q.1,26.31,0,52.61c0,1.71.42,2.21,2.18,2.2q26.29-.09,52.6,0c2,0,2.26-.67,2.24-2.41C299.68,356.13,299.72,347.49,299.72,338.85Z"/><path class="cls-30" d="M271.79,222.56c-8,0-16,.08-24,0-9-.12-15.71-5.34-17.13-13.09a32.15,32.15,0,0,1,21.87-36.75,64,64,0,0,1,39.25.2c13,4.2,20.48,14.65,21.26,28.79.16,2.8.47,5.63-.25,8.41-1.69,6.62-7.46,11.91-14.29,12.18-8.87.36-17.78.09-26.67.09Zm0-8.19c8.2,0,16.39,0,24.59,0,5.27,0,8.8-3.61,8.68-8.82a44.68,44.68,0,0,0-.61-6.83c-1.64-9.32-6.77-15.76-16-18.37a60.86,60.86,0,0,0-33.11-.06c-8.2,2.25-13.5,7.65-15.64,15.95a37.45,37.45,0,0,0-1.17,8.89c-.1,5.92,3.08,9.23,9,9.25C255.57,214.39,263.68,214.37,271.78,214.37Z"/><path class="cls-30" d="M176.38,204.71c-5.82,0-11.64-.24-17.44.06-11.23.57-19.38-5.68-17-20.13,2.31-14,9.21-21.21,23.27-23.92a58.91,58.91,0,0,1,24.13.3c13.86,3.08,21.42,12.7,22.07,27.69.41,9.51-5.66,15.91-15.23,16C189.59,204.76,183,204.71,176.38,204.71Zm0-8.23c6.77,0,13.55,0,20.32,0,3.41,0,6.19-1.89,6.37-4.71.63-9.76-2.31-19.16-13.72-22.31a49.41,49.41,0,0,0-25.55-.11c-7.47,1.89-12,6.68-13.45,14.23a38.34,38.34,0,0,0-.66,5.76c-.2,4.95,1.91,7.12,6.89,7.14C163.2,196.5,169.8,196.48,176.4,196.48Z"/><path class="cls-30" d="M366.51,204.71c-6.52,0-13,0-19.55,0-10-.07-15.91-6.33-15.31-16.3.57-9.54,3.42-18,12-23.44a34,34,0,0,1,15.19-4.82c7.66-.76,15.31-.69,22.79,1.44,11.77,3.35,19,12.58,19.69,25.19a23.48,23.48,0,0,1-.2,7.1c-1.59,6.43-7.3,10.73-14.51,10.82C379.9,204.78,373.21,204.71,366.51,204.71Zm-.35-8.23c6.86,0,13.72,0,20.59,0,3.5,0,6.39-2,6.5-4.92.37-9.74-2.41-18.91-13.78-22.08a48.65,48.65,0,0,0-26.06,0c-7.19,1.93-11.54,6.68-13,14.07a38.57,38.57,0,0,0-.62,5.76c-.22,5,1.82,7.16,6.8,7.18C353.13,196.5,359.64,196.48,366.16,196.48Z"/><path class="cls-30" d="M250.46,136.65a20.8,20.8,0,1,1,20.73,20.92A20.68,20.68,0,0,1,250.46,136.65Zm20.91,12.72A12.61,12.61,0,0,0,284,136.51a12.7,12.7,0,0,0-25.4.24A12.61,12.61,0,0,0,271.37,149.37Z"/><path class="cls-30" d="M383.57,133c0,10.12-7.91,18.12-17.75,18a18.09,18.09,0,1,1,17.75-18Zm-8.12-.08c0-5.54-4.26-10-9.48-10s-9.49,4.62-9.47,10.06,4.36,10,9.54,10A9.74,9.74,0,0,0,375.45,132.88Z"/><path class="cls-30" d="M176.48,151a18.09,18.09,0,0,1,0-36.17c9.81,0,17.61,8.1,17.56,18.23A17.78,17.78,0,0,1,176.48,151Zm-9.42-18.45c-.13,5.6,3.87,10.18,9.07,10.37s9.8-4.32,9.87-9.92c.07-5.42-4.24-10.06-9.41-10.12A9.72,9.72,0,0,0,167.06,132.55Z"/><path class="cls-30" d="M352,355.65c-2.29,0-3.59-.78-4.29-2.37a3.88,3.88,0,0,1,.93-4.59c2.85-2.88,5.66-5.8,8.62-8.55,1.37-1.27,1.63-2,.08-3.42-2.87-2.59-5.53-5.42-8.25-8.18-2.13-2.17-2.31-4.48-.55-6.24s4.08-1.61,6.25.51c2.82,2.78,5.68,5.53,8.37,8.43,1.22,1.3,1.89,1.16,3-.06,2.71-2.89,5.55-5.65,8.38-8.42,2.12-2.08,4.53-2.21,6.25-.41s1.48,4.09-.47,6.09c-2.82,2.9-5.65,5.81-8.61,8.56-1.25,1.17-1.08,1.79.05,2.87,2.88,2.72,5.65,5.55,8.42,8.38,2.08,2.12,2.26,4.57.55,6.27s-4.15,1.52-6.27-.57c-2.89-2.84-5.76-5.68-8.57-8.6-.92-1-1.48-1.08-2.48,0-2.79,2.93-5.71,5.73-8.57,8.6C353.93,354.88,352.93,355.71,352,355.65Z"/><path class="cls-30" d="M169.6,355.65a4,4,0,0,1-3.16-1.28c-3.11-3.11-6.27-6.19-9.33-9.34-1.88-1.94-1.94-4.18-.32-5.89s4.12-1.66,6.08.22c1.78,1.7,3.58,3.4,5.2,5.25,1.12,1.27,1.76,1,2.83-.07,7.24-7.33,14.55-14.58,21.83-21.88,1.53-1.54,3.23-2.11,5.22-1a3.84,3.84,0,0,1,2,4.24,4.67,4.67,0,0,1-1.59,2.66L172.94,354A4.55,4.55,0,0,1,169.6,355.65Z"/><path class="cls-30" d="M263.19,355.65a4,4,0,0,1-3.1-1.3c-3.11-3.11-6.26-6.19-9.32-9.35-1.81-1.86-1.86-4.27-.29-5.9s4.12-1.58,6.08.29c1.72,1.64,3.46,3.27,5,5.06,1.15,1.31,1.82,1.21,3,0,6.84-7.1,13.77-14.11,20.67-21.15a6.68,6.68,0,0,1,2.23-1.82,4,4,0,0,1,5.13,5.59,7.88,7.88,0,0,1-1.48,1.84q-12.09,12.36-24.2,24.71C265.88,354.68,264.82,355.72,263.19,355.65Z"/></svg>