<svg id="Layer_1" data-name="Layer 1" xmlns="http://www.w3.org/2000/svg" xmlns:xlink="http://www.w3.org/1999/xlink" viewBox="0 0 543 490"><defs><style>.cls-1{fill:url(#linear-gradient);}.cls-2{fill:#2a2a8c;}.cls-3{fill:url(#linear-gradient-2);}.cls-4{opacity:0.9;fill:url(#linear-gradient-3);}.cls-5{fill:url(#linear-gradient-4);}.cls-6{fill:url(#linear-gradient-5);}.cls-7{fill:url(#linear-gradient-6);}.cls-8{fill:url(#linear-gradient-7);}.cls-9{fill:url(#linear-gradient-8);}.cls-10{fill:url(#linear-gradient-9);}.cls-11{fill:url(#linear-gradient-10);}.cls-12,.cls-13,.cls-14,.cls-15,.cls-18,.cls-19,.cls-20,.cls-21,.cls-22,.cls-23,.cls-28,.cls-29{fill-opacity:0.2;}.cls-12{fill:url(#linear-gradient-11);}.cls-13{fill:url(#linear-gradient-12);}.cls-14{fill:url(#linear-gradient-13);}.cls-15{fill:url(#linear-gradient-14);}.cls-16{fill:url(#linear-gradient-15);}.cls-17{fill:url(#linear-gradient-16);}.cls-18{fill:url(#linear-gradient-17);}.cls-19{fill:url(#linear-gradient-18);}.cls-20{fill:url(#linear-gradient-19);}.cls-21{fill:url(#linear-gradient-20);}.cls-22{fill:url(#linear-gradient-21);}.cls-23{fill:url(#linear-gradient-22);}.cls-24{fill:url(#linear-gradient-23);}.cls-25{fill:url(#linear-gradient-24);}.cls-26{fill:url(#linear-gradient-25);}.cls-27{fill:url(#linear-gradient-26);}.cls-28{fill:url(#linear-gradient-27);}.cls-29{fill:url(#linear-gradient-28);}.cls-30{fill:none;stroke:#39ffff;stroke-miterlimit:10;stroke-width:2px;}</style><linearGradient id="linear-gradient" x1="0.21" y1="137.11" x2="100.9" y2="137.11" gradientUnits="userSpaceOnUse"><stop offset="0.04" stop-color="#3a3adb"/><stop offset="0.99" stop-color="#2a2a8c"/></linearGradient><linearGradient id="linear-gradient-2" x1="50.45" y1="221.61" x2="542.33" y2="221.61" gradientUnits="userSpaceOnUse"><stop offset="0.04" stop-color="#3a3adb"/><stop offset="0.77" stop-color="#2a2a8c"/></linearGradient><linearGradient id="linear-gradient-3" x1="0.16" y1="279.25" x2="446.97" y2="279.25" gradientUnits="userSpaceOnUse"><stop offset="0.04" stop-color="#3a3adb"/><stop offset="0.99" stop-color="#2a47c9"/></linearGradient><linearGradient id="linear-gradient-4" x1="340.93" y1="347.57" x2="474.87" y2="347.57" xlink:href="#linear-gradient"/><linearGradient id="linear-gradient-5" x1="71.3" y1="42.35" x2="73.9" y2="42.35" xlink:href="#linear-gradient"/><linearGradient id="linear-gradient-6" x1="71.3" y1="21.65" x2="73.9" y2="21.65" xlink:href="#linear-gradient"/><linearGradient id="linear-gradient-7" x1="77.5" y1="37.3" x2="87.4" y2="37.3" xlink:href="#linear-gradient"/><linearGradient id="linear-gradient-8" x1="57.8" y1="26.5" x2="67.7" y2="26.5" xlink:href="#linear-gradient"/><linearGradient id="linear-gradient-9" x1="57.7" y1="37.3" x2="67.6" y2="37.3" xlink:href="#linear-gradient"/><linearGradient id="linear-gradient-10" x1="77.5" y1="26.5" x2="87.4" y2="26.5" xlink:href="#linear-gradient"/><linearGradient id="linear-gradient-11" x1="208.8" y1="73.75" x2="211.41" y2="73.75" xlink:href="#linear-gradient"/><linearGradient id="linear-gradient-12" x1="208.8" y1="53.05" x2="211.41" y2="53.05" xlink:href="#linear-gradient"/><linearGradient id="linear-gradient-13" x1="193.5" y1="63.4" x2="204.21" y2="63.4" xlink:href="#linear-gradient"/><linearGradient id="linear-gradient-14" x1="216" y1="63.4" x2="226.71" y2="63.4" xlink:href="#linear-gradient"/><linearGradient id="linear-gradient-15" x1="55.91" y1="421.27" x2="90.05" y2="421.27" xlink:href="#linear-gradient"/><linearGradient id="linear-gradient-16" x1="56.05" y1="400.53" x2="90.14" y2="400.53" xlink:href="#linear-gradient"/><linearGradient id="linear-gradient-17" x1="345.5" y1="278.75" x2="348.1" y2="278.75" xlink:href="#linear-gradient-3"/><linearGradient id="linear-gradient-18" x1="345.5" y1="258.05" x2="348.1" y2="258.05" xlink:href="#linear-gradient-3"/><linearGradient id="linear-gradient-19" x1="351.8" y1="273.8" x2="361.7" y2="273.8" xlink:href="#linear-gradient-3"/><linearGradient id="linear-gradient-20" x1="332" y1="263" x2="341.9" y2="263" xlink:href="#linear-gradient-3"/><linearGradient id="linear-gradient-21" x1="331.9" y1="273.8" x2="341.8" y2="273.8" xlink:href="#linear-gradient-3"/><linearGradient id="linear-gradient-22" x1="351.7" y1="263" x2="361.6" y2="263" xlink:href="#linear-gradient-3"/><linearGradient id="linear-gradient-23" x1="474.1" y1="410.95" x2="476.7" y2="410.95" xlink:href="#linear-gradient"/><linearGradient id="linear-gradient-24" x1="474.1" y1="390.25" x2="476.7" y2="390.25" xlink:href="#linear-gradient"/><linearGradient id="linear-gradient-25" x1="458.8" y1="400.6" x2="469.5" y2="400.6" xlink:href="#linear-gradient"/><linearGradient id="linear-gradient-26" x1="481.2" y1="400.6" x2="491.91" y2="400.6" xlink:href="#linear-gradient"/><linearGradient id="linear-gradient-27" x1="480.31" y1="231.57" x2="514.45" y2="231.57" gradientUnits="userSpaceOnUse"><stop offset="0.04" stop-color="#3a3adb"/><stop offset="0.99" stop-color="#2a4b8c"/></linearGradient><linearGradient id="linear-gradient-28" x1="480.35" y1="210.83" x2="514.49" y2="210.83" xlink:href="#linear-gradient-27"/></defs><path class="cls-1" d="M89.5,126.5C79,109.2,68,97.8,50.6,89.7s-39.1-8.2-48,11.2,8.6,43.5,33.2,44.9c28.3,1.5,43.4,14.6,45,34,1,12.1,14.5,12.5,17.3,4.6C103.3,170,101.7,146.7,89.5,126.5Z"/><path class="cls-2" d="M311.5,26.9C194.9-92.8,68.2,219.8,35.7,320.8S140.6,438.1,233,456.2c147.6,28.8,215.2-27,226.7-94.2S428.1,146.7,311.5,26.9Z"/><path class="cls-3" d="M386.9,175.8C325,186.6,282.7,128,254.2,91.9c-22.4-28.4-116.5-75.1-175,8.7-53,76-31.1,189.1,52.3,246.4S342,399,420.9,363.5c49.9-22.4,112.9-64.1,120.7-123.3C550.2,175.4,481.9,159.3,386.9,175.8Z"/><path class="cls-4" d="M397.7,68.5c-2.5-.1-5-.1-7.6-.1-41.1,0-92.8,10.3-129.7,22.4L255,92.6c1.1,1.4,2.3,2.9,3.5,4.4,1.3-.4,2.5-.8,3.8-1.3,41-13.5,91.2-22.1,127.9-22.1,2.5,0,5,0,7.4.1,17.3.6,30.3,6.3,37.5,16.5,8.6,12.2,8.6,30.8-.1,52.2-3.9,9.7-7.2,18.9-9.9,28-11,36.6-13.6,72.1-14.2,134.2-.1,14.2,0,27.3.1,40,.1,8,.1,15.5.1,22.8,0,44.1-2.7,74.5-23,94.1-15.8,15.2-34.3,23.3-53.6,23.3-21.2,0-42.9-9.5-64.3-28.3C222.8,415,164,386,104.6,374.7c-45.6-8.7-81.4-17-93.8-36.9-6.7-10.9-6.7-25.6,0-45,6.3-18.1,18.4-43.1,41.9-70.5-.4-2.4-.7-4.8-1-7.1-23.6,26.5-38.1,52.7-46.2,76-21.7,62.6,25.1,74.8,97.9,88.7,58.6,11.2,115.8,39.3,162.8,80.5,24,21,47.1,29.7,68.1,29.7,22.1,0,41.8-9.7,57.6-24.9,22.1-21.4,24.6-53.8,24.6-100.1,0-18-.4-38.1-.2-60.4.6-64.3,3.4-98.8,14.5-134.7,2.6-8.3,5.7-16.8,9.2-25.6C458.1,99.7,439.9,69.9,397.7,68.5Z"/><path class="cls-5" d="M459.8,308.7c-35.5-38.4-76.5-14-105.7,29.4-27.1,40.3-10.6,87.6,33.3,58.4,38.3-25.4,61.6-18,78.7-35.1C489,338.7,459.8,308.7,459.8,308.7Z"/><path class="cls-6" d="M72.6,47.7a1.32,1.32,0,0,1-1.3-1.3V38.3a1.3,1.3,0,1,1,2.6,0v8.1A1.4,1.4,0,0,1,72.6,47.7Z"/><path class="cls-7" d="M72.6,27a1.32,1.32,0,0,1-1.3-1.3V17.6a1.3,1.3,0,1,1,2.6,0v8.1A1.32,1.32,0,0,1,72.6,27Z"/><path class="cls-8" d="M85.3,40.3l-7.1-3.8a1.13,1.13,0,0,1-.5-1.7,1.54,1.54,0,0,1,1.9-.5l7.1,3.8a1.13,1.13,0,0,1,.5,1.7A1.54,1.54,0,0,1,85.3,40.3Z"/><path class="cls-9" d="M65.6,29.5l-7.1-3.8A1.13,1.13,0,0,1,58,24a1.54,1.54,0,0,1,1.9-.5L67,27.3a1.13,1.13,0,0,1,.5,1.7A1.57,1.57,0,0,1,65.6,29.5Z"/><path class="cls-10" d="M57.9,39.8a1.13,1.13,0,0,1,.5-1.7l7.1-3.8a1.54,1.54,0,0,1,1.9.5,1.13,1.13,0,0,1-.5,1.7l-7.1,3.8A1.54,1.54,0,0,1,57.9,39.8Z"/><path class="cls-11" d="M77.7,29a1.13,1.13,0,0,1,.5-1.7l7.1-3.8a1.54,1.54,0,0,1,1.9.5,1.13,1.13,0,0,1-.5,1.7l-7.1,3.8A1.54,1.54,0,0,1,77.7,29Z"/><path class="cls-12" d="M210.1,79.1a1.32,1.32,0,0,1-1.3-1.3V69.7a1.3,1.3,0,0,1,2.6,0v8.1A1.21,1.21,0,0,1,210.1,79.1Z"/><path class="cls-13" d="M210.1,58.4a1.32,1.32,0,0,1-1.3-1.3V49a1.3,1.3,0,0,1,2.6,0v8.1A1.21,1.21,0,0,1,210.1,58.4Z"/><path class="cls-14" d="M202.9,64.7h-8.1a1.3,1.3,0,0,1,0-2.6h8.1a1.32,1.32,0,0,1,1.3,1.3A1.21,1.21,0,0,1,202.9,64.7Z"/><path class="cls-15" d="M225.4,64.7h-8.1a1.3,1.3,0,0,1,0-2.6h8.1a1.32,1.32,0,0,1,1.3,1.3A1.21,1.21,0,0,1,225.4,64.7Z"/><path class="cls-16" d="M73,428a17.92,17.92,0,0,1-17-11.7,1.27,1.27,0,0,1,1-1.7,1.31,1.31,0,0,1,1.6.8,15.42,15.42,0,0,0,28.8,0,1.38,1.38,0,0,1,2.6.9A18.06,18.06,0,0,1,73,428Z"/><path class="cls-17" d="M89.1,407.2a1.31,1.31,0,0,1-1.6-.8,15.42,15.42,0,0,0-28.8,0,1.38,1.38,0,0,1-2.6-.9,18.2,18.2,0,0,1,34,0A1.45,1.45,0,0,1,89.1,407.2Z"/><path class="cls-18" d="M346.8,284.1a1.32,1.32,0,0,1-1.3-1.3v-8.1a1.3,1.3,0,0,1,2.6,0v8.1A1.32,1.32,0,0,1,346.8,284.1Z"/><path class="cls-19" d="M346.8,263.4a1.32,1.32,0,0,1-1.3-1.3V254a1.3,1.3,0,0,1,2.6,0v8.1A1.32,1.32,0,0,1,346.8,263.4Z"/><path class="cls-20" d="M359.6,276.8l-7.1-3.8a1.13,1.13,0,0,1-.5-1.7,1.54,1.54,0,0,1,1.9-.5l7.1,3.8a1.13,1.13,0,0,1,.5,1.7A1.57,1.57,0,0,1,359.6,276.8Z"/><path class="cls-21" d="M339.8,266l-7.1-3.8a1.13,1.13,0,0,1-.5-1.7,1.54,1.54,0,0,1,1.9-.5l7.1,3.8a1.13,1.13,0,0,1,.5,1.7A1.57,1.57,0,0,1,339.8,266Z"/><path class="cls-22" d="M332.1,276.3a1.13,1.13,0,0,1,.5-1.7l7.1-3.8a1.54,1.54,0,0,1,1.9.5,1.13,1.13,0,0,1-.5,1.7l-7.1,3.8A1.57,1.57,0,0,1,332.1,276.3Z"/><path class="cls-23" d="M351.9,265.5a1.13,1.13,0,0,1,.5-1.7l7.1-3.8a1.54,1.54,0,0,1,1.9.5,1.13,1.13,0,0,1-.5,1.7l-7.1,3.8A1.54,1.54,0,0,1,351.9,265.5Z"/><path class="cls-24" d="M475.4,416.3a1.32,1.32,0,0,1-1.3-1.3v-8.1a1.3,1.3,0,0,1,2.6,0V415A1.32,1.32,0,0,1,475.4,416.3Z"/><path class="cls-25" d="M475.4,395.6a1.32,1.32,0,0,1-1.3-1.3v-8.1a1.3,1.3,0,0,1,2.6,0v8.1A1.32,1.32,0,0,1,475.4,395.6Z"/><path class="cls-26" d="M468.2,401.9h-8.1a1.3,1.3,0,0,1,0-2.6h8.1a1.3,1.3,0,1,1,0,2.6Z"/><path class="cls-27" d="M490.6,401.9h-8.1a1.3,1.3,0,0,1,0-2.6h8.1a1.32,1.32,0,0,1,1.3,1.3A1.21,1.21,0,0,1,490.6,401.9Z"/><path class="cls-28" d="M497.4,238.3a17.92,17.92,0,0,1-17-11.7,1.27,1.27,0,0,1,1-1.7,1.31,1.31,0,0,1,1.6.8,15.42,15.42,0,0,0,28.8,0,1.38,1.38,0,0,1,2.6.9A18.06,18.06,0,0,1,497.4,238.3Z"/><path class="cls-29" d="M513.4,217.5a1.31,1.31,0,0,1-1.6-.8,15.42,15.42,0,0,0-28.8,0,1.38,1.38,0,0,1-2.6-.9,18.2,18.2,0,0,1,34,0A1.3,1.3,0,0,1,513.4,217.5Z"/><path class="cls-30" d="M271.32,375.11H394.17c4.69,0,4.53,0,4.75-4.61.12-2.47-.66-3-3-3q-119.66.1-239.32.06c-4.51,0-4.94-.44-4.94-5V124.81c0-4.45,0-4.3-4.37-4.51-2.46-.12-3.22.4-3.22,3.07q.13,124.45,0,248.9c0,2.22.37,2.91,2.8,2.9Q209.1,375,271.32,375.11Z"/><path class="cls-30" d="M235.74,225.36H197c-3.54,0-4.18-.6-4.13-4.16.12-7.6-.31-15.21.51-22.8.66-6,3.43-10.46,8.79-13.3a29.66,29.66,0,0,1,6.8-2.89,58.48,58.48,0,0,0,18.13-8c1.16-.74,2.34-1.62,3.89-1.44,1,.12,1.19-.65,1.24-1.36.11-1.52.81-3.1-.7-4.44-7.44-6.61-10.67-15.14-11.25-24.87-.68-11.63,4.76-21.6,14.15-25.32,13.55-5.37,33.22-.4,34.35,22,.55,11-2.85,20.71-11.31,28.25-1.4,1.25-.74,2.76-.66,4.18.09,1.58,1.42,1.25,2.44,1.65a30.31,30.31,0,0,1,8.54,4.67,9.06,9.06,0,0,0,3.33,1.84c4.9,1.46,9.83,2.78,14.49,5,6.62,3.08,9.8,8.23,10.32,15.39.52,7.33.4,14.67.41,22,0,2.71-.93,3.56-3.73,3.57-6.45,0-12.91,0-19.36,0H253.69c3.08,3.44,4.64,7.12,4.12,11.46-.11,1,.83,1,1.43,1.26,7.3,2.86,14.62,5.68,21.91,8.56a1.66,1.66,0,0,0,2.22-.45c5-5.33,9.91-6.37,16.43-3.52a1.67,1.67,0,0,0,2.25-.38q14.32-14.37,28.71-28.69c.84-.83.8-1.43.32-2.5-2.57-5.62-1.56-11.34,2.56-15.37s9.59-4.87,15.16-2.3a1.78,1.78,0,0,0,2.47-.34c8.71-8.79,17.47-17.51,26.77-26.81-2.86.37-5.06.56-7.22,1-2,.39-3.74.15-4.12-2.07S368,162.27,370,162c5-.7,10-1.5,14.94-2.2,2.15-.3,3.57.87,3.31,3-.65,5.43-1.47,10.85-2.31,16.26a2.5,2.5,0,0,1-3,2.31c-1.73-.25-2.36-1.43-2.18-3.05.27-2.42.61-4.83.93-7.25-1.16-.21-1.45.58-1.9,1-8.08,8-16.12,16.14-24.24,24.15a2.64,2.64,0,0,0-.63,3.58,13,13,0,0,1-2.83,14.87,12.77,12.77,0,0,1-14.69,2.44,2.37,2.37,0,0,0-3.31.59q-13.83,14-27.76,27.77c-1.05,1-1.44,1.77-.68,3.32a12.77,12.77,0,0,1-2.37,14.7,13.32,13.32,0,0,1-14.4,3.18,13,13,0,0,1-8.31-12.4c0-1.65-.36-2.41-2-3-7-2.6-14-5.37-20.93-8.15a2.12,2.12,0,0,0-2.87.72,12.82,12.82,0,0,1-15.84,3.25,2.15,2.15,0,0,0-2.93.49Q222.14,261.32,208.2,275c-1.1,1.07-1.09,1.79-.48,3.13a13.24,13.24,0,1,1-6.32-6.42,2.26,2.26,0,0,0,3.14-.49c9.21-9.17,18.49-18.28,27.74-27.41.58-.58,1.42-1,.83-2.19C230.23,235.8,231.25,230.52,235.74,225.36Zm8.69-5.31c14.77,0,29.54,0,44.3,0,1.79,0,2.43-.34,2.39-2.28-.14-5.92-.07-11.84-.5-17.76-.36-5-2.49-8.65-7.17-10.83-5-2.32-10.32-3.57-15.52-5.21-1.19-.38-1.73.16-2.29,1.11-2,3.51-4.14,7-6.27,10.44-1.5,2.45-2.57,2.68-5,1.12-2.66-1.73-5.35-3.44-7.91-5.32-1.34-1-2.3-1.1-3.69-.07-2.55,1.9-5.24,3.6-7.91,5.33s-3.57,1.43-5.16-1.18c-2.06-3.39-4.09-6.81-6.11-10.22-.51-.86-.93-1.64-2.23-1.24-5.54,1.73-11.23,3-16.46,5.7-3.92,2-5.76,5.16-6.23,9.46-.68,6.18-.28,12.37-.54,18.55-.09,2.08.6,2.41,2.5,2.4C215.25,220,229.84,220.05,244.43,220.05ZM225.6,140.81c.12,7.28,2.14,13.94,6.85,19.6,7,8.45,17,8.65,24.05.22a29.11,29.11,0,0,0,6-27.31c-2.37-8.92-8.78-13.25-18.66-13.08-9,.15-15.28,5.12-17.43,13.73A32.14,32.14,0,0,0,225.6,140.81Zm125.13,64.36a7.85,7.85,0,1,0-7.84,8A7.87,7.87,0,0,0,350.73,205.17ZM203.59,283.54a7.76,7.76,0,0,0-7.89-7.83,7.86,7.86,0,1,0,7.89,7.83Zm98-29.2a7.9,7.9,0,0,0-7.95-7.84,7.88,7.88,0,1,0,0,15.75A8,8,0,0,0,301.64,254.34Zm-64.78-19.07a7.85,7.85,0,1,0,15.7,0,7.85,7.85,0,1,0-15.7,0Zm7.82-51.88,1-.83a43,43,0,0,1,3.91-3.14c2.7-1.72,4.06-3.54,2.21-6.87-.74-1.34-1.11-1.55-2.41-1.12a13.83,13.83,0,0,1-7,.67c-4.46-.86-4.42-.82-6.07,3.33-.28.72-.28,1.07.29,1.54,2.39,1.93,4.76,3.9,7.14,5.85A8.84,8.84,0,0,0,244.68,183.39Zm4.41,3.34c1.91,1.28,3.56,2.3,5.11,3.45,1.16.87,1.82.9,2.58-.53,1.37-2.56,3-5,4.44-7.51.35-.61,1.63-1.44.31-2.13-1-.53-1.95-2-3.47-.72C255.19,181.75,252.25,184.12,249.09,186.73ZM227,180.55l3.23,5.42c3.29,5.48,3.25,5.43,8.47,1.77,1.38-1,1-1.42,0-2.24a55.67,55.67,0,0,1-5.91-4.9C230.76,178.52,229,178.53,227,180.55Zm154.6-10.22c-.06,0-.15.1-.15.16s.08.12.13.18.14-.11.15-.17S381.65,170.39,381.61,170.33Z"/><path class="cls-30" d="M326.09,295.05V241.46c0-4.16.33-4.48,4.59-4.48h24.67c3.29,0,4,.63,4,3.78q0,54.39,0,108.78c0,3.18-.69,3.8-4,3.8H329.91c-3.27,0-3.81-.55-3.81-3.91Q326.08,322.25,326.09,295.05Zm5.32-.05c0,16.9,0,33.79,0,50.68,0,1.73.22,2.46,2.22,2.41,6.1-.14,12.2-.12,18.3,0,1.76,0,2.19-.48,2.18-2.2q-.07-50.69,0-101.36c0-2-.62-2.29-2.39-2.26-5.92.11-11.85.15-17.77,0-2.12-.05-2.57.59-2.56,2.62C331.45,261.57,331.41,278.29,331.41,295Z"/><path class="cls-30" d="M228,309.76V271c0-3.68.63-4.3,4.31-4.31h24.93c3.37,0,4.11.71,4.11,4v78.77c0,3.17-.72,3.88-3.9,3.88H231.75c-2.93,0-3.71-.8-3.71-3.8Q228,329.65,228,309.76Zm28,.24c0-11.93,0-23.86,0-35.79,0-1.68-.37-2.24-2.15-2.21q-9.15.18-18.3,0c-1.79,0-2.37.36-2.36,2.28q.1,35.79,0,71.59c0,1.69.38,2.25,2.16,2.21,6-.11,12-.12,18,0,2,0,2.66-.41,2.63-2.56C256,333.69,256.07,321.85,256.07,310Z"/><path class="cls-30" d="M310.31,317.18q0,16.05,0,32.09c0,3.64-.46,4.08-4.18,4.08H280.94c-3.21,0-3.88-.64-3.88-3.89q0-32.22,0-64.44c0-3.28.67-3.95,3.82-4H306.6c3.09,0,3.7.63,3.7,3.77Q310.33,301,310.31,317.18Zm-5.32.18c0-9.55,0-19.1,0-28.64,0-1.75-.26-2.44-2.23-2.4-6.1.15-12.2.13-18.3,0-1.77,0-2.16.51-2.16,2.21q.09,28.63,0,57.28c0,2,.64,2.29,2.39,2.26,6-.11,12-.13,18,0,1.91,0,2.3-.54,2.28-2.35C304.94,336.28,305,326.82,305,317.36Z"/><path class="cls-30" d="M179.1,330.72c0-6.1,0-12.19,0-18.29,0-3,.71-3.74,3.74-3.74q12.85,0,25.7,0c3,0,3.82.76,3.83,3.73q0,18.68,0,37.36c0,2.85-.79,3.57-3.67,3.58q-13,0-26,0c-3.05,0-3.62-.62-3.63-3.82C179.09,343.26,179.1,337,179.1,330.72Zm5.32.14c0,5,.05,10.07,0,15.1,0,1.51.19,2.16,2,2.13,6.27-.13,12.54-.1,18.81,0,1.5,0,2-.41,1.94-1.93q-.09-15.11,0-30.21c0-1.45-.32-2-1.88-2q-9.54.14-19.09,0c-1.42,0-1.76.42-1.74,1.79C184.47,320.78,184.42,325.82,184.42,330.86Z"/><path class="cls-30" d="M381.61,170.33c0,.06.13.12.13.17s-.1.11-.15.17-.14-.13-.13-.18S381.55,170.38,381.61,170.33Z"/></svg>