<svg id="Layer_1" data-name="Layer 1" xmlns="http://www.w3.org/2000/svg" xmlns:xlink="http://www.w3.org/1999/xlink" viewBox="0 0 543 490"><defs><style>.cls-1{fill:url(#linear-gradient);}.cls-2{fill:#2a2a8c;}.cls-3{fill:url(#linear-gradient-2);}.cls-4{opacity:0.9;fill:url(#linear-gradient-3);}.cls-5{fill:url(#linear-gradient-4);}.cls-6{fill:url(#linear-gradient-5);}.cls-7{fill:url(#linear-gradient-6);}.cls-8{fill:url(#linear-gradient-7);}.cls-9{fill:url(#linear-gradient-8);}.cls-10{fill:url(#linear-gradient-9);}.cls-11{fill:url(#linear-gradient-10);}.cls-12,.cls-13,.cls-14,.cls-15,.cls-18,.cls-19,.cls-20,.cls-21,.cls-22,.cls-23,.cls-28,.cls-29{fill-opacity:0.2;}.cls-12{fill:url(#linear-gradient-11);}.cls-13{fill:url(#linear-gradient-12);}.cls-14{fill:url(#linear-gradient-13);}.cls-15{fill:url(#linear-gradient-14);}.cls-16{fill:url(#linear-gradient-15);}.cls-17{fill:url(#linear-gradient-16);}.cls-18{fill:url(#linear-gradient-17);}.cls-19{fill:url(#linear-gradient-18);}.cls-20{fill:url(#linear-gradient-19);}.cls-21{fill:url(#linear-gradient-20);}.cls-22{fill:url(#linear-gradient-21);}.cls-23{fill:url(#linear-gradient-22);}.cls-24{fill:url(#linear-gradient-23);}.cls-25{fill:url(#linear-gradient-24);}.cls-26{fill:url(#linear-gradient-25);}.cls-27{fill:url(#linear-gradient-26);}.cls-28{fill:url(#linear-gradient-27);}.cls-29{fill:url(#linear-gradient-28);}.cls-30{fill:none;stroke:#39ffff;stroke-miterlimit:10;stroke-width:2px;}</style><linearGradient id="linear-gradient" x1="0.21" y1="137.11" x2="100.9" y2="137.11" gradientUnits="userSpaceOnUse"><stop offset="0.04" stop-color="#3a3adb"/><stop offset="0.99" stop-color="#2a2a8c"/></linearGradient><linearGradient id="linear-gradient-2" x1="50.45" y1="221.61" x2="542.33" y2="221.61" gradientUnits="userSpaceOnUse"><stop offset="0.04" stop-color="#3a3adb"/><stop offset="0.77" stop-color="#2a2a8c"/></linearGradient><linearGradient id="linear-gradient-3" x1="0.16" y1="279.25" x2="446.97" y2="279.25" gradientUnits="userSpaceOnUse"><stop offset="0.04" stop-color="#3a3adb"/><stop offset="0.99" stop-color="#2a47c9"/></linearGradient><linearGradient id="linear-gradient-4" x1="340.93" y1="347.57" x2="474.87" y2="347.57" xlink:href="#linear-gradient"/><linearGradient id="linear-gradient-5" x1="71.3" y1="42.35" x2="73.9" y2="42.35" xlink:href="#linear-gradient"/><linearGradient id="linear-gradient-6" x1="71.3" y1="21.65" x2="73.9" y2="21.65" xlink:href="#linear-gradient"/><linearGradient id="linear-gradient-7" x1="77.5" y1="37.3" x2="87.4" y2="37.3" xlink:href="#linear-gradient"/><linearGradient id="linear-gradient-8" x1="57.8" y1="26.5" x2="67.7" y2="26.5" xlink:href="#linear-gradient"/><linearGradient id="linear-gradient-9" x1="57.7" y1="37.3" x2="67.6" y2="37.3" xlink:href="#linear-gradient"/><linearGradient id="linear-gradient-10" x1="77.5" y1="26.5" x2="87.4" y2="26.5" xlink:href="#linear-gradient"/><linearGradient id="linear-gradient-11" x1="208.8" y1="73.75" x2="211.41" y2="73.75" xlink:href="#linear-gradient"/><linearGradient id="linear-gradient-12" x1="208.8" y1="53.05" x2="211.41" y2="53.05" xlink:href="#linear-gradient"/><linearGradient id="linear-gradient-13" x1="193.5" y1="63.4" x2="204.21" y2="63.4" xlink:href="#linear-gradient"/><linearGradient id="linear-gradient-14" x1="216" y1="63.4" x2="226.71" y2="63.4" xlink:href="#linear-gradient"/><linearGradient id="linear-gradient-15" x1="55.91" y1="421.27" x2="90.05" y2="421.27" xlink:href="#linear-gradient"/><linearGradient id="linear-gradient-16" x1="56.05" y1="400.53" x2="90.14" y2="400.53" xlink:href="#linear-gradient"/><linearGradient id="linear-gradient-17" x1="345.5" y1="278.75" x2="348.1" y2="278.75" xlink:href="#linear-gradient-3"/><linearGradient id="linear-gradient-18" x1="345.5" y1="258.05" x2="348.1" y2="258.05" xlink:href="#linear-gradient-3"/><linearGradient id="linear-gradient-19" x1="351.8" y1="273.8" x2="361.7" y2="273.8" xlink:href="#linear-gradient-3"/><linearGradient id="linear-gradient-20" x1="332" y1="263" x2="341.9" y2="263" xlink:href="#linear-gradient-3"/><linearGradient id="linear-gradient-21" x1="331.9" y1="273.8" x2="341.8" y2="273.8" xlink:href="#linear-gradient-3"/><linearGradient id="linear-gradient-22" x1="351.7" y1="263" x2="361.6" y2="263" xlink:href="#linear-gradient-3"/><linearGradient id="linear-gradient-23" x1="474.1" y1="410.95" x2="476.7" y2="410.95" xlink:href="#linear-gradient"/><linearGradient id="linear-gradient-24" x1="474.1" y1="390.25" x2="476.7" y2="390.25" xlink:href="#linear-gradient"/><linearGradient id="linear-gradient-25" x1="458.8" y1="400.6" x2="469.5" y2="400.6" xlink:href="#linear-gradient"/><linearGradient id="linear-gradient-26" x1="481.2" y1="400.6" x2="491.91" y2="400.6" xlink:href="#linear-gradient"/><linearGradient id="linear-gradient-27" x1="480.31" y1="231.57" x2="514.45" y2="231.57" gradientUnits="userSpaceOnUse"><stop offset="0.04" stop-color="#3a3adb"/><stop offset="0.99" stop-color="#2a4b8c"/></linearGradient><linearGradient id="linear-gradient-28" x1="480.35" y1="210.83" x2="514.49" y2="210.83" xlink:href="#linear-gradient-27"/></defs><path class="cls-1" d="M89.5,126.5C79,109.2,68,97.8,50.6,89.7s-39.1-8.2-48,11.2,8.6,43.5,33.2,44.9c28.3,1.5,43.4,14.6,45,34,1,12.1,14.5,12.5,17.3,4.6C103.3,170,101.7,146.7,89.5,126.5Z"/><path class="cls-2" d="M311.5,26.9C194.9-92.8,68.2,219.8,35.7,320.8S140.6,438.1,233,456.2c147.6,28.8,215.2-27,226.7-94.2S428.1,146.7,311.5,26.9Z"/><path class="cls-3" d="M386.9,175.8C325,186.6,282.7,128,254.2,91.9c-22.4-28.4-116.5-75.1-175,8.7-53,76-31.1,189.1,52.3,246.4S342,399,420.9,363.5c49.9-22.4,112.9-64.1,120.7-123.3C550.2,175.4,481.9,159.3,386.9,175.8Z"/><path class="cls-4" d="M397.7,68.5c-2.5-.1-5-.1-7.6-.1-41.1,0-92.8,10.3-129.7,22.4L255,92.6c1.1,1.4,2.3,2.9,3.5,4.4,1.3-.4,2.5-.8,3.8-1.3,41-13.5,91.2-22.1,127.9-22.1,2.5,0,5,0,7.4.1,17.3.6,30.3,6.3,37.5,16.5,8.6,12.2,8.6,30.8-.1,52.2-3.9,9.7-7.2,18.9-9.9,28-11,36.6-13.6,72.1-14.2,134.2-.1,14.2,0,27.3.1,40,.1,8,.1,15.5.1,22.8,0,44.1-2.7,74.5-23,94.1-15.8,15.2-34.3,23.3-53.6,23.3-21.2,0-42.9-9.5-64.3-28.3C222.8,415,164,386,104.6,374.7c-45.6-8.7-81.4-17-93.8-36.9-6.7-10.9-6.7-25.6,0-45,6.3-18.1,18.4-43.1,41.9-70.5-.4-2.4-.7-4.8-1-7.1-23.6,26.5-38.1,52.7-46.2,76-21.7,62.6,25.1,74.8,97.9,88.7,58.6,11.2,115.8,39.3,162.8,80.5,24,21,47.1,29.7,68.1,29.7,22.1,0,41.8-9.7,57.6-24.9,22.1-21.4,24.6-53.8,24.6-100.1,0-18-.4-38.1-.2-60.4.6-64.3,3.4-98.8,14.5-134.7,2.6-8.3,5.7-16.8,9.2-25.6C458.1,99.7,439.9,69.9,397.7,68.5Z"/><path class="cls-5" d="M459.8,308.7c-35.5-38.4-76.5-14-105.7,29.4-27.1,40.3-10.6,87.6,33.3,58.4,38.3-25.4,61.6-18,78.7-35.1C489,338.7,459.8,308.7,459.8,308.7Z"/><path class="cls-6" d="M72.6,47.7a1.32,1.32,0,0,1-1.3-1.3V38.3a1.3,1.3,0,1,1,2.6,0v8.1A1.4,1.4,0,0,1,72.6,47.7Z"/><path class="cls-7" d="M72.6,27a1.32,1.32,0,0,1-1.3-1.3V17.6a1.3,1.3,0,1,1,2.6,0v8.1A1.32,1.32,0,0,1,72.6,27Z"/><path class="cls-8" d="M85.3,40.3l-7.1-3.8a1.13,1.13,0,0,1-.5-1.7,1.54,1.54,0,0,1,1.9-.5l7.1,3.8a1.13,1.13,0,0,1,.5,1.7A1.54,1.54,0,0,1,85.3,40.3Z"/><path class="cls-9" d="M65.6,29.5l-7.1-3.8A1.13,1.13,0,0,1,58,24a1.54,1.54,0,0,1,1.9-.5L67,27.3a1.13,1.13,0,0,1,.5,1.7A1.57,1.57,0,0,1,65.6,29.5Z"/><path class="cls-10" d="M57.9,39.8a1.13,1.13,0,0,1,.5-1.7l7.1-3.8a1.54,1.54,0,0,1,1.9.5,1.13,1.13,0,0,1-.5,1.7l-7.1,3.8A1.54,1.54,0,0,1,57.9,39.8Z"/><path class="cls-11" d="M77.7,29a1.13,1.13,0,0,1,.5-1.7l7.1-3.8a1.54,1.54,0,0,1,1.9.5,1.13,1.13,0,0,1-.5,1.7l-7.1,3.8A1.54,1.54,0,0,1,77.7,29Z"/><path class="cls-12" d="M210.1,79.1a1.32,1.32,0,0,1-1.3-1.3V69.7a1.3,1.3,0,0,1,2.6,0v8.1A1.21,1.21,0,0,1,210.1,79.1Z"/><path class="cls-13" d="M210.1,58.4a1.32,1.32,0,0,1-1.3-1.3V49a1.3,1.3,0,0,1,2.6,0v8.1A1.21,1.21,0,0,1,210.1,58.4Z"/><path class="cls-14" d="M202.9,64.7h-8.1a1.3,1.3,0,0,1,0-2.6h8.1a1.32,1.32,0,0,1,1.3,1.3A1.21,1.21,0,0,1,202.9,64.7Z"/><path class="cls-15" d="M225.4,64.7h-8.1a1.3,1.3,0,0,1,0-2.6h8.1a1.32,1.32,0,0,1,1.3,1.3A1.21,1.21,0,0,1,225.4,64.7Z"/><path class="cls-16" d="M73,428a17.92,17.92,0,0,1-17-11.7,1.27,1.27,0,0,1,1-1.7,1.31,1.31,0,0,1,1.6.8,15.42,15.42,0,0,0,28.8,0,1.38,1.38,0,0,1,2.6.9A18.06,18.06,0,0,1,73,428Z"/><path class="cls-17" d="M89.1,407.2a1.31,1.31,0,0,1-1.6-.8,15.42,15.42,0,0,0-28.8,0,1.38,1.38,0,0,1-2.6-.9,18.2,18.2,0,0,1,34,0A1.45,1.45,0,0,1,89.1,407.2Z"/><path class="cls-18" d="M346.8,284.1a1.32,1.32,0,0,1-1.3-1.3v-8.1a1.3,1.3,0,0,1,2.6,0v8.1A1.32,1.32,0,0,1,346.8,284.1Z"/><path class="cls-19" d="M346.8,263.4a1.32,1.32,0,0,1-1.3-1.3V254a1.3,1.3,0,0,1,2.6,0v8.1A1.32,1.32,0,0,1,346.8,263.4Z"/><path class="cls-20" d="M359.6,276.8l-7.1-3.8a1.13,1.13,0,0,1-.5-1.7,1.54,1.54,0,0,1,1.9-.5l7.1,3.8a1.13,1.13,0,0,1,.5,1.7A1.57,1.57,0,0,1,359.6,276.8Z"/><path class="cls-21" d="M339.8,266l-7.1-3.8a1.13,1.13,0,0,1-.5-1.7,1.54,1.54,0,0,1,1.9-.5l7.1,3.8a1.13,1.13,0,0,1,.5,1.7A1.57,1.57,0,0,1,339.8,266Z"/><path class="cls-22" d="M332.1,276.3a1.13,1.13,0,0,1,.5-1.7l7.1-3.8a1.54,1.54,0,0,1,1.9.5,1.13,1.13,0,0,1-.5,1.7l-7.1,3.8A1.57,1.57,0,0,1,332.1,276.3Z"/><path class="cls-23" d="M351.9,265.5a1.13,1.13,0,0,1,.5-1.7l7.1-3.8a1.54,1.54,0,0,1,1.9.5,1.13,1.13,0,0,1-.5,1.7l-7.1,3.8A1.54,1.54,0,0,1,351.9,265.5Z"/><path class="cls-24" d="M475.4,416.3a1.32,1.32,0,0,1-1.3-1.3v-8.1a1.3,1.3,0,0,1,2.6,0V415A1.32,1.32,0,0,1,475.4,416.3Z"/><path class="cls-25" d="M475.4,395.6a1.32,1.32,0,0,1-1.3-1.3v-8.1a1.3,1.3,0,0,1,2.6,0v8.1A1.32,1.32,0,0,1,475.4,395.6Z"/><path class="cls-26" d="M468.2,401.9h-8.1a1.3,1.3,0,0,1,0-2.6h8.1a1.3,1.3,0,1,1,0,2.6Z"/><path class="cls-27" d="M490.6,401.9h-8.1a1.3,1.3,0,0,1,0-2.6h8.1a1.32,1.32,0,0,1,1.3,1.3A1.21,1.21,0,0,1,490.6,401.9Z"/><path class="cls-28" d="M497.4,238.3a17.92,17.92,0,0,1-17-11.7,1.27,1.27,0,0,1,1-1.7,1.31,1.31,0,0,1,1.6.8,15.42,15.42,0,0,0,28.8,0,1.38,1.38,0,0,1,2.6.9A18.06,18.06,0,0,1,497.4,238.3Z"/><path class="cls-29" d="M513.4,217.5a1.31,1.31,0,0,1-1.6-.8,15.42,15.42,0,0,0-28.8,0,1.38,1.38,0,0,1-2.6-.9,18.2,18.2,0,0,1,34,0A1.3,1.3,0,0,1,513.4,217.5Z"/><path class="cls-30" d="M116.11,124.21c.9-.29.67-1.17.86-1.78,3.56-11.31,12.17-17.72,24.23-17.74q45.5-.07,91,0c10.21,0,20.42,0,30.63-.06a7,7,0,0,1,5.16,2q27.19,25.34,54.48,50.54a7.48,7.48,0,0,1,2.61,6.08c-.09,18.81,0,37.62-.1,56.43,0,1.88.49,2.57,2.41,2.92,38.16,7,56.07,52.21,33.28,84-1.43,2-1.65,3,.29,4.81,3.88,3.54,7.49,7.38,11.1,11.2A3.44,3.44,0,0,0,376,323.7,12.94,12.94,0,0,1,389.16,327c11.38,11.36,22.71,22.76,33.88,34.33,5.47,5.66,5,14.31-.64,19.92a13.64,13.64,0,0,1-19.39.12c-11.51-11.37-22.83-22.93-34.07-34.55-3.57-3.69-4.34-8.38-2.9-13.28a3.34,3.34,0,0,0-1-3.9c-4-3.86-7.87-7.86-11.7-11.89-1.12-1.17-1.84-1.32-3.19-.23a49.41,49.41,0,0,1-22.89,10.38c-2.09.36-2.33,1.21-2.31,2.95q.11,10.62,0,21.23c-.11,15.12-10.28,25.21-25.4,25.21H142.48c-13.54,0-21.48-5.73-25.71-18.57-.13-.39-.19-.77-.66-.88ZM271.86,248.34H245.42c-7.33,0-7.24,0-7.33-7.4,0-2.1.47-2.71,2.64-2.69,11.93.12,23.86,0,35.79.1a6.46,6.46,0,0,0,5-2A50.28,50.28,0,0,1,312.81,222c2.22-.19,2.3-1.15,2.3-2.85,0-16.59-.07-33.17,0-49.76,0-2.18-.64-2.65-2.72-2.64-11.93.1-23.86.06-35.79.05-10.83,0-17.85-7-17.89-17.77,0-9.51,0-19,0-28.52,0-5.87,0-5.87-5.73-5.87q-55.51,0-111,0c-4.78,0-9,1.15-12.26,4.82-3,3.31-3.61,7.28-3.6,11.55q0,65.23,0,130.46,0,44.9,0,89.8c0,3.61.44,7,2.6,10.08,3.31,4.66,8,6.11,13.45,6.1q78.42,0,156.83,0c.71,0,1.42,0,2.13,0,8.24-.56,13.81-6.33,13.92-14.62.1-7.28,0-14.57.06-21.85,0-1.71-.51-2.11-2.17-2.28a51.82,51.82,0,0,1-30.43-13.53,5.47,5.47,0,0,0-4.06-1.44c-11,0-22,0-33.07,0-7.26,0-7.16,0-7.27-7.12,0-2.22.47-2.9,2.8-2.87,9.5.15,19,.06,28.51.06h3.47a66.58,66.58,0,0,1-5-10.85,46.28,46.28,0,0,1-2.52-11.5c-.11-1.63-1.13-1.61-2.32-1.61-5.86,0-11.73,0-17.59,0-7.34,0-7.23,0-7.31-7.42,0-2.26.78-2.6,2.77-2.57,7.38.11,14.76,0,22.14.07,1.58,0,2.3-.28,2.45-2.08a45.23,45.23,0,0,1,2.14-9.42C268.65,255,270.32,251.9,271.86,248.34ZM275,275.2c0,23.74,19.22,43.64,42.12,43.64,26.21,0,43.63-21.45,43.6-43.42,0-24.32-19.12-43.72-43.23-43.76C294.19,231.62,275,251.27,275,275.2Zm-6.13-154c0,10.22-.1,19.69.05,29.16.06,3.79,2.75,6.2,6.68,6.43,2.41.15,4.84.05,7.26.05h24.48ZM416.72,370.85c.11-1.62-.92-2.61-1.92-3.62q-15.74-15.94-31.46-31.9c-2.58-2.61-4.44-2.83-6.46-.88s-2,4.17.52,6.79c5.22,5.34,10.48,10.64,15.72,16s10.77,10.91,16.16,16.36c1.36,1.37,2.88,2.28,4.86,1.36A4.28,4.28,0,0,0,416.72,370.85Z"/><path class="cls-30" d="M145.25,273.51q0-16.68,0-33.36c0-4.55,1.67-6.28,6.17-6.28q31.25,0,62.48,0c4.39,0,6.07,1.68,6.07,6q0,33.81,0,67.63c0,4.52-1.66,6.12-6.27,6.12H151.53c-4.65,0-6.27-1.69-6.28-6.47Q145.24,290.34,145.25,273.51Zm10.07.31c0,8.79.09,17.59-.06,26.39,0,2.62.43,3.6,3.39,3.57,16.08-.16,32.16-.13,48.24,0,2.43,0,3.25-.47,3.23-3.1q-.19-27,0-54c0-2.18-.4-2.92-2.77-2.9q-24.74.18-49.45,0c-2.23,0-2.63.72-2.61,2.74C155.38,255.61,155.32,264.71,155.32,273.82Z"/><path class="cls-30" d="M220.47,345.16c-22.44,0-44.87,0-67.3,0-2.33,0-3.07-.5-3-2.95.15-7.07,0-7.07,7.07-7.07q65.18,0,130.35-.07c2.82,0,3.46.77,3.38,3.45-.2,6.58-.06,6.59-6.53,6.59Z"/><path class="cls-30" d="M174.55,166.5c2.62-6.42,4.95-12.74,7.64-18.93.78-1.8,1.76-2.23,3.6-2.28a3.18,3.18,0,0,1,3.55,2.39c2.37,6.06,4.86,12.07,7.3,18.1.92,0,.8-.83.94-1.33.43-1.57,1.07-2.06,2.68-1.16a8.82,8.82,0,0,0,5.59.87,2,2,0,0,0,1.79-1.42,1.75,1.75,0,0,0-1.07-2c-1.53-.76-3.13-1.37-4.69-2.08-3.51-1.59-4.94-4-4.51-7.68.36-3.06,2.51-5.23,6-5.93a12.91,12.91,0,0,1,6.29.34c3.36,1,3.49,1.3,2.21,4.57-.55,1.4-1,1.8-2.58,1.1-1.85-.82-4.74-2-5.64.31-1,2.6,2.4,2.58,4,3.45,1.87,1,3.87,1.7,5,3.66a7,7,0,0,1-4.17,10.62,9.27,9.27,0,0,1-4.16.5,40.62,40.62,0,0,0-11.59-.44c-2,.13-2.05-1.45-2.27-2.58-.73-3.75-3.62-2.2-5.76-2.53s-3.29.36-3.85,2.59c-.65,2.58-2.68,3.36-6.23,2.35a5.29,5.29,0,0,0-3.08,0c-3.6.94-7.21,1.07-10.61-.76-4.81-2.59-6.94-10.05-4.65-16.14A11.46,11.46,0,0,1,169.54,145a18.1,18.1,0,0,1,2.05.52c2.82.87,3.51,3.72,1.48,5.93-.76.83-1.25,0-1.81-.22-6.26-2.37-10,.28-9.65,6.86.27,4.79,3.34,7.18,8.07,5.62C172.64,162.76,174.17,163,174.55,166.5Zm13.21-7.73c-.76-1.9-1-3.67-2.26-5.26-.53,1.85-1.56,3.36-1.63,5.26Z"/><path class="cls-30" d="M161.3,191.59c-.61,2.82-1.91,3.74-4.41,2.2a3.9,3.9,0,0,0-1.76-.34c-1.22-.07-2.68-.15-3,1.37-.25,1.31,1,1.79,2,2.26,1.37.63,2.8,1.14,4.15,1.82,3.18,1.63,4.43,4.1,4,7.72-.36,3.11-2.14,4.94-5.68,5.81a16.18,16.18,0,0,1-9.5-.81c-3.08-1.09-.83-2.91-.62-4.39.27-1.89,1.36-1.27,2.51-.72a10,10,0,0,0,5.33.82c.84-.08,1.61-.33,1.88-1.24a1.79,1.79,0,0,0-1-2.26c-1.53-.76-3.15-1.34-4.7-2.05-3.2-1.44-4.84-4.06-4.53-7.14.34-3.26,2.23-5.39,5.68-6.23A7.71,7.71,0,0,1,155,188c7.88,1.65,15.8,0,23.69.4,2.08.11,2.54.73,2.4,2.59-.12,1.6.34,3.11-2.32,3-4.36-.18-4.36,0-4.36,4.36,0,4-.13,8.09,0,12.12.09,2.28-1.35,2-2.52,1.73s-3.53,1.33-3.5-1.7c0-4.14,0-8.29,0-12.43s0-4.1-4.06-4.15C162.07,193.93,162.07,193.93,161.3,191.59Z"/><path class="cls-30" d="M203.94,200.38c0-3.13.09-6.26,0-9.39-.07-1.72.63-2.34,2.23-2.44a42.08,42.08,0,0,1,8.17,0c5.9.74,9.63,5,9.82,11.15.2,6.67-3.13,11.28-9,12.48-.69.14-1.4.2-2.1.29-8.24,1-9,.32-9-7.85Zm5.77.08c0,1.51.12,3,0,4.54-.19,2.07.78,2.38,2.53,2.11,2.32-.37,4.36-1.06,5.25-3.48,1-2.7,1-5.4-.74-7.81a5.65,5.65,0,0,0-6-2c-2,.44-.66,2.55-1,3.89A13,13,0,0,0,209.71,200.46Z"/><path class="cls-30" d="M215.18,157.13c0-3.23.07-6.46,0-9.68,0-1.55.37-2.14,2-2.1,4,.11,8.08.14,12.11,0,2.31-.09,1.71,1.44,1.69,2.61s.7,3-1.81,2.82c-2.11-.15-4.24,0-6.36-.05-1.31-.06-1.72.36-1.73,1.69s.48,1.75,1.76,1.67,2.84.13,4.23-.06c2.46-.33,3.11.65,3,3-.08,1.74-.32,2.65-2.31,2.4a37,37,0,0,0-3.94,0c-1.51,0-2.83-.37-2.81,2.16s1.18,2.27,2.77,2.22c2,0,4.05.12,6.05,0,2.34-.19,2,1.31,2,2.72s.49,2.84-1.93,2.75c-4.23-.17-8.47-.12-12.71,0-1.61,0-2.08-.49-2-2.06C215.25,163.8,215.18,160.47,215.18,157.13Z"/><path class="cls-30" d="M181.81,197a51.27,51.27,0,0,0,0-5.59c-.29-2.41.61-3,3-3,2.6-.07,3.22.71,3.06,3.18-.23,3.62-.09,7.27-.05,10.9.05,3.4,1.22,4.92,3.68,4.81,3-.14,3.49-2.3,3.52-4.68,0-4,.17-8.09,0-12.12-.13-2.38,1.27-2.14,2.63-1.95s3.47-1.17,3.37,1.86c-.14,4.54.15,9.1-.19,13.62-.51,6.7-5.65,10.12-12.17,8.46a8.06,8.06,0,0,1-6.39-6.84C181.58,202.64,181.94,199.61,181.81,197Z"/><path class="cls-30" d="M222.46,189c8.13-3.21,8.09,4.33,11.17,8.05.8-1.42,1.85-2.64,2.22-4.05,1.21-4.59,4.34-5.16,8.72-4.18a83.17,83.17,0,0,1-4.67,8.34c-2.74,3.88-4.27,8-3.52,12.71.4,2.46-1,2.49-2.8,2.45s-3.45.16-3-2.56c.71-4.63-.74-8.65-3.41-12.45A89.84,89.84,0,0,1,222.46,189Z"/></svg>