<svg id="Layer_1" data-name="Layer 1" xmlns="http://www.w3.org/2000/svg" xmlns:xlink="http://www.w3.org/1999/xlink" viewBox="0 0 543 490"><defs><style>.cls-1{fill:url(#linear-gradient);}.cls-2{fill:#2a2a8c;}.cls-3{fill:url(#linear-gradient-2);}.cls-4{opacity:0.9;fill:url(#linear-gradient-3);}.cls-5{fill:url(#linear-gradient-4);}.cls-6{fill:url(#linear-gradient-5);}.cls-7{fill:url(#linear-gradient-6);}.cls-8{fill:url(#linear-gradient-7);}.cls-9{fill:url(#linear-gradient-8);}.cls-10{fill:url(#linear-gradient-9);}.cls-11{fill:url(#linear-gradient-10);}.cls-12,.cls-13,.cls-14,.cls-15,.cls-18,.cls-19,.cls-20,.cls-21,.cls-22,.cls-23,.cls-28,.cls-29{fill-opacity:0.2;}.cls-12{fill:url(#linear-gradient-11);}.cls-13{fill:url(#linear-gradient-12);}.cls-14{fill:url(#linear-gradient-13);}.cls-15{fill:url(#linear-gradient-14);}.cls-16{fill:url(#linear-gradient-15);}.cls-17{fill:url(#linear-gradient-16);}.cls-18{fill:url(#linear-gradient-17);}.cls-19{fill:url(#linear-gradient-18);}.cls-20{fill:url(#linear-gradient-19);}.cls-21{fill:url(#linear-gradient-20);}.cls-22{fill:url(#linear-gradient-21);}.cls-23{fill:url(#linear-gradient-22);}.cls-24{fill:url(#linear-gradient-23);}.cls-25{fill:url(#linear-gradient-24);}.cls-26{fill:url(#linear-gradient-25);}.cls-27{fill:url(#linear-gradient-26);}.cls-28{fill:url(#linear-gradient-27);}.cls-29{fill:url(#linear-gradient-28);}.cls-30{fill:none;stroke:#39ffff;stroke-miterlimit:10;stroke-width:2px;}</style><linearGradient id="linear-gradient" x1="0.21" y1="137.11" x2="100.9" y2="137.11" gradientUnits="userSpaceOnUse"><stop offset="0.04" stop-color="#3a3adb"/><stop offset="0.99" stop-color="#2a2a8c"/></linearGradient><linearGradient id="linear-gradient-2" x1="50.45" y1="221.61" x2="542.33" y2="221.61" gradientUnits="userSpaceOnUse"><stop offset="0.04" stop-color="#3a3adb"/><stop offset="0.77" stop-color="#2a2a8c"/></linearGradient><linearGradient id="linear-gradient-3" x1="0.16" y1="279.25" x2="446.97" y2="279.25" gradientUnits="userSpaceOnUse"><stop offset="0.04" stop-color="#3a3adb"/><stop offset="0.99" stop-color="#2a47c9"/></linearGradient><linearGradient id="linear-gradient-4" x1="340.93" y1="347.57" x2="474.87" y2="347.57" xlink:href="#linear-gradient"/><linearGradient id="linear-gradient-5" x1="71.3" y1="42.35" x2="73.9" y2="42.35" xlink:href="#linear-gradient"/><linearGradient id="linear-gradient-6" x1="71.3" y1="21.65" x2="73.9" y2="21.65" xlink:href="#linear-gradient"/><linearGradient id="linear-gradient-7" x1="77.5" y1="37.3" x2="87.4" y2="37.3" xlink:href="#linear-gradient"/><linearGradient id="linear-gradient-8" x1="57.8" y1="26.5" x2="67.7" y2="26.5" xlink:href="#linear-gradient"/><linearGradient id="linear-gradient-9" x1="57.7" y1="37.3" x2="67.6" y2="37.3" xlink:href="#linear-gradient"/><linearGradient id="linear-gradient-10" x1="77.5" y1="26.5" x2="87.4" y2="26.5" xlink:href="#linear-gradient"/><linearGradient id="linear-gradient-11" x1="208.8" y1="73.75" x2="211.41" y2="73.75" xlink:href="#linear-gradient"/><linearGradient id="linear-gradient-12" x1="208.8" y1="53.05" x2="211.41" y2="53.05" xlink:href="#linear-gradient"/><linearGradient id="linear-gradient-13" x1="193.5" y1="63.4" x2="204.21" y2="63.4" xlink:href="#linear-gradient"/><linearGradient id="linear-gradient-14" x1="216" y1="63.4" x2="226.71" y2="63.4" xlink:href="#linear-gradient"/><linearGradient id="linear-gradient-15" x1="55.91" y1="421.27" x2="90.05" y2="421.27" xlink:href="#linear-gradient"/><linearGradient id="linear-gradient-16" x1="56.05" y1="400.53" x2="90.14" y2="400.53" xlink:href="#linear-gradient"/><linearGradient id="linear-gradient-17" x1="345.5" y1="278.75" x2="348.1" y2="278.75" xlink:href="#linear-gradient-3"/><linearGradient id="linear-gradient-18" x1="345.5" y1="258.05" x2="348.1" y2="258.05" xlink:href="#linear-gradient-3"/><linearGradient id="linear-gradient-19" x1="351.8" y1="273.8" x2="361.7" y2="273.8" xlink:href="#linear-gradient-3"/><linearGradient id="linear-gradient-20" x1="332" y1="263" x2="341.9" y2="263" xlink:href="#linear-gradient-3"/><linearGradient id="linear-gradient-21" x1="331.9" y1="273.8" x2="341.8" y2="273.8" xlink:href="#linear-gradient-3"/><linearGradient id="linear-gradient-22" x1="351.7" y1="263" x2="361.6" y2="263" xlink:href="#linear-gradient-3"/><linearGradient id="linear-gradient-23" x1="474.1" y1="410.95" x2="476.7" y2="410.95" xlink:href="#linear-gradient"/><linearGradient id="linear-gradient-24" x1="474.1" y1="390.25" x2="476.7" y2="390.25" xlink:href="#linear-gradient"/><linearGradient id="linear-gradient-25" x1="458.8" y1="400.6" x2="469.5" y2="400.6" xlink:href="#linear-gradient"/><linearGradient id="linear-gradient-26" x1="481.2" y1="400.6" x2="491.91" y2="400.6" xlink:href="#linear-gradient"/><linearGradient id="linear-gradient-27" x1="480.31" y1="231.57" x2="514.45" y2="231.57" gradientUnits="userSpaceOnUse"><stop offset="0.04" stop-color="#3a3adb"/><stop offset="0.99" stop-color="#2a4b8c"/></linearGradient><linearGradient id="linear-gradient-28" x1="480.35" y1="210.83" x2="514.49" y2="210.83" xlink:href="#linear-gradient-27"/></defs><path class="cls-1" d="M89.5,126.5C79,109.2,68,97.8,50.6,89.7s-39.1-8.2-48,11.2,8.6,43.5,33.2,44.9c28.3,1.5,43.4,14.6,45,34,1,12.1,14.5,12.5,17.3,4.6C103.3,170,101.7,146.7,89.5,126.5Z"/><path class="cls-2" d="M311.5,26.9C194.9-92.8,68.2,219.8,35.7,320.8S140.6,438.1,233,456.2c147.6,28.8,215.2-27,226.7-94.2S428.1,146.7,311.5,26.9Z"/><path class="cls-3" d="M386.9,175.8C325,186.6,282.7,128,254.2,91.9c-22.4-28.4-116.5-75.1-175,8.7-53,76-31.1,189.1,52.3,246.4S342,399,420.9,363.5c49.9-22.4,112.9-64.1,120.7-123.3C550.2,175.4,481.9,159.3,386.9,175.8Z"/><path class="cls-4" d="M397.7,68.5c-2.5-.1-5-.1-7.6-.1-41.1,0-92.8,10.3-129.7,22.4L255,92.6c1.1,1.4,2.3,2.9,3.5,4.4,1.3-.4,2.5-.8,3.8-1.3,41-13.5,91.2-22.1,127.9-22.1,2.5,0,5,0,7.4.1,17.3.6,30.3,6.3,37.5,16.5,8.6,12.2,8.6,30.8-.1,52.2-3.9,9.7-7.2,18.9-9.9,28-11,36.6-13.6,72.1-14.2,134.2-.1,14.2,0,27.3.1,40,.1,8,.1,15.5.1,22.8,0,44.1-2.7,74.5-23,94.1-15.8,15.2-34.3,23.3-53.6,23.3-21.2,0-42.9-9.5-64.3-28.3C222.8,415,164,386,104.6,374.7c-45.6-8.7-81.4-17-93.8-36.9-6.7-10.9-6.7-25.6,0-45,6.3-18.1,18.4-43.1,41.9-70.5-.4-2.4-.7-4.8-1-7.1-23.6,26.5-38.1,52.7-46.2,76-21.7,62.6,25.1,74.8,97.9,88.7,58.6,11.2,115.8,39.3,162.8,80.5,24,21,47.1,29.7,68.1,29.7,22.1,0,41.8-9.7,57.6-24.9,22.1-21.4,24.6-53.8,24.6-100.1,0-18-.4-38.1-.2-60.4.6-64.3,3.4-98.8,14.5-134.7,2.6-8.3,5.7-16.8,9.2-25.6C458.1,99.7,439.9,69.9,397.7,68.5Z"/><path class="cls-5" d="M459.8,308.7c-35.5-38.4-76.5-14-105.7,29.4-27.1,40.3-10.6,87.6,33.3,58.4,38.3-25.4,61.6-18,78.7-35.1C489,338.7,459.8,308.7,459.8,308.7Z"/><path class="cls-6" d="M72.6,47.7a1.32,1.32,0,0,1-1.3-1.3V38.3a1.3,1.3,0,1,1,2.6,0v8.1A1.4,1.4,0,0,1,72.6,47.7Z"/><path class="cls-7" d="M72.6,27a1.32,1.32,0,0,1-1.3-1.3V17.6a1.3,1.3,0,1,1,2.6,0v8.1A1.32,1.32,0,0,1,72.6,27Z"/><path class="cls-8" d="M85.3,40.3l-7.1-3.8a1.13,1.13,0,0,1-.5-1.7,1.54,1.54,0,0,1,1.9-.5l7.1,3.8a1.13,1.13,0,0,1,.5,1.7A1.54,1.54,0,0,1,85.3,40.3Z"/><path class="cls-9" d="M65.6,29.5l-7.1-3.8A1.13,1.13,0,0,1,58,24a1.54,1.54,0,0,1,1.9-.5L67,27.3a1.13,1.13,0,0,1,.5,1.7A1.57,1.57,0,0,1,65.6,29.5Z"/><path class="cls-10" d="M57.9,39.8a1.13,1.13,0,0,1,.5-1.7l7.1-3.8a1.54,1.54,0,0,1,1.9.5,1.13,1.13,0,0,1-.5,1.7l-7.1,3.8A1.54,1.54,0,0,1,57.9,39.8Z"/><path class="cls-11" d="M77.7,29a1.13,1.13,0,0,1,.5-1.7l7.1-3.8a1.54,1.54,0,0,1,1.9.5,1.13,1.13,0,0,1-.5,1.7l-7.1,3.8A1.54,1.54,0,0,1,77.7,29Z"/><path class="cls-12" d="M210.1,79.1a1.32,1.32,0,0,1-1.3-1.3V69.7a1.3,1.3,0,0,1,2.6,0v8.1A1.21,1.21,0,0,1,210.1,79.1Z"/><path class="cls-13" d="M210.1,58.4a1.32,1.32,0,0,1-1.3-1.3V49a1.3,1.3,0,0,1,2.6,0v8.1A1.21,1.21,0,0,1,210.1,58.4Z"/><path class="cls-14" d="M202.9,64.7h-8.1a1.3,1.3,0,0,1,0-2.6h8.1a1.32,1.32,0,0,1,1.3,1.3A1.21,1.21,0,0,1,202.9,64.7Z"/><path class="cls-15" d="M225.4,64.7h-8.1a1.3,1.3,0,0,1,0-2.6h8.1a1.32,1.32,0,0,1,1.3,1.3A1.21,1.21,0,0,1,225.4,64.7Z"/><path class="cls-16" d="M73,428a17.92,17.92,0,0,1-17-11.7,1.27,1.27,0,0,1,1-1.7,1.31,1.31,0,0,1,1.6.8,15.42,15.42,0,0,0,28.8,0,1.38,1.38,0,0,1,2.6.9A18.06,18.06,0,0,1,73,428Z"/><path class="cls-17" d="M89.1,407.2a1.31,1.31,0,0,1-1.6-.8,15.42,15.42,0,0,0-28.8,0,1.38,1.38,0,0,1-2.6-.9,18.2,18.2,0,0,1,34,0A1.45,1.45,0,0,1,89.1,407.2Z"/><path class="cls-18" d="M346.8,284.1a1.32,1.32,0,0,1-1.3-1.3v-8.1a1.3,1.3,0,0,1,2.6,0v8.1A1.32,1.32,0,0,1,346.8,284.1Z"/><path class="cls-19" d="M346.8,263.4a1.32,1.32,0,0,1-1.3-1.3V254a1.3,1.3,0,0,1,2.6,0v8.1A1.32,1.32,0,0,1,346.8,263.4Z"/><path class="cls-20" d="M359.6,276.8l-7.1-3.8a1.13,1.13,0,0,1-.5-1.7,1.54,1.54,0,0,1,1.9-.5l7.1,3.8a1.13,1.13,0,0,1,.5,1.7A1.57,1.57,0,0,1,359.6,276.8Z"/><path class="cls-21" d="M339.8,266l-7.1-3.8a1.13,1.13,0,0,1-.5-1.7,1.54,1.54,0,0,1,1.9-.5l7.1,3.8a1.13,1.13,0,0,1,.5,1.7A1.57,1.57,0,0,1,339.8,266Z"/><path class="cls-22" d="M332.1,276.3a1.13,1.13,0,0,1,.5-1.7l7.1-3.8a1.54,1.54,0,0,1,1.9.5,1.13,1.13,0,0,1-.5,1.7l-7.1,3.8A1.57,1.57,0,0,1,332.1,276.3Z"/><path class="cls-23" d="M351.9,265.5a1.13,1.13,0,0,1,.5-1.7l7.1-3.8a1.54,1.54,0,0,1,1.9.5,1.13,1.13,0,0,1-.5,1.7l-7.1,3.8A1.54,1.54,0,0,1,351.9,265.5Z"/><path class="cls-24" d="M475.4,416.3a1.32,1.32,0,0,1-1.3-1.3v-8.1a1.3,1.3,0,0,1,2.6,0V415A1.32,1.32,0,0,1,475.4,416.3Z"/><path class="cls-25" d="M475.4,395.6a1.32,1.32,0,0,1-1.3-1.3v-8.1a1.3,1.3,0,0,1,2.6,0v8.1A1.32,1.32,0,0,1,475.4,395.6Z"/><path class="cls-26" d="M468.2,401.9h-8.1a1.3,1.3,0,0,1,0-2.6h8.1a1.3,1.3,0,1,1,0,2.6Z"/><path class="cls-27" d="M490.6,401.9h-8.1a1.3,1.3,0,0,1,0-2.6h8.1a1.32,1.32,0,0,1,1.3,1.3A1.21,1.21,0,0,1,490.6,401.9Z"/><path class="cls-28" d="M497.4,238.3a17.92,17.92,0,0,1-17-11.7,1.27,1.27,0,0,1,1-1.7,1.31,1.31,0,0,1,1.6.8,15.42,15.42,0,0,0,28.8,0,1.38,1.38,0,0,1,2.6.9A18.06,18.06,0,0,1,497.4,238.3Z"/><path class="cls-29" d="M513.4,217.5a1.31,1.31,0,0,1-1.6-.8,15.42,15.42,0,0,0-28.8,0,1.38,1.38,0,0,1-2.6-.9,18.2,18.2,0,0,1,34,0A1.3,1.3,0,0,1,513.4,217.5Z"/><path class="cls-30" d="M246.21,173c-5.87,5-11.47,10-17.28,14.7-2,1.59-1.71,2.66-.4,4.43a43.54,43.54,0,0,1,8.41,21.57,8,8,0,0,0,3.55,6.09q9,6.69,17.72,13.81c1.91,1.55,3.27,1.79,5.63.6a16.52,16.52,0,0,1,21,4.6,16.85,16.85,0,0,1,.09,20.8,17.14,17.14,0,0,1-20.64,5.1c-7.3-3.38-11.16-11.16-9.27-19.5.5-2.21.08-3.3-1.6-4.56-4.79-3.59-9.47-7.34-14.2-11-.65-.5-1.32-1-2.39-1.75-.46,1.42-.87,2.57-1.2,3.75-6.41,23.06-27.75,37.22-51.74,34.32-21.58-2.6-39.46-22.22-40.32-44.24a46.81,46.81,0,0,1,38.3-48.34c3.66-.68,4.79-1.82,4.42-5.32a45.35,45.35,0,0,1,0-8c.38-5.42-.07-9.6-6.06-12.75-6.63-3.48-8.39-12.38-5.64-19.44a17.05,17.05,0,0,1,32.52,2.59c1.66,6.94-1.52,15-8.17,18.21-3.68,1.78-4.82,3.92-4.28,7.56a2.77,2.77,0,0,1,0,.5c0,4.83-1.33,10.24.41,14.33s8.17,2.5,12.23,4.53c3.87,1.94,7.84,3.67,11.23,6.38,1.62,1.29,2.72,1.18,4.26-.16q10.73-9.36,21.63-18.51c1.67-1.39,1.68-3.12,1.9-4.91,2.69-22.34,21.12-39.91,43.27-41.24a46.9,46.9,0,0,1,48.75,35.91,7,7,0,0,0,4.32,5.41c8.44,3.91,16.8,8,25.11,12.14,2.24,1.12,3.9,1.37,6.32,0A16.44,16.44,0,0,1,395,173.9a17,17,0,0,1-18.64,27.24c-7.49-2.85-12.07-10-10.68-18.23.57-3.36-.59-4.26-3.1-5.42-7.5-3.46-14.91-7.13-22.78-10.92-1.19,12.09-5.55,22.26-13.88,30.5-1.37,1.36-1.32,2.27-.22,3.71,6.46,8.47,12.9,16.95,19.19,25.53,1.24,1.69,2.66,1.61,4.32,1.68,25.7,1,45.27,20.61,46,46,.72,24.47-18.47,45.81-43.72,47.68-17.43,1.29-31.5-5.85-41.58-20.07-2.41-3.39-3.8-3.21-6.22-.74a11.11,11.11,0,0,1-1.21.89c-3.93,3.05-9.66,5.37-11.28,9.36s1.84,9.5,1.48,14.54c-.15,2,1.25,2.53,2.56,3.17,9,4.35,18,8.62,26.89,13,1.73.85,2.89.49,4.49-.41,7.83-4.36,16.24-3,21.7,3.33a17,17,0,1,1-29.52,7.93c.41-2.38-.11-3.15-2.06-4.06-6.93-3.2-13.89-6.38-20.62-10-3.41-1.83-4.57-1.67-5.89,2.34-5.93,18.08-23.12,31.16-41.26,31.93-20.11.85-37.65-9.72-45.8-27.6a37.9,37.9,0,0,1-3.53-11.89c-.26-2.64-1.34-3.31-3.79-3.24-5.16.15-10.34.17-15.49,0-2.4-.09-3.38.88-4.41,2.95-3.88,7.79-11.68,11.45-19.4,9.46a17.06,17.06,0,0,1,.56-33.26c7.5-1.7,15.26,2.07,18.88,9.68,1.06,2.2,2.12,2.92,4.4,2.86,5.16-.14,10.33-.15,15.49,0,2.46.08,3.3-.64,3.77-3.22,4-21.81,20-37.2,41.87-39.25,18-1.68,32.51,5.44,43,20.22,1.91,2.7,3.17,3.24,5.41.86a3,3,0,0,1,.4-.3c8.58-5.19,13.54-10.4,11.78-22.83-3-21.21,10.44-39.16,30.66-46.61,2.73-1,3.81-1.66,1.57-4.47-5.09-6.37-9.88-13-14.74-19.52-1.25-1.68-2.08-2.86-4.66-1.48-28.92,15.52-61.71-2.6-67.8-30.9C247.05,174.06,246.76,173.81,246.21,173ZM374.36,302.47c15.91-14.1,16.25-39.43,1.07-54.69a38.41,38.41,0,0,0-55.66,1.43c-14,15.38-12.85,40.62,2.36,53.16,2.23-11.94,5.59-14.65,18.18-14.65q8.24,0,16.48,0C368.65,287.73,372.07,290.53,374.36,302.47ZM318.87,191.54c11.58-9.5,15.57-27.31,9.44-42.22-6.58-16-22.62-25.22-40.65-23.31-15.91,1.68-29.27,14.54-32.57,31.33-2.53,12.87,3.36,29.33,12.13,34,.65-10.11,5.1-14.39,15.11-14.47,6.33-.05,12.66,0,19,0C313.33,176.84,317.14,180,318.87,191.54ZM271.69,354a37.54,37.54,0,0,0,9.44-43.15C274.34,295.2,258.8,286.3,241.21,288c-15.11,1.43-29,13.78-32.58,28.92-3.31,14.05,1.94,30.61,11.57,36.54.9-10.57,5.25-14.54,16-14.57q10,0,20,0C266.34,338.91,270.89,343.22,271.69,354ZM216.56,247c11.84-10.44,15.48-27.89,9.15-42.64A38.3,38.3,0,0,0,153,211.07c-3.1,13,2.39,30,11.49,35.51,1.8-11,5.83-14.45,17-14.46h17C210.72,232.12,214.22,234.94,216.56,247Zm29.75,100.3c-4.14,0-8.29-.11-12.44,0-3.07.11-5.23,1.83-5,5s-2.22,7.41,3,9.27a41,41,0,0,0,27.75.17c5.48-1.84,2.93-6.24,3.21-9.61s-2-4.73-5.07-4.84C253.94,347.23,250.13,347.32,246.31,347.34ZM293,185.21v0c-4,0-8-.08-12,0-3,.08-5.39,1.66-5.19,4.8.22,3.35-2.35,7.71,3.17,9.62a41.58,41.58,0,0,0,27.29.17c5.82-1.9,3.16-6.48,3.37-10s-2.64-4.59-5.75-4.64C300.27,185.17,296.62,185.21,293,185.21Zm55.47,110.9c-4,0-8-.1-11.94,0-2.7.1-5.31,1.17-5,4.28.33,3.49-2.7,8.12,3,10.15a41,41,0,0,0,27.28.14c5.83-1.91,3.29-6.46,3.41-9.95s-2.65-4.64-5.82-4.65C355.74,296.08,352.09,296.1,348.44,296.11ZM190.79,240.83h-12c-2.79,0-5.45,1-5.16,4,.32,3.45-2.86,8.1,2.89,10.18a38.52,38.52,0,0,0,23.93,1.2c7.35-2,7.26-2.09,7.08-9.73-.1-4-1.91-5.76-5.81-5.7C198.1,240.86,194.45,240.82,190.79,240.83Zm200-55.57a8.23,8.23,0,0,0-8.58-8.37,8.48,8.48,0,0,0-8.32,8.2,8.67,8.67,0,0,0,8.4,8.74A8.52,8.52,0,0,0,390.8,185.26ZM190.66,142.54a8.36,8.36,0,0,0,8.21-8.76,8.27,8.27,0,0,0-8.36-8.07,8.42,8.42,0,1,0,.15,16.83ZM280,249.37a8.44,8.44,0,0,0-16.87-.45,8.44,8.44,0,1,0,16.87.45ZM160.48,317.61a8.28,8.28,0,0,0-8.27,8.66,8.42,8.42,0,0,0,16.84-.26A8.35,8.35,0,0,0,160.48,317.61Zm183.43,38.51a8.44,8.44,0,1,0-16.87-.25,8.44,8.44,0,0,0,16.87.25Z"/><path class="cls-30" d="M348.17,279a17,17,0,0,1-.05-34,17,17,0,1,1,.05,34Zm8.47-16.85a8.21,8.21,0,0,0-8.39-8.53,8.52,8.52,0,0,0-8.53,8.53,8.69,8.69,0,0,0,8.28,8.37A8.42,8.42,0,0,0,356.64,262.17Z"/><path class="cls-30" d="M309.75,151.23a16.79,16.79,0,0,1-17.12,16.89,17.16,17.16,0,0,1-16.9-16.77,17.33,17.33,0,0,1,17-17.25A17,17,0,0,1,309.75,151.23Zm-8.39.16a8.5,8.5,0,0,0-8.44-8.63,8.25,8.25,0,0,0-8.5,8,8.53,8.53,0,0,0,8.08,9A8.73,8.73,0,0,0,301.36,151.39Z"/><path class="cls-30" d="M262.87,313.48a16.8,16.8,0,0,1-17.47,16.65A17.05,17.05,0,0,1,228.84,313a17.39,17.39,0,0,1,17.07-16.84A17.16,17.16,0,0,1,262.87,313.48Zm-8.43-.35a8.44,8.44,0,0,0-8.75-8.3,8.23,8.23,0,0,0-8.21,8.24,8.6,8.6,0,0,0,8.41,8.71A8.78,8.78,0,0,0,254.44,313.13Z"/><path class="cls-30" d="M173.48,206.56a17,17,0,0,1,34-.15,17,17,0,1,1-34,.15Zm17-8.48a8.64,8.64,0,0,0-8.46,8.68,8.5,8.5,0,0,0,8.78,8.28,8.33,8.33,0,0,0,8.14-8.35A8.48,8.48,0,0,0,190.43,198.08Z"/></svg>