<svg id="Layer_1" data-name="Layer 1" xmlns="http://www.w3.org/2000/svg" xmlns:xlink="http://www.w3.org/1999/xlink" viewBox="0 0 543 490"><defs><style>.cls-1{fill:url(#linear-gradient);}.cls-2{fill:#2a2a8c;}.cls-3{fill:url(#linear-gradient-2);}.cls-4{opacity:0.9;fill:url(#linear-gradient-3);}.cls-5{fill:url(#linear-gradient-4);}.cls-6{fill:url(#linear-gradient-5);}.cls-7{fill:url(#linear-gradient-6);}.cls-8{fill:url(#linear-gradient-7);}.cls-9{fill:url(#linear-gradient-8);}.cls-10{fill:url(#linear-gradient-9);}.cls-11{fill:url(#linear-gradient-10);}.cls-12,.cls-13,.cls-14,.cls-15,.cls-18,.cls-19,.cls-20,.cls-21,.cls-22,.cls-23,.cls-28,.cls-29{fill-opacity:0.2;}.cls-12{fill:url(#linear-gradient-11);}.cls-13{fill:url(#linear-gradient-12);}.cls-14{fill:url(#linear-gradient-13);}.cls-15{fill:url(#linear-gradient-14);}.cls-16{fill:url(#linear-gradient-15);}.cls-17{fill:url(#linear-gradient-16);}.cls-18{fill:url(#linear-gradient-17);}.cls-19{fill:url(#linear-gradient-18);}.cls-20{fill:url(#linear-gradient-19);}.cls-21{fill:url(#linear-gradient-20);}.cls-22{fill:url(#linear-gradient-21);}.cls-23{fill:url(#linear-gradient-22);}.cls-24{fill:url(#linear-gradient-23);}.cls-25{fill:url(#linear-gradient-24);}.cls-26{fill:url(#linear-gradient-25);}.cls-27{fill:url(#linear-gradient-26);}.cls-28{fill:url(#linear-gradient-27);}.cls-29{fill:url(#linear-gradient-28);}.cls-30{fill:none;stroke:#39ffff;stroke-miterlimit:10;stroke-width:2px;}</style><linearGradient id="linear-gradient" x1="0.21" y1="137.11" x2="100.9" y2="137.11" gradientUnits="userSpaceOnUse"><stop offset="0.04" stop-color="#3a3adb"/><stop offset="0.99" stop-color="#2a2a8c"/></linearGradient><linearGradient id="linear-gradient-2" x1="50.45" y1="221.61" x2="542.33" y2="221.61" gradientUnits="userSpaceOnUse"><stop offset="0.04" stop-color="#3a3adb"/><stop offset="0.77" stop-color="#2a2a8c"/></linearGradient><linearGradient id="linear-gradient-3" x1="0.16" y1="279.25" x2="446.97" y2="279.25" gradientUnits="userSpaceOnUse"><stop offset="0.04" stop-color="#3a3adb"/><stop offset="0.99" stop-color="#2a47c9"/></linearGradient><linearGradient id="linear-gradient-4" x1="340.93" y1="347.57" x2="474.87" y2="347.57" xlink:href="#linear-gradient"/><linearGradient id="linear-gradient-5" x1="71.3" y1="42.35" x2="73.9" y2="42.35" xlink:href="#linear-gradient"/><linearGradient id="linear-gradient-6" x1="71.3" y1="21.65" x2="73.9" y2="21.65" xlink:href="#linear-gradient"/><linearGradient id="linear-gradient-7" x1="77.5" y1="37.3" x2="87.4" y2="37.3" xlink:href="#linear-gradient"/><linearGradient id="linear-gradient-8" x1="57.8" y1="26.5" x2="67.7" y2="26.5" xlink:href="#linear-gradient"/><linearGradient id="linear-gradient-9" x1="57.7" y1="37.3" x2="67.6" y2="37.3" xlink:href="#linear-gradient"/><linearGradient id="linear-gradient-10" x1="77.5" y1="26.5" x2="87.4" y2="26.5" xlink:href="#linear-gradient"/><linearGradient id="linear-gradient-11" x1="208.8" y1="73.75" x2="211.41" y2="73.75" xlink:href="#linear-gradient"/><linearGradient id="linear-gradient-12" x1="208.8" y1="53.05" x2="211.41" y2="53.05" xlink:href="#linear-gradient"/><linearGradient id="linear-gradient-13" x1="193.5" y1="63.4" x2="204.21" y2="63.4" xlink:href="#linear-gradient"/><linearGradient id="linear-gradient-14" x1="216" y1="63.4" x2="226.71" y2="63.4" xlink:href="#linear-gradient"/><linearGradient id="linear-gradient-15" x1="55.91" y1="421.27" x2="90.05" y2="421.27" xlink:href="#linear-gradient"/><linearGradient id="linear-gradient-16" x1="56.05" y1="400.53" x2="90.14" y2="400.53" xlink:href="#linear-gradient"/><linearGradient id="linear-gradient-17" x1="345.5" y1="278.75" x2="348.1" y2="278.75" xlink:href="#linear-gradient-3"/><linearGradient id="linear-gradient-18" x1="345.5" y1="258.05" x2="348.1" y2="258.05" xlink:href="#linear-gradient-3"/><linearGradient id="linear-gradient-19" x1="351.8" y1="273.8" x2="361.7" y2="273.8" xlink:href="#linear-gradient-3"/><linearGradient id="linear-gradient-20" x1="332" y1="263" x2="341.9" y2="263" xlink:href="#linear-gradient-3"/><linearGradient id="linear-gradient-21" x1="331.9" y1="273.8" x2="341.8" y2="273.8" xlink:href="#linear-gradient-3"/><linearGradient id="linear-gradient-22" x1="351.7" y1="263" x2="361.6" y2="263" xlink:href="#linear-gradient-3"/><linearGradient id="linear-gradient-23" x1="474.1" y1="410.95" x2="476.7" y2="410.95" xlink:href="#linear-gradient"/><linearGradient id="linear-gradient-24" x1="474.1" y1="390.25" x2="476.7" y2="390.25" xlink:href="#linear-gradient"/><linearGradient id="linear-gradient-25" x1="458.8" y1="400.6" x2="469.5" y2="400.6" xlink:href="#linear-gradient"/><linearGradient id="linear-gradient-26" x1="481.2" y1="400.6" x2="491.91" y2="400.6" xlink:href="#linear-gradient"/><linearGradient id="linear-gradient-27" x1="480.31" y1="231.57" x2="514.45" y2="231.57" gradientUnits="userSpaceOnUse"><stop offset="0.04" stop-color="#3a3adb"/><stop offset="0.99" stop-color="#2a4b8c"/></linearGradient><linearGradient id="linear-gradient-28" x1="480.35" y1="210.83" x2="514.49" y2="210.83" xlink:href="#linear-gradient-27"/></defs><path class="cls-1" d="M89.5,126.5C79,109.2,68,97.8,50.6,89.7s-39.1-8.2-48,11.2,8.6,43.5,33.2,44.9c28.3,1.5,43.4,14.6,45,34,1,12.1,14.5,12.5,17.3,4.6C103.3,170,101.7,146.7,89.5,126.5Z"/><path class="cls-2" d="M311.5,26.9C194.9-92.8,68.2,219.8,35.7,320.8S140.6,438.1,233,456.2c147.6,28.8,215.2-27,226.7-94.2S428.1,146.7,311.5,26.9Z"/><path class="cls-3" d="M386.9,175.8C325,186.6,282.7,128,254.2,91.9c-22.4-28.4-116.5-75.1-175,8.7-53,76-31.1,189.1,52.3,246.4S342,399,420.9,363.5c49.9-22.4,112.9-64.1,120.7-123.3C550.2,175.4,481.9,159.3,386.9,175.8Z"/><path class="cls-4" d="M397.7,68.5c-2.5-.1-5-.1-7.6-.1-41.1,0-92.8,10.3-129.7,22.4L255,92.6c1.1,1.4,2.3,2.9,3.5,4.4,1.3-.4,2.5-.8,3.8-1.3,41-13.5,91.2-22.1,127.9-22.1,2.5,0,5,0,7.4.1,17.3.6,30.3,6.3,37.5,16.5,8.6,12.2,8.6,30.8-.1,52.2-3.9,9.7-7.2,18.9-9.9,28-11,36.6-13.6,72.1-14.2,134.2-.1,14.2,0,27.3.1,40,.1,8,.1,15.5.1,22.8,0,44.1-2.7,74.5-23,94.1-15.8,15.2-34.3,23.3-53.6,23.3-21.2,0-42.9-9.5-64.3-28.3C222.8,415,164,386,104.6,374.7c-45.6-8.7-81.4-17-93.8-36.9-6.7-10.9-6.7-25.6,0-45,6.3-18.1,18.4-43.1,41.9-70.5-.4-2.4-.7-4.8-1-7.1-23.6,26.5-38.1,52.7-46.2,76-21.7,62.6,25.1,74.8,97.9,88.7,58.6,11.2,115.8,39.3,162.8,80.5,24,21,47.1,29.7,68.1,29.7,22.1,0,41.8-9.7,57.6-24.9,22.1-21.4,24.6-53.8,24.6-100.1,0-18-.4-38.1-.2-60.4.6-64.3,3.4-98.8,14.5-134.7,2.6-8.3,5.7-16.8,9.2-25.6C458.1,99.7,439.9,69.9,397.7,68.5Z"/><path class="cls-5" d="M459.8,308.7c-35.5-38.4-76.5-14-105.7,29.4-27.1,40.3-10.6,87.6,33.3,58.4,38.3-25.4,61.6-18,78.7-35.1C489,338.7,459.8,308.7,459.8,308.7Z"/><path class="cls-6" d="M72.6,47.7a1.32,1.32,0,0,1-1.3-1.3V38.3a1.3,1.3,0,1,1,2.6,0v8.1A1.4,1.4,0,0,1,72.6,47.7Z"/><path class="cls-7" d="M72.6,27a1.32,1.32,0,0,1-1.3-1.3V17.6a1.3,1.3,0,1,1,2.6,0v8.1A1.32,1.32,0,0,1,72.6,27Z"/><path class="cls-8" d="M85.3,40.3l-7.1-3.8a1.13,1.13,0,0,1-.5-1.7,1.54,1.54,0,0,1,1.9-.5l7.1,3.8a1.13,1.13,0,0,1,.5,1.7A1.54,1.54,0,0,1,85.3,40.3Z"/><path class="cls-9" d="M65.6,29.5l-7.1-3.8A1.13,1.13,0,0,1,58,24a1.54,1.54,0,0,1,1.9-.5L67,27.3a1.13,1.13,0,0,1,.5,1.7A1.57,1.57,0,0,1,65.6,29.5Z"/><path class="cls-10" d="M57.9,39.8a1.13,1.13,0,0,1,.5-1.7l7.1-3.8a1.54,1.54,0,0,1,1.9.5,1.13,1.13,0,0,1-.5,1.7l-7.1,3.8A1.54,1.54,0,0,1,57.9,39.8Z"/><path class="cls-11" d="M77.7,29a1.13,1.13,0,0,1,.5-1.7l7.1-3.8a1.54,1.54,0,0,1,1.9.5,1.13,1.13,0,0,1-.5,1.7l-7.1,3.8A1.54,1.54,0,0,1,77.7,29Z"/><path class="cls-12" d="M210.1,79.1a1.32,1.32,0,0,1-1.3-1.3V69.7a1.3,1.3,0,0,1,2.6,0v8.1A1.21,1.21,0,0,1,210.1,79.1Z"/><path class="cls-13" d="M210.1,58.4a1.32,1.32,0,0,1-1.3-1.3V49a1.3,1.3,0,0,1,2.6,0v8.1A1.21,1.21,0,0,1,210.1,58.4Z"/><path class="cls-14" d="M202.9,64.7h-8.1a1.3,1.3,0,0,1,0-2.6h8.1a1.32,1.32,0,0,1,1.3,1.3A1.21,1.21,0,0,1,202.9,64.7Z"/><path class="cls-15" d="M225.4,64.7h-8.1a1.3,1.3,0,0,1,0-2.6h8.1a1.32,1.32,0,0,1,1.3,1.3A1.21,1.21,0,0,1,225.4,64.7Z"/><path class="cls-16" d="M73,428a17.92,17.92,0,0,1-17-11.7,1.27,1.27,0,0,1,1-1.7,1.31,1.31,0,0,1,1.6.8,15.42,15.42,0,0,0,28.8,0,1.38,1.38,0,0,1,2.6.9A18.06,18.06,0,0,1,73,428Z"/><path class="cls-17" d="M89.1,407.2a1.31,1.31,0,0,1-1.6-.8,15.42,15.42,0,0,0-28.8,0,1.38,1.38,0,0,1-2.6-.9,18.2,18.2,0,0,1,34,0A1.45,1.45,0,0,1,89.1,407.2Z"/><path class="cls-18" d="M346.8,284.1a1.32,1.32,0,0,1-1.3-1.3v-8.1a1.3,1.3,0,0,1,2.6,0v8.1A1.32,1.32,0,0,1,346.8,284.1Z"/><path class="cls-19" d="M346.8,263.4a1.32,1.32,0,0,1-1.3-1.3V254a1.3,1.3,0,0,1,2.6,0v8.1A1.32,1.32,0,0,1,346.8,263.4Z"/><path class="cls-20" d="M359.6,276.8l-7.1-3.8a1.13,1.13,0,0,1-.5-1.7,1.54,1.54,0,0,1,1.9-.5l7.1,3.8a1.13,1.13,0,0,1,.5,1.7A1.57,1.57,0,0,1,359.6,276.8Z"/><path class="cls-21" d="M339.8,266l-7.1-3.8a1.13,1.13,0,0,1-.5-1.7,1.54,1.54,0,0,1,1.9-.5l7.1,3.8a1.13,1.13,0,0,1,.5,1.7A1.57,1.57,0,0,1,339.8,266Z"/><path class="cls-22" d="M332.1,276.3a1.13,1.13,0,0,1,.5-1.7l7.1-3.8a1.54,1.54,0,0,1,1.9.5,1.13,1.13,0,0,1-.5,1.7l-7.1,3.8A1.57,1.57,0,0,1,332.1,276.3Z"/><path class="cls-23" d="M351.9,265.5a1.13,1.13,0,0,1,.5-1.7l7.1-3.8a1.54,1.54,0,0,1,1.9.5,1.13,1.13,0,0,1-.5,1.7l-7.1,3.8A1.54,1.54,0,0,1,351.9,265.5Z"/><path class="cls-24" d="M475.4,416.3a1.32,1.32,0,0,1-1.3-1.3v-8.1a1.3,1.3,0,0,1,2.6,0V415A1.32,1.32,0,0,1,475.4,416.3Z"/><path class="cls-25" d="M475.4,395.6a1.32,1.32,0,0,1-1.3-1.3v-8.1a1.3,1.3,0,0,1,2.6,0v8.1A1.32,1.32,0,0,1,475.4,395.6Z"/><path class="cls-26" d="M468.2,401.9h-8.1a1.3,1.3,0,0,1,0-2.6h8.1a1.3,1.3,0,1,1,0,2.6Z"/><path class="cls-27" d="M490.6,401.9h-8.1a1.3,1.3,0,0,1,0-2.6h8.1a1.32,1.32,0,0,1,1.3,1.3A1.21,1.21,0,0,1,490.6,401.9Z"/><path class="cls-28" d="M497.4,238.3a17.92,17.92,0,0,1-17-11.7,1.27,1.27,0,0,1,1-1.7,1.31,1.31,0,0,1,1.6.8,15.42,15.42,0,0,0,28.8,0,1.38,1.38,0,0,1,2.6.9A18.06,18.06,0,0,1,497.4,238.3Z"/><path class="cls-29" d="M513.4,217.5a1.31,1.31,0,0,1-1.6-.8,15.42,15.42,0,0,0-28.8,0,1.38,1.38,0,0,1-2.6-.9,18.2,18.2,0,0,1,34,0A1.3,1.3,0,0,1,513.4,217.5Z"/><path class="cls-30" d="M320.39,133.48c1.06-14.09,8.34-22.32,20.12-26.69,7.31-2.71,13.85.18,19.93,4.21,2.61,1.74,1.67,3.5-.12,5.26q-6.07,6-12.08,12.07c-2.11,2.14-3.92,16.33-2.38,18.44a3,3,0,0,0,.87.74c2.74,1.53,16-.46,18.38-2.78,3.63-3.59,7.43-7,10.79-10.87s5.44-2.84,7.78,1.16c8,13.74,2.2,25.37-10.89,34.45a55.09,55.09,0,0,1-6,3c3.78,3.5,7,6.8,10.53,9.65,4.19,3.36,5.52,7.36,5.38,12.75-.4,14.11-.14,14.11,12.83,19.09l3.85,1.45c12.53,4.83,12.54,4.83,9.21,17.69a84.88,84.88,0,0,1-22.27,39.47,12.23,12.23,0,0,0-3.85,9.76c.24,14.53,0,29.07.16,43.6a10.37,10.37,0,0,1-3.28,8.27q-23.72,23.38-47.1,47.08a9.21,9.21,0,0,1-7.21,3q-62.76-.13-125.53,0a9.14,9.14,0,0,1-7.21-3c-9.21-9.41-18.48-18.74-27.93-27.9a11,11,0,0,1-3.62-8.73c.15-27.3,0-54.61.1-81.91.06-20.72-6-39.29-18.55-55.84-14.33-18.86-12.81-43.26,3.41-59.5s40.67-17.85,59.49-3.51a89.49,89.49,0,0,0,46.41,18.25c4.74.47,9,.17,13.73-2.62s8.88-4.72,9.93-10.66a5.82,5.82,0,0,1,4.51-4.32c5.88-.94,5.64-4.36,4.69-8.9-.72-3.47.15-7,1.65-10.31,4.62-10.07,8.51-11.12,17.18-4.63C308.79,124.84,314.28,128.92,320.39,133.48ZM211.74,273.05c.74-7.09,1.32-13.87,3.47-20.4.46-1.4.21-3.76,3.12-3,3.25.82,1.69,2.85,1.38,4.59-.11.57-.42,1.1-.57,1.66a49.5,49.5,0,0,0,95.14,27.31,50.05,50.05,0,0,0,1.87-20.95c-.18-1.49-.33-2.67,1.65-3.05s2.87.62,3.08,2.44c.13,1.17.25,2.34.32,3.52,1.35,25.8-14.71,48.51-39.3,55.54S231.76,317,219.21,294.3c-1.51-2.75-3.13-5.44-4.8-8.09q-29.06-46-58.12-92c-7.42-11.79-6.27-24.46,2.71-33.46,9.16-9.19,22-10.08,33.93-2.52q20.9,13.2,41.9,26.21c5.66,3.53,9.15,2.15,10.91-3.95,1.51-5.23,5.08-8.23,10.52-8.9,1.63-.21,3.23-.34,3.12-2.57-.12-2.65-2.22-1.67-3.52-1.74a94.73,94.73,0,0,1-53.81-19.72c-16.74-12.72-38.81-11.15-53.13,3.33-14.17,14.33-15.66,36.18-3.12,52.68,13.58,17.88,20,37.88,19.87,60.26-.19,26.53,0,53.06-.12,79.58a9.77,9.77,0,0,0,3.18,7.7q12.89,12.54,25.43,25.42a9.09,9.09,0,0,0,7.16,3q61-.15,122,0a8.51,8.51,0,0,0,6.73-2.65q22.37-22.64,45-45a9.08,9.08,0,0,0,2.77-7.27c-.11-13,0-25.93-.1-38.9,0-1.38.91-3.16-1.28-4.38-4.22,5.61-7.56,3.33-11.6-.89-11.28-11.77-23-23.16-34.52-34.66-1.33-1.33-2.37-3.12-4.83-2.78-9.85,1.35-19.71,2.59-29.9,3.91,1.6,3.33,3,6.25,4.41,9.21,1.61,3.47,1.2,5.63-3.36,5.52-6.09-.14-12.19-.15-18.28,0-3.38.09-4.51-1.32-4.4-4.56.17-4.78.05-9.57.05-15.57-4.6,5-8.13,8.87-11.79,12.66-7.15,7.38-17.25,7.8-24.11,1.08s-6.59-17.15,1.06-24.52c2.55-2.45,5.1-4.91,7.79-7.19,1.95-1.64,2-2.76.07-4.57-4.18-3.87-8.08-8-12.12-12.05-3.53-3.51-5.32-8.12-3.16-12.33,2.59-5.07.06-6.57-3.47-8.66-6.09-3.58-12-7.46-18-11.19-2.51-1.56-5.07-3-8.62-5.14C205,181,203,190.07,195.57,197.48s-16.83,8.94-27.7,6.15C182.85,227.34,197.3,250.19,211.74,273.05Zm68.19-38c6.7,5,13.39,7.9,21.63,6.38,7.5-1.4,15.17-1.91,22.71-3.16,3.48-.57,5.83.34,8.27,2.84,11.68,11.9,23.62,23.56,35.29,35.47,2.35,2.4,3.81,2.92,6.67.59A87,87,0,0,0,405,228.28c.94-4,.08-5.69-3.9-7.16-17.06-6.3-33.92-13.14-51-19.44-3.81-1.41-5.62-3.55-6.49-7.29-1.29-5.52-3.28-10.89-4.35-16.45-.92-4.75-2.73-3.76-5.26-1.51a29.16,29.16,0,0,0-2.11,2Zm-13.49,7.6c17.49-19,34.13-37.29,51-55.38,18.44-19.79,14.42-20,43.13-19.65h.58c9-.3,18.5-7.72,20.85-16.32,1.33-4.91.54-9.44-3.24-14.42-3.45,3.78-6.66,7-9.47,10.46-3.22,4-7.1,5.3-12.25,5.21-16.23-.31-16-.11-16.34-16.38-.1-5.14,1.11-9,5.18-12.26,3.65-2.87,7-6.13,10.76-9.49-6.1-4-11.08-4.71-16.42-2.66-8.09,3.1-14.47,12.19-14.61,20.88-.06,4.13-.15,8.25,0,12.37.34,8.61-2.43,15.77-9.28,21.2a12.37,12.37,0,0,0-4.68,7.14,10.41,10.41,0,0,1-9.08,8.14c-2.89.38-4.35,1.09-4.75,4.4-.7,5.68-4.41,9.12-10.09,9.87-2.56.34-3.62,1.07-4,3.81-.72,5.94-4.36,9.5-10.3,10.38-2.14.32-3.3.67-3.81,3.27-1.65,8.27-5.12,10.89-14,10.81-2.34,0-3.58.75-4.47,2.83C259.75,228.36,264.78,233.35,266.44,242.68Zm54.31-96.8c.09-3.21.45-6.12-2.85-8.38-6.62-4.53-13-9.4-19.28-14.43-2.75-2.23-4.18-1.53-6.06.92a16.59,16.59,0,0,0,1,21.53c5.32,5.76,11.08,11.11,16.38,16.88,1.68,1.82,2.37,1,3.67-.08A18.61,18.61,0,0,0,320.75,145.88Zm32.67,26.56a39.23,39.23,0,0,1-4.49,0c-5.25-.7-6.48,1.11-4.6,6.12,1.77,4.73,2.76,9.76,4,14.67.4,1.55.79,2.91,2.56,3.58,8,3,16,6.19,24,9.23,1.14.44,3,1.3,2.83-1.17-.44-7.45,2.62-15.81-5.7-21.26a23.32,23.32,0,0,1-5.4-5.37C363,173.46,358.49,171.17,353.42,172.44Zm-67.71-24.76a7.49,7.49,0,0,0-6.57,3.86c-1.5,2.8-1.61,5.88.59,8.22q7.62,8.12,15.73,15.75c2.34,2.21,5.44,2.09,8.23.64a6.93,6.93,0,0,0,3.8-6.77C307.39,164.75,290.58,147.85,285.71,147.68Zm.1,43.53a6.94,6.94,0,0,0,6.71-3.93c1.38-2.8,1.41-5.89-.82-8.24q-7.44-7.86-15.33-15.31c-2.36-2.22-5.45-2.15-8.25-.74a7,7,0,0,0-3.87,6.74C264.32,174.56,281,191.18,285.81,191.21ZM256,176.31c-1.61,0-3.93,1.45-5.14,4.11-1.29,2.83-1.19,5.89,1.06,8.24q7.29,7.62,14.91,14.92c2.36,2.25,5.41,2.35,8.24,1.08a6.92,6.92,0,0,0,4.16-6.56C279.32,193,262.48,176.15,256,176.31Zm-12.24,14.12a7,7,0,0,0-6.82,3.74c-1.48,2.78-1.62,5.89.57,8.23,5.08,5.41,10.33,10.67,15.77,15.7,2.34,2.16,5.47,1.93,8.23.36a7,7,0,0,0,3.56-6.91C264.79,207,248.21,190.58,243.72,190.43Zm5.94,41.41a11.69,11.69,0,0,0-11.73,11.41,12.06,12.06,0,0,0,11.86,12,11.69,11.69,0,0,0,11.57-11.57A11.37,11.37,0,0,0,249.66,231.84Zm-90.44-63.41c-7.18,14.66.85,30.2,15.8,31,0-5.48,0-11,0-16.43,0-1.65-.22-3-1.71-4.06C168.6,175.52,164,172,159.22,168.43Zm36.47.45c-15.63,8.82-16.17,10.05-16.05,27.13,0,4.62,1.79,4,4.78,3C196.72,194.82,201.92,181,195.69,168.88Zm-33.44-4.5c1,.9,2,1.84,3.1,2.66,12.57,9.59,12.52,9.52,24.79-.44,2.34-1.9,2.3-2.79,0-4.54C181.82,155.75,170.92,156.54,162.25,164.38Zm117,76.22c-1.73,16.81-1.6,17,14.25,16.2a5.87,5.87,0,0,0,1.3-.54C291.87,249.05,286.68,244.16,279.29,240.6Z"/><path class="cls-30" d="M132.57,250.34c0-2.71,0-4.68,0-6.64,0-1.73-.38-3.56,2.52-3.43s2.24,2.15,2.22,3.73a128.52,128.52,0,0,0,6,40.57c1.83,5.76,4.25,11.35,6.5,17,.67,1.68,1.64,3.09-.76,4.31-2.78,1.4-2.91-.92-3.57-2.33A137.57,137.57,0,0,1,132.57,250.34Z"/><path class="cls-30" d="M266.51,124.78c.63,0,1.81.07,3,0,1.82-.13,2.32.7,2.3,2.43s-.63,2.35-2.38,2.38A113.64,113.64,0,0,0,223,140.31c-2.1,1-2.68,0-3.4-1.66-1.07-2.49,1.17-2.58,2.29-3.09A122.59,122.59,0,0,1,266.51,124.78Z"/><path class="cls-30" d="M401.46,329.69c2.21,7.55-2,13.69-8.51,19.36-6.34,5.54-12,11.85-18,17.79-1.13,1.12-2,3.07-4.17,1s-.46-3,.74-4.19c7.21-7.22,14.31-14.56,21.7-21.59a10.14,10.14,0,0,0,3.55-8.72c-.3-4.69-.08-9.41-.07-14.12,0-1.74-.42-3.54,2.49-3.46s2.2,2.11,2.25,3.68C401.52,322.34,401.46,325.29,401.46,329.69Z"/><path class="cls-30" d="M241,109.4c1.69-.4,2.36.34,2.58,2.08.29,2.26-1,2.44-2.71,2.82a121.78,121.78,0,0,0-24.31,8.25c-4.07,1.87-8.06,4-11.94,6.17-1.79,1-2.73.85-3.76-.89-.75-1.28-.48-1.93.55-2.87C205.56,121.13,235.09,109.43,241,109.4Z"/><path class="cls-30" d="M256.9,111.52c-2.68.5-4.41.25-4-2.28.6-4.12,4.24-1.82,6.38-2.73,1.54-.65,3.12-.32,3.06,2C262.19,113.31,257.86,109.92,256.9,111.52Z"/><path class="cls-30" d="M138.61,225.53c-1.13,1.36,1.77,5.23-2.71,5.4-3.53.14-2.32-2.56-2.05-4.16.33-2-.94-5.17,2.82-5.32C139.48,221.35,139.17,223.23,138.61,225.53Z"/><path class="cls-30" d="M276.4,110.82c-1.54-.85-4.51,1.48-4.71-2.35s2.69-2.56,4.37-2.41c1.86.16,5.16-1.64,5.1,2.49C281.1,112.36,278.08,110.15,276.4,110.82Z"/><path class="cls-30" d="M401.54,301.87c-.45,1.95,1.14,4.86-2.72,4.53s-2-3.19-2-4.85-1.68-4.66,2.22-4.63C403.41,297,400.51,300.41,401.54,301.87Z"/><path class="cls-30" d="M271.73,365.35c-14.72,0-29.45,0-44.17,0-1.86,0-4.23.73-5.11-1.71-.76-2.09,1.28-3.11,2.46-4.29,7.36-7.35,13.62-17.28,22.51-21.17,8.43-3.68,19.64-1.1,29.63-1.13q31.21-.09,62.43,0c1.85,0,4.22-.72,5.1,1.71.75,2.08-1.38,3-2.43,4.32a9.29,9.29,0,0,1-.83.83c-7.13,7-13.13,16.73-21.69,20.32s-19.66,1-29.64,1.13C283.9,365.4,277.82,365.35,271.73,365.35Zm-40.77-6,.75,1.26q41.78,0,83.56,0a5.36,5.36,0,0,0,4.23-1.49c5.46-5.49,11-10.89,16.75-16.54-1.11-.51-1.43-.78-1.75-.78q-41.22,0-82.42-.05a6,6,0,0,0-4.75,1.68C241.94,348.79,236.43,354,231,359.33Z"/><path class="cls-30" d="M260,289.05c0,3.33,0,6.67,0,10,0,3.16-1.34,4.16-4.49,3a35,35,0,0,1-21.77-21.52c-1.5-4,.2-4.9,3.72-4.86,5.88.07,11.77.21,17.64-.05,4-.17,5.25,1.46,4.95,5.19C259.78,283.55,260,286.31,260,289.05Zm-4.75,7.73c0-5.07,0-9.5,0-13.93,0-1.72-.56-2.45-2.34-2.42-4.54.08-9.07,0-14.12,0C242.51,288.35,247.48,293.45,255.2,296.78Z"/><path class="cls-30" d="M274.07,288.93c0-13.23,0-13.23,13.25-13.23h10c3.07,0,4.31,1.15,3.15,4.39a34.84,34.84,0,0,1-22,22c-3.26,1.16-4.37-.13-4.37-3.18C274.06,295.6,274.07,292.27,274.07,288.93Zm5.09,7.65c8.46-4,12.66-8.42,15.35-15.66-16.08-1.91-16.08-1.91-15.67,13.57A18.09,18.09,0,0,0,279.16,296.58Z"/><path class="cls-30" d="M347.25,327.59A11.79,11.79,0,1,1,359,315.45,11.88,11.88,0,0,1,347.25,327.59Zm.24-4.64c3.88-.73,6.78-2.85,6.64-7.31s-2.87-6.93-7.25-6.77c-4.06.14-6.58,2.71-6.64,6.8C340.18,320.1,342.92,322.34,347.49,323Z"/><path class="cls-30" d="M194.37,294.57c4.3,0,8.6,0,12.9,0,1.47,0,3.1-.45,3.22,2.1s-1.38,2.67-3.28,2.66q-13.49-.06-27,0c-1.73,0-2.94-.08-2.93-2.42s1.33-2.37,3-2.35C185,294.59,189.68,294.57,194.37,294.57Z"/><path class="cls-30" d="M193.55,318.18c-4.49,0-9-.06-13.48,0-1.95.05-2.8-.48-2.75-2.61.06-1.94,1-2.18,2.57-2.18q14.07,0,28.14,0c1.66,0,2.38.47,2.45,2.3.1,2.29-1.07,2.51-2.86,2.48C202.93,318.14,198.24,318.18,193.55,318.18Z"/><path class="cls-30" d="M193.52,337.05c-4.5,0-9-.07-13.48,0-2,0-2.77-.55-2.72-2.64s1.08-2.16,2.6-2.15q13.79,0,27.55,0c1.64,0,3-.08,3,2.33s-1.15,2.47-2.9,2.45C202.9,337,198.21,337.05,193.52,337.05Z"/><path class="cls-30" d="M187.39,275.7c2.14,0,4.29.05,6.43,0,1.58,0,2.55.32,2.49,2.22,0,1.56-.22,2.6-2.16,2.57q-7.31-.12-14.6,0c-1.91,0-2.18-.92-2.21-2.53,0-1.86.84-2.3,2.46-2.26C182.33,275.75,184.86,275.7,187.39,275.7Z"/><path class="cls-30" d="M201,355.91c-2.33,0-4.67,0-7,0-1.54,0-2.6-.24-2.53-2.18.05-1.52.14-2.63,2.12-2.61q7.29.12,14.6,0c1.85,0,2.24.81,2.25,2.48,0,1.83-.75,2.36-2.42,2.31C205.72,355.86,203.38,355.91,201,355.91Z"/><path class="cls-30" d="M349.57,285.52c0,1.36-.09,2.72,0,4.08.16,2-.55,2.74-2.62,2.69s-2.19-1-2.16-2.55c0-2.72,0-5.44,0-8.16,0-1.59-.67-3.53,2.29-3.59s2.43,1.76,2.45,3.45C349.58,282.8,349.57,284.16,349.57,285.52Z"/></svg>