<svg id="Layer_1" data-name="Layer 1" xmlns="http://www.w3.org/2000/svg" xmlns:xlink="http://www.w3.org/1999/xlink" viewBox="0 0 543 490"><defs><style>.cls-1{fill:url(#linear-gradient);}.cls-2{fill:#2a2a8c;}.cls-3{fill:url(#linear-gradient-2);}.cls-4{opacity:0.9;fill:url(#linear-gradient-3);}.cls-5{fill:url(#linear-gradient-4);}.cls-6{fill:url(#linear-gradient-5);}.cls-7{fill:url(#linear-gradient-6);}.cls-8{fill:url(#linear-gradient-7);}.cls-9{fill:url(#linear-gradient-8);}.cls-10{fill:url(#linear-gradient-9);}.cls-11{fill:url(#linear-gradient-10);}.cls-12,.cls-13,.cls-14,.cls-15,.cls-18,.cls-19,.cls-20,.cls-21,.cls-22,.cls-23,.cls-28,.cls-29{fill-opacity:0.2;}.cls-12{fill:url(#linear-gradient-11);}.cls-13{fill:url(#linear-gradient-12);}.cls-14{fill:url(#linear-gradient-13);}.cls-15{fill:url(#linear-gradient-14);}.cls-16{fill:url(#linear-gradient-15);}.cls-17{fill:url(#linear-gradient-16);}.cls-18{fill:url(#linear-gradient-17);}.cls-19{fill:url(#linear-gradient-18);}.cls-20{fill:url(#linear-gradient-19);}.cls-21{fill:url(#linear-gradient-20);}.cls-22{fill:url(#linear-gradient-21);}.cls-23{fill:url(#linear-gradient-22);}.cls-24{fill:url(#linear-gradient-23);}.cls-25{fill:url(#linear-gradient-24);}.cls-26{fill:url(#linear-gradient-25);}.cls-27{fill:url(#linear-gradient-26);}.cls-28{fill:url(#linear-gradient-27);}.cls-29{fill:url(#linear-gradient-28);}.cls-30{fill:none;stroke:#39ffff;stroke-miterlimit:10;stroke-width:2px;}</style><linearGradient id="linear-gradient" x1="0.21" y1="137.11" x2="100.9" y2="137.11" gradientUnits="userSpaceOnUse"><stop offset="0.04" stop-color="#3a3adb"/><stop offset="0.99" stop-color="#2a2a8c"/></linearGradient><linearGradient id="linear-gradient-2" x1="50.45" y1="221.61" x2="542.33" y2="221.61" gradientUnits="userSpaceOnUse"><stop offset="0.04" stop-color="#3a3adb"/><stop offset="0.77" stop-color="#2a2a8c"/></linearGradient><linearGradient id="linear-gradient-3" x1="0.16" y1="279.25" x2="446.97" y2="279.25" gradientUnits="userSpaceOnUse"><stop offset="0.04" stop-color="#3a3adb"/><stop offset="0.99" stop-color="#2a47c9"/></linearGradient><linearGradient id="linear-gradient-4" x1="340.93" y1="347.57" x2="474.87" y2="347.57" xlink:href="#linear-gradient"/><linearGradient id="linear-gradient-5" x1="71.3" y1="42.35" x2="73.9" y2="42.35" xlink:href="#linear-gradient"/><linearGradient id="linear-gradient-6" x1="71.3" y1="21.65" x2="73.9" y2="21.65" xlink:href="#linear-gradient"/><linearGradient id="linear-gradient-7" x1="77.5" y1="37.3" x2="87.4" y2="37.3" xlink:href="#linear-gradient"/><linearGradient id="linear-gradient-8" x1="57.8" y1="26.5" x2="67.7" y2="26.5" xlink:href="#linear-gradient"/><linearGradient id="linear-gradient-9" x1="57.7" y1="37.3" x2="67.6" y2="37.3" xlink:href="#linear-gradient"/><linearGradient id="linear-gradient-10" x1="77.5" y1="26.5" x2="87.4" y2="26.5" xlink:href="#linear-gradient"/><linearGradient id="linear-gradient-11" x1="208.8" y1="73.75" x2="211.41" y2="73.75" xlink:href="#linear-gradient"/><linearGradient id="linear-gradient-12" x1="208.8" y1="53.05" x2="211.41" y2="53.05" xlink:href="#linear-gradient"/><linearGradient id="linear-gradient-13" x1="193.5" y1="63.4" x2="204.21" y2="63.4" xlink:href="#linear-gradient"/><linearGradient id="linear-gradient-14" x1="216" y1="63.4" x2="226.71" y2="63.4" xlink:href="#linear-gradient"/><linearGradient id="linear-gradient-15" x1="55.91" y1="421.27" x2="90.05" y2="421.27" xlink:href="#linear-gradient"/><linearGradient id="linear-gradient-16" x1="56.05" y1="400.53" x2="90.14" y2="400.53" xlink:href="#linear-gradient"/><linearGradient id="linear-gradient-17" x1="345.5" y1="278.75" x2="348.1" y2="278.75" xlink:href="#linear-gradient-3"/><linearGradient id="linear-gradient-18" x1="345.5" y1="258.05" x2="348.1" y2="258.05" xlink:href="#linear-gradient-3"/><linearGradient id="linear-gradient-19" x1="351.8" y1="273.8" x2="361.7" y2="273.8" xlink:href="#linear-gradient-3"/><linearGradient id="linear-gradient-20" x1="332" y1="263" x2="341.9" y2="263" xlink:href="#linear-gradient-3"/><linearGradient id="linear-gradient-21" x1="331.9" y1="273.8" x2="341.8" y2="273.8" xlink:href="#linear-gradient-3"/><linearGradient id="linear-gradient-22" x1="351.7" y1="263" x2="361.6" y2="263" xlink:href="#linear-gradient-3"/><linearGradient id="linear-gradient-23" x1="474.1" y1="410.95" x2="476.7" y2="410.95" xlink:href="#linear-gradient"/><linearGradient id="linear-gradient-24" x1="474.1" y1="390.25" x2="476.7" y2="390.25" xlink:href="#linear-gradient"/><linearGradient id="linear-gradient-25" x1="458.8" y1="400.6" x2="469.5" y2="400.6" xlink:href="#linear-gradient"/><linearGradient id="linear-gradient-26" x1="481.2" y1="400.6" x2="491.91" y2="400.6" xlink:href="#linear-gradient"/><linearGradient id="linear-gradient-27" x1="480.31" y1="231.57" x2="514.45" y2="231.57" gradientUnits="userSpaceOnUse"><stop offset="0.04" stop-color="#3a3adb"/><stop offset="0.99" stop-color="#2a4b8c"/></linearGradient><linearGradient id="linear-gradient-28" x1="480.35" y1="210.83" x2="514.49" y2="210.83" xlink:href="#linear-gradient-27"/></defs><path class="cls-1" d="M89.5,126.5C79,109.2,68,97.8,50.6,89.7s-39.1-8.2-48,11.2,8.6,43.5,33.2,44.9c28.3,1.5,43.4,14.6,45,34,1,12.1,14.5,12.5,17.3,4.6C103.3,170,101.7,146.7,89.5,126.5Z"/><path class="cls-2" d="M311.5,26.9C194.9-92.8,68.2,219.8,35.7,320.8S140.6,438.1,233,456.2c147.6,28.8,215.2-27,226.7-94.2S428.1,146.7,311.5,26.9Z"/><path class="cls-3" d="M386.9,175.8C325,186.6,282.7,128,254.2,91.9c-22.4-28.4-116.5-75.1-175,8.7-53,76-31.1,189.1,52.3,246.4S342,399,420.9,363.5c49.9-22.4,112.9-64.1,120.7-123.3C550.2,175.4,481.9,159.3,386.9,175.8Z"/><path class="cls-4" d="M397.7,68.5c-2.5-.1-5-.1-7.6-.1-41.1,0-92.8,10.3-129.7,22.4L255,92.6c1.1,1.4,2.3,2.9,3.5,4.4,1.3-.4,2.5-.8,3.8-1.3,41-13.5,91.2-22.1,127.9-22.1,2.5,0,5,0,7.4.1,17.3.6,30.3,6.3,37.5,16.5,8.6,12.2,8.6,30.8-.1,52.2-3.9,9.7-7.2,18.9-9.9,28-11,36.6-13.6,72.1-14.2,134.2-.1,14.2,0,27.3.1,40,.1,8,.1,15.5.1,22.8,0,44.1-2.7,74.5-23,94.1-15.8,15.2-34.3,23.3-53.6,23.3-21.2,0-42.9-9.5-64.3-28.3C222.8,415,164,386,104.6,374.7c-45.6-8.7-81.4-17-93.8-36.9-6.7-10.9-6.7-25.6,0-45,6.3-18.1,18.4-43.1,41.9-70.5-.4-2.4-.7-4.8-1-7.1-23.6,26.5-38.1,52.7-46.2,76-21.7,62.6,25.1,74.8,97.9,88.7,58.6,11.2,115.8,39.3,162.8,80.5,24,21,47.1,29.7,68.1,29.7,22.1,0,41.8-9.7,57.6-24.9,22.1-21.4,24.6-53.8,24.6-100.1,0-18-.4-38.1-.2-60.4.6-64.3,3.4-98.8,14.5-134.7,2.6-8.3,5.7-16.8,9.2-25.6C458.1,99.7,439.9,69.9,397.7,68.5Z"/><path class="cls-5" d="M459.8,308.7c-35.5-38.4-76.5-14-105.7,29.4-27.1,40.3-10.6,87.6,33.3,58.4,38.3-25.4,61.6-18,78.7-35.1C489,338.7,459.8,308.7,459.8,308.7Z"/><path class="cls-6" d="M72.6,47.7a1.32,1.32,0,0,1-1.3-1.3V38.3a1.3,1.3,0,1,1,2.6,0v8.1A1.4,1.4,0,0,1,72.6,47.7Z"/><path class="cls-7" d="M72.6,27a1.32,1.32,0,0,1-1.3-1.3V17.6a1.3,1.3,0,1,1,2.6,0v8.1A1.32,1.32,0,0,1,72.6,27Z"/><path class="cls-8" d="M85.3,40.3l-7.1-3.8a1.13,1.13,0,0,1-.5-1.7,1.54,1.54,0,0,1,1.9-.5l7.1,3.8a1.13,1.13,0,0,1,.5,1.7A1.54,1.54,0,0,1,85.3,40.3Z"/><path class="cls-9" d="M65.6,29.5l-7.1-3.8A1.13,1.13,0,0,1,58,24a1.54,1.54,0,0,1,1.9-.5L67,27.3a1.13,1.13,0,0,1,.5,1.7A1.57,1.57,0,0,1,65.6,29.5Z"/><path class="cls-10" d="M57.9,39.8a1.13,1.13,0,0,1,.5-1.7l7.1-3.8a1.54,1.54,0,0,1,1.9.5,1.13,1.13,0,0,1-.5,1.7l-7.1,3.8A1.54,1.54,0,0,1,57.9,39.8Z"/><path class="cls-11" d="M77.7,29a1.13,1.13,0,0,1,.5-1.7l7.1-3.8a1.54,1.54,0,0,1,1.9.5,1.13,1.13,0,0,1-.5,1.7l-7.1,3.8A1.54,1.54,0,0,1,77.7,29Z"/><path class="cls-12" d="M210.1,79.1a1.32,1.32,0,0,1-1.3-1.3V69.7a1.3,1.3,0,0,1,2.6,0v8.1A1.21,1.21,0,0,1,210.1,79.1Z"/><path class="cls-13" d="M210.1,58.4a1.32,1.32,0,0,1-1.3-1.3V49a1.3,1.3,0,0,1,2.6,0v8.1A1.21,1.21,0,0,1,210.1,58.4Z"/><path class="cls-14" d="M202.9,64.7h-8.1a1.3,1.3,0,0,1,0-2.6h8.1a1.32,1.32,0,0,1,1.3,1.3A1.21,1.21,0,0,1,202.9,64.7Z"/><path class="cls-15" d="M225.4,64.7h-8.1a1.3,1.3,0,0,1,0-2.6h8.1a1.32,1.32,0,0,1,1.3,1.3A1.21,1.21,0,0,1,225.4,64.7Z"/><path class="cls-16" d="M73,428a17.92,17.92,0,0,1-17-11.7,1.27,1.27,0,0,1,1-1.7,1.31,1.31,0,0,1,1.6.8,15.42,15.42,0,0,0,28.8,0,1.38,1.38,0,0,1,2.6.9A18.06,18.06,0,0,1,73,428Z"/><path class="cls-17" d="M89.1,407.2a1.31,1.31,0,0,1-1.6-.8,15.42,15.42,0,0,0-28.8,0,1.38,1.38,0,0,1-2.6-.9,18.2,18.2,0,0,1,34,0A1.45,1.45,0,0,1,89.1,407.2Z"/><path class="cls-18" d="M346.8,284.1a1.32,1.32,0,0,1-1.3-1.3v-8.1a1.3,1.3,0,0,1,2.6,0v8.1A1.32,1.32,0,0,1,346.8,284.1Z"/><path class="cls-19" d="M346.8,263.4a1.32,1.32,0,0,1-1.3-1.3V254a1.3,1.3,0,0,1,2.6,0v8.1A1.32,1.32,0,0,1,346.8,263.4Z"/><path class="cls-20" d="M359.6,276.8l-7.1-3.8a1.13,1.13,0,0,1-.5-1.7,1.54,1.54,0,0,1,1.9-.5l7.1,3.8a1.13,1.13,0,0,1,.5,1.7A1.57,1.57,0,0,1,359.6,276.8Z"/><path class="cls-21" d="M339.8,266l-7.1-3.8a1.13,1.13,0,0,1-.5-1.7,1.54,1.54,0,0,1,1.9-.5l7.1,3.8a1.13,1.13,0,0,1,.5,1.7A1.57,1.57,0,0,1,339.8,266Z"/><path class="cls-22" d="M332.1,276.3a1.13,1.13,0,0,1,.5-1.7l7.1-3.8a1.54,1.54,0,0,1,1.9.5,1.13,1.13,0,0,1-.5,1.7l-7.1,3.8A1.57,1.57,0,0,1,332.1,276.3Z"/><path class="cls-23" d="M351.9,265.5a1.13,1.13,0,0,1,.5-1.7l7.1-3.8a1.54,1.54,0,0,1,1.9.5,1.13,1.13,0,0,1-.5,1.7l-7.1,3.8A1.54,1.54,0,0,1,351.9,265.5Z"/><path class="cls-24" d="M475.4,416.3a1.32,1.32,0,0,1-1.3-1.3v-8.1a1.3,1.3,0,0,1,2.6,0V415A1.32,1.32,0,0,1,475.4,416.3Z"/><path class="cls-25" d="M475.4,395.6a1.32,1.32,0,0,1-1.3-1.3v-8.1a1.3,1.3,0,0,1,2.6,0v8.1A1.32,1.32,0,0,1,475.4,395.6Z"/><path class="cls-26" d="M468.2,401.9h-8.1a1.3,1.3,0,0,1,0-2.6h8.1a1.3,1.3,0,1,1,0,2.6Z"/><path class="cls-27" d="M490.6,401.9h-8.1a1.3,1.3,0,0,1,0-2.6h8.1a1.32,1.32,0,0,1,1.3,1.3A1.21,1.21,0,0,1,490.6,401.9Z"/><path class="cls-28" d="M497.4,238.3a17.92,17.92,0,0,1-17-11.7,1.27,1.27,0,0,1,1-1.7,1.31,1.31,0,0,1,1.6.8,15.42,15.42,0,0,0,28.8,0,1.38,1.38,0,0,1,2.6.9A18.06,18.06,0,0,1,497.4,238.3Z"/><path class="cls-29" d="M513.4,217.5a1.31,1.31,0,0,1-1.6-.8,15.42,15.42,0,0,0-28.8,0,1.38,1.38,0,0,1-2.6-.9,18.2,18.2,0,0,1,34,0A1.3,1.3,0,0,1,513.4,217.5Z"/><path class="cls-30" d="M262.4,170.7c-17.67-10.41-23.91-22.33-19.55-37.34,4.1-14.09,15-21,32.76-20.71,10.7.15,21.95,10,24.81,21.64,3.69,15.09-2.66,26.74-19.87,36.38.8,1.56,2.41,1,3.62,1.32,21,6.37,34.16,20,38.27,41.77.67,3.57,1.8,5,5.56,4.6,3.93-.39,7.93,0,11.9-.1,3.4-.06,5.2,1.46,5.2,4.92q0,20.72,0,41.43c0,4.27-2.7,5-6.23,5-19.86-.06-39.71,0-59.57,0H205.23c-6.7,0-7.32-.65-7.32-7.47q0-18.39,0-36.77c0-6.43.62-7,7.22-7,4.49,0,9.61,1.32,13.29-.41s2.3-7.67,3.75-11.62c6.61-18.06,19.09-29.51,37.64-34.42.81-.22,1.64-.4,2.45-.64C262.34,171.15,262.35,170.87,262.4,170.7ZM271,261.21c20.55,0,41.1-.09,61.65.08,3.43,0,4.33-.94,4.24-4.3-.23-9-.17-18,0-26.93,0-2.64-.61-3.53-3.4-3.52q-61.9.14-123.83,0c-2.74,0-3.5.76-3.44,3.47.16,8.81.25,17.62,0,26.42-.13,3.76.72,4.93,4.72,4.88C230.9,261.08,250.93,261.21,271,261.21Zm.58-42.93c13.11,0,26.21-.08,39.32.05,3.06,0,4.09-.3,3.45-3.9-3.56-20.1-21.57-35.37-42.35-35.52-21.18-.14-39.42,14.8-43.19,35.1-.63,3.38-.23,4.41,3.44,4.35C245.33,218.15,258.44,218.28,271.55,218.28Zm-.07-98.14a21.57,21.57,0,1,0,21.6,21.42A21.85,21.85,0,0,0,271.48,120.14Z"/><path class="cls-30" d="M261.18,336.18c-10.39-7.38-14.14-16.66-10.94-26.73a22.33,22.33,0,0,1,42.5-.05c3.23,10.07-.51,19.4-10.75,26.67.52,1.28,1.81,1.25,2.83,1.66,15.09,6,24.23,19.36,24.65,35.61.09,3.29-.91,4-4.05,4-22.61-.14-45.22-.18-67.84,0-3.82,0-4.16-1.51-4-4.54,1-17,9.23-28.84,25.09-35.24.64-.25,1.28-.51,1.91-.79C260.74,336.72,260.84,336.55,261.18,336.18Zm10,32.74c8.63,0,17.26-.1,25.88.06,3.15.06,3.76-.68,2.86-3.81a29.6,29.6,0,0,0-56.89-.06c-.87,3-.49,3.94,2.78,3.87C254.3,368.81,262.76,368.92,271.22,368.92Zm.52-66.63a13.78,13.78,0,0,0-14.16,13.9,13.91,13.91,0,1,0,27.82,0A13.72,13.72,0,0,0,271.74,302.29Z"/><path class="cls-30" d="M354.78,336.51c-13.76-12-15.66-26.14-5-36.39a22.37,22.37,0,0,1,32.65,1.81c9,10.87,6.16,24.95-6.83,34.24,1.1,1.51,3,1.53,4.48,2.18a38.43,38.43,0,0,1,23.14,35.08c0,2.69-.34,3.92-3.53,3.9q-34.44-.21-68.88,0c-2.72,0-3.41-.74-3.46-3.46A38,38,0,0,1,350,338.55C351.55,337.86,353.13,337.21,354.78,336.51Zm10.1,32.42c8.62,0,17.24-.14,25.86.07,3.39.09,3.63-1.23,2.94-3.95-3.14-12.23-15.22-21.32-28.49-21.32s-25.18,9.09-28.47,21.35c-1,3.58.24,4,3.35,3.91C348.34,368.81,356.61,368.93,364.88,368.93Zm-13.6-52.56a14.1,14.1,0,0,0,13.87,13.84A14.28,14.28,0,0,0,379.21,316a13.9,13.9,0,0,0-14.48-13.67A13.74,13.74,0,0,0,351.28,316.37Z"/><path class="cls-30" d="M188.16,336.43l4.75,2.08a37.91,37.91,0,0,1,22.77,35.23c0,2.53-.42,3.6-3.33,3.58q-34.44-.18-68.89,0c-3,0-3.64-1-3.64-3.79a38.26,38.26,0,0,1,23.09-35.09c1.57-.68,3.14-1.34,4.84-2.06-16.23-10.48-14-26.5-6.9-34.72a22.34,22.34,0,0,1,33.05-.91C203.93,311.18,201.7,325.45,188.16,336.43Zm-10.51,32.5c8.45,0,16.89-.13,25.34.07,3.23.08,4.21-.51,3.28-4-3.3-12.29-15.19-21.33-28.49-21.31s-25.39,9.18-28.47,21.36c-.7,2.8-.3,4,3,3.91C160.75,368.79,169.2,368.93,177.65,368.93Zm.21-66.64a14,14,0,0,0-14.08,13.57,14.31,14.31,0,0,0,14,14.35,14.09,14.09,0,0,0,14-13.74A13.66,13.66,0,0,0,177.86,302.29Z"/></svg>