<svg id="Layer_1" data-name="Layer 1" xmlns="http://www.w3.org/2000/svg" xmlns:xlink="http://www.w3.org/1999/xlink" viewBox="0 0 543 490"><defs><style>.cls-1{fill:url(#linear-gradient);}.cls-2{fill:#2a2a8c;}.cls-3{fill:url(#linear-gradient-2);}.cls-4{opacity:0.9;fill:url(#linear-gradient-3);}.cls-5{fill:url(#linear-gradient-4);}.cls-6{fill:url(#linear-gradient-5);}.cls-7{fill:url(#linear-gradient-6);}.cls-8{fill:url(#linear-gradient-7);}.cls-9{fill:url(#linear-gradient-8);}.cls-10{fill:url(#linear-gradient-9);}.cls-11{fill:url(#linear-gradient-10);}.cls-12,.cls-13,.cls-14,.cls-15,.cls-18,.cls-19,.cls-20,.cls-21,.cls-22,.cls-23,.cls-28,.cls-29{fill-opacity:0.2;}.cls-12{fill:url(#linear-gradient-11);}.cls-13{fill:url(#linear-gradient-12);}.cls-14{fill:url(#linear-gradient-13);}.cls-15{fill:url(#linear-gradient-14);}.cls-16{fill:url(#linear-gradient-15);}.cls-17{fill:url(#linear-gradient-16);}.cls-18{fill:url(#linear-gradient-17);}.cls-19{fill:url(#linear-gradient-18);}.cls-20{fill:url(#linear-gradient-19);}.cls-21{fill:url(#linear-gradient-20);}.cls-22{fill:url(#linear-gradient-21);}.cls-23{fill:url(#linear-gradient-22);}.cls-24{fill:url(#linear-gradient-23);}.cls-25{fill:url(#linear-gradient-24);}.cls-26{fill:url(#linear-gradient-25);}.cls-27{fill:url(#linear-gradient-26);}.cls-28{fill:url(#linear-gradient-27);}.cls-29{fill:url(#linear-gradient-28);}.cls-30{fill:none;stroke:#39ffff;stroke-miterlimit:10;stroke-width:2px;}</style><linearGradient id="linear-gradient" x1="0.21" y1="137.11" x2="100.9" y2="137.11" gradientUnits="userSpaceOnUse"><stop offset="0.04" stop-color="#3a3adb"/><stop offset="0.99" stop-color="#2a2a8c"/></linearGradient><linearGradient id="linear-gradient-2" x1="50.45" y1="221.61" x2="542.33" y2="221.61" gradientUnits="userSpaceOnUse"><stop offset="0.04" stop-color="#3a3adb"/><stop offset="0.77" stop-color="#2a2a8c"/></linearGradient><linearGradient id="linear-gradient-3" x1="0.16" y1="279.25" x2="446.97" y2="279.25" gradientUnits="userSpaceOnUse"><stop offset="0.04" stop-color="#3a3adb"/><stop offset="0.99" stop-color="#2a47c9"/></linearGradient><linearGradient id="linear-gradient-4" x1="340.93" y1="347.57" x2="474.87" y2="347.57" xlink:href="#linear-gradient"/><linearGradient id="linear-gradient-5" x1="71.3" y1="42.35" x2="73.9" y2="42.35" xlink:href="#linear-gradient"/><linearGradient id="linear-gradient-6" x1="71.3" y1="21.65" x2="73.9" y2="21.65" xlink:href="#linear-gradient"/><linearGradient id="linear-gradient-7" x1="77.5" y1="37.3" x2="87.4" y2="37.3" xlink:href="#linear-gradient"/><linearGradient id="linear-gradient-8" x1="57.8" y1="26.5" x2="67.7" y2="26.5" xlink:href="#linear-gradient"/><linearGradient id="linear-gradient-9" x1="57.7" y1="37.3" x2="67.6" y2="37.3" xlink:href="#linear-gradient"/><linearGradient id="linear-gradient-10" x1="77.5" y1="26.5" x2="87.4" y2="26.5" xlink:href="#linear-gradient"/><linearGradient id="linear-gradient-11" x1="208.8" y1="73.75" x2="211.41" y2="73.75" xlink:href="#linear-gradient"/><linearGradient id="linear-gradient-12" x1="208.8" y1="53.05" x2="211.41" y2="53.05" xlink:href="#linear-gradient"/><linearGradient id="linear-gradient-13" x1="193.5" y1="63.4" x2="204.21" y2="63.4" xlink:href="#linear-gradient"/><linearGradient id="linear-gradient-14" x1="216" y1="63.4" x2="226.71" y2="63.4" xlink:href="#linear-gradient"/><linearGradient id="linear-gradient-15" x1="55.91" y1="421.27" x2="90.05" y2="421.27" xlink:href="#linear-gradient"/><linearGradient id="linear-gradient-16" x1="56.05" y1="400.53" x2="90.14" y2="400.53" xlink:href="#linear-gradient"/><linearGradient id="linear-gradient-17" x1="345.5" y1="278.75" x2="348.1" y2="278.75" xlink:href="#linear-gradient-3"/><linearGradient id="linear-gradient-18" x1="345.5" y1="258.05" x2="348.1" y2="258.05" xlink:href="#linear-gradient-3"/><linearGradient id="linear-gradient-19" x1="351.8" y1="273.8" x2="361.7" y2="273.8" xlink:href="#linear-gradient-3"/><linearGradient id="linear-gradient-20" x1="332" y1="263" x2="341.9" y2="263" xlink:href="#linear-gradient-3"/><linearGradient id="linear-gradient-21" x1="331.9" y1="273.8" x2="341.8" y2="273.8" xlink:href="#linear-gradient-3"/><linearGradient id="linear-gradient-22" x1="351.7" y1="263" x2="361.6" y2="263" xlink:href="#linear-gradient-3"/><linearGradient id="linear-gradient-23" x1="474.1" y1="410.95" x2="476.7" y2="410.95" xlink:href="#linear-gradient"/><linearGradient id="linear-gradient-24" x1="474.1" y1="390.25" x2="476.7" y2="390.25" xlink:href="#linear-gradient"/><linearGradient id="linear-gradient-25" x1="458.8" y1="400.6" x2="469.5" y2="400.6" xlink:href="#linear-gradient"/><linearGradient id="linear-gradient-26" x1="481.2" y1="400.6" x2="491.91" y2="400.6" xlink:href="#linear-gradient"/><linearGradient id="linear-gradient-27" x1="480.31" y1="231.57" x2="514.45" y2="231.57" gradientUnits="userSpaceOnUse"><stop offset="0.04" stop-color="#3a3adb"/><stop offset="0.99" stop-color="#2a4b8c"/></linearGradient><linearGradient id="linear-gradient-28" x1="480.35" y1="210.83" x2="514.49" y2="210.83" xlink:href="#linear-gradient-27"/></defs><path class="cls-1" d="M89.5,126.5C79,109.2,68,97.8,50.6,89.7s-39.1-8.2-48,11.2,8.6,43.5,33.2,44.9c28.3,1.5,43.4,14.6,45,34,1,12.1,14.5,12.5,17.3,4.6C103.3,170,101.7,146.7,89.5,126.5Z"/><path class="cls-2" d="M311.5,26.9C194.9-92.8,68.2,219.8,35.7,320.8S140.6,438.1,233,456.2c147.6,28.8,215.2-27,226.7-94.2S428.1,146.7,311.5,26.9Z"/><path class="cls-3" d="M386.9,175.8C325,186.6,282.7,128,254.2,91.9c-22.4-28.4-116.5-75.1-175,8.7-53,76-31.1,189.1,52.3,246.4S342,399,420.9,363.5c49.9-22.4,112.9-64.1,120.7-123.3C550.2,175.4,481.9,159.3,386.9,175.8Z"/><path class="cls-4" d="M397.7,68.5c-2.5-.1-5-.1-7.6-.1-41.1,0-92.8,10.3-129.7,22.4L255,92.6c1.1,1.4,2.3,2.9,3.5,4.4,1.3-.4,2.5-.8,3.8-1.3,41-13.5,91.2-22.1,127.9-22.1,2.5,0,5,0,7.4.1,17.3.6,30.3,6.3,37.5,16.5,8.6,12.2,8.6,30.8-.1,52.2-3.9,9.7-7.2,18.9-9.9,28-11,36.6-13.6,72.1-14.2,134.2-.1,14.2,0,27.3.1,40,.1,8,.1,15.5.1,22.8,0,44.1-2.7,74.5-23,94.1-15.8,15.2-34.3,23.3-53.6,23.3-21.2,0-42.9-9.5-64.3-28.3C222.8,415,164,386,104.6,374.7c-45.6-8.7-81.4-17-93.8-36.9-6.7-10.9-6.7-25.6,0-45,6.3-18.1,18.4-43.1,41.9-70.5-.4-2.4-.7-4.8-1-7.1-23.6,26.5-38.1,52.7-46.2,76-21.7,62.6,25.1,74.8,97.9,88.7,58.6,11.2,115.8,39.3,162.8,80.5,24,21,47.1,29.7,68.1,29.7,22.1,0,41.8-9.7,57.6-24.9,22.1-21.4,24.6-53.8,24.6-100.1,0-18-.4-38.1-.2-60.4.6-64.3,3.4-98.8,14.5-134.7,2.6-8.3,5.7-16.8,9.2-25.6C458.1,99.7,439.9,69.9,397.7,68.5Z"/><path class="cls-5" d="M459.8,308.7c-35.5-38.4-76.5-14-105.7,29.4-27.1,40.3-10.6,87.6,33.3,58.4,38.3-25.4,61.6-18,78.7-35.1C489,338.7,459.8,308.7,459.8,308.7Z"/><path class="cls-6" d="M72.6,47.7a1.32,1.32,0,0,1-1.3-1.3V38.3a1.3,1.3,0,1,1,2.6,0v8.1A1.4,1.4,0,0,1,72.6,47.7Z"/><path class="cls-7" d="M72.6,27a1.32,1.32,0,0,1-1.3-1.3V17.6a1.3,1.3,0,1,1,2.6,0v8.1A1.32,1.32,0,0,1,72.6,27Z"/><path class="cls-8" d="M85.3,40.3l-7.1-3.8a1.13,1.13,0,0,1-.5-1.7,1.54,1.54,0,0,1,1.9-.5l7.1,3.8a1.13,1.13,0,0,1,.5,1.7A1.54,1.54,0,0,1,85.3,40.3Z"/><path class="cls-9" d="M65.6,29.5l-7.1-3.8A1.13,1.13,0,0,1,58,24a1.54,1.54,0,0,1,1.9-.5L67,27.3a1.13,1.13,0,0,1,.5,1.7A1.57,1.57,0,0,1,65.6,29.5Z"/><path class="cls-10" d="M57.9,39.8a1.13,1.13,0,0,1,.5-1.7l7.1-3.8a1.54,1.54,0,0,1,1.9.5,1.13,1.13,0,0,1-.5,1.7l-7.1,3.8A1.54,1.54,0,0,1,57.9,39.8Z"/><path class="cls-11" d="M77.7,29a1.13,1.13,0,0,1,.5-1.7l7.1-3.8a1.54,1.54,0,0,1,1.9.5,1.13,1.13,0,0,1-.5,1.7l-7.1,3.8A1.54,1.54,0,0,1,77.7,29Z"/><path class="cls-12" d="M210.1,79.1a1.32,1.32,0,0,1-1.3-1.3V69.7a1.3,1.3,0,0,1,2.6,0v8.1A1.21,1.21,0,0,1,210.1,79.1Z"/><path class="cls-13" d="M210.1,58.4a1.32,1.32,0,0,1-1.3-1.3V49a1.3,1.3,0,0,1,2.6,0v8.1A1.21,1.21,0,0,1,210.1,58.4Z"/><path class="cls-14" d="M202.9,64.7h-8.1a1.3,1.3,0,0,1,0-2.6h8.1a1.32,1.32,0,0,1,1.3,1.3A1.21,1.21,0,0,1,202.9,64.7Z"/><path class="cls-15" d="M225.4,64.7h-8.1a1.3,1.3,0,0,1,0-2.6h8.1a1.32,1.32,0,0,1,1.3,1.3A1.21,1.21,0,0,1,225.4,64.7Z"/><path class="cls-16" d="M73,428a17.92,17.92,0,0,1-17-11.7,1.27,1.27,0,0,1,1-1.7,1.31,1.31,0,0,1,1.6.8,15.42,15.42,0,0,0,28.8,0,1.38,1.38,0,0,1,2.6.9A18.06,18.06,0,0,1,73,428Z"/><path class="cls-17" d="M89.1,407.2a1.31,1.31,0,0,1-1.6-.8,15.42,15.42,0,0,0-28.8,0,1.38,1.38,0,0,1-2.6-.9,18.2,18.2,0,0,1,34,0A1.45,1.45,0,0,1,89.1,407.2Z"/><path class="cls-18" d="M346.8,284.1a1.32,1.32,0,0,1-1.3-1.3v-8.1a1.3,1.3,0,0,1,2.6,0v8.1A1.32,1.32,0,0,1,346.8,284.1Z"/><path class="cls-19" d="M346.8,263.4a1.32,1.32,0,0,1-1.3-1.3V254a1.3,1.3,0,0,1,2.6,0v8.1A1.32,1.32,0,0,1,346.8,263.4Z"/><path class="cls-20" d="M359.6,276.8l-7.1-3.8a1.13,1.13,0,0,1-.5-1.7,1.54,1.54,0,0,1,1.9-.5l7.1,3.8a1.13,1.13,0,0,1,.5,1.7A1.57,1.57,0,0,1,359.6,276.8Z"/><path class="cls-21" d="M339.8,266l-7.1-3.8a1.13,1.13,0,0,1-.5-1.7,1.54,1.54,0,0,1,1.9-.5l7.1,3.8a1.13,1.13,0,0,1,.5,1.7A1.57,1.57,0,0,1,339.8,266Z"/><path class="cls-22" d="M332.1,276.3a1.13,1.13,0,0,1,.5-1.7l7.1-3.8a1.54,1.54,0,0,1,1.9.5,1.13,1.13,0,0,1-.5,1.7l-7.1,3.8A1.57,1.57,0,0,1,332.1,276.3Z"/><path class="cls-23" d="M351.9,265.5a1.13,1.13,0,0,1,.5-1.7l7.1-3.8a1.54,1.54,0,0,1,1.9.5,1.13,1.13,0,0,1-.5,1.7l-7.1,3.8A1.54,1.54,0,0,1,351.9,265.5Z"/><path class="cls-24" d="M475.4,416.3a1.32,1.32,0,0,1-1.3-1.3v-8.1a1.3,1.3,0,0,1,2.6,0V415A1.32,1.32,0,0,1,475.4,416.3Z"/><path class="cls-25" d="M475.4,395.6a1.32,1.32,0,0,1-1.3-1.3v-8.1a1.3,1.3,0,0,1,2.6,0v8.1A1.32,1.32,0,0,1,475.4,395.6Z"/><path class="cls-26" d="M468.2,401.9h-8.1a1.3,1.3,0,0,1,0-2.6h8.1a1.3,1.3,0,1,1,0,2.6Z"/><path class="cls-27" d="M490.6,401.9h-8.1a1.3,1.3,0,0,1,0-2.6h8.1a1.32,1.32,0,0,1,1.3,1.3A1.21,1.21,0,0,1,490.6,401.9Z"/><path class="cls-28" d="M497.4,238.3a17.92,17.92,0,0,1-17-11.7,1.27,1.27,0,0,1,1-1.7,1.31,1.31,0,0,1,1.6.8,15.42,15.42,0,0,0,28.8,0,1.38,1.38,0,0,1,2.6.9A18.06,18.06,0,0,1,497.4,238.3Z"/><path class="cls-29" d="M513.4,217.5a1.31,1.31,0,0,1-1.6-.8,15.42,15.42,0,0,0-28.8,0,1.38,1.38,0,0,1-2.6-.9,18.2,18.2,0,0,1,34,0A1.3,1.3,0,0,1,513.4,217.5Z"/><path class="cls-30" d="M148.23,363.84a14.22,14.22,0,0,1-5.55-5.57c-1.61-3-1.05-6.25-1.13-9.43.74-1.24.54-2.6.48-3.93l.75-11c.74-2.74.56-5.58.87-8.36.22-3.68.45-7.36.67-11a7.42,7.42,0,0,0,.48-3.93l.75-11c.82-2.14.34-4.4.54-6.6.3-3,.59-5.91.88-8.87l.6-7.83.75-11a3.08,3.08,0,0,0,.36-2.28c1.5-25.54.18-51.1.76-76.53-3-.15-4,1.22-4,3.67a14.9,14.9,0,0,1-.77,3.2q-.85,3.88-1.7,7.77c-.6,3.12-1.69,6.15-1.87,9.36a10.62,10.62,0,0,0-1.21,5.3c-.73.68-.4,1.61-.57,2.43-1.15,2.47-1.28,5.21-1.95,7.81q-1,4.68-1.93,9.36c-.85,2-1,4.1-1.47,6.15l-2.05,9.32-.72,2.86a15.78,15.78,0,0,1-3.75,5.45l-4.12,1.72a13.07,13.07,0,0,1-8-2.1,11.89,11.89,0,0,1-3.74-7.87c.54-2.78,1.09-5.57,1.64-8.35l2-9.37.18-.62,1.47-6.55q.91-4.18,1.85-8.37c.55-3,1.63-5.8,1.75-8.84,1.27-2.44,1.23-5.23,2-7.8.22-1,.47-1.95.64-2.94.81-4.75,2.44-9.34,2.89-14.17,1.25-2.44,1.22-5.24,2.15-7.77a13.57,13.57,0,0,1,3.92-5.05l6.7-2.69,2.19-.64,6.73-1.86,8.82-2,7.26-1.29,9.38-.93c1.48,1.17,1.57,3.2,2.81,4.53q-.61,5.82-1.21,11.64a21.63,21.63,0,0,0-.91,6.14c-.82,6.63-2,13.22-2.41,19.89a19.37,19.37,0,0,0-.92,5.55l-.82,7.55c-.72,3,1.71,4.65,2.88,6.84l1.2,2.18a30.48,30.48,0,0,0,3.64,6.18c1.06-2.2,2.55-3.89,3.2-6A4.56,4.56,0,0,0,182,223.7c1.2-1.71,2.62-3.29,2.94-5.47.19-3-.61-5.9-.87-8.85l-1.26-9.09q-.48-3.9-.95-7.8l-1-8.05c-.34-2.22-.21-4.52-1-6.67l-1.18-10.47a8.89,8.89,0,0,1,2.9-5.7l8.84.75a49.2,49.2,0,0,0,7.8,1.47l7.76,1.76,8.9,2.55,1.56.46,5.65,1.89,6.45,2.22V151.23c0-2.61,1.08-4.95,2-7.33l1.46-2.16a20.93,20.93,0,0,1,7.85-5.22,29.69,29.69,0,0,1,4.36-.61c11.82,0,23.64,0,35.45,0,7.94,0,15.89,0,23.83.08,1.89,0,2.64-.59,2.51-2.54-.18-2.57-.1-5.16-.14-7.74.32-1.49.63-3,.94-4.47.82-1.53,2.34-2.27,3.67-3.24a7.34,7.34,0,0,1,3.68.41l1,.41c2.68,1.82,2.94,4.61,3,7.48v8.24c-.26,1,0,1.58,1.16,1.5s2.49.29,3.68-.28c19.41.24,38.81.28,58.22,0,2.54.8,5.22,1.26,7.49,2.8l4.26,4.29a21.3,21.3,0,0,1,2.76,8.35v91.3q-.27,4.18-.53,8.35c-.62,3.34-2.74,5.8-4.86,8.25l-.8.61a19.58,19.58,0,0,1-11.68,3.37c-8.94-.14-17.89,0-27,0l1.15,4.36,2.19,8.37,1.62,6c.32,1,.26,2,1,2.88a49.1,49.1,0,0,0,2,7.82,48.41,48.41,0,0,0,2.19,8.18l4.47,16.73,2.19,8.22,2.58,9.87c1.34,5,2.44,10.11,4.24,15l1.86,8.28c.11,2.73-1.38,4.56-3.45,6.06-3.68,1-6.41-.24-8.26-3.52-.12-.47-.23-.95-.34-1.43q-1.29-5-2.59-9.9a37.17,37.17,0,0,0-2.14-7.24c-1-6-3.22-11.73-4.51-17.67l-1.85-6.71-2.65-9.88a34.85,34.85,0,0,0-2-6.73c-.07-.53-.13-1.06-.2-1.6-.71-2.41-1-4.93-2.14-7.23l-2.28-8.84c-.66-2.61-1-5.3-2.15-7.77L340,269.17l-.17-.59A11.09,11.09,0,0,1,339,266c-.11-2.51-1.41-3-3.73-2.95-4.88.17-9.77.15-14.65,0-2.13-.07-2.77.46-2.76,2.69.09,22.73.06,45.46.06,68.19a11.66,11.66,0,0,1-3.35,3.93c-3.63,1.22-6.2-.33-8.3-3.14l-.1-.81c-.13-2.91-.26-5.83-.38-8.74a21.33,21.33,0,0,0,0-7.39,49,49,0,0,0,0-9.22,21.33,21.33,0,0,0,0-7.39,49,49,0,0,0,0-9.22,21.33,21.33,0,0,0,0-7.39,49,49,0,0,0,0-9.22,20.86,20.86,0,0,0,0-7.35c.06-.55.09-1.1.19-1.64.49-2.66-.54-3.47-3.25-3.32-4.33.25-8.68.07-13,.07s-4.22,0-5.07,4.42l-2.13,7.77q-2.4,8.85-4.82,17.7l-1.77,6.7-2.64,9.86c-.23.77-.46,1.54-.68,2.31q-.76,3-1.54,6c-.6,2.25-1.19,4.5-1.79,6.75-.83,3.1-2,6.11-2.35,9.34a33.84,33.84,0,0,0-2.14,7.24c-.22.91-.44,1.82-.65,2.73a24.71,24.71,0,0,0-1.57,5.57c-.79,3.12-2,6.13-2.3,9.37-1.1,2.31-1.83,4.88-4.44,6.09-3.33.81-5.81-.47-7.76-3.1l-.48-2.51q2.15-8.55,4.3-17.1a40.22,40.22,0,0,0,2.09-7.27l2.64-9.86.18-.63,2-7.68q.91-3.36,1.85-6.72c.69-3.14,2-6.13,2.29-9.36a33.92,33.92,0,0,0,2.14-7.23,1.33,1.33,0,0,0,.09-.52l2.13-7.8q1.29-4.94,2.59-9.89c.62-2.24,1.23-4.48,1.85-6.72.21-.7.44-1.39.63-2.09.91-3.36.9-3.35-2.57-3.36l-28.5-.1a.17.17,0,0,0-.28,0c-6.87-2.4-11.61-6.66-12.54-14.26,0-2.06,0-4.12,0-6.18V201.06a43.22,43.22,0,0,1,.16-5c.26-2-.62-2.71-2.38-3.23-3.88-1.15-7.7-2.51-11.54-3.78-2.53-.81-5.07-1.58-7.58-2.44-1.55-.53-2-.15-2,1.54.08,7.18,0,14.35.05,21.53.13,15.91-.36,31.82.27,47.73a54.65,54.65,0,0,0,.92,9.47l.75,11.57a2.72,2.72,0,0,0,.36,2.27l.75,11.59.72,8.37q.47,6,.94,12.09a2.76,2.76,0,0,0,.36,2.27l.75,11.57.6,7.28c.27,3.26.68,6.52.8,9.79.17,4.85,1.72,9.76-.39,14.56a17.18,17.18,0,0,1-5.56,5.53,14.58,14.58,0,0,1-8.43.89c-6.37-2.33-8.87-7.27-9.23-13.65l-.75-11a7.39,7.39,0,0,0-.47-3.92c.27-3.53-.67-7-.64-10.5l-.75-8.37q-.45-5.78-.91-11.53a6.83,6.83,0,0,0-.36-3.38l-.75-10.47-.6-7.83c-.7-6.19-.67-12.45-1.69-18.69-2.6.91-5.19,1.38-7.66.41-2-.77-1.94.35-2,1.56-.45,6.7-.87,13.39-1.31,20.08a2.72,2.72,0,0,0-.36,2.27l-.75,11-.87,8.36q-.41,6.35-.79,12.7a2.72,2.72,0,0,0-.37,2.27q-.36,5.77-.74,11.56a2.75,2.75,0,0,0-.36,2.28l-.83,11.95c-.71,1.28-.27,2.69-.45,4-.66,4.92-3.42,8.29-7.7,10.57-.43.06-1-.24-1.15.48l-.09-.11A15.41,15.41,0,0,1,148.23,363.84Zm88.33-212.67,0,.64q0,11-.07,22c0,.78-.23,1.74,1.06,1.77a1.22,1.22,0,0,0,1.16.46l2.68.88,5.64,1.88,9.34,3.12,7.3,2.42,2.67.88a14.37,14.37,0,0,1,6.67,4.27c.42,2.06,1.32,2.87,3.42,1.57,1.6-1,3.37-1.69,5.06-2.52a34.06,34.06,0,0,0,7.63-3.58h.27l.27-.08a70,70,0,0,0,8.95-4.28c5.49-2.1,10.69-4.83,16-7.3l16.66-7.72c3.13-1.11,3.77-.79,4.25,2.11l.16.08c-.52-.13-.47.32-.59.59l-4.44,2.18-16,7.34-8.36,3.85L301.34,184,298,185.54l-9.14,4.3-5.23,2.36-3,1.53a16,16,0,0,0-3.79,1.53c-1.18.5-2.52.75-2.49,2.47,0,1.24-.85,2.19-1.23,3.31l-.88,1a12.87,12.87,0,0,1-7,3.32c-2.87-.24-5.5-1.47-8.27-2.1l-7.8-2.67-1.54-.41a34.16,34.16,0,0,0-6.81-2.31c-1.34-.54-2.63-1.29-4.3-1.15,0,16.93-.07,33.8,0,50.68,0,4.3,3.41,7.34,7.67,7.5,1.48.05,2.95,0,4.43-.09a19.53,19.53,0,0,0,7.27,0h9.35a19.8,19.8,0,0,0,7.28,0h9.36a19.8,19.8,0,0,0,7.28,0h9.36a19.8,19.8,0,0,0,7.28,0h9.35a19.8,19.8,0,0,0,7.28,0h9.36a19.8,19.8,0,0,0,7.28,0h9.35a19.8,19.8,0,0,0,7.28,0h9.36a19.8,19.8,0,0,0,7.28,0,50.9,50.9,0,0,0,9.32-.19,5.36,5.36,0,0,0,4-2.58c2.57-2.75,2.09-6.16,2-9.47v-83a35.13,35.13,0,0,0-.11-7.74c-.64-5.31-3.31-7.79-8.47-7.79q-66.93,0-133.88,0c-1,0-2-.33-2.9.47a2.68,2.68,0,0,0-2.56,1.12A7,7,0,0,0,236.56,151.17Z"/><path class="cls-30" d="M154.84,118l2.32-3.85,3.84-3.88,4.66-3.26,6.43-2.2a47.44,47.44,0,0,1,10.52,0l6.69,2.58,4.39,2.92,3.61,3.9,3,4.57c.72,2.75,1.43,5.51,2.15,8.26.42,2.93-.39,5.78-.48,8.68q-1.29,3.62-2.59,7.23c-.57,1.12-1.15,2.23-1.73,3.34l-2.91,4.11-4.89,4.69a44.52,44.52,0,0,1-7.23,3.81l-1.59.19a17.21,17.21,0,0,1-7.32.06l-2.1-.4-6.72-3.6-5-4.56a16.36,16.36,0,0,0-2.75-3.81l-1.89-3.81a50.49,50.49,0,0,1-2.72-8.37,34.84,34.84,0,0,1-.35-8.83Z"/><path class="cls-30" d="M305.85,193.48c.3-1.19.59-2.38.89-3.57.78-1.17,1.83-.47,2.73-.31,1.71.3,3.39.76,5.08,1.15-.13.49-.26,1-.4,1.46-2.28,5.12,3.31,4.81,5.1,7.07,1.27,1.59,2.52-.78,3.8-1.35,2.25-.19,1.85,2.37,3.21,3.1,1.61,2.06,1.72,3.7-1.12,4.78-2.13.82-.42,2.31-.46,3.49a9.64,9.64,0,0,1,.38,2.14c-.14,2.19.37,3.67,3,3.7,1.59,0,1.8,1.19,1.56,2.5s-.78,2.63-1,4c-.18,1-.44,1.63-1.56,1.12-2.59-1.19-4.2-.35-5.22,2.26a6.61,6.61,0,0,1-1.88,2.32,1.54,1.54,0,0,0-.15,2.55c1.77,1.83,1.39,3.24-.76,4.36-1.58.48-2.67,1.95-4.38,2.17-1.83-3.92-1.82-3.91-5.67-3-.87.2-1.76.3-2.65.45-1-.18-2.12-.38-2.17,1.15-.11,3.17-1.72,3.7-4.38,2.62a10.1,10.1,0,0,0-1.85-.36c-1.78,0-2.18-.92-1.63-2.46,1.05-1.87.68-3.09-1.43-4a15,15,0,0,1-3.22-2.42c-.63-.51-1.17-1.25-2-.3-2.48,2.06-4.22,1.44-5.42-1.44a7,7,0,0,0-1.14-1.49c-.14-1-.91-2,.71-2.56,2.67-.92,2.89-2.76,1.66-5-.23-2.66,0-5.68-4.1-5.39-1.58-.42-.34-1.58-.62-2.34l1.12-5c2.73.13,6.08,1.7,6.85-2.86,2.09-1.74,3.2-3.6.91-6-.31-.34-.77-1-.1-1.41a59.13,59.13,0,0,1,5.4-3.22c1.15-.58,1.21.75,1.55,1.36,1,1.66,2.08,2.63,4.07,1.59C302.2,193.45,304.15,194.22,305.85,193.48Zm12,15.86a6.43,6.43,0,0,0-2.7-4.46c-3.28-4.21-8.64-5.7-14.22-3.94a6.42,6.42,0,0,0-3.64,1.7,12.1,12.1,0,0,0-5.19,7.22,10.52,10.52,0,0,0,0,7.82,11.7,11.7,0,0,0,5.75,7.46c.69.57,1.31,1.27,2.32,1.25,5.85,2.06,10.9.8,15.14-3.71a10.21,10.21,0,0,0,2.75-4.93A11.94,11.94,0,0,0,317.9,209.34Z"/><path class="cls-30" d="M339.57,221.58c-1-1-3-.71-3.31-2.53,3.1-3-.69-4.12-1.58-6.07s-2.17-1-3.41-.7c-2.54.45-1.54-2.12-2.55-3-.6-1.47-.63-2.61,1.36-3a1.52,1.52,0,0,0,1.39-2.11c-.4-1.59.66-3.19.19-4.83-3.35-1.25-2.54-3.36-1.17-5.59l.71-1.21a3.66,3.66,0,0,1,2.08.63,1.7,1.7,0,0,0,2.6-.36,24.34,24.34,0,0,1,2.63-2.43c.46-.41,1.31-.73.87-1.49-2-3.39.78-3.42,2.79-4.07a4.11,4.11,0,0,1,2.12-.41c.56,1.77.65,4,3.56,3.19,2.73.85,4.76.31,5.54-2.75,1.69.23,3,1.33,4.48,2,.8.36,1.1,1,.47,1.75-1.5,1.87-.6,3.1,1.11,4.11,1.12,2.32,2.58,3.62,5.13,1.72,1.13,1.88,2.75,3.63,1.61,6.1l-2.42.85c-.23,1.89-.44,3.78-.69,5.66-.14,1.09.74,1.1,1.38,1.38l1.7.86c-.07,2.11-1.68,3.61-2.22,5.53-2.56-1.67-4.71-1.26-6.51,1.23a6.26,6.26,0,0,1-1.23,1c-1.23.74-.09,1.52-.07,2.29s1.06,1.75-.46,2.18c-.43.11-.88.19-1.3.34-1.89.66-3.82,1.69-4.37-1.6-.2-1.2-1.3-1-2.21-.59-2.17-.32-4.56-1.64-5.74,1.72C341.55,222.9,340.42,221.82,339.57,221.58ZM337.08,201c-1.37,6.64,2.18,12.1,8.62,13.24.64,0,1.29.09,1.93.09A10.5,10.5,0,0,0,358.37,204a10.66,10.66,0,0,0-10.48-11.18,9.09,9.09,0,0,0-8.35,3.72C338,197.63,337.52,199.29,337.08,201Z"/></svg>