<svg id="Layer_1" data-name="Layer 1" xmlns="http://www.w3.org/2000/svg" xmlns:xlink="http://www.w3.org/1999/xlink" viewBox="0 0 543 490"><defs><style>.cls-1{fill:url(#linear-gradient);}.cls-2{fill:#2a2a8c;}.cls-3{fill:url(#linear-gradient-2);}.cls-4{opacity:0.9;fill:url(#linear-gradient-3);}.cls-5{fill:url(#linear-gradient-4);}.cls-6{fill:url(#linear-gradient-5);}.cls-7{fill:url(#linear-gradient-6);}.cls-8{fill:url(#linear-gradient-7);}.cls-9{fill:url(#linear-gradient-8);}.cls-10{fill:url(#linear-gradient-9);}.cls-11{fill:url(#linear-gradient-10);}.cls-12,.cls-13,.cls-14,.cls-15,.cls-18,.cls-19,.cls-20,.cls-21,.cls-22,.cls-23,.cls-28,.cls-29{fill-opacity:0.2;}.cls-12{fill:url(#linear-gradient-11);}.cls-13{fill:url(#linear-gradient-12);}.cls-14{fill:url(#linear-gradient-13);}.cls-15{fill:url(#linear-gradient-14);}.cls-16{fill:url(#linear-gradient-15);}.cls-17{fill:url(#linear-gradient-16);}.cls-18{fill:url(#linear-gradient-17);}.cls-19{fill:url(#linear-gradient-18);}.cls-20{fill:url(#linear-gradient-19);}.cls-21{fill:url(#linear-gradient-20);}.cls-22{fill:url(#linear-gradient-21);}.cls-23{fill:url(#linear-gradient-22);}.cls-24{fill:url(#linear-gradient-23);}.cls-25{fill:url(#linear-gradient-24);}.cls-26{fill:url(#linear-gradient-25);}.cls-27{fill:url(#linear-gradient-26);}.cls-28{fill:url(#linear-gradient-27);}.cls-29{fill:url(#linear-gradient-28);}.cls-30{fill:none;stroke:#39ffff;stroke-miterlimit:10;stroke-width:2px;}</style><linearGradient id="linear-gradient" x1="0.21" y1="137.11" x2="100.9" y2="137.11" gradientUnits="userSpaceOnUse"><stop offset="0.04" stop-color="#3a3adb"/><stop offset="0.99" stop-color="#2a2a8c"/></linearGradient><linearGradient id="linear-gradient-2" x1="50.45" y1="221.61" x2="542.33" y2="221.61" gradientUnits="userSpaceOnUse"><stop offset="0.04" stop-color="#3a3adb"/><stop offset="0.77" stop-color="#2a2a8c"/></linearGradient><linearGradient id="linear-gradient-3" x1="0.16" y1="279.25" x2="446.97" y2="279.25" gradientUnits="userSpaceOnUse"><stop offset="0.04" stop-color="#3a3adb"/><stop offset="0.99" stop-color="#2a47c9"/></linearGradient><linearGradient id="linear-gradient-4" x1="340.93" y1="347.57" x2="474.87" y2="347.57" xlink:href="#linear-gradient"/><linearGradient id="linear-gradient-5" x1="71.3" y1="42.35" x2="73.9" y2="42.35" xlink:href="#linear-gradient"/><linearGradient id="linear-gradient-6" x1="71.3" y1="21.65" x2="73.9" y2="21.65" xlink:href="#linear-gradient"/><linearGradient id="linear-gradient-7" x1="77.5" y1="37.3" x2="87.4" y2="37.3" xlink:href="#linear-gradient"/><linearGradient id="linear-gradient-8" x1="57.8" y1="26.5" x2="67.7" y2="26.5" xlink:href="#linear-gradient"/><linearGradient id="linear-gradient-9" x1="57.7" y1="37.3" x2="67.6" y2="37.3" xlink:href="#linear-gradient"/><linearGradient id="linear-gradient-10" x1="77.5" y1="26.5" x2="87.4" y2="26.5" xlink:href="#linear-gradient"/><linearGradient id="linear-gradient-11" x1="208.8" y1="73.75" x2="211.41" y2="73.75" xlink:href="#linear-gradient"/><linearGradient id="linear-gradient-12" x1="208.8" y1="53.05" x2="211.41" y2="53.05" xlink:href="#linear-gradient"/><linearGradient id="linear-gradient-13" x1="193.5" y1="63.4" x2="204.21" y2="63.4" xlink:href="#linear-gradient"/><linearGradient id="linear-gradient-14" x1="216" y1="63.4" x2="226.71" y2="63.4" xlink:href="#linear-gradient"/><linearGradient id="linear-gradient-15" x1="55.91" y1="421.27" x2="90.05" y2="421.27" xlink:href="#linear-gradient"/><linearGradient id="linear-gradient-16" x1="56.05" y1="400.53" x2="90.14" y2="400.53" xlink:href="#linear-gradient"/><linearGradient id="linear-gradient-17" x1="345.5" y1="278.75" x2="348.1" y2="278.75" xlink:href="#linear-gradient-3"/><linearGradient id="linear-gradient-18" x1="345.5" y1="258.05" x2="348.1" y2="258.05" xlink:href="#linear-gradient-3"/><linearGradient id="linear-gradient-19" x1="351.8" y1="273.8" x2="361.7" y2="273.8" xlink:href="#linear-gradient-3"/><linearGradient id="linear-gradient-20" x1="332" y1="263" x2="341.9" y2="263" xlink:href="#linear-gradient-3"/><linearGradient id="linear-gradient-21" x1="331.9" y1="273.8" x2="341.8" y2="273.8" xlink:href="#linear-gradient-3"/><linearGradient id="linear-gradient-22" x1="351.7" y1="263" x2="361.6" y2="263" xlink:href="#linear-gradient-3"/><linearGradient id="linear-gradient-23" x1="474.1" y1="410.95" x2="476.7" y2="410.95" xlink:href="#linear-gradient"/><linearGradient id="linear-gradient-24" x1="474.1" y1="390.25" x2="476.7" y2="390.25" xlink:href="#linear-gradient"/><linearGradient id="linear-gradient-25" x1="458.8" y1="400.6" x2="469.5" y2="400.6" xlink:href="#linear-gradient"/><linearGradient id="linear-gradient-26" x1="481.2" y1="400.6" x2="491.91" y2="400.6" xlink:href="#linear-gradient"/><linearGradient id="linear-gradient-27" x1="480.31" y1="231.57" x2="514.45" y2="231.57" gradientUnits="userSpaceOnUse"><stop offset="0.04" stop-color="#3a3adb"/><stop offset="0.99" stop-color="#2a4b8c"/></linearGradient><linearGradient id="linear-gradient-28" x1="480.35" y1="210.83" x2="514.49" y2="210.83" xlink:href="#linear-gradient-27"/></defs><path class="cls-1" d="M89.5,126.5C79,109.2,68,97.8,50.6,89.7s-39.1-8.2-48,11.2,8.6,43.5,33.2,44.9c28.3,1.5,43.4,14.6,45,34,1,12.1,14.5,12.5,17.3,4.6C103.3,170,101.7,146.7,89.5,126.5Z"/><path class="cls-2" d="M311.5,26.9C194.9-92.8,68.2,219.8,35.7,320.8S140.6,438.1,233,456.2c147.6,28.8,215.2-27,226.7-94.2S428.1,146.7,311.5,26.9Z"/><path class="cls-3" d="M386.9,175.8C325,186.6,282.7,128,254.2,91.9c-22.4-28.4-116.5-75.1-175,8.7-53,76-31.1,189.1,52.3,246.4S342,399,420.9,363.5c49.9-22.4,112.9-64.1,120.7-123.3C550.2,175.4,481.9,159.3,386.9,175.8Z"/><path class="cls-4" d="M397.7,68.5c-2.5-.1-5-.1-7.6-.1-41.1,0-92.8,10.3-129.7,22.4L255,92.6c1.1,1.4,2.3,2.9,3.5,4.4,1.3-.4,2.5-.8,3.8-1.3,41-13.5,91.2-22.1,127.9-22.1,2.5,0,5,0,7.4.1,17.3.6,30.3,6.3,37.5,16.5,8.6,12.2,8.6,30.8-.1,52.2-3.9,9.7-7.2,18.9-9.9,28-11,36.6-13.6,72.1-14.2,134.2-.1,14.2,0,27.3.1,40,.1,8,.1,15.5.1,22.8,0,44.1-2.7,74.5-23,94.1-15.8,15.2-34.3,23.3-53.6,23.3-21.2,0-42.9-9.5-64.3-28.3C222.8,415,164,386,104.6,374.7c-45.6-8.7-81.4-17-93.8-36.9-6.7-10.9-6.7-25.6,0-45,6.3-18.1,18.4-43.1,41.9-70.5-.4-2.4-.7-4.8-1-7.1-23.6,26.5-38.1,52.7-46.2,76-21.7,62.6,25.1,74.8,97.9,88.7,58.6,11.2,115.8,39.3,162.8,80.5,24,21,47.1,29.7,68.1,29.7,22.1,0,41.8-9.7,57.6-24.9,22.1-21.4,24.6-53.8,24.6-100.1,0-18-.4-38.1-.2-60.4.6-64.3,3.4-98.8,14.5-134.7,2.6-8.3,5.7-16.8,9.2-25.6C458.1,99.7,439.9,69.9,397.7,68.5Z"/><path class="cls-5" d="M459.8,308.7c-35.5-38.4-76.5-14-105.7,29.4-27.1,40.3-10.6,87.6,33.3,58.4,38.3-25.4,61.6-18,78.7-35.1C489,338.7,459.8,308.7,459.8,308.7Z"/><path class="cls-6" d="M72.6,47.7a1.32,1.32,0,0,1-1.3-1.3V38.3a1.3,1.3,0,1,1,2.6,0v8.1A1.4,1.4,0,0,1,72.6,47.7Z"/><path class="cls-7" d="M72.6,27a1.32,1.32,0,0,1-1.3-1.3V17.6a1.3,1.3,0,1,1,2.6,0v8.1A1.32,1.32,0,0,1,72.6,27Z"/><path class="cls-8" d="M85.3,40.3l-7.1-3.8a1.13,1.13,0,0,1-.5-1.7,1.54,1.54,0,0,1,1.9-.5l7.1,3.8a1.13,1.13,0,0,1,.5,1.7A1.54,1.54,0,0,1,85.3,40.3Z"/><path class="cls-9" d="M65.6,29.5l-7.1-3.8A1.13,1.13,0,0,1,58,24a1.54,1.54,0,0,1,1.9-.5L67,27.3a1.13,1.13,0,0,1,.5,1.7A1.57,1.57,0,0,1,65.6,29.5Z"/><path class="cls-10" d="M57.9,39.8a1.13,1.13,0,0,1,.5-1.7l7.1-3.8a1.54,1.54,0,0,1,1.9.5,1.13,1.13,0,0,1-.5,1.7l-7.1,3.8A1.54,1.54,0,0,1,57.9,39.8Z"/><path class="cls-11" d="M77.7,29a1.13,1.13,0,0,1,.5-1.7l7.1-3.8a1.54,1.54,0,0,1,1.9.5,1.13,1.13,0,0,1-.5,1.7l-7.1,3.8A1.54,1.54,0,0,1,77.7,29Z"/><path class="cls-12" d="M210.1,79.1a1.32,1.32,0,0,1-1.3-1.3V69.7a1.3,1.3,0,0,1,2.6,0v8.1A1.21,1.21,0,0,1,210.1,79.1Z"/><path class="cls-13" d="M210.1,58.4a1.32,1.32,0,0,1-1.3-1.3V49a1.3,1.3,0,0,1,2.6,0v8.1A1.21,1.21,0,0,1,210.1,58.4Z"/><path class="cls-14" d="M202.9,64.7h-8.1a1.3,1.3,0,0,1,0-2.6h8.1a1.32,1.32,0,0,1,1.3,1.3A1.21,1.21,0,0,1,202.9,64.7Z"/><path class="cls-15" d="M225.4,64.7h-8.1a1.3,1.3,0,0,1,0-2.6h8.1a1.32,1.32,0,0,1,1.3,1.3A1.21,1.21,0,0,1,225.4,64.7Z"/><path class="cls-16" d="M73,428a17.92,17.92,0,0,1-17-11.7,1.27,1.27,0,0,1,1-1.7,1.31,1.31,0,0,1,1.6.8,15.42,15.42,0,0,0,28.8,0,1.38,1.38,0,0,1,2.6.9A18.06,18.06,0,0,1,73,428Z"/><path class="cls-17" d="M89.1,407.2a1.31,1.31,0,0,1-1.6-.8,15.42,15.42,0,0,0-28.8,0,1.38,1.38,0,0,1-2.6-.9,18.2,18.2,0,0,1,34,0A1.45,1.45,0,0,1,89.1,407.2Z"/><path class="cls-18" d="M346.8,284.1a1.32,1.32,0,0,1-1.3-1.3v-8.1a1.3,1.3,0,0,1,2.6,0v8.1A1.32,1.32,0,0,1,346.8,284.1Z"/><path class="cls-19" d="M346.8,263.4a1.32,1.32,0,0,1-1.3-1.3V254a1.3,1.3,0,0,1,2.6,0v8.1A1.32,1.32,0,0,1,346.8,263.4Z"/><path class="cls-20" d="M359.6,276.8l-7.1-3.8a1.13,1.13,0,0,1-.5-1.7,1.54,1.54,0,0,1,1.9-.5l7.1,3.8a1.13,1.13,0,0,1,.5,1.7A1.57,1.57,0,0,1,359.6,276.8Z"/><path class="cls-21" d="M339.8,266l-7.1-3.8a1.13,1.13,0,0,1-.5-1.7,1.54,1.54,0,0,1,1.9-.5l7.1,3.8a1.13,1.13,0,0,1,.5,1.7A1.57,1.57,0,0,1,339.8,266Z"/><path class="cls-22" d="M332.1,276.3a1.13,1.13,0,0,1,.5-1.7l7.1-3.8a1.54,1.54,0,0,1,1.9.5,1.13,1.13,0,0,1-.5,1.7l-7.1,3.8A1.57,1.57,0,0,1,332.1,276.3Z"/><path class="cls-23" d="M351.9,265.5a1.13,1.13,0,0,1,.5-1.7l7.1-3.8a1.54,1.54,0,0,1,1.9.5,1.13,1.13,0,0,1-.5,1.7l-7.1,3.8A1.54,1.54,0,0,1,351.9,265.5Z"/><path class="cls-24" d="M475.4,416.3a1.32,1.32,0,0,1-1.3-1.3v-8.1a1.3,1.3,0,0,1,2.6,0V415A1.32,1.32,0,0,1,475.4,416.3Z"/><path class="cls-25" d="M475.4,395.6a1.32,1.32,0,0,1-1.3-1.3v-8.1a1.3,1.3,0,0,1,2.6,0v8.1A1.32,1.32,0,0,1,475.4,395.6Z"/><path class="cls-26" d="M468.2,401.9h-8.1a1.3,1.3,0,0,1,0-2.6h8.1a1.3,1.3,0,1,1,0,2.6Z"/><path class="cls-27" d="M490.6,401.9h-8.1a1.3,1.3,0,0,1,0-2.6h8.1a1.32,1.32,0,0,1,1.3,1.3A1.21,1.21,0,0,1,490.6,401.9Z"/><path class="cls-28" d="M497.4,238.3a17.92,17.92,0,0,1-17-11.7,1.27,1.27,0,0,1,1-1.7,1.31,1.31,0,0,1,1.6.8,15.42,15.42,0,0,0,28.8,0,1.38,1.38,0,0,1,2.6.9A18.06,18.06,0,0,1,497.4,238.3Z"/><path class="cls-29" d="M513.4,217.5a1.31,1.31,0,0,1-1.6-.8,15.42,15.42,0,0,0-28.8,0,1.38,1.38,0,0,1-2.6-.9,18.2,18.2,0,0,1,34,0A1.3,1.3,0,0,1,513.4,217.5Z"/><path class="cls-30" d="M144.2,272.33c-8,25.5,6.23,47,29.2,65,2.41,1.88,5.51,4.44,5.93,7.06,1.58,10,8.28,9.7,15.82,9.38,9.39-.38,18.82-.27,28.22,0,4.3.11,5.87-1,6.22-5.66,1-13.59-1.37-25.08-12.83-34.36-10.25-8.3-19.19-18.22-28.64-27.49-4-3.92-8.37-5.58-12.75-1.25s-2.62,8.79,1.41,12.65c4.53,4.34,9,8.77,13.51,13.09,1.81,1.72,2.22,3.23.39,5.27-2.11,2.37-3.64.89-5.13-.57-5.48-5.35-11.43-10.33-16.19-16.26-4.94-6.15-4.51-13.23,1.16-18.93s13.12-6.63,18.9-1.37q21.62,19.68,41.82,40.91c6.83,7.17,4.46,17.1,4.75,26.06.11,3.54-1.44,8.25,5,7.86,2.74-.16,3.51,1.51,3.5,3.93,0,6.62,0,13.24,0,19.87,0,2.25-.32,4.17-3.31,4.07s-2.76-2.17-3.23-4.25c-1.28-5.62,3.8-13.5-3.14-16.56-5-2.2-11.66-.51-17.58-.52-11.85,0-23.73.5-35.54-.19-7.7-.46-9.25,2.38-9,9.39.11,3.92,3.71,11.64-3.42,11.55-5.95-.08-2.9-7.53-2.62-11.28.45-6.26-5.12-15.41,7.36-17.6,2.54-.45-.77-5.39-2.85-7.52-7.78-8-15.49-16.06-23.64-23.65-7.14-6.66-10.11-14.41-9.91-24.17.41-20.56.11-41.13.17-61.7a40.2,40.2,0,0,1,.73-9.32c1.66-6.87,6.26-10.9,13.38-11s12.25,3.52,13.44,10.66c2.7,16.24.66,32.67,1.21,49,.07,2-.91,3.41-2.91,3.63-2.68.3-3.69-1.34-3.7-3.79,0-2.09,0-4.19,0-6.28,0-11.85.16-23.7-.16-35.55-.13-4.82-.63-10.65-7.22-10.82-7-.18-8.14,5.48-8.21,11C144.09,244,144.2,255.52,144.2,272.33Z"/><path class="cls-30" d="M405.42,267.19c-.88,53.36,6.28,36.28-29.48,73.66-3.13,3.27-16.29,8.77-.26,13.56,1.67.49,1.77,25.33.18,26.36-1.82,1.18-4,1.55-5.24-.9-.45-.86-.21-2.05-.46-3.05-1.3-5.42,3.42-12.94-2.61-16-4.44-2.28-10.94-.56-16.52-.57-12.21,0-24.44.4-36.62-.15-6.94-.31-10.09,1.07-9.56,8.89.28,4.05,3.16,11.94-2.93,12-6.32.05-3.14-7.78-3-11.84.17-6-4.51-14.69,7.12-16.67,2.43-.42,1.34-5.8,1-8.74-1.7-14.52,3.82-25.45,14.81-34.81,10.07-8.58,19-18.47,28.68-27.52,7.55-7.06,16.21-7.27,22.28-1.05s5.35,14.84-1.89,22.19c-4.4,4.47-9,8.73-13.52,13.11-1.64,1.59-3.1,2.58-5.09.3-1.86-2.12-1.2-3.55.59-5.24,4.57-4.3,9-8.73,13.53-13.1,4-3.9,5.73-8.36,1.26-12.71s-8.79-2.5-12.76,1.41c-11.69,11.5-23.55,22.82-35.14,34.41-5.18,5.17-8.57,24.72-6,30.69a3.27,3.27,0,0,0,3,2.2c1.38.12,2.78.1,4.18.1,10.47,0,21-.45,31.39.12,14.23.77,11.57-14.59,20.16-20.06,22.67-14.44,30.31-36.15,26.65-62.86-1.73-12.67-.2-25.77-.37-38.68-.07-5-.68-9.82-7.76-10-7.46-.14-7.5,5.29-7.63,10-.35,12.89-.07,25.81-.23,38.72,0,2.74,1.67,7.15-3.5,7-4.18-.13-3-3.93-3.06-6.51-.07-12.91-.26-25.82.05-38.72.28-12.17,5-17.76,14.2-17.73,9.88,0,14.37,5.74,14.49,18.74C405.5,244.86,405.41,256,405.42,267.19Z"/><path class="cls-30" d="M241.85,268.7a57.11,57.11,0,1,1,56.84-57.28A57.13,57.13,0,0,1,241.85,268.7ZM241.73,161a50.61,50.61,0,0,0-51.11,50c-.4,28.06,22.77,51.29,51.06,51.2,27.77-.09,50.64-23,50.62-50.62A50.77,50.77,0,0,0,241.73,161Z"/><path class="cls-30" d="M329.83,186.75a39.22,39.22,0,1,1,39.45-38.91A39.08,39.08,0,0,1,329.83,186.75Zm.23-71.76a32.81,32.81,0,0,0-33,32.09c-.29,17.62,14.44,32.85,32.09,33.2a32.94,32.94,0,0,0,33.46-32.8A32.61,32.61,0,0,0,330.06,115Z"/><path class="cls-30" d="M258.37,197.21c-.32.47-.67,1.63-1.37,1.91-2.09.84-4.26.68-5.34-1.63-1.61-3.42-4.18-5.71-7.8-6.25-5.66-.85-10.85.53-12.34,6.73-1.45,6,2.61,8.84,7.95,10,3.05.67,6.31.74,9.17,1.86,10.79,4.22,13.28,17,4.81,24.44-3.85,3.38-10.84,4.08-9.15,11.88.34,1.56-1.71,1.89-3.12,1.78s-3.14-.69-2.82-2.33c1.3-6.53-3.63-8-7.78-10.4a12.36,12.36,0,0,1-4.17-4.55c-1.1-1.94-3.21-4.53-.53-6.42,2.28-1.63,4.49-.5,5.85,2.18,2.34,4.58,6.46,6.32,11.29,5.65,4.38-.6,8.16-3,8.73-7.69s-2.61-7.65-7.07-8.87c-2-.55-4.11-.7-6.16-1.06-7.14-1.24-12.37-4.8-13.75-12.29s2-12.92,8.82-15.87c3.32-1.44,5.18-3.09,4.65-6.88-.32-2.26.26-4.27,3.07-4.39s3.62,1.81,3.26,4.1c-.68,4.41,1.85,6.08,5.4,7.51C254.46,188.44,257,192.14,258.37,197.21Z"/><path class="cls-30" d="M320.19,156c2.95-.06,3.76,2.83,5.73,4.13a6.51,6.51,0,0,0,7.79.1c1.83-1.25,3.19-2.94,2.33-5.26-.92-2.49-3-3.36-5.57-4.07-16.27-4.58-17.79-10.57-5.61-22.72,2.14-2.13,2.79-9.72,5.5-6.18,3.84,5,11.23,7.41,12.07,14.29.47,3.89-3.23,3-5.15,1.86-2.3-1.33-3.59-4.22-6.88-4.13-3,.09-5.77.59-6.6,3.86s1.39,5.23,4.28,6.11c2.3.7,4.9.57,7.12,1.45,8.65,3.41,10.38,13,3.56,19.29-2.19,2-5.76,2.67-5.86,6.69,0,2.19-2.6,3.36-3.62,2.26a135.05,135.05,0,0,1-11.83-14.52C316.36,157.58,318.08,156,320.19,156Z"/></svg>