<svg id="Layer_1" data-name="Layer 1" xmlns="http://www.w3.org/2000/svg" xmlns:xlink="http://www.w3.org/1999/xlink" viewBox="0 0 543 490"><defs><style>.cls-1{fill:url(#linear-gradient);}.cls-2{fill:#2a2a8c;}.cls-3{fill:url(#linear-gradient-2);}.cls-4{opacity:0.9;fill:url(#linear-gradient-3);}.cls-5{fill:url(#linear-gradient-4);}.cls-6{fill:url(#linear-gradient-5);}.cls-7{fill:url(#linear-gradient-6);}.cls-8{fill:url(#linear-gradient-7);}.cls-9{fill:url(#linear-gradient-8);}.cls-10{fill:url(#linear-gradient-9);}.cls-11{fill:url(#linear-gradient-10);}.cls-12,.cls-13,.cls-14,.cls-15,.cls-18,.cls-19,.cls-20,.cls-21,.cls-22,.cls-23,.cls-28,.cls-29{fill-opacity:0.2;}.cls-12{fill:url(#linear-gradient-11);}.cls-13{fill:url(#linear-gradient-12);}.cls-14{fill:url(#linear-gradient-13);}.cls-15{fill:url(#linear-gradient-14);}.cls-16{fill:url(#linear-gradient-15);}.cls-17{fill:url(#linear-gradient-16);}.cls-18{fill:url(#linear-gradient-17);}.cls-19{fill:url(#linear-gradient-18);}.cls-20{fill:url(#linear-gradient-19);}.cls-21{fill:url(#linear-gradient-20);}.cls-22{fill:url(#linear-gradient-21);}.cls-23{fill:url(#linear-gradient-22);}.cls-24{fill:url(#linear-gradient-23);}.cls-25{fill:url(#linear-gradient-24);}.cls-26{fill:url(#linear-gradient-25);}.cls-27{fill:url(#linear-gradient-26);}.cls-28{fill:url(#linear-gradient-27);}.cls-29{fill:url(#linear-gradient-28);}.cls-30{fill:none;stroke:#39ffff;stroke-miterlimit:10;stroke-width:2px;}</style><linearGradient id="linear-gradient" x1="0.21" y1="137.11" x2="100.9" y2="137.11" gradientUnits="userSpaceOnUse"><stop offset="0.04" stop-color="#3a3adb"/><stop offset="0.99" stop-color="#2a2a8c"/></linearGradient><linearGradient id="linear-gradient-2" x1="50.45" y1="221.61" x2="542.33" y2="221.61" gradientUnits="userSpaceOnUse"><stop offset="0.04" stop-color="#3a3adb"/><stop offset="0.77" stop-color="#2a2a8c"/></linearGradient><linearGradient id="linear-gradient-3" x1="0.16" y1="279.25" x2="446.97" y2="279.25" gradientUnits="userSpaceOnUse"><stop offset="0.04" stop-color="#3a3adb"/><stop offset="0.99" stop-color="#2a47c9"/></linearGradient><linearGradient id="linear-gradient-4" x1="340.93" y1="347.57" x2="474.87" y2="347.57" xlink:href="#linear-gradient"/><linearGradient id="linear-gradient-5" x1="71.3" y1="42.35" x2="73.9" y2="42.35" xlink:href="#linear-gradient"/><linearGradient id="linear-gradient-6" x1="71.3" y1="21.65" x2="73.9" y2="21.65" xlink:href="#linear-gradient"/><linearGradient id="linear-gradient-7" x1="77.5" y1="37.3" x2="87.4" y2="37.3" xlink:href="#linear-gradient"/><linearGradient id="linear-gradient-8" x1="57.8" y1="26.5" x2="67.7" y2="26.5" xlink:href="#linear-gradient"/><linearGradient id="linear-gradient-9" x1="57.7" y1="37.3" x2="67.6" y2="37.3" xlink:href="#linear-gradient"/><linearGradient id="linear-gradient-10" x1="77.5" y1="26.5" x2="87.4" y2="26.5" xlink:href="#linear-gradient"/><linearGradient id="linear-gradient-11" x1="208.8" y1="73.75" x2="211.41" y2="73.75" xlink:href="#linear-gradient"/><linearGradient id="linear-gradient-12" x1="208.8" y1="53.05" x2="211.41" y2="53.05" xlink:href="#linear-gradient"/><linearGradient id="linear-gradient-13" x1="193.5" y1="63.4" x2="204.21" y2="63.4" xlink:href="#linear-gradient"/><linearGradient id="linear-gradient-14" x1="216" y1="63.4" x2="226.71" y2="63.4" xlink:href="#linear-gradient"/><linearGradient id="linear-gradient-15" x1="55.91" y1="421.27" x2="90.05" y2="421.27" xlink:href="#linear-gradient"/><linearGradient id="linear-gradient-16" x1="56.05" y1="400.53" x2="90.14" y2="400.53" xlink:href="#linear-gradient"/><linearGradient id="linear-gradient-17" x1="345.5" y1="278.75" x2="348.1" y2="278.75" xlink:href="#linear-gradient-3"/><linearGradient id="linear-gradient-18" x1="345.5" y1="258.05" x2="348.1" y2="258.05" xlink:href="#linear-gradient-3"/><linearGradient id="linear-gradient-19" x1="351.8" y1="273.8" x2="361.7" y2="273.8" xlink:href="#linear-gradient-3"/><linearGradient id="linear-gradient-20" x1="332" y1="263" x2="341.9" y2="263" xlink:href="#linear-gradient-3"/><linearGradient id="linear-gradient-21" x1="331.9" y1="273.8" x2="341.8" y2="273.8" xlink:href="#linear-gradient-3"/><linearGradient id="linear-gradient-22" x1="351.7" y1="263" x2="361.6" y2="263" xlink:href="#linear-gradient-3"/><linearGradient id="linear-gradient-23" x1="474.1" y1="410.95" x2="476.7" y2="410.95" xlink:href="#linear-gradient"/><linearGradient id="linear-gradient-24" x1="474.1" y1="390.25" x2="476.7" y2="390.25" xlink:href="#linear-gradient"/><linearGradient id="linear-gradient-25" x1="458.8" y1="400.6" x2="469.5" y2="400.6" xlink:href="#linear-gradient"/><linearGradient id="linear-gradient-26" x1="481.2" y1="400.6" x2="491.91" y2="400.6" xlink:href="#linear-gradient"/><linearGradient id="linear-gradient-27" x1="480.31" y1="231.57" x2="514.45" y2="231.57" gradientUnits="userSpaceOnUse"><stop offset="0.04" stop-color="#3a3adb"/><stop offset="0.99" stop-color="#2a4b8c"/></linearGradient><linearGradient id="linear-gradient-28" x1="480.35" y1="210.83" x2="514.49" y2="210.83" xlink:href="#linear-gradient-27"/></defs><path class="cls-1" d="M89.5,126.5C79,109.2,68,97.8,50.6,89.7s-39.1-8.2-48,11.2,8.6,43.5,33.2,44.9c28.3,1.5,43.4,14.6,45,34,1,12.1,14.5,12.5,17.3,4.6C103.3,170,101.7,146.7,89.5,126.5Z"/><path class="cls-2" d="M311.5,26.9C194.9-92.8,68.2,219.8,35.7,320.8S140.6,438.1,233,456.2c147.6,28.8,215.2-27,226.7-94.2S428.1,146.7,311.5,26.9Z"/><path class="cls-3" d="M386.9,175.8C325,186.6,282.7,128,254.2,91.9c-22.4-28.4-116.5-75.1-175,8.7-53,76-31.1,189.1,52.3,246.4S342,399,420.9,363.5c49.9-22.4,112.9-64.1,120.7-123.3C550.2,175.4,481.9,159.3,386.9,175.8Z"/><path class="cls-4" d="M397.7,68.5c-2.5-.1-5-.1-7.6-.1-41.1,0-92.8,10.3-129.7,22.4L255,92.6c1.1,1.4,2.3,2.9,3.5,4.4,1.3-.4,2.5-.8,3.8-1.3,41-13.5,91.2-22.1,127.9-22.1,2.5,0,5,0,7.4.1,17.3.6,30.3,6.3,37.5,16.5,8.6,12.2,8.6,30.8-.1,52.2-3.9,9.7-7.2,18.9-9.9,28-11,36.6-13.6,72.1-14.2,134.2-.1,14.2,0,27.3.1,40,.1,8,.1,15.5.1,22.8,0,44.1-2.7,74.5-23,94.1-15.8,15.2-34.3,23.3-53.6,23.3-21.2,0-42.9-9.5-64.3-28.3C222.8,415,164,386,104.6,374.7c-45.6-8.7-81.4-17-93.8-36.9-6.7-10.9-6.7-25.6,0-45,6.3-18.1,18.4-43.1,41.9-70.5-.4-2.4-.7-4.8-1-7.1-23.6,26.5-38.1,52.7-46.2,76-21.7,62.6,25.1,74.8,97.9,88.7,58.6,11.2,115.8,39.3,162.8,80.5,24,21,47.1,29.7,68.1,29.7,22.1,0,41.8-9.7,57.6-24.9,22.1-21.4,24.6-53.8,24.6-100.1,0-18-.4-38.1-.2-60.4.6-64.3,3.4-98.8,14.5-134.7,2.6-8.3,5.7-16.8,9.2-25.6C458.1,99.7,439.9,69.9,397.7,68.5Z"/><path class="cls-5" d="M459.8,308.7c-35.5-38.4-76.5-14-105.7,29.4-27.1,40.3-10.6,87.6,33.3,58.4,38.3-25.4,61.6-18,78.7-35.1C489,338.7,459.8,308.7,459.8,308.7Z"/><path class="cls-6" d="M72.6,47.7a1.32,1.32,0,0,1-1.3-1.3V38.3a1.3,1.3,0,1,1,2.6,0v8.1A1.4,1.4,0,0,1,72.6,47.7Z"/><path class="cls-7" d="M72.6,27a1.32,1.32,0,0,1-1.3-1.3V17.6a1.3,1.3,0,1,1,2.6,0v8.1A1.32,1.32,0,0,1,72.6,27Z"/><path class="cls-8" d="M85.3,40.3l-7.1-3.8a1.13,1.13,0,0,1-.5-1.7,1.54,1.54,0,0,1,1.9-.5l7.1,3.8a1.13,1.13,0,0,1,.5,1.7A1.54,1.54,0,0,1,85.3,40.3Z"/><path class="cls-9" d="M65.6,29.5l-7.1-3.8A1.13,1.13,0,0,1,58,24a1.54,1.54,0,0,1,1.9-.5L67,27.3a1.13,1.13,0,0,1,.5,1.7A1.57,1.57,0,0,1,65.6,29.5Z"/><path class="cls-10" d="M57.9,39.8a1.13,1.13,0,0,1,.5-1.7l7.1-3.8a1.54,1.54,0,0,1,1.9.5,1.13,1.13,0,0,1-.5,1.7l-7.1,3.8A1.54,1.54,0,0,1,57.9,39.8Z"/><path class="cls-11" d="M77.7,29a1.13,1.13,0,0,1,.5-1.7l7.1-3.8a1.54,1.54,0,0,1,1.9.5,1.13,1.13,0,0,1-.5,1.7l-7.1,3.8A1.54,1.54,0,0,1,77.7,29Z"/><path class="cls-12" d="M210.1,79.1a1.32,1.32,0,0,1-1.3-1.3V69.7a1.3,1.3,0,0,1,2.6,0v8.1A1.21,1.21,0,0,1,210.1,79.1Z"/><path class="cls-13" d="M210.1,58.4a1.32,1.32,0,0,1-1.3-1.3V49a1.3,1.3,0,0,1,2.6,0v8.1A1.21,1.21,0,0,1,210.1,58.4Z"/><path class="cls-14" d="M202.9,64.7h-8.1a1.3,1.3,0,0,1,0-2.6h8.1a1.32,1.32,0,0,1,1.3,1.3A1.21,1.21,0,0,1,202.9,64.7Z"/><path class="cls-15" d="M225.4,64.7h-8.1a1.3,1.3,0,0,1,0-2.6h8.1a1.32,1.32,0,0,1,1.3,1.3A1.21,1.21,0,0,1,225.4,64.7Z"/><path class="cls-16" d="M73,428a17.92,17.92,0,0,1-17-11.7,1.27,1.27,0,0,1,1-1.7,1.31,1.31,0,0,1,1.6.8,15.42,15.42,0,0,0,28.8,0,1.38,1.38,0,0,1,2.6.9A18.06,18.06,0,0,1,73,428Z"/><path class="cls-17" d="M89.1,407.2a1.31,1.31,0,0,1-1.6-.8,15.42,15.42,0,0,0-28.8,0,1.38,1.38,0,0,1-2.6-.9,18.2,18.2,0,0,1,34,0A1.45,1.45,0,0,1,89.1,407.2Z"/><path class="cls-18" d="M346.8,284.1a1.32,1.32,0,0,1-1.3-1.3v-8.1a1.3,1.3,0,0,1,2.6,0v8.1A1.32,1.32,0,0,1,346.8,284.1Z"/><path class="cls-19" d="M346.8,263.4a1.32,1.32,0,0,1-1.3-1.3V254a1.3,1.3,0,0,1,2.6,0v8.1A1.32,1.32,0,0,1,346.8,263.4Z"/><path class="cls-20" d="M359.6,276.8l-7.1-3.8a1.13,1.13,0,0,1-.5-1.7,1.54,1.54,0,0,1,1.9-.5l7.1,3.8a1.13,1.13,0,0,1,.5,1.7A1.57,1.57,0,0,1,359.6,276.8Z"/><path class="cls-21" d="M339.8,266l-7.1-3.8a1.13,1.13,0,0,1-.5-1.7,1.54,1.54,0,0,1,1.9-.5l7.1,3.8a1.13,1.13,0,0,1,.5,1.7A1.57,1.57,0,0,1,339.8,266Z"/><path class="cls-22" d="M332.1,276.3a1.13,1.13,0,0,1,.5-1.7l7.1-3.8a1.54,1.54,0,0,1,1.9.5,1.13,1.13,0,0,1-.5,1.7l-7.1,3.8A1.57,1.57,0,0,1,332.1,276.3Z"/><path class="cls-23" d="M351.9,265.5a1.13,1.13,0,0,1,.5-1.7l7.1-3.8a1.54,1.54,0,0,1,1.9.5,1.13,1.13,0,0,1-.5,1.7l-7.1,3.8A1.54,1.54,0,0,1,351.9,265.5Z"/><path class="cls-24" d="M475.4,416.3a1.32,1.32,0,0,1-1.3-1.3v-8.1a1.3,1.3,0,0,1,2.6,0V415A1.32,1.32,0,0,1,475.4,416.3Z"/><path class="cls-25" d="M475.4,395.6a1.32,1.32,0,0,1-1.3-1.3v-8.1a1.3,1.3,0,0,1,2.6,0v8.1A1.32,1.32,0,0,1,475.4,395.6Z"/><path class="cls-26" d="M468.2,401.9h-8.1a1.3,1.3,0,0,1,0-2.6h8.1a1.3,1.3,0,1,1,0,2.6Z"/><path class="cls-27" d="M490.6,401.9h-8.1a1.3,1.3,0,0,1,0-2.6h8.1a1.32,1.32,0,0,1,1.3,1.3A1.21,1.21,0,0,1,490.6,401.9Z"/><path class="cls-28" d="M497.4,238.3a17.92,17.92,0,0,1-17-11.7,1.27,1.27,0,0,1,1-1.7,1.31,1.31,0,0,1,1.6.8,15.42,15.42,0,0,0,28.8,0,1.38,1.38,0,0,1,2.6.9A18.06,18.06,0,0,1,497.4,238.3Z"/><path class="cls-29" d="M513.4,217.5a1.31,1.31,0,0,1-1.6-.8,15.42,15.42,0,0,0-28.8,0,1.38,1.38,0,0,1-2.6-.9,18.2,18.2,0,0,1,34,0A1.3,1.3,0,0,1,513.4,217.5Z"/><path class="cls-30" d="M228,328.29c-8.07,0-16.14,0-24.22,0-1.22,0-1.61-.4-1.78-1.55a56.51,56.51,0,0,0-2.2-10.26,6.89,6.89,0,0,0-2.46-3.44,366.54,366.54,0,0,1-34.94-30.22,6.9,6.9,0,0,1-2.16-4.67,41.17,41.17,0,0,1,.61-12.29,32.51,32.51,0,0,0,.48-9.89c-1.79-20.14,1-39.71,7.54-58.8a111.67,111.67,0,0,1,11.86-25.3c.48-.74,1-1.47,1.55-2.17,3.46-4.41,9.08-4.43,12.48.14a17.33,17.33,0,0,1,3.57,13.3q-2.41,16.94-4.48,33.91c-.22,1.76-.88,1.73-2.2,1.43a34.3,34.3,0,0,0-9.43-.92,15,15,0,0,0-11.91,23.65c3.53,5.21,7.9,9.61,12.33,14s8.82,8.5,12.54,13.4c2.5,3.3,3.88,7.25,6.16,10.67.44.65.81,1.34,1.27,2,.71,1,1.43,1.94,2.84,1a2.52,2.52,0,0,0,.81-3.38c-1.24-2.3-2.53-4.57-3.76-6.88-3.86-7.23-9.54-12.94-15.36-18.55-4.57-4.39-9.18-8.77-12.7-14.11-1.51-2.29-2.69-4.69-2.24-7.63.94-6.22,4.51-9.4,10.79-9.61,8-.27,13.81,3.43,18.47,9.53,2.7,3.53,5.26,7.17,7.62,11a39.56,39.56,0,0,0,15.1,14.26,61.74,61.74,0,0,1,9.42,6c5.1,4.05,8.45,9.4,11,15.25,4.16,9.4,6.14,19.37,7.49,29.49.83,6.23,1.24,12.5,1.65,18.77.09,1.53-.2,2.05-1.9,2C243.92,328.23,236,328.29,228,328.29Z"/><path class="cls-30" d="M349.78,221.38c-1.28-9.73-2.53-19.21-3.77-28.69-.5-3.75-1.23-7.48-1.43-11.25a15.63,15.63,0,0,1,5.56-13.33,7.64,7.64,0,0,1,4.79-1.69,5.06,5.06,0,0,1,4.62,2.08,98.6,98.6,0,0,1,13.9,26.11A149,149,0,0,1,382,253.17a16.35,16.35,0,0,1-.26,3c-1,4.23.44,8.26.91,12.36a42,42,0,0,1,0,11.15,4.31,4.31,0,0,1-1.37,2.57,331,331,0,0,1-34.62,30.08c-2.54,1.9-3.54,4.32-4.18,7.09-.57,2.49-1,5-1.35,7.55-.15,1.05-.54,1.36-1.59,1.36q-24.39,0-48.78,0c-1.12,0-1.51-.21-1.45-1.45.73-14.09,2.09-28.08,6.41-41.6,2.28-7.15,5.4-13.88,10.57-19.49a37.84,37.84,0,0,1,10.72-7.83,46,46,0,0,0,17.88-16.57A49.25,49.25,0,0,1,354.46,224a15.29,15.29,0,0,1,8.88-1.77,7.08,7.08,0,0,1,5.75,3.77c2.37,4.48,2.59,8.86-.38,13.22a86.5,86.5,0,0,1-12.46,13.88c-7.07,6.7-13.61,13.76-17.7,22.76a23.57,23.57,0,0,1-1.63,2.72,2.69,2.69,0,0,0-.12,2.85,1.79,1.79,0,0,0,3.2.37,30.89,30.89,0,0,0,4.17-6.82c2.6-5.83,6.87-10.33,11.23-14.79,4.52-4.61,9.36-8.91,13.52-13.86,2.52-3,4.85-6.1,6-9.92,2.48-8.18-3-17.6-10.95-18.65a20.59,20.59,0,0,0-12.82,2.83C350.77,220.78,350.4,221,349.78,221.38Z"/><path class="cls-30" d="M313.43,332.79h28.21c2.57,0,3.26.69,3.26,3.26V386.8c0,2.56-.72,3.29-3.29,3.29q-28.29,0-56.59,0c-2.43,0-3.15-.76-3.15-3.23V335.94c0-2.47.68-3.14,3.18-3.15Z"/><path class="cls-30" d="M229.21,332.79h28.06c2.68,0,3.24.56,3.24,3.2v50.93c0,2.47-.68,3.17-3.19,3.17q-28.31,0-56.61,0c-2.41,0-3-.67-3-3.1q0-25.56,0-51.1c0-2.57.53-3.1,3.15-3.1Z"/><path class="cls-30" d="M268.72,108.11l-5.49,5.7c-.58.6-1.16,1.21-1.78,1.77a2.3,2.3,0,0,1-3.29,0,2.25,2.25,0,0,1,0-3.3c1.05-1.15,2.18-2.23,3.28-3.33,2.6-2.6,5.19-5.21,7.8-7.8,1.74-1.72,2.83-1.73,4.54,0q5.34,5.31,10.63,10.63c1.36,1.37,1.55,2.78.55,3.81s-2.48.88-3.91-.55l-6.88-6.92a2.93,2.93,0,0,0-.34,2.06q0,75.42,0,150.84c0,.39,0,.79,0,1.17a2.29,2.29,0,1,1-4.58.08c0-.45,0-.89,0-1.34V108.45Z"/><path class="cls-30" d="M326.19,135.29c-2.5,2.53-4.68,4.74-6.87,6.94-1.65,1.66-3.08,1.92-4.16.77s-.72-2.57.76-4.05q5.19-5.2,10.39-10.4c1.65-1.65,2.8-1.68,4.41-.08q5.38,5.35,10.75,10.74c1.35,1.37,1.51,2.74.46,3.79s-2.37.93-3.76-.46c-1.93-1.92-3.85-3.87-5.79-5.78-.37-.36-.63-.92-1.3-1a3.3,3.3,0,0,0-.16,1.78q0,25.22,0,50.43a4,4,0,0,1-2,3.71c-9.67,6.56-19.27,13.2-28.92,19.77a2.6,2.6,0,0,0-1.22,2.48q0,23.72,0,47.43a3.27,3.27,0,0,1-.49,2.39,2.31,2.31,0,0,1-2.44.7,2.08,2.08,0,0,1-1.61-1.72,8.45,8.45,0,0,1,0-1.33c0-16.43,0-32.85,0-49.27a4,4,0,0,1,1.95-3.72c9.7-6.6,19.36-13.26,29.05-19.87a2,2,0,0,0,1.07-1.86q0-25.05,0-50.1C326.28,136.35,326.25,136.08,326.19,135.29Z"/><path class="cls-30" d="M216.93,135.77c-.38.48-.18,1.06-.18,1.58,0,16.31,0,32.62,0,48.92a2.53,2.53,0,0,0,1.26,2.44c9.56,6.5,19.06,13.09,28.64,19.58a4.41,4.41,0,0,1,2.17,4.11c-.07,16.31,0,32.62,0,48.93a7.36,7.36,0,0,1-.05,1.49,2.12,2.12,0,0,1-2.32,1.74,2.08,2.08,0,0,1-2.15-1.74,7.51,7.51,0,0,1-.06-1.5q0-23.62,0-47.25a2.88,2.88,0,0,0-1.42-2.72C233,204.73,223.32,198,213.58,191.4a3.48,3.48,0,0,1-1.48-3.29q0-25.22,0-50.43v-1.79c-.67-.24-.87.28-1.15.56-2.1,2.07-4.17,4.18-6.27,6.25-1.23,1.21-2.51,1.33-3.53.37s-1-2.43.23-3.67q5.52-5.58,11.09-11.1c1.34-1.33,2.61-1.34,3.93,0q5.64,5.58,11.22,11.22a2.54,2.54,0,0,1,.19,3.58,2.39,2.39,0,0,1-3.45-.18c-2.21-2.13-4.34-4.32-6.52-6.47C217.6,136.15,217.44,135.72,216.93,135.77Z"/></svg>