<svg xmlns="http://www.w3.org/2000/svg" xmlns:xlink="http://www.w3.org/1999/xlink" viewBox="0 0 250 250" width="250" height="250" class="lottie-anime" preserveAspectRatio="xMidYMid meet" style="width: 100%; height: 100%; transform: translate3d(0px, 0px, 0px); content-visibility: visible;"><defs><clipPath id="__lottie_element_131"><rect width="250" height="250" x="0" y="0"></rect></clipPath></defs><g clip-path="url(#__lottie_element_131)"><g transform="matrix(0.6000000238418579,0,0,0.6000000238418579,32.92779541015625,32.409786224365234)" opacity="1" style="display: block;"><g opacity="1" transform="matrix(1,0,0,1,153.01400756835938,153.01400756835938)"><path stroke-linecap="butt" stroke-linejoin="miter" fill-opacity="0" stroke-miterlimit="10" stroke="rgb(204,204,204)" stroke-opacity="1" stroke-width="2" d=" M-148.01400756835938,0 C-148.01400756835938,-81.74600219726562 -81.74600219726562,-148.01400756835938 0,-148.01400756835938 C81.74600219726562,-148.01400756835938 148.01400756835938,-81.74600219726562 148.01400756835938,0 C148.01400756835938,81.74600219726562 81.74600219726562,148.01400756835938 0,148.01400756835938 C-81.74600219726562,148.01400756835938 -148.01400756835938,81.74600219726562 -148.01400756835938,0z"></path></g></g><g transform="matrix(0.6000000238418579,0,0,0.6000000238418579,54.68799591064453,54.16999435424805)" opacity="1" style="display: block;"><g opacity="1" transform="matrix(1,0,0,1,116.74700164794922,116.74700164794922)"><path stroke-linecap="butt" stroke-linejoin="miter" fill-opacity="0" stroke-miterlimit="10" stroke="rgb(204,204,204)" stroke-opacity="1" stroke-width="2" d=" M-111.74700164794922,0 C-111.74700164794922,-61.715999603271484 -61.715999603271484,-111.74700164794922 0,-111.74700164794922 C61.715999603271484,-111.74700164794922 111.74700164794922,-61.715999603271484 111.74700164794922,0 C111.74700164794922,61.715999603271484 61.715999603271484,111.74700164794922 0,111.74700164794922 C-61.715999603271484,111.74700164794922 -111.74700164794922,61.715999603271484 -111.74700164794922,0z"></path></g></g><g transform="matrix(0.6000000238418579,0,0,0.6000000238418579,76.44819641113281,75.93019104003906)" opacity="1" style="display: block;"><g opacity="1" transform="matrix(1,0,0,1,80.4800033569336,80.4800033569336)"><path stroke-linecap="butt" stroke-linejoin="miter" fill-opacity="0" stroke-miterlimit="10" stroke="rgb(204,204,204)" stroke-opacity="1" stroke-width="2" d=" M-75.4800033569336,0 C-75.4800033569336,-41.68600082397461 -41.68600082397461,-75.4800033569336 0,-75.4800033569336 C41.68600082397461,-75.4800033569336 75.4800033569336,-41.68600082397461 75.4800033569336,0 C75.4800033569336,41.68600082397461 41.68600082397461,75.4800033569336 0,75.4800033569336 C-41.68600082397461,75.4800033569336 -75.4800033569336,41.68600082397461 -75.4800033569336,0z"></path></g></g><g transform="matrix(0.6000000238418579,0,0,0.6000000238418579,101.59480285644531,100.8302001953125)" opacity="1" style="display: block;"><g opacity="1" transform="matrix(1,0,0,1,38.569000244140625,38.569000244140625)"><path stroke-linecap="butt" stroke-linejoin="miter" fill-opacity="0" stroke-miterlimit="10" stroke="rgb(204,204,204)" stroke-opacity="1" stroke-width="2" d=" M-33.569000244140625,0 C-33.569000244140625,-18.540000915527344 -18.540000915527344,-33.569000244140625 0,-33.569000244140625 C18.540000915527344,-33.569000244140625 33.569000244140625,-18.540000915527344 33.569000244140625,0 C33.569000244140625,18.540000915527344 18.540000915527344,33.569000244140625 0,33.569000244140625 C-18.540000915527344,33.569000244140625 -33.569000244140625,18.540000915527344 -33.569000244140625,0z"></path></g></g><g transform="matrix(0.6000000238418579,0,0,0.6000000238418579,35.32719039916992,123.37159729003906)" opacity="1" style="display: block;"><g opacity="1" transform="matrix(1,0,0,1,0,0)"><path stroke-linecap="butt" stroke-linejoin="miter" fill-opacity="0" stroke-miterlimit="10" stroke="rgb(204,204,204)" stroke-opacity="1" stroke-width="2" d=" M224.49400329589844,1 C224.49400329589844,1 297.02801513671875,1 297.02801513671875,1"></path></g><g opacity="1" transform="matrix(1,0,0,1,0,0)"><path stroke-linecap="butt" stroke-linejoin="miter" fill-opacity="0" stroke-miterlimit="10" stroke="rgb(204,204,204)" stroke-opacity="1" stroke-width="2" d=" M73.53399658203125,1 C73.53399658203125,1 1,1 1,1"></path></g></g><g transform="matrix(0.6000000238418579,0,0,0.6000000238418579,51.68799591064453,51.16999435424805)" opacity="1" style="display: block;"><g opacity="1" transform="matrix(1,0,0,1,121.74700164794922,65.8740005493164)"><path stroke-linecap="butt" stroke-linejoin="miter" fill-opacity="0" stroke-miterlimit="10" stroke="rgb(69,255,222)" stroke-opacity="1" stroke-width="4" d="M0 0"></path></g></g><g transform="matrix(-0.5169719457626343,-0.304532527923584,0.304532527923584,-0.5169719457626343,128.92523193359375,167.9359130859375)" opacity="1" style="display: block;"><g opacity="1" transform="matrix(1,0,0,1,107.41000366210938,21.923999786376953)"><path stroke-linecap="butt" stroke-linejoin="miter" fill-opacity="0" stroke-miterlimit="10" stroke="rgb(69,177,255)" stroke-opacity="1" stroke-width="4" d=" M-35.986000061035156,19.076000213623047 C-35.986000061035156,19.076000213623047 34.236000061035156,-20.576000213623047 34.236000061035156,-20.576000213623047"></path></g><g opacity="1" transform="matrix(1,0,0,1,43.569000244140625,59.196998596191406)"><path stroke-linecap="butt" stroke-linejoin="miter" fill-opacity="0" stroke-miterlimit="10" stroke="rgb(69,177,255)" stroke-opacity="1" stroke-width="4" d=" M28.47100067138672,-17.792999267578125 C31.70199966430664,-12.633999824523926 33.569000244140625,-6.534999847412109 33.569000244140625,0 C33.569000244140625,18.540000915527344 18.540000915527344,33.569000244140625 0,33.569000244140625 C-18.540000915527344,33.569000244140625 -33.569000244140625,18.540000915527344 -33.569000244140625,0 C-33.569000244140625,0 -33.569000244140625,0 -33.569000244140625,0 C-33.569000244140625,-18.540000915527344 -18.540000915527344,-33.569000244140625 0,-33.569000244140625 C12.005000114440918,-33.569000244140625 22.53700065612793,-27.26799964904785 28.47100067138672,-17.792999267578125"></path></g></g></g></svg>