
<svg version="1.1" id="Layer_1" xmlns="http://www.w3.org/2000/svg" xmlns:xlink="http://www.w3.org/1999/xlink" x="0px" y="0px"
   viewBox="0 0 233.82 233.82" style="enable-background:new 0 0 233.82 233.82;" xml:space="preserve">
<defs>
 <style type="text/css">
  .st0{fill:none;stroke:#fff;stroke-miterlimit:10; stroke-width:3px;}
  .machine {
  width: 40vmin;
  stroke:#ff0; }


.large {
  -webkit-animation: counter-rotation 5s infinite linear;
     -moz-animation: counter-rotation 5s infinite linear;
	     -o-animation: counter-rotation 5s infinite linear;
        	animation: counter-rotation 5s infinite linear;
 transform-origin: center; }


@-webkit-keyframes counter-rotation {
    from {-webkit-transform: rotate(359deg);}
    to   {-webkit-transform: rotate(0deg);}
}
@-moz-keyframes counter-rotation {
    from {-moz-transform: rotate(359deg);}
    to   {-moz-transform: rotate(0deg);}
}
@-o-keyframes counter-rotation {
    from {-o-transform: rotate(359deg);}
    to   {-o-transform: rotate(0deg);}
}
@keyframes counter-rotation {
    from {transform: rotate(359deg);}
    to   {transform: rotate(0deg);}
}
 .st0{stroke:#fff; fill:transparent}
   
</style>
</defs>

<path class="st0 large" d="M88.1,32.02c-0.46-5.52-0.88-10.62-1.32-15.71c-0.66-7.59,2.89-12.28,10.26-13.4
  c7.94-1.21,16.05-2.68,23.95-2.11c3.77,0.27,7.35,4.84,10.74,7.78c0.87,0.75,1.17,2.81,0.92,4.11
  c-3.24,16.88,9.37,19.39,20.77,22.57c1.83,0.51,5.11-1.35,6.66-3.07c14.95-16.7,15.52-16.81,33.01-2.59
  c1.78,1.45,3.59,2.88,5.37,4.33c9.33,7.59,9.75,11.99,2.42,21.58c-3.07,4.03-8.49,8.69-8.01,12.46c0.81,6.44,5.23,12.52,8.6,18.48
  c0.65,1.16,3.47,1.53,5.27,1.49c3.14-0.07,6.25-0.9,9.4-1.13c9.5-0.71,13.94,2.7,15.31,12.17c0.94,6.53,1.48,13.13,1.91,19.72
  c0.56,8.49-2.99,14.15-11.46,13.68c-13.94-0.77-20.18,5.56-22.31,18.2c-0.32,1.92-1.35,3.72-2.18,5.92
  c3.8,3.13,7.63,6.12,11.29,9.32c7.19,6.29,7.71,12.07,1.83,19.32c-3.98,4.91-7.99,9.8-12.12,14.58c-6.34,7.33-10.83,7.82-18.42,2.21
  c-15.18-11.23-15.22-11.3-31.5-1.33c-1.47,0.9-2.61,3.45-2.67,5.28c-0.12,3.4,0.77,6.83,1.06,10.26
  c0.75,8.96-2.69,13.54-11.63,14.85c-7.1,1.03-14.26,1.71-21.42,2.23c-7.23,0.52-13.12-3.72-12.39-10.16
  c1.89-16.7-7.83-21.85-21.1-24.76c-0.82-0.18-1.58-0.65-3.24-1.36c-3.07,3.79-6.13,7.85-9.48,11.66c-5.98,6.8-11.65,7.42-18.76,1.96
  c-5.46-4.2-10.79-8.6-15.99-13.13c-6.13-5.33-7.61-11.84-1.36-17.05c12.78-10.64,8.42-20.89,1.51-31.65
  c-1.07-1.66-3.87-2.98-5.93-3.08c-3.68-0.17-7.39,0.83-11.11,1.13c-7.59,0.6-12.2-3.23-13.32-10.46
  c-1.18-7.65-1.61-15.42-2.19-23.15c-0.56-7.43,3.86-12.71,10.4-12.06c15.48,1.55,21.27-6.75,23.91-19.8
  c0.27-1.35,1.02-2.61,1.68-4.24c-4.44-3.82-8.84-7.47-13.07-11.31c-4.72-4.28-5.63-9.54-1.9-14.65c4.9-6.72,10.13-13.27,15.78-19.35
  c4.12-4.44,10.4-6.1,14.55-1.25c10.1,11.81,20.44,11.92,32.11,3.06C84.79,32.89,86.05,32.75,88.1,32.02z M70.9,116.56
  c-0.08,25.83,19.98,45.93,45.77,45.88c25.21-0.05,45.26-20.18,45.35-45.51c0.08-25.31-20-45.78-44.98-45.86
  C91.1,70.97,70.98,90.82,70.9,116.56z"/>

</svg>