
<svg version="1.1" id="Layer_1" xmlns="http://www.w3.org/2000/svg" xmlns:xlink="http://www.w3.org/1999/xlink" x="0px" y="0px"
   viewBox="0 0 514 215" style="enable-background:new 0 0 514 215;" xml:space="preserve">
<style type="text/css">
   path{stroke:#fff; fill:transparent; stroke-width:3px;}
</style>
<g>
  <path class="st0" d="M256,215c-8.96-1.71-18.28-2.39-26.79-5.37c-12.17-4.25-23.73-10.25-35.6-15.39
    c-23.34-10.1-46.69-20.17-70.1-30.1c-3-1.27-4.31-2.68-4.3-6.15c0.13-47.32,0.08-94.65,0.1-141.97c0-1.47,0.18-2.93,0.31-5.02
    c2.01,0,3.78,0,5.55,0c19.83,0,39.68,0.56,59.48-0.17c16.62-0.61,32.23,2.94,46.87,9.92c17.52,8.35,34.38,18.1,51.6,27.09
    c2.24,1.17,4.94,2.04,7.43,2.07c15.49,0.19,31-0.25,46.48,0.28c5.46,0.19,11.35,1.54,16.16,4.06c14.09,7.38,15.57,23.31,3.7,33.9
    c-10.79,9.62-23.73,14.11-37.85,14.74c-10.61,0.48-21.28-0.31-31.93-0.53c-0.5-0.01-1-0.08-1.49-0.11
    c-8.14-0.51-13.98,3.78-14.33,10.5c-0.33,6.41,4.83,11.89,12.75,11.77c13.63-0.21,27.29-0.96,40.86-2.25
    c6.88-0.65,13.83-2.33,20.35-4.66c17.22-6.14,29.65-17.58,35.53-35.23c1.93-5.8,5.47-9.16,10.96-11.8
    c22.63-10.85,45.07-22.09,67.51-33.34c20.9-10.48,48.21-0.89,53.22,22.91c0.06,0.3,0.34,0.56,0.52,0.85c0,3.33,0,6.67,0,10
    c-2.81,10.85-8.69,19.28-18.02,25.88c-42.95,30.36-87.57,57.91-134.47,81.73c-15.1,7.67-30.35,15.04-45.4,22.78
    c-15.15,7.79-31.31,11.74-48.1,13.61C263.33,215,259.67,215,256,215z"/>
  <g>
    <path d="M17.4,1.46L17.4,1.46c0.15,0,0.31,0,0.47,0c8.41,0.11,17.64,0.16,29.06,0.16c5.78,0,11.56-0.01,17.34-0.02
      c5.78-0.01,11.56-0.02,17.34-0.02c1.58,0,3.16,0,4.73,0c11.35,0.02,15.37,4,15.37,15.23c0.01,49.47,0.01,98.93,0,148.4
      c0,11.23-4.02,15.21-15.37,15.21l-1.66,0c-6.19,0-12.39-0.01-18.58-0.03c-6.2-0.01-12.39-0.03-18.59-0.03
      c-11.6,0-21.02,0.05-29.63,0.17c-0.16,0-0.31,0-0.47,0c-7.79,0-12.55-2.7-15.4-8.76V10.22C4.85,4.17,9.61,1.46,17.4,1.46
       M68.76,153.64l0.23,0c4.11-0.06,8.01-1.78,10.98-4.86c3-3.1,4.66-7.3,4.57-11.51c-0.17-8.27-7.44-15.25-15.87-15.25l-0.23,0
      c-4.2,0.07-8.12,1.78-11.04,4.83c-2.96,3.1-4.52,7.19-4.4,11.51C53.25,146.79,60.32,153.64,68.76,153.64 M17.4,0.46
      C9.82,0.46,4.26,2.89,1,10c0,54,0,108,0,162c3.26,7.11,8.82,9.54,16.4,9.54c0.16,0,0.32,0,0.48,0c9.87-0.13,19.74-0.17,29.62-0.17
      c12.39,0,24.78,0.06,37.17,0.06c0.55,0,1.11,0,1.66,0c11.83-0.01,16.37-4.5,16.37-16.21c0.01-49.47,0.01-98.93,0-148.4
      c0-11.73-4.49-16.22-16.37-16.23c-1.58,0-3.16,0-4.74,0c-11.56,0-23.12,0.05-34.67,0.05c-9.68,0-19.36-0.03-29.04-0.16
      C17.72,0.46,17.56,0.46,17.4,0.46L17.4,0.46z M68.76,152.64c-7.93,0-14.52-6.37-14.76-14.32c-0.25-8.3,6.25-15.18,14.45-15.31
      c0.07,0,0.15,0,0.22,0c7.83,0,14.71,6.57,14.87,14.27c0.17,8.18-6.52,15.24-14.57,15.35C68.9,152.64,68.83,152.64,68.76,152.64
      L68.76,152.64z"/>
  </g>
</g>
</svg>
