<svg version="1.1" id="Layer_1" xmlns="http://www.w3.org/2000/svg" xmlns:xlink="http://www.w3.org/1999/xlink" x="0px" y="0px"
	 viewBox="0 0 1080 906.9" style="enable-background:new 0 0 1080 906.9;" xml:space="preserve">

<defs>
 <style type="text/css">

  path{ stroke:#fff; fill:transparent; stroke-miterlimit:10; stroke-width:5px;}
  .yellow{stroke:#ff0;}

  .machine {
  width: 40vmin;
  stroke:#ff0; }


.large {
  -webkit-animation: counter-rotation 5s infinite linear;
     -moz-animation: counter-rotation 5s infinite linear;
	     -o-animation: counter-rotation 5s infinite linear;
        	animation: counter-rotation 5s infinite linear;
 transform-origin: center; }





@-webkit-keyframes counter-rotation {
    from {-webkit-transform: rotate(359deg);}
    to   {-webkit-transform: rotate(0deg);}
}
@-moz-keyframes counter-rotation {
    from {-moz-transform: rotate(359deg);}
    to   {-moz-transform: rotate(0deg);}
}
@-o-keyframes counter-rotation {
    from {-o-transform: rotate(359deg);}
    to   {-o-transform: rotate(0deg);}
}
@keyframes counter-rotation {
    from {transform: rotate(359deg);}
    to   {transform: rotate(0deg);}
}
 .st0{stroke:#fff; fill:transparent;}
 .st0.yellow{stroke:#ff0; fill:transparent; }

 .tr-1{ -webkit-animation: counter-left 1s infinite linear;
     -moz-animation: counter-left 1s infinite linear;
	     -o-animation: counter-left 1s infinite linear;
        	animation: counter-left 1s infinite linear;
        	
}

@keyframes counter-left {
    0%{transform: translateY(-22px);}
   50%  {transform: translateY(0px);}
    100%{transform: translateY(-22px);}
}

 .tr-2{ -webkit-animation: counter-right 1s infinite linear;
     -moz-animation: counter-right 1s infinite linear;
	     -o-animation: counter-right 1s infinite linear;
        	animation: counter-right 1s infinite linear;
        	
}

@keyframes counter-right {
    0%{transform: rotateY(18deg);}
   50%  {transform: rotateY(0deg);}
    100%{transform: rotateY(18deg);}
}

 .tr-3{ -webkit-animation: counter-top 1s infinite linear;
     -moz-animation: counter-top 1s infinite linear;
	     -o-animation: counter-top 1s infinite linear;
        	animation: counter-top 1s infinite linear;
        	
}

@keyframes counter-top {
    0%{transform: rotateX(18deg);}
   50%  {transform: rotateX(0deg);}
    100%{transform: rotateX(18deg);}
}
   
  <!-- transform: translateY(-22px); -->
</style>
</defs>

<path d="M606.9,573.9c-35.9,0-71.9,0-107.8,0c-4.7,0-10.4,1.2-10.7-6.3c-0.2-8.1,5.9-7.3,11-7.3c64.8-0.1,129.6-0.1,194.3,0
	c20.9,0,39.9-3,51.6-23.4c1.2-2.1,7.3-3.5,9.4-2.3c2.2,1.3,4.3,7.4,3.1,9.3c-4.8,7.3-9.6,16.1-16.7,20c-9.9,5.4-21.9,9.2-33.2,9.6
	C674.3,574.7,640.6,573.9,606.9,573.9z"/>
<path d="M403.6,573.9c-10.9,0-21.8,0.4-32.6-0.3c-3-0.2-5.8-3.8-8.7-5.9c2.9-2.5,5.7-7.2,8.6-7.2c22.1-0.6,44.2-0.5,66.3,0.1
	c2.8,0.1,5.4,4.3,8.1,6.6c-2.7,2.2-5.3,6.2-8.1,6.4C426.1,574.3,414.9,573.9,403.6,573.9z"/>
<path d="M291.7,857.4c-16.3,0-27.8-11.6-28.5-27.4c-0.8-17.5,11.3-29.7,28-30.8c14.7-1,31.7,15.4,30.3,29.4
	C319.9,844.6,310.2,858.1,291.7,857.4z M293.5,841.9c8,0.6,12.9-6.3,11.8-12.9c-0.9-5.3-7.7-12.4-13.1-13.6
	c-7-1.6-13.2,3.6-13.3,12.6C278.8,837.2,283.1,841.7,293.5,841.9z"/>
<path d="M249.4,794c-5-2.4-10.9-3.8-15-7.3c-22.4-18.8-44.2-38.3-66.8-56.9c-5.4-4.4-7.8-8.9-3.9-13.6c1.5-1.8,9.5-0.5,12.8,1.9
	c11.1,7.9,21.5,16.8,31.9,25.6c13,11,26.1,22.1,38.5,33.8c3.2,3,4.3,8.3,6.4,12.6C252,791.3,250.7,792.6,249.4,794z"/>
<g>
	<path class="tr-1" d="M873.1,0c2.2,7.6,5.9,15,6.5,22.7c2.9,36.6-4.2,71.2-22.1,103.6c-2.5,4.5-2.5,10.8-2.3,16.1c1.6,41-4.5,80.4-25,116.5
		c-15.2,26.7-34.4,49.4-66.3,56.3c-37.6,8.1-67.2-3.6-90.8-34c-23.4-30.1-36.4-64.4-38.5-102.7c-0.2-3.6-2.4-7.4-2-10.8
		c2.8-24.2-6.3-46.4-10.3-69.5c-7.9-45.5,10-80.4,61.1-91.3c23.5-5,46.9-2.4,70.3,2.9c35.4,8.1,70,2.9,103.7-9.8
		C862.6,0,867.9,0,873.1,0z M839.4,156c0-5.2-0.7-10.6,0.1-15.7c2-12.1-4.2-17.3-14.8-18.7c-24.1-3.2-48.2-7.1-72.4-8.8
		c-15.9-1.1-32.1,0.3-47.9,2.1c-16.7,2-33.3,5.6-49.8,9.2c-2.6,0.6-6.1,4.7-6.2,7.3c-1.8,41.1,1.8,81.3,22.3,118.1
		c11.1,20,24,39.5,46.5,47.1c42.9,14.7,67.3,0.1,90.5-31.4C831.3,233.3,840.5,195.9,839.4,156z M847.2,111.9
		c15.7-30,19.7-62.1,16.2-95.6c-10.4,2.5-20.6,5.3-30.9,7.2c-29.2,5.5-58.1,6.6-87.9,0.6c-20.2-4.1-42.6-5.1-62.7-0.9
		c-47.9,10-53.6,56-39,87.6C711.1,92,778.6,92.3,847.2,111.9z"/>
	<path class="yellow tr-1" d="M362.9,221.1c1.5-16.7,2.1-32.7,12.5-46.7c7.8-10.4,22.5-16.9,34.8-14c27.2,6.5,54.3,4.2,81.6,0.2
		c11.3-1.7,23.2-1.5,34.7-0.4c10.6,1,17.4,11.4,18.2,23c1.4,19.6-2.4,38.8-10.1,56.2c-8.6,19.4-9.7,39.7-12.6,59.9
		c-4.7,32.4-28.2,67.9-58.8,74.9c-25.4,5.8-50.9-4.6-67.2-27.9c-15.5-22-22.6-46.4-24.8-72.9C369.7,255.9,365.7,238.5,362.9,221.1z
		 M505.7,219.7c-14.2,7.3-24.7,14.6-36.4,18.4c-21.6,7.1-42.4,2.7-61.4-9.5c-9.4-6-13.6-3.1-16.5,6.7
		c-10.7,37.1-4.7,71.7,17.7,102.3c19,26,39.5,28.7,61.9,17.2c18-9.3,28-27,32.7-46.3c4-16.4,6.1-33.5,6.7-50.4
		C510.9,245.7,507.5,233.1,505.7,219.7z M522.2,221.5c1.1,0.2,2.3,0.3,3.4,0.5c1.1-12.6,2.7-25.2,3-37.9c0.1-2.9-4.3-8.1-7-8.4
		c-9.4-1-19.1-1.4-28.3,0.1c-28.4,4.7-56.5,6.6-85,0c-9.5-2.2-19.1,0.9-22.5,11.6c-3.2,9.9-4.9,20.2-7.2,30.3c0.9,0.5,1.8,1,2.8,1.5
		c8-11.5,18-12.2,29.2-6.5c6.2,3.2,12.1,7.4,18.7,9.5c21.6,6.8,41.6,3.1,59.1-11.7c14.3-12.1,27.7-7.2,31.9,8.4
		C520.4,219.9,521.5,220.6,522.2,221.5z"/>
	<path class="yellow tr-1" d="M273.6,467.9c0,0,7.6-3.1,13.8-4.4c0.8-5.9,1.1-13,1.1-13h0c-0.5-1.3-0.7-3.3-0.5-6c0.9-11.1,0.4-22.4,2.6-33.3
		c3.3-16.4,15.8-25.1,32.3-26.8c18.6-1.9,37.2-4.9,55.7-8.1c7.2-1.2,12.6-0.4,18,5.1c9.6,9.9,19.7,19.3,30.1,28.3
		c18.6,16,35.3,9.3,50.5-3.9c7.6-6.6,14.2-14.4,21-21.8c6.2-6.7,12.5-9.5,22.5-7.1c16.8,3.9,34.1,6.4,51.3,7.6
		c28.2,2,36.5,19.2,37.6,40.2c0.3,5.3,0.4,9.1,0.1,11.8l0,0l0,0.3c-0.1,0.4-0.1,0.8-0.2,1.2l-3.8,21c5,0,9.9,0,14.9,0l2.8-19.1
		c-0.1-7.3-0.4-13.8,0.1-20.1c2.4-28.3-21.9-48.5-48.6-50.8c-19.1-1.6-38.1-4.8-57-8c-9.9-1.6-18.1,0-25.2,7.3
		c-8.6,8.9-17.3,17.7-26.2,26.2c-13,12.3-21.9,12.2-34.9-0.3c-8.9-8.6-16.8-18.4-26.5-25.9c-6-4.5-14.8-8.2-22-7.6
		c-20.9,1.6-41.7,5.2-62.4,8.5c-22.5,3.6-38.4,13.2-44.7,36.7c-2.8,10.5-2.3,22.5-1,33.5C274.9,441,273.5,466.4,273.6,467.9z"/>
	<g>
		<path class="tr-1" d="M562,343.1c8.4,0,16.7-2.2,25.1-3.4c18.7-2.6,37.5-4.3,56-7.9c10.6-2,18.7-0.3,26.2,7.4c13.4,13.9,26.4,28.4,41.1,40.8
			c24.1,20.3,37.2,21.5,57.5,7.1c15.8-11.2,29.3-26,43.1-39.9c8.2-8.2,15.8-18.8,28.6-16c23.6,5.1,46.8,12.2,71.9,19l15.1-14.4
			c-2.2,0.9-4.7,1.1-8.3,0c-23.9-7.1-48.5-12.1-72.5-18.9c-12.4-3.5-22.9-1.4-31.7,6.9c-14.4,13.5-27.4,28.6-42.2,41.6
			c-17.5,15.4-28,23.7-50.7,3.3c-14.6-13.1-27.9-27.8-41.9-41.6c-8.9-8.7-19.8-13.5-32.2-11.8c-29.5,4-58.9,9-88.5,13.1
			c-6.3,0.8-11.4,2.3-8.9,8.8C551,340.4,557.7,343.1,562,343.1z"/>
	</g>
</g>
<g>
	<path d="M1078.1,346.4c-5.6-45.3-63.3-81.3-112.9-47.1c-16.4,11.3-29.8,27-44.1,41.2l0,0l-0.6,0.5c-0.9,0.9-1.8,1.8-2.6,2.6
		c-0.9,0.8-1.7,1.6-2.5,2.2l-24.7,23.1h0c-43,41.9-85,82.8-127.3,124.1c-2-3.3-3.6-5.7-5-8.3c-10.8-20-27.9-29.7-50.4-30
		c-14.2-0.2-28.5,0-42.7,0c-18.2,0-36.5,0-55.5,0l0,0l-42.9,0l0,0c-36.6,0-73.3,0-109.9,0c-38.2,0-76.5-0.9-114.7,0.4
		c-18.2,0.6-36.3,4.6-54.2,8.3l0,0c0,0,0,0-0.1,0c-0.8,0.2-1.5,0.3-2.3,0.5c-0.8,0.2-1.6,0.3-2.4,0.4c-9.8,2.3-19.2,6.6-26.6,10.7
		c-3,3.9-7.4,7-13.9,9.2c-1.7,0.6-3.1,2-4.5,3.3c-35.2,32.2-70.6,64.3-105.6,96.8c-5.7,5.3-9.1,6.8-15.5,0.5
		c-15-14.7-41.8-21.3-62.3-8.9c-23,13.9-45.3,29.3-55,56.5c0,3.8,0,7.5,0,11.2C4.6,664.2,22.4,674,35.9,687
		c15.5,14.9,32.5,28.2,48.6,42.4c31.5,27.7,63,55.4,94.4,83.2c23,20.5,45.5,41.6,68.9,61.7c13.5,11.6,28.3,21.8,42.5,32.7
		c6,0,12,0,18,0c16.9-6.9,28.7-20.3,40.8-33.1c16-17,25-36.9,17.3-60.4c-2.6-7.8,0.6-10.4,5.6-13.8c38.4-26.4,81-37.5,127.3-36.8
		c37.8,0.6,75.7-0.8,113.5,0.4c43.2,1.3,84.5-4.9,124.1-22.6c34.7-15.5,64.5-37.6,89.8-65.5c25.4-28,49.7-57.2,74.7-85.6
		c19.1-21.8,38.8-43.1,57.9-64.9c25-28.5,49.6-57.3,74.6-85.7c18.1-20.6,38.9-39.3,46-67.4c0-7.5,0-15,0-22.5
		C1079.3,348.1,1078.2,347.3,1078.1,346.4z M346.4,851.4c-9.4,11.9-19.9,23.2-31.1,33.5c-10.6,9.7-23,8.4-34-1.4
		c-29.1-26.1-58.1-52.3-87.2-78.2c-39.4-35.1-79-70.1-118.6-105c-15.9-14-32.1-27.5-48-41.4c-15.4-13.5-16.3-26.6-0.9-40.2
		c13.1-11.6,23.7-26.4,42.1-31.7c13.7-4,25.5-0.7,35.3,7.2c23.4,18.9,45.6,39.2,68.4,58.8c31,26.6,62.1,53,93,79.7
		c19.2,16.5,38,33.4,57,50.1c5.8,5.1,11.9,10.1,17.6,15.4c9.2,8.5,13,19.4,13.6,35.9C352.2,837.5,350.9,845.7,346.4,851.4z
		 M1054.8,390.3c-13,17.6-28.2,33.5-42.6,50c-25.9,29.7-51.9,59.3-77.8,89c-16.7,19-33.3,38.1-50.2,56.9
		c-29.1,32.4-56.9,66.2-88.1,96.5c-35.7,34.6-79.6,55.4-129.3,62.2c-64,8.8-128.5,3.4-192.7,4.3c-35.5,0.5-67.5,11-97.2,29.5
		c-21.8,13.6-20.9,13.5-39.6-3.3c-26.5-23.8-53.9-46.5-80.8-69.9c-19.4-16.8-38.4-34-57.7-50.8c-20.4-17.8-41-35.3-62.1-53.5
		c16.5-15.4,32-30.4,48.2-44.6c25.4-22.2,50.4-45.1,77.2-65.4c19.7-14.9,44.2-20.5,68.7-20.6c125.6-0.5,251.2,0,376.8-0.5
		c19-0.1,37.3,14.5,41.6,33.3c0.9,3.9,2.2,7.7,3.8,13.3c4.6-1.8,8.7-2.9,12.2-5c4.1-2.5,7.9-5.7,11.3-9.1
		c46.3-45.4,92.3-91,138.7-136.2c19.5-19,38.9-38.3,60.2-55.2c20.9-16.5,52.2-12.1,71.8,7.1C1066.6,337.2,1070.7,368.8,1054.8,390.3
		z"/>
</g>
</svg>
