<?xml version="1.0" encoding="utf-8"?>
<!-- Generator: Adobe Illustrator 26.3.1, SVG Export Plug-In . SVG Version: 6.00 Build 0)  -->
<svg version="1.1" id="Layer_1" xmlns="http://www.w3.org/2000/svg" xmlns:xlink="http://www.w3.org/1999/xlink" x="0px" y="0px"
	 viewBox="0 0 543 490" style="enable-background:new 0 0 543 490;" xml:space="preserve">
<style type="text/css">
	.st0{fill:url(#SVGID_1_);}
	.st1{fill:#2A2A8C;}
	.st2{fill:url(#SVGID_00000087395145995118778780000001920609931507555483_);}
	.st3{opacity:0.9;fill:url(#SVGID_00000015356801440535066130000009015996970857488272_);enable-background:new    ;}
	.st4{fill:url(#SVGID_00000116938866675607026930000001097294656006951590_);}
	.st5{fill:url(#SVGID_00000016778273876046457020000005529847633969940919_);}
	.st6{fill:url(#SVGID_00000119111981664443796430000003055900324908986013_);}
	.st7{fill:url(#SVGID_00000072997681356597819820000018391670289308325789_);}
	.st8{fill:url(#SVGID_00000111882200495175671330000001250730711517735586_);}
	.st9{fill:url(#SVGID_00000132077315886078480410000009620386224124552637_);}
	.st10{fill:url(#SVGID_00000082330649595530634020000012174773063815568300_);}
	.st11{fill:url(#SVGID_00000130606774938766407280000012987740784268172469_);fill-opacity:0.2;}
	.st12{fill:url(#SVGID_00000015352232306159915380000001893176640421950853_);fill-opacity:0.2;}
	.st13{fill:url(#SVGID_00000029753137258939040760000006545812588608915643_);fill-opacity:0.2;}
	.st14{fill:url(#SVGID_00000029732402579769818940000000125826524364333194_);fill-opacity:0.2;}
	.st15{fill:url(#SVGID_00000019666644208553469720000004007743067216431756_);}
	.st16{fill:url(#SVGID_00000114075205977173474080000017124590181658758843_);}
	.st17{fill:url(#SVGID_00000106866970754435850750000004413685085564642454_);fill-opacity:0.2;}
	.st18{fill:url(#SVGID_00000071532732746196206630000002079797948337192123_);fill-opacity:0.2;}
	.st19{fill:url(#SVGID_00000079478973746445677010000016308771203247799957_);fill-opacity:0.2;}
	.st20{fill:url(#SVGID_00000014616763230716391190000004694229413014375103_);fill-opacity:0.2;}
	.st21{fill:url(#SVGID_00000047045751382533312860000003501409230509000881_);fill-opacity:0.2;}
	.st22{fill:url(#SVGID_00000116210584457249468610000010891254384024505518_);fill-opacity:0.2;}
	.st23{fill:url(#SVGID_00000116229239794781615340000002960830282742330542_);}
	.st24{fill:url(#SVGID_00000029749701023031881030000015984456168689949836_);}
	.st25{fill:url(#SVGID_00000070815186571633038790000007511526203387224448_);}
	.st26{fill:url(#SVGID_00000048470621550326705900000017261064486638563504_);}
	.st27{fill:url(#SVGID_00000165916002366959831610000004951580080893876376_);fill-opacity:0.2;}
	.st28{fill:url(#SVGID_00000078741478543549617750000011036426497133867671_);fill-opacity:0.2;}
	.st29{fill:none;stroke:#39FFFF;stroke-width:2;}
</style>
<linearGradient id="SVGID_1_" gradientUnits="userSpaceOnUse" x1="0.2111" y1="354.8853" x2="100.8981" y2="354.8853" gradientTransform="matrix(1 0 0 -1 0 492)">
	<stop  offset="4.381444e-02" style="stop-color:#3A3ADB"/>
	<stop  offset="0.9948" style="stop-color:#2A2A8C"/>
</linearGradient>
<path class="st0" d="M89.5,126.5C79,109.2,68,97.8,50.6,89.7c-17.4-8.2-39.1-8.2-48,11.2c-9,19.5,8.6,43.5,33.2,44.9
	c28.3,1.5,43.4,14.6,45,34c1,12.1,14.5,12.5,17.3,4.6C103.3,170,101.7,146.7,89.5,126.5z"/>
<path class="st1" d="M311.5,26.9C194.9-92.8,68.2,219.8,35.7,320.8C3.1,421.8,140.6,438.1,233,456.2c147.6,28.8,215.2-27,226.7-94.2
	C471.1,294.8,428.1,146.7,311.5,26.9z"/>
<linearGradient id="SVGID_00000009559415518580525740000017919845039486469030_" gradientUnits="userSpaceOnUse" x1="50.4489" y1="270.3881" x2="542.3303" y2="270.3881" gradientTransform="matrix(1 0 0 -1 0 492)">
	<stop  offset="4.381444e-02" style="stop-color:#3A3ADB"/>
	<stop  offset="0.7732" style="stop-color:#2A2A8C"/>
</linearGradient>
<path style="fill:url(#SVGID_00000009559415518580525740000017919845039486469030_);" d="M386.9,175.8
	C325,186.6,282.7,128,254.2,91.9c-22.4-28.4-116.5-75.1-175,8.7c-53,76-31.1,189.1,52.3,246.4s210.5,52,289.4,16.5
	c49.9-22.4,112.9-64.1,120.7-123.3C550.2,175.4,481.9,159.3,386.9,175.8z"/>
<linearGradient id="SVGID_00000157294687990989300030000017252246942874208191_" gradientUnits="userSpaceOnUse" x1="0.1615" y1="212.75" x2="446.9726" y2="212.75" gradientTransform="matrix(1 0 0 -1 0 492)">
	<stop  offset="4.381444e-02" style="stop-color:#3A3ADB"/>
	<stop  offset="0.9948" style="stop-color:#2A47C9"/>
</linearGradient>
<path style="opacity:0.9;fill:url(#SVGID_00000157294687990989300030000017252246942874208191_);enable-background:new    ;" d="
	M397.7,68.5c-2.5-0.1-5-0.1-7.6-0.1c-41.1,0-92.8,10.3-129.7,22.4c-1.8,0.6-3.6,1.2-5.4,1.8c1.1,1.4,2.3,2.9,3.5,4.4
	c1.3-0.4,2.5-0.8,3.8-1.3c41-13.5,91.2-22.1,127.9-22.1c2.5,0,5,0,7.4,0.1c17.3,0.6,30.3,6.3,37.5,16.5c8.6,12.2,8.6,30.8-0.1,52.2
	c-3.9,9.7-7.2,18.9-9.9,28c-11,36.6-13.6,72.1-14.2,134.2c-0.1,14.2,0,27.3,0.1,40c0.1,8,0.1,15.5,0.1,22.8c0,44.1-2.7,74.5-23,94.1
	c-15.8,15.2-34.3,23.3-53.6,23.3c-21.2,0-42.9-9.5-64.3-28.3C222.8,415,164,386,104.6,374.7c-45.6-8.7-81.4-17-93.8-36.9
	c-6.7-10.9-6.7-25.6,0-45c6.3-18.1,18.4-43.1,41.9-70.5c-0.4-2.4-0.7-4.8-1-7.1c-23.6,26.5-38.1,52.7-46.2,76
	c-21.7,62.6,25.1,74.8,97.9,88.7c58.6,11.2,115.8,39.3,162.8,80.5c24,21,47.1,29.7,68.1,29.7c22.1,0,41.8-9.7,57.6-24.9
	c22.1-21.4,24.6-53.8,24.6-100.1c0-18-0.4-38.1-0.2-60.4c0.6-64.3,3.4-98.8,14.5-134.7c2.6-8.3,5.7-16.8,9.2-25.6
	C458.1,99.7,439.9,69.9,397.7,68.5z"/>
<linearGradient id="SVGID_00000057834471329480144570000004346230091775479464_" gradientUnits="userSpaceOnUse" x1="340.9328" y1="144.432" x2="474.867" y2="144.432" gradientTransform="matrix(1 0 0 -1 0 492)">
	<stop  offset="4.381444e-02" style="stop-color:#3A3ADB"/>
	<stop  offset="0.9948" style="stop-color:#2A2A8C"/>
</linearGradient>
<path style="fill:url(#SVGID_00000057834471329480144570000004346230091775479464_);" d="M459.8,308.7
	c-35.5-38.4-76.5-14-105.7,29.4c-27.1,40.3-10.6,87.6,33.3,58.4c38.3-25.4,61.6-18,78.7-35.1C489,338.7,459.8,308.7,459.8,308.7z"/>
<linearGradient id="SVGID_00000013871375952075955390000002362354496483367837_" gradientUnits="userSpaceOnUse" x1="71.3" y1="449.65" x2="73.9" y2="449.65" gradientTransform="matrix(1 0 0 -1 0 492)">
	<stop  offset="4.381444e-02" style="stop-color:#3A3ADB"/>
	<stop  offset="0.9948" style="stop-color:#2A2A8C"/>
</linearGradient>
<path style="fill:url(#SVGID_00000013871375952075955390000002362354496483367837_);" d="M72.6,47.7c-0.7,0-1.3-0.6-1.3-1.3v-8.1
	c0-0.7,0.6-1.3,1.3-1.3s1.3,0.6,1.3,1.3v8.1C73.9,47,73.3,47.7,72.6,47.7z"/>
<linearGradient id="SVGID_00000148638568623473444380000014829726771165510542_" gradientUnits="userSpaceOnUse" x1="71.3" y1="470.35" x2="73.9" y2="470.35" gradientTransform="matrix(1 0 0 -1 0 492)">
	<stop  offset="4.381444e-02" style="stop-color:#3A3ADB"/>
	<stop  offset="0.9948" style="stop-color:#2A2A8C"/>
</linearGradient>
<path style="fill:url(#SVGID_00000148638568623473444380000014829726771165510542_);" d="M72.6,27c-0.7,0-1.3-0.6-1.3-1.3v-8.1
	c0-0.7,0.6-1.3,1.3-1.3s1.3,0.6,1.3,1.3v8.1C73.9,26.4,73.3,27,72.6,27z"/>
<linearGradient id="SVGID_00000062899216453265948410000018221462834772148636_" gradientUnits="userSpaceOnUse" x1="77.4961" y1="454.7" x2="87.4039" y2="454.7" gradientTransform="matrix(1 0 0 -1 0 492)">
	<stop  offset="4.381444e-02" style="stop-color:#3A3ADB"/>
	<stop  offset="0.9948" style="stop-color:#2A2A8C"/>
</linearGradient>
<path style="fill:url(#SVGID_00000062899216453265948410000018221462834772148636_);" d="M85.3,40.3l-7.1-3.8
	c-0.7-0.3-0.9-1.1-0.5-1.7c0.4-0.6,1.2-0.8,1.9-0.5l7.1,3.8c0.7,0.3,0.9,1.1,0.5,1.7S86,40.6,85.3,40.3z"/>
<linearGradient id="SVGID_00000114779473737843497750000008451957256121703606_" gradientUnits="userSpaceOnUse" x1="57.7961" y1="465.5" x2="67.7039" y2="465.5" gradientTransform="matrix(1 0 0 -1 0 492)">
	<stop  offset="4.381444e-02" style="stop-color:#3A3ADB"/>
	<stop  offset="0.9948" style="stop-color:#2A2A8C"/>
</linearGradient>
<path style="fill:url(#SVGID_00000114779473737843497750000008451957256121703606_);" d="M65.6,29.5l-7.1-3.8
	c-0.7-0.3-0.9-1.1-0.5-1.7s1.2-0.8,1.9-0.5l7.1,3.8c0.7,0.3,0.9,1.1,0.5,1.7S66.2,29.8,65.6,29.5z"/>
<linearGradient id="SVGID_00000105403931654294575420000016151416074442739087_" gradientUnits="userSpaceOnUse" x1="57.6961" y1="454.7" x2="67.6039" y2="454.7" gradientTransform="matrix(1 0 0 -1 0 492)">
	<stop  offset="4.381444e-02" style="stop-color:#3A3ADB"/>
	<stop  offset="0.9948" style="stop-color:#2A2A8C"/>
</linearGradient>
<path style="fill:url(#SVGID_00000105403931654294575420000016151416074442739087_);" d="M57.9,39.8c-0.4-0.6-0.2-1.4,0.5-1.7
	l7.1-3.8c0.7-0.3,1.5-0.1,1.9,0.5s0.2,1.4-0.5,1.7l-7.1,3.8C59.1,40.6,58.3,40.4,57.9,39.8z"/>
<linearGradient id="SVGID_00000090291656562199318110000003129299508134581396_" gradientUnits="userSpaceOnUse" x1="77.4961" y1="465.5" x2="87.4039" y2="465.5" gradientTransform="matrix(1 0 0 -1 0 492)">
	<stop  offset="4.381444e-02" style="stop-color:#3A3ADB"/>
	<stop  offset="0.9948" style="stop-color:#2A2A8C"/>
</linearGradient>
<path style="fill:url(#SVGID_00000090291656562199318110000003129299508134581396_);" d="M77.7,29c-0.4-0.6-0.2-1.4,0.5-1.7l7.1-3.8
	c0.7-0.3,1.5-0.1,1.9,0.5s0.2,1.4-0.5,1.7l-7.1,3.8C78.9,29.8,78.1,29.6,77.7,29z"/>
<linearGradient id="SVGID_00000085931538028653364370000012255550428794309790_" gradientUnits="userSpaceOnUse" x1="208.8" y1="418.25" x2="211.4109" y2="418.25" gradientTransform="matrix(1 0 0 -1 0 492)">
	<stop  offset="4.381444e-02" style="stop-color:#3A3ADB"/>
	<stop  offset="0.9948" style="stop-color:#2A2A8C"/>
</linearGradient>
<path style="fill:url(#SVGID_00000085931538028653364370000012255550428794309790_);fill-opacity:0.2;" d="M210.1,79.1
	c-0.7,0-1.3-0.6-1.3-1.3v-8.1c0-0.7,0.6-1.3,1.3-1.3s1.3,0.6,1.3,1.3v8.1C211.5,78.5,210.9,79.1,210.1,79.1z"/>
<linearGradient id="SVGID_00000021842017440509173190000017797881919396939946_" gradientUnits="userSpaceOnUse" x1="208.8" y1="438.95" x2="211.4109" y2="438.95" gradientTransform="matrix(1 0 0 -1 0 492)">
	<stop  offset="4.381444e-02" style="stop-color:#3A3ADB"/>
	<stop  offset="0.9948" style="stop-color:#2A2A8C"/>
</linearGradient>
<path style="fill:url(#SVGID_00000021842017440509173190000017797881919396939946_);fill-opacity:0.2;" d="M210.1,58.4
	c-0.7,0-1.3-0.6-1.3-1.3V49c0-0.7,0.6-1.3,1.3-1.3s1.3,0.6,1.3,1.3v8.1C211.5,57.8,210.9,58.4,210.1,58.4z"/>
<linearGradient id="SVGID_00000034076346433108156130000014816969473221821059_" gradientUnits="userSpaceOnUse" x1="193.5" y1="428.6" x2="204.2109" y2="428.6" gradientTransform="matrix(1 0 0 -1 0 492)">
	<stop  offset="4.381444e-02" style="stop-color:#3A3ADB"/>
	<stop  offset="0.9948" style="stop-color:#2A2A8C"/>
</linearGradient>
<path style="fill:url(#SVGID_00000034076346433108156130000014816969473221821059_);fill-opacity:0.2;" d="M202.9,64.7h-8.1
	c-0.7,0-1.3-0.6-1.3-1.3s0.6-1.3,1.3-1.3h8.1c0.7,0,1.3,0.6,1.3,1.3C204.3,64.1,203.7,64.7,202.9,64.7z"/>
<linearGradient id="SVGID_00000010997837106734549430000016652345984371944379_" gradientUnits="userSpaceOnUse" x1="216" y1="428.6" x2="226.7109" y2="428.6" gradientTransform="matrix(1 0 0 -1 0 492)">
	<stop  offset="4.381444e-02" style="stop-color:#3A3ADB"/>
	<stop  offset="0.9948" style="stop-color:#2A2A8C"/>
</linearGradient>
<path style="fill:url(#SVGID_00000010997837106734549430000016652345984371944379_);fill-opacity:0.2;" d="M225.4,64.7h-8.1
	c-0.7,0-1.3-0.6-1.3-1.3s0.6-1.3,1.3-1.3h8.1c0.7,0,1.3,0.6,1.3,1.3C226.8,64.1,226.2,64.7,225.4,64.7z"/>
<linearGradient id="SVGID_00000029744001581769025890000006759859293083890825_" gradientUnits="userSpaceOnUse" x1="55.912" y1="70.726" x2="90.051" y2="70.726" gradientTransform="matrix(1 0 0 -1 0 492)">
	<stop  offset="4.381444e-02" style="stop-color:#3A3ADB"/>
	<stop  offset="0.9948" style="stop-color:#2A2A8C"/>
</linearGradient>
<path style="fill:url(#SVGID_00000029744001581769025890000006759859293083890825_);" d="M73,428c-7.7,0-14.5-4.7-17-11.7
	c-0.3-0.7,0.2-1.6,1-1.7c0.7-0.2,1.4,0.2,1.6,0.8c2.1,5.9,7.9,9.9,14.4,9.9s12.3-4,14.4-9.9c0.2-0.6,1-1,1.6-0.8
	c0.8,0.2,1.2,1,1,1.7C87.5,423.2,80.7,428,73,428z"/>
<linearGradient id="SVGID_00000158021515504741484750000012321779150872835768_" gradientUnits="userSpaceOnUse" x1="56.049" y1="91.474" x2="90.1444" y2="91.474" gradientTransform="matrix(1 0 0 -1 0 492)">
	<stop  offset="4.381444e-02" style="stop-color:#3A3ADB"/>
	<stop  offset="0.9948" style="stop-color:#2A2A8C"/>
</linearGradient>
<path style="fill:url(#SVGID_00000158021515504741484750000012321779150872835768_);" d="M89.1,407.2c-0.7,0.2-1.4-0.2-1.6-0.8
	c-2.1-5.9-7.9-9.9-14.4-9.9s-12.3,4-14.4,9.9c-0.2,0.6-1,1-1.6,0.8c-0.8-0.2-1.2-1-1-1.7c2.5-7,9.3-11.7,17-11.7s14.5,4.7,17,11.7
	C90.3,406.2,89.8,407,89.1,407.2z"/>
<linearGradient id="SVGID_00000166647570948895458250000007554160143844469396_" gradientUnits="userSpaceOnUse" x1="345.5" y1="213.25" x2="348.1" y2="213.25" gradientTransform="matrix(1 0 0 -1 0 492)">
	<stop  offset="4.381444e-02" style="stop-color:#3A3ADB"/>
	<stop  offset="0.9948" style="stop-color:#2A47C9"/>
</linearGradient>
<path style="fill:url(#SVGID_00000166647570948895458250000007554160143844469396_);fill-opacity:0.2;" d="M346.8,284.1
	c-0.7,0-1.3-0.6-1.3-1.3v-8.1c0-0.7,0.6-1.3,1.3-1.3s1.3,0.6,1.3,1.3v8.1C348.1,283.5,347.5,284.1,346.8,284.1z"/>
<linearGradient id="SVGID_00000104670244135192726740000000778162667644229533_" gradientUnits="userSpaceOnUse" x1="345.5" y1="233.95" x2="348.1" y2="233.95" gradientTransform="matrix(1 0 0 -1 0 492)">
	<stop  offset="4.381444e-02" style="stop-color:#3A3ADB"/>
	<stop  offset="0.9948" style="stop-color:#2A47C9"/>
</linearGradient>
<path style="fill:url(#SVGID_00000104670244135192726740000000778162667644229533_);fill-opacity:0.2;" d="M346.8,263.4
	c-0.7,0-1.3-0.6-1.3-1.3V254c0-0.7,0.6-1.3,1.3-1.3s1.3,0.6,1.3,1.3v8.1C348.1,262.8,347.5,263.4,346.8,263.4z"/>
<linearGradient id="SVGID_00000072990969440463747990000012680477171989460666_" gradientUnits="userSpaceOnUse" x1="351.7961" y1="218.2" x2="361.7039" y2="218.2" gradientTransform="matrix(1 0 0 -1 0 492)">
	<stop  offset="4.381444e-02" style="stop-color:#3A3ADB"/>
	<stop  offset="0.9948" style="stop-color:#2A47C9"/>
</linearGradient>
<path style="fill:url(#SVGID_00000072990969440463747990000012680477171989460666_);fill-opacity:0.2;" d="M359.6,276.8l-7.1-3.8
	c-0.7-0.3-0.9-1.1-0.5-1.7s1.2-0.8,1.9-0.5l7.1,3.8c0.7,0.3,0.9,1.1,0.5,1.7S360.2,277.1,359.6,276.8z"/>
<linearGradient id="SVGID_00000105412106098248022740000006650605280155095194_" gradientUnits="userSpaceOnUse" x1="331.9961" y1="229" x2="341.9038" y2="229" gradientTransform="matrix(1 0 0 -1 0 492)">
	<stop  offset="4.381444e-02" style="stop-color:#3A3ADB"/>
	<stop  offset="0.9948" style="stop-color:#2A47C9"/>
</linearGradient>
<path style="fill:url(#SVGID_00000105412106098248022740000006650605280155095194_);fill-opacity:0.2;" d="M339.8,266l-7.1-3.8
	c-0.7-0.3-0.9-1.1-0.5-1.7s1.2-0.8,1.9-0.5l7.1,3.8c0.7,0.3,0.9,1.1,0.5,1.7S340.4,266.3,339.8,266z"/>
<linearGradient id="SVGID_00000023987891435484267160000000534409845256884115_" gradientUnits="userSpaceOnUse" x1="331.8961" y1="218.2" x2="341.8039" y2="218.2" gradientTransform="matrix(1 0 0 -1 0 492)">
	<stop  offset="4.381444e-02" style="stop-color:#3A3ADB"/>
	<stop  offset="0.9948" style="stop-color:#2A47C9"/>
</linearGradient>
<path style="fill:url(#SVGID_00000023987891435484267160000000534409845256884115_);fill-opacity:0.2;" d="M332.1,276.3
	c-0.4-0.6-0.2-1.4,0.5-1.7l7.1-3.8c0.7-0.3,1.5-0.1,1.9,0.5s0.2,1.4-0.5,1.7l-7.1,3.8C333.4,277.1,332.5,276.9,332.1,276.3z"/>
<linearGradient id="SVGID_00000127043108261269381790000009126296195731620232_" gradientUnits="userSpaceOnUse" x1="351.6961" y1="229" x2="361.6039" y2="229" gradientTransform="matrix(1 0 0 -1 0 492)">
	<stop  offset="4.381444e-02" style="stop-color:#3A3ADB"/>
	<stop  offset="0.9948" style="stop-color:#2A47C9"/>
</linearGradient>
<path style="fill:url(#SVGID_00000127043108261269381790000009126296195731620232_);fill-opacity:0.2;" d="M351.9,265.5
	c-0.4-0.6-0.2-1.4,0.5-1.7l7.1-3.8c0.7-0.3,1.5-0.1,1.9,0.5s0.2,1.4-0.5,1.7l-7.1,3.8C353.1,266.3,352.3,266.1,351.9,265.5z"/>
<linearGradient id="SVGID_00000112633324359963930410000008447083788041459888_" gradientUnits="userSpaceOnUse" x1="474.1" y1="81.05" x2="476.7" y2="81.05" gradientTransform="matrix(1 0 0 -1 0 492)">
	<stop  offset="4.381444e-02" style="stop-color:#3A3ADB"/>
	<stop  offset="0.9948" style="stop-color:#2A2A8C"/>
</linearGradient>
<path style="fill:url(#SVGID_00000112633324359963930410000008447083788041459888_);" d="M475.4,416.3c-0.7,0-1.3-0.6-1.3-1.3v-8.1
	c0-0.7,0.6-1.3,1.3-1.3c0.7,0,1.3,0.6,1.3,1.3v8.1C476.7,415.7,476.1,416.3,475.4,416.3z"/>
<linearGradient id="SVGID_00000036228687153150725000000011286760908220408194_" gradientUnits="userSpaceOnUse" x1="474.1" y1="101.75" x2="476.7" y2="101.75" gradientTransform="matrix(1 0 0 -1 0 492)">
	<stop  offset="4.381444e-02" style="stop-color:#3A3ADB"/>
	<stop  offset="0.9948" style="stop-color:#2A2A8C"/>
</linearGradient>
<path style="fill:url(#SVGID_00000036228687153150725000000011286760908220408194_);" d="M475.4,395.6c-0.7,0-1.3-0.6-1.3-1.3v-8.1
	c0-0.7,0.6-1.3,1.3-1.3c0.7,0,1.3,0.6,1.3,1.3v8.1C476.7,395,476.1,395.6,475.4,395.6z"/>
<linearGradient id="SVGID_00000161626372738625999540000003317083660641219744_" gradientUnits="userSpaceOnUse" x1="458.8" y1="91.4" x2="469.5" y2="91.4" gradientTransform="matrix(1 0 0 -1 0 492)">
	<stop  offset="4.381444e-02" style="stop-color:#3A3ADB"/>
	<stop  offset="0.9948" style="stop-color:#2A2A8C"/>
</linearGradient>
<path style="fill:url(#SVGID_00000161626372738625999540000003317083660641219744_);" d="M468.2,401.9h-8.1c-0.7,0-1.3-0.6-1.3-1.3
	c0-0.7,0.6-1.3,1.3-1.3h8.1c0.7,0,1.3,0.6,1.3,1.3S468.9,401.9,468.2,401.9z"/>
<linearGradient id="SVGID_00000109015841389370297140000001276448348989018559_" gradientUnits="userSpaceOnUse" x1="481.2" y1="91.4" x2="491.9109" y2="91.4" gradientTransform="matrix(1 0 0 -1 0 492)">
	<stop  offset="4.381444e-02" style="stop-color:#3A3ADB"/>
	<stop  offset="0.9948" style="stop-color:#2A2A8C"/>
</linearGradient>
<path style="fill:url(#SVGID_00000109015841389370297140000001276448348989018559_);" d="M490.6,401.9h-8.1c-0.7,0-1.3-0.6-1.3-1.3
	c0-0.7,0.6-1.3,1.3-1.3h8.1c0.7,0,1.3,0.6,1.3,1.3C492,401.3,491.4,401.9,490.6,401.9z"/>
<linearGradient id="SVGID_00000078032893295914870840000016902148883462608045_" gradientUnits="userSpaceOnUse" x1="480.312" y1="260.426" x2="514.4509" y2="260.426" gradientTransform="matrix(1 0 0 -1 0 492)">
	<stop  offset="4.381444e-02" style="stop-color:#3A3ADB"/>
	<stop  offset="0.9948" style="stop-color:#2A4B8C"/>
</linearGradient>
<path style="fill:url(#SVGID_00000078032893295914870840000016902148883462608045_);fill-opacity:0.2;" d="M497.4,238.3
	c-7.7,0-14.5-4.7-17-11.7c-0.3-0.7,0.2-1.6,1-1.7c0.7-0.2,1.4,0.2,1.6,0.8c2.1,5.9,7.9,9.9,14.4,9.9s12.3-4,14.4-9.9
	c0.2-0.6,1-1,1.6-0.8c0.8,0.2,1.2,1,1,1.7C511.9,233.5,505.1,238.3,497.4,238.3z"/>
<linearGradient id="SVGID_00000043428721213757759450000014911100817414592441_" gradientUnits="userSpaceOnUse" x1="480.3491" y1="281.174" x2="514.488" y2="281.174" gradientTransform="matrix(1 0 0 -1 0 492)">
	<stop  offset="4.381444e-02" style="stop-color:#3A3ADB"/>
	<stop  offset="0.9948" style="stop-color:#2A4B8C"/>
</linearGradient>
<path style="fill:url(#SVGID_00000043428721213757759450000014911100817414592441_);fill-opacity:0.2;" d="M513.4,217.5
	c-0.7,0.2-1.4-0.2-1.6-0.8c-2.1-5.9-7.9-9.9-14.4-9.9s-12.3,4-14.4,9.9c-0.2,0.6-1,1-1.6,0.8c-0.8-0.2-1.2-1-1-1.7
	c2.5-7,9.3-11.7,17-11.7s14.5,4.7,17,11.7C514.7,216.5,514.2,217.3,513.4,217.5z"/>
<g>
	<path class="st29" d="M308.9,203c-1.1,2.6-1.9,4.9-3,7.1c-1.1,2.1-1.3,3.9,0,6.1c1.2,2,2.2,4.2,2.7,6.5c0.6,2.8,2.3,4,4.8,4.9
		c7.7,2.8,7.7,2.9,7.7,11.1c0,3.7,0,7.4,0,11.1c0,2.8-1.1,5-3.8,5.6c-5.5,1.2-8.2,4.5-10.2,9.8c-1.9,4.7-2.1,8.3,0.3,12.6
		c2,3.6,1.6,4.8-1.4,7.8c-3.4,3.4-6.9,6.8-10.2,10.3c-2,2-4.2,2.8-6.6,1.3c-4.7-3-9-2.6-14.2-0.3c-4.6,2-7.4,4.3-8.7,9.1
		c-1.1,4.1-2.3,4.6-6.4,4.6c-4.8,0-9.7-0.1-14.5,0c-2.9,0.1-5.1-1.1-5.8-4c-1.2-5.2-4.2-7.9-9.4-9.9c-5-2-8.9-2.4-13.4,0.4
		c-2.6,1.6-5,1-7.1-1.3c-3.4-3.6-6.9-7.1-10.5-10.5c-2.1-2.1-2.9-4.4-1.3-6.9c3-4.7,2.3-8.8,0.3-13.9c-2-5-4.7-7.7-9.6-9
		c-3-0.7-4.3-2.7-4.2-5.9c0.1-5,0.1-10.1,0-15.1c-0.1-2.9,1-5,3.8-5.6c5.5-1.2,8.1-4.6,10.2-9.8c1.9-4.6,2.2-8.3-0.3-12.6
		c-2.1-3.7-1.6-4.9,1.5-8c3.4-3.4,6.9-6.8,10.2-10.3c1.9-2,4.1-2.6,6.4-1.1c4.9,3.1,9.2,2.6,14.4,0.3c4.4-1.9,7.1-4.1,8.4-8.7
		c1.4-4.6,2.2-4.9,7-4.9c4.7,0,9.5,0,14.2,0c2.8,0,4.9,1.1,5.5,3.9c1.2,5.4,4.5,8,9.6,10.1c4.8,1.9,8.5,2.2,12.9-0.3
		c3.5-1.9,4.8-1.5,7.5,1.3c3.5,3.5,7,6.9,10.4,10.5C307.5,200.4,308.1,201.8,308.9,203z M224.1,283.9c1.3,0.5,2.5,1.1,3.7,1.6
		c3.4,1.5,6.6,3.5,10.1,4.3c4.5,1,7,3.4,7.9,7.7c0.7,3.2,2.5,4.4,5.6,3.8c0.1,0,0.2,0,0.3,0c6.5,0,6.6,0,8.8-6.1
		c1-2.7,2.7-4,5.4-4.9c3.7-1.2,7.4-2.4,10.7-4.4c3.3-1.9,6-2,9.3-0.3c4.7,2.4,4.8,2.2,8.4-1.5c4.1-4.1,4.2-4.2,1.6-9.6
		c-1.4-2.9-1.3-5.3,0.3-8c1.7-2.9,3.3-6.1,4-9.3c1-4.6,3.3-7.3,7.8-8.2c3.2-0.6,4.4-2.5,3.8-5.6c-0.1-0.3,0-0.6,0-0.9
		c0-6,0.1-6.1-5.5-8c-3.1-1.1-4.7-3-5.6-6.1c-1-3.5-2.3-7.1-4.2-10.2c-1.9-3.2-2-6-0.4-9.3c2.4-4.7,2.2-4.8-1.4-8.4
		c-4.1-4.1-4.2-4.2-9.6-1.7c-2.9,1.4-5.2,1.2-8-0.3c-3.1-1.7-6.4-3.4-9.9-4.2c-4.1-1-6.3-3.2-7.5-7.1c-1.4-4.4-1.6-4.3-6.3-4.3
		c-0.1,0-0.2,0-0.3,0c-6,0-6.1-0.1-8.1,5.6c-1.1,3.1-3,4.7-6.1,5.6c-3.5,1-7,2.4-10.2,4.2c-3.2,1.9-6,2-9.3,0.3
		c-4.6-2.4-4.7-2.2-8.4,1.5c-4.1,4.1-4.2,4.1-1.7,9.4c1.4,2.9,1.4,5.4-0.3,8.3c-1.6,2.7-3.3,5.7-3.8,8.8c-1,5.1-3.8,7.8-8.6,8.9
		c-0.3,0.1-0.5,0.2-0.8,0.3c-1.7,0.4-2.6,1.4-2.3,3.2c0.1,0.7,0,1.5,0,2.3c0,6.4,0,6.4,5.9,8.7c2.1,0.8,3.7,1.8,4.6,4.2
		c1.7,4.8,4,9.4,5.8,14.2c0.5,1.4,0.9,3.5,0.2,4.5c-4.2,5.9-1.7,9.8,3.1,13.6c1.3,1,2.2,1.4,3.7,0.6
		C219.3,285.9,221.7,285,224.1,283.9z"/>
	<path class="st29" d="M295.1,123.2c-1-1.5-2.1-2.9-3.1-4.5c-1.5-2.4-1.1-4.8,0.9-6.3c2.1-1.6,4.8-1.2,6.5,1.1
		c4.4,6.1,8.7,12.2,12.9,18.4c2.2,3.2,0.9,6.5-2.9,7.4c-6.3,1.6-12.7,3-19.1,4.5c-3.1,0.7-5.5-0.6-6.1-3.1c-0.7-2.8,0.9-5,4.1-5.8
		c1.8-0.4,3.7-0.9,5.7-2c-5-1.4-10-3.2-15.1-4.3c-40.8-8.4-76.5,1.5-107.1,29.8c-0.4,0.4-0.8,0.8-1.2,1.2c-2.2,1.9-4.8,1.9-6.6,0.1
		c-1.8-1.9-1.9-4.6,0.3-6.6c4.6-4.2,9.2-8.6,14.2-12.2c34.9-24.7,72.8-30.6,113.7-18.1c0.7,0.2,1.4,0.4,2.2,0.6
		C294.6,123.5,294.8,123.4,295.1,123.2z"/>
	<path class="st29" d="M128.8,265c-0.7,1.5-1.4,3-2.1,4.5c-1.4,2.9-3.8,3.9-6.2,2.8c-2.5-1.1-3.4-3.7-2.1-6.5
		c3-6.6,6.1-13.3,9.2-19.9c1.8-3.7,5.2-4.3,8-1.4c4.5,4.7,9,9.5,13.4,14.3c2.1,2.3,2.2,5,0.2,6.8c-2,1.9-4.7,1.6-7-0.7
		c-1.2-1.3-2.4-2.6-4.3-3.7c0.5,2.5,0.8,5,1.5,7.5c11.6,43.4,38.7,72,81.6,85.5c1.2,0.4,2.6,0.9,3.5,1.7c1.7,1.5,2,3.5,0.8,5.4
		c-1.2,2-3.1,2.9-5.4,2.1c-7.7-2.8-15.7-5.1-23-8.8c-36.5-18.6-58.8-48.3-67.5-88.2c-0.1-0.4-0.2-0.7-0.2-1.1
		C129.3,265.2,129.2,265.2,128.8,265z"/>
	<path class="st29" d="M326.2,332.7c11.4-9.4,20.3-19.7,27.2-31.8c15.6-27.3,19.8-56.4,12.5-87c-0.2-0.6-0.3-1.3-0.4-1.9
		c-0.5-2.6,0.9-4.9,3.3-5.5c2.5-0.6,4.9,0.6,5.5,3.2c1.3,5.7,2.8,11.5,3.4,17.3c4.3,42.2-8.9,78-39.4,107.5
		c-1.1,1.1-2.3,2.1-4.1,3.7c2.4-0.1,4.2-0.2,5.9-0.3c2.9-0.1,5,1.5,5.2,4.1c0.2,2.4-1.4,4.6-4.2,4.8c-7.6,0.8-15.3,1.5-22.9,2.1
		c-3.3,0.2-5.5-2.4-4.6-5.6c1.9-6.8,4-13.6,6.2-20.4c0.8-2.3,2.8-3.3,5.2-2.8c2.4,0.6,3.8,2.6,3.3,5.2
		C327.7,327.6,327,329.7,326.2,332.7z"/>
	<path class="st29" d="M264.3,337.9c-0.9-5.1-1.7-10-2.5-14.9c-0.1-0.7-0.2-1.3-0.3-2c-0.2-3,1.2-5,3.8-5.4c2.6-0.3,4.6,1.2,5.2,4.1
		c0.9,4.8,1.7,9.5,2.3,14.3c0.3,2.4,1,3.6,3.7,4.3c13.5,3.3,22.7,16.5,21.1,29.8c-1.7,14.6-13.1,25.3-27.3,25.7
		c-14.2,0.4-26.4-9.8-28.7-23.7c-2.2-13.8,6.2-27.3,19.6-31.4C262.2,338.4,263.1,338.2,264.3,337.9z M269.7,346.6
		c-10.7,0-19.2,8.4-19.1,19.1c0,10.5,8.5,19,18.9,19.1c10.5,0,19.3-8.6,19.2-19.1C288.7,355.2,280.2,346.6,269.7,346.6z"/>
	<path class="st29" d="M330.3,184.2c-4.5,3.7-8.7,7.1-12.8,10.6c-1.8,1.5-3.7,2.3-6,1c-2.8-1.6-3-5.3-0.2-7.7c4-3.4,8-6.7,12.1-9.9
		c1.4-1.1,1.8-2,1.2-3.8c-4.9-15.7,4.2-31.8,20.1-35.8c15.7-4,31.4,6.3,34.5,22.3c2.2,11.7-3.6,23.9-14.3,29.8
		c-10.6,5.8-23.9,4.1-32.7-4.2C331.5,185.9,331,185,330.3,184.2z M370.4,166c0-10.5-8.4-19.1-18.9-19.1c-10.6-0.1-19.3,8.5-19.3,19
		c0,10.4,8.6,19.1,19,19.1C361.9,185,370.4,176.6,370.4,166z"/>
	<path class="st29" d="M164.4,204.3c5.2,1.9,10.4,3.9,15.6,5.8c2.1,0.8,3.6,2.3,3.2,4.5c-0.3,1.5-1.6,3.2-2.9,4
		c-0.9,0.6-2.8,0.2-4-0.2c-4.8-1.7-9.6-3.5-14.4-5.4c-1.5-0.6-2.4-0.4-3.6,0.8c-7.8,8.2-17.3,11.1-28.2,8.2
		c-10.9-3-17.6-10.4-20.1-21.4c-3.5-15.3,7-30.8,22.4-33.4c16.1-2.8,31.1,8,33,23.9c0.3,2.1,0.3,4.3,0.1,6.5
		C165.4,199.9,164.8,202,164.4,204.3z M118.5,194.9c0,10.5,8.4,19.1,18.8,19.1c10.6,0.1,19.3-8.4,19.3-19
		c0.1-10.4-8.5-19.1-18.9-19.2C127.1,175.8,118.5,184.3,118.5,194.9z"/>
	<path class="st29" d="M253,207.6c19,0.1,34.6,15.6,34.5,34.6c0,19-15.6,34.5-34.6,34.5c-19.2,0-34.7-15.5-34.6-34.8
		C218.3,223,233.9,207.6,253,207.6z M253,216.7c-14.1-0.1-25.6,11.2-25.6,25.3c0,14.1,11.2,25.5,25.4,25.6
		c14.1,0.1,25.5-11.2,25.7-25.3C278.5,228.3,267.1,216.8,253,216.7z"/>
</g>
</svg>
